G04 #@! TF.GenerationSoftware,KiCad,Pcbnew,(6.0.7)*
G04 #@! TF.CreationDate,2022-10-04T21:38:46-04:00*
G04 #@! TF.ProjectId,mh-custom-v2,6d682d63-7573-4746-9f6d-2d76322e6b69,rev?*
G04 #@! TF.SameCoordinates,Original*
G04 #@! TF.FileFunction,Profile,NP*
%FSLAX46Y46*%
G04 Gerber Fmt 4.6, Leading zero omitted, Abs format (unit mm)*
G04 Created by KiCad (PCBNEW (6.0.7)) date 2022-10-04 21:38:46*
%MOMM*%
%LPD*%
G01*
G04 APERTURE LIST*
G04 #@! TA.AperFunction,Profile*
%ADD10C,0.000787*%
G04 #@! TD*
G04 APERTURE END LIST*
D10*
X96503795Y-20817292D02*
X85203697Y-20817232D01*
X107803852Y-20817282D02*
X96503795Y-20817292D01*
X108313620Y-20906430D02*
X107803852Y-20817282D01*
X108599910Y-21141466D02*
X108313620Y-20906430D01*
X108909416Y-21854680D02*
X108599910Y-21141466D01*
X109136314Y-22235604D02*
X108909416Y-21854680D01*
X109547094Y-22567898D02*
X109136314Y-22235604D01*
X110243597Y-22802936D02*
X109547094Y-22567898D01*
X111327665Y-22892087D02*
X110243597Y-22802936D01*
X115842656Y-22892087D02*
X111327665Y-22892087D01*
X115842666Y-24891993D02*
X115842656Y-22892087D01*
X116019482Y-25767787D02*
X115842666Y-24891993D01*
X116501674Y-26482969D02*
X116019482Y-25767787D01*
X117216858Y-26965160D02*
X116501674Y-26482969D01*
X118092652Y-27141979D02*
X117216858Y-26965160D01*
X128654231Y-27141979D02*
X118092652Y-27141979D01*
X128654231Y-113851725D02*
X128654231Y-27141979D01*
X118092642Y-113851725D02*
X128654231Y-113851725D01*
X117216848Y-114028541D02*
X118092642Y-113851725D01*
X116501664Y-114510733D02*
X117216848Y-114028541D01*
X116019472Y-115225918D02*
X116501664Y-114510733D01*
X115842656Y-116101711D02*
X116019472Y-115225918D01*
X115842656Y-117997197D02*
X115842656Y-116101711D01*
X111327685Y-117997198D02*
X115842656Y-117997197D01*
X110243620Y-118086350D02*
X111327685Y-117997198D01*
X109547118Y-118321389D02*
X110243620Y-118086350D01*
X109136338Y-118653683D02*
X109547118Y-118321389D01*
X108909440Y-119034605D02*
X109136338Y-118653683D01*
X108599932Y-119747821D02*
X108909440Y-119034605D01*
X108313640Y-119982855D02*
X108599932Y-119747821D01*
X107803872Y-120072004D02*
X108313640Y-119982855D01*
X96503795Y-120072004D02*
X107803872Y-120072004D01*
X85203737Y-120072003D02*
X96503795Y-120072004D01*
X84693969Y-119982854D02*
X85203737Y-120072003D01*
X84407678Y-119747819D02*
X84693969Y-119982854D01*
X84098170Y-119034604D02*
X84407678Y-119747819D01*
X83871272Y-118653681D02*
X84098170Y-119034604D01*
X83460492Y-118321387D02*
X83871272Y-118653681D01*
X82763989Y-118086349D02*
X83460492Y-118321387D01*
X81679925Y-117997197D02*
X82763989Y-118086349D01*
X78319431Y-117997197D02*
X81679925Y-117997197D01*
X78319421Y-114964313D02*
X78319431Y-117997197D01*
X78143149Y-114086891D02*
X78319421Y-114964313D01*
X77661860Y-113371887D02*
X78143149Y-114086891D01*
X76946854Y-112890600D02*
X77661860Y-113371887D01*
X76069426Y-112714328D02*
X76946854Y-112890600D01*
X75192024Y-112890600D02*
X76069426Y-112714328D01*
X74477019Y-113371887D02*
X75192024Y-112890600D01*
X73995720Y-114086891D02*
X74477019Y-113371887D01*
X73819440Y-114964313D02*
X73995720Y-114086891D01*
X73819440Y-115037173D02*
X73819440Y-114964313D01*
X71351345Y-115037173D02*
X73819440Y-115037173D01*
X67051354Y-115037173D02*
X71351345Y-115037173D01*
X67051354Y-114183995D02*
X67051354Y-115037173D01*
X67051334Y-114054811D02*
X67051354Y-114183995D01*
X66934444Y-113771724D02*
X67051334Y-114054811D01*
X66651355Y-113654836D02*
X66934444Y-113771724D01*
X63036132Y-113654830D02*
X66651355Y-113654836D01*
X62753047Y-113771718D02*
X63036132Y-113654830D01*
X62636163Y-114054805D02*
X62753047Y-113771718D01*
X62636163Y-114637204D02*
X62636163Y-114054805D01*
X62636163Y-115037173D02*
X62636163Y-114637204D01*
X54310579Y-115037173D02*
X62636163Y-115037173D01*
X54310579Y-114183995D02*
X54310579Y-115037173D01*
X54310559Y-114054811D02*
X54310579Y-114183995D01*
X54193669Y-113771724D02*
X54310559Y-114054811D01*
X53910580Y-113654836D02*
X54193669Y-113771724D01*
X50295857Y-113654830D02*
X53910580Y-113654836D01*
X50012773Y-113771718D02*
X50295857Y-113654830D01*
X49895888Y-114054805D02*
X50012773Y-113771718D01*
X49895888Y-114637204D02*
X49895888Y-114054805D01*
X49895888Y-115037173D02*
X49895888Y-114637204D01*
X41651425Y-115037173D02*
X49895888Y-115037173D01*
X41651425Y-114637204D02*
X41651425Y-115037173D01*
X41651425Y-114183995D02*
X41651425Y-114637204D01*
X41651425Y-114054811D02*
X41651425Y-114183995D01*
X41534535Y-113771724D02*
X41651425Y-114054811D01*
X41251445Y-113654836D02*
X41534535Y-113771724D01*
X37651163Y-113654830D02*
X41251445Y-113654836D01*
X37368073Y-113771718D02*
X37651163Y-113654830D01*
X37251183Y-114054805D02*
X37368073Y-113771718D01*
X37251183Y-114183995D02*
X37251183Y-114054805D01*
X37251183Y-114637204D02*
X37251183Y-114183995D01*
X37251183Y-115037173D02*
X37251183Y-114637204D01*
X32937762Y-115037173D02*
X37251183Y-115037173D01*
X32937762Y-22892087D02*
X32937762Y-115037173D01*
X81679885Y-22892037D02*
X32937762Y-22892087D01*
X82763949Y-22802886D02*
X81679885Y-22892037D01*
X83460452Y-22567847D02*
X82763949Y-22802886D01*
X83871232Y-22235553D02*
X83460452Y-22567847D01*
X84098130Y-21854630D02*
X83871232Y-22235553D01*
X84407638Y-21141415D02*
X84098130Y-21854630D01*
X84693929Y-20906380D02*
X84407638Y-21141415D01*
X85203697Y-20817232D02*
X84693929Y-20906380D01*
X80985326Y-39239355D02*
X80985266Y-24656784D01*
X82235323Y-39239355D02*
X80985326Y-39239355D01*
X82235323Y-24656784D02*
X82235323Y-39239355D01*
X80985266Y-24656784D02*
X82235323Y-24656784D01*
X86480215Y-73459386D02*
X86480105Y-73371586D01*
X87722012Y-73459386D02*
X86480215Y-73459386D01*
X87721922Y-73464071D02*
X87722012Y-73459386D01*
X87592170Y-74281048D02*
X87721922Y-73464071D01*
X87225058Y-75048516D02*
X87592170Y-74281048D01*
X86652275Y-75699557D02*
X87225058Y-75048516D01*
X85905506Y-76167256D02*
X86652275Y-75699557D01*
X85201513Y-76375998D02*
X85905506Y-76167256D01*
X84687488Y-76424603D02*
X85201513Y-76375998D01*
X83823980Y-76319701D02*
X84687488Y-76424603D01*
X82737222Y-76132633D02*
X83823980Y-76319701D01*
X81470019Y-76388510D02*
X82737222Y-76132633D01*
X80435202Y-77086221D02*
X81470019Y-76388510D01*
X79737494Y-78121041D02*
X80435202Y-77086221D01*
X79481619Y-79388246D02*
X79737494Y-78121041D01*
X79737496Y-80655433D02*
X79481619Y-79388246D01*
X80435206Y-81690252D02*
X79737496Y-80655433D01*
X81470023Y-82387968D02*
X80435206Y-81690252D01*
X82737222Y-82643850D02*
X81470023Y-82387968D01*
X83823980Y-82456265D02*
X82737222Y-82643850D01*
X84687488Y-82352395D02*
X83823980Y-82456265D01*
X85743236Y-82542048D02*
X84687488Y-82352395D01*
X86527540Y-82971301D02*
X85743236Y-82542048D01*
X87154844Y-83637967D02*
X86527540Y-82971301D01*
X87570888Y-84441127D02*
X87154844Y-83637967D01*
X87721412Y-85279863D02*
X87570888Y-84441127D01*
X87476907Y-86672895D02*
X87721412Y-85279863D01*
X86833094Y-87639918D02*
X87476907Y-86672895D01*
X85394427Y-89030015D02*
X86833094Y-87639918D01*
X84538507Y-90092160D02*
X85394427Y-89030015D01*
X83891037Y-91283847D02*
X84538507Y-90092160D01*
X83485087Y-92485368D02*
X83891037Y-91283847D01*
X83353721Y-93577016D02*
X83485087Y-92485368D01*
X83350721Y-98124537D02*
X83353721Y-93577016D01*
X82100184Y-98124545D02*
X83350721Y-98124537D01*
X82103184Y-93588914D02*
X82100184Y-98124545D01*
X82292344Y-92137664D02*
X82103184Y-93588914D01*
X82773131Y-90706580D02*
X82292344Y-92137664D01*
X83523818Y-89353052D02*
X82773131Y-90706580D01*
X84522679Y-88134475D02*
X83523818Y-89353052D01*
X85955656Y-86739218D02*
X84522679Y-88134475D01*
X85957656Y-86740218D02*
X85955656Y-86739218D01*
X86349416Y-86129145D02*
X85957656Y-86740218D01*
X86481655Y-85310851D02*
X86349416Y-86129145D01*
X86345933Y-84686539D02*
X86481655Y-85310851D01*
X85961353Y-84135425D02*
X86345933Y-84686539D01*
X85388632Y-83742465D02*
X85961353Y-84135425D01*
X84688488Y-83592614D02*
X85388632Y-83742465D01*
X84157770Y-83674264D02*
X84688488Y-83592614D01*
X83033812Y-83895438D02*
X84157770Y-83674264D01*
X82067974Y-83856168D02*
X83033812Y-83895438D01*
X82068494Y-83855168D02*
X82067974Y-83856168D01*
X81268186Y-83659738D02*
X82068494Y-83855168D01*
X80534240Y-83331736D02*
X81268186Y-83659738D01*
X79315144Y-82335734D02*
X80534240Y-83331736D01*
X78510641Y-80982593D02*
X79315144Y-82335734D01*
X78294933Y-80208169D02*
X78510641Y-80982593D01*
X78220161Y-79387747D02*
X78294933Y-80208169D01*
X78295341Y-78568103D02*
X78220161Y-79387747D01*
X78511359Y-77795549D02*
X78295341Y-78568103D01*
X79311870Y-76447495D02*
X78511359Y-77795549D01*
X80513626Y-75455168D02*
X79311870Y-76447495D01*
X82008554Y-74930146D02*
X80513626Y-75455168D01*
X83056032Y-74882606D02*
X82008554Y-74930146D01*
X84061650Y-75068641D02*
X83056032Y-74882606D01*
X84688488Y-75183363D02*
X84061650Y-75068641D01*
X85388316Y-75043564D02*
X84688488Y-75183363D01*
X85960530Y-74659562D02*
X85388316Y-75043564D01*
X86344627Y-74084516D02*
X85960530Y-74659562D01*
X86480105Y-73371586D02*
X86344627Y-74084516D01*
X86833084Y-53849786D02*
X85395417Y-52459728D01*
X87482894Y-54824611D02*
X86833084Y-53849786D01*
X87722432Y-56205712D02*
X87482894Y-54824611D01*
X87564579Y-57059402D02*
X87722432Y-56205712D01*
X87125338Y-57891620D02*
X87564579Y-57059402D01*
X86457157Y-58577741D02*
X87125338Y-57891620D01*
X85612487Y-58993136D02*
X86457157Y-58577741D01*
X84395295Y-59144344D02*
X85612487Y-58993136D01*
X83825000Y-59033446D02*
X84395295Y-59144344D01*
X82738252Y-58845861D02*
X83825000Y-59033446D01*
X81471047Y-59101741D02*
X82738252Y-58845861D01*
X80436227Y-59799456D02*
X81471047Y-59101741D01*
X79738516Y-60834273D02*
X80436227Y-59799456D01*
X79482639Y-62101465D02*
X79738516Y-60834273D01*
X79738514Y-63368668D02*
X79482639Y-62101465D01*
X80436223Y-64403485D02*
X79738514Y-63368668D01*
X81471043Y-65101193D02*
X80436223Y-64403485D01*
X82738252Y-65357068D02*
X81471043Y-65101193D01*
X83825000Y-65170000D02*
X82738252Y-65357068D01*
X84688518Y-65065097D02*
X83825000Y-65170000D01*
X85439367Y-65166383D02*
X84688518Y-65065097D01*
X86526520Y-65689070D02*
X85439367Y-65166383D01*
X87228477Y-66434807D02*
X86526520Y-65689070D01*
X87606517Y-67252362D02*
X87228477Y-66434807D01*
X87721912Y-67990497D02*
X87606517Y-67252362D01*
X86480105Y-67990537D02*
X87721912Y-67990497D01*
X86345471Y-67357720D02*
X86480105Y-67990537D01*
X85961280Y-66819866D02*
X86345471Y-67357720D01*
X85388597Y-66446312D02*
X85961280Y-66819866D01*
X84688488Y-66306401D02*
X85388597Y-66446312D01*
X84061650Y-66421122D02*
X84688488Y-66306401D01*
X83056032Y-66607157D02*
X84061650Y-66421122D01*
X81662315Y-66488818D02*
X83056032Y-66607157D01*
X80393168Y-65963802D02*
X81662315Y-66488818D01*
X79291357Y-64997041D02*
X80393168Y-65963802D01*
X78514487Y-63679468D02*
X79291357Y-64997041D01*
X78297155Y-62917544D02*
X78514487Y-63679468D01*
X78220161Y-62102017D02*
X78297155Y-62917544D01*
X78504454Y-60513527D02*
X78220161Y-62102017D01*
X79294555Y-59171635D02*
X78504454Y-60513527D01*
X80497271Y-58180015D02*
X79294555Y-59171635D01*
X82019404Y-57642346D02*
X80497271Y-58180015D01*
X83033812Y-57594286D02*
X82019404Y-57642346D01*
X84157770Y-57815461D02*
X83033812Y-57594286D01*
X84688488Y-57897110D02*
X84157770Y-57815461D01*
X85386434Y-57759481D02*
X84688488Y-57897110D01*
X85955665Y-57380472D02*
X85386434Y-57759481D01*
X86340116Y-56810975D02*
X85955665Y-57380472D01*
X86483725Y-56101874D02*
X86340116Y-56810975D01*
X86338349Y-55331548D02*
X86483725Y-56101874D01*
X86057396Y-54860606D02*
X86338349Y-55331548D01*
X84522609Y-53355279D02*
X86057396Y-54860606D01*
X85395417Y-52459728D02*
X84522609Y-53355279D01*
X55226177Y-36270061D02*
X55226177Y-36270061D01*
X54350384Y-36446875D02*
X55226177Y-36270061D01*
X53635200Y-36929064D02*
X54350384Y-36446875D01*
X53153008Y-37644248D02*
X53635200Y-36929064D01*
X52976192Y-38520046D02*
X53153008Y-37644248D01*
X53153008Y-39395839D02*
X52976192Y-38520046D01*
X53635200Y-40111024D02*
X53153008Y-39395839D01*
X54350384Y-40593216D02*
X53635200Y-40111024D01*
X55226177Y-40770032D02*
X54350384Y-40593216D01*
X56101971Y-40593216D02*
X55226177Y-40770032D01*
X56817155Y-40111024D02*
X56101971Y-40593216D01*
X57299347Y-39395839D02*
X56817155Y-40111024D01*
X57476163Y-38520046D02*
X57299347Y-39395839D01*
X57299347Y-37644248D02*
X57476163Y-38520046D01*
X56817155Y-36929064D02*
X57299347Y-37644248D01*
X56101971Y-36446875D02*
X56817155Y-36929064D01*
X55226177Y-36270061D02*
X56101971Y-36446875D01*
X82145524Y-112304929D02*
X82145514Y-105764322D01*
X83395521Y-112304929D02*
X82145524Y-112304929D01*
X83395521Y-105764422D02*
X83395521Y-112304929D01*
X82145514Y-105764322D02*
X83395521Y-105764422D01*
X90777006Y-75175583D02*
X90777006Y-66276901D01*
X92027104Y-75175583D02*
X90777006Y-75175583D01*
X92027104Y-66276901D02*
X92027104Y-75175583D01*
X90777006Y-66276901D02*
X92027104Y-66276901D01*
M02*
