%TF.GenerationSoftware,KiCad,Pcbnew,(6.0.7)*%
%TF.CreationDate,2022-10-09T19:58:49-04:00*%
%TF.ProjectId,mh-custom-v2,6d682d63-7573-4746-9f6d-2d76322e6b69,rev?*%
%TF.SameCoordinates,Original*%
%TF.FileFunction,Drillmap*%
%TF.FilePolarity,Positive*%
%FSLAX45Y45*%
G04 Gerber Fmt 4.5, Leading zero omitted, Abs format (unit mm)*
G04 Created by KiCad (PCBNEW (6.0.7)) date 2022-10-09 19:58:49*
%MOMM*%
%LPD*%
G01*
G04 APERTURE LIST*
%ADD10C,0.000787*%
%ADD11C,0.200000*%
%ADD12C,0.040000*%
%ADD13C,0.070000*%
%ADD14C,0.075000*%
%ADD15C,0.080000*%
%ADD16C,0.100000*%
%ADD17C,0.110000*%
%ADD18C,0.130000*%
%ADD19C,0.132000*%
%ADD20C,0.150000*%
G04 APERTURE END LIST*
D10*
X11132146Y-2288574D02*
X11023740Y-2279659D01*
X10859373Y-11974147D02*
X10890324Y-11902826D01*
X8440148Y-11974147D02*
X8468777Y-11997651D01*
X8468232Y-6505875D02*
X8381880Y-6516365D01*
X8302761Y-5758794D02*
X8201320Y-5763600D01*
X8338932Y-10575807D02*
X8338932Y-11229858D01*
X6302993Y-11364848D02*
X6664515Y-11364849D01*
X10859371Y-2113512D02*
X10830742Y-2090008D01*
X8756469Y-8443478D02*
X8714864Y-8363162D01*
X6664515Y-11364849D02*
X6692824Y-11376538D01*
X11601328Y-2576144D02*
X11583646Y-2488565D01*
X8538243Y-8373612D02*
X8595515Y-8412908D01*
X8682688Y-5384344D02*
X8538922Y-5245338D01*
X11583646Y-2488565D02*
X11583645Y-2288574D01*
X5746996Y-3851370D02*
X5729314Y-3938949D01*
X11808645Y-2713563D02*
X11721066Y-2695881D01*
X8468129Y-7641825D02*
X8519531Y-7636965D01*
X8519754Y-12006565D02*
X9649759Y-12006566D01*
X11808644Y-11384538D02*
X12864803Y-11384538D01*
X8538211Y-7503722D02*
X8468229Y-7517701D01*
X8381880Y-6516365D02*
X8273205Y-6535072D01*
X8206229Y-8384882D02*
X8206177Y-8384982D01*
X8213932Y-11229858D02*
X8213931Y-10575797D01*
X8633843Y-7407817D02*
X8595433Y-7465321D01*
X7828914Y-7856175D02*
X7821396Y-7938140D01*
X8633391Y-5680463D02*
X8594946Y-5737412D01*
X8165611Y-6648247D02*
X8304983Y-6660081D01*
X8351762Y-8934670D02*
X8276693Y-9070023D01*
X5028966Y-11364848D02*
X5390438Y-11364849D01*
X8381880Y-5902710D02*
X8438909Y-5913800D01*
X8468229Y-5789076D02*
X8415157Y-5780911D01*
X8652032Y-6568272D02*
X8543317Y-6516003D01*
X5430438Y-11417765D02*
X5430438Y-11503082D01*
X8468229Y-8358627D02*
X8538243Y-8373612D01*
X8206177Y-8384982D02*
X8302761Y-8388909D01*
X8304983Y-6660081D02*
X8405545Y-6641477D01*
X8042900Y-7707987D02*
X8146382Y-7638216D01*
X8647752Y-5609553D02*
X8633391Y-5680463D01*
X7973129Y-8064908D02*
X7947542Y-7938190D01*
X7518582Y-11288425D02*
X7606322Y-11270798D01*
X8538922Y-5245338D02*
X8451641Y-5334893D01*
X8334452Y-9811819D02*
X8334752Y-9357067D01*
X7930894Y-8232939D02*
X8052804Y-8332539D01*
X8645096Y-5857139D02*
X8711914Y-5788527D01*
X5362900Y-4010468D02*
X5314681Y-3938949D01*
X8647390Y-7336524D02*
X8633843Y-7407817D01*
X8273102Y-7612628D02*
X8381778Y-7631335D01*
X8538823Y-8902367D02*
X8682689Y-8763357D01*
X7850444Y-8097624D02*
X7930894Y-8232939D01*
X8647401Y-7345304D02*
X8647390Y-7336524D01*
X8222912Y-2465044D02*
X8222912Y-3923301D01*
X7813695Y-11408054D02*
X7831322Y-11495796D01*
X8771571Y-6798415D02*
X8760032Y-6724601D01*
X5314681Y-3763790D02*
X5362900Y-3692272D01*
X5609577Y-3644053D02*
X5681095Y-3692272D01*
X5681095Y-4010468D02*
X5609577Y-4058687D01*
X8468773Y-2090003D02*
X8440144Y-2113507D01*
X8453231Y-9008581D02*
X8538823Y-8902367D01*
X8038697Y-6595745D02*
X8165611Y-6648247D01*
X7973129Y-7811469D02*
X8042900Y-7707987D01*
X8682689Y-8763357D02*
X8747071Y-8666655D01*
X11721066Y-2695881D02*
X11649547Y-2647662D01*
X8273102Y-8263750D02*
X8146382Y-8238162D01*
X8222912Y-3923301D02*
X8097912Y-3923301D01*
X12864803Y-2713563D02*
X11808645Y-2713563D01*
X8721886Y-7504217D02*
X8758597Y-7427470D01*
X8334752Y-9357067D02*
X8347888Y-9247902D01*
X8043002Y-5979311D02*
X8146484Y-5909539D01*
X11649546Y-11450438D02*
X11721065Y-11402219D01*
X11583645Y-2288574D02*
X11132146Y-2288574D01*
X8201320Y-5763600D02*
X8049107Y-5817367D01*
X7831322Y-11495796D02*
X7831323Y-11799085D01*
X8771521Y-8527352D02*
X8756469Y-8443478D01*
X5314681Y-3938949D02*
X5296999Y-3851370D01*
X9649759Y-2081094D02*
X8519750Y-2081088D01*
X5521998Y-3626371D02*
X5521998Y-3626371D01*
X7447082Y-11336554D02*
X7518582Y-11288425D01*
X6692824Y-11376538D02*
X6704513Y-11404846D01*
X11649547Y-2647662D02*
X11601328Y-2576144D01*
X4988969Y-11463086D02*
X4988969Y-11404846D01*
X8451641Y-5334893D02*
X8605119Y-5485426D01*
X8747071Y-8666655D02*
X8771521Y-8527352D01*
X7973231Y-6336232D02*
X7947644Y-6209512D01*
X7850516Y-7778920D02*
X7828914Y-7856175D01*
X9649759Y-12006566D02*
X10779767Y-12006566D01*
X8589930Y-7616091D02*
X8664607Y-7569321D01*
X8146382Y-7638216D02*
X8273102Y-7612628D01*
X8275775Y-2279654D02*
X8167368Y-2288569D01*
X8146484Y-6509484D02*
X8043002Y-6439714D01*
X5430438Y-11503082D02*
X6262996Y-11503082D01*
X6262996Y-11503082D02*
X6262996Y-11463086D01*
X8468229Y-7517701D02*
X8405545Y-7506229D01*
X7828873Y-8020182D02*
X7850444Y-8097624D01*
X8228614Y-9213132D02*
X8209698Y-9358257D01*
X7850828Y-6367312D02*
X7928515Y-6499069D01*
X7381324Y-11503082D02*
X7381324Y-11495796D01*
X10890324Y-11902826D02*
X10913014Y-11864733D01*
X8595508Y-6681352D02*
X8633927Y-6735137D01*
X7829095Y-6291120D02*
X7850828Y-6367312D01*
X3724498Y-11463086D02*
X3724498Y-11417765D01*
X8771572Y-7345772D02*
X8771581Y-7345304D01*
X8386507Y-11864733D02*
X8409197Y-11902826D01*
X4164522Y-11404846D02*
X4164522Y-11417765D01*
X7821396Y-7938140D02*
X7828873Y-8020182D01*
X8386503Y-2222921D02*
X8345425Y-2256150D01*
X7831323Y-11799085D02*
X8167372Y-11799085D01*
X8405545Y-7506229D02*
X8304983Y-7487626D01*
X3736187Y-11376537D02*
X3764496Y-11364848D01*
X7821396Y-6209567D02*
X7829095Y-6291120D01*
X8595515Y-8412908D02*
X8633973Y-8468019D01*
X5609577Y-4058687D02*
X5521998Y-4076368D01*
X8771581Y-7345304D02*
X8647401Y-7345304D01*
X4152833Y-11376538D02*
X4164522Y-11404846D01*
X8519750Y-2081088D02*
X8468773Y-2090003D01*
X6704515Y-11503082D02*
X7134514Y-11503082D01*
X11601327Y-11521957D02*
X11649546Y-11450438D01*
X8345429Y-11831504D02*
X8386507Y-11864733D01*
X8633215Y-5532520D02*
X8647752Y-5609553D01*
X9077080Y-6627055D02*
X9202090Y-6627055D01*
X8275779Y-11808000D02*
X8345429Y-11831504D01*
X8273205Y-5883951D02*
X8381880Y-5902710D01*
X10954092Y-11831504D02*
X11023742Y-11808000D01*
X3724498Y-11503082D02*
X3724498Y-11463086D01*
X10913011Y-2222926D02*
X10890321Y-2184833D01*
X8468129Y-8234605D02*
X8381778Y-8244992D01*
X3293156Y-2288574D02*
X3293156Y-11503082D01*
X8594945Y-8673287D02*
X8451648Y-8812813D01*
X10890321Y-2184833D02*
X10859371Y-2113512D01*
X3764496Y-11364848D02*
X4124524Y-11364849D01*
X10913014Y-11864733D02*
X10954092Y-11831504D01*
X4124524Y-11364849D02*
X4152833Y-11376538D01*
X8405545Y-6641477D02*
X8468229Y-6630005D01*
X3293156Y-11503082D02*
X3724498Y-11503082D01*
X11132148Y-11799085D02*
X11583645Y-11799085D01*
X5362900Y-3692272D02*
X5434418Y-3644053D01*
X7928515Y-6499069D02*
X8038697Y-6595745D01*
X8146382Y-8238162D02*
X8042900Y-8168390D01*
X7381324Y-11495796D02*
X7398952Y-11408054D01*
X8381778Y-7631335D02*
X8468129Y-7641825D01*
X5729314Y-3763790D02*
X5746996Y-3851370D01*
X4164522Y-11503082D02*
X4988969Y-11503082D01*
X5434418Y-3644053D02*
X5521998Y-3626371D01*
X8209698Y-9358257D02*
X8209398Y-9811820D01*
X10830744Y-11997651D02*
X10859373Y-11974147D01*
X8146484Y-5909539D02*
X8273205Y-5883951D01*
X8409193Y-2184828D02*
X8386503Y-2222921D01*
X9077080Y-7516923D02*
X9077080Y-6627055D01*
X11023740Y-2279659D02*
X10954089Y-2256155D01*
X8595145Y-8673387D02*
X8594945Y-8673287D01*
X10954089Y-2256155D02*
X10913011Y-2222926D01*
X8594946Y-5737412D02*
X8538023Y-5775313D01*
X6274684Y-11376537D02*
X6302993Y-11364848D01*
X7928835Y-5916529D02*
X7849825Y-6050718D01*
X8573703Y-8253570D02*
X8468129Y-8234605D01*
X8409197Y-11902826D02*
X8440148Y-11974147D01*
X8647390Y-6798419D02*
X8771571Y-6798415D01*
X7694065Y-11288425D02*
X7765566Y-11336554D01*
X4164522Y-11417765D02*
X4164522Y-11463086D01*
X8538023Y-5775313D02*
X8468229Y-5789076D01*
X8755838Y-5705305D02*
X8771623Y-5619936D01*
X8634321Y-8612280D02*
X8595145Y-8673387D01*
X8760032Y-6724601D02*
X8722228Y-6642846D01*
X11721065Y-11402219D02*
X11808644Y-11384538D01*
X5434418Y-4058687D02*
X5362900Y-4010468D01*
X8605119Y-5485426D02*
X8633215Y-5532520D01*
X5430436Y-11404846D02*
X5430438Y-11417765D01*
X8771623Y-5619936D02*
X8747669Y-5481826D01*
X8647545Y-8530450D02*
X8634321Y-8612280D01*
X4988969Y-11503082D02*
X4988969Y-11463086D01*
X8519531Y-7636965D02*
X8589930Y-7616091D01*
X8633973Y-8468019D02*
X8647545Y-8530450D01*
X8049107Y-5817367D02*
X7928835Y-5916529D01*
X5521998Y-3626371D02*
X5609577Y-3644053D01*
X8560629Y-5898679D02*
X8645096Y-5857139D01*
X8633927Y-6735137D02*
X8647390Y-6798419D01*
X8388483Y-9127750D02*
X8453231Y-9008581D01*
X8652134Y-8296495D02*
X8573703Y-8253570D01*
X5000657Y-11376537D02*
X5028966Y-11364848D01*
X5296999Y-3851370D02*
X5314681Y-3763790D01*
X11583645Y-11609536D02*
X11601327Y-11521957D01*
X8276693Y-9070023D02*
X8228614Y-9213132D01*
X8050742Y-7544882D02*
X7930567Y-7644115D01*
X7849825Y-6050718D02*
X7821396Y-6209567D01*
X10779767Y-12006566D02*
X10830744Y-11997651D01*
X8415157Y-8366792D02*
X8468229Y-8358627D01*
X8273205Y-6535072D02*
X8146484Y-6509484D01*
X8304983Y-7487626D02*
X8200235Y-7492380D01*
X7134514Y-11503082D02*
X7381324Y-11503082D01*
X7930567Y-7644115D02*
X7850516Y-7778920D01*
X5418747Y-11376538D02*
X5430436Y-11404846D01*
X8052804Y-8332539D02*
X8126198Y-8365339D01*
X8043002Y-6439714D02*
X7973231Y-6336232D01*
X8758597Y-7427470D02*
X8771572Y-7345772D01*
X7947542Y-7938190D02*
X7973129Y-7811469D01*
X6704513Y-11404846D02*
X6704515Y-11417765D01*
X8714864Y-8363162D02*
X8652134Y-8296495D01*
X6262996Y-11463086D02*
X6262996Y-11404846D01*
X5521998Y-4076368D02*
X5434418Y-4058687D01*
X8126198Y-8365339D02*
X8206229Y-8384882D01*
X8167372Y-11799085D02*
X8275779Y-11808000D01*
X8345425Y-2256150D02*
X8275775Y-2279654D01*
X8097906Y-2465044D02*
X8222912Y-2465044D01*
X8438909Y-5913800D02*
X8560629Y-5898679D01*
X8213931Y-10575797D02*
X8338932Y-10575807D01*
X8347888Y-9247902D02*
X8388483Y-9127750D01*
X8451648Y-8812813D02*
X8351762Y-8934670D01*
X8468777Y-11997651D02*
X8519754Y-12006565D01*
X8468229Y-6630005D02*
X8538240Y-6643996D01*
X6262996Y-11404846D02*
X6274684Y-11376537D01*
X7606322Y-11270798D02*
X7694065Y-11288425D01*
X4988969Y-11404846D02*
X5000657Y-11376537D01*
X11583645Y-11799085D02*
X11583645Y-11609536D01*
X5729314Y-3938949D02*
X5681095Y-4010468D01*
X8200235Y-7492380D02*
X8050742Y-7544882D01*
X5681095Y-3692272D02*
X5729314Y-3763790D01*
X8209398Y-9811820D02*
X8334452Y-9811819D01*
X7973231Y-6082792D02*
X8043002Y-5979311D01*
X8302761Y-8388909D02*
X8415157Y-8366792D01*
X8664607Y-7569321D02*
X8721886Y-7504217D01*
X3724498Y-11404846D02*
X3736187Y-11376537D01*
X8711914Y-5788527D02*
X8755838Y-5705305D01*
X6704515Y-11417765D02*
X6704515Y-11503082D01*
X8167368Y-2288569D02*
X3293156Y-2288574D01*
X9202090Y-7516923D02*
X9077080Y-7516923D01*
X7947644Y-6209512D02*
X7973231Y-6082792D01*
X7765566Y-11336554D02*
X7813695Y-11408054D01*
X8543317Y-6516003D02*
X8468232Y-6505875D01*
X10830742Y-2090008D02*
X10779765Y-2081093D01*
X8538240Y-6643996D02*
X8595508Y-6681352D01*
X3724498Y-11417765D02*
X3724498Y-11404846D01*
X8595433Y-7465321D02*
X8538211Y-7503722D01*
X8440144Y-2113507D02*
X8409193Y-2184828D01*
X4164522Y-11463086D02*
X4164522Y-11503082D01*
X8338932Y-11229858D02*
X8213932Y-11229858D01*
X9202090Y-6627055D02*
X9202090Y-7516923D01*
X8097912Y-3923301D02*
X8097906Y-2465044D01*
X5390438Y-11364849D02*
X5418747Y-11376538D01*
X8747669Y-5481826D02*
X8682688Y-5384344D01*
X12864803Y-11384538D02*
X12864803Y-2713563D01*
X11023742Y-11808000D02*
X11132148Y-11799085D01*
X8042900Y-8168390D02*
X7973129Y-8064908D01*
X7398952Y-11408054D02*
X7447082Y-11336554D01*
X10779765Y-2081093D02*
X9649759Y-2081094D01*
X8381778Y-8244992D02*
X8273102Y-8263750D01*
X8722228Y-6642846D02*
X8652032Y-6568272D01*
X8415157Y-5780911D02*
X8302761Y-5758794D01*
D11*
D12*
X3347500Y-9193000D02*
X3387500Y-9233000D01*
X3387500Y-9193000D02*
X3347500Y-9233000D01*
X3651140Y-7268540D02*
X3691140Y-7308540D01*
X3691140Y-7268540D02*
X3651140Y-7308540D01*
X3920380Y-7342200D02*
X3960380Y-7382200D01*
X3960380Y-7342200D02*
X3920380Y-7382200D01*
X4007500Y-4392000D02*
X4047500Y-4432000D01*
X4047500Y-4392000D02*
X4007500Y-4432000D01*
X4032750Y-5014000D02*
X4072750Y-5054000D01*
X4072750Y-5014000D02*
X4032750Y-5054000D01*
X4060080Y-6727520D02*
X4100080Y-6767520D01*
X4100080Y-6727520D02*
X4060080Y-6767520D01*
X4436500Y-6387660D02*
X4476500Y-6427660D01*
X4476500Y-6387660D02*
X4436500Y-6427660D01*
X4502500Y-7640000D02*
X4542500Y-7680000D01*
X4542500Y-7640000D02*
X4502500Y-7680000D01*
X4508500Y-9570000D02*
X4548500Y-9610000D01*
X4548500Y-9570000D02*
X4508500Y-9610000D01*
X4588500Y-7938000D02*
X4628500Y-7978000D01*
X4628500Y-7938000D02*
X4588500Y-7978000D01*
X4727380Y-7001540D02*
X4767380Y-7041540D01*
X4767380Y-7001540D02*
X4727380Y-7041540D01*
X4727497Y-7104117D02*
X4767497Y-7144117D01*
X4767497Y-7104117D02*
X4727497Y-7144117D01*
X4921140Y-7329500D02*
X4961140Y-7369500D01*
X4961140Y-7329500D02*
X4921140Y-7369500D01*
X4924823Y-8030966D02*
X4964823Y-8070966D01*
X4964823Y-8030966D02*
X4924823Y-8070966D01*
X5302423Y-7768751D02*
X5342423Y-7808751D01*
X5342423Y-7768751D02*
X5302423Y-7808751D01*
X5331500Y-7483289D02*
X5371500Y-7523289D01*
X5371500Y-7483289D02*
X5331500Y-7523289D01*
X5482500Y-9962000D02*
X5522500Y-10002000D01*
X5522500Y-9962000D02*
X5482500Y-10002000D01*
X5736480Y-6521780D02*
X5776480Y-6561780D01*
X5776480Y-6521780D02*
X5736480Y-6561780D01*
X5845500Y-9771000D02*
X5885500Y-9811000D01*
X5885500Y-9771000D02*
X5845500Y-9811000D01*
X6045500Y-7716000D02*
X6085500Y-7756000D01*
X6085500Y-7716000D02*
X6045500Y-7756000D01*
X6137800Y-3036900D02*
X6177800Y-3076900D01*
X6177800Y-3036900D02*
X6137800Y-3076900D01*
X6168500Y-7609000D02*
X6208500Y-7649000D01*
X6208500Y-7609000D02*
X6168500Y-7649000D01*
X6184950Y-7805450D02*
X6224950Y-7845450D01*
X6224950Y-7805450D02*
X6184950Y-7845450D01*
X6450220Y-7187260D02*
X6490220Y-7227260D01*
X6490220Y-7187260D02*
X6450220Y-7227260D01*
X6883500Y-7404000D02*
X6923500Y-7444000D01*
X6923500Y-7404000D02*
X6883500Y-7444000D01*
X7064900Y-8815400D02*
X7104900Y-8855400D01*
X7104900Y-8815400D02*
X7064900Y-8855400D01*
X7379500Y-6860000D02*
X7419500Y-6900000D01*
X7419500Y-6860000D02*
X7379500Y-6900000D01*
X7522500Y-6312000D02*
X7562500Y-6352000D01*
X7562500Y-6312000D02*
X7522500Y-6352000D01*
X7628500Y-6230000D02*
X7668500Y-6270000D01*
X7668500Y-6230000D02*
X7628500Y-6270000D01*
X3468000Y-10551700D02*
G75*
G03*
X3468000Y-10551700I-20000J0D01*
G01*
D11*
X3428000Y-10501700D02*
X3428000Y-10601700D01*
X3468000Y-10501700D02*
X3468000Y-10601700D01*
X3428000Y-10601700D02*
G75*
G03*
X3468000Y-10601700I20000J0D01*
G01*
X3468000Y-10501700D02*
G75*
G03*
X3428000Y-10501700I-20000J0D01*
G01*
D12*
X3718000Y-10551700D02*
G75*
G03*
X3718000Y-10551700I-20000J0D01*
G01*
D11*
X3678000Y-10501700D02*
X3678000Y-10601700D01*
X3718000Y-10501700D02*
X3718000Y-10601700D01*
X3678000Y-10601700D02*
G75*
G03*
X3718000Y-10601700I20000J0D01*
G01*
X3718000Y-10501700D02*
G75*
G03*
X3678000Y-10501700I-20000J0D01*
G01*
D12*
X3968000Y-11051700D02*
G75*
G03*
X3968000Y-11051700I-20000J0D01*
G01*
D11*
X3898000Y-11071700D02*
X3998000Y-11071700D01*
X3898000Y-11031700D02*
X3998000Y-11031700D01*
X3998000Y-11071700D02*
G75*
G03*
X3998000Y-11031700I0J20000D01*
G01*
X3898000Y-11031700D02*
G75*
G03*
X3898000Y-11071700I0J-20000D01*
G01*
D12*
X4218000Y-10551700D02*
G75*
G03*
X4218000Y-10551700I-20000J0D01*
G01*
D11*
X4218000Y-10601700D02*
X4218000Y-10501700D01*
X4178000Y-10601700D02*
X4178000Y-10501700D01*
X4218000Y-10501700D02*
G75*
G03*
X4178000Y-10501700I-20000J0D01*
G01*
X4178000Y-10601700D02*
G75*
G03*
X4218000Y-10601700I20000J0D01*
G01*
D12*
X4468000Y-10551700D02*
G75*
G03*
X4468000Y-10551700I-20000J0D01*
G01*
D11*
X4468000Y-10601700D02*
X4468000Y-10501700D01*
X4428000Y-10601700D02*
X4428000Y-10501700D01*
X4468000Y-10501700D02*
G75*
G03*
X4428000Y-10501700I-20000J0D01*
G01*
X4428000Y-10601700D02*
G75*
G03*
X4468000Y-10601700I20000J0D01*
G01*
D12*
X4733950Y-10551700D02*
G75*
G03*
X4733950Y-10551700I-20000J0D01*
G01*
D11*
X4693950Y-10501700D02*
X4693950Y-10601700D01*
X4733950Y-10501700D02*
X4733950Y-10601700D01*
X4693950Y-10601700D02*
G75*
G03*
X4733950Y-10601700I20000J0D01*
G01*
X4733950Y-10501700D02*
G75*
G03*
X4693950Y-10501700I-20000J0D01*
G01*
D12*
X4983950Y-10551700D02*
G75*
G03*
X4983950Y-10551700I-20000J0D01*
G01*
D11*
X4943950Y-10501700D02*
X4943950Y-10601700D01*
X4983950Y-10501700D02*
X4983950Y-10601700D01*
X4943950Y-10601700D02*
G75*
G03*
X4983950Y-10601700I20000J0D01*
G01*
X4983950Y-10501700D02*
G75*
G03*
X4943950Y-10501700I-20000J0D01*
G01*
D12*
X5233950Y-11051700D02*
G75*
G03*
X5233950Y-11051700I-20000J0D01*
G01*
D11*
X5163950Y-11071700D02*
X5263950Y-11071700D01*
X5163950Y-11031700D02*
X5263950Y-11031700D01*
X5263950Y-11071700D02*
G75*
G03*
X5263950Y-11031700I0J20000D01*
G01*
X5163950Y-11031700D02*
G75*
G03*
X5163950Y-11071700I0J-20000D01*
G01*
D12*
X5483950Y-10551700D02*
G75*
G03*
X5483950Y-10551700I-20000J0D01*
G01*
D11*
X5483950Y-10601700D02*
X5483950Y-10501700D01*
X5443950Y-10601700D02*
X5443950Y-10501700D01*
X5483950Y-10501700D02*
G75*
G03*
X5443950Y-10501700I-20000J0D01*
G01*
X5443950Y-10601700D02*
G75*
G03*
X5483950Y-10601700I20000J0D01*
G01*
D12*
X5733950Y-10551700D02*
G75*
G03*
X5733950Y-10551700I-20000J0D01*
G01*
D11*
X5733950Y-10601700D02*
X5733950Y-10501700D01*
X5693950Y-10601700D02*
X5693950Y-10501700D01*
X5733950Y-10501700D02*
G75*
G03*
X5693950Y-10501700I-20000J0D01*
G01*
X5693950Y-10601700D02*
G75*
G03*
X5733950Y-10601700I20000J0D01*
G01*
D12*
X6008000Y-10551700D02*
G75*
G03*
X6008000Y-10551700I-20000J0D01*
G01*
D11*
X5968000Y-10501700D02*
X5968000Y-10601700D01*
X6008000Y-10501700D02*
X6008000Y-10601700D01*
X5968000Y-10601700D02*
G75*
G03*
X6008000Y-10601700I20000J0D01*
G01*
X6008000Y-10501700D02*
G75*
G03*
X5968000Y-10501700I-20000J0D01*
G01*
D12*
X6258000Y-10551700D02*
G75*
G03*
X6258000Y-10551700I-20000J0D01*
G01*
D11*
X6218000Y-10501700D02*
X6218000Y-10601700D01*
X6258000Y-10501700D02*
X6258000Y-10601700D01*
X6218000Y-10601700D02*
G75*
G03*
X6258000Y-10601700I20000J0D01*
G01*
X6258000Y-10501700D02*
G75*
G03*
X6218000Y-10501700I-20000J0D01*
G01*
D12*
X6508000Y-11051700D02*
G75*
G03*
X6508000Y-11051700I-20000J0D01*
G01*
D11*
X6438000Y-11071700D02*
X6538000Y-11071700D01*
X6438000Y-11031700D02*
X6538000Y-11031700D01*
X6538000Y-11071700D02*
G75*
G03*
X6538000Y-11031700I0J20000D01*
G01*
X6438000Y-11031700D02*
G75*
G03*
X6438000Y-11071700I0J-20000D01*
G01*
D12*
X6758000Y-10551700D02*
G75*
G03*
X6758000Y-10551700I-20000J0D01*
G01*
D11*
X6758000Y-10601700D02*
X6758000Y-10501700D01*
X6718000Y-10601700D02*
X6718000Y-10501700D01*
X6758000Y-10501700D02*
G75*
G03*
X6718000Y-10501700I-20000J0D01*
G01*
X6718000Y-10601700D02*
G75*
G03*
X6758000Y-10601700I20000J0D01*
G01*
D12*
X7008000Y-10551700D02*
G75*
G03*
X7008000Y-10551700I-20000J0D01*
G01*
D11*
X7008000Y-10601700D02*
X7008000Y-10501700D01*
X6968000Y-10601700D02*
X6968000Y-10501700D01*
X7008000Y-10501700D02*
G75*
G03*
X6968000Y-10501700I-20000J0D01*
G01*
X6968000Y-10601700D02*
G75*
G03*
X7008000Y-10601700I20000J0D01*
G01*
D13*
X7248500Y-4281000D02*
X7248500Y-4351000D01*
X7213500Y-4316000D02*
X7283500Y-4316000D01*
X7248500Y-5043000D02*
X7248500Y-5113000D01*
X7213500Y-5078000D02*
X7283500Y-5078000D01*
X10550500Y-3519000D02*
X10550500Y-3589000D01*
X10515500Y-3554000D02*
X10585500Y-3554000D01*
X10550500Y-5043000D02*
X10550500Y-5113000D01*
X10515500Y-5078000D02*
X10585500Y-5078000D01*
D14*
X3692017Y-7529517D02*
X3692017Y-7476483D01*
X3638983Y-7476483D01*
X3638983Y-7529517D01*
X3692017Y-7529517D01*
X3692017Y-8133517D02*
X3692017Y-8080483D01*
X3638983Y-8080483D01*
X3638983Y-8133517D01*
X3692017Y-8133517D01*
X3892017Y-7529517D02*
X3892017Y-7476483D01*
X3838983Y-7476483D01*
X3838983Y-7529517D01*
X3892017Y-7529517D01*
X3892017Y-8133517D02*
X3892017Y-8080483D01*
X3838983Y-8080483D01*
X3838983Y-8133517D01*
X3892017Y-8133517D01*
X4092017Y-7529517D02*
X4092017Y-7476483D01*
X4038983Y-7476483D01*
X4038983Y-7529517D01*
X4092017Y-7529517D01*
X4092017Y-8133517D02*
X4092017Y-8080483D01*
X4038983Y-8080483D01*
X4038983Y-8133517D01*
X4092017Y-8133517D01*
X6487017Y-7965517D02*
X6487017Y-7912483D01*
X6433983Y-7912483D01*
X6433983Y-7965517D01*
X6487017Y-7965517D01*
X6487017Y-8165517D02*
X6487017Y-8112483D01*
X6433983Y-8112483D01*
X6433983Y-8165517D01*
X6487017Y-8165517D01*
X6487017Y-8365517D02*
X6487017Y-8312483D01*
X6433983Y-8312483D01*
X6433983Y-8365517D01*
X6487017Y-8365517D01*
X6487017Y-8565517D02*
X6487017Y-8512483D01*
X6433983Y-8512483D01*
X6433983Y-8565517D01*
X6487017Y-8565517D01*
X7149017Y-7965517D02*
X7149017Y-7912483D01*
X7095983Y-7912483D01*
X7095983Y-7965517D01*
X7149017Y-7965517D01*
X7149017Y-8165517D02*
X7149017Y-8112483D01*
X7095983Y-8112483D01*
X7095983Y-8165517D01*
X7149017Y-8165517D01*
X7149017Y-8365517D02*
X7149017Y-8312483D01*
X7095983Y-8312483D01*
X7095983Y-8365517D01*
X7149017Y-8365517D01*
X7149017Y-8565517D02*
X7149017Y-8512483D01*
X7095983Y-8512483D01*
X7095983Y-8565517D01*
X7149017Y-8565517D01*
X7152017Y-5718517D02*
X7152017Y-5665483D01*
X7098983Y-5665483D01*
X7098983Y-5718517D01*
X7152017Y-5718517D01*
X7152017Y-5918517D02*
X7152017Y-5865483D01*
X7098983Y-5865483D01*
X7098983Y-5918517D01*
X7152017Y-5918517D01*
X7152017Y-6458517D02*
X7152017Y-6405483D01*
X7098983Y-6405483D01*
X7098983Y-6458517D01*
X7152017Y-6458517D01*
X7152017Y-6658517D02*
X7152017Y-6605483D01*
X7098983Y-6605483D01*
X7098983Y-6658517D01*
X7152017Y-6658517D01*
X7152017Y-6858517D02*
X7152017Y-6805483D01*
X7098983Y-6805483D01*
X7098983Y-6858517D01*
X7152017Y-6858517D01*
X7152017Y-7058517D02*
X7152017Y-7005483D01*
X7098983Y-7005483D01*
X7098983Y-7058517D01*
X7152017Y-7058517D01*
X7152017Y-7258517D02*
X7152017Y-7205483D01*
X7098983Y-7205483D01*
X7098983Y-7258517D01*
X7152017Y-7258517D01*
X7152017Y-7458517D02*
X7152017Y-7405483D01*
X7098983Y-7405483D01*
X7098983Y-7458517D01*
X7152017Y-7458517D01*
D15*
X3631500Y-8687000D02*
X3671500Y-8647000D01*
X3631500Y-8607000D01*
X3591500Y-8647000D01*
X3631500Y-8687000D01*
X3631500Y-8887000D02*
X3671500Y-8847000D01*
X3631500Y-8807000D01*
X3591500Y-8847000D01*
X3631500Y-8887000D01*
X4627500Y-8699000D02*
X4667500Y-8659000D01*
X4627500Y-8619000D01*
X4587500Y-8659000D01*
X4627500Y-8699000D01*
X4627500Y-8899000D02*
X4667500Y-8859000D01*
X4627500Y-8819000D01*
X4587500Y-8859000D01*
X4627500Y-8899000D01*
X5065500Y-6590000D02*
X5105500Y-6550000D01*
X5065500Y-6510000D01*
X5025500Y-6550000D01*
X5065500Y-6590000D01*
X5553500Y-6590000D02*
X5593500Y-6550000D01*
X5553500Y-6510000D01*
X5513500Y-6550000D01*
X5553500Y-6590000D01*
X5928500Y-9103000D02*
X5968500Y-9063000D01*
X5928500Y-9023000D01*
X5888500Y-9063000D01*
X5928500Y-9103000D01*
X6128500Y-9103000D02*
X6168500Y-9063000D01*
X6128500Y-9023000D01*
X6088500Y-9063000D01*
X6128500Y-9103000D01*
X6595500Y-9009000D02*
X6635500Y-8969000D01*
X6595500Y-8929000D01*
X6555500Y-8969000D01*
X6595500Y-9009000D01*
X6595500Y-9209000D02*
X6635500Y-9169000D01*
X6595500Y-9129000D01*
X6555500Y-9169000D01*
X6595500Y-9209000D01*
D16*
X3496000Y-2462500D02*
X3596000Y-2562500D01*
X3596000Y-2462500D02*
X3496000Y-2562500D01*
X3596000Y-2512500D02*
G75*
G03*
X3596000Y-2512500I-50000J0D01*
G01*
X3496000Y-2716500D02*
X3596000Y-2816500D01*
X3596000Y-2716500D02*
X3496000Y-2816500D01*
X3596000Y-2766500D02*
G75*
G03*
X3596000Y-2766500I-50000J0D01*
G01*
X3496000Y-2970500D02*
X3596000Y-3070500D01*
X3596000Y-2970500D02*
X3496000Y-3070500D01*
X3596000Y-3020500D02*
G75*
G03*
X3596000Y-3020500I-50000J0D01*
G01*
X3496000Y-3224500D02*
X3596000Y-3324500D01*
X3596000Y-3224500D02*
X3496000Y-3324500D01*
X3596000Y-3274500D02*
G75*
G03*
X3596000Y-3274500I-50000J0D01*
G01*
X3496000Y-3478500D02*
X3596000Y-3578500D01*
X3596000Y-3478500D02*
X3496000Y-3578500D01*
X3596000Y-3528500D02*
G75*
G03*
X3596000Y-3528500I-50000J0D01*
G01*
X3496000Y-3732500D02*
X3596000Y-3832500D01*
X3596000Y-3732500D02*
X3496000Y-3832500D01*
X3596000Y-3782500D02*
G75*
G03*
X3596000Y-3782500I-50000J0D01*
G01*
X3496000Y-3986500D02*
X3596000Y-4086500D01*
X3596000Y-3986500D02*
X3496000Y-4086500D01*
X3596000Y-4036500D02*
G75*
G03*
X3596000Y-4036500I-50000J0D01*
G01*
X3496000Y-4240500D02*
X3596000Y-4340500D01*
X3596000Y-4240500D02*
X3496000Y-4340500D01*
X3596000Y-4290500D02*
G75*
G03*
X3596000Y-4290500I-50000J0D01*
G01*
X3496000Y-4494500D02*
X3596000Y-4594500D01*
X3596000Y-4494500D02*
X3496000Y-4594500D01*
X3596000Y-4544500D02*
G75*
G03*
X3596000Y-4544500I-50000J0D01*
G01*
X3496000Y-4748500D02*
X3596000Y-4848500D01*
X3596000Y-4748500D02*
X3496000Y-4848500D01*
X3596000Y-4798500D02*
G75*
G03*
X3596000Y-4798500I-50000J0D01*
G01*
X3496000Y-5002500D02*
X3596000Y-5102500D01*
X3596000Y-5002500D02*
X3496000Y-5102500D01*
X3596000Y-5052500D02*
G75*
G03*
X3596000Y-5052500I-50000J0D01*
G01*
X3496000Y-5256500D02*
X3596000Y-5356500D01*
X3596000Y-5256500D02*
X3496000Y-5356500D01*
X3596000Y-5306500D02*
G75*
G03*
X3596000Y-5306500I-50000J0D01*
G01*
X3496000Y-5510500D02*
X3596000Y-5610500D01*
X3596000Y-5510500D02*
X3496000Y-5610500D01*
X3596000Y-5560500D02*
G75*
G03*
X3596000Y-5560500I-50000J0D01*
G01*
X3496000Y-5764500D02*
X3596000Y-5864500D01*
X3596000Y-5764500D02*
X3496000Y-5864500D01*
X3596000Y-5814500D02*
G75*
G03*
X3596000Y-5814500I-50000J0D01*
G01*
X3496000Y-6018500D02*
X3596000Y-6118500D01*
X3596000Y-6018500D02*
X3496000Y-6118500D01*
X3596000Y-6068500D02*
G75*
G03*
X3596000Y-6068500I-50000J0D01*
G01*
X3496000Y-6272500D02*
X3596000Y-6372500D01*
X3596000Y-6272500D02*
X3496000Y-6372500D01*
X3596000Y-6322500D02*
G75*
G03*
X3596000Y-6322500I-50000J0D01*
G01*
X3496000Y-6526500D02*
X3596000Y-6626500D01*
X3596000Y-6526500D02*
X3496000Y-6626500D01*
X3596000Y-6576500D02*
G75*
G03*
X3596000Y-6576500I-50000J0D01*
G01*
X3496000Y-6780500D02*
X3596000Y-6880500D01*
X3596000Y-6780500D02*
X3496000Y-6880500D01*
X3596000Y-6830500D02*
G75*
G03*
X3596000Y-6830500I-50000J0D01*
G01*
X3496000Y-7034500D02*
X3596000Y-7134500D01*
X3596000Y-7034500D02*
X3496000Y-7134500D01*
X3596000Y-7084500D02*
G75*
G03*
X3596000Y-7084500I-50000J0D01*
G01*
X3750000Y-2462500D02*
X3850000Y-2562500D01*
X3850000Y-2462500D02*
X3750000Y-2562500D01*
X3850000Y-2512500D02*
G75*
G03*
X3850000Y-2512500I-50000J0D01*
G01*
X3750000Y-2716500D02*
X3850000Y-2816500D01*
X3850000Y-2716500D02*
X3750000Y-2816500D01*
X3850000Y-2766500D02*
G75*
G03*
X3850000Y-2766500I-50000J0D01*
G01*
X3750000Y-2970500D02*
X3850000Y-3070500D01*
X3850000Y-2970500D02*
X3750000Y-3070500D01*
X3850000Y-3020500D02*
G75*
G03*
X3850000Y-3020500I-50000J0D01*
G01*
X3750000Y-3224500D02*
X3850000Y-3324500D01*
X3850000Y-3224500D02*
X3750000Y-3324500D01*
X3850000Y-3274500D02*
G75*
G03*
X3850000Y-3274500I-50000J0D01*
G01*
X3750000Y-3478500D02*
X3850000Y-3578500D01*
X3850000Y-3478500D02*
X3750000Y-3578500D01*
X3850000Y-3528500D02*
G75*
G03*
X3850000Y-3528500I-50000J0D01*
G01*
X3750000Y-3732500D02*
X3850000Y-3832500D01*
X3850000Y-3732500D02*
X3750000Y-3832500D01*
X3850000Y-3782500D02*
G75*
G03*
X3850000Y-3782500I-50000J0D01*
G01*
X3750000Y-3986500D02*
X3850000Y-4086500D01*
X3850000Y-3986500D02*
X3750000Y-4086500D01*
X3850000Y-4036500D02*
G75*
G03*
X3850000Y-4036500I-50000J0D01*
G01*
X3750000Y-4240500D02*
X3850000Y-4340500D01*
X3850000Y-4240500D02*
X3750000Y-4340500D01*
X3850000Y-4290500D02*
G75*
G03*
X3850000Y-4290500I-50000J0D01*
G01*
X3750000Y-4494500D02*
X3850000Y-4594500D01*
X3850000Y-4494500D02*
X3750000Y-4594500D01*
X3850000Y-4544500D02*
G75*
G03*
X3850000Y-4544500I-50000J0D01*
G01*
X3750000Y-4748500D02*
X3850000Y-4848500D01*
X3850000Y-4748500D02*
X3750000Y-4848500D01*
X3850000Y-4798500D02*
G75*
G03*
X3850000Y-4798500I-50000J0D01*
G01*
X3750000Y-5002500D02*
X3850000Y-5102500D01*
X3850000Y-5002500D02*
X3750000Y-5102500D01*
X3850000Y-5052500D02*
G75*
G03*
X3850000Y-5052500I-50000J0D01*
G01*
X3750000Y-5256500D02*
X3850000Y-5356500D01*
X3850000Y-5256500D02*
X3750000Y-5356500D01*
X3850000Y-5306500D02*
G75*
G03*
X3850000Y-5306500I-50000J0D01*
G01*
X3750000Y-5510500D02*
X3850000Y-5610500D01*
X3850000Y-5510500D02*
X3750000Y-5610500D01*
X3850000Y-5560500D02*
G75*
G03*
X3850000Y-5560500I-50000J0D01*
G01*
X3750000Y-5764500D02*
X3850000Y-5864500D01*
X3850000Y-5764500D02*
X3750000Y-5864500D01*
X3850000Y-5814500D02*
G75*
G03*
X3850000Y-5814500I-50000J0D01*
G01*
X3750000Y-6018500D02*
X3850000Y-6118500D01*
X3850000Y-6018500D02*
X3750000Y-6118500D01*
X3850000Y-6068500D02*
G75*
G03*
X3850000Y-6068500I-50000J0D01*
G01*
X3750000Y-6272500D02*
X3850000Y-6372500D01*
X3850000Y-6272500D02*
X3750000Y-6372500D01*
X3850000Y-6322500D02*
G75*
G03*
X3850000Y-6322500I-50000J0D01*
G01*
X3750000Y-6526500D02*
X3850000Y-6626500D01*
X3850000Y-6526500D02*
X3750000Y-6626500D01*
X3850000Y-6576500D02*
G75*
G03*
X3850000Y-6576500I-50000J0D01*
G01*
X3750000Y-6780500D02*
X3850000Y-6880500D01*
X3850000Y-6780500D02*
X3750000Y-6880500D01*
X3850000Y-6830500D02*
G75*
G03*
X3850000Y-6830500I-50000J0D01*
G01*
X3750000Y-7034500D02*
X3850000Y-7134500D01*
X3850000Y-7034500D02*
X3750000Y-7134500D01*
X3850000Y-7084500D02*
G75*
G03*
X3850000Y-7084500I-50000J0D01*
G01*
X3833500Y-10011125D02*
X3933500Y-10111125D01*
X3933500Y-10011125D02*
X3833500Y-10111125D01*
X3933500Y-10061125D02*
G75*
G03*
X3933500Y-10061125I-50000J0D01*
G01*
X4087500Y-10011125D02*
X4187500Y-10111125D01*
X4187500Y-10011125D02*
X4087500Y-10111125D01*
X4187500Y-10061125D02*
G75*
G03*
X4187500Y-10061125I-50000J0D01*
G01*
X4252500Y-2457500D02*
X4352500Y-2557500D01*
X4352500Y-2457500D02*
X4252500Y-2557500D01*
X4352500Y-2507500D02*
G75*
G03*
X4352500Y-2507500I-50000J0D01*
G01*
X4506500Y-2457500D02*
X4606500Y-2557500D01*
X4606500Y-2457500D02*
X4506500Y-2557500D01*
X4606500Y-2507500D02*
G75*
G03*
X4606500Y-2507500I-50000J0D01*
G01*
X4916000Y-10012000D02*
X5016000Y-10112000D01*
X5016000Y-10012000D02*
X4916000Y-10112000D01*
X5016000Y-10062000D02*
G75*
G03*
X5016000Y-10062000I-50000J0D01*
G01*
X5170000Y-10012000D02*
X5270000Y-10112000D01*
X5270000Y-10012000D02*
X5170000Y-10112000D01*
X5270000Y-10062000D02*
G75*
G03*
X5270000Y-10062000I-50000J0D01*
G01*
X5506000Y-2462500D02*
X5606000Y-2562500D01*
X5606000Y-2462500D02*
X5506000Y-2562500D01*
X5606000Y-2512500D02*
G75*
G03*
X5606000Y-2512500I-50000J0D01*
G01*
X5760000Y-2462500D02*
X5860000Y-2562500D01*
X5860000Y-2462500D02*
X5760000Y-2562500D01*
X5860000Y-2512500D02*
G75*
G03*
X5860000Y-2512500I-50000J0D01*
G01*
X6290000Y-2462500D02*
X6390000Y-2562500D01*
X6390000Y-2462500D02*
X6290000Y-2562500D01*
X6390000Y-2512500D02*
G75*
G03*
X6390000Y-2512500I-50000J0D01*
G01*
X6290000Y-2716500D02*
X6390000Y-2816500D01*
X6390000Y-2716500D02*
X6290000Y-2816500D01*
X6390000Y-2766500D02*
G75*
G03*
X6390000Y-2766500I-50000J0D01*
G01*
X6290000Y-2970500D02*
X6390000Y-3070500D01*
X6390000Y-2970500D02*
X6290000Y-3070500D01*
X6390000Y-3020500D02*
G75*
G03*
X6390000Y-3020500I-50000J0D01*
G01*
X6290000Y-3224500D02*
X6390000Y-3324500D01*
X6390000Y-3224500D02*
X6290000Y-3324500D01*
X6390000Y-3274500D02*
G75*
G03*
X6390000Y-3274500I-50000J0D01*
G01*
X6290000Y-3478500D02*
X6390000Y-3578500D01*
X6390000Y-3478500D02*
X6290000Y-3578500D01*
X6390000Y-3528500D02*
G75*
G03*
X6390000Y-3528500I-50000J0D01*
G01*
X6290000Y-3732500D02*
X6390000Y-3832500D01*
X6390000Y-3732500D02*
X6290000Y-3832500D01*
X6390000Y-3782500D02*
G75*
G03*
X6390000Y-3782500I-50000J0D01*
G01*
X6290000Y-3986500D02*
X6390000Y-4086500D01*
X6390000Y-3986500D02*
X6290000Y-4086500D01*
X6390000Y-4036500D02*
G75*
G03*
X6390000Y-4036500I-50000J0D01*
G01*
X6290000Y-4240500D02*
X6390000Y-4340500D01*
X6390000Y-4240500D02*
X6290000Y-4340500D01*
X6390000Y-4290500D02*
G75*
G03*
X6390000Y-4290500I-50000J0D01*
G01*
X6290000Y-4494500D02*
X6390000Y-4594500D01*
X6390000Y-4494500D02*
X6290000Y-4594500D01*
X6390000Y-4544500D02*
G75*
G03*
X6390000Y-4544500I-50000J0D01*
G01*
X6290000Y-4748500D02*
X6390000Y-4848500D01*
X6390000Y-4748500D02*
X6290000Y-4848500D01*
X6390000Y-4798500D02*
G75*
G03*
X6390000Y-4798500I-50000J0D01*
G01*
X6290000Y-5002500D02*
X6390000Y-5102500D01*
X6390000Y-5002500D02*
X6290000Y-5102500D01*
X6390000Y-5052500D02*
G75*
G03*
X6390000Y-5052500I-50000J0D01*
G01*
X6290000Y-5256500D02*
X6390000Y-5356500D01*
X6390000Y-5256500D02*
X6290000Y-5356500D01*
X6390000Y-5306500D02*
G75*
G03*
X6390000Y-5306500I-50000J0D01*
G01*
X6290000Y-5510500D02*
X6390000Y-5610500D01*
X6390000Y-5510500D02*
X6290000Y-5610500D01*
X6390000Y-5560500D02*
G75*
G03*
X6390000Y-5560500I-50000J0D01*
G01*
X6290000Y-5764500D02*
X6390000Y-5864500D01*
X6390000Y-5764500D02*
X6290000Y-5864500D01*
X6390000Y-5814500D02*
G75*
G03*
X6390000Y-5814500I-50000J0D01*
G01*
X6290000Y-6018500D02*
X6390000Y-6118500D01*
X6390000Y-6018500D02*
X6290000Y-6118500D01*
X6390000Y-6068500D02*
G75*
G03*
X6390000Y-6068500I-50000J0D01*
G01*
X6290000Y-6272500D02*
X6390000Y-6372500D01*
X6390000Y-6272500D02*
X6290000Y-6372500D01*
X6390000Y-6322500D02*
G75*
G03*
X6390000Y-6322500I-50000J0D01*
G01*
X6290000Y-6526500D02*
X6390000Y-6626500D01*
X6390000Y-6526500D02*
X6290000Y-6626500D01*
X6390000Y-6576500D02*
G75*
G03*
X6390000Y-6576500I-50000J0D01*
G01*
X6290000Y-6780500D02*
X6390000Y-6880500D01*
X6390000Y-6780500D02*
X6290000Y-6880500D01*
X6390000Y-6830500D02*
G75*
G03*
X6390000Y-6830500I-50000J0D01*
G01*
X6290000Y-7034500D02*
X6390000Y-7134500D01*
X6390000Y-7034500D02*
X6290000Y-7134500D01*
X6390000Y-7084500D02*
G75*
G03*
X6390000Y-7084500I-50000J0D01*
G01*
X6436000Y-10016000D02*
X6536000Y-10116000D01*
X6536000Y-10016000D02*
X6436000Y-10116000D01*
X6536000Y-10066000D02*
G75*
G03*
X6536000Y-10066000I-50000J0D01*
G01*
X6544000Y-2462500D02*
X6644000Y-2562500D01*
X6644000Y-2462500D02*
X6544000Y-2562500D01*
X6644000Y-2512500D02*
G75*
G03*
X6644000Y-2512500I-50000J0D01*
G01*
X6544000Y-2716500D02*
X6644000Y-2816500D01*
X6644000Y-2716500D02*
X6544000Y-2816500D01*
X6644000Y-2766500D02*
G75*
G03*
X6644000Y-2766500I-50000J0D01*
G01*
X6544000Y-2970500D02*
X6644000Y-3070500D01*
X6644000Y-2970500D02*
X6544000Y-3070500D01*
X6644000Y-3020500D02*
G75*
G03*
X6644000Y-3020500I-50000J0D01*
G01*
X6544000Y-3224500D02*
X6644000Y-3324500D01*
X6644000Y-3224500D02*
X6544000Y-3324500D01*
X6644000Y-3274500D02*
G75*
G03*
X6644000Y-3274500I-50000J0D01*
G01*
X6544000Y-3478500D02*
X6644000Y-3578500D01*
X6644000Y-3478500D02*
X6544000Y-3578500D01*
X6644000Y-3528500D02*
G75*
G03*
X6644000Y-3528500I-50000J0D01*
G01*
X6544000Y-3732500D02*
X6644000Y-3832500D01*
X6644000Y-3732500D02*
X6544000Y-3832500D01*
X6644000Y-3782500D02*
G75*
G03*
X6644000Y-3782500I-50000J0D01*
G01*
X6544000Y-3986500D02*
X6644000Y-4086500D01*
X6644000Y-3986500D02*
X6544000Y-4086500D01*
X6644000Y-4036500D02*
G75*
G03*
X6644000Y-4036500I-50000J0D01*
G01*
X6544000Y-4240500D02*
X6644000Y-4340500D01*
X6644000Y-4240500D02*
X6544000Y-4340500D01*
X6644000Y-4290500D02*
G75*
G03*
X6644000Y-4290500I-50000J0D01*
G01*
X6544000Y-4494500D02*
X6644000Y-4594500D01*
X6644000Y-4494500D02*
X6544000Y-4594500D01*
X6644000Y-4544500D02*
G75*
G03*
X6644000Y-4544500I-50000J0D01*
G01*
X6544000Y-4748500D02*
X6644000Y-4848500D01*
X6644000Y-4748500D02*
X6544000Y-4848500D01*
X6644000Y-4798500D02*
G75*
G03*
X6644000Y-4798500I-50000J0D01*
G01*
X6544000Y-5002500D02*
X6644000Y-5102500D01*
X6644000Y-5002500D02*
X6544000Y-5102500D01*
X6644000Y-5052500D02*
G75*
G03*
X6644000Y-5052500I-50000J0D01*
G01*
X6544000Y-5256500D02*
X6644000Y-5356500D01*
X6644000Y-5256500D02*
X6544000Y-5356500D01*
X6644000Y-5306500D02*
G75*
G03*
X6644000Y-5306500I-50000J0D01*
G01*
X6544000Y-5510500D02*
X6644000Y-5610500D01*
X6644000Y-5510500D02*
X6544000Y-5610500D01*
X6644000Y-5560500D02*
G75*
G03*
X6644000Y-5560500I-50000J0D01*
G01*
X6544000Y-5764500D02*
X6644000Y-5864500D01*
X6644000Y-5764500D02*
X6544000Y-5864500D01*
X6644000Y-5814500D02*
G75*
G03*
X6644000Y-5814500I-50000J0D01*
G01*
X6544000Y-6018500D02*
X6644000Y-6118500D01*
X6644000Y-6018500D02*
X6544000Y-6118500D01*
X6644000Y-6068500D02*
G75*
G03*
X6644000Y-6068500I-50000J0D01*
G01*
X6544000Y-6272500D02*
X6644000Y-6372500D01*
X6644000Y-6272500D02*
X6544000Y-6372500D01*
X6644000Y-6322500D02*
G75*
G03*
X6644000Y-6322500I-50000J0D01*
G01*
X6544000Y-6526500D02*
X6644000Y-6626500D01*
X6644000Y-6526500D02*
X6544000Y-6626500D01*
X6644000Y-6576500D02*
G75*
G03*
X6644000Y-6576500I-50000J0D01*
G01*
X6544000Y-6780500D02*
X6644000Y-6880500D01*
X6644000Y-6780500D02*
X6544000Y-6880500D01*
X6644000Y-6830500D02*
G75*
G03*
X6644000Y-6830500I-50000J0D01*
G01*
X6544000Y-7034500D02*
X6644000Y-7134500D01*
X6644000Y-7034500D02*
X6544000Y-7134500D01*
X6644000Y-7084500D02*
G75*
G03*
X6644000Y-7084500I-50000J0D01*
G01*
X6690000Y-10016000D02*
X6790000Y-10116000D01*
X6790000Y-10016000D02*
X6690000Y-10116000D01*
X6790000Y-10066000D02*
G75*
G03*
X6790000Y-10066000I-50000J0D01*
G01*
X7371500Y-9061000D02*
X7471500Y-9161000D01*
X7471500Y-9061000D02*
X7371500Y-9161000D01*
X7471500Y-9111000D02*
G75*
G03*
X7471500Y-9111000I-50000J0D01*
G01*
X7371500Y-9821000D02*
X7471500Y-9921000D01*
X7471500Y-9821000D02*
X7371500Y-9921000D01*
X7471500Y-9871000D02*
G75*
G03*
X7471500Y-9871000I-50000J0D01*
G01*
X8396500Y-5557000D02*
X8496500Y-5657000D01*
X8496500Y-5557000D02*
X8396500Y-5657000D01*
X8496500Y-5607000D02*
G75*
G03*
X8496500Y-5607000I-50000J0D01*
G01*
X8396500Y-6757000D02*
X8496500Y-6857000D01*
X8496500Y-6757000D02*
X8396500Y-6857000D01*
X8496500Y-6807000D02*
G75*
G03*
X8496500Y-6807000I-50000J0D01*
G01*
X8396500Y-7291000D02*
X8496500Y-7391000D01*
X8496500Y-7291000D02*
X8396500Y-7391000D01*
X8496500Y-7341000D02*
G75*
G03*
X8496500Y-7341000I-50000J0D01*
G01*
X8396500Y-8491000D02*
X8496500Y-8591000D01*
X8496500Y-8491000D02*
X8396500Y-8591000D01*
X8496500Y-8541000D02*
G75*
G03*
X8496500Y-8541000I-50000J0D01*
G01*
D17*
X7031500Y-2650000D02*
X7141500Y-2760000D01*
X7141500Y-2650000D02*
X7031500Y-2760000D01*
X7086500Y-2650000D02*
X7086500Y-2760000D01*
X7031500Y-2705000D02*
X7141500Y-2705000D01*
X7285500Y-2650000D02*
X7395500Y-2760000D01*
X7395500Y-2650000D02*
X7285500Y-2760000D01*
X7340500Y-2650000D02*
X7340500Y-2760000D01*
X7285500Y-2705000D02*
X7395500Y-2705000D01*
X7539500Y-2650000D02*
X7649500Y-2760000D01*
X7649500Y-2650000D02*
X7539500Y-2760000D01*
X7594500Y-2650000D02*
X7594500Y-2760000D01*
X7539500Y-2705000D02*
X7649500Y-2705000D01*
D18*
X8186500Y-6137000D02*
X8316500Y-6267000D01*
X8316500Y-6137000D02*
X8186500Y-6267000D01*
X8297462Y-6247962D02*
X8297462Y-6156038D01*
X8205538Y-6156038D01*
X8205538Y-6247962D01*
X8297462Y-6247962D01*
X8186500Y-7871000D02*
X8316500Y-8001000D01*
X8316500Y-7871000D02*
X8186500Y-8001000D01*
X8297462Y-7981962D02*
X8297462Y-7890038D01*
X8205538Y-7890038D01*
X8205538Y-7981962D01*
X8297462Y-7981962D01*
X8732500Y-9173000D02*
X8862500Y-9303000D01*
X8862500Y-9173000D02*
X8732500Y-9303000D01*
X8843462Y-9283962D02*
X8843462Y-9192038D01*
X8751538Y-9192038D01*
X8751538Y-9283962D01*
X8843462Y-9283962D01*
X8737500Y-10503000D02*
X8867500Y-10633000D01*
X8867500Y-10503000D02*
X8737500Y-10633000D01*
X8848462Y-10613962D02*
X8848462Y-10522038D01*
X8756538Y-10522038D01*
X8756538Y-10613962D01*
X8848462Y-10613962D01*
X9372500Y-9178000D02*
X9502500Y-9308000D01*
X9502500Y-9178000D02*
X9372500Y-9308000D01*
X9483462Y-9288962D02*
X9483462Y-9197038D01*
X9391538Y-9197038D01*
X9391538Y-9288962D01*
X9483462Y-9288962D01*
X9372500Y-10503000D02*
X9502500Y-10633000D01*
X9502500Y-10503000D02*
X9372500Y-10633000D01*
X9483462Y-10613962D02*
X9483462Y-10522038D01*
X9391538Y-10522038D01*
X9391538Y-10613962D01*
X9483462Y-10613962D01*
X9601500Y-6742000D02*
X9731500Y-6872000D01*
X9731500Y-6742000D02*
X9601500Y-6872000D01*
X9712462Y-6852962D02*
X9712462Y-6761038D01*
X9620538Y-6761038D01*
X9620538Y-6852962D01*
X9712462Y-6852962D01*
X9601500Y-8476000D02*
X9731500Y-8606000D01*
X9731500Y-8476000D02*
X9601500Y-8606000D01*
X9712462Y-8586962D02*
X9712462Y-8495038D01*
X9620538Y-8495038D01*
X9620538Y-8586962D01*
X9712462Y-8586962D01*
X9606500Y-5537000D02*
X9736500Y-5667000D01*
X9736500Y-5537000D02*
X9606500Y-5667000D01*
X9717462Y-5647962D02*
X9717462Y-5556038D01*
X9625538Y-5556038D01*
X9625538Y-5647962D01*
X9717462Y-5647962D01*
X9606500Y-7271000D02*
X9736500Y-7401000D01*
X9736500Y-7271000D02*
X9606500Y-7401000D01*
X9717462Y-7381962D02*
X9717462Y-7290038D01*
X9625538Y-7290038D01*
X9625538Y-7381962D01*
X9717462Y-7381962D01*
X10002500Y-9173000D02*
X10132500Y-9303000D01*
X10132500Y-9173000D02*
X10002500Y-9303000D01*
X10113462Y-9283962D02*
X10113462Y-9192038D01*
X10021538Y-9192038D01*
X10021538Y-9283962D01*
X10113462Y-9283962D01*
X10002500Y-10503000D02*
X10132500Y-10633000D01*
X10132500Y-10503000D02*
X10002500Y-10633000D01*
X10113462Y-10613962D02*
X10113462Y-10522038D01*
X10021538Y-10522038D01*
X10021538Y-10613962D01*
X10113462Y-10613962D01*
X10427500Y-10503000D02*
X10557500Y-10633000D01*
X10557500Y-10503000D02*
X10427500Y-10633000D01*
X10538462Y-10613962D02*
X10538462Y-10522038D01*
X10446538Y-10522038D01*
X10446538Y-10613962D01*
X10538462Y-10613962D01*
X10432500Y-9173000D02*
X10562500Y-9303000D01*
X10562500Y-9173000D02*
X10432500Y-9303000D01*
X10543462Y-9283962D02*
X10543462Y-9192038D01*
X10451538Y-9192038D01*
X10451538Y-9283962D01*
X10543462Y-9283962D01*
D19*
X11751500Y-3257500D02*
X11883500Y-3389500D01*
X11883500Y-3257500D02*
X11751500Y-3389500D01*
X11817500Y-3389500D02*
X11883500Y-3323500D01*
X11817500Y-3257500D01*
X11751500Y-3323500D01*
X11817500Y-3389500D01*
X11751500Y-3757500D02*
X11883500Y-3889500D01*
X11883500Y-3757500D02*
X11751500Y-3889500D01*
X11817500Y-3889500D02*
X11883500Y-3823500D01*
X11817500Y-3757500D01*
X11751500Y-3823500D01*
X11817500Y-3889500D01*
X11751500Y-4257500D02*
X11883500Y-4389500D01*
X11883500Y-4257500D02*
X11751500Y-4389500D01*
X11817500Y-4389500D02*
X11883500Y-4323500D01*
X11817500Y-4257500D01*
X11751500Y-4323500D01*
X11817500Y-4389500D01*
X11751500Y-4757500D02*
X11883500Y-4889500D01*
X11883500Y-4757500D02*
X11751500Y-4889500D01*
X11817500Y-4889500D02*
X11883500Y-4823500D01*
X11817500Y-4757500D01*
X11751500Y-4823500D01*
X11817500Y-4889500D01*
X11751500Y-5257500D02*
X11883500Y-5389500D01*
X11883500Y-5257500D02*
X11751500Y-5389500D01*
X11817500Y-5389500D02*
X11883500Y-5323500D01*
X11817500Y-5257500D01*
X11751500Y-5323500D01*
X11817500Y-5389500D01*
X11751500Y-5757500D02*
X11883500Y-5889500D01*
X11883500Y-5757500D02*
X11751500Y-5889500D01*
X11817500Y-5889500D02*
X11883500Y-5823500D01*
X11817500Y-5757500D01*
X11751500Y-5823500D01*
X11817500Y-5889500D01*
X11751500Y-6257500D02*
X11883500Y-6389500D01*
X11883500Y-6257500D02*
X11751500Y-6389500D01*
X11817500Y-6389500D02*
X11883500Y-6323500D01*
X11817500Y-6257500D01*
X11751500Y-6323500D01*
X11817500Y-6389500D01*
X11751500Y-6757500D02*
X11883500Y-6889500D01*
X11883500Y-6757500D02*
X11751500Y-6889500D01*
X11817500Y-6889500D02*
X11883500Y-6823500D01*
X11817500Y-6757500D01*
X11751500Y-6823500D01*
X11817500Y-6889500D01*
X11751500Y-7257500D02*
X11883500Y-7389500D01*
X11883500Y-7257500D02*
X11751500Y-7389500D01*
X11817500Y-7389500D02*
X11883500Y-7323500D01*
X11817500Y-7257500D01*
X11751500Y-7323500D01*
X11817500Y-7389500D01*
X11751500Y-7757500D02*
X11883500Y-7889500D01*
X11883500Y-7757500D02*
X11751500Y-7889500D01*
X11817500Y-7889500D02*
X11883500Y-7823500D01*
X11817500Y-7757500D01*
X11751500Y-7823500D01*
X11817500Y-7889500D01*
X11751500Y-8257500D02*
X11883500Y-8389500D01*
X11883500Y-8257500D02*
X11751500Y-8389500D01*
X11817500Y-8389500D02*
X11883500Y-8323500D01*
X11817500Y-8257500D01*
X11751500Y-8323500D01*
X11817500Y-8389500D01*
X11751500Y-8757500D02*
X11883500Y-8889500D01*
X11883500Y-8757500D02*
X11751500Y-8889500D01*
X11817500Y-8889500D02*
X11883500Y-8823500D01*
X11817500Y-8757500D01*
X11751500Y-8823500D01*
X11817500Y-8889500D01*
X11751500Y-9257500D02*
X11883500Y-9389500D01*
X11883500Y-9257500D02*
X11751500Y-9389500D01*
X11817500Y-9389500D02*
X11883500Y-9323500D01*
X11817500Y-9257500D01*
X11751500Y-9323500D01*
X11817500Y-9389500D01*
X11751500Y-9757500D02*
X11883500Y-9889500D01*
X11883500Y-9757500D02*
X11751500Y-9889500D01*
X11817500Y-9889500D02*
X11883500Y-9823500D01*
X11817500Y-9757500D01*
X11751500Y-9823500D01*
X11817500Y-9889500D01*
X11751500Y-10257500D02*
X11883500Y-10389500D01*
X11883500Y-10257500D02*
X11751500Y-10389500D01*
X11817500Y-10389500D02*
X11883500Y-10323500D01*
X11817500Y-10257500D01*
X11751500Y-10323500D01*
X11817500Y-10389500D01*
X11751500Y-10757500D02*
X11883500Y-10889500D01*
X11883500Y-10757500D02*
X11751500Y-10889500D01*
X11817500Y-10889500D02*
X11883500Y-10823500D01*
X11817500Y-10757500D01*
X11751500Y-10823500D01*
X11817500Y-10889500D01*
D20*
X8526500Y-2490000D02*
X8526500Y-2640000D01*
X8451500Y-2565000D02*
X8601500Y-2565000D01*
X8601500Y-2565000D02*
G75*
G03*
X8601500Y-2565000I-75000J0D01*
G01*
X8535500Y-11446000D02*
X8535500Y-11596000D01*
X8460500Y-11521000D02*
X8610500Y-11521000D01*
X8610500Y-11521000D02*
G75*
G03*
X8610500Y-11521000I-75000J0D01*
G01*
X10640900Y-5813700D02*
X10640900Y-5963700D01*
X10565900Y-5888700D02*
X10715900Y-5888700D01*
X10715900Y-5888700D02*
G75*
G03*
X10715900Y-5888700I-75000J0D01*
G01*
X10640900Y-8073700D02*
X10640900Y-8223700D01*
X10565900Y-8148700D02*
X10715900Y-8148700D01*
X10715900Y-8148700D02*
G75*
G03*
X10715900Y-8148700I-75000J0D01*
G01*
X10786500Y-2490000D02*
X10786500Y-2640000D01*
X10711500Y-2565000D02*
X10861500Y-2565000D01*
X10861500Y-2565000D02*
G75*
G03*
X10861500Y-2565000I-75000J0D01*
G01*
X10795500Y-11446000D02*
X10795500Y-11596000D01*
X10720500Y-11521000D02*
X10870500Y-11521000D01*
X10870500Y-11521000D02*
G75*
G03*
X10870500Y-11521000I-75000J0D01*
G01*
D11*
X3550736Y-12317081D02*
X3550736Y-12117081D01*
X3598355Y-12117081D01*
X3626926Y-12126605D01*
X3645974Y-12145652D01*
X3655498Y-12164700D01*
X3665021Y-12202795D01*
X3665021Y-12231367D01*
X3655498Y-12269462D01*
X3645974Y-12288510D01*
X3626926Y-12307557D01*
X3598355Y-12317081D01*
X3550736Y-12317081D01*
X3750736Y-12317081D02*
X3750736Y-12183748D01*
X3750736Y-12221843D02*
X3760259Y-12202795D01*
X3769783Y-12193271D01*
X3788831Y-12183748D01*
X3807879Y-12183748D01*
X3874545Y-12317081D02*
X3874545Y-12183748D01*
X3874545Y-12117081D02*
X3865021Y-12126605D01*
X3874545Y-12136129D01*
X3884069Y-12126605D01*
X3874545Y-12117081D01*
X3874545Y-12136129D01*
X3998355Y-12317081D02*
X3979307Y-12307557D01*
X3969783Y-12288510D01*
X3969783Y-12117081D01*
X4103117Y-12317081D02*
X4084069Y-12307557D01*
X4074545Y-12288510D01*
X4074545Y-12117081D01*
X4331688Y-12317081D02*
X4331688Y-12117081D01*
X4398355Y-12259938D01*
X4465021Y-12117081D01*
X4465021Y-12317081D01*
X4645974Y-12317081D02*
X4645974Y-12212319D01*
X4636450Y-12193271D01*
X4617402Y-12183748D01*
X4579307Y-12183748D01*
X4560260Y-12193271D01*
X4645974Y-12307557D02*
X4626926Y-12317081D01*
X4579307Y-12317081D01*
X4560260Y-12307557D01*
X4550736Y-12288510D01*
X4550736Y-12269462D01*
X4560260Y-12250414D01*
X4579307Y-12240891D01*
X4626926Y-12240891D01*
X4645974Y-12231367D01*
X4741212Y-12183748D02*
X4741212Y-12383748D01*
X4741212Y-12193271D02*
X4760260Y-12183748D01*
X4798355Y-12183748D01*
X4817402Y-12193271D01*
X4826926Y-12202795D01*
X4836450Y-12221843D01*
X4836450Y-12278986D01*
X4826926Y-12298033D01*
X4817402Y-12307557D01*
X4798355Y-12317081D01*
X4760260Y-12317081D01*
X4741212Y-12307557D01*
X4922164Y-12298033D02*
X4931688Y-12307557D01*
X4922164Y-12317081D01*
X4912641Y-12307557D01*
X4922164Y-12298033D01*
X4922164Y-12317081D01*
X4922164Y-12193271D02*
X4931688Y-12202795D01*
X4922164Y-12212319D01*
X4912641Y-12202795D01*
X4922164Y-12193271D01*
X4922164Y-12212319D01*
D12*
X3253117Y-12626605D02*
X3293117Y-12666605D01*
X3293117Y-12626605D02*
X3253117Y-12666605D01*
D11*
X3588831Y-12537081D02*
X3607879Y-12537081D01*
X3626926Y-12546605D01*
X3636450Y-12556129D01*
X3645974Y-12575176D01*
X3655498Y-12613271D01*
X3655498Y-12660891D01*
X3645974Y-12698986D01*
X3636450Y-12718033D01*
X3626926Y-12727557D01*
X3607879Y-12737081D01*
X3588831Y-12737081D01*
X3569783Y-12727557D01*
X3560259Y-12718033D01*
X3550736Y-12698986D01*
X3541212Y-12660891D01*
X3541212Y-12613271D01*
X3550736Y-12575176D01*
X3560259Y-12556129D01*
X3569783Y-12546605D01*
X3588831Y-12537081D01*
X3741212Y-12718033D02*
X3750736Y-12727557D01*
X3741212Y-12737081D01*
X3731688Y-12727557D01*
X3741212Y-12718033D01*
X3741212Y-12737081D01*
X3922164Y-12603748D02*
X3922164Y-12737081D01*
X3874545Y-12527557D02*
X3826926Y-12670414D01*
X3950736Y-12670414D01*
X4065021Y-12537081D02*
X4084069Y-12537081D01*
X4103117Y-12546605D01*
X4112640Y-12556129D01*
X4122164Y-12575176D01*
X4131688Y-12613271D01*
X4131688Y-12660891D01*
X4122164Y-12698986D01*
X4112640Y-12718033D01*
X4103117Y-12727557D01*
X4084069Y-12737081D01*
X4065021Y-12737081D01*
X4045974Y-12727557D01*
X4036450Y-12718033D01*
X4026926Y-12698986D01*
X4017402Y-12660891D01*
X4017402Y-12613271D01*
X4026926Y-12575176D01*
X4036450Y-12556129D01*
X4045974Y-12546605D01*
X4065021Y-12537081D01*
X4255498Y-12537081D02*
X4274545Y-12537081D01*
X4293593Y-12546605D01*
X4303117Y-12556129D01*
X4312641Y-12575176D01*
X4322164Y-12613271D01*
X4322164Y-12660891D01*
X4312641Y-12698986D01*
X4303117Y-12718033D01*
X4293593Y-12727557D01*
X4274545Y-12737081D01*
X4255498Y-12737081D01*
X4236450Y-12727557D01*
X4226926Y-12718033D01*
X4217402Y-12698986D01*
X4207879Y-12660891D01*
X4207879Y-12613271D01*
X4217402Y-12575176D01*
X4226926Y-12556129D01*
X4236450Y-12546605D01*
X4255498Y-12537081D01*
X4407879Y-12737081D02*
X4407879Y-12603748D01*
X4407879Y-12622795D02*
X4417402Y-12613271D01*
X4436450Y-12603748D01*
X4465021Y-12603748D01*
X4484069Y-12613271D01*
X4493593Y-12632319D01*
X4493593Y-12737081D01*
X4493593Y-12632319D02*
X4503117Y-12613271D01*
X4522164Y-12603748D01*
X4550736Y-12603748D01*
X4569783Y-12613271D01*
X4579307Y-12632319D01*
X4579307Y-12737081D01*
X4674545Y-12737081D02*
X4674545Y-12603748D01*
X4674545Y-12622795D02*
X4684069Y-12613271D01*
X4703117Y-12603748D01*
X4731688Y-12603748D01*
X4750736Y-12613271D01*
X4760260Y-12632319D01*
X4760260Y-12737081D01*
X4760260Y-12632319D02*
X4769783Y-12613271D01*
X4788831Y-12603748D01*
X4817402Y-12603748D01*
X4836450Y-12613271D01*
X4845974Y-12632319D01*
X4845974Y-12737081D01*
X5236450Y-12527557D02*
X5065021Y-12784700D01*
X5493593Y-12537081D02*
X5512641Y-12537081D01*
X5531688Y-12546605D01*
X5541212Y-12556129D01*
X5550736Y-12575176D01*
X5560260Y-12613271D01*
X5560260Y-12660891D01*
X5550736Y-12698986D01*
X5541212Y-12718033D01*
X5531688Y-12727557D01*
X5512641Y-12737081D01*
X5493593Y-12737081D01*
X5474545Y-12727557D01*
X5465021Y-12718033D01*
X5455498Y-12698986D01*
X5445974Y-12660891D01*
X5445974Y-12613271D01*
X5455498Y-12575176D01*
X5465021Y-12556129D01*
X5474545Y-12546605D01*
X5493593Y-12537081D01*
X5645974Y-12718033D02*
X5655498Y-12727557D01*
X5645974Y-12737081D01*
X5636450Y-12727557D01*
X5645974Y-12718033D01*
X5645974Y-12737081D01*
X5779307Y-12537081D02*
X5798355Y-12537081D01*
X5817402Y-12546605D01*
X5826926Y-12556129D01*
X5836450Y-12575176D01*
X5845974Y-12613271D01*
X5845974Y-12660891D01*
X5836450Y-12698986D01*
X5826926Y-12718033D01*
X5817402Y-12727557D01*
X5798355Y-12737081D01*
X5779307Y-12737081D01*
X5760259Y-12727557D01*
X5750736Y-12718033D01*
X5741212Y-12698986D01*
X5731688Y-12660891D01*
X5731688Y-12613271D01*
X5741212Y-12575176D01*
X5750736Y-12556129D01*
X5760259Y-12546605D01*
X5779307Y-12537081D01*
X6036450Y-12737081D02*
X5922164Y-12737081D01*
X5979307Y-12737081D02*
X5979307Y-12537081D01*
X5960259Y-12565652D01*
X5941212Y-12584700D01*
X5922164Y-12594224D01*
X6217402Y-12537081D02*
X6122164Y-12537081D01*
X6112640Y-12632319D01*
X6122164Y-12622795D01*
X6141212Y-12613271D01*
X6188831Y-12613271D01*
X6207879Y-12622795D01*
X6217402Y-12632319D01*
X6226926Y-12651367D01*
X6226926Y-12698986D01*
X6217402Y-12718033D01*
X6207879Y-12727557D01*
X6188831Y-12737081D01*
X6141212Y-12737081D01*
X6122164Y-12727557D01*
X6112640Y-12718033D01*
X6293593Y-12537081D02*
X6426926Y-12537081D01*
X6341212Y-12737081D01*
X6493593Y-12537081D02*
X6493593Y-12575176D01*
X6569783Y-12537081D02*
X6569783Y-12575176D01*
X6865021Y-12813271D02*
X6855498Y-12803748D01*
X6836450Y-12775176D01*
X6826926Y-12756129D01*
X6817402Y-12727557D01*
X6807879Y-12679938D01*
X6807879Y-12641843D01*
X6817402Y-12594224D01*
X6826926Y-12565652D01*
X6836450Y-12546605D01*
X6855498Y-12518033D01*
X6865021Y-12508510D01*
X6931688Y-12556129D02*
X6941212Y-12546605D01*
X6960259Y-12537081D01*
X7007879Y-12537081D01*
X7026926Y-12546605D01*
X7036450Y-12556129D01*
X7045974Y-12575176D01*
X7045974Y-12594224D01*
X7036450Y-12622795D01*
X6922164Y-12737081D01*
X7045974Y-12737081D01*
X7141212Y-12737081D02*
X7179307Y-12737081D01*
X7198355Y-12727557D01*
X7207879Y-12718033D01*
X7226926Y-12689462D01*
X7236450Y-12651367D01*
X7236450Y-12575176D01*
X7226926Y-12556129D01*
X7217402Y-12546605D01*
X7198355Y-12537081D01*
X7160259Y-12537081D01*
X7141212Y-12546605D01*
X7131688Y-12556129D01*
X7122164Y-12575176D01*
X7122164Y-12622795D01*
X7131688Y-12641843D01*
X7141212Y-12651367D01*
X7160259Y-12660891D01*
X7198355Y-12660891D01*
X7217402Y-12651367D01*
X7226926Y-12641843D01*
X7236450Y-12622795D01*
X7474545Y-12737081D02*
X7474545Y-12537081D01*
X7560259Y-12737081D02*
X7560259Y-12632319D01*
X7550736Y-12613271D01*
X7531688Y-12603748D01*
X7503117Y-12603748D01*
X7484069Y-12613271D01*
X7474545Y-12622795D01*
X7684069Y-12737081D02*
X7665021Y-12727557D01*
X7655498Y-12718033D01*
X7645974Y-12698986D01*
X7645974Y-12641843D01*
X7655498Y-12622795D01*
X7665021Y-12613271D01*
X7684069Y-12603748D01*
X7712640Y-12603748D01*
X7731688Y-12613271D01*
X7741212Y-12622795D01*
X7750736Y-12641843D01*
X7750736Y-12698986D01*
X7741212Y-12718033D01*
X7731688Y-12727557D01*
X7712640Y-12737081D01*
X7684069Y-12737081D01*
X7865021Y-12737081D02*
X7845974Y-12727557D01*
X7836450Y-12708510D01*
X7836450Y-12537081D01*
X8017402Y-12727557D02*
X7998355Y-12737081D01*
X7960259Y-12737081D01*
X7941212Y-12727557D01*
X7931688Y-12708510D01*
X7931688Y-12632319D01*
X7941212Y-12613271D01*
X7960259Y-12603748D01*
X7998355Y-12603748D01*
X8017402Y-12613271D01*
X8026926Y-12632319D01*
X8026926Y-12651367D01*
X7931688Y-12670414D01*
X8103117Y-12727557D02*
X8122164Y-12737081D01*
X8160259Y-12737081D01*
X8179307Y-12727557D01*
X8188831Y-12708510D01*
X8188831Y-12698986D01*
X8179307Y-12679938D01*
X8160259Y-12670414D01*
X8131688Y-12670414D01*
X8112640Y-12660891D01*
X8103117Y-12641843D01*
X8103117Y-12632319D01*
X8112640Y-12613271D01*
X8131688Y-12603748D01*
X8160259Y-12603748D01*
X8179307Y-12613271D01*
X8255498Y-12813271D02*
X8265021Y-12803748D01*
X8284069Y-12775176D01*
X8293593Y-12756129D01*
X8303117Y-12727557D01*
X8312640Y-12679938D01*
X8312640Y-12641843D01*
X8303117Y-12594224D01*
X8293593Y-12565652D01*
X8284069Y-12546605D01*
X8265021Y-12518033D01*
X8255498Y-12508510D01*
D12*
X3293117Y-12910605D02*
G75*
G03*
X3293117Y-12910605I-20000J0D01*
G01*
D11*
X3588831Y-12801081D02*
X3607879Y-12801081D01*
X3626926Y-12810605D01*
X3636450Y-12820129D01*
X3645974Y-12839176D01*
X3655498Y-12877271D01*
X3655498Y-12924891D01*
X3645974Y-12962986D01*
X3636450Y-12982033D01*
X3626926Y-12991557D01*
X3607879Y-13001081D01*
X3588831Y-13001081D01*
X3569783Y-12991557D01*
X3560259Y-12982033D01*
X3550736Y-12962986D01*
X3541212Y-12924891D01*
X3541212Y-12877271D01*
X3550736Y-12839176D01*
X3560259Y-12820129D01*
X3569783Y-12810605D01*
X3588831Y-12801081D01*
X3741212Y-12982033D02*
X3750736Y-12991557D01*
X3741212Y-13001081D01*
X3731688Y-12991557D01*
X3741212Y-12982033D01*
X3741212Y-13001081D01*
X3922164Y-12867748D02*
X3922164Y-13001081D01*
X3874545Y-12791557D02*
X3826926Y-12934414D01*
X3950736Y-12934414D01*
X4065021Y-12801081D02*
X4084069Y-12801081D01*
X4103117Y-12810605D01*
X4112640Y-12820129D01*
X4122164Y-12839176D01*
X4131688Y-12877271D01*
X4131688Y-12924891D01*
X4122164Y-12962986D01*
X4112640Y-12982033D01*
X4103117Y-12991557D01*
X4084069Y-13001081D01*
X4065021Y-13001081D01*
X4045974Y-12991557D01*
X4036450Y-12982033D01*
X4026926Y-12962986D01*
X4017402Y-12924891D01*
X4017402Y-12877271D01*
X4026926Y-12839176D01*
X4036450Y-12820129D01*
X4045974Y-12810605D01*
X4065021Y-12801081D01*
X4255498Y-12801081D02*
X4274545Y-12801081D01*
X4293593Y-12810605D01*
X4303117Y-12820129D01*
X4312641Y-12839176D01*
X4322164Y-12877271D01*
X4322164Y-12924891D01*
X4312641Y-12962986D01*
X4303117Y-12982033D01*
X4293593Y-12991557D01*
X4274545Y-13001081D01*
X4255498Y-13001081D01*
X4236450Y-12991557D01*
X4226926Y-12982033D01*
X4217402Y-12962986D01*
X4207879Y-12924891D01*
X4207879Y-12877271D01*
X4217402Y-12839176D01*
X4226926Y-12820129D01*
X4236450Y-12810605D01*
X4255498Y-12801081D01*
X4407879Y-13001081D02*
X4407879Y-12867748D01*
X4407879Y-12886795D02*
X4417402Y-12877271D01*
X4436450Y-12867748D01*
X4465021Y-12867748D01*
X4484069Y-12877271D01*
X4493593Y-12896319D01*
X4493593Y-13001081D01*
X4493593Y-12896319D02*
X4503117Y-12877271D01*
X4522164Y-12867748D01*
X4550736Y-12867748D01*
X4569783Y-12877271D01*
X4579307Y-12896319D01*
X4579307Y-13001081D01*
X4674545Y-13001081D02*
X4674545Y-12867748D01*
X4674545Y-12886795D02*
X4684069Y-12877271D01*
X4703117Y-12867748D01*
X4731688Y-12867748D01*
X4750736Y-12877271D01*
X4760260Y-12896319D01*
X4760260Y-13001081D01*
X4760260Y-12896319D02*
X4769783Y-12877271D01*
X4788831Y-12867748D01*
X4817402Y-12867748D01*
X4836450Y-12877271D01*
X4845974Y-12896319D01*
X4845974Y-13001081D01*
X5236450Y-12791557D02*
X5065021Y-13048700D01*
X5493593Y-12801081D02*
X5512641Y-12801081D01*
X5531688Y-12810605D01*
X5541212Y-12820129D01*
X5550736Y-12839176D01*
X5560260Y-12877271D01*
X5560260Y-12924891D01*
X5550736Y-12962986D01*
X5541212Y-12982033D01*
X5531688Y-12991557D01*
X5512641Y-13001081D01*
X5493593Y-13001081D01*
X5474545Y-12991557D01*
X5465021Y-12982033D01*
X5455498Y-12962986D01*
X5445974Y-12924891D01*
X5445974Y-12877271D01*
X5455498Y-12839176D01*
X5465021Y-12820129D01*
X5474545Y-12810605D01*
X5493593Y-12801081D01*
X5645974Y-12982033D02*
X5655498Y-12991557D01*
X5645974Y-13001081D01*
X5636450Y-12991557D01*
X5645974Y-12982033D01*
X5645974Y-13001081D01*
X5779307Y-12801081D02*
X5798355Y-12801081D01*
X5817402Y-12810605D01*
X5826926Y-12820129D01*
X5836450Y-12839176D01*
X5845974Y-12877271D01*
X5845974Y-12924891D01*
X5836450Y-12962986D01*
X5826926Y-12982033D01*
X5817402Y-12991557D01*
X5798355Y-13001081D01*
X5779307Y-13001081D01*
X5760259Y-12991557D01*
X5750736Y-12982033D01*
X5741212Y-12962986D01*
X5731688Y-12924891D01*
X5731688Y-12877271D01*
X5741212Y-12839176D01*
X5750736Y-12820129D01*
X5760259Y-12810605D01*
X5779307Y-12801081D01*
X6036450Y-13001081D02*
X5922164Y-13001081D01*
X5979307Y-13001081D02*
X5979307Y-12801081D01*
X5960259Y-12829652D01*
X5941212Y-12848700D01*
X5922164Y-12858224D01*
X6217402Y-12801081D02*
X6122164Y-12801081D01*
X6112640Y-12896319D01*
X6122164Y-12886795D01*
X6141212Y-12877271D01*
X6188831Y-12877271D01*
X6207879Y-12886795D01*
X6217402Y-12896319D01*
X6226926Y-12915367D01*
X6226926Y-12962986D01*
X6217402Y-12982033D01*
X6207879Y-12991557D01*
X6188831Y-13001081D01*
X6141212Y-13001081D01*
X6122164Y-12991557D01*
X6112640Y-12982033D01*
X6293593Y-12801081D02*
X6426926Y-12801081D01*
X6341212Y-13001081D01*
X6493593Y-12801081D02*
X6493593Y-12839176D01*
X6569783Y-12801081D02*
X6569783Y-12839176D01*
X6865021Y-13077271D02*
X6855498Y-13067748D01*
X6836450Y-13039176D01*
X6826926Y-13020129D01*
X6817402Y-12991557D01*
X6807879Y-12943938D01*
X6807879Y-12905843D01*
X6817402Y-12858224D01*
X6826926Y-12829652D01*
X6836450Y-12810605D01*
X6855498Y-12782033D01*
X6865021Y-12772510D01*
X6979307Y-12801081D02*
X6998355Y-12801081D01*
X7017402Y-12810605D01*
X7026926Y-12820129D01*
X7036450Y-12839176D01*
X7045974Y-12877271D01*
X7045974Y-12924891D01*
X7036450Y-12962986D01*
X7026926Y-12982033D01*
X7017402Y-12991557D01*
X6998355Y-13001081D01*
X6979307Y-13001081D01*
X6960259Y-12991557D01*
X6950736Y-12982033D01*
X6941212Y-12962986D01*
X6931688Y-12924891D01*
X6931688Y-12877271D01*
X6941212Y-12839176D01*
X6950736Y-12820129D01*
X6960259Y-12810605D01*
X6979307Y-12801081D01*
X7284069Y-13001081D02*
X7284069Y-12801081D01*
X7369783Y-13001081D02*
X7369783Y-12896319D01*
X7360259Y-12877271D01*
X7341212Y-12867748D01*
X7312640Y-12867748D01*
X7293593Y-12877271D01*
X7284069Y-12886795D01*
X7493593Y-13001081D02*
X7474545Y-12991557D01*
X7465021Y-12982033D01*
X7455498Y-12962986D01*
X7455498Y-12905843D01*
X7465021Y-12886795D01*
X7474545Y-12877271D01*
X7493593Y-12867748D01*
X7522164Y-12867748D01*
X7541212Y-12877271D01*
X7550736Y-12886795D01*
X7560259Y-12905843D01*
X7560259Y-12962986D01*
X7550736Y-12982033D01*
X7541212Y-12991557D01*
X7522164Y-13001081D01*
X7493593Y-13001081D01*
X7674545Y-13001081D02*
X7655498Y-12991557D01*
X7645974Y-12972510D01*
X7645974Y-12801081D01*
X7826926Y-12991557D02*
X7807879Y-13001081D01*
X7769783Y-13001081D01*
X7750736Y-12991557D01*
X7741212Y-12972510D01*
X7741212Y-12896319D01*
X7750736Y-12877271D01*
X7769783Y-12867748D01*
X7807879Y-12867748D01*
X7826926Y-12877271D01*
X7836450Y-12896319D01*
X7836450Y-12915367D01*
X7741212Y-12934414D01*
X7912640Y-12991557D02*
X7931688Y-13001081D01*
X7969783Y-13001081D01*
X7988831Y-12991557D01*
X7998355Y-12972510D01*
X7998355Y-12962986D01*
X7988831Y-12943938D01*
X7969783Y-12934414D01*
X7941212Y-12934414D01*
X7922164Y-12924891D01*
X7912640Y-12905843D01*
X7912640Y-12896319D01*
X7922164Y-12877271D01*
X7941212Y-12867748D01*
X7969783Y-12867748D01*
X7988831Y-12877271D01*
X8236450Y-12924891D02*
X8388831Y-12924891D01*
X8312640Y-13001081D02*
X8312640Y-12848700D01*
X8741212Y-13001081D02*
X8626926Y-13001081D01*
X8684069Y-13001081D02*
X8684069Y-12801081D01*
X8665021Y-12829652D01*
X8645974Y-12848700D01*
X8626926Y-12858224D01*
X8922164Y-12801081D02*
X8826926Y-12801081D01*
X8817402Y-12896319D01*
X8826926Y-12886795D01*
X8845974Y-12877271D01*
X8893593Y-12877271D01*
X8912641Y-12886795D01*
X8922164Y-12896319D01*
X8931688Y-12915367D01*
X8931688Y-12962986D01*
X8922164Y-12982033D01*
X8912641Y-12991557D01*
X8893593Y-13001081D01*
X8845974Y-13001081D01*
X8826926Y-12991557D01*
X8817402Y-12982033D01*
X9160260Y-12991557D02*
X9179307Y-13001081D01*
X9217402Y-13001081D01*
X9236450Y-12991557D01*
X9245974Y-12972510D01*
X9245974Y-12962986D01*
X9236450Y-12943938D01*
X9217402Y-12934414D01*
X9188831Y-12934414D01*
X9169783Y-12924891D01*
X9160260Y-12905843D01*
X9160260Y-12896319D01*
X9169783Y-12877271D01*
X9188831Y-12867748D01*
X9217402Y-12867748D01*
X9236450Y-12877271D01*
X9360260Y-13001081D02*
X9341212Y-12991557D01*
X9331688Y-12972510D01*
X9331688Y-12801081D01*
X9465021Y-13001081D02*
X9445974Y-12991557D01*
X9436450Y-12982033D01*
X9426926Y-12962986D01*
X9426926Y-12905843D01*
X9436450Y-12886795D01*
X9445974Y-12877271D01*
X9465021Y-12867748D01*
X9493593Y-12867748D01*
X9512641Y-12877271D01*
X9522164Y-12886795D01*
X9531688Y-12905843D01*
X9531688Y-12962986D01*
X9522164Y-12982033D01*
X9512641Y-12991557D01*
X9493593Y-13001081D01*
X9465021Y-13001081D01*
X9588831Y-12867748D02*
X9665021Y-12867748D01*
X9617402Y-12801081D02*
X9617402Y-12972510D01*
X9626926Y-12991557D01*
X9645974Y-13001081D01*
X9665021Y-13001081D01*
X9722164Y-12991557D02*
X9741212Y-13001081D01*
X9779307Y-13001081D01*
X9798355Y-12991557D01*
X9807879Y-12972510D01*
X9807879Y-12962986D01*
X9798355Y-12943938D01*
X9779307Y-12934414D01*
X9750736Y-12934414D01*
X9731688Y-12924891D01*
X9722164Y-12905843D01*
X9722164Y-12896319D01*
X9731688Y-12877271D01*
X9750736Y-12867748D01*
X9779307Y-12867748D01*
X9798355Y-12877271D01*
X9874545Y-13077271D02*
X9884069Y-13067748D01*
X9903117Y-13039176D01*
X9912641Y-13020129D01*
X9922164Y-12991557D01*
X9931688Y-12943938D01*
X9931688Y-12905843D01*
X9922164Y-12858224D01*
X9912641Y-12829652D01*
X9903117Y-12810605D01*
X9884069Y-12782033D01*
X9874545Y-12772510D01*
D13*
X3258117Y-13139605D02*
X3258117Y-13209605D01*
X3223117Y-13174605D02*
X3293117Y-13174605D01*
D11*
X3588831Y-13065081D02*
X3607879Y-13065081D01*
X3626926Y-13074605D01*
X3636450Y-13084129D01*
X3645974Y-13103176D01*
X3655498Y-13141271D01*
X3655498Y-13188891D01*
X3645974Y-13226986D01*
X3636450Y-13246033D01*
X3626926Y-13255557D01*
X3607879Y-13265081D01*
X3588831Y-13265081D01*
X3569783Y-13255557D01*
X3560259Y-13246033D01*
X3550736Y-13226986D01*
X3541212Y-13188891D01*
X3541212Y-13141271D01*
X3550736Y-13103176D01*
X3560259Y-13084129D01*
X3569783Y-13074605D01*
X3588831Y-13065081D01*
X3741212Y-13246033D02*
X3750736Y-13255557D01*
X3741212Y-13265081D01*
X3731688Y-13255557D01*
X3741212Y-13246033D01*
X3741212Y-13265081D01*
X3817402Y-13065081D02*
X3950736Y-13065081D01*
X3865021Y-13265081D01*
X4065021Y-13065081D02*
X4084069Y-13065081D01*
X4103117Y-13074605D01*
X4112640Y-13084129D01*
X4122164Y-13103176D01*
X4131688Y-13141271D01*
X4131688Y-13188891D01*
X4122164Y-13226986D01*
X4112640Y-13246033D01*
X4103117Y-13255557D01*
X4084069Y-13265081D01*
X4065021Y-13265081D01*
X4045974Y-13255557D01*
X4036450Y-13246033D01*
X4026926Y-13226986D01*
X4017402Y-13188891D01*
X4017402Y-13141271D01*
X4026926Y-13103176D01*
X4036450Y-13084129D01*
X4045974Y-13074605D01*
X4065021Y-13065081D01*
X4255498Y-13065081D02*
X4274545Y-13065081D01*
X4293593Y-13074605D01*
X4303117Y-13084129D01*
X4312641Y-13103176D01*
X4322164Y-13141271D01*
X4322164Y-13188891D01*
X4312641Y-13226986D01*
X4303117Y-13246033D01*
X4293593Y-13255557D01*
X4274545Y-13265081D01*
X4255498Y-13265081D01*
X4236450Y-13255557D01*
X4226926Y-13246033D01*
X4217402Y-13226986D01*
X4207879Y-13188891D01*
X4207879Y-13141271D01*
X4217402Y-13103176D01*
X4226926Y-13084129D01*
X4236450Y-13074605D01*
X4255498Y-13065081D01*
X4407879Y-13265081D02*
X4407879Y-13131748D01*
X4407879Y-13150795D02*
X4417402Y-13141271D01*
X4436450Y-13131748D01*
X4465021Y-13131748D01*
X4484069Y-13141271D01*
X4493593Y-13160319D01*
X4493593Y-13265081D01*
X4493593Y-13160319D02*
X4503117Y-13141271D01*
X4522164Y-13131748D01*
X4550736Y-13131748D01*
X4569783Y-13141271D01*
X4579307Y-13160319D01*
X4579307Y-13265081D01*
X4674545Y-13265081D02*
X4674545Y-13131748D01*
X4674545Y-13150795D02*
X4684069Y-13141271D01*
X4703117Y-13131748D01*
X4731688Y-13131748D01*
X4750736Y-13141271D01*
X4760260Y-13160319D01*
X4760260Y-13265081D01*
X4760260Y-13160319D02*
X4769783Y-13141271D01*
X4788831Y-13131748D01*
X4817402Y-13131748D01*
X4836450Y-13141271D01*
X4845974Y-13160319D01*
X4845974Y-13265081D01*
X5236450Y-13055557D02*
X5065021Y-13312700D01*
X5493593Y-13065081D02*
X5512641Y-13065081D01*
X5531688Y-13074605D01*
X5541212Y-13084129D01*
X5550736Y-13103176D01*
X5560260Y-13141271D01*
X5560260Y-13188891D01*
X5550736Y-13226986D01*
X5541212Y-13246033D01*
X5531688Y-13255557D01*
X5512641Y-13265081D01*
X5493593Y-13265081D01*
X5474545Y-13255557D01*
X5465021Y-13246033D01*
X5455498Y-13226986D01*
X5445974Y-13188891D01*
X5445974Y-13141271D01*
X5455498Y-13103176D01*
X5465021Y-13084129D01*
X5474545Y-13074605D01*
X5493593Y-13065081D01*
X5645974Y-13246033D02*
X5655498Y-13255557D01*
X5645974Y-13265081D01*
X5636450Y-13255557D01*
X5645974Y-13246033D01*
X5645974Y-13265081D01*
X5779307Y-13065081D02*
X5798355Y-13065081D01*
X5817402Y-13074605D01*
X5826926Y-13084129D01*
X5836450Y-13103176D01*
X5845974Y-13141271D01*
X5845974Y-13188891D01*
X5836450Y-13226986D01*
X5826926Y-13246033D01*
X5817402Y-13255557D01*
X5798355Y-13265081D01*
X5779307Y-13265081D01*
X5760259Y-13255557D01*
X5750736Y-13246033D01*
X5741212Y-13226986D01*
X5731688Y-13188891D01*
X5731688Y-13141271D01*
X5741212Y-13103176D01*
X5750736Y-13084129D01*
X5760259Y-13074605D01*
X5779307Y-13065081D01*
X5922164Y-13084129D02*
X5931688Y-13074605D01*
X5950736Y-13065081D01*
X5998355Y-13065081D01*
X6017402Y-13074605D01*
X6026926Y-13084129D01*
X6036450Y-13103176D01*
X6036450Y-13122224D01*
X6026926Y-13150795D01*
X5912640Y-13265081D01*
X6036450Y-13265081D01*
X6103117Y-13065081D02*
X6236450Y-13065081D01*
X6150736Y-13265081D01*
X6398355Y-13065081D02*
X6360259Y-13065081D01*
X6341212Y-13074605D01*
X6331688Y-13084129D01*
X6312640Y-13112700D01*
X6303117Y-13150795D01*
X6303117Y-13226986D01*
X6312640Y-13246033D01*
X6322164Y-13255557D01*
X6341212Y-13265081D01*
X6379307Y-13265081D01*
X6398355Y-13255557D01*
X6407879Y-13246033D01*
X6417402Y-13226986D01*
X6417402Y-13179367D01*
X6407879Y-13160319D01*
X6398355Y-13150795D01*
X6379307Y-13141271D01*
X6341212Y-13141271D01*
X6322164Y-13150795D01*
X6312640Y-13160319D01*
X6303117Y-13179367D01*
X6493593Y-13065081D02*
X6493593Y-13103176D01*
X6569783Y-13065081D02*
X6569783Y-13103176D01*
X6865021Y-13341271D02*
X6855498Y-13331748D01*
X6836450Y-13303176D01*
X6826926Y-13284129D01*
X6817402Y-13255557D01*
X6807879Y-13207938D01*
X6807879Y-13169843D01*
X6817402Y-13122224D01*
X6826926Y-13093652D01*
X6836450Y-13074605D01*
X6855498Y-13046033D01*
X6865021Y-13036510D01*
X7026926Y-13131748D02*
X7026926Y-13265081D01*
X6979307Y-13055557D02*
X6931688Y-13198414D01*
X7055498Y-13198414D01*
X7284069Y-13265081D02*
X7284069Y-13065081D01*
X7369783Y-13265081D02*
X7369783Y-13160319D01*
X7360259Y-13141271D01*
X7341212Y-13131748D01*
X7312640Y-13131748D01*
X7293593Y-13141271D01*
X7284069Y-13150795D01*
X7493593Y-13265081D02*
X7474545Y-13255557D01*
X7465021Y-13246033D01*
X7455498Y-13226986D01*
X7455498Y-13169843D01*
X7465021Y-13150795D01*
X7474545Y-13141271D01*
X7493593Y-13131748D01*
X7522164Y-13131748D01*
X7541212Y-13141271D01*
X7550736Y-13150795D01*
X7560259Y-13169843D01*
X7560259Y-13226986D01*
X7550736Y-13246033D01*
X7541212Y-13255557D01*
X7522164Y-13265081D01*
X7493593Y-13265081D01*
X7674545Y-13265081D02*
X7655498Y-13255557D01*
X7645974Y-13236510D01*
X7645974Y-13065081D01*
X7826926Y-13255557D02*
X7807879Y-13265081D01*
X7769783Y-13265081D01*
X7750736Y-13255557D01*
X7741212Y-13236510D01*
X7741212Y-13160319D01*
X7750736Y-13141271D01*
X7769783Y-13131748D01*
X7807879Y-13131748D01*
X7826926Y-13141271D01*
X7836450Y-13160319D01*
X7836450Y-13179367D01*
X7741212Y-13198414D01*
X7912640Y-13255557D02*
X7931688Y-13265081D01*
X7969783Y-13265081D01*
X7988831Y-13255557D01*
X7998355Y-13236510D01*
X7998355Y-13226986D01*
X7988831Y-13207938D01*
X7969783Y-13198414D01*
X7941212Y-13198414D01*
X7922164Y-13188891D01*
X7912640Y-13169843D01*
X7912640Y-13160319D01*
X7922164Y-13141271D01*
X7941212Y-13131748D01*
X7969783Y-13131748D01*
X7988831Y-13141271D01*
X8065021Y-13341271D02*
X8074545Y-13331748D01*
X8093593Y-13303176D01*
X8103117Y-13284129D01*
X8112640Y-13255557D01*
X8122164Y-13207938D01*
X8122164Y-13169843D01*
X8112640Y-13122224D01*
X8103117Y-13093652D01*
X8093593Y-13074605D01*
X8074545Y-13046033D01*
X8065021Y-13036510D01*
D14*
X3282133Y-13465122D02*
X3282133Y-13412088D01*
X3229100Y-13412088D01*
X3229100Y-13465122D01*
X3282133Y-13465122D01*
D11*
X3588831Y-13329081D02*
X3607879Y-13329081D01*
X3626926Y-13338605D01*
X3636450Y-13348129D01*
X3645974Y-13367176D01*
X3655498Y-13405271D01*
X3655498Y-13452891D01*
X3645974Y-13490986D01*
X3636450Y-13510033D01*
X3626926Y-13519557D01*
X3607879Y-13529081D01*
X3588831Y-13529081D01*
X3569783Y-13519557D01*
X3560259Y-13510033D01*
X3550736Y-13490986D01*
X3541212Y-13452891D01*
X3541212Y-13405271D01*
X3550736Y-13367176D01*
X3560259Y-13348129D01*
X3569783Y-13338605D01*
X3588831Y-13329081D01*
X3741212Y-13510033D02*
X3750736Y-13519557D01*
X3741212Y-13529081D01*
X3731688Y-13519557D01*
X3741212Y-13510033D01*
X3741212Y-13529081D01*
X3817402Y-13329081D02*
X3950736Y-13329081D01*
X3865021Y-13529081D01*
X4122164Y-13329081D02*
X4026926Y-13329081D01*
X4017402Y-13424319D01*
X4026926Y-13414795D01*
X4045974Y-13405271D01*
X4093593Y-13405271D01*
X4112640Y-13414795D01*
X4122164Y-13424319D01*
X4131688Y-13443367D01*
X4131688Y-13490986D01*
X4122164Y-13510033D01*
X4112640Y-13519557D01*
X4093593Y-13529081D01*
X4045974Y-13529081D01*
X4026926Y-13519557D01*
X4017402Y-13510033D01*
X4255498Y-13329081D02*
X4274545Y-13329081D01*
X4293593Y-13338605D01*
X4303117Y-13348129D01*
X4312641Y-13367176D01*
X4322164Y-13405271D01*
X4322164Y-13452891D01*
X4312641Y-13490986D01*
X4303117Y-13510033D01*
X4293593Y-13519557D01*
X4274545Y-13529081D01*
X4255498Y-13529081D01*
X4236450Y-13519557D01*
X4226926Y-13510033D01*
X4217402Y-13490986D01*
X4207879Y-13452891D01*
X4207879Y-13405271D01*
X4217402Y-13367176D01*
X4226926Y-13348129D01*
X4236450Y-13338605D01*
X4255498Y-13329081D01*
X4407879Y-13529081D02*
X4407879Y-13395748D01*
X4407879Y-13414795D02*
X4417402Y-13405271D01*
X4436450Y-13395748D01*
X4465021Y-13395748D01*
X4484069Y-13405271D01*
X4493593Y-13424319D01*
X4493593Y-13529081D01*
X4493593Y-13424319D02*
X4503117Y-13405271D01*
X4522164Y-13395748D01*
X4550736Y-13395748D01*
X4569783Y-13405271D01*
X4579307Y-13424319D01*
X4579307Y-13529081D01*
X4674545Y-13529081D02*
X4674545Y-13395748D01*
X4674545Y-13414795D02*
X4684069Y-13405271D01*
X4703117Y-13395748D01*
X4731688Y-13395748D01*
X4750736Y-13405271D01*
X4760260Y-13424319D01*
X4760260Y-13529081D01*
X4760260Y-13424319D02*
X4769783Y-13405271D01*
X4788831Y-13395748D01*
X4817402Y-13395748D01*
X4836450Y-13405271D01*
X4845974Y-13424319D01*
X4845974Y-13529081D01*
X5236450Y-13319557D02*
X5065021Y-13576700D01*
X5493593Y-13329081D02*
X5512641Y-13329081D01*
X5531688Y-13338605D01*
X5541212Y-13348129D01*
X5550736Y-13367176D01*
X5560260Y-13405271D01*
X5560260Y-13452891D01*
X5550736Y-13490986D01*
X5541212Y-13510033D01*
X5531688Y-13519557D01*
X5512641Y-13529081D01*
X5493593Y-13529081D01*
X5474545Y-13519557D01*
X5465021Y-13510033D01*
X5455498Y-13490986D01*
X5445974Y-13452891D01*
X5445974Y-13405271D01*
X5455498Y-13367176D01*
X5465021Y-13348129D01*
X5474545Y-13338605D01*
X5493593Y-13329081D01*
X5645974Y-13510033D02*
X5655498Y-13519557D01*
X5645974Y-13529081D01*
X5636450Y-13519557D01*
X5645974Y-13510033D01*
X5645974Y-13529081D01*
X5779307Y-13329081D02*
X5798355Y-13329081D01*
X5817402Y-13338605D01*
X5826926Y-13348129D01*
X5836450Y-13367176D01*
X5845974Y-13405271D01*
X5845974Y-13452891D01*
X5836450Y-13490986D01*
X5826926Y-13510033D01*
X5817402Y-13519557D01*
X5798355Y-13529081D01*
X5779307Y-13529081D01*
X5760259Y-13519557D01*
X5750736Y-13510033D01*
X5741212Y-13490986D01*
X5731688Y-13452891D01*
X5731688Y-13405271D01*
X5741212Y-13367176D01*
X5750736Y-13348129D01*
X5760259Y-13338605D01*
X5779307Y-13329081D01*
X5922164Y-13348129D02*
X5931688Y-13338605D01*
X5950736Y-13329081D01*
X5998355Y-13329081D01*
X6017402Y-13338605D01*
X6026926Y-13348129D01*
X6036450Y-13367176D01*
X6036450Y-13386224D01*
X6026926Y-13414795D01*
X5912640Y-13529081D01*
X6036450Y-13529081D01*
X6131688Y-13529081D02*
X6169783Y-13529081D01*
X6188831Y-13519557D01*
X6198355Y-13510033D01*
X6217402Y-13481462D01*
X6226926Y-13443367D01*
X6226926Y-13367176D01*
X6217402Y-13348129D01*
X6207879Y-13338605D01*
X6188831Y-13329081D01*
X6150736Y-13329081D01*
X6131688Y-13338605D01*
X6122164Y-13348129D01*
X6112640Y-13367176D01*
X6112640Y-13414795D01*
X6122164Y-13433843D01*
X6131688Y-13443367D01*
X6150736Y-13452891D01*
X6188831Y-13452891D01*
X6207879Y-13443367D01*
X6217402Y-13433843D01*
X6226926Y-13414795D01*
X6407879Y-13329081D02*
X6312640Y-13329081D01*
X6303117Y-13424319D01*
X6312640Y-13414795D01*
X6331688Y-13405271D01*
X6379307Y-13405271D01*
X6398355Y-13414795D01*
X6407879Y-13424319D01*
X6417402Y-13443367D01*
X6417402Y-13490986D01*
X6407879Y-13510033D01*
X6398355Y-13519557D01*
X6379307Y-13529081D01*
X6331688Y-13529081D01*
X6312640Y-13519557D01*
X6303117Y-13510033D01*
X6493593Y-13329081D02*
X6493593Y-13367176D01*
X6569783Y-13329081D02*
X6569783Y-13367176D01*
X6865021Y-13605271D02*
X6855498Y-13595748D01*
X6836450Y-13567176D01*
X6826926Y-13548129D01*
X6817402Y-13519557D01*
X6807879Y-13471938D01*
X6807879Y-13433843D01*
X6817402Y-13386224D01*
X6826926Y-13357652D01*
X6836450Y-13338605D01*
X6855498Y-13310033D01*
X6865021Y-13300510D01*
X6931688Y-13348129D02*
X6941212Y-13338605D01*
X6960259Y-13329081D01*
X7007879Y-13329081D01*
X7026926Y-13338605D01*
X7036450Y-13348129D01*
X7045974Y-13367176D01*
X7045974Y-13386224D01*
X7036450Y-13414795D01*
X6922164Y-13529081D01*
X7045974Y-13529081D01*
X7122164Y-13348129D02*
X7131688Y-13338605D01*
X7150736Y-13329081D01*
X7198355Y-13329081D01*
X7217402Y-13338605D01*
X7226926Y-13348129D01*
X7236450Y-13367176D01*
X7236450Y-13386224D01*
X7226926Y-13414795D01*
X7112640Y-13529081D01*
X7236450Y-13529081D01*
X7474545Y-13529081D02*
X7474545Y-13329081D01*
X7560259Y-13529081D02*
X7560259Y-13424319D01*
X7550736Y-13405271D01*
X7531688Y-13395748D01*
X7503117Y-13395748D01*
X7484069Y-13405271D01*
X7474545Y-13414795D01*
X7684069Y-13529081D02*
X7665021Y-13519557D01*
X7655498Y-13510033D01*
X7645974Y-13490986D01*
X7645974Y-13433843D01*
X7655498Y-13414795D01*
X7665021Y-13405271D01*
X7684069Y-13395748D01*
X7712640Y-13395748D01*
X7731688Y-13405271D01*
X7741212Y-13414795D01*
X7750736Y-13433843D01*
X7750736Y-13490986D01*
X7741212Y-13510033D01*
X7731688Y-13519557D01*
X7712640Y-13529081D01*
X7684069Y-13529081D01*
X7865021Y-13529081D02*
X7845974Y-13519557D01*
X7836450Y-13500510D01*
X7836450Y-13329081D01*
X8017402Y-13519557D02*
X7998355Y-13529081D01*
X7960259Y-13529081D01*
X7941212Y-13519557D01*
X7931688Y-13500510D01*
X7931688Y-13424319D01*
X7941212Y-13405271D01*
X7960259Y-13395748D01*
X7998355Y-13395748D01*
X8017402Y-13405271D01*
X8026926Y-13424319D01*
X8026926Y-13443367D01*
X7931688Y-13462414D01*
X8103117Y-13519557D02*
X8122164Y-13529081D01*
X8160259Y-13529081D01*
X8179307Y-13519557D01*
X8188831Y-13500510D01*
X8188831Y-13490986D01*
X8179307Y-13471938D01*
X8160259Y-13462414D01*
X8131688Y-13462414D01*
X8112640Y-13452891D01*
X8103117Y-13433843D01*
X8103117Y-13424319D01*
X8112640Y-13405271D01*
X8131688Y-13395748D01*
X8160259Y-13395748D01*
X8179307Y-13405271D01*
X8255498Y-13605271D02*
X8265021Y-13595748D01*
X8284069Y-13567176D01*
X8293593Y-13548129D01*
X8303117Y-13519557D01*
X8312640Y-13471938D01*
X8312640Y-13433843D01*
X8303117Y-13386224D01*
X8293593Y-13357652D01*
X8284069Y-13338605D01*
X8265021Y-13310033D01*
X8255498Y-13300510D01*
D15*
X3253117Y-13742605D02*
X3293117Y-13702605D01*
X3253117Y-13662605D01*
X3213117Y-13702605D01*
X3253117Y-13742605D01*
D11*
X3588831Y-13593081D02*
X3607879Y-13593081D01*
X3626926Y-13602605D01*
X3636450Y-13612129D01*
X3645974Y-13631176D01*
X3655498Y-13669271D01*
X3655498Y-13716891D01*
X3645974Y-13754986D01*
X3636450Y-13774033D01*
X3626926Y-13783557D01*
X3607879Y-13793081D01*
X3588831Y-13793081D01*
X3569783Y-13783557D01*
X3560259Y-13774033D01*
X3550736Y-13754986D01*
X3541212Y-13716891D01*
X3541212Y-13669271D01*
X3550736Y-13631176D01*
X3560259Y-13612129D01*
X3569783Y-13602605D01*
X3588831Y-13593081D01*
X3741212Y-13774033D02*
X3750736Y-13783557D01*
X3741212Y-13793081D01*
X3731688Y-13783557D01*
X3741212Y-13774033D01*
X3741212Y-13793081D01*
X3865021Y-13678795D02*
X3845974Y-13669271D01*
X3836450Y-13659748D01*
X3826926Y-13640700D01*
X3826926Y-13631176D01*
X3836450Y-13612129D01*
X3845974Y-13602605D01*
X3865021Y-13593081D01*
X3903117Y-13593081D01*
X3922164Y-13602605D01*
X3931688Y-13612129D01*
X3941212Y-13631176D01*
X3941212Y-13640700D01*
X3931688Y-13659748D01*
X3922164Y-13669271D01*
X3903117Y-13678795D01*
X3865021Y-13678795D01*
X3845974Y-13688319D01*
X3836450Y-13697843D01*
X3826926Y-13716891D01*
X3826926Y-13754986D01*
X3836450Y-13774033D01*
X3845974Y-13783557D01*
X3865021Y-13793081D01*
X3903117Y-13793081D01*
X3922164Y-13783557D01*
X3931688Y-13774033D01*
X3941212Y-13754986D01*
X3941212Y-13716891D01*
X3931688Y-13697843D01*
X3922164Y-13688319D01*
X3903117Y-13678795D01*
X4065021Y-13593081D02*
X4084069Y-13593081D01*
X4103117Y-13602605D01*
X4112640Y-13612129D01*
X4122164Y-13631176D01*
X4131688Y-13669271D01*
X4131688Y-13716891D01*
X4122164Y-13754986D01*
X4112640Y-13774033D01*
X4103117Y-13783557D01*
X4084069Y-13793081D01*
X4065021Y-13793081D01*
X4045974Y-13783557D01*
X4036450Y-13774033D01*
X4026926Y-13754986D01*
X4017402Y-13716891D01*
X4017402Y-13669271D01*
X4026926Y-13631176D01*
X4036450Y-13612129D01*
X4045974Y-13602605D01*
X4065021Y-13593081D01*
X4255498Y-13593081D02*
X4274545Y-13593081D01*
X4293593Y-13602605D01*
X4303117Y-13612129D01*
X4312641Y-13631176D01*
X4322164Y-13669271D01*
X4322164Y-13716891D01*
X4312641Y-13754986D01*
X4303117Y-13774033D01*
X4293593Y-13783557D01*
X4274545Y-13793081D01*
X4255498Y-13793081D01*
X4236450Y-13783557D01*
X4226926Y-13774033D01*
X4217402Y-13754986D01*
X4207879Y-13716891D01*
X4207879Y-13669271D01*
X4217402Y-13631176D01*
X4226926Y-13612129D01*
X4236450Y-13602605D01*
X4255498Y-13593081D01*
X4407879Y-13793081D02*
X4407879Y-13659748D01*
X4407879Y-13678795D02*
X4417402Y-13669271D01*
X4436450Y-13659748D01*
X4465021Y-13659748D01*
X4484069Y-13669271D01*
X4493593Y-13688319D01*
X4493593Y-13793081D01*
X4493593Y-13688319D02*
X4503117Y-13669271D01*
X4522164Y-13659748D01*
X4550736Y-13659748D01*
X4569783Y-13669271D01*
X4579307Y-13688319D01*
X4579307Y-13793081D01*
X4674545Y-13793081D02*
X4674545Y-13659748D01*
X4674545Y-13678795D02*
X4684069Y-13669271D01*
X4703117Y-13659748D01*
X4731688Y-13659748D01*
X4750736Y-13669271D01*
X4760260Y-13688319D01*
X4760260Y-13793081D01*
X4760260Y-13688319D02*
X4769783Y-13669271D01*
X4788831Y-13659748D01*
X4817402Y-13659748D01*
X4836450Y-13669271D01*
X4845974Y-13688319D01*
X4845974Y-13793081D01*
X5236450Y-13583557D02*
X5065021Y-13840700D01*
X5493593Y-13593081D02*
X5512641Y-13593081D01*
X5531688Y-13602605D01*
X5541212Y-13612129D01*
X5550736Y-13631176D01*
X5560260Y-13669271D01*
X5560260Y-13716891D01*
X5550736Y-13754986D01*
X5541212Y-13774033D01*
X5531688Y-13783557D01*
X5512641Y-13793081D01*
X5493593Y-13793081D01*
X5474545Y-13783557D01*
X5465021Y-13774033D01*
X5455498Y-13754986D01*
X5445974Y-13716891D01*
X5445974Y-13669271D01*
X5455498Y-13631176D01*
X5465021Y-13612129D01*
X5474545Y-13602605D01*
X5493593Y-13593081D01*
X5645974Y-13774033D02*
X5655498Y-13783557D01*
X5645974Y-13793081D01*
X5636450Y-13783557D01*
X5645974Y-13774033D01*
X5645974Y-13793081D01*
X5779307Y-13593081D02*
X5798355Y-13593081D01*
X5817402Y-13602605D01*
X5826926Y-13612129D01*
X5836450Y-13631176D01*
X5845974Y-13669271D01*
X5845974Y-13716891D01*
X5836450Y-13754986D01*
X5826926Y-13774033D01*
X5817402Y-13783557D01*
X5798355Y-13793081D01*
X5779307Y-13793081D01*
X5760259Y-13783557D01*
X5750736Y-13774033D01*
X5741212Y-13754986D01*
X5731688Y-13716891D01*
X5731688Y-13669271D01*
X5741212Y-13631176D01*
X5750736Y-13612129D01*
X5760259Y-13602605D01*
X5779307Y-13593081D01*
X5912640Y-13593081D02*
X6036450Y-13593081D01*
X5969783Y-13669271D01*
X5998355Y-13669271D01*
X6017402Y-13678795D01*
X6026926Y-13688319D01*
X6036450Y-13707367D01*
X6036450Y-13754986D01*
X6026926Y-13774033D01*
X6017402Y-13783557D01*
X5998355Y-13793081D01*
X5941212Y-13793081D01*
X5922164Y-13783557D01*
X5912640Y-13774033D01*
X6226926Y-13793081D02*
X6112640Y-13793081D01*
X6169783Y-13793081D02*
X6169783Y-13593081D01*
X6150736Y-13621652D01*
X6131688Y-13640700D01*
X6112640Y-13650224D01*
X6407879Y-13593081D02*
X6312640Y-13593081D01*
X6303117Y-13688319D01*
X6312640Y-13678795D01*
X6331688Y-13669271D01*
X6379307Y-13669271D01*
X6398355Y-13678795D01*
X6407879Y-13688319D01*
X6417402Y-13707367D01*
X6417402Y-13754986D01*
X6407879Y-13774033D01*
X6398355Y-13783557D01*
X6379307Y-13793081D01*
X6331688Y-13793081D01*
X6312640Y-13783557D01*
X6303117Y-13774033D01*
X6493593Y-13593081D02*
X6493593Y-13631176D01*
X6569783Y-13593081D02*
X6569783Y-13631176D01*
X6865021Y-13869271D02*
X6855498Y-13859748D01*
X6836450Y-13831176D01*
X6826926Y-13812129D01*
X6817402Y-13783557D01*
X6807879Y-13735938D01*
X6807879Y-13697843D01*
X6817402Y-13650224D01*
X6826926Y-13621652D01*
X6836450Y-13602605D01*
X6855498Y-13574033D01*
X6865021Y-13564510D01*
X7045974Y-13793081D02*
X6931688Y-13793081D01*
X6988831Y-13793081D02*
X6988831Y-13593081D01*
X6969783Y-13621652D01*
X6950736Y-13640700D01*
X6931688Y-13650224D01*
X7169783Y-13593081D02*
X7188831Y-13593081D01*
X7207879Y-13602605D01*
X7217402Y-13612129D01*
X7226926Y-13631176D01*
X7236450Y-13669271D01*
X7236450Y-13716891D01*
X7226926Y-13754986D01*
X7217402Y-13774033D01*
X7207879Y-13783557D01*
X7188831Y-13793081D01*
X7169783Y-13793081D01*
X7150736Y-13783557D01*
X7141212Y-13774033D01*
X7131688Y-13754986D01*
X7122164Y-13716891D01*
X7122164Y-13669271D01*
X7131688Y-13631176D01*
X7141212Y-13612129D01*
X7150736Y-13602605D01*
X7169783Y-13593081D01*
X7474545Y-13793081D02*
X7474545Y-13593081D01*
X7560259Y-13793081D02*
X7560259Y-13688319D01*
X7550736Y-13669271D01*
X7531688Y-13659748D01*
X7503117Y-13659748D01*
X7484069Y-13669271D01*
X7474545Y-13678795D01*
X7684069Y-13793081D02*
X7665021Y-13783557D01*
X7655498Y-13774033D01*
X7645974Y-13754986D01*
X7645974Y-13697843D01*
X7655498Y-13678795D01*
X7665021Y-13669271D01*
X7684069Y-13659748D01*
X7712640Y-13659748D01*
X7731688Y-13669271D01*
X7741212Y-13678795D01*
X7750736Y-13697843D01*
X7750736Y-13754986D01*
X7741212Y-13774033D01*
X7731688Y-13783557D01*
X7712640Y-13793081D01*
X7684069Y-13793081D01*
X7865021Y-13793081D02*
X7845974Y-13783557D01*
X7836450Y-13764510D01*
X7836450Y-13593081D01*
X8017402Y-13783557D02*
X7998355Y-13793081D01*
X7960259Y-13793081D01*
X7941212Y-13783557D01*
X7931688Y-13764510D01*
X7931688Y-13688319D01*
X7941212Y-13669271D01*
X7960259Y-13659748D01*
X7998355Y-13659748D01*
X8017402Y-13669271D01*
X8026926Y-13688319D01*
X8026926Y-13707367D01*
X7931688Y-13726414D01*
X8103117Y-13783557D02*
X8122164Y-13793081D01*
X8160259Y-13793081D01*
X8179307Y-13783557D01*
X8188831Y-13764510D01*
X8188831Y-13754986D01*
X8179307Y-13735938D01*
X8160259Y-13726414D01*
X8131688Y-13726414D01*
X8112640Y-13716891D01*
X8103117Y-13697843D01*
X8103117Y-13688319D01*
X8112640Y-13669271D01*
X8131688Y-13659748D01*
X8160259Y-13659748D01*
X8179307Y-13669271D01*
X8255498Y-13869271D02*
X8265021Y-13859748D01*
X8284069Y-13831176D01*
X8293593Y-13812129D01*
X8303117Y-13783557D01*
X8312640Y-13735938D01*
X8312640Y-13697843D01*
X8303117Y-13650224D01*
X8293593Y-13621652D01*
X8284069Y-13602605D01*
X8265021Y-13574033D01*
X8255498Y-13564510D01*
D16*
X3193117Y-13916605D02*
X3293117Y-14016605D01*
X3293117Y-13916605D02*
X3193117Y-14016605D01*
X3293117Y-13966605D02*
G75*
G03*
X3293117Y-13966605I-50000J0D01*
G01*
D11*
X3655498Y-14057081D02*
X3541212Y-14057081D01*
X3598355Y-14057081D02*
X3598355Y-13857081D01*
X3579307Y-13885652D01*
X3560259Y-13904700D01*
X3541212Y-13914224D01*
X3741212Y-14038033D02*
X3750736Y-14047557D01*
X3741212Y-14057081D01*
X3731688Y-14047557D01*
X3741212Y-14038033D01*
X3741212Y-14057081D01*
X3874545Y-13857081D02*
X3893593Y-13857081D01*
X3912640Y-13866605D01*
X3922164Y-13876129D01*
X3931688Y-13895176D01*
X3941212Y-13933271D01*
X3941212Y-13980891D01*
X3931688Y-14018986D01*
X3922164Y-14038033D01*
X3912640Y-14047557D01*
X3893593Y-14057081D01*
X3874545Y-14057081D01*
X3855498Y-14047557D01*
X3845974Y-14038033D01*
X3836450Y-14018986D01*
X3826926Y-13980891D01*
X3826926Y-13933271D01*
X3836450Y-13895176D01*
X3845974Y-13876129D01*
X3855498Y-13866605D01*
X3874545Y-13857081D01*
X4065021Y-13857081D02*
X4084069Y-13857081D01*
X4103117Y-13866605D01*
X4112640Y-13876129D01*
X4122164Y-13895176D01*
X4131688Y-13933271D01*
X4131688Y-13980891D01*
X4122164Y-14018986D01*
X4112640Y-14038033D01*
X4103117Y-14047557D01*
X4084069Y-14057081D01*
X4065021Y-14057081D01*
X4045974Y-14047557D01*
X4036450Y-14038033D01*
X4026926Y-14018986D01*
X4017402Y-13980891D01*
X4017402Y-13933271D01*
X4026926Y-13895176D01*
X4036450Y-13876129D01*
X4045974Y-13866605D01*
X4065021Y-13857081D01*
X4255498Y-13857081D02*
X4274545Y-13857081D01*
X4293593Y-13866605D01*
X4303117Y-13876129D01*
X4312641Y-13895176D01*
X4322164Y-13933271D01*
X4322164Y-13980891D01*
X4312641Y-14018986D01*
X4303117Y-14038033D01*
X4293593Y-14047557D01*
X4274545Y-14057081D01*
X4255498Y-14057081D01*
X4236450Y-14047557D01*
X4226926Y-14038033D01*
X4217402Y-14018986D01*
X4207879Y-13980891D01*
X4207879Y-13933271D01*
X4217402Y-13895176D01*
X4226926Y-13876129D01*
X4236450Y-13866605D01*
X4255498Y-13857081D01*
X4407879Y-14057081D02*
X4407879Y-13923748D01*
X4407879Y-13942795D02*
X4417402Y-13933271D01*
X4436450Y-13923748D01*
X4465021Y-13923748D01*
X4484069Y-13933271D01*
X4493593Y-13952319D01*
X4493593Y-14057081D01*
X4493593Y-13952319D02*
X4503117Y-13933271D01*
X4522164Y-13923748D01*
X4550736Y-13923748D01*
X4569783Y-13933271D01*
X4579307Y-13952319D01*
X4579307Y-14057081D01*
X4674545Y-14057081D02*
X4674545Y-13923748D01*
X4674545Y-13942795D02*
X4684069Y-13933271D01*
X4703117Y-13923748D01*
X4731688Y-13923748D01*
X4750736Y-13933271D01*
X4760260Y-13952319D01*
X4760260Y-14057081D01*
X4760260Y-13952319D02*
X4769783Y-13933271D01*
X4788831Y-13923748D01*
X4817402Y-13923748D01*
X4836450Y-13933271D01*
X4845974Y-13952319D01*
X4845974Y-14057081D01*
X5236450Y-13847557D02*
X5065021Y-14104700D01*
X5493593Y-13857081D02*
X5512641Y-13857081D01*
X5531688Y-13866605D01*
X5541212Y-13876129D01*
X5550736Y-13895176D01*
X5560260Y-13933271D01*
X5560260Y-13980891D01*
X5550736Y-14018986D01*
X5541212Y-14038033D01*
X5531688Y-14047557D01*
X5512641Y-14057081D01*
X5493593Y-14057081D01*
X5474545Y-14047557D01*
X5465021Y-14038033D01*
X5455498Y-14018986D01*
X5445974Y-13980891D01*
X5445974Y-13933271D01*
X5455498Y-13895176D01*
X5465021Y-13876129D01*
X5474545Y-13866605D01*
X5493593Y-13857081D01*
X5645974Y-14038033D02*
X5655498Y-14047557D01*
X5645974Y-14057081D01*
X5636450Y-14047557D01*
X5645974Y-14038033D01*
X5645974Y-14057081D01*
X5779307Y-13857081D02*
X5798355Y-13857081D01*
X5817402Y-13866605D01*
X5826926Y-13876129D01*
X5836450Y-13895176D01*
X5845974Y-13933271D01*
X5845974Y-13980891D01*
X5836450Y-14018986D01*
X5826926Y-14038033D01*
X5817402Y-14047557D01*
X5798355Y-14057081D01*
X5779307Y-14057081D01*
X5760259Y-14047557D01*
X5750736Y-14038033D01*
X5741212Y-14018986D01*
X5731688Y-13980891D01*
X5731688Y-13933271D01*
X5741212Y-13895176D01*
X5750736Y-13876129D01*
X5760259Y-13866605D01*
X5779307Y-13857081D01*
X5912640Y-13857081D02*
X6036450Y-13857081D01*
X5969783Y-13933271D01*
X5998355Y-13933271D01*
X6017402Y-13942795D01*
X6026926Y-13952319D01*
X6036450Y-13971367D01*
X6036450Y-14018986D01*
X6026926Y-14038033D01*
X6017402Y-14047557D01*
X5998355Y-14057081D01*
X5941212Y-14057081D01*
X5922164Y-14047557D01*
X5912640Y-14038033D01*
X6131688Y-14057081D02*
X6169783Y-14057081D01*
X6188831Y-14047557D01*
X6198355Y-14038033D01*
X6217402Y-14009462D01*
X6226926Y-13971367D01*
X6226926Y-13895176D01*
X6217402Y-13876129D01*
X6207879Y-13866605D01*
X6188831Y-13857081D01*
X6150736Y-13857081D01*
X6131688Y-13866605D01*
X6122164Y-13876129D01*
X6112640Y-13895176D01*
X6112640Y-13942795D01*
X6122164Y-13961843D01*
X6131688Y-13971367D01*
X6150736Y-13980891D01*
X6188831Y-13980891D01*
X6207879Y-13971367D01*
X6217402Y-13961843D01*
X6226926Y-13942795D01*
X6398355Y-13923748D02*
X6398355Y-14057081D01*
X6350736Y-13847557D02*
X6303117Y-13990414D01*
X6426926Y-13990414D01*
X6493593Y-13857081D02*
X6493593Y-13895176D01*
X6569783Y-13857081D02*
X6569783Y-13895176D01*
X6865021Y-14133271D02*
X6855498Y-14123748D01*
X6836450Y-14095176D01*
X6826926Y-14076129D01*
X6817402Y-14047557D01*
X6807879Y-13999938D01*
X6807879Y-13961843D01*
X6817402Y-13914224D01*
X6826926Y-13885652D01*
X6836450Y-13866605D01*
X6855498Y-13838033D01*
X6865021Y-13828510D01*
X6950736Y-14057081D02*
X6988831Y-14057081D01*
X7007879Y-14047557D01*
X7017402Y-14038033D01*
X7036450Y-14009462D01*
X7045974Y-13971367D01*
X7045974Y-13895176D01*
X7036450Y-13876129D01*
X7026926Y-13866605D01*
X7007879Y-13857081D01*
X6969783Y-13857081D01*
X6950736Y-13866605D01*
X6941212Y-13876129D01*
X6931688Y-13895176D01*
X6931688Y-13942795D01*
X6941212Y-13961843D01*
X6950736Y-13971367D01*
X6969783Y-13980891D01*
X7007879Y-13980891D01*
X7026926Y-13971367D01*
X7036450Y-13961843D01*
X7045974Y-13942795D01*
X7122164Y-13876129D02*
X7131688Y-13866605D01*
X7150736Y-13857081D01*
X7198355Y-13857081D01*
X7217402Y-13866605D01*
X7226926Y-13876129D01*
X7236450Y-13895176D01*
X7236450Y-13914224D01*
X7226926Y-13942795D01*
X7112640Y-14057081D01*
X7236450Y-14057081D01*
X7474545Y-14057081D02*
X7474545Y-13857081D01*
X7560259Y-14057081D02*
X7560259Y-13952319D01*
X7550736Y-13933271D01*
X7531688Y-13923748D01*
X7503117Y-13923748D01*
X7484069Y-13933271D01*
X7474545Y-13942795D01*
X7684069Y-14057081D02*
X7665021Y-14047557D01*
X7655498Y-14038033D01*
X7645974Y-14018986D01*
X7645974Y-13961843D01*
X7655498Y-13942795D01*
X7665021Y-13933271D01*
X7684069Y-13923748D01*
X7712640Y-13923748D01*
X7731688Y-13933271D01*
X7741212Y-13942795D01*
X7750736Y-13961843D01*
X7750736Y-14018986D01*
X7741212Y-14038033D01*
X7731688Y-14047557D01*
X7712640Y-14057081D01*
X7684069Y-14057081D01*
X7865021Y-14057081D02*
X7845974Y-14047557D01*
X7836450Y-14028510D01*
X7836450Y-13857081D01*
X8017402Y-14047557D02*
X7998355Y-14057081D01*
X7960259Y-14057081D01*
X7941212Y-14047557D01*
X7931688Y-14028510D01*
X7931688Y-13952319D01*
X7941212Y-13933271D01*
X7960259Y-13923748D01*
X7998355Y-13923748D01*
X8017402Y-13933271D01*
X8026926Y-13952319D01*
X8026926Y-13971367D01*
X7931688Y-13990414D01*
X8103117Y-14047557D02*
X8122164Y-14057081D01*
X8160259Y-14057081D01*
X8179307Y-14047557D01*
X8188831Y-14028510D01*
X8188831Y-14018986D01*
X8179307Y-13999938D01*
X8160259Y-13990414D01*
X8131688Y-13990414D01*
X8112640Y-13980891D01*
X8103117Y-13961843D01*
X8103117Y-13952319D01*
X8112640Y-13933271D01*
X8131688Y-13923748D01*
X8160259Y-13923748D01*
X8179307Y-13933271D01*
X8255498Y-14133271D02*
X8265021Y-14123748D01*
X8284069Y-14095176D01*
X8293593Y-14076129D01*
X8303117Y-14047557D01*
X8312640Y-13999938D01*
X8312640Y-13961843D01*
X8303117Y-13914224D01*
X8293593Y-13885652D01*
X8284069Y-13866605D01*
X8265021Y-13838033D01*
X8255498Y-13828510D01*
D17*
X3183117Y-14175605D02*
X3293117Y-14285605D01*
X3293117Y-14175605D02*
X3183117Y-14285605D01*
X3238117Y-14175605D02*
X3238117Y-14285605D01*
X3183117Y-14230605D02*
X3293117Y-14230605D01*
D11*
X3655498Y-14321081D02*
X3541212Y-14321081D01*
X3598355Y-14321081D02*
X3598355Y-14121081D01*
X3579307Y-14149652D01*
X3560259Y-14168700D01*
X3541212Y-14178224D01*
X3741212Y-14302033D02*
X3750736Y-14311557D01*
X3741212Y-14321081D01*
X3731688Y-14311557D01*
X3741212Y-14302033D01*
X3741212Y-14321081D01*
X3941212Y-14321081D02*
X3826926Y-14321081D01*
X3884069Y-14321081D02*
X3884069Y-14121081D01*
X3865021Y-14149652D01*
X3845974Y-14168700D01*
X3826926Y-14178224D01*
X4065021Y-14121081D02*
X4084069Y-14121081D01*
X4103117Y-14130605D01*
X4112640Y-14140129D01*
X4122164Y-14159176D01*
X4131688Y-14197271D01*
X4131688Y-14244891D01*
X4122164Y-14282986D01*
X4112640Y-14302033D01*
X4103117Y-14311557D01*
X4084069Y-14321081D01*
X4065021Y-14321081D01*
X4045974Y-14311557D01*
X4036450Y-14302033D01*
X4026926Y-14282986D01*
X4017402Y-14244891D01*
X4017402Y-14197271D01*
X4026926Y-14159176D01*
X4036450Y-14140129D01*
X4045974Y-14130605D01*
X4065021Y-14121081D01*
X4255498Y-14121081D02*
X4274545Y-14121081D01*
X4293593Y-14130605D01*
X4303117Y-14140129D01*
X4312641Y-14159176D01*
X4322164Y-14197271D01*
X4322164Y-14244891D01*
X4312641Y-14282986D01*
X4303117Y-14302033D01*
X4293593Y-14311557D01*
X4274545Y-14321081D01*
X4255498Y-14321081D01*
X4236450Y-14311557D01*
X4226926Y-14302033D01*
X4217402Y-14282986D01*
X4207879Y-14244891D01*
X4207879Y-14197271D01*
X4217402Y-14159176D01*
X4226926Y-14140129D01*
X4236450Y-14130605D01*
X4255498Y-14121081D01*
X4407879Y-14321081D02*
X4407879Y-14187748D01*
X4407879Y-14206795D02*
X4417402Y-14197271D01*
X4436450Y-14187748D01*
X4465021Y-14187748D01*
X4484069Y-14197271D01*
X4493593Y-14216319D01*
X4493593Y-14321081D01*
X4493593Y-14216319D02*
X4503117Y-14197271D01*
X4522164Y-14187748D01*
X4550736Y-14187748D01*
X4569783Y-14197271D01*
X4579307Y-14216319D01*
X4579307Y-14321081D01*
X4674545Y-14321081D02*
X4674545Y-14187748D01*
X4674545Y-14206795D02*
X4684069Y-14197271D01*
X4703117Y-14187748D01*
X4731688Y-14187748D01*
X4750736Y-14197271D01*
X4760260Y-14216319D01*
X4760260Y-14321081D01*
X4760260Y-14216319D02*
X4769783Y-14197271D01*
X4788831Y-14187748D01*
X4817402Y-14187748D01*
X4836450Y-14197271D01*
X4845974Y-14216319D01*
X4845974Y-14321081D01*
X5236450Y-14111557D02*
X5065021Y-14368700D01*
X5493593Y-14121081D02*
X5512641Y-14121081D01*
X5531688Y-14130605D01*
X5541212Y-14140129D01*
X5550736Y-14159176D01*
X5560260Y-14197271D01*
X5560260Y-14244891D01*
X5550736Y-14282986D01*
X5541212Y-14302033D01*
X5531688Y-14311557D01*
X5512641Y-14321081D01*
X5493593Y-14321081D01*
X5474545Y-14311557D01*
X5465021Y-14302033D01*
X5455498Y-14282986D01*
X5445974Y-14244891D01*
X5445974Y-14197271D01*
X5455498Y-14159176D01*
X5465021Y-14140129D01*
X5474545Y-14130605D01*
X5493593Y-14121081D01*
X5645974Y-14302033D02*
X5655498Y-14311557D01*
X5645974Y-14321081D01*
X5636450Y-14311557D01*
X5645974Y-14302033D01*
X5645974Y-14321081D01*
X5779307Y-14121081D02*
X5798355Y-14121081D01*
X5817402Y-14130605D01*
X5826926Y-14140129D01*
X5836450Y-14159176D01*
X5845974Y-14197271D01*
X5845974Y-14244891D01*
X5836450Y-14282986D01*
X5826926Y-14302033D01*
X5817402Y-14311557D01*
X5798355Y-14321081D01*
X5779307Y-14321081D01*
X5760259Y-14311557D01*
X5750736Y-14302033D01*
X5741212Y-14282986D01*
X5731688Y-14244891D01*
X5731688Y-14197271D01*
X5741212Y-14159176D01*
X5750736Y-14140129D01*
X5760259Y-14130605D01*
X5779307Y-14121081D01*
X6017402Y-14187748D02*
X6017402Y-14321081D01*
X5969783Y-14111557D02*
X5922164Y-14254414D01*
X6045974Y-14254414D01*
X6103117Y-14121081D02*
X6226926Y-14121081D01*
X6160259Y-14197271D01*
X6188831Y-14197271D01*
X6207879Y-14206795D01*
X6217402Y-14216319D01*
X6226926Y-14235367D01*
X6226926Y-14282986D01*
X6217402Y-14302033D01*
X6207879Y-14311557D01*
X6188831Y-14321081D01*
X6131688Y-14321081D01*
X6112640Y-14311557D01*
X6103117Y-14302033D01*
X6293593Y-14121081D02*
X6417402Y-14121081D01*
X6350736Y-14197271D01*
X6379307Y-14197271D01*
X6398355Y-14206795D01*
X6407879Y-14216319D01*
X6417402Y-14235367D01*
X6417402Y-14282986D01*
X6407879Y-14302033D01*
X6398355Y-14311557D01*
X6379307Y-14321081D01*
X6322164Y-14321081D01*
X6303117Y-14311557D01*
X6293593Y-14302033D01*
X6493593Y-14121081D02*
X6493593Y-14159176D01*
X6569783Y-14121081D02*
X6569783Y-14159176D01*
X6865021Y-14397271D02*
X6855498Y-14387748D01*
X6836450Y-14359176D01*
X6826926Y-14340129D01*
X6817402Y-14311557D01*
X6807879Y-14263938D01*
X6807879Y-14225843D01*
X6817402Y-14178224D01*
X6826926Y-14149652D01*
X6836450Y-14130605D01*
X6855498Y-14102033D01*
X6865021Y-14092510D01*
X6922164Y-14121081D02*
X7045974Y-14121081D01*
X6979307Y-14197271D01*
X7007879Y-14197271D01*
X7026926Y-14206795D01*
X7036450Y-14216319D01*
X7045974Y-14235367D01*
X7045974Y-14282986D01*
X7036450Y-14302033D01*
X7026926Y-14311557D01*
X7007879Y-14321081D01*
X6950736Y-14321081D01*
X6931688Y-14311557D01*
X6922164Y-14302033D01*
X7284069Y-14321081D02*
X7284069Y-14121081D01*
X7369783Y-14321081D02*
X7369783Y-14216319D01*
X7360259Y-14197271D01*
X7341212Y-14187748D01*
X7312640Y-14187748D01*
X7293593Y-14197271D01*
X7284069Y-14206795D01*
X7493593Y-14321081D02*
X7474545Y-14311557D01*
X7465021Y-14302033D01*
X7455498Y-14282986D01*
X7455498Y-14225843D01*
X7465021Y-14206795D01*
X7474545Y-14197271D01*
X7493593Y-14187748D01*
X7522164Y-14187748D01*
X7541212Y-14197271D01*
X7550736Y-14206795D01*
X7560259Y-14225843D01*
X7560259Y-14282986D01*
X7550736Y-14302033D01*
X7541212Y-14311557D01*
X7522164Y-14321081D01*
X7493593Y-14321081D01*
X7674545Y-14321081D02*
X7655498Y-14311557D01*
X7645974Y-14292510D01*
X7645974Y-14121081D01*
X7826926Y-14311557D02*
X7807879Y-14321081D01*
X7769783Y-14321081D01*
X7750736Y-14311557D01*
X7741212Y-14292510D01*
X7741212Y-14216319D01*
X7750736Y-14197271D01*
X7769783Y-14187748D01*
X7807879Y-14187748D01*
X7826926Y-14197271D01*
X7836450Y-14216319D01*
X7836450Y-14235367D01*
X7741212Y-14254414D01*
X7912640Y-14311557D02*
X7931688Y-14321081D01*
X7969783Y-14321081D01*
X7988831Y-14311557D01*
X7998355Y-14292510D01*
X7998355Y-14282986D01*
X7988831Y-14263938D01*
X7969783Y-14254414D01*
X7941212Y-14254414D01*
X7922164Y-14244891D01*
X7912640Y-14225843D01*
X7912640Y-14216319D01*
X7922164Y-14197271D01*
X7941212Y-14187748D01*
X7969783Y-14187748D01*
X7988831Y-14197271D01*
X8065021Y-14397271D02*
X8074545Y-14387748D01*
X8093593Y-14359176D01*
X8103117Y-14340129D01*
X8112640Y-14311557D01*
X8122164Y-14263938D01*
X8122164Y-14225843D01*
X8112640Y-14178224D01*
X8103117Y-14149652D01*
X8093593Y-14130605D01*
X8074545Y-14102033D01*
X8065021Y-14092510D01*
D18*
X3163117Y-14429605D02*
X3293117Y-14559605D01*
X3293117Y-14429605D02*
X3163117Y-14559605D01*
X3274079Y-14540567D02*
X3274079Y-14448642D01*
X3182154Y-14448642D01*
X3182154Y-14540567D01*
X3274079Y-14540567D01*
D11*
X3655498Y-14585081D02*
X3541212Y-14585081D01*
X3598355Y-14585081D02*
X3598355Y-14385081D01*
X3579307Y-14413652D01*
X3560259Y-14432700D01*
X3541212Y-14442224D01*
X3741212Y-14566033D02*
X3750736Y-14575557D01*
X3741212Y-14585081D01*
X3731688Y-14575557D01*
X3741212Y-14566033D01*
X3741212Y-14585081D01*
X3817402Y-14385081D02*
X3941212Y-14385081D01*
X3874545Y-14461271D01*
X3903117Y-14461271D01*
X3922164Y-14470795D01*
X3931688Y-14480319D01*
X3941212Y-14499367D01*
X3941212Y-14546986D01*
X3931688Y-14566033D01*
X3922164Y-14575557D01*
X3903117Y-14585081D01*
X3845974Y-14585081D01*
X3826926Y-14575557D01*
X3817402Y-14566033D01*
X4065021Y-14385081D02*
X4084069Y-14385081D01*
X4103117Y-14394605D01*
X4112640Y-14404129D01*
X4122164Y-14423176D01*
X4131688Y-14461271D01*
X4131688Y-14508891D01*
X4122164Y-14546986D01*
X4112640Y-14566033D01*
X4103117Y-14575557D01*
X4084069Y-14585081D01*
X4065021Y-14585081D01*
X4045974Y-14575557D01*
X4036450Y-14566033D01*
X4026926Y-14546986D01*
X4017402Y-14508891D01*
X4017402Y-14461271D01*
X4026926Y-14423176D01*
X4036450Y-14404129D01*
X4045974Y-14394605D01*
X4065021Y-14385081D01*
X4255498Y-14385081D02*
X4274545Y-14385081D01*
X4293593Y-14394605D01*
X4303117Y-14404129D01*
X4312641Y-14423176D01*
X4322164Y-14461271D01*
X4322164Y-14508891D01*
X4312641Y-14546986D01*
X4303117Y-14566033D01*
X4293593Y-14575557D01*
X4274545Y-14585081D01*
X4255498Y-14585081D01*
X4236450Y-14575557D01*
X4226926Y-14566033D01*
X4217402Y-14546986D01*
X4207879Y-14508891D01*
X4207879Y-14461271D01*
X4217402Y-14423176D01*
X4226926Y-14404129D01*
X4236450Y-14394605D01*
X4255498Y-14385081D01*
X4407879Y-14585081D02*
X4407879Y-14451748D01*
X4407879Y-14470795D02*
X4417402Y-14461271D01*
X4436450Y-14451748D01*
X4465021Y-14451748D01*
X4484069Y-14461271D01*
X4493593Y-14480319D01*
X4493593Y-14585081D01*
X4493593Y-14480319D02*
X4503117Y-14461271D01*
X4522164Y-14451748D01*
X4550736Y-14451748D01*
X4569783Y-14461271D01*
X4579307Y-14480319D01*
X4579307Y-14585081D01*
X4674545Y-14585081D02*
X4674545Y-14451748D01*
X4674545Y-14470795D02*
X4684069Y-14461271D01*
X4703117Y-14451748D01*
X4731688Y-14451748D01*
X4750736Y-14461271D01*
X4760260Y-14480319D01*
X4760260Y-14585081D01*
X4760260Y-14480319D02*
X4769783Y-14461271D01*
X4788831Y-14451748D01*
X4817402Y-14451748D01*
X4836450Y-14461271D01*
X4845974Y-14480319D01*
X4845974Y-14585081D01*
X5236450Y-14375557D02*
X5065021Y-14632700D01*
X5493593Y-14385081D02*
X5512641Y-14385081D01*
X5531688Y-14394605D01*
X5541212Y-14404129D01*
X5550736Y-14423176D01*
X5560260Y-14461271D01*
X5560260Y-14508891D01*
X5550736Y-14546986D01*
X5541212Y-14566033D01*
X5531688Y-14575557D01*
X5512641Y-14585081D01*
X5493593Y-14585081D01*
X5474545Y-14575557D01*
X5465021Y-14566033D01*
X5455498Y-14546986D01*
X5445974Y-14508891D01*
X5445974Y-14461271D01*
X5455498Y-14423176D01*
X5465021Y-14404129D01*
X5474545Y-14394605D01*
X5493593Y-14385081D01*
X5645974Y-14566033D02*
X5655498Y-14575557D01*
X5645974Y-14585081D01*
X5636450Y-14575557D01*
X5645974Y-14566033D01*
X5645974Y-14585081D01*
X5779307Y-14385081D02*
X5798355Y-14385081D01*
X5817402Y-14394605D01*
X5826926Y-14404129D01*
X5836450Y-14423176D01*
X5845974Y-14461271D01*
X5845974Y-14508891D01*
X5836450Y-14546986D01*
X5826926Y-14566033D01*
X5817402Y-14575557D01*
X5798355Y-14585081D01*
X5779307Y-14585081D01*
X5760259Y-14575557D01*
X5750736Y-14566033D01*
X5741212Y-14546986D01*
X5731688Y-14508891D01*
X5731688Y-14461271D01*
X5741212Y-14423176D01*
X5750736Y-14404129D01*
X5760259Y-14394605D01*
X5779307Y-14385081D01*
X6026926Y-14385081D02*
X5931688Y-14385081D01*
X5922164Y-14480319D01*
X5931688Y-14470795D01*
X5950736Y-14461271D01*
X5998355Y-14461271D01*
X6017402Y-14470795D01*
X6026926Y-14480319D01*
X6036450Y-14499367D01*
X6036450Y-14546986D01*
X6026926Y-14566033D01*
X6017402Y-14575557D01*
X5998355Y-14585081D01*
X5950736Y-14585081D01*
X5931688Y-14575557D01*
X5922164Y-14566033D01*
X6226926Y-14585081D02*
X6112640Y-14585081D01*
X6169783Y-14585081D02*
X6169783Y-14385081D01*
X6150736Y-14413652D01*
X6131688Y-14432700D01*
X6112640Y-14442224D01*
X6303117Y-14404129D02*
X6312640Y-14394605D01*
X6331688Y-14385081D01*
X6379307Y-14385081D01*
X6398355Y-14394605D01*
X6407879Y-14404129D01*
X6417402Y-14423176D01*
X6417402Y-14442224D01*
X6407879Y-14470795D01*
X6293593Y-14585081D01*
X6417402Y-14585081D01*
X6493593Y-14385081D02*
X6493593Y-14423176D01*
X6569783Y-14385081D02*
X6569783Y-14423176D01*
X6865021Y-14661271D02*
X6855498Y-14651748D01*
X6836450Y-14623176D01*
X6826926Y-14604129D01*
X6817402Y-14575557D01*
X6807879Y-14527938D01*
X6807879Y-14489843D01*
X6817402Y-14442224D01*
X6826926Y-14413652D01*
X6836450Y-14394605D01*
X6855498Y-14366033D01*
X6865021Y-14356510D01*
X7045974Y-14585081D02*
X6931688Y-14585081D01*
X6988831Y-14585081D02*
X6988831Y-14385081D01*
X6969783Y-14413652D01*
X6950736Y-14432700D01*
X6931688Y-14442224D01*
X7217402Y-14451748D02*
X7217402Y-14585081D01*
X7169783Y-14375557D02*
X7122164Y-14518414D01*
X7245974Y-14518414D01*
X7474545Y-14585081D02*
X7474545Y-14385081D01*
X7560259Y-14585081D02*
X7560259Y-14480319D01*
X7550736Y-14461271D01*
X7531688Y-14451748D01*
X7503117Y-14451748D01*
X7484069Y-14461271D01*
X7474545Y-14470795D01*
X7684069Y-14585081D02*
X7665021Y-14575557D01*
X7655498Y-14566033D01*
X7645974Y-14546986D01*
X7645974Y-14489843D01*
X7655498Y-14470795D01*
X7665021Y-14461271D01*
X7684069Y-14451748D01*
X7712640Y-14451748D01*
X7731688Y-14461271D01*
X7741212Y-14470795D01*
X7750736Y-14489843D01*
X7750736Y-14546986D01*
X7741212Y-14566033D01*
X7731688Y-14575557D01*
X7712640Y-14585081D01*
X7684069Y-14585081D01*
X7865021Y-14585081D02*
X7845974Y-14575557D01*
X7836450Y-14556510D01*
X7836450Y-14385081D01*
X8017402Y-14575557D02*
X7998355Y-14585081D01*
X7960259Y-14585081D01*
X7941212Y-14575557D01*
X7931688Y-14556510D01*
X7931688Y-14480319D01*
X7941212Y-14461271D01*
X7960259Y-14451748D01*
X7998355Y-14451748D01*
X8017402Y-14461271D01*
X8026926Y-14480319D01*
X8026926Y-14499367D01*
X7931688Y-14518414D01*
X8103117Y-14575557D02*
X8122164Y-14585081D01*
X8160259Y-14585081D01*
X8179307Y-14575557D01*
X8188831Y-14556510D01*
X8188831Y-14546986D01*
X8179307Y-14527938D01*
X8160259Y-14518414D01*
X8131688Y-14518414D01*
X8112640Y-14508891D01*
X8103117Y-14489843D01*
X8103117Y-14480319D01*
X8112640Y-14461271D01*
X8131688Y-14451748D01*
X8160259Y-14451748D01*
X8179307Y-14461271D01*
X8255498Y-14661271D02*
X8265021Y-14651748D01*
X8284069Y-14623176D01*
X8293593Y-14604129D01*
X8303117Y-14575557D01*
X8312640Y-14527938D01*
X8312640Y-14489843D01*
X8303117Y-14442224D01*
X8293593Y-14413652D01*
X8284069Y-14394605D01*
X8265021Y-14366033D01*
X8255498Y-14356510D01*
D19*
X3161117Y-14692605D02*
X3293117Y-14824605D01*
X3293117Y-14692605D02*
X3161117Y-14824605D01*
X3227117Y-14824605D02*
X3293117Y-14758605D01*
X3227117Y-14692605D01*
X3161117Y-14758605D01*
X3227117Y-14824605D01*
D11*
X3655498Y-14849081D02*
X3541212Y-14849081D01*
X3598355Y-14849081D02*
X3598355Y-14649081D01*
X3579307Y-14677652D01*
X3560259Y-14696700D01*
X3541212Y-14706224D01*
X3741212Y-14830033D02*
X3750736Y-14839557D01*
X3741212Y-14849081D01*
X3731688Y-14839557D01*
X3741212Y-14830033D01*
X3741212Y-14849081D01*
X3817402Y-14649081D02*
X3941212Y-14649081D01*
X3874545Y-14725271D01*
X3903117Y-14725271D01*
X3922164Y-14734795D01*
X3931688Y-14744319D01*
X3941212Y-14763367D01*
X3941212Y-14810986D01*
X3931688Y-14830033D01*
X3922164Y-14839557D01*
X3903117Y-14849081D01*
X3845974Y-14849081D01*
X3826926Y-14839557D01*
X3817402Y-14830033D01*
X4017402Y-14668129D02*
X4026926Y-14658605D01*
X4045974Y-14649081D01*
X4093593Y-14649081D01*
X4112640Y-14658605D01*
X4122164Y-14668129D01*
X4131688Y-14687176D01*
X4131688Y-14706224D01*
X4122164Y-14734795D01*
X4007879Y-14849081D01*
X4131688Y-14849081D01*
X4255498Y-14649081D02*
X4274545Y-14649081D01*
X4293593Y-14658605D01*
X4303117Y-14668129D01*
X4312641Y-14687176D01*
X4322164Y-14725271D01*
X4322164Y-14772891D01*
X4312641Y-14810986D01*
X4303117Y-14830033D01*
X4293593Y-14839557D01*
X4274545Y-14849081D01*
X4255498Y-14849081D01*
X4236450Y-14839557D01*
X4226926Y-14830033D01*
X4217402Y-14810986D01*
X4207879Y-14772891D01*
X4207879Y-14725271D01*
X4217402Y-14687176D01*
X4226926Y-14668129D01*
X4236450Y-14658605D01*
X4255498Y-14649081D01*
X4407879Y-14849081D02*
X4407879Y-14715748D01*
X4407879Y-14734795D02*
X4417402Y-14725271D01*
X4436450Y-14715748D01*
X4465021Y-14715748D01*
X4484069Y-14725271D01*
X4493593Y-14744319D01*
X4493593Y-14849081D01*
X4493593Y-14744319D02*
X4503117Y-14725271D01*
X4522164Y-14715748D01*
X4550736Y-14715748D01*
X4569783Y-14725271D01*
X4579307Y-14744319D01*
X4579307Y-14849081D01*
X4674545Y-14849081D02*
X4674545Y-14715748D01*
X4674545Y-14734795D02*
X4684069Y-14725271D01*
X4703117Y-14715748D01*
X4731688Y-14715748D01*
X4750736Y-14725271D01*
X4760260Y-14744319D01*
X4760260Y-14849081D01*
X4760260Y-14744319D02*
X4769783Y-14725271D01*
X4788831Y-14715748D01*
X4817402Y-14715748D01*
X4836450Y-14725271D01*
X4845974Y-14744319D01*
X4845974Y-14849081D01*
X5236450Y-14639557D02*
X5065021Y-14896700D01*
X5493593Y-14649081D02*
X5512641Y-14649081D01*
X5531688Y-14658605D01*
X5541212Y-14668129D01*
X5550736Y-14687176D01*
X5560260Y-14725271D01*
X5560260Y-14772891D01*
X5550736Y-14810986D01*
X5541212Y-14830033D01*
X5531688Y-14839557D01*
X5512641Y-14849081D01*
X5493593Y-14849081D01*
X5474545Y-14839557D01*
X5465021Y-14830033D01*
X5455498Y-14810986D01*
X5445974Y-14772891D01*
X5445974Y-14725271D01*
X5455498Y-14687176D01*
X5465021Y-14668129D01*
X5474545Y-14658605D01*
X5493593Y-14649081D01*
X5645974Y-14830033D02*
X5655498Y-14839557D01*
X5645974Y-14849081D01*
X5636450Y-14839557D01*
X5645974Y-14830033D01*
X5645974Y-14849081D01*
X5779307Y-14649081D02*
X5798355Y-14649081D01*
X5817402Y-14658605D01*
X5826926Y-14668129D01*
X5836450Y-14687176D01*
X5845974Y-14725271D01*
X5845974Y-14772891D01*
X5836450Y-14810986D01*
X5826926Y-14830033D01*
X5817402Y-14839557D01*
X5798355Y-14849081D01*
X5779307Y-14849081D01*
X5760259Y-14839557D01*
X5750736Y-14830033D01*
X5741212Y-14810986D01*
X5731688Y-14772891D01*
X5731688Y-14725271D01*
X5741212Y-14687176D01*
X5750736Y-14668129D01*
X5760259Y-14658605D01*
X5779307Y-14649081D01*
X6026926Y-14649081D02*
X5931688Y-14649081D01*
X5922164Y-14744319D01*
X5931688Y-14734795D01*
X5950736Y-14725271D01*
X5998355Y-14725271D01*
X6017402Y-14734795D01*
X6026926Y-14744319D01*
X6036450Y-14763367D01*
X6036450Y-14810986D01*
X6026926Y-14830033D01*
X6017402Y-14839557D01*
X5998355Y-14849081D01*
X5950736Y-14849081D01*
X5931688Y-14839557D01*
X5922164Y-14830033D01*
X6112640Y-14668129D02*
X6122164Y-14658605D01*
X6141212Y-14649081D01*
X6188831Y-14649081D01*
X6207879Y-14658605D01*
X6217402Y-14668129D01*
X6226926Y-14687176D01*
X6226926Y-14706224D01*
X6217402Y-14734795D01*
X6103117Y-14849081D01*
X6226926Y-14849081D01*
X6350736Y-14649081D02*
X6369783Y-14649081D01*
X6388831Y-14658605D01*
X6398355Y-14668129D01*
X6407879Y-14687176D01*
X6417402Y-14725271D01*
X6417402Y-14772891D01*
X6407879Y-14810986D01*
X6398355Y-14830033D01*
X6388831Y-14839557D01*
X6369783Y-14849081D01*
X6350736Y-14849081D01*
X6331688Y-14839557D01*
X6322164Y-14830033D01*
X6312640Y-14810986D01*
X6303117Y-14772891D01*
X6303117Y-14725271D01*
X6312640Y-14687176D01*
X6322164Y-14668129D01*
X6331688Y-14658605D01*
X6350736Y-14649081D01*
X6493593Y-14649081D02*
X6493593Y-14687176D01*
X6569783Y-14649081D02*
X6569783Y-14687176D01*
X6865021Y-14925271D02*
X6855498Y-14915748D01*
X6836450Y-14887176D01*
X6826926Y-14868129D01*
X6817402Y-14839557D01*
X6807879Y-14791938D01*
X6807879Y-14753843D01*
X6817402Y-14706224D01*
X6826926Y-14677652D01*
X6836450Y-14658605D01*
X6855498Y-14630033D01*
X6865021Y-14620510D01*
X7045974Y-14849081D02*
X6931688Y-14849081D01*
X6988831Y-14849081D02*
X6988831Y-14649081D01*
X6969783Y-14677652D01*
X6950736Y-14696700D01*
X6931688Y-14706224D01*
X7217402Y-14649081D02*
X7179307Y-14649081D01*
X7160259Y-14658605D01*
X7150736Y-14668129D01*
X7131688Y-14696700D01*
X7122164Y-14734795D01*
X7122164Y-14810986D01*
X7131688Y-14830033D01*
X7141212Y-14839557D01*
X7160259Y-14849081D01*
X7198355Y-14849081D01*
X7217402Y-14839557D01*
X7226926Y-14830033D01*
X7236450Y-14810986D01*
X7236450Y-14763367D01*
X7226926Y-14744319D01*
X7217402Y-14734795D01*
X7198355Y-14725271D01*
X7160259Y-14725271D01*
X7141212Y-14734795D01*
X7131688Y-14744319D01*
X7122164Y-14763367D01*
X7474545Y-14849081D02*
X7474545Y-14649081D01*
X7560259Y-14849081D02*
X7560259Y-14744319D01*
X7550736Y-14725271D01*
X7531688Y-14715748D01*
X7503117Y-14715748D01*
X7484069Y-14725271D01*
X7474545Y-14734795D01*
X7684069Y-14849081D02*
X7665021Y-14839557D01*
X7655498Y-14830033D01*
X7645974Y-14810986D01*
X7645974Y-14753843D01*
X7655498Y-14734795D01*
X7665021Y-14725271D01*
X7684069Y-14715748D01*
X7712640Y-14715748D01*
X7731688Y-14725271D01*
X7741212Y-14734795D01*
X7750736Y-14753843D01*
X7750736Y-14810986D01*
X7741212Y-14830033D01*
X7731688Y-14839557D01*
X7712640Y-14849081D01*
X7684069Y-14849081D01*
X7865021Y-14849081D02*
X7845974Y-14839557D01*
X7836450Y-14820510D01*
X7836450Y-14649081D01*
X8017402Y-14839557D02*
X7998355Y-14849081D01*
X7960259Y-14849081D01*
X7941212Y-14839557D01*
X7931688Y-14820510D01*
X7931688Y-14744319D01*
X7941212Y-14725271D01*
X7960259Y-14715748D01*
X7998355Y-14715748D01*
X8017402Y-14725271D01*
X8026926Y-14744319D01*
X8026926Y-14763367D01*
X7931688Y-14782414D01*
X8103117Y-14839557D02*
X8122164Y-14849081D01*
X8160259Y-14849081D01*
X8179307Y-14839557D01*
X8188831Y-14820510D01*
X8188831Y-14810986D01*
X8179307Y-14791938D01*
X8160259Y-14782414D01*
X8131688Y-14782414D01*
X8112640Y-14772891D01*
X8103117Y-14753843D01*
X8103117Y-14744319D01*
X8112640Y-14725271D01*
X8131688Y-14715748D01*
X8160259Y-14715748D01*
X8179307Y-14725271D01*
X8255498Y-14925271D02*
X8265021Y-14915748D01*
X8284069Y-14887176D01*
X8293593Y-14868129D01*
X8303117Y-14839557D01*
X8312640Y-14791938D01*
X8312640Y-14753843D01*
X8303117Y-14706224D01*
X8293593Y-14677652D01*
X8284069Y-14658605D01*
X8265021Y-14630033D01*
X8255498Y-14620510D01*
D20*
X3218117Y-14947605D02*
X3218117Y-15097605D01*
X3143117Y-15022605D02*
X3293117Y-15022605D01*
X3293117Y-15022605D02*
G75*
G03*
X3293117Y-15022605I-75000J0D01*
G01*
D11*
X3655498Y-15113081D02*
X3541212Y-15113081D01*
X3598355Y-15113081D02*
X3598355Y-14913081D01*
X3579307Y-14941652D01*
X3560259Y-14960700D01*
X3541212Y-14970224D01*
X3741212Y-15094033D02*
X3750736Y-15103557D01*
X3741212Y-15113081D01*
X3731688Y-15103557D01*
X3741212Y-15094033D01*
X3741212Y-15113081D01*
X3931688Y-14913081D02*
X3836450Y-14913081D01*
X3826926Y-15008319D01*
X3836450Y-14998795D01*
X3855498Y-14989271D01*
X3903117Y-14989271D01*
X3922164Y-14998795D01*
X3931688Y-15008319D01*
X3941212Y-15027367D01*
X3941212Y-15074986D01*
X3931688Y-15094033D01*
X3922164Y-15103557D01*
X3903117Y-15113081D01*
X3855498Y-15113081D01*
X3836450Y-15103557D01*
X3826926Y-15094033D01*
X4065021Y-14913081D02*
X4084069Y-14913081D01*
X4103117Y-14922605D01*
X4112640Y-14932129D01*
X4122164Y-14951176D01*
X4131688Y-14989271D01*
X4131688Y-15036891D01*
X4122164Y-15074986D01*
X4112640Y-15094033D01*
X4103117Y-15103557D01*
X4084069Y-15113081D01*
X4065021Y-15113081D01*
X4045974Y-15103557D01*
X4036450Y-15094033D01*
X4026926Y-15074986D01*
X4017402Y-15036891D01*
X4017402Y-14989271D01*
X4026926Y-14951176D01*
X4036450Y-14932129D01*
X4045974Y-14922605D01*
X4065021Y-14913081D01*
X4255498Y-14913081D02*
X4274545Y-14913081D01*
X4293593Y-14922605D01*
X4303117Y-14932129D01*
X4312641Y-14951176D01*
X4322164Y-14989271D01*
X4322164Y-15036891D01*
X4312641Y-15074986D01*
X4303117Y-15094033D01*
X4293593Y-15103557D01*
X4274545Y-15113081D01*
X4255498Y-15113081D01*
X4236450Y-15103557D01*
X4226926Y-15094033D01*
X4217402Y-15074986D01*
X4207879Y-15036891D01*
X4207879Y-14989271D01*
X4217402Y-14951176D01*
X4226926Y-14932129D01*
X4236450Y-14922605D01*
X4255498Y-14913081D01*
X4407879Y-15113081D02*
X4407879Y-14979748D01*
X4407879Y-14998795D02*
X4417402Y-14989271D01*
X4436450Y-14979748D01*
X4465021Y-14979748D01*
X4484069Y-14989271D01*
X4493593Y-15008319D01*
X4493593Y-15113081D01*
X4493593Y-15008319D02*
X4503117Y-14989271D01*
X4522164Y-14979748D01*
X4550736Y-14979748D01*
X4569783Y-14989271D01*
X4579307Y-15008319D01*
X4579307Y-15113081D01*
X4674545Y-15113081D02*
X4674545Y-14979748D01*
X4674545Y-14998795D02*
X4684069Y-14989271D01*
X4703117Y-14979748D01*
X4731688Y-14979748D01*
X4750736Y-14989271D01*
X4760260Y-15008319D01*
X4760260Y-15113081D01*
X4760260Y-15008319D02*
X4769783Y-14989271D01*
X4788831Y-14979748D01*
X4817402Y-14979748D01*
X4836450Y-14989271D01*
X4845974Y-15008319D01*
X4845974Y-15113081D01*
X5236450Y-14903557D02*
X5065021Y-15160700D01*
X5493593Y-14913081D02*
X5512641Y-14913081D01*
X5531688Y-14922605D01*
X5541212Y-14932129D01*
X5550736Y-14951176D01*
X5560260Y-14989271D01*
X5560260Y-15036891D01*
X5550736Y-15074986D01*
X5541212Y-15094033D01*
X5531688Y-15103557D01*
X5512641Y-15113081D01*
X5493593Y-15113081D01*
X5474545Y-15103557D01*
X5465021Y-15094033D01*
X5455498Y-15074986D01*
X5445974Y-15036891D01*
X5445974Y-14989271D01*
X5455498Y-14951176D01*
X5465021Y-14932129D01*
X5474545Y-14922605D01*
X5493593Y-14913081D01*
X5645974Y-15094033D02*
X5655498Y-15103557D01*
X5645974Y-15113081D01*
X5636450Y-15103557D01*
X5645974Y-15094033D01*
X5645974Y-15113081D01*
X5779307Y-14913081D02*
X5798355Y-14913081D01*
X5817402Y-14922605D01*
X5826926Y-14932129D01*
X5836450Y-14951176D01*
X5845974Y-14989271D01*
X5845974Y-15036891D01*
X5836450Y-15074986D01*
X5826926Y-15094033D01*
X5817402Y-15103557D01*
X5798355Y-15113081D01*
X5779307Y-15113081D01*
X5760259Y-15103557D01*
X5750736Y-15094033D01*
X5741212Y-15074986D01*
X5731688Y-15036891D01*
X5731688Y-14989271D01*
X5741212Y-14951176D01*
X5750736Y-14932129D01*
X5760259Y-14922605D01*
X5779307Y-14913081D01*
X6026926Y-14913081D02*
X5931688Y-14913081D01*
X5922164Y-15008319D01*
X5931688Y-14998795D01*
X5950736Y-14989271D01*
X5998355Y-14989271D01*
X6017402Y-14998795D01*
X6026926Y-15008319D01*
X6036450Y-15027367D01*
X6036450Y-15074986D01*
X6026926Y-15094033D01*
X6017402Y-15103557D01*
X5998355Y-15113081D01*
X5950736Y-15113081D01*
X5931688Y-15103557D01*
X5922164Y-15094033D01*
X6131688Y-15113081D02*
X6169783Y-15113081D01*
X6188831Y-15103557D01*
X6198355Y-15094033D01*
X6217402Y-15065462D01*
X6226926Y-15027367D01*
X6226926Y-14951176D01*
X6217402Y-14932129D01*
X6207879Y-14922605D01*
X6188831Y-14913081D01*
X6150736Y-14913081D01*
X6131688Y-14922605D01*
X6122164Y-14932129D01*
X6112640Y-14951176D01*
X6112640Y-14998795D01*
X6122164Y-15017843D01*
X6131688Y-15027367D01*
X6150736Y-15036891D01*
X6188831Y-15036891D01*
X6207879Y-15027367D01*
X6217402Y-15017843D01*
X6226926Y-14998795D01*
X6417402Y-15113081D02*
X6303117Y-15113081D01*
X6360259Y-15113081D02*
X6360259Y-14913081D01*
X6341212Y-14941652D01*
X6322164Y-14960700D01*
X6303117Y-14970224D01*
X6493593Y-14913081D02*
X6493593Y-14951176D01*
X6569783Y-14913081D02*
X6569783Y-14951176D01*
X6865021Y-15189271D02*
X6855498Y-15179748D01*
X6836450Y-15151176D01*
X6826926Y-15132129D01*
X6817402Y-15103557D01*
X6807879Y-15055938D01*
X6807879Y-15017843D01*
X6817402Y-14970224D01*
X6826926Y-14941652D01*
X6836450Y-14922605D01*
X6855498Y-14894033D01*
X6865021Y-14884510D01*
X7026926Y-14913081D02*
X6988831Y-14913081D01*
X6969783Y-14922605D01*
X6960259Y-14932129D01*
X6941212Y-14960700D01*
X6931688Y-14998795D01*
X6931688Y-15074986D01*
X6941212Y-15094033D01*
X6950736Y-15103557D01*
X6969783Y-15113081D01*
X7007879Y-15113081D01*
X7026926Y-15103557D01*
X7036450Y-15094033D01*
X7045974Y-15074986D01*
X7045974Y-15027367D01*
X7036450Y-15008319D01*
X7026926Y-14998795D01*
X7007879Y-14989271D01*
X6969783Y-14989271D01*
X6950736Y-14998795D01*
X6941212Y-15008319D01*
X6931688Y-15027367D01*
X7284069Y-15113081D02*
X7284069Y-14913081D01*
X7369783Y-15113081D02*
X7369783Y-15008319D01*
X7360259Y-14989271D01*
X7341212Y-14979748D01*
X7312640Y-14979748D01*
X7293593Y-14989271D01*
X7284069Y-14998795D01*
X7493593Y-15113081D02*
X7474545Y-15103557D01*
X7465021Y-15094033D01*
X7455498Y-15074986D01*
X7455498Y-15017843D01*
X7465021Y-14998795D01*
X7474545Y-14989271D01*
X7493593Y-14979748D01*
X7522164Y-14979748D01*
X7541212Y-14989271D01*
X7550736Y-14998795D01*
X7560259Y-15017843D01*
X7560259Y-15074986D01*
X7550736Y-15094033D01*
X7541212Y-15103557D01*
X7522164Y-15113081D01*
X7493593Y-15113081D01*
X7674545Y-15113081D02*
X7655498Y-15103557D01*
X7645974Y-15084510D01*
X7645974Y-14913081D01*
X7826926Y-15103557D02*
X7807879Y-15113081D01*
X7769783Y-15113081D01*
X7750736Y-15103557D01*
X7741212Y-15084510D01*
X7741212Y-15008319D01*
X7750736Y-14989271D01*
X7769783Y-14979748D01*
X7807879Y-14979748D01*
X7826926Y-14989271D01*
X7836450Y-15008319D01*
X7836450Y-15027367D01*
X7741212Y-15046414D01*
X7912640Y-15103557D02*
X7931688Y-15113081D01*
X7969783Y-15113081D01*
X7988831Y-15103557D01*
X7998355Y-15084510D01*
X7998355Y-15074986D01*
X7988831Y-15055938D01*
X7969783Y-15046414D01*
X7941212Y-15046414D01*
X7922164Y-15036891D01*
X7912640Y-15017843D01*
X7912640Y-15008319D01*
X7922164Y-14989271D01*
X7941212Y-14979748D01*
X7969783Y-14979748D01*
X7988831Y-14989271D01*
X8065021Y-15189271D02*
X8074545Y-15179748D01*
X8093593Y-15151176D01*
X8103117Y-15132129D01*
X8112640Y-15103557D01*
X8122164Y-15055938D01*
X8122164Y-15017843D01*
X8112640Y-14970224D01*
X8103117Y-14941652D01*
X8093593Y-14922605D01*
X8074545Y-14894033D01*
X8065021Y-14884510D01*
M02*
