G04 #@! TF.GenerationSoftware,KiCad,Pcbnew,(6.0.7)*
G04 #@! TF.CreationDate,2022-10-09T19:58:45-04:00*
G04 #@! TF.ProjectId,mh-custom-v2,6d682d63-7573-4746-9f6d-2d76322e6b69,rev?*
G04 #@! TF.SameCoordinates,Original*
G04 #@! TF.FileFunction,Paste,Top*
G04 #@! TF.FilePolarity,Positive*
%FSLAX46Y46*%
G04 Gerber Fmt 4.6, Leading zero omitted, Abs format (unit mm)*
G04 Created by KiCad (PCBNEW (6.0.7)) date 2022-10-09 19:58:45*
%MOMM*%
%LPD*%
G01*
G04 APERTURE LIST*
G04 Aperture macros list*
%AMRoundRect*
0 Rectangle with rounded corners*
0 $1 Rounding radius*
0 $2 $3 $4 $5 $6 $7 $8 $9 X,Y pos of 4 corners*
0 Add a 4 corners polygon primitive as box body*
4,1,4,$2,$3,$4,$5,$6,$7,$8,$9,$2,$3,0*
0 Add four circle primitives for the rounded corners*
1,1,$1+$1,$2,$3*
1,1,$1+$1,$4,$5*
1,1,$1+$1,$6,$7*
1,1,$1+$1,$8,$9*
0 Add four rect primitives between the rounded corners*
20,1,$1+$1,$2,$3,$4,$5,0*
20,1,$1+$1,$4,$5,$6,$7,0*
20,1,$1+$1,$6,$7,$8,$9,0*
20,1,$1+$1,$8,$9,$2,$3,0*%
G04 Aperture macros list end*
%ADD10RoundRect,0.218750X0.218750X0.256250X-0.218750X0.256250X-0.218750X-0.256250X0.218750X-0.256250X0*%
%ADD11RoundRect,0.200000X-0.200000X-0.275000X0.200000X-0.275000X0.200000X0.275000X-0.200000X0.275000X0*%
%ADD12RoundRect,0.200000X-0.053033X0.335876X-0.335876X0.053033X0.053033X-0.335876X0.335876X-0.053033X0*%
%ADD13RoundRect,0.200000X-0.275000X0.200000X-0.275000X-0.200000X0.275000X-0.200000X0.275000X0.200000X0*%
%ADD14RoundRect,0.200000X0.200000X0.275000X-0.200000X0.275000X-0.200000X-0.275000X0.200000X-0.275000X0*%
%ADD15RoundRect,0.218750X-0.256250X0.218750X-0.256250X-0.218750X0.256250X-0.218750X0.256250X0.218750X0*%
%ADD16RoundRect,0.200000X0.275000X-0.200000X0.275000X0.200000X-0.275000X0.200000X-0.275000X-0.200000X0*%
%ADD17RoundRect,0.218750X0.256250X-0.218750X0.256250X0.218750X-0.256250X0.218750X-0.256250X-0.218750X0*%
%ADD18RoundRect,0.250000X0.000000X-0.544472X0.544472X0.000000X0.000000X0.544472X-0.544472X0.000000X0*%
%ADD19RoundRect,0.062500X-0.238649X-0.327037X0.327037X0.238649X0.238649X0.327037X-0.327037X-0.238649X0*%
%ADD20RoundRect,0.062500X0.238649X-0.327037X0.327037X-0.238649X-0.238649X0.327037X-0.327037X0.238649X0*%
%ADD21RoundRect,0.150000X-0.150000X0.587500X-0.150000X-0.587500X0.150000X-0.587500X0.150000X0.587500X0*%
%ADD22RoundRect,0.218750X-0.218750X-0.256250X0.218750X-0.256250X0.218750X0.256250X-0.218750X0.256250X0*%
%ADD23R,2.000000X1.500000*%
%ADD24R,2.000000X3.800000*%
%ADD25R,1.250000X0.760000*%
%ADD26R,1.800000X2.500000*%
%ADD27RoundRect,0.200000X0.053033X-0.335876X0.335876X-0.053033X-0.053033X0.335876X-0.335876X0.053033X0*%
%ADD28RoundRect,0.150000X-0.587500X-0.150000X0.587500X-0.150000X0.587500X0.150000X-0.587500X0.150000X0*%
G04 APERTURE END LIST*
D10*
X57617500Y-27750000D03*
X56042500Y-27750000D03*
D11*
X58120000Y-83340000D03*
X59770000Y-83340000D03*
D12*
X42478363Y-40786637D03*
X41311637Y-41953363D03*
D13*
X58745000Y-100035000D03*
X58745000Y-101685000D03*
D14*
X42540000Y-58020000D03*
X40890000Y-58020000D03*
D13*
X75455000Y-68135000D03*
X75455000Y-69785000D03*
D10*
X48752500Y-94590000D03*
X47177500Y-94590000D03*
D15*
X57672500Y-94712500D03*
X57672500Y-96287500D03*
D10*
X41972500Y-88680000D03*
X40397500Y-88680000D03*
D13*
X75455000Y-64965000D03*
X75455000Y-66615000D03*
D16*
X48812200Y-71942000D03*
X48812200Y-70292000D03*
D14*
X43680000Y-60930000D03*
X42030000Y-60930000D03*
D10*
X55142500Y-94570000D03*
X53567500Y-94570000D03*
D17*
X44175000Y-82387500D03*
X44175000Y-80812500D03*
D14*
X78110000Y-102210000D03*
X76460000Y-102210000D03*
D13*
X67145000Y-96240000D03*
X67145000Y-97890000D03*
X65267500Y-96250000D03*
X65267500Y-97900000D03*
D18*
X50558387Y-77089664D03*
X48338071Y-77089664D03*
X49448229Y-78199822D03*
X49448229Y-75979506D03*
D19*
X46699351Y-77717221D03*
X47052905Y-78070775D03*
X47406458Y-78424328D03*
X47760012Y-78777881D03*
X48113565Y-79131435D03*
X48467118Y-79484988D03*
X48820672Y-79838542D03*
D20*
X50075786Y-79838542D03*
X50429340Y-79484988D03*
X50782893Y-79131435D03*
X51136446Y-78777881D03*
X51490000Y-78424328D03*
X51843553Y-78070775D03*
X52197107Y-77717221D03*
D19*
X52197107Y-76462107D03*
X51843553Y-76108553D03*
X51490000Y-75755000D03*
X51136446Y-75401447D03*
X50782893Y-75047893D03*
X50429340Y-74694340D03*
X50075786Y-74340786D03*
D20*
X48820672Y-74340786D03*
X48467118Y-74694340D03*
X48113565Y-75047893D03*
X47760012Y-75401447D03*
X47406458Y-75755000D03*
X47052905Y-76108553D03*
X46699351Y-76462107D03*
D13*
X52285000Y-96375000D03*
X52285000Y-98025000D03*
D16*
X63695000Y-75685000D03*
X63695000Y-74035000D03*
D17*
X46155000Y-66267500D03*
X46155000Y-64692500D03*
D21*
X60655000Y-53962500D03*
X58755000Y-53962500D03*
X59705000Y-55837500D03*
D16*
X66355000Y-75685000D03*
X66355000Y-74035000D03*
D17*
X50245000Y-88017500D03*
X50245000Y-86442500D03*
D16*
X38410000Y-92950000D03*
X38410000Y-91300000D03*
D13*
X40620000Y-91300000D03*
X40620000Y-92950000D03*
D16*
X50732200Y-71932000D03*
X50732200Y-70282000D03*
D13*
X75495000Y-80865000D03*
X75495000Y-82515000D03*
D22*
X57397500Y-76460000D03*
X58972500Y-76460000D03*
D17*
X60015000Y-66267500D03*
X60015000Y-64692500D03*
D23*
X60225000Y-74310000D03*
D24*
X53925000Y-72010000D03*
D23*
X60225000Y-72010000D03*
X60225000Y-69710000D03*
D11*
X58870000Y-51800000D03*
X60520000Y-51800000D03*
D15*
X56915000Y-100052500D03*
X56915000Y-101627500D03*
D16*
X44195000Y-79335000D03*
X44195000Y-77685000D03*
D13*
X75495000Y-84525000D03*
X75495000Y-86175000D03*
D16*
X50122500Y-98025000D03*
X50122500Y-96375000D03*
D10*
X55142500Y-89670000D03*
X53567500Y-89670000D03*
D25*
X46950000Y-35130000D03*
X46950000Y-33860000D03*
X46950000Y-32590000D03*
X46950000Y-31320000D03*
X40800000Y-31320000D03*
X40800000Y-32590000D03*
X40800000Y-33860000D03*
X40800000Y-35130000D03*
D16*
X45372800Y-72062000D03*
X45372800Y-70412000D03*
D26*
X76485000Y-55570000D03*
X76485000Y-59570000D03*
D13*
X40620000Y-96225000D03*
X40620000Y-97875000D03*
D11*
X58120000Y-81500000D03*
X59770000Y-81500000D03*
D26*
X76485000Y-72910000D03*
X76485000Y-76910000D03*
D10*
X43572500Y-94587500D03*
X41997500Y-94587500D03*
D21*
X43805000Y-65452500D03*
X41905000Y-65452500D03*
X42855000Y-67327500D03*
D17*
X45395000Y-92947500D03*
X45395000Y-91372500D03*
D11*
X40890000Y-51660000D03*
X42540000Y-51660000D03*
D17*
X55475000Y-79367500D03*
X55475000Y-77792500D03*
D11*
X65420000Y-94360000D03*
X67070000Y-94360000D03*
D27*
X41211637Y-39283363D03*
X42378363Y-38116637D03*
D13*
X52295000Y-91307500D03*
X52295000Y-92957500D03*
D21*
X42665000Y-53902500D03*
X40765000Y-53902500D03*
X41715000Y-55777500D03*
D15*
X49448229Y-82287500D03*
X49448229Y-83862500D03*
D28*
X77737500Y-68050000D03*
X77737500Y-69950000D03*
X79612500Y-69000000D03*
D22*
X76517500Y-103990000D03*
X78092500Y-103990000D03*
X43507500Y-27750000D03*
X45082500Y-27750000D03*
D11*
X42030000Y-63065000D03*
X43680000Y-63065000D03*
D14*
X60520000Y-57960000D03*
X58870000Y-57960000D03*
D28*
X59417500Y-85100000D03*
X59417500Y-87000000D03*
X61292500Y-86050000D03*
X77810000Y-84400000D03*
X77810000Y-86300000D03*
X79685000Y-85350000D03*
D16*
X50122500Y-92965000D03*
X50122500Y-91315000D03*
D14*
X62210000Y-98380000D03*
X60560000Y-98380000D03*
D16*
X38410000Y-97875000D03*
X38410000Y-96225000D03*
D10*
X41972500Y-86538965D03*
X40397500Y-86538965D03*
X37037500Y-94587500D03*
X35462500Y-94587500D03*
M02*
