M48
; DRILL file {KiCad (6.0.7)} date Sun Oct  9 19:58:48 2022
; FORMAT={-:-/ absolute / inch / decimal}
; #@! TF.CreationDate,2022-10-09T19:58:48-04:00
; #@! TF.GenerationSoftware,Kicad,Pcbnew,(6.0.7)
; #@! TF.FileFunction,Plated,1,2,PTH
FMAT,2
INCH
; #@! TA.AperFunction,Plated,PTH,ViaDrill
T1C0.0157
; #@! TA.AperFunction,Plated,PTH,ComponentDrill
T2C0.0157
; #@! TA.AperFunction,Plated,PTH,ComponentDrill
T3C0.0276
; #@! TA.AperFunction,Plated,PTH,ComponentDrill
T4C0.0295
; #@! TA.AperFunction,Plated,PTH,ComponentDrill
T5C0.0315
; #@! TA.AperFunction,Plated,PTH,ComponentDrill
T6C0.0394
; #@! TA.AperFunction,Plated,PTH,ComponentDrill
T7C0.0433
; #@! TA.AperFunction,Plated,PTH,ComponentDrill
T8C0.0512
; #@! TA.AperFunction,Plated,PTH,ComponentDrill
T9C0.0520
; #@! TA.AperFunction,Plated,PTH,ComponentDrill
T10C0.0591
%
G90
G05
T1
X1.3258Y-3.6272
X1.4453Y-2.8695
X1.5513Y-2.8985
X1.5856Y-1.737
X1.5956Y-1.9819
X1.6063Y-2.6565
X1.7545Y-2.5227
X1.7805Y-3.0157
X1.7829Y-3.7756
X1.8144Y-3.1331
X1.869Y-2.7644
X1.8691Y-2.8048
X1.9453Y-2.8935
X1.9468Y-3.1697
X2.0954Y-3.0664
X2.1069Y-2.9541
X2.1663Y-3.9299
X2.2663Y-2.5755
X2.3093Y-3.8547
X2.388Y-3.0457
X2.4243Y-1.2035
X2.4364Y-3.0035
X2.4429Y-3.0809
X2.5473Y-2.8375
X2.7179Y-2.9228
X2.7893Y-3.4785
X2.9132Y-2.7087
X2.9695Y-2.4929
X3.0112Y-2.4606
T3
X2.8537Y-1.6992
X2.8537Y-1.9992
X4.1537Y-1.3992
X4.1537Y-1.9992
T4
X1.4431Y-2.9539
X1.4431Y-3.1917
X1.5219Y-2.9539
X1.5219Y-3.1917
X1.6006Y-2.9539
X1.6006Y-3.1917
X2.5435Y-3.1256
X2.5435Y-3.2043
X2.5435Y-3.2831
X2.5435Y-3.3618
X2.8041Y-3.1256
X2.8041Y-3.2043
X2.8041Y-3.2831
X2.8041Y-3.3618
X2.8053Y-2.2409
X2.8053Y-2.3197
X2.8053Y-2.5323
X2.8053Y-2.611
X2.8053Y-2.6898
X2.8053Y-2.7685
X2.8053Y-2.8472
X2.8053Y-2.926
T5
X1.4297Y-3.4043
X1.4297Y-3.4831
X1.8219Y-3.4091
X1.8219Y-3.4878
X1.9943Y-2.5787
X2.1864Y-2.5787
X2.3341Y-3.5681
X2.4128Y-3.5681
X2.5967Y-3.5311
X2.5967Y-3.6098
T6
X1.3961Y-0.9892
X1.3961Y-1.0892
X1.3961Y-1.1892
X1.3961Y-1.2892
X1.3961Y-1.3892
X1.3961Y-1.4892
X1.3961Y-1.5892
X1.3961Y-1.6892
X1.3961Y-1.7892
X1.3961Y-1.8892
X1.3961Y-1.9892
X1.3961Y-2.0892
X1.3961Y-2.1892
X1.3961Y-2.2892
X1.3961Y-2.3892
X1.3961Y-2.4892
X1.3961Y-2.5892
X1.3961Y-2.6892
X1.3961Y-2.7892
X1.4961Y-0.9892
X1.4961Y-1.0892
X1.4961Y-1.1892
X1.4961Y-1.2892
X1.4961Y-1.3892
X1.4961Y-1.4892
X1.4961Y-1.5892
X1.4961Y-1.6892
X1.4961Y-1.7892
X1.4961Y-1.8892
X1.4961Y-1.9892
X1.4961Y-2.0892
X1.4961Y-2.1892
X1.4961Y-2.2892
X1.4961Y-2.3892
X1.4961Y-2.4892
X1.4961Y-2.5892
X1.4961Y-2.6892
X1.4961Y-2.7892
X1.5289Y-3.9611
X1.6289Y-3.9611
X1.6939Y-0.9872
X1.7939Y-0.9872
X1.9551Y-3.9614
X2.0551Y-3.9614
X2.1874Y-0.9892
X2.2874Y-0.9892
X2.4961Y-0.9892
X2.4961Y-1.0892
X2.4961Y-1.1892
X2.4961Y-1.2892
X2.4961Y-1.3892
X2.4961Y-1.4892
X2.4961Y-1.5892
X2.4961Y-1.6892
X2.4961Y-1.7892
X2.4961Y-1.8892
X2.4961Y-1.9892
X2.4961Y-2.0892
X2.4961Y-2.1892
X2.4961Y-2.2892
X2.4961Y-2.3892
X2.4961Y-2.4892
X2.4961Y-2.5892
X2.4961Y-2.6892
X2.4961Y-2.7892
X2.5535Y-3.963
X2.5961Y-0.9892
X2.5961Y-1.0892
X2.5961Y-1.1892
X2.5961Y-1.2892
X2.5961Y-1.3892
X2.5961Y-1.4892
X2.5961Y-1.5892
X2.5961Y-1.6892
X2.5961Y-1.7892
X2.5961Y-1.8892
X2.5961Y-1.9892
X2.5961Y-2.0892
X2.5961Y-2.1892
X2.5961Y-2.2892
X2.5961Y-2.3892
X2.5961Y-2.4892
X2.5961Y-2.5892
X2.5961Y-2.6892
X2.5961Y-2.7892
X2.6535Y-3.963
X2.9219Y-3.587
X2.9219Y-3.8862
X3.3254Y-2.2075
X3.3254Y-2.6799
X3.3254Y-2.8902
X3.3254Y-3.3626
T7
X2.79Y-1.065
X2.89Y-1.065
X2.99Y-1.065
T8
X3.2486Y-2.4417
X3.2486Y-3.1244
X3.4636Y-3.637
X3.4656Y-4.1606
X3.7156Y-3.639
X3.7156Y-4.1606
X3.8057Y-2.6799
X3.8057Y-3.3626
X3.8077Y-2.2055
X3.8077Y-2.8882
X3.9636Y-3.637
X3.9636Y-4.1606
X4.1309Y-4.1606
X4.1329Y-3.637
T9
X4.6526Y-1.3085
X4.6526Y-1.5053
X4.6526Y-1.7022
X4.6526Y-1.899
X4.6526Y-2.0959
X4.6526Y-2.2927
X4.6526Y-2.4896
X4.6526Y-2.6864
X4.6526Y-2.8833
X4.6526Y-3.0801
X4.6526Y-3.277
X4.6526Y-3.4738
X4.6526Y-3.6707
X4.6526Y-3.8675
X4.6526Y-4.0644
X4.6526Y-4.2612
T10
X3.3569Y-1.0098
X3.3604Y-4.5358
X4.1893Y-2.3184
X4.1893Y-3.2081
X4.2467Y-1.0098
X4.2502Y-4.5358
T2
G00X1.3575Y-4.1345
M15
G01X1.3575Y-4.1739
M16
G05
G00X1.4559Y-4.1345
M15
G01X1.4559Y-4.1739
M16
G05
G00X1.5346Y-4.3511
M15
G01X1.574Y-4.3511
M16
G05
G00X1.6528Y-4.1739
M15
G01X1.6528Y-4.1345
M16
G05
G00X1.7512Y-4.1739
M15
G01X1.7512Y-4.1345
M16
G05
G00X1.8559Y-4.1345
M15
G01X1.8559Y-4.1739
M16
G05
G00X1.9543Y-4.1345
M15
G01X1.9543Y-4.1739
M16
G05
G00X2.0331Y-4.3511
M15
G01X2.0724Y-4.3511
M16
G05
G00X2.1512Y-4.1739
M15
G01X2.1512Y-4.1345
M16
G05
G00X2.2496Y-4.1739
M15
G01X2.2496Y-4.1345
M16
G05
G00X2.3575Y-4.1345
M15
G01X2.3575Y-4.1739
M16
G05
G00X2.4559Y-4.1345
M15
G01X2.4559Y-4.1739
M16
G05
G00X2.5346Y-4.3511
M15
G01X2.574Y-4.3511
M16
G05
G00X2.6528Y-4.1739
M15
G01X2.6528Y-4.1345
M16
G05
G00X2.7512Y-4.1739
M15
G01X2.7512Y-4.1345
M16
G05
T0
M30
