G04 #@! TF.GenerationSoftware,KiCad,Pcbnew,(6.0.7)*
G04 #@! TF.CreationDate,2022-10-04T21:38:46-04:00*
G04 #@! TF.ProjectId,mh-custom-v2,6d682d63-7573-4746-9f6d-2d76322e6b69,rev?*
G04 #@! TF.SameCoordinates,Original*
G04 #@! TF.FileFunction,Soldermask,Top*
G04 #@! TF.FilePolarity,Negative*
%FSLAX46Y46*%
G04 Gerber Fmt 4.6, Leading zero omitted, Abs format (unit mm)*
G04 Created by KiCad (PCBNEW (6.0.7)) date 2022-10-04 21:38:46*
%MOMM*%
%LPD*%
G01*
G04 APERTURE LIST*
G04 Aperture macros list*
%AMRoundRect*
0 Rectangle with rounded corners*
0 $1 Rounding radius*
0 $2 $3 $4 $5 $6 $7 $8 $9 X,Y pos of 4 corners*
0 Add a 4 corners polygon primitive as box body*
4,1,4,$2,$3,$4,$5,$6,$7,$8,$9,$2,$3,0*
0 Add four circle primitives for the rounded corners*
1,1,$1+$1,$2,$3*
1,1,$1+$1,$4,$5*
1,1,$1+$1,$6,$7*
1,1,$1+$1,$8,$9*
0 Add four rect primitives between the rounded corners*
20,1,$1+$1,$2,$3,$4,$5,0*
20,1,$1+$1,$4,$5,$6,$7,0*
20,1,$1+$1,$6,$7,$8,$9,0*
20,1,$1+$1,$8,$9,$2,$3,0*%
%AMRotRect*
0 Rectangle, with rotation*
0 The origin of the aperture is its center*
0 $1 length*
0 $2 width*
0 $3 Rotation angle, in degrees counterclockwise*
0 Add horizontal line*
21,1,$1,$2,0,0,$3*%
%AMFreePoly0*
4,1,22,0.500000,-0.750000,0.000000,-0.750000,0.000000,-0.745033,-0.079941,-0.743568,-0.215256,-0.701293,-0.333266,-0.622738,-0.424486,-0.514219,-0.481581,-0.384460,-0.499164,-0.250000,-0.500000,-0.250000,-0.500000,0.250000,-0.499164,0.250000,-0.499963,0.256109,-0.478152,0.396186,-0.417904,0.524511,-0.324060,0.630769,-0.204165,0.706417,-0.067858,0.745374,0.000000,0.744959,0.000000,0.750000,
0.500000,0.750000,0.500000,-0.750000,0.500000,-0.750000,$1*%
%AMFreePoly1*
4,1,20,0.000000,0.744959,0.073905,0.744508,0.209726,0.703889,0.328688,0.626782,0.421226,0.519385,0.479903,0.390333,0.500000,0.250000,0.500000,-0.250000,0.499851,-0.262216,0.476331,-0.402017,0.414519,-0.529596,0.319384,-0.634700,0.198574,-0.708877,0.061801,-0.746166,0.000000,-0.745033,0.000000,-0.750000,-0.500000,-0.750000,-0.500000,0.750000,0.000000,0.750000,0.000000,0.744959,
0.000000,0.744959,$1*%
G04 Aperture macros list end*
%ADD10R,2.000000X2.000000*%
%ADD11C,2.000000*%
%ADD12C,3.000000*%
%ADD13O,1.200000X2.200000*%
%ADD14O,2.200000X1.200000*%
%ADD15R,1.700000X1.700000*%
%ADD16O,1.700000X1.700000*%
%ADD17RoundRect,0.218750X0.218750X0.256250X-0.218750X0.256250X-0.218750X-0.256250X0.218750X-0.256250X0*%
%ADD18RoundRect,0.200000X-0.200000X-0.275000X0.200000X-0.275000X0.200000X0.275000X-0.200000X0.275000X0*%
%ADD19RoundRect,0.200000X-0.275000X0.200000X-0.275000X-0.200000X0.275000X-0.200000X0.275000X0.200000X0*%
%ADD20FreePoly0,90.000000*%
%ADD21FreePoly1,90.000000*%
%ADD22RoundRect,0.200000X0.200000X0.275000X-0.200000X0.275000X-0.200000X-0.275000X0.200000X-0.275000X0*%
%ADD23FreePoly0,180.000000*%
%ADD24FreePoly1,180.000000*%
%ADD25RoundRect,0.250000X0.625000X-0.350000X0.625000X0.350000X-0.625000X0.350000X-0.625000X-0.350000X0*%
%ADD26O,1.750000X1.200000*%
%ADD27R,3.960000X1.980000*%
%ADD28O,3.960000X1.980000*%
%ADD29RoundRect,0.218750X-0.218750X-0.256250X0.218750X-0.256250X0.218750X0.256250X-0.218750X0.256250X0*%
%ADD30C,2.500000*%
%ADD31FreePoly0,0.000000*%
%ADD32FreePoly1,0.000000*%
%ADD33R,1.600000X1.600000*%
%ADD34C,1.600000*%
%ADD35RoundRect,0.200000X0.275000X-0.200000X0.275000X0.200000X-0.275000X0.200000X-0.275000X-0.200000X0*%
%ADD36RoundRect,0.750000X-0.750000X0.750000X-0.750000X-0.750000X0.750000X-0.750000X0.750000X0.750000X0*%
%ADD37RoundRect,0.062500X-0.238649X-0.327037X0.327037X0.238649X0.238649X0.327037X-0.327037X-0.238649X0*%
%ADD38RoundRect,0.062500X0.238649X-0.327037X0.327037X-0.238649X-0.238649X0.327037X-0.327037X0.238649X0*%
%ADD39RotRect,3.140000X3.140000X45.000000*%
%ADD40C,1.500000*%
%ADD41RoundRect,0.150000X-0.150000X0.587500X-0.150000X-0.587500X0.150000X-0.587500X0.150000X0.587500X0*%
%ADD42RoundRect,0.218750X-0.256250X0.218750X-0.256250X-0.218750X0.256250X-0.218750X0.256250X0.218750X0*%
%ADD43C,3.500000*%
%ADD44R,1.250000X0.760000*%
%ADD45R,2.500000X1.800000*%
%ADD46FreePoly0,270.000000*%
%ADD47FreePoly1,270.000000*%
%ADD48RoundRect,0.250000X-0.625000X0.350000X-0.625000X-0.350000X0.625000X-0.350000X0.625000X0.350000X0*%
%ADD49RoundRect,0.150000X-0.587500X-0.150000X0.587500X-0.150000X0.587500X0.150000X-0.587500X0.150000X0*%
%ADD50R,2.100000X2.100000*%
%ADD51C,2.100000*%
%ADD52RoundRect,0.218750X0.256250X-0.218750X0.256250X0.218750X-0.256250X0.218750X-0.256250X-0.218750X0*%
G04 APERTURE END LIST*
D10*
X72605000Y-98490000D03*
D11*
X72605000Y-90890000D03*
D12*
X85225000Y-115210000D03*
X107825000Y-115210000D03*
X106409000Y-59017000D03*
X106409000Y-81617000D03*
X85225000Y-25675000D03*
X107825000Y-25675000D03*
D13*
X59880000Y-105517000D03*
X62380000Y-105517000D03*
D14*
X64880000Y-110517000D03*
D13*
X69880000Y-105517000D03*
X67380000Y-105517000D03*
X47139500Y-105517000D03*
X49639500Y-105517000D03*
D14*
X52139500Y-110517000D03*
D13*
X57139500Y-105517000D03*
X54639500Y-105517000D03*
X34480000Y-105517000D03*
X36980000Y-105517000D03*
D14*
X39480000Y-110517000D03*
D13*
X44480000Y-105517000D03*
X41980000Y-105517000D03*
D15*
X58100000Y-25125000D03*
D16*
X55560000Y-25125000D03*
D17*
X57617500Y-27750000D03*
X56042500Y-27750000D03*
D18*
X67340000Y-86300000D03*
X68990000Y-86300000D03*
D19*
X40650000Y-40650000D03*
X40650000Y-42300000D03*
D20*
X40460000Y-93635000D03*
D21*
X40460000Y-92335000D03*
D20*
X34835000Y-88710000D03*
D21*
X34835000Y-87410000D03*
D19*
X54515000Y-92975000D03*
X54515000Y-94625000D03*
D20*
X43352000Y-93882500D03*
D21*
X43352000Y-92582500D03*
D22*
X42550000Y-69810000D03*
X40900000Y-69810000D03*
D19*
X74550000Y-68270000D03*
X74550000Y-69920000D03*
D17*
X46819500Y-95682500D03*
X45244500Y-95682500D03*
D15*
X38000000Y-25125000D03*
D16*
X35460000Y-25125000D03*
X38000000Y-27665000D03*
X35460000Y-27665000D03*
X38000000Y-30205000D03*
X35460000Y-30205000D03*
X38000000Y-32745000D03*
X35460000Y-32745000D03*
X38000000Y-35285000D03*
X35460000Y-35285000D03*
X38000000Y-37825000D03*
X35460000Y-37825000D03*
X38000000Y-40365000D03*
X35460000Y-40365000D03*
X38000000Y-42905000D03*
X35460000Y-42905000D03*
X38000000Y-45445000D03*
X35460000Y-45445000D03*
X38000000Y-47985000D03*
X35460000Y-47985000D03*
X38000000Y-50525000D03*
X35460000Y-50525000D03*
X38000000Y-53065000D03*
X35460000Y-53065000D03*
X38000000Y-55605000D03*
X35460000Y-55605000D03*
X38000000Y-58145000D03*
X35460000Y-58145000D03*
X38000000Y-60685000D03*
X35460000Y-60685000D03*
X38000000Y-63225000D03*
X35460000Y-63225000D03*
X38000000Y-65765000D03*
X35460000Y-65765000D03*
X38000000Y-68305000D03*
X35460000Y-68305000D03*
X38000000Y-70845000D03*
X35460000Y-70845000D03*
D20*
X40460000Y-88710000D03*
D21*
X40460000Y-87410000D03*
D23*
X52615000Y-93570000D03*
D24*
X51315000Y-93570000D03*
D25*
X70450000Y-59125000D03*
D26*
X70450000Y-57125000D03*
D27*
X118175000Y-108225000D03*
D28*
X118175000Y-103225000D03*
X118175000Y-98225000D03*
X118175000Y-93225000D03*
D20*
X43205000Y-97290000D03*
D21*
X43205000Y-95990000D03*
D29*
X58007500Y-93040000D03*
X59582500Y-93040000D03*
D12*
X82515000Y-62020000D03*
D30*
X84465000Y-68070000D03*
D12*
X96665000Y-68070000D03*
X96715000Y-56020000D03*
D30*
X84465000Y-56070000D03*
D17*
X36872500Y-85585000D03*
X35297500Y-85585000D03*
D15*
X43025000Y-25075000D03*
D16*
X45565000Y-25075000D03*
D31*
X54755000Y-96620000D03*
D32*
X56055000Y-96620000D03*
D33*
X41915000Y-81194887D03*
D34*
X41915000Y-83194887D03*
D19*
X74550000Y-65250000D03*
X74550000Y-66900000D03*
D35*
X49112998Y-71650000D03*
X49112998Y-70000000D03*
D36*
X88025000Y-105680000D03*
X87975000Y-92380000D03*
D12*
X94375000Y-105680000D03*
X94375000Y-92430000D03*
X100675000Y-105680000D03*
X100675000Y-92380000D03*
X104925000Y-105680000D03*
X104975000Y-92380000D03*
D17*
X49884500Y-95682500D03*
X48309500Y-95682500D03*
D27*
X118175000Y-48225000D03*
D28*
X118175000Y-43225000D03*
X118175000Y-38225000D03*
X118175000Y-33225000D03*
D15*
X37520000Y-98360000D03*
D16*
X40060000Y-98360000D03*
D29*
X40851500Y-71717000D03*
X42426500Y-71717000D03*
D27*
X118175000Y-68225000D03*
D28*
X118175000Y-63225000D03*
X118175000Y-58225000D03*
X118175000Y-53225000D03*
D19*
X78175000Y-28524000D03*
X78175000Y-30174000D03*
D27*
X118175000Y-88225000D03*
D28*
X118175000Y-83225000D03*
X118175000Y-78225000D03*
X118175000Y-73225000D03*
D19*
X62805000Y-94125000D03*
X62805000Y-95775000D03*
X61235000Y-94125000D03*
X61235000Y-95775000D03*
D37*
X42470122Y-77639715D03*
X42823676Y-77993269D03*
X43177229Y-78346822D03*
X43530783Y-78700375D03*
X43884336Y-79053929D03*
X44237889Y-79407482D03*
X44591443Y-79761036D03*
D38*
X45846557Y-79761036D03*
X46200111Y-79407482D03*
X46553664Y-79053929D03*
X46907217Y-78700375D03*
X47260771Y-78346822D03*
X47614324Y-77993269D03*
X47967878Y-77639715D03*
D37*
X47967878Y-76384601D03*
X47614324Y-76031047D03*
X47260771Y-75677494D03*
X46907217Y-75323941D03*
X46553664Y-74970387D03*
X46200111Y-74616834D03*
X45846557Y-74263280D03*
D38*
X44591443Y-74263280D03*
X44237889Y-74616834D03*
X43884336Y-74970387D03*
X43530783Y-75323941D03*
X43177229Y-75677494D03*
X42823676Y-76031047D03*
X42470122Y-76384601D03*
D39*
X45219000Y-77012158D03*
D18*
X51320000Y-95690000D03*
X52970000Y-95690000D03*
D22*
X59325000Y-73670000D03*
X57675000Y-73670000D03*
D40*
X53055000Y-64770000D03*
X48175000Y-64770000D03*
D23*
X59425000Y-95150000D03*
D24*
X58125000Y-95150000D03*
D29*
X52408500Y-71971000D03*
X53983500Y-71971000D03*
D41*
X60455000Y-67542500D03*
X58555000Y-67542500D03*
X59505000Y-69417500D03*
D18*
X64175000Y-73650000D03*
X65825000Y-73650000D03*
D17*
X45402500Y-90770000D03*
X43827500Y-90770000D03*
D35*
X36885000Y-88885000D03*
X36885000Y-87235000D03*
D33*
X44635000Y-86070000D03*
D34*
X44635000Y-88070000D03*
D19*
X38410000Y-87235000D03*
X38410000Y-88885000D03*
D35*
X50645664Y-71650000D03*
X50645664Y-70000000D03*
D15*
X48855000Y-98360000D03*
D16*
X51395000Y-98360000D03*
D19*
X68575000Y-77550000D03*
X68575000Y-79200000D03*
D42*
X49435000Y-79322500D03*
X49435000Y-80897500D03*
D15*
X60510000Y-98360000D03*
D16*
X63050000Y-98360000D03*
D20*
X48977000Y-93882500D03*
D21*
X48977000Y-92582500D03*
D29*
X52408500Y-73622000D03*
X53983500Y-73622000D03*
D18*
X58680000Y-65690000D03*
X60330000Y-65690000D03*
D33*
X51919888Y-89440000D03*
D34*
X53919888Y-89440000D03*
D42*
X56145000Y-93022500D03*
X56145000Y-94597500D03*
D35*
X46047666Y-71650000D03*
X46047666Y-70000000D03*
D25*
X70450000Y-74325000D03*
D26*
X70450000Y-72325000D03*
X70450000Y-70325000D03*
X70450000Y-68325000D03*
X70450000Y-66325000D03*
X70450000Y-64325000D03*
D43*
X105485000Y-35570000D03*
X105485000Y-50810000D03*
D11*
X72465000Y-50810000D03*
X72465000Y-43190000D03*
D30*
X84465000Y-73410000D03*
D12*
X96715000Y-73360000D03*
X96665000Y-85410000D03*
D30*
X84465000Y-85410000D03*
D12*
X82515000Y-79360000D03*
D18*
X68500000Y-81125000D03*
X70150000Y-81125000D03*
D35*
X45275000Y-98825000D03*
X45275000Y-97175000D03*
D17*
X48467500Y-90770000D03*
X46892500Y-90770000D03*
D44*
X46950000Y-35130000D03*
X46950000Y-33860000D03*
X46950000Y-32590000D03*
X46950000Y-31320000D03*
X40800000Y-31320000D03*
X40800000Y-32590000D03*
X40800000Y-33860000D03*
X40800000Y-35130000D03*
D35*
X47580332Y-71650000D03*
X47580332Y-70000000D03*
D45*
X75345000Y-55840000D03*
X79345000Y-55840000D03*
D19*
X38410000Y-92160000D03*
X38410000Y-93810000D03*
X68575000Y-82825000D03*
X68575000Y-84475000D03*
D25*
X52450000Y-83000000D03*
D26*
X52450000Y-81000000D03*
X52450000Y-79000000D03*
X52450000Y-77000000D03*
D45*
X75350000Y-72425000D03*
X79350000Y-72425000D03*
D17*
X39947500Y-90522500D03*
X38372500Y-90522500D03*
D25*
X64450000Y-83000000D03*
D26*
X64450000Y-81000000D03*
X64450000Y-79000000D03*
X64450000Y-77000000D03*
D17*
X39947500Y-85585000D03*
X38372500Y-85585000D03*
D18*
X40900000Y-64210000D03*
X42550000Y-64210000D03*
D20*
X62635000Y-90870000D03*
D21*
X62635000Y-89570000D03*
D42*
X49455000Y-82402500D03*
X49455000Y-83977500D03*
D18*
X61120000Y-92680000D03*
X62770000Y-92680000D03*
D46*
X65195000Y-87570000D03*
D47*
X65195000Y-88870000D03*
D35*
X40650000Y-39175000D03*
X40650000Y-37525000D03*
D19*
X46927000Y-92407500D03*
X46927000Y-94057500D03*
D41*
X42675000Y-66062500D03*
X40775000Y-66062500D03*
X41725000Y-67937500D03*
D33*
X58535000Y-88430000D03*
D34*
X58535000Y-90430000D03*
D42*
X46125000Y-82022500D03*
X46125000Y-83597500D03*
D48*
X36900000Y-76925000D03*
D26*
X36900000Y-78925000D03*
X36900000Y-80925000D03*
D49*
X76312500Y-67925000D03*
X76312500Y-69825000D03*
X78187500Y-68875000D03*
D42*
X78175000Y-25336500D03*
X78175000Y-26911500D03*
D15*
X65940000Y-25125000D03*
D16*
X63400000Y-25125000D03*
X65940000Y-27665000D03*
X63400000Y-27665000D03*
X65940000Y-30205000D03*
X63400000Y-30205000D03*
X65940000Y-32745000D03*
X63400000Y-32745000D03*
X65940000Y-35285000D03*
X63400000Y-35285000D03*
X65940000Y-37825000D03*
X63400000Y-37825000D03*
X65940000Y-40365000D03*
X63400000Y-40365000D03*
X65940000Y-42905000D03*
X63400000Y-42905000D03*
X65940000Y-45445000D03*
X63400000Y-45445000D03*
X65940000Y-47985000D03*
X63400000Y-47985000D03*
X65940000Y-50525000D03*
X63400000Y-50525000D03*
X65940000Y-53065000D03*
X63400000Y-53065000D03*
X65940000Y-55605000D03*
X63400000Y-55605000D03*
X65940000Y-58145000D03*
X63400000Y-58145000D03*
X65940000Y-60685000D03*
X63400000Y-60685000D03*
X65940000Y-63225000D03*
X63400000Y-63225000D03*
X65940000Y-65765000D03*
X63400000Y-65765000D03*
X65940000Y-68305000D03*
X63400000Y-68305000D03*
X65940000Y-70845000D03*
X63400000Y-70845000D03*
D29*
X43507500Y-27750000D03*
X45082500Y-27750000D03*
D22*
X60330000Y-71270000D03*
X58680000Y-71270000D03*
D49*
X70387500Y-82700000D03*
X70387500Y-84600000D03*
X72262500Y-83650000D03*
D20*
X34835000Y-93635000D03*
D21*
X34835000Y-92335000D03*
D49*
X70387500Y-77650000D03*
X70387500Y-79550000D03*
X72262500Y-78600000D03*
D50*
X70160000Y-27075000D03*
D51*
X72700000Y-27075000D03*
X75240000Y-27075000D03*
D25*
X58450000Y-83000000D03*
D26*
X58450000Y-81000000D03*
X58450000Y-79000000D03*
X58450000Y-77000000D03*
D35*
X45402000Y-94057500D03*
X45402000Y-92407500D03*
D19*
X57855000Y-97135000D03*
X57855000Y-98785000D03*
D35*
X36885000Y-93810000D03*
X36885000Y-92160000D03*
D52*
X39965000Y-78937500D03*
X39965000Y-77362500D03*
D17*
X36882500Y-90522500D03*
X35307500Y-90522500D03*
M02*
