G04 #@! TF.GenerationSoftware,KiCad,Pcbnew,(6.0.7)*
G04 #@! TF.CreationDate,2022-10-04T21:38:46-04:00*
G04 #@! TF.ProjectId,mh-custom-v2,6d682d63-7573-4746-9f6d-2d76322e6b69,rev?*
G04 #@! TF.SameCoordinates,Original*
G04 #@! TF.FileFunction,Soldermask,Bot*
G04 #@! TF.FilePolarity,Negative*
%FSLAX46Y46*%
G04 Gerber Fmt 4.6, Leading zero omitted, Abs format (unit mm)*
G04 Created by KiCad (PCBNEW (6.0.7)) date 2022-10-04 21:38:46*
%MOMM*%
%LPD*%
G01*
G04 APERTURE LIST*
G04 Aperture macros list*
%AMRoundRect*
0 Rectangle with rounded corners*
0 $1 Rounding radius*
0 $2 $3 $4 $5 $6 $7 $8 $9 X,Y pos of 4 corners*
0 Add a 4 corners polygon primitive as box body*
4,1,4,$2,$3,$4,$5,$6,$7,$8,$9,$2,$3,0*
0 Add four circle primitives for the rounded corners*
1,1,$1+$1,$2,$3*
1,1,$1+$1,$4,$5*
1,1,$1+$1,$6,$7*
1,1,$1+$1,$8,$9*
0 Add four rect primitives between the rounded corners*
20,1,$1+$1,$2,$3,$4,$5,0*
20,1,$1+$1,$4,$5,$6,$7,0*
20,1,$1+$1,$6,$7,$8,$9,0*
20,1,$1+$1,$8,$9,$2,$3,0*%
G04 Aperture macros list end*
%ADD10R,2.000000X2.000000*%
%ADD11C,2.000000*%
%ADD12C,3.000000*%
%ADD13O,1.200000X2.200000*%
%ADD14O,2.200000X1.200000*%
%ADD15R,1.700000X1.700000*%
%ADD16O,1.700000X1.700000*%
%ADD17RoundRect,0.250000X0.625000X-0.350000X0.625000X0.350000X-0.625000X0.350000X-0.625000X-0.350000X0*%
%ADD18O,1.750000X1.200000*%
%ADD19R,3.960000X1.980000*%
%ADD20O,3.960000X1.980000*%
%ADD21C,2.500000*%
%ADD22R,1.600000X1.600000*%
%ADD23C,1.600000*%
%ADD24RoundRect,0.750000X-0.750000X0.750000X-0.750000X-0.750000X0.750000X-0.750000X0.750000X0.750000X0*%
%ADD25C,1.500000*%
%ADD26C,3.500000*%
%ADD27RoundRect,0.250000X-0.625000X0.350000X-0.625000X-0.350000X0.625000X-0.350000X0.625000X0.350000X0*%
%ADD28R,2.100000X2.100000*%
%ADD29C,2.100000*%
G04 APERTURE END LIST*
D10*
X72605000Y-98490000D03*
D11*
X72605000Y-90890000D03*
D12*
X85225000Y-115210000D03*
X107825000Y-115210000D03*
X106409000Y-59017000D03*
X106409000Y-81617000D03*
X85225000Y-25675000D03*
X107825000Y-25675000D03*
D13*
X59880000Y-105517000D03*
X62380000Y-105517000D03*
D14*
X64880000Y-110517000D03*
D13*
X69880000Y-105517000D03*
X67380000Y-105517000D03*
X47139500Y-105517000D03*
X49639500Y-105517000D03*
D14*
X52139500Y-110517000D03*
D13*
X57139500Y-105517000D03*
X54639500Y-105517000D03*
X34480000Y-105517000D03*
X36980000Y-105517000D03*
D14*
X39480000Y-110517000D03*
D13*
X44480000Y-105517000D03*
X41980000Y-105517000D03*
D15*
X58100000Y-25125000D03*
D16*
X55560000Y-25125000D03*
D15*
X38000000Y-25125000D03*
D16*
X35460000Y-25125000D03*
X38000000Y-27665000D03*
X35460000Y-27665000D03*
X38000000Y-30205000D03*
X35460000Y-30205000D03*
X38000000Y-32745000D03*
X35460000Y-32745000D03*
X38000000Y-35285000D03*
X35460000Y-35285000D03*
X38000000Y-37825000D03*
X35460000Y-37825000D03*
X38000000Y-40365000D03*
X35460000Y-40365000D03*
X38000000Y-42905000D03*
X35460000Y-42905000D03*
X38000000Y-45445000D03*
X35460000Y-45445000D03*
X38000000Y-47985000D03*
X35460000Y-47985000D03*
X38000000Y-50525000D03*
X35460000Y-50525000D03*
X38000000Y-53065000D03*
X35460000Y-53065000D03*
X38000000Y-55605000D03*
X35460000Y-55605000D03*
X38000000Y-58145000D03*
X35460000Y-58145000D03*
X38000000Y-60685000D03*
X35460000Y-60685000D03*
X38000000Y-63225000D03*
X35460000Y-63225000D03*
X38000000Y-65765000D03*
X35460000Y-65765000D03*
X38000000Y-68305000D03*
X35460000Y-68305000D03*
X38000000Y-70845000D03*
X35460000Y-70845000D03*
D17*
X70450000Y-59125000D03*
D18*
X70450000Y-57125000D03*
D19*
X118175000Y-108225000D03*
D20*
X118175000Y-103225000D03*
X118175000Y-98225000D03*
X118175000Y-93225000D03*
D12*
X82515000Y-62020000D03*
D21*
X84465000Y-68070000D03*
D12*
X96665000Y-68070000D03*
X96715000Y-56020000D03*
D21*
X84465000Y-56070000D03*
D15*
X43025000Y-25075000D03*
D16*
X45565000Y-25075000D03*
D22*
X41915000Y-81194887D03*
D23*
X41915000Y-83194887D03*
D24*
X87975000Y-92380000D03*
D12*
X94375000Y-105680000D03*
X94375000Y-92430000D03*
X100675000Y-105680000D03*
X100675000Y-92380000D03*
X104925000Y-105680000D03*
X104975000Y-92380000D03*
D19*
X118175000Y-48225000D03*
D20*
X118175000Y-43225000D03*
X118175000Y-38225000D03*
X118175000Y-33225000D03*
D15*
X37520000Y-98360000D03*
D16*
X40060000Y-98360000D03*
D19*
X118175000Y-68225000D03*
D20*
X118175000Y-63225000D03*
X118175000Y-58225000D03*
X118175000Y-53225000D03*
D19*
X118175000Y-88225000D03*
D20*
X118175000Y-83225000D03*
X118175000Y-78225000D03*
X118175000Y-73225000D03*
D25*
X53055000Y-64770000D03*
X48175000Y-64770000D03*
D22*
X44635000Y-86070000D03*
D23*
X44635000Y-88070000D03*
D15*
X48855000Y-98360000D03*
D16*
X51395000Y-98360000D03*
D15*
X60510000Y-98360000D03*
D16*
X63050000Y-98360000D03*
D22*
X51919888Y-89440000D03*
D23*
X53919888Y-89440000D03*
D17*
X70450000Y-74325000D03*
D18*
X70450000Y-72325000D03*
X70450000Y-70325000D03*
X70450000Y-68325000D03*
X70450000Y-66325000D03*
X70450000Y-64325000D03*
D26*
X105485000Y-35570000D03*
X105485000Y-50810000D03*
D11*
X72465000Y-50810000D03*
X72465000Y-43190000D03*
D21*
X84465000Y-73410000D03*
D12*
X96715000Y-73360000D03*
X96665000Y-85410000D03*
D21*
X84465000Y-85410000D03*
D12*
X82515000Y-79360000D03*
D17*
X52450000Y-83000000D03*
D18*
X52450000Y-81000000D03*
X52450000Y-79000000D03*
X52450000Y-77000000D03*
D17*
X64450000Y-83000000D03*
D18*
X64450000Y-81000000D03*
X64450000Y-79000000D03*
X64450000Y-77000000D03*
D22*
X58535000Y-88430000D03*
D23*
X58535000Y-90430000D03*
D27*
X36900000Y-76925000D03*
D18*
X36900000Y-78925000D03*
X36900000Y-80925000D03*
D15*
X65940000Y-25125000D03*
D16*
X63400000Y-25125000D03*
X65940000Y-27665000D03*
X63400000Y-27665000D03*
X65940000Y-30205000D03*
X63400000Y-30205000D03*
X65940000Y-32745000D03*
X63400000Y-32745000D03*
X65940000Y-35285000D03*
X63400000Y-35285000D03*
X65940000Y-37825000D03*
X63400000Y-37825000D03*
X65940000Y-40365000D03*
X63400000Y-40365000D03*
X65940000Y-42905000D03*
X63400000Y-42905000D03*
X65940000Y-45445000D03*
X63400000Y-45445000D03*
X65940000Y-47985000D03*
X63400000Y-47985000D03*
X65940000Y-50525000D03*
X63400000Y-50525000D03*
X65940000Y-53065000D03*
X63400000Y-53065000D03*
X65940000Y-55605000D03*
X63400000Y-55605000D03*
X65940000Y-58145000D03*
X63400000Y-58145000D03*
X65940000Y-60685000D03*
X63400000Y-60685000D03*
X65940000Y-63225000D03*
X63400000Y-63225000D03*
X65940000Y-65765000D03*
X63400000Y-65765000D03*
X65940000Y-68305000D03*
X63400000Y-68305000D03*
X65940000Y-70845000D03*
X63400000Y-70845000D03*
D28*
X70160000Y-27075000D03*
D29*
X72700000Y-27075000D03*
X75240000Y-27075000D03*
D17*
X58450000Y-83000000D03*
D18*
X58450000Y-81000000D03*
X58450000Y-79000000D03*
X58450000Y-77000000D03*
M02*
