%TF.GenerationSoftware,KiCad,Pcbnew,(6.0.7)*%
%TF.CreationDate,2022-10-04T21:38:49-04:00*%
%TF.ProjectId,mh-custom-v2,6d682d63-7573-4746-9f6d-2d76322e6b69,rev?*%
%TF.SameCoordinates,Original*%
%TF.FileFunction,Drillmap*%
%TF.FilePolarity,Positive*%
%FSLAX45Y45*%
G04 Gerber Fmt 4.5, Leading zero omitted, Abs format (unit mm)*
G04 Created by KiCad (PCBNEW (6.0.7)) date 2022-10-04 21:38:49*
%MOMM*%
%LPD*%
G01*
G04 APERTURE LIST*
%ADD10C,0.000787*%
%ADD11C,0.200000*%
%ADD12C,0.040000*%
%ADD13C,0.070000*%
%ADD14C,0.075000*%
%ADD15C,0.080000*%
%ADD16C,0.100000*%
%ADD17C,0.110000*%
%ADD18C,0.130000*%
%ADD19C,0.132000*%
%ADD20C,0.150000*%
G04 APERTURE END LIST*
D10*
X9650380Y-2081729D02*
X8520370Y-2081723D01*
X10780385Y-2081728D02*
X9650380Y-2081729D01*
X10831362Y-2090643D02*
X10780385Y-2081728D01*
X10859991Y-2114147D02*
X10831362Y-2090643D01*
X10890942Y-2185468D02*
X10859991Y-2114147D01*
X10913631Y-2223560D02*
X10890942Y-2185468D01*
X10954709Y-2256790D02*
X10913631Y-2223560D01*
X11024360Y-2280294D02*
X10954709Y-2256790D01*
X11132767Y-2289209D02*
X11024360Y-2280294D01*
X11584266Y-2289209D02*
X11132767Y-2289209D01*
X11584267Y-2489199D02*
X11584266Y-2289209D01*
X11601948Y-2576779D02*
X11584267Y-2489199D01*
X11650167Y-2648297D02*
X11601948Y-2576779D01*
X11721686Y-2696516D02*
X11650167Y-2648297D01*
X11809265Y-2714198D02*
X11721686Y-2696516D01*
X12865423Y-2714198D02*
X11809265Y-2714198D01*
X12865423Y-11385172D02*
X12865423Y-2714198D01*
X11809264Y-11385172D02*
X12865423Y-11385172D01*
X11721685Y-11402854D02*
X11809264Y-11385172D01*
X11650166Y-11451073D02*
X11721685Y-11402854D01*
X11601947Y-11522592D02*
X11650166Y-11451073D01*
X11584266Y-11610171D02*
X11601947Y-11522592D01*
X11584266Y-11799720D02*
X11584266Y-11610171D01*
X11132769Y-11799720D02*
X11584266Y-11799720D01*
X11024362Y-11808635D02*
X11132769Y-11799720D01*
X10954712Y-11832139D02*
X11024362Y-11808635D01*
X10913634Y-11865368D02*
X10954712Y-11832139D01*
X10890944Y-11903460D02*
X10913634Y-11865368D01*
X10859993Y-11974782D02*
X10890944Y-11903460D01*
X10831364Y-11998285D02*
X10859993Y-11974782D01*
X10780387Y-12007200D02*
X10831364Y-11998285D01*
X9650380Y-12007200D02*
X10780387Y-12007200D01*
X8520374Y-12007200D02*
X9650380Y-12007200D01*
X8469397Y-11998285D02*
X8520374Y-12007200D01*
X8440768Y-11974782D02*
X8469397Y-11998285D01*
X8409817Y-11903460D02*
X8440768Y-11974782D01*
X8387127Y-11865368D02*
X8409817Y-11903460D01*
X8346049Y-11832139D02*
X8387127Y-11865368D01*
X8276399Y-11808635D02*
X8346049Y-11832139D01*
X8167992Y-11799720D02*
X8276399Y-11808635D01*
X7831943Y-11799720D02*
X8167992Y-11799720D01*
X7831942Y-11496431D02*
X7831943Y-11799720D01*
X7814315Y-11408689D02*
X7831942Y-11496431D01*
X7766186Y-11337189D02*
X7814315Y-11408689D01*
X7694685Y-11289060D02*
X7766186Y-11337189D01*
X7606943Y-11271433D02*
X7694685Y-11289060D01*
X7519202Y-11289060D02*
X7606943Y-11271433D01*
X7447702Y-11337189D02*
X7519202Y-11289060D01*
X7399572Y-11408689D02*
X7447702Y-11337189D01*
X7381944Y-11496431D02*
X7399572Y-11408689D01*
X7381944Y-11503717D02*
X7381944Y-11496431D01*
X7135134Y-11503717D02*
X7381944Y-11503717D01*
X6705135Y-11503717D02*
X7135134Y-11503717D01*
X6705135Y-11418399D02*
X6705135Y-11503717D01*
X6705133Y-11405481D02*
X6705135Y-11418399D01*
X6693444Y-11377172D02*
X6705133Y-11405481D01*
X6665135Y-11365484D02*
X6693444Y-11377172D01*
X6303613Y-11365483D02*
X6665135Y-11365484D01*
X6275305Y-11377172D02*
X6303613Y-11365483D01*
X6263616Y-11405480D02*
X6275305Y-11377172D01*
X6263616Y-11463720D02*
X6263616Y-11405480D01*
X6263616Y-11503717D02*
X6263616Y-11463720D01*
X5431058Y-11503717D02*
X6263616Y-11503717D01*
X5431058Y-11418399D02*
X5431058Y-11503717D01*
X5431056Y-11405481D02*
X5431058Y-11418399D01*
X5419367Y-11377172D02*
X5431056Y-11405481D01*
X5391058Y-11365484D02*
X5419367Y-11377172D01*
X5029586Y-11365483D02*
X5391058Y-11365484D01*
X5001277Y-11377172D02*
X5029586Y-11365483D01*
X4989589Y-11405480D02*
X5001277Y-11377172D01*
X4989589Y-11463720D02*
X4989589Y-11405480D01*
X4989589Y-11503717D02*
X4989589Y-11463720D01*
X4165142Y-11503717D02*
X4989589Y-11503717D01*
X4165142Y-11463720D02*
X4165142Y-11503717D01*
X4165142Y-11418399D02*
X4165142Y-11463720D01*
X4165142Y-11405481D02*
X4165142Y-11418399D01*
X4153453Y-11377172D02*
X4165142Y-11405481D01*
X4125144Y-11365484D02*
X4153453Y-11377172D01*
X3765116Y-11365483D02*
X4125144Y-11365484D01*
X3736807Y-11377172D02*
X3765116Y-11365483D01*
X3725118Y-11405480D02*
X3736807Y-11377172D01*
X3725118Y-11418399D02*
X3725118Y-11405480D01*
X3725118Y-11463720D02*
X3725118Y-11418399D01*
X3725118Y-11503717D02*
X3725118Y-11463720D01*
X3293776Y-11503717D02*
X3725118Y-11503717D01*
X3293776Y-2289209D02*
X3293776Y-11503717D01*
X8167988Y-2289204D02*
X3293776Y-2289209D01*
X8276395Y-2280289D02*
X8167988Y-2289204D01*
X8346045Y-2256785D02*
X8276395Y-2280289D01*
X8387123Y-2223555D02*
X8346045Y-2256785D01*
X8409813Y-2185463D02*
X8387123Y-2223555D01*
X8440764Y-2114142D02*
X8409813Y-2185463D01*
X8469393Y-2090638D02*
X8440764Y-2114142D01*
X8520370Y-2081723D02*
X8469393Y-2090638D01*
X8098533Y-3923935D02*
X8098527Y-2465678D01*
X8223532Y-3923935D02*
X8098533Y-3923935D01*
X8223532Y-2465678D02*
X8223532Y-3923935D01*
X8098527Y-2465678D02*
X8223532Y-2465678D01*
X8648022Y-7345939D02*
X8648011Y-7337159D01*
X8772201Y-7345939D02*
X8648022Y-7345939D01*
X8772192Y-7346407D02*
X8772201Y-7345939D01*
X8759217Y-7428105D02*
X8772192Y-7346407D01*
X8722506Y-7504852D02*
X8759217Y-7428105D01*
X8665228Y-7569956D02*
X8722506Y-7504852D01*
X8590551Y-7616726D02*
X8665228Y-7569956D01*
X8520151Y-7637600D02*
X8590551Y-7616726D01*
X8468749Y-7642460D02*
X8520151Y-7637600D01*
X8382398Y-7631970D02*
X8468749Y-7642460D01*
X8273722Y-7613263D02*
X8382398Y-7631970D01*
X8147002Y-7638851D02*
X8273722Y-7613263D01*
X8043520Y-7708622D02*
X8147002Y-7638851D01*
X7973749Y-7812104D02*
X8043520Y-7708622D01*
X7948162Y-7938825D02*
X7973749Y-7812104D01*
X7973750Y-8065543D02*
X7948162Y-7938825D01*
X8043521Y-8169025D02*
X7973750Y-8065543D01*
X8147002Y-8238797D02*
X8043521Y-8169025D01*
X8273722Y-8264385D02*
X8147002Y-8238797D01*
X8382398Y-8245626D02*
X8273722Y-8264385D01*
X8468749Y-8235239D02*
X8382398Y-8245626D01*
X8574324Y-8254205D02*
X8468749Y-8235239D01*
X8652754Y-8297130D02*
X8574324Y-8254205D01*
X8715484Y-8363797D02*
X8652754Y-8297130D01*
X8757089Y-8444113D02*
X8715484Y-8363797D01*
X8772141Y-8527986D02*
X8757089Y-8444113D01*
X8747691Y-8667290D02*
X8772141Y-8527986D01*
X8683309Y-8763992D02*
X8747691Y-8667290D01*
X8539443Y-8903002D02*
X8683309Y-8763992D01*
X8453851Y-9009216D02*
X8539443Y-8903002D01*
X8389104Y-9128385D02*
X8453851Y-9009216D01*
X8348509Y-9248537D02*
X8389104Y-9128385D01*
X8335372Y-9357702D02*
X8348509Y-9248537D01*
X8335072Y-9812454D02*
X8335372Y-9357702D01*
X8210018Y-9812455D02*
X8335072Y-9812454D01*
X8210318Y-9358891D02*
X8210018Y-9812455D01*
X8229234Y-9213766D02*
X8210318Y-9358891D01*
X8277313Y-9070658D02*
X8229234Y-9213766D01*
X8352382Y-8935305D02*
X8277313Y-9070658D01*
X8452268Y-8813448D02*
X8352382Y-8935305D01*
X8595566Y-8673922D02*
X8452268Y-8813448D01*
X8595766Y-8674022D02*
X8595566Y-8673922D01*
X8634942Y-8612915D02*
X8595766Y-8674022D01*
X8648166Y-8531085D02*
X8634942Y-8612915D01*
X8634593Y-8468654D02*
X8648166Y-8531085D01*
X8596135Y-8413543D02*
X8634593Y-8468654D01*
X8538863Y-8374246D02*
X8596135Y-8413543D01*
X8468849Y-8359261D02*
X8538863Y-8374246D01*
X8415777Y-8367426D02*
X8468849Y-8359261D01*
X8303381Y-8389544D02*
X8415777Y-8367426D01*
X8206797Y-8385617D02*
X8303381Y-8389544D01*
X8206849Y-8385517D02*
X8206797Y-8385617D01*
X8126819Y-8365974D02*
X8206849Y-8385517D01*
X8053424Y-8333174D02*
X8126819Y-8365974D01*
X7931514Y-8233573D02*
X8053424Y-8333174D01*
X7851064Y-8098259D02*
X7931514Y-8233573D01*
X7829493Y-8020817D02*
X7851064Y-8098259D01*
X7822016Y-7938775D02*
X7829493Y-8020817D01*
X7829534Y-7856810D02*
X7822016Y-7938775D01*
X7851136Y-7779555D02*
X7829534Y-7856810D01*
X7931187Y-7644749D02*
X7851136Y-7779555D01*
X8051363Y-7545517D02*
X7931187Y-7644749D01*
X8200855Y-7493015D02*
X8051363Y-7545517D01*
X8305603Y-7488261D02*
X8200855Y-7493015D01*
X8406165Y-7506864D02*
X8305603Y-7488261D01*
X8468849Y-7518336D02*
X8406165Y-7506864D01*
X8538832Y-7504356D02*
X8468849Y-7518336D01*
X8596053Y-7465956D02*
X8538832Y-7504356D01*
X8634463Y-7408452D02*
X8596053Y-7465956D01*
X8648011Y-7337159D02*
X8634463Y-7408452D01*
X8683308Y-5384979D02*
X8539542Y-5245973D01*
X8748289Y-5482461D02*
X8683308Y-5384979D01*
X8772243Y-5620571D02*
X8748289Y-5482461D01*
X8756458Y-5705940D02*
X8772243Y-5620571D01*
X8712534Y-5789162D02*
X8756458Y-5705940D01*
X8645716Y-5857774D02*
X8712534Y-5789162D01*
X8561249Y-5899314D02*
X8645716Y-5857774D01*
X8439530Y-5914434D02*
X8561249Y-5899314D01*
X8382500Y-5903345D02*
X8439530Y-5914434D01*
X8273825Y-5884586D02*
X8382500Y-5903345D01*
X8147105Y-5910174D02*
X8273825Y-5884586D01*
X8043623Y-5979946D02*
X8147105Y-5910174D01*
X7973852Y-6083427D02*
X8043623Y-5979946D01*
X7948264Y-6210146D02*
X7973852Y-6083427D01*
X7973851Y-6336867D02*
X7948264Y-6210146D01*
X8043622Y-6440348D02*
X7973851Y-6336867D01*
X8147104Y-6510119D02*
X8043622Y-6440348D01*
X8273825Y-6535707D02*
X8147104Y-6510119D01*
X8382500Y-6517000D02*
X8273825Y-6535707D01*
X8468852Y-6506510D02*
X8382500Y-6517000D01*
X8543937Y-6516638D02*
X8468852Y-6506510D01*
X8652652Y-6568907D02*
X8543937Y-6516638D01*
X8722848Y-6643481D02*
X8652652Y-6568907D01*
X8760652Y-6725236D02*
X8722848Y-6643481D01*
X8772191Y-6799050D02*
X8760652Y-6725236D01*
X8648011Y-6799054D02*
X8772191Y-6799050D01*
X8634547Y-6735772D02*
X8648011Y-6799054D01*
X8596128Y-6681987D02*
X8634547Y-6735772D01*
X8538860Y-6644631D02*
X8596128Y-6681987D01*
X8468849Y-6630640D02*
X8538860Y-6644631D01*
X8406165Y-6642112D02*
X8468849Y-6630640D01*
X8305603Y-6660716D02*
X8406165Y-6642112D01*
X8166231Y-6648882D02*
X8305603Y-6660716D01*
X8039317Y-6596380D02*
X8166231Y-6648882D01*
X7929136Y-6499704D02*
X8039317Y-6596380D01*
X7851449Y-6367947D02*
X7929136Y-6499704D01*
X7829715Y-6291754D02*
X7851449Y-6367947D01*
X7822016Y-6210202D02*
X7829715Y-6291754D01*
X7850445Y-6051353D02*
X7822016Y-6210202D01*
X7929455Y-5917163D02*
X7850445Y-6051353D01*
X8049727Y-5818001D02*
X7929455Y-5917163D01*
X8201940Y-5764235D02*
X8049727Y-5818001D01*
X8303381Y-5759429D02*
X8201940Y-5764235D01*
X8415777Y-5781546D02*
X8303381Y-5759429D01*
X8468849Y-5789711D02*
X8415777Y-5781546D01*
X8538643Y-5775948D02*
X8468849Y-5789711D01*
X8595567Y-5738047D02*
X8538643Y-5775948D01*
X8634012Y-5681097D02*
X8595567Y-5738047D01*
X8648373Y-5610187D02*
X8634012Y-5681097D01*
X8633835Y-5533155D02*
X8648373Y-5610187D01*
X8605740Y-5486061D02*
X8633835Y-5533155D01*
X8452261Y-5335528D02*
X8605740Y-5486061D01*
X8539542Y-5245973D02*
X8452261Y-5335528D01*
X5522618Y-3627006D02*
X5522618Y-3627006D01*
X5435038Y-3644687D02*
X5522618Y-3627006D01*
X5363520Y-3692906D02*
X5435038Y-3644687D01*
X5315301Y-3764425D02*
X5363520Y-3692906D01*
X5297619Y-3852005D02*
X5315301Y-3764425D01*
X5315301Y-3939584D02*
X5297619Y-3852005D01*
X5363520Y-4011102D02*
X5315301Y-3939584D01*
X5435038Y-4059322D02*
X5363520Y-4011102D01*
X5522618Y-4077003D02*
X5435038Y-4059322D01*
X5610197Y-4059322D02*
X5522618Y-4077003D01*
X5681715Y-4011102D02*
X5610197Y-4059322D01*
X5729935Y-3939584D02*
X5681715Y-4011102D01*
X5747616Y-3852005D02*
X5729935Y-3939584D01*
X5729935Y-3764425D02*
X5747616Y-3852005D01*
X5681715Y-3692906D02*
X5729935Y-3764425D01*
X5610197Y-3644687D02*
X5681715Y-3692906D01*
X5522618Y-3627006D02*
X5610197Y-3644687D01*
X8214552Y-11230493D02*
X8214551Y-10576432D01*
X8339552Y-11230493D02*
X8214552Y-11230493D01*
X8339552Y-10576442D02*
X8339552Y-11230493D01*
X8214551Y-10576432D02*
X8339552Y-10576442D01*
X9077701Y-7517558D02*
X9077701Y-6627690D01*
X9202710Y-7517558D02*
X9077701Y-7517558D01*
X9202710Y-6627690D02*
X9202710Y-7517558D01*
X9077701Y-6627690D02*
X9202710Y-6627690D01*
D11*
D12*
X3381900Y-9018600D02*
X3421900Y-9058600D01*
X3421900Y-9018600D02*
X3381900Y-9058600D01*
X3978691Y-7311683D02*
X4018691Y-7351683D01*
X4018691Y-7311683D02*
X3978691Y-7351683D01*
X4075500Y-8500000D02*
X4115500Y-8540000D01*
X4115500Y-8500000D02*
X4075500Y-8540000D01*
X4174500Y-7421000D02*
X4214500Y-7461000D01*
X4214500Y-7421000D02*
X4174500Y-7461000D01*
X4184500Y-9030000D02*
X4224500Y-9070000D01*
X4224500Y-9030000D02*
X4184500Y-9070000D01*
X4258200Y-7342200D02*
X4298200Y-7382200D01*
X4298200Y-7342200D02*
X4258200Y-7382200D01*
X4334400Y-6796100D02*
X4374400Y-6836100D01*
X4374400Y-6796100D02*
X4334400Y-6836100D01*
X4372500Y-7141950D02*
X4412500Y-7181950D01*
X4412500Y-7141950D02*
X4372500Y-7181950D01*
X4423300Y-6986600D02*
X4463300Y-7026600D01*
X4463300Y-6986600D02*
X4423300Y-7026600D01*
X4435500Y-9487000D02*
X4475500Y-9527000D01*
X4475500Y-9487000D02*
X4435500Y-9527000D01*
X4500750Y-6846900D02*
X4540750Y-6886900D01*
X4540750Y-6846900D02*
X4500750Y-6886900D01*
X4501900Y-8023216D02*
X4541900Y-8063216D01*
X4541900Y-8023216D02*
X4501900Y-8063216D01*
X4792500Y-8935000D02*
X4832500Y-8975000D01*
X4832500Y-8935000D02*
X4792500Y-8975000D01*
X4867800Y-7532700D02*
X4907800Y-7572700D01*
X4907800Y-7532700D02*
X4867800Y-7572700D01*
X4879500Y-7761000D02*
X4919500Y-7801000D01*
X4919500Y-7761000D02*
X4879500Y-7801000D01*
X4944000Y-8599500D02*
X4984000Y-8639500D01*
X4984000Y-8599500D02*
X4944000Y-8639500D01*
X4982100Y-7304100D02*
X5022100Y-7344100D01*
X5022100Y-7304100D02*
X4982100Y-7344100D01*
X5022500Y-9667000D02*
X5062500Y-9707000D01*
X5062500Y-9667000D02*
X5022500Y-9707000D01*
X5045600Y-8205800D02*
X5085600Y-8245800D01*
X5085600Y-8205800D02*
X5045600Y-8245800D01*
X5121800Y-7266000D02*
X5161800Y-7306000D01*
X5161800Y-7266000D02*
X5121800Y-7306000D01*
X5185300Y-7405700D02*
X5225300Y-7445700D01*
X5225300Y-7405700D02*
X5185300Y-7445700D01*
X5452000Y-7596200D02*
X5492000Y-7636200D01*
X5492000Y-7596200D02*
X5452000Y-7636200D01*
X5477400Y-9844100D02*
X5517400Y-9884100D01*
X5517400Y-9844100D02*
X5477400Y-9884100D01*
X5579000Y-6923100D02*
X5619000Y-6963100D01*
X5619000Y-6923100D02*
X5579000Y-6963100D01*
X5667500Y-9522000D02*
X5707500Y-9562000D01*
X5707500Y-9522000D02*
X5667500Y-9562000D01*
X5701315Y-6292784D02*
X5741315Y-6332784D01*
X5741315Y-6292784D02*
X5701315Y-6332784D01*
X5706000Y-6694500D02*
X5746000Y-6734500D01*
X5746000Y-6694500D02*
X5706000Y-6734500D01*
X5967500Y-7413200D02*
X6007500Y-7453200D01*
X6007500Y-7413200D02*
X5967500Y-7453200D01*
X5972500Y-9206825D02*
X6012500Y-9246825D01*
X6012500Y-9206825D02*
X5972500Y-9246825D01*
X6137800Y-3036900D02*
X6177800Y-3076900D01*
X6177800Y-3036900D02*
X6137800Y-3076900D01*
X6305000Y-7437500D02*
X6345000Y-7477500D01*
X6345000Y-7437500D02*
X6305000Y-7477500D01*
X6607700Y-7837500D02*
X6647700Y-7877500D01*
X6647700Y-7837500D02*
X6607700Y-7877500D01*
X6717500Y-7512500D02*
X6757500Y-7552500D01*
X6757500Y-7512500D02*
X6717500Y-7552500D01*
X6847500Y-7460000D02*
X6887500Y-7500000D01*
X6887500Y-7460000D02*
X6847500Y-7500000D01*
X7064900Y-8815400D02*
X7104900Y-8855400D01*
X7104900Y-8815400D02*
X7064900Y-8855400D01*
X7103000Y-8091500D02*
X7143000Y-8131500D01*
X7143000Y-8091500D02*
X7103000Y-8131500D01*
X7242700Y-7697800D02*
X7282700Y-7737800D01*
X7282700Y-7697800D02*
X7242700Y-7737800D01*
X7310000Y-5750000D02*
X7350000Y-5790000D01*
X7350000Y-5750000D02*
X7310000Y-5790000D01*
X7337500Y-5977500D02*
X7377500Y-6017500D01*
X7377500Y-5977500D02*
X7337500Y-6017500D01*
X7534800Y-6897700D02*
X7574800Y-6937700D01*
X7574800Y-6897700D02*
X7534800Y-6937700D01*
X7707500Y-5627500D02*
X7747500Y-5667500D01*
X7747500Y-5627500D02*
X7707500Y-5667500D01*
X7750700Y-7215200D02*
X7790700Y-7255200D01*
X7790700Y-7215200D02*
X7750700Y-7255200D01*
X3468000Y-10551700D02*
G75*
G03*
X3468000Y-10551700I-20000J0D01*
G01*
D11*
X3428000Y-10501700D02*
X3428000Y-10601700D01*
X3468000Y-10501700D02*
X3468000Y-10601700D01*
X3428000Y-10601700D02*
G75*
G03*
X3468000Y-10601700I20000J0D01*
G01*
X3468000Y-10501700D02*
G75*
G03*
X3428000Y-10501700I-20000J0D01*
G01*
D12*
X3718000Y-10551700D02*
G75*
G03*
X3718000Y-10551700I-20000J0D01*
G01*
D11*
X3678000Y-10501700D02*
X3678000Y-10601700D01*
X3718000Y-10501700D02*
X3718000Y-10601700D01*
X3678000Y-10601700D02*
G75*
G03*
X3718000Y-10601700I20000J0D01*
G01*
X3718000Y-10501700D02*
G75*
G03*
X3678000Y-10501700I-20000J0D01*
G01*
D12*
X3968000Y-11051700D02*
G75*
G03*
X3968000Y-11051700I-20000J0D01*
G01*
D11*
X3898000Y-11071700D02*
X3998000Y-11071700D01*
X3898000Y-11031700D02*
X3998000Y-11031700D01*
X3998000Y-11071700D02*
G75*
G03*
X3998000Y-11031700I0J20000D01*
G01*
X3898000Y-11031700D02*
G75*
G03*
X3898000Y-11071700I0J-20000D01*
G01*
D12*
X4218000Y-10551700D02*
G75*
G03*
X4218000Y-10551700I-20000J0D01*
G01*
D11*
X4218000Y-10601700D02*
X4218000Y-10501700D01*
X4178000Y-10601700D02*
X4178000Y-10501700D01*
X4218000Y-10501700D02*
G75*
G03*
X4178000Y-10501700I-20000J0D01*
G01*
X4178000Y-10601700D02*
G75*
G03*
X4218000Y-10601700I20000J0D01*
G01*
D12*
X4468000Y-10551700D02*
G75*
G03*
X4468000Y-10551700I-20000J0D01*
G01*
D11*
X4468000Y-10601700D02*
X4468000Y-10501700D01*
X4428000Y-10601700D02*
X4428000Y-10501700D01*
X4468000Y-10501700D02*
G75*
G03*
X4428000Y-10501700I-20000J0D01*
G01*
X4428000Y-10601700D02*
G75*
G03*
X4468000Y-10601700I20000J0D01*
G01*
D12*
X4733950Y-10551700D02*
G75*
G03*
X4733950Y-10551700I-20000J0D01*
G01*
D11*
X4693950Y-10501700D02*
X4693950Y-10601700D01*
X4733950Y-10501700D02*
X4733950Y-10601700D01*
X4693950Y-10601700D02*
G75*
G03*
X4733950Y-10601700I20000J0D01*
G01*
X4733950Y-10501700D02*
G75*
G03*
X4693950Y-10501700I-20000J0D01*
G01*
D12*
X4983950Y-10551700D02*
G75*
G03*
X4983950Y-10551700I-20000J0D01*
G01*
D11*
X4943950Y-10501700D02*
X4943950Y-10601700D01*
X4983950Y-10501700D02*
X4983950Y-10601700D01*
X4943950Y-10601700D02*
G75*
G03*
X4983950Y-10601700I20000J0D01*
G01*
X4983950Y-10501700D02*
G75*
G03*
X4943950Y-10501700I-20000J0D01*
G01*
D12*
X5233950Y-11051700D02*
G75*
G03*
X5233950Y-11051700I-20000J0D01*
G01*
D11*
X5163950Y-11071700D02*
X5263950Y-11071700D01*
X5163950Y-11031700D02*
X5263950Y-11031700D01*
X5263950Y-11071700D02*
G75*
G03*
X5263950Y-11031700I0J20000D01*
G01*
X5163950Y-11031700D02*
G75*
G03*
X5163950Y-11071700I0J-20000D01*
G01*
D12*
X5483950Y-10551700D02*
G75*
G03*
X5483950Y-10551700I-20000J0D01*
G01*
D11*
X5483950Y-10601700D02*
X5483950Y-10501700D01*
X5443950Y-10601700D02*
X5443950Y-10501700D01*
X5483950Y-10501700D02*
G75*
G03*
X5443950Y-10501700I-20000J0D01*
G01*
X5443950Y-10601700D02*
G75*
G03*
X5483950Y-10601700I20000J0D01*
G01*
D12*
X5733950Y-10551700D02*
G75*
G03*
X5733950Y-10551700I-20000J0D01*
G01*
D11*
X5733950Y-10601700D02*
X5733950Y-10501700D01*
X5693950Y-10601700D02*
X5693950Y-10501700D01*
X5733950Y-10501700D02*
G75*
G03*
X5693950Y-10501700I-20000J0D01*
G01*
X5693950Y-10601700D02*
G75*
G03*
X5733950Y-10601700I20000J0D01*
G01*
D12*
X6008000Y-10551700D02*
G75*
G03*
X6008000Y-10551700I-20000J0D01*
G01*
D11*
X5968000Y-10501700D02*
X5968000Y-10601700D01*
X6008000Y-10501700D02*
X6008000Y-10601700D01*
X5968000Y-10601700D02*
G75*
G03*
X6008000Y-10601700I20000J0D01*
G01*
X6008000Y-10501700D02*
G75*
G03*
X5968000Y-10501700I-20000J0D01*
G01*
D12*
X6258000Y-10551700D02*
G75*
G03*
X6258000Y-10551700I-20000J0D01*
G01*
D11*
X6218000Y-10501700D02*
X6218000Y-10601700D01*
X6258000Y-10501700D02*
X6258000Y-10601700D01*
X6218000Y-10601700D02*
G75*
G03*
X6258000Y-10601700I20000J0D01*
G01*
X6258000Y-10501700D02*
G75*
G03*
X6218000Y-10501700I-20000J0D01*
G01*
D12*
X6508000Y-11051700D02*
G75*
G03*
X6508000Y-11051700I-20000J0D01*
G01*
D11*
X6438000Y-11071700D02*
X6538000Y-11071700D01*
X6438000Y-11031700D02*
X6538000Y-11031700D01*
X6538000Y-11071700D02*
G75*
G03*
X6538000Y-11031700I0J20000D01*
G01*
X6438000Y-11031700D02*
G75*
G03*
X6438000Y-11071700I0J-20000D01*
G01*
D12*
X6758000Y-10551700D02*
G75*
G03*
X6758000Y-10551700I-20000J0D01*
G01*
D11*
X6758000Y-10601700D02*
X6758000Y-10501700D01*
X6718000Y-10601700D02*
X6718000Y-10501700D01*
X6758000Y-10501700D02*
G75*
G03*
X6718000Y-10501700I-20000J0D01*
G01*
X6718000Y-10601700D02*
G75*
G03*
X6758000Y-10601700I20000J0D01*
G01*
D12*
X7008000Y-10551700D02*
G75*
G03*
X7008000Y-10551700I-20000J0D01*
G01*
D11*
X7008000Y-10601700D02*
X7008000Y-10501700D01*
X6968000Y-10601700D02*
X6968000Y-10501700D01*
X7008000Y-10501700D02*
G75*
G03*
X6968000Y-10501700I-20000J0D01*
G01*
X6968000Y-10601700D02*
G75*
G03*
X7008000Y-10601700I20000J0D01*
G01*
D13*
X7246500Y-4284000D02*
X7246500Y-4354000D01*
X7211500Y-4319000D02*
X7281500Y-4319000D01*
X7246500Y-5046000D02*
X7246500Y-5116000D01*
X7211500Y-5081000D02*
X7281500Y-5081000D01*
X10548500Y-3522000D02*
X10548500Y-3592000D01*
X10513500Y-3557000D02*
X10583500Y-3557000D01*
X10548500Y-5046000D02*
X10548500Y-5116000D01*
X10513500Y-5081000D02*
X10583500Y-5081000D01*
D14*
X3716517Y-7719017D02*
X3716517Y-7665983D01*
X3663483Y-7665983D01*
X3663483Y-7719017D01*
X3716517Y-7719017D01*
X3716517Y-7919017D02*
X3716517Y-7865983D01*
X3663483Y-7865983D01*
X3663483Y-7919017D01*
X3716517Y-7919017D01*
X3716517Y-8119017D02*
X3716517Y-8065983D01*
X3663483Y-8065983D01*
X3663483Y-8119017D01*
X3716517Y-8119017D01*
X5271517Y-7726517D02*
X5271517Y-7673483D01*
X5218483Y-7673483D01*
X5218483Y-7726517D01*
X5271517Y-7726517D01*
X5271517Y-7926517D02*
X5271517Y-7873483D01*
X5218483Y-7873483D01*
X5218483Y-7926517D01*
X5271517Y-7926517D01*
X5271517Y-8126517D02*
X5271517Y-8073483D01*
X5218483Y-8073483D01*
X5218483Y-8126517D01*
X5271517Y-8126517D01*
X5271517Y-8326517D02*
X5271517Y-8273483D01*
X5218483Y-8273483D01*
X5218483Y-8326517D01*
X5271517Y-8326517D01*
X5871517Y-7726517D02*
X5871517Y-7673483D01*
X5818483Y-7673483D01*
X5818483Y-7726517D01*
X5871517Y-7726517D01*
X5871517Y-7926517D02*
X5871517Y-7873483D01*
X5818483Y-7873483D01*
X5818483Y-7926517D01*
X5871517Y-7926517D01*
X5871517Y-8126517D02*
X5871517Y-8073483D01*
X5818483Y-8073483D01*
X5818483Y-8126517D01*
X5871517Y-8126517D01*
X5871517Y-8326517D02*
X5871517Y-8273483D01*
X5818483Y-8273483D01*
X5818483Y-8326517D01*
X5871517Y-8326517D01*
X6471517Y-7726517D02*
X6471517Y-7673483D01*
X6418483Y-7673483D01*
X6418483Y-7726517D01*
X6471517Y-7726517D01*
X6471517Y-7926517D02*
X6471517Y-7873483D01*
X6418483Y-7873483D01*
X6418483Y-7926517D01*
X6471517Y-7926517D01*
X6471517Y-8126517D02*
X6471517Y-8073483D01*
X6418483Y-8073483D01*
X6418483Y-8126517D01*
X6471517Y-8126517D01*
X6471517Y-8326517D02*
X6471517Y-8273483D01*
X6418483Y-8273483D01*
X6418483Y-8326517D01*
X6471517Y-8326517D01*
X7071517Y-5739017D02*
X7071517Y-5685983D01*
X7018483Y-5685983D01*
X7018483Y-5739017D01*
X7071517Y-5739017D01*
X7071517Y-5939017D02*
X7071517Y-5885983D01*
X7018483Y-5885983D01*
X7018483Y-5939017D01*
X7071517Y-5939017D01*
X7071517Y-6459017D02*
X7071517Y-6405983D01*
X7018483Y-6405983D01*
X7018483Y-6459017D01*
X7071517Y-6459017D01*
X7071517Y-6659017D02*
X7071517Y-6605983D01*
X7018483Y-6605983D01*
X7018483Y-6659017D01*
X7071517Y-6659017D01*
X7071517Y-6859017D02*
X7071517Y-6805983D01*
X7018483Y-6805983D01*
X7018483Y-6859017D01*
X7071517Y-6859017D01*
X7071517Y-7059017D02*
X7071517Y-7005983D01*
X7018483Y-7005983D01*
X7018483Y-7059017D01*
X7071517Y-7059017D01*
X7071517Y-7259017D02*
X7071517Y-7205983D01*
X7018483Y-7205983D01*
X7018483Y-7259017D01*
X7071517Y-7259017D01*
X7071517Y-7459017D02*
X7071517Y-7405983D01*
X7018483Y-7405983D01*
X7018483Y-7459017D01*
X7071517Y-7459017D01*
D15*
X4191500Y-8159489D02*
X4231500Y-8119489D01*
X4191500Y-8079489D01*
X4151500Y-8119489D01*
X4191500Y-8159489D01*
X4191500Y-8359489D02*
X4231500Y-8319489D01*
X4191500Y-8279489D01*
X4151500Y-8319489D01*
X4191500Y-8359489D01*
X4463500Y-8647000D02*
X4503500Y-8607000D01*
X4463500Y-8567000D01*
X4423500Y-8607000D01*
X4463500Y-8647000D01*
X4463500Y-8847000D02*
X4503500Y-8807000D01*
X4463500Y-8767000D01*
X4423500Y-8807000D01*
X4463500Y-8847000D01*
X4817500Y-6517000D02*
X4857500Y-6477000D01*
X4817500Y-6437000D01*
X4777500Y-6477000D01*
X4817500Y-6517000D01*
X5191989Y-8984000D02*
X5231989Y-8944000D01*
X5191989Y-8904000D01*
X5151989Y-8944000D01*
X5191989Y-8984000D01*
X5305500Y-6517000D02*
X5345500Y-6477000D01*
X5305500Y-6437000D01*
X5265500Y-6477000D01*
X5305500Y-6517000D01*
X5391989Y-8984000D02*
X5431989Y-8944000D01*
X5391989Y-8904000D01*
X5351989Y-8944000D01*
X5391989Y-8984000D01*
X5853500Y-8883000D02*
X5893500Y-8843000D01*
X5853500Y-8803000D01*
X5813500Y-8843000D01*
X5853500Y-8883000D01*
X5853500Y-9083000D02*
X5893500Y-9043000D01*
X5853500Y-9003000D01*
X5813500Y-9043000D01*
X5853500Y-9083000D01*
D16*
X3496000Y-2462500D02*
X3596000Y-2562500D01*
X3596000Y-2462500D02*
X3496000Y-2562500D01*
X3596000Y-2512500D02*
G75*
G03*
X3596000Y-2512500I-50000J0D01*
G01*
X3496000Y-2716500D02*
X3596000Y-2816500D01*
X3596000Y-2716500D02*
X3496000Y-2816500D01*
X3596000Y-2766500D02*
G75*
G03*
X3596000Y-2766500I-50000J0D01*
G01*
X3496000Y-2970500D02*
X3596000Y-3070500D01*
X3596000Y-2970500D02*
X3496000Y-3070500D01*
X3596000Y-3020500D02*
G75*
G03*
X3596000Y-3020500I-50000J0D01*
G01*
X3496000Y-3224500D02*
X3596000Y-3324500D01*
X3596000Y-3224500D02*
X3496000Y-3324500D01*
X3596000Y-3274500D02*
G75*
G03*
X3596000Y-3274500I-50000J0D01*
G01*
X3496000Y-3478500D02*
X3596000Y-3578500D01*
X3596000Y-3478500D02*
X3496000Y-3578500D01*
X3596000Y-3528500D02*
G75*
G03*
X3596000Y-3528500I-50000J0D01*
G01*
X3496000Y-3732500D02*
X3596000Y-3832500D01*
X3596000Y-3732500D02*
X3496000Y-3832500D01*
X3596000Y-3782500D02*
G75*
G03*
X3596000Y-3782500I-50000J0D01*
G01*
X3496000Y-3986500D02*
X3596000Y-4086500D01*
X3596000Y-3986500D02*
X3496000Y-4086500D01*
X3596000Y-4036500D02*
G75*
G03*
X3596000Y-4036500I-50000J0D01*
G01*
X3496000Y-4240500D02*
X3596000Y-4340500D01*
X3596000Y-4240500D02*
X3496000Y-4340500D01*
X3596000Y-4290500D02*
G75*
G03*
X3596000Y-4290500I-50000J0D01*
G01*
X3496000Y-4494500D02*
X3596000Y-4594500D01*
X3596000Y-4494500D02*
X3496000Y-4594500D01*
X3596000Y-4544500D02*
G75*
G03*
X3596000Y-4544500I-50000J0D01*
G01*
X3496000Y-4748500D02*
X3596000Y-4848500D01*
X3596000Y-4748500D02*
X3496000Y-4848500D01*
X3596000Y-4798500D02*
G75*
G03*
X3596000Y-4798500I-50000J0D01*
G01*
X3496000Y-5002500D02*
X3596000Y-5102500D01*
X3596000Y-5002500D02*
X3496000Y-5102500D01*
X3596000Y-5052500D02*
G75*
G03*
X3596000Y-5052500I-50000J0D01*
G01*
X3496000Y-5256500D02*
X3596000Y-5356500D01*
X3596000Y-5256500D02*
X3496000Y-5356500D01*
X3596000Y-5306500D02*
G75*
G03*
X3596000Y-5306500I-50000J0D01*
G01*
X3496000Y-5510500D02*
X3596000Y-5610500D01*
X3596000Y-5510500D02*
X3496000Y-5610500D01*
X3596000Y-5560500D02*
G75*
G03*
X3596000Y-5560500I-50000J0D01*
G01*
X3496000Y-5764500D02*
X3596000Y-5864500D01*
X3596000Y-5764500D02*
X3496000Y-5864500D01*
X3596000Y-5814500D02*
G75*
G03*
X3596000Y-5814500I-50000J0D01*
G01*
X3496000Y-6018500D02*
X3596000Y-6118500D01*
X3596000Y-6018500D02*
X3496000Y-6118500D01*
X3596000Y-6068500D02*
G75*
G03*
X3596000Y-6068500I-50000J0D01*
G01*
X3496000Y-6272500D02*
X3596000Y-6372500D01*
X3596000Y-6272500D02*
X3496000Y-6372500D01*
X3596000Y-6322500D02*
G75*
G03*
X3596000Y-6322500I-50000J0D01*
G01*
X3496000Y-6526500D02*
X3596000Y-6626500D01*
X3596000Y-6526500D02*
X3496000Y-6626500D01*
X3596000Y-6576500D02*
G75*
G03*
X3596000Y-6576500I-50000J0D01*
G01*
X3496000Y-6780500D02*
X3596000Y-6880500D01*
X3596000Y-6780500D02*
X3496000Y-6880500D01*
X3596000Y-6830500D02*
G75*
G03*
X3596000Y-6830500I-50000J0D01*
G01*
X3496000Y-7034500D02*
X3596000Y-7134500D01*
X3596000Y-7034500D02*
X3496000Y-7134500D01*
X3596000Y-7084500D02*
G75*
G03*
X3596000Y-7084500I-50000J0D01*
G01*
X3702000Y-9786000D02*
X3802000Y-9886000D01*
X3802000Y-9786000D02*
X3702000Y-9886000D01*
X3802000Y-9836000D02*
G75*
G03*
X3802000Y-9836000I-50000J0D01*
G01*
X3750000Y-2462500D02*
X3850000Y-2562500D01*
X3850000Y-2462500D02*
X3750000Y-2562500D01*
X3850000Y-2512500D02*
G75*
G03*
X3850000Y-2512500I-50000J0D01*
G01*
X3750000Y-2716500D02*
X3850000Y-2816500D01*
X3850000Y-2716500D02*
X3750000Y-2816500D01*
X3850000Y-2766500D02*
G75*
G03*
X3850000Y-2766500I-50000J0D01*
G01*
X3750000Y-2970500D02*
X3850000Y-3070500D01*
X3850000Y-2970500D02*
X3750000Y-3070500D01*
X3850000Y-3020500D02*
G75*
G03*
X3850000Y-3020500I-50000J0D01*
G01*
X3750000Y-3224500D02*
X3850000Y-3324500D01*
X3850000Y-3224500D02*
X3750000Y-3324500D01*
X3850000Y-3274500D02*
G75*
G03*
X3850000Y-3274500I-50000J0D01*
G01*
X3750000Y-3478500D02*
X3850000Y-3578500D01*
X3850000Y-3478500D02*
X3750000Y-3578500D01*
X3850000Y-3528500D02*
G75*
G03*
X3850000Y-3528500I-50000J0D01*
G01*
X3750000Y-3732500D02*
X3850000Y-3832500D01*
X3850000Y-3732500D02*
X3750000Y-3832500D01*
X3850000Y-3782500D02*
G75*
G03*
X3850000Y-3782500I-50000J0D01*
G01*
X3750000Y-3986500D02*
X3850000Y-4086500D01*
X3850000Y-3986500D02*
X3750000Y-4086500D01*
X3850000Y-4036500D02*
G75*
G03*
X3850000Y-4036500I-50000J0D01*
G01*
X3750000Y-4240500D02*
X3850000Y-4340500D01*
X3850000Y-4240500D02*
X3750000Y-4340500D01*
X3850000Y-4290500D02*
G75*
G03*
X3850000Y-4290500I-50000J0D01*
G01*
X3750000Y-4494500D02*
X3850000Y-4594500D01*
X3850000Y-4494500D02*
X3750000Y-4594500D01*
X3850000Y-4544500D02*
G75*
G03*
X3850000Y-4544500I-50000J0D01*
G01*
X3750000Y-4748500D02*
X3850000Y-4848500D01*
X3850000Y-4748500D02*
X3750000Y-4848500D01*
X3850000Y-4798500D02*
G75*
G03*
X3850000Y-4798500I-50000J0D01*
G01*
X3750000Y-5002500D02*
X3850000Y-5102500D01*
X3850000Y-5002500D02*
X3750000Y-5102500D01*
X3850000Y-5052500D02*
G75*
G03*
X3850000Y-5052500I-50000J0D01*
G01*
X3750000Y-5256500D02*
X3850000Y-5356500D01*
X3850000Y-5256500D02*
X3750000Y-5356500D01*
X3850000Y-5306500D02*
G75*
G03*
X3850000Y-5306500I-50000J0D01*
G01*
X3750000Y-5510500D02*
X3850000Y-5610500D01*
X3850000Y-5510500D02*
X3750000Y-5610500D01*
X3850000Y-5560500D02*
G75*
G03*
X3850000Y-5560500I-50000J0D01*
G01*
X3750000Y-5764500D02*
X3850000Y-5864500D01*
X3850000Y-5764500D02*
X3750000Y-5864500D01*
X3850000Y-5814500D02*
G75*
G03*
X3850000Y-5814500I-50000J0D01*
G01*
X3750000Y-6018500D02*
X3850000Y-6118500D01*
X3850000Y-6018500D02*
X3750000Y-6118500D01*
X3850000Y-6068500D02*
G75*
G03*
X3850000Y-6068500I-50000J0D01*
G01*
X3750000Y-6272500D02*
X3850000Y-6372500D01*
X3850000Y-6272500D02*
X3750000Y-6372500D01*
X3850000Y-6322500D02*
G75*
G03*
X3850000Y-6322500I-50000J0D01*
G01*
X3750000Y-6526500D02*
X3850000Y-6626500D01*
X3850000Y-6526500D02*
X3750000Y-6626500D01*
X3850000Y-6576500D02*
G75*
G03*
X3850000Y-6576500I-50000J0D01*
G01*
X3750000Y-6780500D02*
X3850000Y-6880500D01*
X3850000Y-6780500D02*
X3750000Y-6880500D01*
X3850000Y-6830500D02*
G75*
G03*
X3850000Y-6830500I-50000J0D01*
G01*
X3750000Y-7034500D02*
X3850000Y-7134500D01*
X3850000Y-7034500D02*
X3750000Y-7134500D01*
X3850000Y-7084500D02*
G75*
G03*
X3850000Y-7084500I-50000J0D01*
G01*
X3956000Y-9786000D02*
X4056000Y-9886000D01*
X4056000Y-9786000D02*
X3956000Y-9886000D01*
X4056000Y-9836000D02*
G75*
G03*
X4056000Y-9836000I-50000J0D01*
G01*
X4252500Y-2457500D02*
X4352500Y-2557500D01*
X4352500Y-2457500D02*
X4252500Y-2557500D01*
X4352500Y-2507500D02*
G75*
G03*
X4352500Y-2507500I-50000J0D01*
G01*
X4506500Y-2457500D02*
X4606500Y-2557500D01*
X4606500Y-2457500D02*
X4506500Y-2557500D01*
X4606500Y-2507500D02*
G75*
G03*
X4606500Y-2507500I-50000J0D01*
G01*
X4835500Y-9786000D02*
X4935500Y-9886000D01*
X4935500Y-9786000D02*
X4835500Y-9886000D01*
X4935500Y-9836000D02*
G75*
G03*
X4935500Y-9836000I-50000J0D01*
G01*
X5089500Y-9786000D02*
X5189500Y-9886000D01*
X5189500Y-9786000D02*
X5089500Y-9886000D01*
X5189500Y-9836000D02*
G75*
G03*
X5189500Y-9836000I-50000J0D01*
G01*
X5506000Y-2462500D02*
X5606000Y-2562500D01*
X5606000Y-2462500D02*
X5506000Y-2562500D01*
X5606000Y-2512500D02*
G75*
G03*
X5606000Y-2512500I-50000J0D01*
G01*
X5760000Y-2462500D02*
X5860000Y-2562500D01*
X5860000Y-2462500D02*
X5760000Y-2562500D01*
X5860000Y-2512500D02*
G75*
G03*
X5860000Y-2512500I-50000J0D01*
G01*
X6001000Y-9786000D02*
X6101000Y-9886000D01*
X6101000Y-9786000D02*
X6001000Y-9886000D01*
X6101000Y-9836000D02*
G75*
G03*
X6101000Y-9836000I-50000J0D01*
G01*
X6255000Y-9786000D02*
X6355000Y-9886000D01*
X6355000Y-9786000D02*
X6255000Y-9886000D01*
X6355000Y-9836000D02*
G75*
G03*
X6355000Y-9836000I-50000J0D01*
G01*
X6290000Y-2462500D02*
X6390000Y-2562500D01*
X6390000Y-2462500D02*
X6290000Y-2562500D01*
X6390000Y-2512500D02*
G75*
G03*
X6390000Y-2512500I-50000J0D01*
G01*
X6290000Y-2716500D02*
X6390000Y-2816500D01*
X6390000Y-2716500D02*
X6290000Y-2816500D01*
X6390000Y-2766500D02*
G75*
G03*
X6390000Y-2766500I-50000J0D01*
G01*
X6290000Y-2970500D02*
X6390000Y-3070500D01*
X6390000Y-2970500D02*
X6290000Y-3070500D01*
X6390000Y-3020500D02*
G75*
G03*
X6390000Y-3020500I-50000J0D01*
G01*
X6290000Y-3224500D02*
X6390000Y-3324500D01*
X6390000Y-3224500D02*
X6290000Y-3324500D01*
X6390000Y-3274500D02*
G75*
G03*
X6390000Y-3274500I-50000J0D01*
G01*
X6290000Y-3478500D02*
X6390000Y-3578500D01*
X6390000Y-3478500D02*
X6290000Y-3578500D01*
X6390000Y-3528500D02*
G75*
G03*
X6390000Y-3528500I-50000J0D01*
G01*
X6290000Y-3732500D02*
X6390000Y-3832500D01*
X6390000Y-3732500D02*
X6290000Y-3832500D01*
X6390000Y-3782500D02*
G75*
G03*
X6390000Y-3782500I-50000J0D01*
G01*
X6290000Y-3986500D02*
X6390000Y-4086500D01*
X6390000Y-3986500D02*
X6290000Y-4086500D01*
X6390000Y-4036500D02*
G75*
G03*
X6390000Y-4036500I-50000J0D01*
G01*
X6290000Y-4240500D02*
X6390000Y-4340500D01*
X6390000Y-4240500D02*
X6290000Y-4340500D01*
X6390000Y-4290500D02*
G75*
G03*
X6390000Y-4290500I-50000J0D01*
G01*
X6290000Y-4494500D02*
X6390000Y-4594500D01*
X6390000Y-4494500D02*
X6290000Y-4594500D01*
X6390000Y-4544500D02*
G75*
G03*
X6390000Y-4544500I-50000J0D01*
G01*
X6290000Y-4748500D02*
X6390000Y-4848500D01*
X6390000Y-4748500D02*
X6290000Y-4848500D01*
X6390000Y-4798500D02*
G75*
G03*
X6390000Y-4798500I-50000J0D01*
G01*
X6290000Y-5002500D02*
X6390000Y-5102500D01*
X6390000Y-5002500D02*
X6290000Y-5102500D01*
X6390000Y-5052500D02*
G75*
G03*
X6390000Y-5052500I-50000J0D01*
G01*
X6290000Y-5256500D02*
X6390000Y-5356500D01*
X6390000Y-5256500D02*
X6290000Y-5356500D01*
X6390000Y-5306500D02*
G75*
G03*
X6390000Y-5306500I-50000J0D01*
G01*
X6290000Y-5510500D02*
X6390000Y-5610500D01*
X6390000Y-5510500D02*
X6290000Y-5610500D01*
X6390000Y-5560500D02*
G75*
G03*
X6390000Y-5560500I-50000J0D01*
G01*
X6290000Y-5764500D02*
X6390000Y-5864500D01*
X6390000Y-5764500D02*
X6290000Y-5864500D01*
X6390000Y-5814500D02*
G75*
G03*
X6390000Y-5814500I-50000J0D01*
G01*
X6290000Y-6018500D02*
X6390000Y-6118500D01*
X6390000Y-6018500D02*
X6290000Y-6118500D01*
X6390000Y-6068500D02*
G75*
G03*
X6390000Y-6068500I-50000J0D01*
G01*
X6290000Y-6272500D02*
X6390000Y-6372500D01*
X6390000Y-6272500D02*
X6290000Y-6372500D01*
X6390000Y-6322500D02*
G75*
G03*
X6390000Y-6322500I-50000J0D01*
G01*
X6290000Y-6526500D02*
X6390000Y-6626500D01*
X6390000Y-6526500D02*
X6290000Y-6626500D01*
X6390000Y-6576500D02*
G75*
G03*
X6390000Y-6576500I-50000J0D01*
G01*
X6290000Y-6780500D02*
X6390000Y-6880500D01*
X6390000Y-6780500D02*
X6290000Y-6880500D01*
X6390000Y-6830500D02*
G75*
G03*
X6390000Y-6830500I-50000J0D01*
G01*
X6290000Y-7034500D02*
X6390000Y-7134500D01*
X6390000Y-7034500D02*
X6290000Y-7134500D01*
X6390000Y-7084500D02*
G75*
G03*
X6390000Y-7084500I-50000J0D01*
G01*
X6544000Y-2462500D02*
X6644000Y-2562500D01*
X6644000Y-2462500D02*
X6544000Y-2562500D01*
X6644000Y-2512500D02*
G75*
G03*
X6644000Y-2512500I-50000J0D01*
G01*
X6544000Y-2716500D02*
X6644000Y-2816500D01*
X6644000Y-2716500D02*
X6544000Y-2816500D01*
X6644000Y-2766500D02*
G75*
G03*
X6644000Y-2766500I-50000J0D01*
G01*
X6544000Y-2970500D02*
X6644000Y-3070500D01*
X6644000Y-2970500D02*
X6544000Y-3070500D01*
X6644000Y-3020500D02*
G75*
G03*
X6644000Y-3020500I-50000J0D01*
G01*
X6544000Y-3224500D02*
X6644000Y-3324500D01*
X6644000Y-3224500D02*
X6544000Y-3324500D01*
X6644000Y-3274500D02*
G75*
G03*
X6644000Y-3274500I-50000J0D01*
G01*
X6544000Y-3478500D02*
X6644000Y-3578500D01*
X6644000Y-3478500D02*
X6544000Y-3578500D01*
X6644000Y-3528500D02*
G75*
G03*
X6644000Y-3528500I-50000J0D01*
G01*
X6544000Y-3732500D02*
X6644000Y-3832500D01*
X6644000Y-3732500D02*
X6544000Y-3832500D01*
X6644000Y-3782500D02*
G75*
G03*
X6644000Y-3782500I-50000J0D01*
G01*
X6544000Y-3986500D02*
X6644000Y-4086500D01*
X6644000Y-3986500D02*
X6544000Y-4086500D01*
X6644000Y-4036500D02*
G75*
G03*
X6644000Y-4036500I-50000J0D01*
G01*
X6544000Y-4240500D02*
X6644000Y-4340500D01*
X6644000Y-4240500D02*
X6544000Y-4340500D01*
X6644000Y-4290500D02*
G75*
G03*
X6644000Y-4290500I-50000J0D01*
G01*
X6544000Y-4494500D02*
X6644000Y-4594500D01*
X6644000Y-4494500D02*
X6544000Y-4594500D01*
X6644000Y-4544500D02*
G75*
G03*
X6644000Y-4544500I-50000J0D01*
G01*
X6544000Y-4748500D02*
X6644000Y-4848500D01*
X6644000Y-4748500D02*
X6544000Y-4848500D01*
X6644000Y-4798500D02*
G75*
G03*
X6644000Y-4798500I-50000J0D01*
G01*
X6544000Y-5002500D02*
X6644000Y-5102500D01*
X6644000Y-5002500D02*
X6544000Y-5102500D01*
X6644000Y-5052500D02*
G75*
G03*
X6644000Y-5052500I-50000J0D01*
G01*
X6544000Y-5256500D02*
X6644000Y-5356500D01*
X6644000Y-5256500D02*
X6544000Y-5356500D01*
X6644000Y-5306500D02*
G75*
G03*
X6644000Y-5306500I-50000J0D01*
G01*
X6544000Y-5510500D02*
X6644000Y-5610500D01*
X6644000Y-5510500D02*
X6544000Y-5610500D01*
X6644000Y-5560500D02*
G75*
G03*
X6644000Y-5560500I-50000J0D01*
G01*
X6544000Y-5764500D02*
X6644000Y-5864500D01*
X6644000Y-5764500D02*
X6544000Y-5864500D01*
X6644000Y-5814500D02*
G75*
G03*
X6644000Y-5814500I-50000J0D01*
G01*
X6544000Y-6018500D02*
X6644000Y-6118500D01*
X6644000Y-6018500D02*
X6544000Y-6118500D01*
X6644000Y-6068500D02*
G75*
G03*
X6644000Y-6068500I-50000J0D01*
G01*
X6544000Y-6272500D02*
X6644000Y-6372500D01*
X6644000Y-6272500D02*
X6544000Y-6372500D01*
X6644000Y-6322500D02*
G75*
G03*
X6644000Y-6322500I-50000J0D01*
G01*
X6544000Y-6526500D02*
X6644000Y-6626500D01*
X6644000Y-6526500D02*
X6544000Y-6626500D01*
X6644000Y-6576500D02*
G75*
G03*
X6644000Y-6576500I-50000J0D01*
G01*
X6544000Y-6780500D02*
X6644000Y-6880500D01*
X6644000Y-6780500D02*
X6544000Y-6880500D01*
X6644000Y-6830500D02*
G75*
G03*
X6644000Y-6830500I-50000J0D01*
G01*
X6544000Y-7034500D02*
X6644000Y-7134500D01*
X6644000Y-7034500D02*
X6544000Y-7134500D01*
X6644000Y-7084500D02*
G75*
G03*
X6644000Y-7084500I-50000J0D01*
G01*
X7210500Y-9039000D02*
X7310500Y-9139000D01*
X7310500Y-9039000D02*
X7210500Y-9139000D01*
X7310500Y-9089000D02*
G75*
G03*
X7310500Y-9089000I-50000J0D01*
G01*
X7210500Y-9799000D02*
X7310500Y-9899000D01*
X7310500Y-9799000D02*
X7210500Y-9899000D01*
X7310500Y-9849000D02*
G75*
G03*
X7310500Y-9849000I-50000J0D01*
G01*
X8396500Y-5557000D02*
X8496500Y-5657000D01*
X8496500Y-5557000D02*
X8396500Y-5657000D01*
X8496500Y-5607000D02*
G75*
G03*
X8496500Y-5607000I-50000J0D01*
G01*
X8396500Y-6757000D02*
X8496500Y-6857000D01*
X8496500Y-6757000D02*
X8396500Y-6857000D01*
X8496500Y-6807000D02*
G75*
G03*
X8496500Y-6807000I-50000J0D01*
G01*
X8396500Y-7291000D02*
X8496500Y-7391000D01*
X8496500Y-7291000D02*
X8396500Y-7391000D01*
X8496500Y-7341000D02*
G75*
G03*
X8496500Y-7341000I-50000J0D01*
G01*
X8396500Y-8491000D02*
X8496500Y-8591000D01*
X8496500Y-8491000D02*
X8396500Y-8591000D01*
X8496500Y-8541000D02*
G75*
G03*
X8496500Y-8541000I-50000J0D01*
G01*
D17*
X6961000Y-2652500D02*
X7071000Y-2762500D01*
X7071000Y-2652500D02*
X6961000Y-2762500D01*
X7016000Y-2652500D02*
X7016000Y-2762500D01*
X6961000Y-2707500D02*
X7071000Y-2707500D01*
X7215000Y-2652500D02*
X7325000Y-2762500D01*
X7325000Y-2652500D02*
X7215000Y-2762500D01*
X7270000Y-2652500D02*
X7270000Y-2762500D01*
X7215000Y-2707500D02*
X7325000Y-2707500D01*
X7469000Y-2652500D02*
X7579000Y-2762500D01*
X7579000Y-2652500D02*
X7469000Y-2762500D01*
X7524000Y-2652500D02*
X7524000Y-2762500D01*
X7469000Y-2707500D02*
X7579000Y-2707500D01*
D18*
X8186500Y-6137000D02*
X8316500Y-6267000D01*
X8316500Y-6137000D02*
X8186500Y-6267000D01*
X8297462Y-6247962D02*
X8297462Y-6156038D01*
X8205538Y-6156038D01*
X8205538Y-6247962D01*
X8297462Y-6247962D01*
X8186500Y-7871000D02*
X8316500Y-8001000D01*
X8316500Y-7871000D02*
X8186500Y-8001000D01*
X8297462Y-7981962D02*
X8297462Y-7890038D01*
X8205538Y-7890038D01*
X8205538Y-7981962D01*
X8297462Y-7981962D01*
X8732500Y-9173000D02*
X8862500Y-9303000D01*
X8862500Y-9173000D02*
X8732500Y-9303000D01*
X8843462Y-9283962D02*
X8843462Y-9192038D01*
X8751538Y-9192038D01*
X8751538Y-9283962D01*
X8843462Y-9283962D01*
X8737500Y-10503000D02*
X8867500Y-10633000D01*
X8867500Y-10503000D02*
X8737500Y-10633000D01*
X8848462Y-10613962D02*
X8848462Y-10522038D01*
X8756538Y-10522038D01*
X8756538Y-10613962D01*
X8848462Y-10613962D01*
X9372500Y-9178000D02*
X9502500Y-9308000D01*
X9502500Y-9178000D02*
X9372500Y-9308000D01*
X9483462Y-9288962D02*
X9483462Y-9197038D01*
X9391538Y-9197038D01*
X9391538Y-9288962D01*
X9483462Y-9288962D01*
X9372500Y-10503000D02*
X9502500Y-10633000D01*
X9502500Y-10503000D02*
X9372500Y-10633000D01*
X9483462Y-10613962D02*
X9483462Y-10522038D01*
X9391538Y-10522038D01*
X9391538Y-10613962D01*
X9483462Y-10613962D01*
X9601500Y-6742000D02*
X9731500Y-6872000D01*
X9731500Y-6742000D02*
X9601500Y-6872000D01*
X9712462Y-6852962D02*
X9712462Y-6761038D01*
X9620538Y-6761038D01*
X9620538Y-6852962D01*
X9712462Y-6852962D01*
X9601500Y-8476000D02*
X9731500Y-8606000D01*
X9731500Y-8476000D02*
X9601500Y-8606000D01*
X9712462Y-8586962D02*
X9712462Y-8495038D01*
X9620538Y-8495038D01*
X9620538Y-8586962D01*
X9712462Y-8586962D01*
X9606500Y-5537000D02*
X9736500Y-5667000D01*
X9736500Y-5537000D02*
X9606500Y-5667000D01*
X9717462Y-5647962D02*
X9717462Y-5556038D01*
X9625538Y-5556038D01*
X9625538Y-5647962D01*
X9717462Y-5647962D01*
X9606500Y-7271000D02*
X9736500Y-7401000D01*
X9736500Y-7271000D02*
X9606500Y-7401000D01*
X9717462Y-7381962D02*
X9717462Y-7290038D01*
X9625538Y-7290038D01*
X9625538Y-7381962D01*
X9717462Y-7381962D01*
X10002500Y-9173000D02*
X10132500Y-9303000D01*
X10132500Y-9173000D02*
X10002500Y-9303000D01*
X10113462Y-9283962D02*
X10113462Y-9192038D01*
X10021538Y-9192038D01*
X10021538Y-9283962D01*
X10113462Y-9283962D01*
X10002500Y-10503000D02*
X10132500Y-10633000D01*
X10132500Y-10503000D02*
X10002500Y-10633000D01*
X10113462Y-10613962D02*
X10113462Y-10522038D01*
X10021538Y-10522038D01*
X10021538Y-10613962D01*
X10113462Y-10613962D01*
X10427500Y-10503000D02*
X10557500Y-10633000D01*
X10557500Y-10503000D02*
X10427500Y-10633000D01*
X10538462Y-10613962D02*
X10538462Y-10522038D01*
X10446538Y-10522038D01*
X10446538Y-10613962D01*
X10538462Y-10613962D01*
X10432500Y-9173000D02*
X10562500Y-9303000D01*
X10562500Y-9173000D02*
X10432500Y-9303000D01*
X10543462Y-9283962D02*
X10543462Y-9192038D01*
X10451538Y-9192038D01*
X10451538Y-9283962D01*
X10543462Y-9283962D01*
D19*
X11751500Y-3256500D02*
X11883500Y-3388500D01*
X11883500Y-3256500D02*
X11751500Y-3388500D01*
X11817500Y-3388500D02*
X11883500Y-3322500D01*
X11817500Y-3256500D01*
X11751500Y-3322500D01*
X11817500Y-3388500D01*
X11751500Y-3756500D02*
X11883500Y-3888500D01*
X11883500Y-3756500D02*
X11751500Y-3888500D01*
X11817500Y-3888500D02*
X11883500Y-3822500D01*
X11817500Y-3756500D01*
X11751500Y-3822500D01*
X11817500Y-3888500D01*
X11751500Y-4256500D02*
X11883500Y-4388500D01*
X11883500Y-4256500D02*
X11751500Y-4388500D01*
X11817500Y-4388500D02*
X11883500Y-4322500D01*
X11817500Y-4256500D01*
X11751500Y-4322500D01*
X11817500Y-4388500D01*
X11751500Y-4756500D02*
X11883500Y-4888500D01*
X11883500Y-4756500D02*
X11751500Y-4888500D01*
X11817500Y-4888500D02*
X11883500Y-4822500D01*
X11817500Y-4756500D01*
X11751500Y-4822500D01*
X11817500Y-4888500D01*
X11751500Y-5256500D02*
X11883500Y-5388500D01*
X11883500Y-5256500D02*
X11751500Y-5388500D01*
X11817500Y-5388500D02*
X11883500Y-5322500D01*
X11817500Y-5256500D01*
X11751500Y-5322500D01*
X11817500Y-5388500D01*
X11751500Y-5756500D02*
X11883500Y-5888500D01*
X11883500Y-5756500D02*
X11751500Y-5888500D01*
X11817500Y-5888500D02*
X11883500Y-5822500D01*
X11817500Y-5756500D01*
X11751500Y-5822500D01*
X11817500Y-5888500D01*
X11751500Y-6256500D02*
X11883500Y-6388500D01*
X11883500Y-6256500D02*
X11751500Y-6388500D01*
X11817500Y-6388500D02*
X11883500Y-6322500D01*
X11817500Y-6256500D01*
X11751500Y-6322500D01*
X11817500Y-6388500D01*
X11751500Y-6756500D02*
X11883500Y-6888500D01*
X11883500Y-6756500D02*
X11751500Y-6888500D01*
X11817500Y-6888500D02*
X11883500Y-6822500D01*
X11817500Y-6756500D01*
X11751500Y-6822500D01*
X11817500Y-6888500D01*
X11751500Y-7256500D02*
X11883500Y-7388500D01*
X11883500Y-7256500D02*
X11751500Y-7388500D01*
X11817500Y-7388500D02*
X11883500Y-7322500D01*
X11817500Y-7256500D01*
X11751500Y-7322500D01*
X11817500Y-7388500D01*
X11751500Y-7756500D02*
X11883500Y-7888500D01*
X11883500Y-7756500D02*
X11751500Y-7888500D01*
X11817500Y-7888500D02*
X11883500Y-7822500D01*
X11817500Y-7756500D01*
X11751500Y-7822500D01*
X11817500Y-7888500D01*
X11751500Y-8256500D02*
X11883500Y-8388500D01*
X11883500Y-8256500D02*
X11751500Y-8388500D01*
X11817500Y-8388500D02*
X11883500Y-8322500D01*
X11817500Y-8256500D01*
X11751500Y-8322500D01*
X11817500Y-8388500D01*
X11751500Y-8756500D02*
X11883500Y-8888500D01*
X11883500Y-8756500D02*
X11751500Y-8888500D01*
X11817500Y-8888500D02*
X11883500Y-8822500D01*
X11817500Y-8756500D01*
X11751500Y-8822500D01*
X11817500Y-8888500D01*
X11751500Y-9256500D02*
X11883500Y-9388500D01*
X11883500Y-9256500D02*
X11751500Y-9388500D01*
X11817500Y-9388500D02*
X11883500Y-9322500D01*
X11817500Y-9256500D01*
X11751500Y-9322500D01*
X11817500Y-9388500D01*
X11751500Y-9756500D02*
X11883500Y-9888500D01*
X11883500Y-9756500D02*
X11751500Y-9888500D01*
X11817500Y-9888500D02*
X11883500Y-9822500D01*
X11817500Y-9756500D01*
X11751500Y-9822500D01*
X11817500Y-9888500D01*
X11751500Y-10256500D02*
X11883500Y-10388500D01*
X11883500Y-10256500D02*
X11751500Y-10388500D01*
X11817500Y-10388500D02*
X11883500Y-10322500D01*
X11817500Y-10256500D01*
X11751500Y-10322500D01*
X11817500Y-10388500D01*
X11751500Y-10756500D02*
X11883500Y-10888500D01*
X11883500Y-10756500D02*
X11751500Y-10888500D01*
X11817500Y-10888500D02*
X11883500Y-10822500D01*
X11817500Y-10756500D01*
X11751500Y-10822500D01*
X11817500Y-10888500D01*
D20*
X8522500Y-2492500D02*
X8522500Y-2642500D01*
X8447500Y-2567500D02*
X8597500Y-2567500D01*
X8597500Y-2567500D02*
G75*
G03*
X8597500Y-2567500I-75000J0D01*
G01*
X8522500Y-11446000D02*
X8522500Y-11596000D01*
X8447500Y-11521000D02*
X8597500Y-11521000D01*
X8597500Y-11521000D02*
G75*
G03*
X8597500Y-11521000I-75000J0D01*
G01*
X10640900Y-5826700D02*
X10640900Y-5976700D01*
X10565900Y-5901700D02*
X10715900Y-5901700D01*
X10715900Y-5901700D02*
G75*
G03*
X10715900Y-5901700I-75000J0D01*
G01*
X10640900Y-8086700D02*
X10640900Y-8236700D01*
X10565900Y-8161700D02*
X10715900Y-8161700D01*
X10715900Y-8161700D02*
G75*
G03*
X10715900Y-8161700I-75000J0D01*
G01*
X10782500Y-2492500D02*
X10782500Y-2642500D01*
X10707500Y-2567500D02*
X10857500Y-2567500D01*
X10857500Y-2567500D02*
G75*
G03*
X10857500Y-2567500I-75000J0D01*
G01*
X10782500Y-11446000D02*
X10782500Y-11596000D01*
X10707500Y-11521000D02*
X10857500Y-11521000D01*
X10857500Y-11521000D02*
G75*
G03*
X10857500Y-11521000I-75000J0D01*
G01*
D11*
X3551356Y-12317716D02*
X3551356Y-12117716D01*
X3598975Y-12117716D01*
X3627546Y-12127240D01*
X3646594Y-12146287D01*
X3656118Y-12165335D01*
X3665642Y-12203430D01*
X3665642Y-12232002D01*
X3656118Y-12270097D01*
X3646594Y-12289144D01*
X3627546Y-12308192D01*
X3598975Y-12317716D01*
X3551356Y-12317716D01*
X3751356Y-12317716D02*
X3751356Y-12184382D01*
X3751356Y-12222478D02*
X3760880Y-12203430D01*
X3770403Y-12193906D01*
X3789451Y-12184382D01*
X3808499Y-12184382D01*
X3875165Y-12317716D02*
X3875165Y-12184382D01*
X3875165Y-12117716D02*
X3865642Y-12127240D01*
X3875165Y-12136763D01*
X3884689Y-12127240D01*
X3875165Y-12117716D01*
X3875165Y-12136763D01*
X3998975Y-12317716D02*
X3979927Y-12308192D01*
X3970403Y-12289144D01*
X3970403Y-12117716D01*
X4103737Y-12317716D02*
X4084689Y-12308192D01*
X4075165Y-12289144D01*
X4075165Y-12117716D01*
X4332308Y-12317716D02*
X4332308Y-12117716D01*
X4398975Y-12260573D01*
X4465642Y-12117716D01*
X4465642Y-12317716D01*
X4646594Y-12317716D02*
X4646594Y-12212954D01*
X4637070Y-12193906D01*
X4618023Y-12184382D01*
X4579927Y-12184382D01*
X4560880Y-12193906D01*
X4646594Y-12308192D02*
X4627546Y-12317716D01*
X4579927Y-12317716D01*
X4560880Y-12308192D01*
X4551356Y-12289144D01*
X4551356Y-12270097D01*
X4560880Y-12251049D01*
X4579927Y-12241525D01*
X4627546Y-12241525D01*
X4646594Y-12232002D01*
X4741832Y-12184382D02*
X4741832Y-12384382D01*
X4741832Y-12193906D02*
X4760880Y-12184382D01*
X4798975Y-12184382D01*
X4818023Y-12193906D01*
X4827546Y-12203430D01*
X4837070Y-12222478D01*
X4837070Y-12279621D01*
X4827546Y-12298668D01*
X4818023Y-12308192D01*
X4798975Y-12317716D01*
X4760880Y-12317716D01*
X4741832Y-12308192D01*
X4922785Y-12298668D02*
X4932308Y-12308192D01*
X4922785Y-12317716D01*
X4913261Y-12308192D01*
X4922785Y-12298668D01*
X4922785Y-12317716D01*
X4922785Y-12193906D02*
X4932308Y-12203430D01*
X4922785Y-12212954D01*
X4913261Y-12203430D01*
X4922785Y-12193906D01*
X4922785Y-12212954D01*
D12*
X3253737Y-12627240D02*
X3293737Y-12667240D01*
X3293737Y-12627240D02*
X3253737Y-12667240D01*
D11*
X3589451Y-12537716D02*
X3608499Y-12537716D01*
X3627546Y-12547240D01*
X3637070Y-12556763D01*
X3646594Y-12575811D01*
X3656118Y-12613906D01*
X3656118Y-12661525D01*
X3646594Y-12699621D01*
X3637070Y-12718668D01*
X3627546Y-12728192D01*
X3608499Y-12737716D01*
X3589451Y-12737716D01*
X3570403Y-12728192D01*
X3560880Y-12718668D01*
X3551356Y-12699621D01*
X3541832Y-12661525D01*
X3541832Y-12613906D01*
X3551356Y-12575811D01*
X3560880Y-12556763D01*
X3570403Y-12547240D01*
X3589451Y-12537716D01*
X3741832Y-12718668D02*
X3751356Y-12728192D01*
X3741832Y-12737716D01*
X3732308Y-12728192D01*
X3741832Y-12718668D01*
X3741832Y-12737716D01*
X3922784Y-12604382D02*
X3922784Y-12737716D01*
X3875165Y-12528192D02*
X3827546Y-12671049D01*
X3951356Y-12671049D01*
X4065642Y-12537716D02*
X4084689Y-12537716D01*
X4103737Y-12547240D01*
X4113261Y-12556763D01*
X4122784Y-12575811D01*
X4132308Y-12613906D01*
X4132308Y-12661525D01*
X4122784Y-12699621D01*
X4113261Y-12718668D01*
X4103737Y-12728192D01*
X4084689Y-12737716D01*
X4065642Y-12737716D01*
X4046594Y-12728192D01*
X4037070Y-12718668D01*
X4027546Y-12699621D01*
X4018023Y-12661525D01*
X4018023Y-12613906D01*
X4027546Y-12575811D01*
X4037070Y-12556763D01*
X4046594Y-12547240D01*
X4065642Y-12537716D01*
X4256118Y-12537716D02*
X4275165Y-12537716D01*
X4294213Y-12547240D01*
X4303737Y-12556763D01*
X4313261Y-12575811D01*
X4322785Y-12613906D01*
X4322785Y-12661525D01*
X4313261Y-12699621D01*
X4303737Y-12718668D01*
X4294213Y-12728192D01*
X4275165Y-12737716D01*
X4256118Y-12737716D01*
X4237070Y-12728192D01*
X4227546Y-12718668D01*
X4218023Y-12699621D01*
X4208499Y-12661525D01*
X4208499Y-12613906D01*
X4218023Y-12575811D01*
X4227546Y-12556763D01*
X4237070Y-12547240D01*
X4256118Y-12537716D01*
X4408499Y-12737716D02*
X4408499Y-12604382D01*
X4408499Y-12623430D02*
X4418023Y-12613906D01*
X4437070Y-12604382D01*
X4465642Y-12604382D01*
X4484689Y-12613906D01*
X4494213Y-12632954D01*
X4494213Y-12737716D01*
X4494213Y-12632954D02*
X4503737Y-12613906D01*
X4522785Y-12604382D01*
X4551356Y-12604382D01*
X4570404Y-12613906D01*
X4579927Y-12632954D01*
X4579927Y-12737716D01*
X4675165Y-12737716D02*
X4675165Y-12604382D01*
X4675165Y-12623430D02*
X4684689Y-12613906D01*
X4703737Y-12604382D01*
X4732308Y-12604382D01*
X4751356Y-12613906D01*
X4760880Y-12632954D01*
X4760880Y-12737716D01*
X4760880Y-12632954D02*
X4770404Y-12613906D01*
X4789451Y-12604382D01*
X4818023Y-12604382D01*
X4837070Y-12613906D01*
X4846594Y-12632954D01*
X4846594Y-12737716D01*
X5237070Y-12528192D02*
X5065642Y-12785335D01*
X5494213Y-12537716D02*
X5513261Y-12537716D01*
X5532308Y-12547240D01*
X5541832Y-12556763D01*
X5551356Y-12575811D01*
X5560880Y-12613906D01*
X5560880Y-12661525D01*
X5551356Y-12699621D01*
X5541832Y-12718668D01*
X5532308Y-12728192D01*
X5513261Y-12737716D01*
X5494213Y-12737716D01*
X5475165Y-12728192D01*
X5465642Y-12718668D01*
X5456118Y-12699621D01*
X5446594Y-12661525D01*
X5446594Y-12613906D01*
X5456118Y-12575811D01*
X5465642Y-12556763D01*
X5475165Y-12547240D01*
X5494213Y-12537716D01*
X5646594Y-12718668D02*
X5656118Y-12728192D01*
X5646594Y-12737716D01*
X5637070Y-12728192D01*
X5646594Y-12718668D01*
X5646594Y-12737716D01*
X5779927Y-12537716D02*
X5798975Y-12537716D01*
X5818023Y-12547240D01*
X5827546Y-12556763D01*
X5837070Y-12575811D01*
X5846594Y-12613906D01*
X5846594Y-12661525D01*
X5837070Y-12699621D01*
X5827546Y-12718668D01*
X5818023Y-12728192D01*
X5798975Y-12737716D01*
X5779927Y-12737716D01*
X5760880Y-12728192D01*
X5751356Y-12718668D01*
X5741832Y-12699621D01*
X5732308Y-12661525D01*
X5732308Y-12613906D01*
X5741832Y-12575811D01*
X5751356Y-12556763D01*
X5760880Y-12547240D01*
X5779927Y-12537716D01*
X6037070Y-12737716D02*
X5922784Y-12737716D01*
X5979927Y-12737716D02*
X5979927Y-12537716D01*
X5960880Y-12566287D01*
X5941832Y-12585335D01*
X5922784Y-12594859D01*
X6218023Y-12537716D02*
X6122784Y-12537716D01*
X6113261Y-12632954D01*
X6122784Y-12623430D01*
X6141832Y-12613906D01*
X6189451Y-12613906D01*
X6208499Y-12623430D01*
X6218023Y-12632954D01*
X6227546Y-12652002D01*
X6227546Y-12699621D01*
X6218023Y-12718668D01*
X6208499Y-12728192D01*
X6189451Y-12737716D01*
X6141832Y-12737716D01*
X6122784Y-12728192D01*
X6113261Y-12718668D01*
X6294213Y-12537716D02*
X6427546Y-12537716D01*
X6341832Y-12737716D01*
X6494213Y-12537716D02*
X6494213Y-12575811D01*
X6570403Y-12537716D02*
X6570403Y-12575811D01*
X6865642Y-12813906D02*
X6856118Y-12804382D01*
X6837070Y-12775811D01*
X6827546Y-12756763D01*
X6818023Y-12728192D01*
X6808499Y-12680573D01*
X6808499Y-12642478D01*
X6818023Y-12594859D01*
X6827546Y-12566287D01*
X6837070Y-12547240D01*
X6856118Y-12518668D01*
X6865642Y-12509144D01*
X7027546Y-12604382D02*
X7027546Y-12737716D01*
X6979927Y-12528192D02*
X6932308Y-12671049D01*
X7056118Y-12671049D01*
X7122784Y-12556763D02*
X7132308Y-12547240D01*
X7151356Y-12537716D01*
X7198975Y-12537716D01*
X7218023Y-12547240D01*
X7227546Y-12556763D01*
X7237070Y-12575811D01*
X7237070Y-12594859D01*
X7227546Y-12623430D01*
X7113261Y-12737716D01*
X7237070Y-12737716D01*
X7475165Y-12737716D02*
X7475165Y-12537716D01*
X7560880Y-12737716D02*
X7560880Y-12632954D01*
X7551356Y-12613906D01*
X7532308Y-12604382D01*
X7503737Y-12604382D01*
X7484689Y-12613906D01*
X7475165Y-12623430D01*
X7684689Y-12737716D02*
X7665642Y-12728192D01*
X7656118Y-12718668D01*
X7646594Y-12699621D01*
X7646594Y-12642478D01*
X7656118Y-12623430D01*
X7665642Y-12613906D01*
X7684689Y-12604382D01*
X7713261Y-12604382D01*
X7732308Y-12613906D01*
X7741832Y-12623430D01*
X7751356Y-12642478D01*
X7751356Y-12699621D01*
X7741832Y-12718668D01*
X7732308Y-12728192D01*
X7713261Y-12737716D01*
X7684689Y-12737716D01*
X7865642Y-12737716D02*
X7846594Y-12728192D01*
X7837070Y-12709144D01*
X7837070Y-12537716D01*
X8018023Y-12728192D02*
X7998975Y-12737716D01*
X7960880Y-12737716D01*
X7941832Y-12728192D01*
X7932308Y-12709144D01*
X7932308Y-12632954D01*
X7941832Y-12613906D01*
X7960880Y-12604382D01*
X7998975Y-12604382D01*
X8018023Y-12613906D01*
X8027546Y-12632954D01*
X8027546Y-12652002D01*
X7932308Y-12671049D01*
X8103737Y-12728192D02*
X8122784Y-12737716D01*
X8160880Y-12737716D01*
X8179927Y-12728192D01*
X8189451Y-12709144D01*
X8189451Y-12699621D01*
X8179927Y-12680573D01*
X8160880Y-12671049D01*
X8132308Y-12671049D01*
X8113261Y-12661525D01*
X8103737Y-12642478D01*
X8103737Y-12632954D01*
X8113261Y-12613906D01*
X8132308Y-12604382D01*
X8160880Y-12604382D01*
X8179927Y-12613906D01*
X8256118Y-12813906D02*
X8265642Y-12804382D01*
X8284689Y-12775811D01*
X8294213Y-12756763D01*
X8303737Y-12728192D01*
X8313261Y-12680573D01*
X8313261Y-12642478D01*
X8303737Y-12594859D01*
X8294213Y-12566287D01*
X8284689Y-12547240D01*
X8265642Y-12518668D01*
X8256118Y-12509144D01*
D12*
X3293737Y-12911240D02*
G75*
G03*
X3293737Y-12911240I-20000J0D01*
G01*
D11*
X3589451Y-12801716D02*
X3608499Y-12801716D01*
X3627546Y-12811240D01*
X3637070Y-12820763D01*
X3646594Y-12839811D01*
X3656118Y-12877906D01*
X3656118Y-12925525D01*
X3646594Y-12963621D01*
X3637070Y-12982668D01*
X3627546Y-12992192D01*
X3608499Y-13001716D01*
X3589451Y-13001716D01*
X3570403Y-12992192D01*
X3560880Y-12982668D01*
X3551356Y-12963621D01*
X3541832Y-12925525D01*
X3541832Y-12877906D01*
X3551356Y-12839811D01*
X3560880Y-12820763D01*
X3570403Y-12811240D01*
X3589451Y-12801716D01*
X3741832Y-12982668D02*
X3751356Y-12992192D01*
X3741832Y-13001716D01*
X3732308Y-12992192D01*
X3741832Y-12982668D01*
X3741832Y-13001716D01*
X3922784Y-12868382D02*
X3922784Y-13001716D01*
X3875165Y-12792192D02*
X3827546Y-12935049D01*
X3951356Y-12935049D01*
X4065642Y-12801716D02*
X4084689Y-12801716D01*
X4103737Y-12811240D01*
X4113261Y-12820763D01*
X4122784Y-12839811D01*
X4132308Y-12877906D01*
X4132308Y-12925525D01*
X4122784Y-12963621D01*
X4113261Y-12982668D01*
X4103737Y-12992192D01*
X4084689Y-13001716D01*
X4065642Y-13001716D01*
X4046594Y-12992192D01*
X4037070Y-12982668D01*
X4027546Y-12963621D01*
X4018023Y-12925525D01*
X4018023Y-12877906D01*
X4027546Y-12839811D01*
X4037070Y-12820763D01*
X4046594Y-12811240D01*
X4065642Y-12801716D01*
X4256118Y-12801716D02*
X4275165Y-12801716D01*
X4294213Y-12811240D01*
X4303737Y-12820763D01*
X4313261Y-12839811D01*
X4322785Y-12877906D01*
X4322785Y-12925525D01*
X4313261Y-12963621D01*
X4303737Y-12982668D01*
X4294213Y-12992192D01*
X4275165Y-13001716D01*
X4256118Y-13001716D01*
X4237070Y-12992192D01*
X4227546Y-12982668D01*
X4218023Y-12963621D01*
X4208499Y-12925525D01*
X4208499Y-12877906D01*
X4218023Y-12839811D01*
X4227546Y-12820763D01*
X4237070Y-12811240D01*
X4256118Y-12801716D01*
X4408499Y-13001716D02*
X4408499Y-12868382D01*
X4408499Y-12887430D02*
X4418023Y-12877906D01*
X4437070Y-12868382D01*
X4465642Y-12868382D01*
X4484689Y-12877906D01*
X4494213Y-12896954D01*
X4494213Y-13001716D01*
X4494213Y-12896954D02*
X4503737Y-12877906D01*
X4522785Y-12868382D01*
X4551356Y-12868382D01*
X4570404Y-12877906D01*
X4579927Y-12896954D01*
X4579927Y-13001716D01*
X4675165Y-13001716D02*
X4675165Y-12868382D01*
X4675165Y-12887430D02*
X4684689Y-12877906D01*
X4703737Y-12868382D01*
X4732308Y-12868382D01*
X4751356Y-12877906D01*
X4760880Y-12896954D01*
X4760880Y-13001716D01*
X4760880Y-12896954D02*
X4770404Y-12877906D01*
X4789451Y-12868382D01*
X4818023Y-12868382D01*
X4837070Y-12877906D01*
X4846594Y-12896954D01*
X4846594Y-13001716D01*
X5237070Y-12792192D02*
X5065642Y-13049335D01*
X5494213Y-12801716D02*
X5513261Y-12801716D01*
X5532308Y-12811240D01*
X5541832Y-12820763D01*
X5551356Y-12839811D01*
X5560880Y-12877906D01*
X5560880Y-12925525D01*
X5551356Y-12963621D01*
X5541832Y-12982668D01*
X5532308Y-12992192D01*
X5513261Y-13001716D01*
X5494213Y-13001716D01*
X5475165Y-12992192D01*
X5465642Y-12982668D01*
X5456118Y-12963621D01*
X5446594Y-12925525D01*
X5446594Y-12877906D01*
X5456118Y-12839811D01*
X5465642Y-12820763D01*
X5475165Y-12811240D01*
X5494213Y-12801716D01*
X5646594Y-12982668D02*
X5656118Y-12992192D01*
X5646594Y-13001716D01*
X5637070Y-12992192D01*
X5646594Y-12982668D01*
X5646594Y-13001716D01*
X5779927Y-12801716D02*
X5798975Y-12801716D01*
X5818023Y-12811240D01*
X5827546Y-12820763D01*
X5837070Y-12839811D01*
X5846594Y-12877906D01*
X5846594Y-12925525D01*
X5837070Y-12963621D01*
X5827546Y-12982668D01*
X5818023Y-12992192D01*
X5798975Y-13001716D01*
X5779927Y-13001716D01*
X5760880Y-12992192D01*
X5751356Y-12982668D01*
X5741832Y-12963621D01*
X5732308Y-12925525D01*
X5732308Y-12877906D01*
X5741832Y-12839811D01*
X5751356Y-12820763D01*
X5760880Y-12811240D01*
X5779927Y-12801716D01*
X6037070Y-13001716D02*
X5922784Y-13001716D01*
X5979927Y-13001716D02*
X5979927Y-12801716D01*
X5960880Y-12830287D01*
X5941832Y-12849335D01*
X5922784Y-12858859D01*
X6218023Y-12801716D02*
X6122784Y-12801716D01*
X6113261Y-12896954D01*
X6122784Y-12887430D01*
X6141832Y-12877906D01*
X6189451Y-12877906D01*
X6208499Y-12887430D01*
X6218023Y-12896954D01*
X6227546Y-12916002D01*
X6227546Y-12963621D01*
X6218023Y-12982668D01*
X6208499Y-12992192D01*
X6189451Y-13001716D01*
X6141832Y-13001716D01*
X6122784Y-12992192D01*
X6113261Y-12982668D01*
X6294213Y-12801716D02*
X6427546Y-12801716D01*
X6341832Y-13001716D01*
X6494213Y-12801716D02*
X6494213Y-12839811D01*
X6570403Y-12801716D02*
X6570403Y-12839811D01*
X6865642Y-13077906D02*
X6856118Y-13068382D01*
X6837070Y-13039811D01*
X6827546Y-13020763D01*
X6818023Y-12992192D01*
X6808499Y-12944573D01*
X6808499Y-12906478D01*
X6818023Y-12858859D01*
X6827546Y-12830287D01*
X6837070Y-12811240D01*
X6856118Y-12782668D01*
X6865642Y-12773144D01*
X6979927Y-12801716D02*
X6998975Y-12801716D01*
X7018023Y-12811240D01*
X7027546Y-12820763D01*
X7037070Y-12839811D01*
X7046594Y-12877906D01*
X7046594Y-12925525D01*
X7037070Y-12963621D01*
X7027546Y-12982668D01*
X7018023Y-12992192D01*
X6998975Y-13001716D01*
X6979927Y-13001716D01*
X6960880Y-12992192D01*
X6951356Y-12982668D01*
X6941832Y-12963621D01*
X6932308Y-12925525D01*
X6932308Y-12877906D01*
X6941832Y-12839811D01*
X6951356Y-12820763D01*
X6960880Y-12811240D01*
X6979927Y-12801716D01*
X7284689Y-13001716D02*
X7284689Y-12801716D01*
X7370403Y-13001716D02*
X7370403Y-12896954D01*
X7360880Y-12877906D01*
X7341832Y-12868382D01*
X7313261Y-12868382D01*
X7294213Y-12877906D01*
X7284689Y-12887430D01*
X7494213Y-13001716D02*
X7475165Y-12992192D01*
X7465642Y-12982668D01*
X7456118Y-12963621D01*
X7456118Y-12906478D01*
X7465642Y-12887430D01*
X7475165Y-12877906D01*
X7494213Y-12868382D01*
X7522784Y-12868382D01*
X7541832Y-12877906D01*
X7551356Y-12887430D01*
X7560880Y-12906478D01*
X7560880Y-12963621D01*
X7551356Y-12982668D01*
X7541832Y-12992192D01*
X7522784Y-13001716D01*
X7494213Y-13001716D01*
X7675165Y-13001716D02*
X7656118Y-12992192D01*
X7646594Y-12973144D01*
X7646594Y-12801716D01*
X7827546Y-12992192D02*
X7808499Y-13001716D01*
X7770403Y-13001716D01*
X7751356Y-12992192D01*
X7741832Y-12973144D01*
X7741832Y-12896954D01*
X7751356Y-12877906D01*
X7770403Y-12868382D01*
X7808499Y-12868382D01*
X7827546Y-12877906D01*
X7837070Y-12896954D01*
X7837070Y-12916002D01*
X7741832Y-12935049D01*
X7913261Y-12992192D02*
X7932308Y-13001716D01*
X7970403Y-13001716D01*
X7989451Y-12992192D01*
X7998975Y-12973144D01*
X7998975Y-12963621D01*
X7989451Y-12944573D01*
X7970403Y-12935049D01*
X7941832Y-12935049D01*
X7922784Y-12925525D01*
X7913261Y-12906478D01*
X7913261Y-12896954D01*
X7922784Y-12877906D01*
X7941832Y-12868382D01*
X7970403Y-12868382D01*
X7989451Y-12877906D01*
X8237070Y-12925525D02*
X8389451Y-12925525D01*
X8313261Y-13001716D02*
X8313261Y-12849335D01*
X8741832Y-13001716D02*
X8627546Y-13001716D01*
X8684689Y-13001716D02*
X8684689Y-12801716D01*
X8665642Y-12830287D01*
X8646594Y-12849335D01*
X8627546Y-12858859D01*
X8922785Y-12801716D02*
X8827546Y-12801716D01*
X8818023Y-12896954D01*
X8827546Y-12887430D01*
X8846594Y-12877906D01*
X8894213Y-12877906D01*
X8913261Y-12887430D01*
X8922785Y-12896954D01*
X8932308Y-12916002D01*
X8932308Y-12963621D01*
X8922785Y-12982668D01*
X8913261Y-12992192D01*
X8894213Y-13001716D01*
X8846594Y-13001716D01*
X8827546Y-12992192D01*
X8818023Y-12982668D01*
X9160880Y-12992192D02*
X9179927Y-13001716D01*
X9218023Y-13001716D01*
X9237070Y-12992192D01*
X9246594Y-12973144D01*
X9246594Y-12963621D01*
X9237070Y-12944573D01*
X9218023Y-12935049D01*
X9189451Y-12935049D01*
X9170404Y-12925525D01*
X9160880Y-12906478D01*
X9160880Y-12896954D01*
X9170404Y-12877906D01*
X9189451Y-12868382D01*
X9218023Y-12868382D01*
X9237070Y-12877906D01*
X9360880Y-13001716D02*
X9341832Y-12992192D01*
X9332308Y-12973144D01*
X9332308Y-12801716D01*
X9465642Y-13001716D02*
X9446594Y-12992192D01*
X9437070Y-12982668D01*
X9427546Y-12963621D01*
X9427546Y-12906478D01*
X9437070Y-12887430D01*
X9446594Y-12877906D01*
X9465642Y-12868382D01*
X9494213Y-12868382D01*
X9513261Y-12877906D01*
X9522785Y-12887430D01*
X9532308Y-12906478D01*
X9532308Y-12963621D01*
X9522785Y-12982668D01*
X9513261Y-12992192D01*
X9494213Y-13001716D01*
X9465642Y-13001716D01*
X9589451Y-12868382D02*
X9665642Y-12868382D01*
X9618023Y-12801716D02*
X9618023Y-12973144D01*
X9627546Y-12992192D01*
X9646594Y-13001716D01*
X9665642Y-13001716D01*
X9722785Y-12992192D02*
X9741832Y-13001716D01*
X9779927Y-13001716D01*
X9798975Y-12992192D01*
X9808499Y-12973144D01*
X9808499Y-12963621D01*
X9798975Y-12944573D01*
X9779927Y-12935049D01*
X9751356Y-12935049D01*
X9732308Y-12925525D01*
X9722785Y-12906478D01*
X9722785Y-12896954D01*
X9732308Y-12877906D01*
X9751356Y-12868382D01*
X9779927Y-12868382D01*
X9798975Y-12877906D01*
X9875165Y-13077906D02*
X9884689Y-13068382D01*
X9903737Y-13039811D01*
X9913261Y-13020763D01*
X9922785Y-12992192D01*
X9932308Y-12944573D01*
X9932308Y-12906478D01*
X9922785Y-12858859D01*
X9913261Y-12830287D01*
X9903737Y-12811240D01*
X9884689Y-12782668D01*
X9875165Y-12773144D01*
D13*
X3258737Y-13140240D02*
X3258737Y-13210240D01*
X3223737Y-13175240D02*
X3293737Y-13175240D01*
D11*
X3589451Y-13065716D02*
X3608499Y-13065716D01*
X3627546Y-13075240D01*
X3637070Y-13084763D01*
X3646594Y-13103811D01*
X3656118Y-13141906D01*
X3656118Y-13189525D01*
X3646594Y-13227621D01*
X3637070Y-13246668D01*
X3627546Y-13256192D01*
X3608499Y-13265716D01*
X3589451Y-13265716D01*
X3570403Y-13256192D01*
X3560880Y-13246668D01*
X3551356Y-13227621D01*
X3541832Y-13189525D01*
X3541832Y-13141906D01*
X3551356Y-13103811D01*
X3560880Y-13084763D01*
X3570403Y-13075240D01*
X3589451Y-13065716D01*
X3741832Y-13246668D02*
X3751356Y-13256192D01*
X3741832Y-13265716D01*
X3732308Y-13256192D01*
X3741832Y-13246668D01*
X3741832Y-13265716D01*
X3818023Y-13065716D02*
X3951356Y-13065716D01*
X3865642Y-13265716D01*
X4065642Y-13065716D02*
X4084689Y-13065716D01*
X4103737Y-13075240D01*
X4113261Y-13084763D01*
X4122784Y-13103811D01*
X4132308Y-13141906D01*
X4132308Y-13189525D01*
X4122784Y-13227621D01*
X4113261Y-13246668D01*
X4103737Y-13256192D01*
X4084689Y-13265716D01*
X4065642Y-13265716D01*
X4046594Y-13256192D01*
X4037070Y-13246668D01*
X4027546Y-13227621D01*
X4018023Y-13189525D01*
X4018023Y-13141906D01*
X4027546Y-13103811D01*
X4037070Y-13084763D01*
X4046594Y-13075240D01*
X4065642Y-13065716D01*
X4256118Y-13065716D02*
X4275165Y-13065716D01*
X4294213Y-13075240D01*
X4303737Y-13084763D01*
X4313261Y-13103811D01*
X4322785Y-13141906D01*
X4322785Y-13189525D01*
X4313261Y-13227621D01*
X4303737Y-13246668D01*
X4294213Y-13256192D01*
X4275165Y-13265716D01*
X4256118Y-13265716D01*
X4237070Y-13256192D01*
X4227546Y-13246668D01*
X4218023Y-13227621D01*
X4208499Y-13189525D01*
X4208499Y-13141906D01*
X4218023Y-13103811D01*
X4227546Y-13084763D01*
X4237070Y-13075240D01*
X4256118Y-13065716D01*
X4408499Y-13265716D02*
X4408499Y-13132382D01*
X4408499Y-13151430D02*
X4418023Y-13141906D01*
X4437070Y-13132382D01*
X4465642Y-13132382D01*
X4484689Y-13141906D01*
X4494213Y-13160954D01*
X4494213Y-13265716D01*
X4494213Y-13160954D02*
X4503737Y-13141906D01*
X4522785Y-13132382D01*
X4551356Y-13132382D01*
X4570404Y-13141906D01*
X4579927Y-13160954D01*
X4579927Y-13265716D01*
X4675165Y-13265716D02*
X4675165Y-13132382D01*
X4675165Y-13151430D02*
X4684689Y-13141906D01*
X4703737Y-13132382D01*
X4732308Y-13132382D01*
X4751356Y-13141906D01*
X4760880Y-13160954D01*
X4760880Y-13265716D01*
X4760880Y-13160954D02*
X4770404Y-13141906D01*
X4789451Y-13132382D01*
X4818023Y-13132382D01*
X4837070Y-13141906D01*
X4846594Y-13160954D01*
X4846594Y-13265716D01*
X5237070Y-13056192D02*
X5065642Y-13313335D01*
X5494213Y-13065716D02*
X5513261Y-13065716D01*
X5532308Y-13075240D01*
X5541832Y-13084763D01*
X5551356Y-13103811D01*
X5560880Y-13141906D01*
X5560880Y-13189525D01*
X5551356Y-13227621D01*
X5541832Y-13246668D01*
X5532308Y-13256192D01*
X5513261Y-13265716D01*
X5494213Y-13265716D01*
X5475165Y-13256192D01*
X5465642Y-13246668D01*
X5456118Y-13227621D01*
X5446594Y-13189525D01*
X5446594Y-13141906D01*
X5456118Y-13103811D01*
X5465642Y-13084763D01*
X5475165Y-13075240D01*
X5494213Y-13065716D01*
X5646594Y-13246668D02*
X5656118Y-13256192D01*
X5646594Y-13265716D01*
X5637070Y-13256192D01*
X5646594Y-13246668D01*
X5646594Y-13265716D01*
X5779927Y-13065716D02*
X5798975Y-13065716D01*
X5818023Y-13075240D01*
X5827546Y-13084763D01*
X5837070Y-13103811D01*
X5846594Y-13141906D01*
X5846594Y-13189525D01*
X5837070Y-13227621D01*
X5827546Y-13246668D01*
X5818023Y-13256192D01*
X5798975Y-13265716D01*
X5779927Y-13265716D01*
X5760880Y-13256192D01*
X5751356Y-13246668D01*
X5741832Y-13227621D01*
X5732308Y-13189525D01*
X5732308Y-13141906D01*
X5741832Y-13103811D01*
X5751356Y-13084763D01*
X5760880Y-13075240D01*
X5779927Y-13065716D01*
X5922784Y-13084763D02*
X5932308Y-13075240D01*
X5951356Y-13065716D01*
X5998975Y-13065716D01*
X6018023Y-13075240D01*
X6027546Y-13084763D01*
X6037070Y-13103811D01*
X6037070Y-13122859D01*
X6027546Y-13151430D01*
X5913261Y-13265716D01*
X6037070Y-13265716D01*
X6103737Y-13065716D02*
X6237070Y-13065716D01*
X6151356Y-13265716D01*
X6398975Y-13065716D02*
X6360880Y-13065716D01*
X6341832Y-13075240D01*
X6332308Y-13084763D01*
X6313261Y-13113335D01*
X6303737Y-13151430D01*
X6303737Y-13227621D01*
X6313261Y-13246668D01*
X6322784Y-13256192D01*
X6341832Y-13265716D01*
X6379927Y-13265716D01*
X6398975Y-13256192D01*
X6408499Y-13246668D01*
X6418023Y-13227621D01*
X6418023Y-13180002D01*
X6408499Y-13160954D01*
X6398975Y-13151430D01*
X6379927Y-13141906D01*
X6341832Y-13141906D01*
X6322784Y-13151430D01*
X6313261Y-13160954D01*
X6303737Y-13180002D01*
X6494213Y-13065716D02*
X6494213Y-13103811D01*
X6570403Y-13065716D02*
X6570403Y-13103811D01*
X6865642Y-13341906D02*
X6856118Y-13332382D01*
X6837070Y-13303811D01*
X6827546Y-13284763D01*
X6818023Y-13256192D01*
X6808499Y-13208573D01*
X6808499Y-13170478D01*
X6818023Y-13122859D01*
X6827546Y-13094287D01*
X6837070Y-13075240D01*
X6856118Y-13046668D01*
X6865642Y-13037144D01*
X7027546Y-13132382D02*
X7027546Y-13265716D01*
X6979927Y-13056192D02*
X6932308Y-13199049D01*
X7056118Y-13199049D01*
X7284689Y-13265716D02*
X7284689Y-13065716D01*
X7370403Y-13265716D02*
X7370403Y-13160954D01*
X7360880Y-13141906D01*
X7341832Y-13132382D01*
X7313261Y-13132382D01*
X7294213Y-13141906D01*
X7284689Y-13151430D01*
X7494213Y-13265716D02*
X7475165Y-13256192D01*
X7465642Y-13246668D01*
X7456118Y-13227621D01*
X7456118Y-13170478D01*
X7465642Y-13151430D01*
X7475165Y-13141906D01*
X7494213Y-13132382D01*
X7522784Y-13132382D01*
X7541832Y-13141906D01*
X7551356Y-13151430D01*
X7560880Y-13170478D01*
X7560880Y-13227621D01*
X7551356Y-13246668D01*
X7541832Y-13256192D01*
X7522784Y-13265716D01*
X7494213Y-13265716D01*
X7675165Y-13265716D02*
X7656118Y-13256192D01*
X7646594Y-13237144D01*
X7646594Y-13065716D01*
X7827546Y-13256192D02*
X7808499Y-13265716D01*
X7770403Y-13265716D01*
X7751356Y-13256192D01*
X7741832Y-13237144D01*
X7741832Y-13160954D01*
X7751356Y-13141906D01*
X7770403Y-13132382D01*
X7808499Y-13132382D01*
X7827546Y-13141906D01*
X7837070Y-13160954D01*
X7837070Y-13180002D01*
X7741832Y-13199049D01*
X7913261Y-13256192D02*
X7932308Y-13265716D01*
X7970403Y-13265716D01*
X7989451Y-13256192D01*
X7998975Y-13237144D01*
X7998975Y-13227621D01*
X7989451Y-13208573D01*
X7970403Y-13199049D01*
X7941832Y-13199049D01*
X7922784Y-13189525D01*
X7913261Y-13170478D01*
X7913261Y-13160954D01*
X7922784Y-13141906D01*
X7941832Y-13132382D01*
X7970403Y-13132382D01*
X7989451Y-13141906D01*
X8065642Y-13341906D02*
X8075165Y-13332382D01*
X8094213Y-13303811D01*
X8103737Y-13284763D01*
X8113261Y-13256192D01*
X8122784Y-13208573D01*
X8122784Y-13170478D01*
X8113261Y-13122859D01*
X8103737Y-13094287D01*
X8094213Y-13075240D01*
X8075165Y-13046668D01*
X8065642Y-13037144D01*
D14*
X3282754Y-13465756D02*
X3282754Y-13412723D01*
X3229720Y-13412723D01*
X3229720Y-13465756D01*
X3282754Y-13465756D01*
D11*
X3589451Y-13329716D02*
X3608499Y-13329716D01*
X3627546Y-13339240D01*
X3637070Y-13348763D01*
X3646594Y-13367811D01*
X3656118Y-13405906D01*
X3656118Y-13453525D01*
X3646594Y-13491621D01*
X3637070Y-13510668D01*
X3627546Y-13520192D01*
X3608499Y-13529716D01*
X3589451Y-13529716D01*
X3570403Y-13520192D01*
X3560880Y-13510668D01*
X3551356Y-13491621D01*
X3541832Y-13453525D01*
X3541832Y-13405906D01*
X3551356Y-13367811D01*
X3560880Y-13348763D01*
X3570403Y-13339240D01*
X3589451Y-13329716D01*
X3741832Y-13510668D02*
X3751356Y-13520192D01*
X3741832Y-13529716D01*
X3732308Y-13520192D01*
X3741832Y-13510668D01*
X3741832Y-13529716D01*
X3818023Y-13329716D02*
X3951356Y-13329716D01*
X3865642Y-13529716D01*
X4122784Y-13329716D02*
X4027546Y-13329716D01*
X4018023Y-13424954D01*
X4027546Y-13415430D01*
X4046594Y-13405906D01*
X4094213Y-13405906D01*
X4113261Y-13415430D01*
X4122784Y-13424954D01*
X4132308Y-13444002D01*
X4132308Y-13491621D01*
X4122784Y-13510668D01*
X4113261Y-13520192D01*
X4094213Y-13529716D01*
X4046594Y-13529716D01*
X4027546Y-13520192D01*
X4018023Y-13510668D01*
X4256118Y-13329716D02*
X4275165Y-13329716D01*
X4294213Y-13339240D01*
X4303737Y-13348763D01*
X4313261Y-13367811D01*
X4322785Y-13405906D01*
X4322785Y-13453525D01*
X4313261Y-13491621D01*
X4303737Y-13510668D01*
X4294213Y-13520192D01*
X4275165Y-13529716D01*
X4256118Y-13529716D01*
X4237070Y-13520192D01*
X4227546Y-13510668D01*
X4218023Y-13491621D01*
X4208499Y-13453525D01*
X4208499Y-13405906D01*
X4218023Y-13367811D01*
X4227546Y-13348763D01*
X4237070Y-13339240D01*
X4256118Y-13329716D01*
X4408499Y-13529716D02*
X4408499Y-13396382D01*
X4408499Y-13415430D02*
X4418023Y-13405906D01*
X4437070Y-13396382D01*
X4465642Y-13396382D01*
X4484689Y-13405906D01*
X4494213Y-13424954D01*
X4494213Y-13529716D01*
X4494213Y-13424954D02*
X4503737Y-13405906D01*
X4522785Y-13396382D01*
X4551356Y-13396382D01*
X4570404Y-13405906D01*
X4579927Y-13424954D01*
X4579927Y-13529716D01*
X4675165Y-13529716D02*
X4675165Y-13396382D01*
X4675165Y-13415430D02*
X4684689Y-13405906D01*
X4703737Y-13396382D01*
X4732308Y-13396382D01*
X4751356Y-13405906D01*
X4760880Y-13424954D01*
X4760880Y-13529716D01*
X4760880Y-13424954D02*
X4770404Y-13405906D01*
X4789451Y-13396382D01*
X4818023Y-13396382D01*
X4837070Y-13405906D01*
X4846594Y-13424954D01*
X4846594Y-13529716D01*
X5237070Y-13320192D02*
X5065642Y-13577335D01*
X5494213Y-13329716D02*
X5513261Y-13329716D01*
X5532308Y-13339240D01*
X5541832Y-13348763D01*
X5551356Y-13367811D01*
X5560880Y-13405906D01*
X5560880Y-13453525D01*
X5551356Y-13491621D01*
X5541832Y-13510668D01*
X5532308Y-13520192D01*
X5513261Y-13529716D01*
X5494213Y-13529716D01*
X5475165Y-13520192D01*
X5465642Y-13510668D01*
X5456118Y-13491621D01*
X5446594Y-13453525D01*
X5446594Y-13405906D01*
X5456118Y-13367811D01*
X5465642Y-13348763D01*
X5475165Y-13339240D01*
X5494213Y-13329716D01*
X5646594Y-13510668D02*
X5656118Y-13520192D01*
X5646594Y-13529716D01*
X5637070Y-13520192D01*
X5646594Y-13510668D01*
X5646594Y-13529716D01*
X5779927Y-13329716D02*
X5798975Y-13329716D01*
X5818023Y-13339240D01*
X5827546Y-13348763D01*
X5837070Y-13367811D01*
X5846594Y-13405906D01*
X5846594Y-13453525D01*
X5837070Y-13491621D01*
X5827546Y-13510668D01*
X5818023Y-13520192D01*
X5798975Y-13529716D01*
X5779927Y-13529716D01*
X5760880Y-13520192D01*
X5751356Y-13510668D01*
X5741832Y-13491621D01*
X5732308Y-13453525D01*
X5732308Y-13405906D01*
X5741832Y-13367811D01*
X5751356Y-13348763D01*
X5760880Y-13339240D01*
X5779927Y-13329716D01*
X5922784Y-13348763D02*
X5932308Y-13339240D01*
X5951356Y-13329716D01*
X5998975Y-13329716D01*
X6018023Y-13339240D01*
X6027546Y-13348763D01*
X6037070Y-13367811D01*
X6037070Y-13386859D01*
X6027546Y-13415430D01*
X5913261Y-13529716D01*
X6037070Y-13529716D01*
X6132308Y-13529716D02*
X6170403Y-13529716D01*
X6189451Y-13520192D01*
X6198975Y-13510668D01*
X6218023Y-13482097D01*
X6227546Y-13444002D01*
X6227546Y-13367811D01*
X6218023Y-13348763D01*
X6208499Y-13339240D01*
X6189451Y-13329716D01*
X6151356Y-13329716D01*
X6132308Y-13339240D01*
X6122784Y-13348763D01*
X6113261Y-13367811D01*
X6113261Y-13415430D01*
X6122784Y-13434478D01*
X6132308Y-13444002D01*
X6151356Y-13453525D01*
X6189451Y-13453525D01*
X6208499Y-13444002D01*
X6218023Y-13434478D01*
X6227546Y-13415430D01*
X6408499Y-13329716D02*
X6313261Y-13329716D01*
X6303737Y-13424954D01*
X6313261Y-13415430D01*
X6332308Y-13405906D01*
X6379927Y-13405906D01*
X6398975Y-13415430D01*
X6408499Y-13424954D01*
X6418023Y-13444002D01*
X6418023Y-13491621D01*
X6408499Y-13510668D01*
X6398975Y-13520192D01*
X6379927Y-13529716D01*
X6332308Y-13529716D01*
X6313261Y-13520192D01*
X6303737Y-13510668D01*
X6494213Y-13329716D02*
X6494213Y-13367811D01*
X6570403Y-13329716D02*
X6570403Y-13367811D01*
X6865642Y-13605906D02*
X6856118Y-13596382D01*
X6837070Y-13567811D01*
X6827546Y-13548763D01*
X6818023Y-13520192D01*
X6808499Y-13472573D01*
X6808499Y-13434478D01*
X6818023Y-13386859D01*
X6827546Y-13358287D01*
X6837070Y-13339240D01*
X6856118Y-13310668D01*
X6865642Y-13301144D01*
X6932308Y-13348763D02*
X6941832Y-13339240D01*
X6960880Y-13329716D01*
X7008499Y-13329716D01*
X7027546Y-13339240D01*
X7037070Y-13348763D01*
X7046594Y-13367811D01*
X7046594Y-13386859D01*
X7037070Y-13415430D01*
X6922784Y-13529716D01*
X7046594Y-13529716D01*
X7113261Y-13329716D02*
X7237070Y-13329716D01*
X7170403Y-13405906D01*
X7198975Y-13405906D01*
X7218023Y-13415430D01*
X7227546Y-13424954D01*
X7237070Y-13444002D01*
X7237070Y-13491621D01*
X7227546Y-13510668D01*
X7218023Y-13520192D01*
X7198975Y-13529716D01*
X7141832Y-13529716D01*
X7122784Y-13520192D01*
X7113261Y-13510668D01*
X7475165Y-13529716D02*
X7475165Y-13329716D01*
X7560880Y-13529716D02*
X7560880Y-13424954D01*
X7551356Y-13405906D01*
X7532308Y-13396382D01*
X7503737Y-13396382D01*
X7484689Y-13405906D01*
X7475165Y-13415430D01*
X7684689Y-13529716D02*
X7665642Y-13520192D01*
X7656118Y-13510668D01*
X7646594Y-13491621D01*
X7646594Y-13434478D01*
X7656118Y-13415430D01*
X7665642Y-13405906D01*
X7684689Y-13396382D01*
X7713261Y-13396382D01*
X7732308Y-13405906D01*
X7741832Y-13415430D01*
X7751356Y-13434478D01*
X7751356Y-13491621D01*
X7741832Y-13510668D01*
X7732308Y-13520192D01*
X7713261Y-13529716D01*
X7684689Y-13529716D01*
X7865642Y-13529716D02*
X7846594Y-13520192D01*
X7837070Y-13501144D01*
X7837070Y-13329716D01*
X8018023Y-13520192D02*
X7998975Y-13529716D01*
X7960880Y-13529716D01*
X7941832Y-13520192D01*
X7932308Y-13501144D01*
X7932308Y-13424954D01*
X7941832Y-13405906D01*
X7960880Y-13396382D01*
X7998975Y-13396382D01*
X8018023Y-13405906D01*
X8027546Y-13424954D01*
X8027546Y-13444002D01*
X7932308Y-13463049D01*
X8103737Y-13520192D02*
X8122784Y-13529716D01*
X8160880Y-13529716D01*
X8179927Y-13520192D01*
X8189451Y-13501144D01*
X8189451Y-13491621D01*
X8179927Y-13472573D01*
X8160880Y-13463049D01*
X8132308Y-13463049D01*
X8113261Y-13453525D01*
X8103737Y-13434478D01*
X8103737Y-13424954D01*
X8113261Y-13405906D01*
X8132308Y-13396382D01*
X8160880Y-13396382D01*
X8179927Y-13405906D01*
X8256118Y-13605906D02*
X8265642Y-13596382D01*
X8284689Y-13567811D01*
X8294213Y-13548763D01*
X8303737Y-13520192D01*
X8313261Y-13472573D01*
X8313261Y-13434478D01*
X8303737Y-13386859D01*
X8294213Y-13358287D01*
X8284689Y-13339240D01*
X8265642Y-13310668D01*
X8256118Y-13301144D01*
D15*
X3253737Y-13743240D02*
X3293737Y-13703240D01*
X3253737Y-13663240D01*
X3213737Y-13703240D01*
X3253737Y-13743240D01*
D11*
X3589451Y-13593716D02*
X3608499Y-13593716D01*
X3627546Y-13603240D01*
X3637070Y-13612763D01*
X3646594Y-13631811D01*
X3656118Y-13669906D01*
X3656118Y-13717525D01*
X3646594Y-13755621D01*
X3637070Y-13774668D01*
X3627546Y-13784192D01*
X3608499Y-13793716D01*
X3589451Y-13793716D01*
X3570403Y-13784192D01*
X3560880Y-13774668D01*
X3551356Y-13755621D01*
X3541832Y-13717525D01*
X3541832Y-13669906D01*
X3551356Y-13631811D01*
X3560880Y-13612763D01*
X3570403Y-13603240D01*
X3589451Y-13593716D01*
X3741832Y-13774668D02*
X3751356Y-13784192D01*
X3741832Y-13793716D01*
X3732308Y-13784192D01*
X3741832Y-13774668D01*
X3741832Y-13793716D01*
X3865642Y-13679430D02*
X3846594Y-13669906D01*
X3837070Y-13660382D01*
X3827546Y-13641335D01*
X3827546Y-13631811D01*
X3837070Y-13612763D01*
X3846594Y-13603240D01*
X3865642Y-13593716D01*
X3903737Y-13593716D01*
X3922784Y-13603240D01*
X3932308Y-13612763D01*
X3941832Y-13631811D01*
X3941832Y-13641335D01*
X3932308Y-13660382D01*
X3922784Y-13669906D01*
X3903737Y-13679430D01*
X3865642Y-13679430D01*
X3846594Y-13688954D01*
X3837070Y-13698478D01*
X3827546Y-13717525D01*
X3827546Y-13755621D01*
X3837070Y-13774668D01*
X3846594Y-13784192D01*
X3865642Y-13793716D01*
X3903737Y-13793716D01*
X3922784Y-13784192D01*
X3932308Y-13774668D01*
X3941832Y-13755621D01*
X3941832Y-13717525D01*
X3932308Y-13698478D01*
X3922784Y-13688954D01*
X3903737Y-13679430D01*
X4065642Y-13593716D02*
X4084689Y-13593716D01*
X4103737Y-13603240D01*
X4113261Y-13612763D01*
X4122784Y-13631811D01*
X4132308Y-13669906D01*
X4132308Y-13717525D01*
X4122784Y-13755621D01*
X4113261Y-13774668D01*
X4103737Y-13784192D01*
X4084689Y-13793716D01*
X4065642Y-13793716D01*
X4046594Y-13784192D01*
X4037070Y-13774668D01*
X4027546Y-13755621D01*
X4018023Y-13717525D01*
X4018023Y-13669906D01*
X4027546Y-13631811D01*
X4037070Y-13612763D01*
X4046594Y-13603240D01*
X4065642Y-13593716D01*
X4256118Y-13593716D02*
X4275165Y-13593716D01*
X4294213Y-13603240D01*
X4303737Y-13612763D01*
X4313261Y-13631811D01*
X4322785Y-13669906D01*
X4322785Y-13717525D01*
X4313261Y-13755621D01*
X4303737Y-13774668D01*
X4294213Y-13784192D01*
X4275165Y-13793716D01*
X4256118Y-13793716D01*
X4237070Y-13784192D01*
X4227546Y-13774668D01*
X4218023Y-13755621D01*
X4208499Y-13717525D01*
X4208499Y-13669906D01*
X4218023Y-13631811D01*
X4227546Y-13612763D01*
X4237070Y-13603240D01*
X4256118Y-13593716D01*
X4408499Y-13793716D02*
X4408499Y-13660382D01*
X4408499Y-13679430D02*
X4418023Y-13669906D01*
X4437070Y-13660382D01*
X4465642Y-13660382D01*
X4484689Y-13669906D01*
X4494213Y-13688954D01*
X4494213Y-13793716D01*
X4494213Y-13688954D02*
X4503737Y-13669906D01*
X4522785Y-13660382D01*
X4551356Y-13660382D01*
X4570404Y-13669906D01*
X4579927Y-13688954D01*
X4579927Y-13793716D01*
X4675165Y-13793716D02*
X4675165Y-13660382D01*
X4675165Y-13679430D02*
X4684689Y-13669906D01*
X4703737Y-13660382D01*
X4732308Y-13660382D01*
X4751356Y-13669906D01*
X4760880Y-13688954D01*
X4760880Y-13793716D01*
X4760880Y-13688954D02*
X4770404Y-13669906D01*
X4789451Y-13660382D01*
X4818023Y-13660382D01*
X4837070Y-13669906D01*
X4846594Y-13688954D01*
X4846594Y-13793716D01*
X5237070Y-13584192D02*
X5065642Y-13841335D01*
X5494213Y-13593716D02*
X5513261Y-13593716D01*
X5532308Y-13603240D01*
X5541832Y-13612763D01*
X5551356Y-13631811D01*
X5560880Y-13669906D01*
X5560880Y-13717525D01*
X5551356Y-13755621D01*
X5541832Y-13774668D01*
X5532308Y-13784192D01*
X5513261Y-13793716D01*
X5494213Y-13793716D01*
X5475165Y-13784192D01*
X5465642Y-13774668D01*
X5456118Y-13755621D01*
X5446594Y-13717525D01*
X5446594Y-13669906D01*
X5456118Y-13631811D01*
X5465642Y-13612763D01*
X5475165Y-13603240D01*
X5494213Y-13593716D01*
X5646594Y-13774668D02*
X5656118Y-13784192D01*
X5646594Y-13793716D01*
X5637070Y-13784192D01*
X5646594Y-13774668D01*
X5646594Y-13793716D01*
X5779927Y-13593716D02*
X5798975Y-13593716D01*
X5818023Y-13603240D01*
X5827546Y-13612763D01*
X5837070Y-13631811D01*
X5846594Y-13669906D01*
X5846594Y-13717525D01*
X5837070Y-13755621D01*
X5827546Y-13774668D01*
X5818023Y-13784192D01*
X5798975Y-13793716D01*
X5779927Y-13793716D01*
X5760880Y-13784192D01*
X5751356Y-13774668D01*
X5741832Y-13755621D01*
X5732308Y-13717525D01*
X5732308Y-13669906D01*
X5741832Y-13631811D01*
X5751356Y-13612763D01*
X5760880Y-13603240D01*
X5779927Y-13593716D01*
X5913261Y-13593716D02*
X6037070Y-13593716D01*
X5970403Y-13669906D01*
X5998975Y-13669906D01*
X6018023Y-13679430D01*
X6027546Y-13688954D01*
X6037070Y-13708002D01*
X6037070Y-13755621D01*
X6027546Y-13774668D01*
X6018023Y-13784192D01*
X5998975Y-13793716D01*
X5941832Y-13793716D01*
X5922784Y-13784192D01*
X5913261Y-13774668D01*
X6227546Y-13793716D02*
X6113261Y-13793716D01*
X6170403Y-13793716D02*
X6170403Y-13593716D01*
X6151356Y-13622287D01*
X6132308Y-13641335D01*
X6113261Y-13650859D01*
X6408499Y-13593716D02*
X6313261Y-13593716D01*
X6303737Y-13688954D01*
X6313261Y-13679430D01*
X6332308Y-13669906D01*
X6379927Y-13669906D01*
X6398975Y-13679430D01*
X6408499Y-13688954D01*
X6418023Y-13708002D01*
X6418023Y-13755621D01*
X6408499Y-13774668D01*
X6398975Y-13784192D01*
X6379927Y-13793716D01*
X6332308Y-13793716D01*
X6313261Y-13784192D01*
X6303737Y-13774668D01*
X6494213Y-13593716D02*
X6494213Y-13631811D01*
X6570403Y-13593716D02*
X6570403Y-13631811D01*
X6865642Y-13869906D02*
X6856118Y-13860382D01*
X6837070Y-13831811D01*
X6827546Y-13812763D01*
X6818023Y-13784192D01*
X6808499Y-13736573D01*
X6808499Y-13698478D01*
X6818023Y-13650859D01*
X6827546Y-13622287D01*
X6837070Y-13603240D01*
X6856118Y-13574668D01*
X6865642Y-13565144D01*
X7046594Y-13793716D02*
X6932308Y-13793716D01*
X6989451Y-13793716D02*
X6989451Y-13593716D01*
X6970403Y-13622287D01*
X6951356Y-13641335D01*
X6932308Y-13650859D01*
X7170403Y-13593716D02*
X7189451Y-13593716D01*
X7208499Y-13603240D01*
X7218023Y-13612763D01*
X7227546Y-13631811D01*
X7237070Y-13669906D01*
X7237070Y-13717525D01*
X7227546Y-13755621D01*
X7218023Y-13774668D01*
X7208499Y-13784192D01*
X7189451Y-13793716D01*
X7170403Y-13793716D01*
X7151356Y-13784192D01*
X7141832Y-13774668D01*
X7132308Y-13755621D01*
X7122784Y-13717525D01*
X7122784Y-13669906D01*
X7132308Y-13631811D01*
X7141832Y-13612763D01*
X7151356Y-13603240D01*
X7170403Y-13593716D01*
X7475165Y-13793716D02*
X7475165Y-13593716D01*
X7560880Y-13793716D02*
X7560880Y-13688954D01*
X7551356Y-13669906D01*
X7532308Y-13660382D01*
X7503737Y-13660382D01*
X7484689Y-13669906D01*
X7475165Y-13679430D01*
X7684689Y-13793716D02*
X7665642Y-13784192D01*
X7656118Y-13774668D01*
X7646594Y-13755621D01*
X7646594Y-13698478D01*
X7656118Y-13679430D01*
X7665642Y-13669906D01*
X7684689Y-13660382D01*
X7713261Y-13660382D01*
X7732308Y-13669906D01*
X7741832Y-13679430D01*
X7751356Y-13698478D01*
X7751356Y-13755621D01*
X7741832Y-13774668D01*
X7732308Y-13784192D01*
X7713261Y-13793716D01*
X7684689Y-13793716D01*
X7865642Y-13793716D02*
X7846594Y-13784192D01*
X7837070Y-13765144D01*
X7837070Y-13593716D01*
X8018023Y-13784192D02*
X7998975Y-13793716D01*
X7960880Y-13793716D01*
X7941832Y-13784192D01*
X7932308Y-13765144D01*
X7932308Y-13688954D01*
X7941832Y-13669906D01*
X7960880Y-13660382D01*
X7998975Y-13660382D01*
X8018023Y-13669906D01*
X8027546Y-13688954D01*
X8027546Y-13708002D01*
X7932308Y-13727049D01*
X8103737Y-13784192D02*
X8122784Y-13793716D01*
X8160880Y-13793716D01*
X8179927Y-13784192D01*
X8189451Y-13765144D01*
X8189451Y-13755621D01*
X8179927Y-13736573D01*
X8160880Y-13727049D01*
X8132308Y-13727049D01*
X8113261Y-13717525D01*
X8103737Y-13698478D01*
X8103737Y-13688954D01*
X8113261Y-13669906D01*
X8132308Y-13660382D01*
X8160880Y-13660382D01*
X8179927Y-13669906D01*
X8256118Y-13869906D02*
X8265642Y-13860382D01*
X8284689Y-13831811D01*
X8294213Y-13812763D01*
X8303737Y-13784192D01*
X8313261Y-13736573D01*
X8313261Y-13698478D01*
X8303737Y-13650859D01*
X8294213Y-13622287D01*
X8284689Y-13603240D01*
X8265642Y-13574668D01*
X8256118Y-13565144D01*
D16*
X3193737Y-13917240D02*
X3293737Y-14017240D01*
X3293737Y-13917240D02*
X3193737Y-14017240D01*
X3293737Y-13967240D02*
G75*
G03*
X3293737Y-13967240I-50000J0D01*
G01*
D11*
X3656118Y-14057716D02*
X3541832Y-14057716D01*
X3598975Y-14057716D02*
X3598975Y-13857716D01*
X3579927Y-13886287D01*
X3560880Y-13905335D01*
X3541832Y-13914859D01*
X3741832Y-14038668D02*
X3751356Y-14048192D01*
X3741832Y-14057716D01*
X3732308Y-14048192D01*
X3741832Y-14038668D01*
X3741832Y-14057716D01*
X3875165Y-13857716D02*
X3894213Y-13857716D01*
X3913261Y-13867240D01*
X3922784Y-13876763D01*
X3932308Y-13895811D01*
X3941832Y-13933906D01*
X3941832Y-13981525D01*
X3932308Y-14019621D01*
X3922784Y-14038668D01*
X3913261Y-14048192D01*
X3894213Y-14057716D01*
X3875165Y-14057716D01*
X3856118Y-14048192D01*
X3846594Y-14038668D01*
X3837070Y-14019621D01*
X3827546Y-13981525D01*
X3827546Y-13933906D01*
X3837070Y-13895811D01*
X3846594Y-13876763D01*
X3856118Y-13867240D01*
X3875165Y-13857716D01*
X4065642Y-13857716D02*
X4084689Y-13857716D01*
X4103737Y-13867240D01*
X4113261Y-13876763D01*
X4122784Y-13895811D01*
X4132308Y-13933906D01*
X4132308Y-13981525D01*
X4122784Y-14019621D01*
X4113261Y-14038668D01*
X4103737Y-14048192D01*
X4084689Y-14057716D01*
X4065642Y-14057716D01*
X4046594Y-14048192D01*
X4037070Y-14038668D01*
X4027546Y-14019621D01*
X4018023Y-13981525D01*
X4018023Y-13933906D01*
X4027546Y-13895811D01*
X4037070Y-13876763D01*
X4046594Y-13867240D01*
X4065642Y-13857716D01*
X4256118Y-13857716D02*
X4275165Y-13857716D01*
X4294213Y-13867240D01*
X4303737Y-13876763D01*
X4313261Y-13895811D01*
X4322785Y-13933906D01*
X4322785Y-13981525D01*
X4313261Y-14019621D01*
X4303737Y-14038668D01*
X4294213Y-14048192D01*
X4275165Y-14057716D01*
X4256118Y-14057716D01*
X4237070Y-14048192D01*
X4227546Y-14038668D01*
X4218023Y-14019621D01*
X4208499Y-13981525D01*
X4208499Y-13933906D01*
X4218023Y-13895811D01*
X4227546Y-13876763D01*
X4237070Y-13867240D01*
X4256118Y-13857716D01*
X4408499Y-14057716D02*
X4408499Y-13924382D01*
X4408499Y-13943430D02*
X4418023Y-13933906D01*
X4437070Y-13924382D01*
X4465642Y-13924382D01*
X4484689Y-13933906D01*
X4494213Y-13952954D01*
X4494213Y-14057716D01*
X4494213Y-13952954D02*
X4503737Y-13933906D01*
X4522785Y-13924382D01*
X4551356Y-13924382D01*
X4570404Y-13933906D01*
X4579927Y-13952954D01*
X4579927Y-14057716D01*
X4675165Y-14057716D02*
X4675165Y-13924382D01*
X4675165Y-13943430D02*
X4684689Y-13933906D01*
X4703737Y-13924382D01*
X4732308Y-13924382D01*
X4751356Y-13933906D01*
X4760880Y-13952954D01*
X4760880Y-14057716D01*
X4760880Y-13952954D02*
X4770404Y-13933906D01*
X4789451Y-13924382D01*
X4818023Y-13924382D01*
X4837070Y-13933906D01*
X4846594Y-13952954D01*
X4846594Y-14057716D01*
X5237070Y-13848192D02*
X5065642Y-14105335D01*
X5494213Y-13857716D02*
X5513261Y-13857716D01*
X5532308Y-13867240D01*
X5541832Y-13876763D01*
X5551356Y-13895811D01*
X5560880Y-13933906D01*
X5560880Y-13981525D01*
X5551356Y-14019621D01*
X5541832Y-14038668D01*
X5532308Y-14048192D01*
X5513261Y-14057716D01*
X5494213Y-14057716D01*
X5475165Y-14048192D01*
X5465642Y-14038668D01*
X5456118Y-14019621D01*
X5446594Y-13981525D01*
X5446594Y-13933906D01*
X5456118Y-13895811D01*
X5465642Y-13876763D01*
X5475165Y-13867240D01*
X5494213Y-13857716D01*
X5646594Y-14038668D02*
X5656118Y-14048192D01*
X5646594Y-14057716D01*
X5637070Y-14048192D01*
X5646594Y-14038668D01*
X5646594Y-14057716D01*
X5779927Y-13857716D02*
X5798975Y-13857716D01*
X5818023Y-13867240D01*
X5827546Y-13876763D01*
X5837070Y-13895811D01*
X5846594Y-13933906D01*
X5846594Y-13981525D01*
X5837070Y-14019621D01*
X5827546Y-14038668D01*
X5818023Y-14048192D01*
X5798975Y-14057716D01*
X5779927Y-14057716D01*
X5760880Y-14048192D01*
X5751356Y-14038668D01*
X5741832Y-14019621D01*
X5732308Y-13981525D01*
X5732308Y-13933906D01*
X5741832Y-13895811D01*
X5751356Y-13876763D01*
X5760880Y-13867240D01*
X5779927Y-13857716D01*
X5913261Y-13857716D02*
X6037070Y-13857716D01*
X5970403Y-13933906D01*
X5998975Y-13933906D01*
X6018023Y-13943430D01*
X6027546Y-13952954D01*
X6037070Y-13972002D01*
X6037070Y-14019621D01*
X6027546Y-14038668D01*
X6018023Y-14048192D01*
X5998975Y-14057716D01*
X5941832Y-14057716D01*
X5922784Y-14048192D01*
X5913261Y-14038668D01*
X6132308Y-14057716D02*
X6170403Y-14057716D01*
X6189451Y-14048192D01*
X6198975Y-14038668D01*
X6218023Y-14010097D01*
X6227546Y-13972002D01*
X6227546Y-13895811D01*
X6218023Y-13876763D01*
X6208499Y-13867240D01*
X6189451Y-13857716D01*
X6151356Y-13857716D01*
X6132308Y-13867240D01*
X6122784Y-13876763D01*
X6113261Y-13895811D01*
X6113261Y-13943430D01*
X6122784Y-13962478D01*
X6132308Y-13972002D01*
X6151356Y-13981525D01*
X6189451Y-13981525D01*
X6208499Y-13972002D01*
X6218023Y-13962478D01*
X6227546Y-13943430D01*
X6398975Y-13924382D02*
X6398975Y-14057716D01*
X6351356Y-13848192D02*
X6303737Y-13991049D01*
X6427546Y-13991049D01*
X6494213Y-13857716D02*
X6494213Y-13895811D01*
X6570403Y-13857716D02*
X6570403Y-13895811D01*
X6865642Y-14133906D02*
X6856118Y-14124382D01*
X6837070Y-14095811D01*
X6827546Y-14076763D01*
X6818023Y-14048192D01*
X6808499Y-14000573D01*
X6808499Y-13962478D01*
X6818023Y-13914859D01*
X6827546Y-13886287D01*
X6837070Y-13867240D01*
X6856118Y-13838668D01*
X6865642Y-13829144D01*
X6951356Y-14057716D02*
X6989451Y-14057716D01*
X7008499Y-14048192D01*
X7018023Y-14038668D01*
X7037070Y-14010097D01*
X7046594Y-13972002D01*
X7046594Y-13895811D01*
X7037070Y-13876763D01*
X7027546Y-13867240D01*
X7008499Y-13857716D01*
X6970403Y-13857716D01*
X6951356Y-13867240D01*
X6941832Y-13876763D01*
X6932308Y-13895811D01*
X6932308Y-13943430D01*
X6941832Y-13962478D01*
X6951356Y-13972002D01*
X6970403Y-13981525D01*
X7008499Y-13981525D01*
X7027546Y-13972002D01*
X7037070Y-13962478D01*
X7046594Y-13943430D01*
X7122784Y-13876763D02*
X7132308Y-13867240D01*
X7151356Y-13857716D01*
X7198975Y-13857716D01*
X7218023Y-13867240D01*
X7227546Y-13876763D01*
X7237070Y-13895811D01*
X7237070Y-13914859D01*
X7227546Y-13943430D01*
X7113261Y-14057716D01*
X7237070Y-14057716D01*
X7475165Y-14057716D02*
X7475165Y-13857716D01*
X7560880Y-14057716D02*
X7560880Y-13952954D01*
X7551356Y-13933906D01*
X7532308Y-13924382D01*
X7503737Y-13924382D01*
X7484689Y-13933906D01*
X7475165Y-13943430D01*
X7684689Y-14057716D02*
X7665642Y-14048192D01*
X7656118Y-14038668D01*
X7646594Y-14019621D01*
X7646594Y-13962478D01*
X7656118Y-13943430D01*
X7665642Y-13933906D01*
X7684689Y-13924382D01*
X7713261Y-13924382D01*
X7732308Y-13933906D01*
X7741832Y-13943430D01*
X7751356Y-13962478D01*
X7751356Y-14019621D01*
X7741832Y-14038668D01*
X7732308Y-14048192D01*
X7713261Y-14057716D01*
X7684689Y-14057716D01*
X7865642Y-14057716D02*
X7846594Y-14048192D01*
X7837070Y-14029144D01*
X7837070Y-13857716D01*
X8018023Y-14048192D02*
X7998975Y-14057716D01*
X7960880Y-14057716D01*
X7941832Y-14048192D01*
X7932308Y-14029144D01*
X7932308Y-13952954D01*
X7941832Y-13933906D01*
X7960880Y-13924382D01*
X7998975Y-13924382D01*
X8018023Y-13933906D01*
X8027546Y-13952954D01*
X8027546Y-13972002D01*
X7932308Y-13991049D01*
X8103737Y-14048192D02*
X8122784Y-14057716D01*
X8160880Y-14057716D01*
X8179927Y-14048192D01*
X8189451Y-14029144D01*
X8189451Y-14019621D01*
X8179927Y-14000573D01*
X8160880Y-13991049D01*
X8132308Y-13991049D01*
X8113261Y-13981525D01*
X8103737Y-13962478D01*
X8103737Y-13952954D01*
X8113261Y-13933906D01*
X8132308Y-13924382D01*
X8160880Y-13924382D01*
X8179927Y-13933906D01*
X8256118Y-14133906D02*
X8265642Y-14124382D01*
X8284689Y-14095811D01*
X8294213Y-14076763D01*
X8303737Y-14048192D01*
X8313261Y-14000573D01*
X8313261Y-13962478D01*
X8303737Y-13914859D01*
X8294213Y-13886287D01*
X8284689Y-13867240D01*
X8265642Y-13838668D01*
X8256118Y-13829144D01*
D17*
X3183737Y-14176240D02*
X3293737Y-14286240D01*
X3293737Y-14176240D02*
X3183737Y-14286240D01*
X3238737Y-14176240D02*
X3238737Y-14286240D01*
X3183737Y-14231240D02*
X3293737Y-14231240D01*
D11*
X3656118Y-14321716D02*
X3541832Y-14321716D01*
X3598975Y-14321716D02*
X3598975Y-14121716D01*
X3579927Y-14150287D01*
X3560880Y-14169335D01*
X3541832Y-14178859D01*
X3741832Y-14302668D02*
X3751356Y-14312192D01*
X3741832Y-14321716D01*
X3732308Y-14312192D01*
X3741832Y-14302668D01*
X3741832Y-14321716D01*
X3941832Y-14321716D02*
X3827546Y-14321716D01*
X3884689Y-14321716D02*
X3884689Y-14121716D01*
X3865642Y-14150287D01*
X3846594Y-14169335D01*
X3827546Y-14178859D01*
X4065642Y-14121716D02*
X4084689Y-14121716D01*
X4103737Y-14131240D01*
X4113261Y-14140763D01*
X4122784Y-14159811D01*
X4132308Y-14197906D01*
X4132308Y-14245525D01*
X4122784Y-14283621D01*
X4113261Y-14302668D01*
X4103737Y-14312192D01*
X4084689Y-14321716D01*
X4065642Y-14321716D01*
X4046594Y-14312192D01*
X4037070Y-14302668D01*
X4027546Y-14283621D01*
X4018023Y-14245525D01*
X4018023Y-14197906D01*
X4027546Y-14159811D01*
X4037070Y-14140763D01*
X4046594Y-14131240D01*
X4065642Y-14121716D01*
X4256118Y-14121716D02*
X4275165Y-14121716D01*
X4294213Y-14131240D01*
X4303737Y-14140763D01*
X4313261Y-14159811D01*
X4322785Y-14197906D01*
X4322785Y-14245525D01*
X4313261Y-14283621D01*
X4303737Y-14302668D01*
X4294213Y-14312192D01*
X4275165Y-14321716D01*
X4256118Y-14321716D01*
X4237070Y-14312192D01*
X4227546Y-14302668D01*
X4218023Y-14283621D01*
X4208499Y-14245525D01*
X4208499Y-14197906D01*
X4218023Y-14159811D01*
X4227546Y-14140763D01*
X4237070Y-14131240D01*
X4256118Y-14121716D01*
X4408499Y-14321716D02*
X4408499Y-14188382D01*
X4408499Y-14207430D02*
X4418023Y-14197906D01*
X4437070Y-14188382D01*
X4465642Y-14188382D01*
X4484689Y-14197906D01*
X4494213Y-14216954D01*
X4494213Y-14321716D01*
X4494213Y-14216954D02*
X4503737Y-14197906D01*
X4522785Y-14188382D01*
X4551356Y-14188382D01*
X4570404Y-14197906D01*
X4579927Y-14216954D01*
X4579927Y-14321716D01*
X4675165Y-14321716D02*
X4675165Y-14188382D01*
X4675165Y-14207430D02*
X4684689Y-14197906D01*
X4703737Y-14188382D01*
X4732308Y-14188382D01*
X4751356Y-14197906D01*
X4760880Y-14216954D01*
X4760880Y-14321716D01*
X4760880Y-14216954D02*
X4770404Y-14197906D01*
X4789451Y-14188382D01*
X4818023Y-14188382D01*
X4837070Y-14197906D01*
X4846594Y-14216954D01*
X4846594Y-14321716D01*
X5237070Y-14112192D02*
X5065642Y-14369335D01*
X5494213Y-14121716D02*
X5513261Y-14121716D01*
X5532308Y-14131240D01*
X5541832Y-14140763D01*
X5551356Y-14159811D01*
X5560880Y-14197906D01*
X5560880Y-14245525D01*
X5551356Y-14283621D01*
X5541832Y-14302668D01*
X5532308Y-14312192D01*
X5513261Y-14321716D01*
X5494213Y-14321716D01*
X5475165Y-14312192D01*
X5465642Y-14302668D01*
X5456118Y-14283621D01*
X5446594Y-14245525D01*
X5446594Y-14197906D01*
X5456118Y-14159811D01*
X5465642Y-14140763D01*
X5475165Y-14131240D01*
X5494213Y-14121716D01*
X5646594Y-14302668D02*
X5656118Y-14312192D01*
X5646594Y-14321716D01*
X5637070Y-14312192D01*
X5646594Y-14302668D01*
X5646594Y-14321716D01*
X5779927Y-14121716D02*
X5798975Y-14121716D01*
X5818023Y-14131240D01*
X5827546Y-14140763D01*
X5837070Y-14159811D01*
X5846594Y-14197906D01*
X5846594Y-14245525D01*
X5837070Y-14283621D01*
X5827546Y-14302668D01*
X5818023Y-14312192D01*
X5798975Y-14321716D01*
X5779927Y-14321716D01*
X5760880Y-14312192D01*
X5751356Y-14302668D01*
X5741832Y-14283621D01*
X5732308Y-14245525D01*
X5732308Y-14197906D01*
X5741832Y-14159811D01*
X5751356Y-14140763D01*
X5760880Y-14131240D01*
X5779927Y-14121716D01*
X6018023Y-14188382D02*
X6018023Y-14321716D01*
X5970403Y-14112192D02*
X5922784Y-14255049D01*
X6046594Y-14255049D01*
X6103737Y-14121716D02*
X6227546Y-14121716D01*
X6160880Y-14197906D01*
X6189451Y-14197906D01*
X6208499Y-14207430D01*
X6218023Y-14216954D01*
X6227546Y-14236002D01*
X6227546Y-14283621D01*
X6218023Y-14302668D01*
X6208499Y-14312192D01*
X6189451Y-14321716D01*
X6132308Y-14321716D01*
X6113261Y-14312192D01*
X6103737Y-14302668D01*
X6294213Y-14121716D02*
X6418023Y-14121716D01*
X6351356Y-14197906D01*
X6379927Y-14197906D01*
X6398975Y-14207430D01*
X6408499Y-14216954D01*
X6418023Y-14236002D01*
X6418023Y-14283621D01*
X6408499Y-14302668D01*
X6398975Y-14312192D01*
X6379927Y-14321716D01*
X6322784Y-14321716D01*
X6303737Y-14312192D01*
X6294213Y-14302668D01*
X6494213Y-14121716D02*
X6494213Y-14159811D01*
X6570403Y-14121716D02*
X6570403Y-14159811D01*
X6865642Y-14397906D02*
X6856118Y-14388382D01*
X6837070Y-14359811D01*
X6827546Y-14340763D01*
X6818023Y-14312192D01*
X6808499Y-14264573D01*
X6808499Y-14226478D01*
X6818023Y-14178859D01*
X6827546Y-14150287D01*
X6837070Y-14131240D01*
X6856118Y-14102668D01*
X6865642Y-14093144D01*
X6922784Y-14121716D02*
X7046594Y-14121716D01*
X6979927Y-14197906D01*
X7008499Y-14197906D01*
X7027546Y-14207430D01*
X7037070Y-14216954D01*
X7046594Y-14236002D01*
X7046594Y-14283621D01*
X7037070Y-14302668D01*
X7027546Y-14312192D01*
X7008499Y-14321716D01*
X6951356Y-14321716D01*
X6932308Y-14312192D01*
X6922784Y-14302668D01*
X7284689Y-14321716D02*
X7284689Y-14121716D01*
X7370403Y-14321716D02*
X7370403Y-14216954D01*
X7360880Y-14197906D01*
X7341832Y-14188382D01*
X7313261Y-14188382D01*
X7294213Y-14197906D01*
X7284689Y-14207430D01*
X7494213Y-14321716D02*
X7475165Y-14312192D01*
X7465642Y-14302668D01*
X7456118Y-14283621D01*
X7456118Y-14226478D01*
X7465642Y-14207430D01*
X7475165Y-14197906D01*
X7494213Y-14188382D01*
X7522784Y-14188382D01*
X7541832Y-14197906D01*
X7551356Y-14207430D01*
X7560880Y-14226478D01*
X7560880Y-14283621D01*
X7551356Y-14302668D01*
X7541832Y-14312192D01*
X7522784Y-14321716D01*
X7494213Y-14321716D01*
X7675165Y-14321716D02*
X7656118Y-14312192D01*
X7646594Y-14293144D01*
X7646594Y-14121716D01*
X7827546Y-14312192D02*
X7808499Y-14321716D01*
X7770403Y-14321716D01*
X7751356Y-14312192D01*
X7741832Y-14293144D01*
X7741832Y-14216954D01*
X7751356Y-14197906D01*
X7770403Y-14188382D01*
X7808499Y-14188382D01*
X7827546Y-14197906D01*
X7837070Y-14216954D01*
X7837070Y-14236002D01*
X7741832Y-14255049D01*
X7913261Y-14312192D02*
X7932308Y-14321716D01*
X7970403Y-14321716D01*
X7989451Y-14312192D01*
X7998975Y-14293144D01*
X7998975Y-14283621D01*
X7989451Y-14264573D01*
X7970403Y-14255049D01*
X7941832Y-14255049D01*
X7922784Y-14245525D01*
X7913261Y-14226478D01*
X7913261Y-14216954D01*
X7922784Y-14197906D01*
X7941832Y-14188382D01*
X7970403Y-14188382D01*
X7989451Y-14197906D01*
X8065642Y-14397906D02*
X8075165Y-14388382D01*
X8094213Y-14359811D01*
X8103737Y-14340763D01*
X8113261Y-14312192D01*
X8122784Y-14264573D01*
X8122784Y-14226478D01*
X8113261Y-14178859D01*
X8103737Y-14150287D01*
X8094213Y-14131240D01*
X8075165Y-14102668D01*
X8065642Y-14093144D01*
D18*
X3163737Y-14430240D02*
X3293737Y-14560240D01*
X3293737Y-14430240D02*
X3163737Y-14560240D01*
X3274699Y-14541202D02*
X3274699Y-14449277D01*
X3182774Y-14449277D01*
X3182774Y-14541202D01*
X3274699Y-14541202D01*
D11*
X3656118Y-14585716D02*
X3541832Y-14585716D01*
X3598975Y-14585716D02*
X3598975Y-14385716D01*
X3579927Y-14414287D01*
X3560880Y-14433335D01*
X3541832Y-14442859D01*
X3741832Y-14566668D02*
X3751356Y-14576192D01*
X3741832Y-14585716D01*
X3732308Y-14576192D01*
X3741832Y-14566668D01*
X3741832Y-14585716D01*
X3818023Y-14385716D02*
X3941832Y-14385716D01*
X3875165Y-14461906D01*
X3903737Y-14461906D01*
X3922784Y-14471430D01*
X3932308Y-14480954D01*
X3941832Y-14500002D01*
X3941832Y-14547621D01*
X3932308Y-14566668D01*
X3922784Y-14576192D01*
X3903737Y-14585716D01*
X3846594Y-14585716D01*
X3827546Y-14576192D01*
X3818023Y-14566668D01*
X4065642Y-14385716D02*
X4084689Y-14385716D01*
X4103737Y-14395240D01*
X4113261Y-14404763D01*
X4122784Y-14423811D01*
X4132308Y-14461906D01*
X4132308Y-14509525D01*
X4122784Y-14547621D01*
X4113261Y-14566668D01*
X4103737Y-14576192D01*
X4084689Y-14585716D01*
X4065642Y-14585716D01*
X4046594Y-14576192D01*
X4037070Y-14566668D01*
X4027546Y-14547621D01*
X4018023Y-14509525D01*
X4018023Y-14461906D01*
X4027546Y-14423811D01*
X4037070Y-14404763D01*
X4046594Y-14395240D01*
X4065642Y-14385716D01*
X4256118Y-14385716D02*
X4275165Y-14385716D01*
X4294213Y-14395240D01*
X4303737Y-14404763D01*
X4313261Y-14423811D01*
X4322785Y-14461906D01*
X4322785Y-14509525D01*
X4313261Y-14547621D01*
X4303737Y-14566668D01*
X4294213Y-14576192D01*
X4275165Y-14585716D01*
X4256118Y-14585716D01*
X4237070Y-14576192D01*
X4227546Y-14566668D01*
X4218023Y-14547621D01*
X4208499Y-14509525D01*
X4208499Y-14461906D01*
X4218023Y-14423811D01*
X4227546Y-14404763D01*
X4237070Y-14395240D01*
X4256118Y-14385716D01*
X4408499Y-14585716D02*
X4408499Y-14452382D01*
X4408499Y-14471430D02*
X4418023Y-14461906D01*
X4437070Y-14452382D01*
X4465642Y-14452382D01*
X4484689Y-14461906D01*
X4494213Y-14480954D01*
X4494213Y-14585716D01*
X4494213Y-14480954D02*
X4503737Y-14461906D01*
X4522785Y-14452382D01*
X4551356Y-14452382D01*
X4570404Y-14461906D01*
X4579927Y-14480954D01*
X4579927Y-14585716D01*
X4675165Y-14585716D02*
X4675165Y-14452382D01*
X4675165Y-14471430D02*
X4684689Y-14461906D01*
X4703737Y-14452382D01*
X4732308Y-14452382D01*
X4751356Y-14461906D01*
X4760880Y-14480954D01*
X4760880Y-14585716D01*
X4760880Y-14480954D02*
X4770404Y-14461906D01*
X4789451Y-14452382D01*
X4818023Y-14452382D01*
X4837070Y-14461906D01*
X4846594Y-14480954D01*
X4846594Y-14585716D01*
X5237070Y-14376192D02*
X5065642Y-14633335D01*
X5494213Y-14385716D02*
X5513261Y-14385716D01*
X5532308Y-14395240D01*
X5541832Y-14404763D01*
X5551356Y-14423811D01*
X5560880Y-14461906D01*
X5560880Y-14509525D01*
X5551356Y-14547621D01*
X5541832Y-14566668D01*
X5532308Y-14576192D01*
X5513261Y-14585716D01*
X5494213Y-14585716D01*
X5475165Y-14576192D01*
X5465642Y-14566668D01*
X5456118Y-14547621D01*
X5446594Y-14509525D01*
X5446594Y-14461906D01*
X5456118Y-14423811D01*
X5465642Y-14404763D01*
X5475165Y-14395240D01*
X5494213Y-14385716D01*
X5646594Y-14566668D02*
X5656118Y-14576192D01*
X5646594Y-14585716D01*
X5637070Y-14576192D01*
X5646594Y-14566668D01*
X5646594Y-14585716D01*
X5779927Y-14385716D02*
X5798975Y-14385716D01*
X5818023Y-14395240D01*
X5827546Y-14404763D01*
X5837070Y-14423811D01*
X5846594Y-14461906D01*
X5846594Y-14509525D01*
X5837070Y-14547621D01*
X5827546Y-14566668D01*
X5818023Y-14576192D01*
X5798975Y-14585716D01*
X5779927Y-14585716D01*
X5760880Y-14576192D01*
X5751356Y-14566668D01*
X5741832Y-14547621D01*
X5732308Y-14509525D01*
X5732308Y-14461906D01*
X5741832Y-14423811D01*
X5751356Y-14404763D01*
X5760880Y-14395240D01*
X5779927Y-14385716D01*
X6027546Y-14385716D02*
X5932308Y-14385716D01*
X5922784Y-14480954D01*
X5932308Y-14471430D01*
X5951356Y-14461906D01*
X5998975Y-14461906D01*
X6018023Y-14471430D01*
X6027546Y-14480954D01*
X6037070Y-14500002D01*
X6037070Y-14547621D01*
X6027546Y-14566668D01*
X6018023Y-14576192D01*
X5998975Y-14585716D01*
X5951356Y-14585716D01*
X5932308Y-14576192D01*
X5922784Y-14566668D01*
X6227546Y-14585716D02*
X6113261Y-14585716D01*
X6170403Y-14585716D02*
X6170403Y-14385716D01*
X6151356Y-14414287D01*
X6132308Y-14433335D01*
X6113261Y-14442859D01*
X6303737Y-14404763D02*
X6313261Y-14395240D01*
X6332308Y-14385716D01*
X6379927Y-14385716D01*
X6398975Y-14395240D01*
X6408499Y-14404763D01*
X6418023Y-14423811D01*
X6418023Y-14442859D01*
X6408499Y-14471430D01*
X6294213Y-14585716D01*
X6418023Y-14585716D01*
X6494213Y-14385716D02*
X6494213Y-14423811D01*
X6570403Y-14385716D02*
X6570403Y-14423811D01*
X6865642Y-14661906D02*
X6856118Y-14652382D01*
X6837070Y-14623811D01*
X6827546Y-14604763D01*
X6818023Y-14576192D01*
X6808499Y-14528573D01*
X6808499Y-14490478D01*
X6818023Y-14442859D01*
X6827546Y-14414287D01*
X6837070Y-14395240D01*
X6856118Y-14366668D01*
X6865642Y-14357144D01*
X7046594Y-14585716D02*
X6932308Y-14585716D01*
X6989451Y-14585716D02*
X6989451Y-14385716D01*
X6970403Y-14414287D01*
X6951356Y-14433335D01*
X6932308Y-14442859D01*
X7218023Y-14452382D02*
X7218023Y-14585716D01*
X7170403Y-14376192D02*
X7122784Y-14519049D01*
X7246594Y-14519049D01*
X7475165Y-14585716D02*
X7475165Y-14385716D01*
X7560880Y-14585716D02*
X7560880Y-14480954D01*
X7551356Y-14461906D01*
X7532308Y-14452382D01*
X7503737Y-14452382D01*
X7484689Y-14461906D01*
X7475165Y-14471430D01*
X7684689Y-14585716D02*
X7665642Y-14576192D01*
X7656118Y-14566668D01*
X7646594Y-14547621D01*
X7646594Y-14490478D01*
X7656118Y-14471430D01*
X7665642Y-14461906D01*
X7684689Y-14452382D01*
X7713261Y-14452382D01*
X7732308Y-14461906D01*
X7741832Y-14471430D01*
X7751356Y-14490478D01*
X7751356Y-14547621D01*
X7741832Y-14566668D01*
X7732308Y-14576192D01*
X7713261Y-14585716D01*
X7684689Y-14585716D01*
X7865642Y-14585716D02*
X7846594Y-14576192D01*
X7837070Y-14557144D01*
X7837070Y-14385716D01*
X8018023Y-14576192D02*
X7998975Y-14585716D01*
X7960880Y-14585716D01*
X7941832Y-14576192D01*
X7932308Y-14557144D01*
X7932308Y-14480954D01*
X7941832Y-14461906D01*
X7960880Y-14452382D01*
X7998975Y-14452382D01*
X8018023Y-14461906D01*
X8027546Y-14480954D01*
X8027546Y-14500002D01*
X7932308Y-14519049D01*
X8103737Y-14576192D02*
X8122784Y-14585716D01*
X8160880Y-14585716D01*
X8179927Y-14576192D01*
X8189451Y-14557144D01*
X8189451Y-14547621D01*
X8179927Y-14528573D01*
X8160880Y-14519049D01*
X8132308Y-14519049D01*
X8113261Y-14509525D01*
X8103737Y-14490478D01*
X8103737Y-14480954D01*
X8113261Y-14461906D01*
X8132308Y-14452382D01*
X8160880Y-14452382D01*
X8179927Y-14461906D01*
X8256118Y-14661906D02*
X8265642Y-14652382D01*
X8284689Y-14623811D01*
X8294213Y-14604763D01*
X8303737Y-14576192D01*
X8313261Y-14528573D01*
X8313261Y-14490478D01*
X8303737Y-14442859D01*
X8294213Y-14414287D01*
X8284689Y-14395240D01*
X8265642Y-14366668D01*
X8256118Y-14357144D01*
D19*
X3161737Y-14693240D02*
X3293737Y-14825240D01*
X3293737Y-14693240D02*
X3161737Y-14825240D01*
X3227737Y-14825240D02*
X3293737Y-14759240D01*
X3227737Y-14693240D01*
X3161737Y-14759240D01*
X3227737Y-14825240D01*
D11*
X3656118Y-14849716D02*
X3541832Y-14849716D01*
X3598975Y-14849716D02*
X3598975Y-14649716D01*
X3579927Y-14678287D01*
X3560880Y-14697335D01*
X3541832Y-14706859D01*
X3741832Y-14830668D02*
X3751356Y-14840192D01*
X3741832Y-14849716D01*
X3732308Y-14840192D01*
X3741832Y-14830668D01*
X3741832Y-14849716D01*
X3818023Y-14649716D02*
X3941832Y-14649716D01*
X3875165Y-14725906D01*
X3903737Y-14725906D01*
X3922784Y-14735430D01*
X3932308Y-14744954D01*
X3941832Y-14764002D01*
X3941832Y-14811621D01*
X3932308Y-14830668D01*
X3922784Y-14840192D01*
X3903737Y-14849716D01*
X3846594Y-14849716D01*
X3827546Y-14840192D01*
X3818023Y-14830668D01*
X4018023Y-14668763D02*
X4027546Y-14659240D01*
X4046594Y-14649716D01*
X4094213Y-14649716D01*
X4113261Y-14659240D01*
X4122784Y-14668763D01*
X4132308Y-14687811D01*
X4132308Y-14706859D01*
X4122784Y-14735430D01*
X4008499Y-14849716D01*
X4132308Y-14849716D01*
X4256118Y-14649716D02*
X4275165Y-14649716D01*
X4294213Y-14659240D01*
X4303737Y-14668763D01*
X4313261Y-14687811D01*
X4322785Y-14725906D01*
X4322785Y-14773525D01*
X4313261Y-14811621D01*
X4303737Y-14830668D01*
X4294213Y-14840192D01*
X4275165Y-14849716D01*
X4256118Y-14849716D01*
X4237070Y-14840192D01*
X4227546Y-14830668D01*
X4218023Y-14811621D01*
X4208499Y-14773525D01*
X4208499Y-14725906D01*
X4218023Y-14687811D01*
X4227546Y-14668763D01*
X4237070Y-14659240D01*
X4256118Y-14649716D01*
X4408499Y-14849716D02*
X4408499Y-14716382D01*
X4408499Y-14735430D02*
X4418023Y-14725906D01*
X4437070Y-14716382D01*
X4465642Y-14716382D01*
X4484689Y-14725906D01*
X4494213Y-14744954D01*
X4494213Y-14849716D01*
X4494213Y-14744954D02*
X4503737Y-14725906D01*
X4522785Y-14716382D01*
X4551356Y-14716382D01*
X4570404Y-14725906D01*
X4579927Y-14744954D01*
X4579927Y-14849716D01*
X4675165Y-14849716D02*
X4675165Y-14716382D01*
X4675165Y-14735430D02*
X4684689Y-14725906D01*
X4703737Y-14716382D01*
X4732308Y-14716382D01*
X4751356Y-14725906D01*
X4760880Y-14744954D01*
X4760880Y-14849716D01*
X4760880Y-14744954D02*
X4770404Y-14725906D01*
X4789451Y-14716382D01*
X4818023Y-14716382D01*
X4837070Y-14725906D01*
X4846594Y-14744954D01*
X4846594Y-14849716D01*
X5237070Y-14640192D02*
X5065642Y-14897335D01*
X5494213Y-14649716D02*
X5513261Y-14649716D01*
X5532308Y-14659240D01*
X5541832Y-14668763D01*
X5551356Y-14687811D01*
X5560880Y-14725906D01*
X5560880Y-14773525D01*
X5551356Y-14811621D01*
X5541832Y-14830668D01*
X5532308Y-14840192D01*
X5513261Y-14849716D01*
X5494213Y-14849716D01*
X5475165Y-14840192D01*
X5465642Y-14830668D01*
X5456118Y-14811621D01*
X5446594Y-14773525D01*
X5446594Y-14725906D01*
X5456118Y-14687811D01*
X5465642Y-14668763D01*
X5475165Y-14659240D01*
X5494213Y-14649716D01*
X5646594Y-14830668D02*
X5656118Y-14840192D01*
X5646594Y-14849716D01*
X5637070Y-14840192D01*
X5646594Y-14830668D01*
X5646594Y-14849716D01*
X5779927Y-14649716D02*
X5798975Y-14649716D01*
X5818023Y-14659240D01*
X5827546Y-14668763D01*
X5837070Y-14687811D01*
X5846594Y-14725906D01*
X5846594Y-14773525D01*
X5837070Y-14811621D01*
X5827546Y-14830668D01*
X5818023Y-14840192D01*
X5798975Y-14849716D01*
X5779927Y-14849716D01*
X5760880Y-14840192D01*
X5751356Y-14830668D01*
X5741832Y-14811621D01*
X5732308Y-14773525D01*
X5732308Y-14725906D01*
X5741832Y-14687811D01*
X5751356Y-14668763D01*
X5760880Y-14659240D01*
X5779927Y-14649716D01*
X6027546Y-14649716D02*
X5932308Y-14649716D01*
X5922784Y-14744954D01*
X5932308Y-14735430D01*
X5951356Y-14725906D01*
X5998975Y-14725906D01*
X6018023Y-14735430D01*
X6027546Y-14744954D01*
X6037070Y-14764002D01*
X6037070Y-14811621D01*
X6027546Y-14830668D01*
X6018023Y-14840192D01*
X5998975Y-14849716D01*
X5951356Y-14849716D01*
X5932308Y-14840192D01*
X5922784Y-14830668D01*
X6113261Y-14668763D02*
X6122784Y-14659240D01*
X6141832Y-14649716D01*
X6189451Y-14649716D01*
X6208499Y-14659240D01*
X6218023Y-14668763D01*
X6227546Y-14687811D01*
X6227546Y-14706859D01*
X6218023Y-14735430D01*
X6103737Y-14849716D01*
X6227546Y-14849716D01*
X6351356Y-14649716D02*
X6370403Y-14649716D01*
X6389451Y-14659240D01*
X6398975Y-14668763D01*
X6408499Y-14687811D01*
X6418023Y-14725906D01*
X6418023Y-14773525D01*
X6408499Y-14811621D01*
X6398975Y-14830668D01*
X6389451Y-14840192D01*
X6370403Y-14849716D01*
X6351356Y-14849716D01*
X6332308Y-14840192D01*
X6322784Y-14830668D01*
X6313261Y-14811621D01*
X6303737Y-14773525D01*
X6303737Y-14725906D01*
X6313261Y-14687811D01*
X6322784Y-14668763D01*
X6332308Y-14659240D01*
X6351356Y-14649716D01*
X6494213Y-14649716D02*
X6494213Y-14687811D01*
X6570403Y-14649716D02*
X6570403Y-14687811D01*
X6865642Y-14925906D02*
X6856118Y-14916382D01*
X6837070Y-14887811D01*
X6827546Y-14868763D01*
X6818023Y-14840192D01*
X6808499Y-14792573D01*
X6808499Y-14754478D01*
X6818023Y-14706859D01*
X6827546Y-14678287D01*
X6837070Y-14659240D01*
X6856118Y-14630668D01*
X6865642Y-14621144D01*
X7046594Y-14849716D02*
X6932308Y-14849716D01*
X6989451Y-14849716D02*
X6989451Y-14649716D01*
X6970403Y-14678287D01*
X6951356Y-14697335D01*
X6932308Y-14706859D01*
X7218023Y-14649716D02*
X7179927Y-14649716D01*
X7160880Y-14659240D01*
X7151356Y-14668763D01*
X7132308Y-14697335D01*
X7122784Y-14735430D01*
X7122784Y-14811621D01*
X7132308Y-14830668D01*
X7141832Y-14840192D01*
X7160880Y-14849716D01*
X7198975Y-14849716D01*
X7218023Y-14840192D01*
X7227546Y-14830668D01*
X7237070Y-14811621D01*
X7237070Y-14764002D01*
X7227546Y-14744954D01*
X7218023Y-14735430D01*
X7198975Y-14725906D01*
X7160880Y-14725906D01*
X7141832Y-14735430D01*
X7132308Y-14744954D01*
X7122784Y-14764002D01*
X7475165Y-14849716D02*
X7475165Y-14649716D01*
X7560880Y-14849716D02*
X7560880Y-14744954D01*
X7551356Y-14725906D01*
X7532308Y-14716382D01*
X7503737Y-14716382D01*
X7484689Y-14725906D01*
X7475165Y-14735430D01*
X7684689Y-14849716D02*
X7665642Y-14840192D01*
X7656118Y-14830668D01*
X7646594Y-14811621D01*
X7646594Y-14754478D01*
X7656118Y-14735430D01*
X7665642Y-14725906D01*
X7684689Y-14716382D01*
X7713261Y-14716382D01*
X7732308Y-14725906D01*
X7741832Y-14735430D01*
X7751356Y-14754478D01*
X7751356Y-14811621D01*
X7741832Y-14830668D01*
X7732308Y-14840192D01*
X7713261Y-14849716D01*
X7684689Y-14849716D01*
X7865642Y-14849716D02*
X7846594Y-14840192D01*
X7837070Y-14821144D01*
X7837070Y-14649716D01*
X8018023Y-14840192D02*
X7998975Y-14849716D01*
X7960880Y-14849716D01*
X7941832Y-14840192D01*
X7932308Y-14821144D01*
X7932308Y-14744954D01*
X7941832Y-14725906D01*
X7960880Y-14716382D01*
X7998975Y-14716382D01*
X8018023Y-14725906D01*
X8027546Y-14744954D01*
X8027546Y-14764002D01*
X7932308Y-14783049D01*
X8103737Y-14840192D02*
X8122784Y-14849716D01*
X8160880Y-14849716D01*
X8179927Y-14840192D01*
X8189451Y-14821144D01*
X8189451Y-14811621D01*
X8179927Y-14792573D01*
X8160880Y-14783049D01*
X8132308Y-14783049D01*
X8113261Y-14773525D01*
X8103737Y-14754478D01*
X8103737Y-14744954D01*
X8113261Y-14725906D01*
X8132308Y-14716382D01*
X8160880Y-14716382D01*
X8179927Y-14725906D01*
X8256118Y-14925906D02*
X8265642Y-14916382D01*
X8284689Y-14887811D01*
X8294213Y-14868763D01*
X8303737Y-14840192D01*
X8313261Y-14792573D01*
X8313261Y-14754478D01*
X8303737Y-14706859D01*
X8294213Y-14678287D01*
X8284689Y-14659240D01*
X8265642Y-14630668D01*
X8256118Y-14621144D01*
D20*
X3218737Y-14948240D02*
X3218737Y-15098240D01*
X3143737Y-15023240D02*
X3293737Y-15023240D01*
X3293737Y-15023240D02*
G75*
G03*
X3293737Y-15023240I-75000J0D01*
G01*
D11*
X3656118Y-15113716D02*
X3541832Y-15113716D01*
X3598975Y-15113716D02*
X3598975Y-14913716D01*
X3579927Y-14942287D01*
X3560880Y-14961335D01*
X3541832Y-14970859D01*
X3741832Y-15094668D02*
X3751356Y-15104192D01*
X3741832Y-15113716D01*
X3732308Y-15104192D01*
X3741832Y-15094668D01*
X3741832Y-15113716D01*
X3932308Y-14913716D02*
X3837070Y-14913716D01*
X3827546Y-15008954D01*
X3837070Y-14999430D01*
X3856118Y-14989906D01*
X3903737Y-14989906D01*
X3922784Y-14999430D01*
X3932308Y-15008954D01*
X3941832Y-15028002D01*
X3941832Y-15075621D01*
X3932308Y-15094668D01*
X3922784Y-15104192D01*
X3903737Y-15113716D01*
X3856118Y-15113716D01*
X3837070Y-15104192D01*
X3827546Y-15094668D01*
X4065642Y-14913716D02*
X4084689Y-14913716D01*
X4103737Y-14923240D01*
X4113261Y-14932763D01*
X4122784Y-14951811D01*
X4132308Y-14989906D01*
X4132308Y-15037525D01*
X4122784Y-15075621D01*
X4113261Y-15094668D01*
X4103737Y-15104192D01*
X4084689Y-15113716D01*
X4065642Y-15113716D01*
X4046594Y-15104192D01*
X4037070Y-15094668D01*
X4027546Y-15075621D01*
X4018023Y-15037525D01*
X4018023Y-14989906D01*
X4027546Y-14951811D01*
X4037070Y-14932763D01*
X4046594Y-14923240D01*
X4065642Y-14913716D01*
X4256118Y-14913716D02*
X4275165Y-14913716D01*
X4294213Y-14923240D01*
X4303737Y-14932763D01*
X4313261Y-14951811D01*
X4322785Y-14989906D01*
X4322785Y-15037525D01*
X4313261Y-15075621D01*
X4303737Y-15094668D01*
X4294213Y-15104192D01*
X4275165Y-15113716D01*
X4256118Y-15113716D01*
X4237070Y-15104192D01*
X4227546Y-15094668D01*
X4218023Y-15075621D01*
X4208499Y-15037525D01*
X4208499Y-14989906D01*
X4218023Y-14951811D01*
X4227546Y-14932763D01*
X4237070Y-14923240D01*
X4256118Y-14913716D01*
X4408499Y-15113716D02*
X4408499Y-14980382D01*
X4408499Y-14999430D02*
X4418023Y-14989906D01*
X4437070Y-14980382D01*
X4465642Y-14980382D01*
X4484689Y-14989906D01*
X4494213Y-15008954D01*
X4494213Y-15113716D01*
X4494213Y-15008954D02*
X4503737Y-14989906D01*
X4522785Y-14980382D01*
X4551356Y-14980382D01*
X4570404Y-14989906D01*
X4579927Y-15008954D01*
X4579927Y-15113716D01*
X4675165Y-15113716D02*
X4675165Y-14980382D01*
X4675165Y-14999430D02*
X4684689Y-14989906D01*
X4703737Y-14980382D01*
X4732308Y-14980382D01*
X4751356Y-14989906D01*
X4760880Y-15008954D01*
X4760880Y-15113716D01*
X4760880Y-15008954D02*
X4770404Y-14989906D01*
X4789451Y-14980382D01*
X4818023Y-14980382D01*
X4837070Y-14989906D01*
X4846594Y-15008954D01*
X4846594Y-15113716D01*
X5237070Y-14904192D02*
X5065642Y-15161335D01*
X5494213Y-14913716D02*
X5513261Y-14913716D01*
X5532308Y-14923240D01*
X5541832Y-14932763D01*
X5551356Y-14951811D01*
X5560880Y-14989906D01*
X5560880Y-15037525D01*
X5551356Y-15075621D01*
X5541832Y-15094668D01*
X5532308Y-15104192D01*
X5513261Y-15113716D01*
X5494213Y-15113716D01*
X5475165Y-15104192D01*
X5465642Y-15094668D01*
X5456118Y-15075621D01*
X5446594Y-15037525D01*
X5446594Y-14989906D01*
X5456118Y-14951811D01*
X5465642Y-14932763D01*
X5475165Y-14923240D01*
X5494213Y-14913716D01*
X5646594Y-15094668D02*
X5656118Y-15104192D01*
X5646594Y-15113716D01*
X5637070Y-15104192D01*
X5646594Y-15094668D01*
X5646594Y-15113716D01*
X5779927Y-14913716D02*
X5798975Y-14913716D01*
X5818023Y-14923240D01*
X5827546Y-14932763D01*
X5837070Y-14951811D01*
X5846594Y-14989906D01*
X5846594Y-15037525D01*
X5837070Y-15075621D01*
X5827546Y-15094668D01*
X5818023Y-15104192D01*
X5798975Y-15113716D01*
X5779927Y-15113716D01*
X5760880Y-15104192D01*
X5751356Y-15094668D01*
X5741832Y-15075621D01*
X5732308Y-15037525D01*
X5732308Y-14989906D01*
X5741832Y-14951811D01*
X5751356Y-14932763D01*
X5760880Y-14923240D01*
X5779927Y-14913716D01*
X6027546Y-14913716D02*
X5932308Y-14913716D01*
X5922784Y-15008954D01*
X5932308Y-14999430D01*
X5951356Y-14989906D01*
X5998975Y-14989906D01*
X6018023Y-14999430D01*
X6027546Y-15008954D01*
X6037070Y-15028002D01*
X6037070Y-15075621D01*
X6027546Y-15094668D01*
X6018023Y-15104192D01*
X5998975Y-15113716D01*
X5951356Y-15113716D01*
X5932308Y-15104192D01*
X5922784Y-15094668D01*
X6132308Y-15113716D02*
X6170403Y-15113716D01*
X6189451Y-15104192D01*
X6198975Y-15094668D01*
X6218023Y-15066097D01*
X6227546Y-15028002D01*
X6227546Y-14951811D01*
X6218023Y-14932763D01*
X6208499Y-14923240D01*
X6189451Y-14913716D01*
X6151356Y-14913716D01*
X6132308Y-14923240D01*
X6122784Y-14932763D01*
X6113261Y-14951811D01*
X6113261Y-14999430D01*
X6122784Y-15018478D01*
X6132308Y-15028002D01*
X6151356Y-15037525D01*
X6189451Y-15037525D01*
X6208499Y-15028002D01*
X6218023Y-15018478D01*
X6227546Y-14999430D01*
X6418023Y-15113716D02*
X6303737Y-15113716D01*
X6360880Y-15113716D02*
X6360880Y-14913716D01*
X6341832Y-14942287D01*
X6322784Y-14961335D01*
X6303737Y-14970859D01*
X6494213Y-14913716D02*
X6494213Y-14951811D01*
X6570403Y-14913716D02*
X6570403Y-14951811D01*
X6865642Y-15189906D02*
X6856118Y-15180382D01*
X6837070Y-15151811D01*
X6827546Y-15132763D01*
X6818023Y-15104192D01*
X6808499Y-15056573D01*
X6808499Y-15018478D01*
X6818023Y-14970859D01*
X6827546Y-14942287D01*
X6837070Y-14923240D01*
X6856118Y-14894668D01*
X6865642Y-14885144D01*
X7027546Y-14913716D02*
X6989451Y-14913716D01*
X6970403Y-14923240D01*
X6960880Y-14932763D01*
X6941832Y-14961335D01*
X6932308Y-14999430D01*
X6932308Y-15075621D01*
X6941832Y-15094668D01*
X6951356Y-15104192D01*
X6970403Y-15113716D01*
X7008499Y-15113716D01*
X7027546Y-15104192D01*
X7037070Y-15094668D01*
X7046594Y-15075621D01*
X7046594Y-15028002D01*
X7037070Y-15008954D01*
X7027546Y-14999430D01*
X7008499Y-14989906D01*
X6970403Y-14989906D01*
X6951356Y-14999430D01*
X6941832Y-15008954D01*
X6932308Y-15028002D01*
X7284689Y-15113716D02*
X7284689Y-14913716D01*
X7370403Y-15113716D02*
X7370403Y-15008954D01*
X7360880Y-14989906D01*
X7341832Y-14980382D01*
X7313261Y-14980382D01*
X7294213Y-14989906D01*
X7284689Y-14999430D01*
X7494213Y-15113716D02*
X7475165Y-15104192D01*
X7465642Y-15094668D01*
X7456118Y-15075621D01*
X7456118Y-15018478D01*
X7465642Y-14999430D01*
X7475165Y-14989906D01*
X7494213Y-14980382D01*
X7522784Y-14980382D01*
X7541832Y-14989906D01*
X7551356Y-14999430D01*
X7560880Y-15018478D01*
X7560880Y-15075621D01*
X7551356Y-15094668D01*
X7541832Y-15104192D01*
X7522784Y-15113716D01*
X7494213Y-15113716D01*
X7675165Y-15113716D02*
X7656118Y-15104192D01*
X7646594Y-15085144D01*
X7646594Y-14913716D01*
X7827546Y-15104192D02*
X7808499Y-15113716D01*
X7770403Y-15113716D01*
X7751356Y-15104192D01*
X7741832Y-15085144D01*
X7741832Y-15008954D01*
X7751356Y-14989906D01*
X7770403Y-14980382D01*
X7808499Y-14980382D01*
X7827546Y-14989906D01*
X7837070Y-15008954D01*
X7837070Y-15028002D01*
X7741832Y-15047049D01*
X7913261Y-15104192D02*
X7932308Y-15113716D01*
X7970403Y-15113716D01*
X7989451Y-15104192D01*
X7998975Y-15085144D01*
X7998975Y-15075621D01*
X7989451Y-15056573D01*
X7970403Y-15047049D01*
X7941832Y-15047049D01*
X7922784Y-15037525D01*
X7913261Y-15018478D01*
X7913261Y-15008954D01*
X7922784Y-14989906D01*
X7941832Y-14980382D01*
X7970403Y-14980382D01*
X7989451Y-14989906D01*
X8065642Y-15189906D02*
X8075165Y-15180382D01*
X8094213Y-15151811D01*
X8103737Y-15132763D01*
X8113261Y-15104192D01*
X8122784Y-15056573D01*
X8122784Y-15018478D01*
X8113261Y-14970859D01*
X8103737Y-14942287D01*
X8094213Y-14923240D01*
X8075165Y-14894668D01*
X8065642Y-14885144D01*
M02*
