%TF.GenerationSoftware,KiCad,Pcbnew,(6.0.7)*%
%TF.CreationDate,2022-10-04T21:38:49-04:00*%
%TF.ProjectId,mh-custom-v2,6d682d63-7573-4746-9f6d-2d76322e6b69,rev?*%
%TF.SameCoordinates,Original*%
%TF.FileFunction,Drillmap*%
%TF.FilePolarity,Positive*%
%FSLAX45Y45*%
G04 Gerber Fmt 4.5, Leading zero omitted, Abs format (unit mm)*
G04 Created by KiCad (PCBNEW (6.0.7)) date 2022-10-04 21:38:49*
%MOMM*%
%LPD*%
G01*
G04 APERTURE LIST*
%ADD10C,0.000787*%
%ADD11C,0.200000*%
%ADD12C,0.120000*%
G04 APERTURE END LIST*
D10*
X9650380Y-2081729D02*
X8520370Y-2081723D01*
X10780385Y-2081728D02*
X9650380Y-2081729D01*
X10831362Y-2090643D02*
X10780385Y-2081728D01*
X10859991Y-2114147D02*
X10831362Y-2090643D01*
X10890942Y-2185468D02*
X10859991Y-2114147D01*
X10913631Y-2223560D02*
X10890942Y-2185468D01*
X10954709Y-2256790D02*
X10913631Y-2223560D01*
X11024360Y-2280294D02*
X10954709Y-2256790D01*
X11132767Y-2289209D02*
X11024360Y-2280294D01*
X11584266Y-2289209D02*
X11132767Y-2289209D01*
X11584267Y-2489199D02*
X11584266Y-2289209D01*
X11601948Y-2576779D02*
X11584267Y-2489199D01*
X11650167Y-2648297D02*
X11601948Y-2576779D01*
X11721686Y-2696516D02*
X11650167Y-2648297D01*
X11809265Y-2714198D02*
X11721686Y-2696516D01*
X12865423Y-2714198D02*
X11809265Y-2714198D01*
X12865423Y-11385172D02*
X12865423Y-2714198D01*
X11809264Y-11385172D02*
X12865423Y-11385172D01*
X11721685Y-11402854D02*
X11809264Y-11385172D01*
X11650166Y-11451073D02*
X11721685Y-11402854D01*
X11601947Y-11522592D02*
X11650166Y-11451073D01*
X11584266Y-11610171D02*
X11601947Y-11522592D01*
X11584266Y-11799720D02*
X11584266Y-11610171D01*
X11132769Y-11799720D02*
X11584266Y-11799720D01*
X11024362Y-11808635D02*
X11132769Y-11799720D01*
X10954712Y-11832139D02*
X11024362Y-11808635D01*
X10913634Y-11865368D02*
X10954712Y-11832139D01*
X10890944Y-11903460D02*
X10913634Y-11865368D01*
X10859993Y-11974782D02*
X10890944Y-11903460D01*
X10831364Y-11998285D02*
X10859993Y-11974782D01*
X10780387Y-12007200D02*
X10831364Y-11998285D01*
X9650380Y-12007200D02*
X10780387Y-12007200D01*
X8520374Y-12007200D02*
X9650380Y-12007200D01*
X8469397Y-11998285D02*
X8520374Y-12007200D01*
X8440768Y-11974782D02*
X8469397Y-11998285D01*
X8409817Y-11903460D02*
X8440768Y-11974782D01*
X8387127Y-11865368D02*
X8409817Y-11903460D01*
X8346049Y-11832139D02*
X8387127Y-11865368D01*
X8276399Y-11808635D02*
X8346049Y-11832139D01*
X8167992Y-11799720D02*
X8276399Y-11808635D01*
X7831943Y-11799720D02*
X8167992Y-11799720D01*
X7831942Y-11496431D02*
X7831943Y-11799720D01*
X7814315Y-11408689D02*
X7831942Y-11496431D01*
X7766186Y-11337189D02*
X7814315Y-11408689D01*
X7694685Y-11289060D02*
X7766186Y-11337189D01*
X7606943Y-11271433D02*
X7694685Y-11289060D01*
X7519202Y-11289060D02*
X7606943Y-11271433D01*
X7447702Y-11337189D02*
X7519202Y-11289060D01*
X7399572Y-11408689D02*
X7447702Y-11337189D01*
X7381944Y-11496431D02*
X7399572Y-11408689D01*
X7381944Y-11503717D02*
X7381944Y-11496431D01*
X7135134Y-11503717D02*
X7381944Y-11503717D01*
X6705135Y-11503717D02*
X7135134Y-11503717D01*
X6705135Y-11418399D02*
X6705135Y-11503717D01*
X6705133Y-11405481D02*
X6705135Y-11418399D01*
X6693444Y-11377172D02*
X6705133Y-11405481D01*
X6665135Y-11365484D02*
X6693444Y-11377172D01*
X6303613Y-11365483D02*
X6665135Y-11365484D01*
X6275305Y-11377172D02*
X6303613Y-11365483D01*
X6263616Y-11405480D02*
X6275305Y-11377172D01*
X6263616Y-11463720D02*
X6263616Y-11405480D01*
X6263616Y-11503717D02*
X6263616Y-11463720D01*
X5431058Y-11503717D02*
X6263616Y-11503717D01*
X5431058Y-11418399D02*
X5431058Y-11503717D01*
X5431056Y-11405481D02*
X5431058Y-11418399D01*
X5419367Y-11377172D02*
X5431056Y-11405481D01*
X5391058Y-11365484D02*
X5419367Y-11377172D01*
X5029586Y-11365483D02*
X5391058Y-11365484D01*
X5001277Y-11377172D02*
X5029586Y-11365483D01*
X4989589Y-11405480D02*
X5001277Y-11377172D01*
X4989589Y-11463720D02*
X4989589Y-11405480D01*
X4989589Y-11503717D02*
X4989589Y-11463720D01*
X4165142Y-11503717D02*
X4989589Y-11503717D01*
X4165142Y-11463720D02*
X4165142Y-11503717D01*
X4165142Y-11418399D02*
X4165142Y-11463720D01*
X4165142Y-11405481D02*
X4165142Y-11418399D01*
X4153453Y-11377172D02*
X4165142Y-11405481D01*
X4125144Y-11365484D02*
X4153453Y-11377172D01*
X3765116Y-11365483D02*
X4125144Y-11365484D01*
X3736807Y-11377172D02*
X3765116Y-11365483D01*
X3725118Y-11405480D02*
X3736807Y-11377172D01*
X3725118Y-11418399D02*
X3725118Y-11405480D01*
X3725118Y-11463720D02*
X3725118Y-11418399D01*
X3725118Y-11503717D02*
X3725118Y-11463720D01*
X3293776Y-11503717D02*
X3725118Y-11503717D01*
X3293776Y-2289209D02*
X3293776Y-11503717D01*
X8167988Y-2289204D02*
X3293776Y-2289209D01*
X8276395Y-2280289D02*
X8167988Y-2289204D01*
X8346045Y-2256785D02*
X8276395Y-2280289D01*
X8387123Y-2223555D02*
X8346045Y-2256785D01*
X8409813Y-2185463D02*
X8387123Y-2223555D01*
X8440764Y-2114142D02*
X8409813Y-2185463D01*
X8469393Y-2090638D02*
X8440764Y-2114142D01*
X8520370Y-2081723D02*
X8469393Y-2090638D01*
X8098533Y-3923935D02*
X8098527Y-2465678D01*
X8223532Y-3923935D02*
X8098533Y-3923935D01*
X8223532Y-2465678D02*
X8223532Y-3923935D01*
X8098527Y-2465678D02*
X8223532Y-2465678D01*
X8648022Y-7345939D02*
X8648011Y-7337159D01*
X8772201Y-7345939D02*
X8648022Y-7345939D01*
X8772192Y-7346407D02*
X8772201Y-7345939D01*
X8759217Y-7428105D02*
X8772192Y-7346407D01*
X8722506Y-7504852D02*
X8759217Y-7428105D01*
X8665228Y-7569956D02*
X8722506Y-7504852D01*
X8590551Y-7616726D02*
X8665228Y-7569956D01*
X8520151Y-7637600D02*
X8590551Y-7616726D01*
X8468749Y-7642460D02*
X8520151Y-7637600D01*
X8382398Y-7631970D02*
X8468749Y-7642460D01*
X8273722Y-7613263D02*
X8382398Y-7631970D01*
X8147002Y-7638851D02*
X8273722Y-7613263D01*
X8043520Y-7708622D02*
X8147002Y-7638851D01*
X7973749Y-7812104D02*
X8043520Y-7708622D01*
X7948162Y-7938825D02*
X7973749Y-7812104D01*
X7973750Y-8065543D02*
X7948162Y-7938825D01*
X8043521Y-8169025D02*
X7973750Y-8065543D01*
X8147002Y-8238797D02*
X8043521Y-8169025D01*
X8273722Y-8264385D02*
X8147002Y-8238797D01*
X8382398Y-8245626D02*
X8273722Y-8264385D01*
X8468749Y-8235239D02*
X8382398Y-8245626D01*
X8574324Y-8254205D02*
X8468749Y-8235239D01*
X8652754Y-8297130D02*
X8574324Y-8254205D01*
X8715484Y-8363797D02*
X8652754Y-8297130D01*
X8757089Y-8444113D02*
X8715484Y-8363797D01*
X8772141Y-8527986D02*
X8757089Y-8444113D01*
X8747691Y-8667290D02*
X8772141Y-8527986D01*
X8683309Y-8763992D02*
X8747691Y-8667290D01*
X8539443Y-8903002D02*
X8683309Y-8763992D01*
X8453851Y-9009216D02*
X8539443Y-8903002D01*
X8389104Y-9128385D02*
X8453851Y-9009216D01*
X8348509Y-9248537D02*
X8389104Y-9128385D01*
X8335372Y-9357702D02*
X8348509Y-9248537D01*
X8335072Y-9812454D02*
X8335372Y-9357702D01*
X8210018Y-9812455D02*
X8335072Y-9812454D01*
X8210318Y-9358891D02*
X8210018Y-9812455D01*
X8229234Y-9213766D02*
X8210318Y-9358891D01*
X8277313Y-9070658D02*
X8229234Y-9213766D01*
X8352382Y-8935305D02*
X8277313Y-9070658D01*
X8452268Y-8813448D02*
X8352382Y-8935305D01*
X8595566Y-8673922D02*
X8452268Y-8813448D01*
X8595766Y-8674022D02*
X8595566Y-8673922D01*
X8634942Y-8612915D02*
X8595766Y-8674022D01*
X8648166Y-8531085D02*
X8634942Y-8612915D01*
X8634593Y-8468654D02*
X8648166Y-8531085D01*
X8596135Y-8413543D02*
X8634593Y-8468654D01*
X8538863Y-8374246D02*
X8596135Y-8413543D01*
X8468849Y-8359261D02*
X8538863Y-8374246D01*
X8415777Y-8367426D02*
X8468849Y-8359261D01*
X8303381Y-8389544D02*
X8415777Y-8367426D01*
X8206797Y-8385617D02*
X8303381Y-8389544D01*
X8206849Y-8385517D02*
X8206797Y-8385617D01*
X8126819Y-8365974D02*
X8206849Y-8385517D01*
X8053424Y-8333174D02*
X8126819Y-8365974D01*
X7931514Y-8233573D02*
X8053424Y-8333174D01*
X7851064Y-8098259D02*
X7931514Y-8233573D01*
X7829493Y-8020817D02*
X7851064Y-8098259D01*
X7822016Y-7938775D02*
X7829493Y-8020817D01*
X7829534Y-7856810D02*
X7822016Y-7938775D01*
X7851136Y-7779555D02*
X7829534Y-7856810D01*
X7931187Y-7644749D02*
X7851136Y-7779555D01*
X8051363Y-7545517D02*
X7931187Y-7644749D01*
X8200855Y-7493015D02*
X8051363Y-7545517D01*
X8305603Y-7488261D02*
X8200855Y-7493015D01*
X8406165Y-7506864D02*
X8305603Y-7488261D01*
X8468849Y-7518336D02*
X8406165Y-7506864D01*
X8538832Y-7504356D02*
X8468849Y-7518336D01*
X8596053Y-7465956D02*
X8538832Y-7504356D01*
X8634463Y-7408452D02*
X8596053Y-7465956D01*
X8648011Y-7337159D02*
X8634463Y-7408452D01*
X8683308Y-5384979D02*
X8539542Y-5245973D01*
X8748289Y-5482461D02*
X8683308Y-5384979D01*
X8772243Y-5620571D02*
X8748289Y-5482461D01*
X8756458Y-5705940D02*
X8772243Y-5620571D01*
X8712534Y-5789162D02*
X8756458Y-5705940D01*
X8645716Y-5857774D02*
X8712534Y-5789162D01*
X8561249Y-5899314D02*
X8645716Y-5857774D01*
X8439530Y-5914434D02*
X8561249Y-5899314D01*
X8382500Y-5903345D02*
X8439530Y-5914434D01*
X8273825Y-5884586D02*
X8382500Y-5903345D01*
X8147105Y-5910174D02*
X8273825Y-5884586D01*
X8043623Y-5979946D02*
X8147105Y-5910174D01*
X7973852Y-6083427D02*
X8043623Y-5979946D01*
X7948264Y-6210146D02*
X7973852Y-6083427D01*
X7973851Y-6336867D02*
X7948264Y-6210146D01*
X8043622Y-6440348D02*
X7973851Y-6336867D01*
X8147104Y-6510119D02*
X8043622Y-6440348D01*
X8273825Y-6535707D02*
X8147104Y-6510119D01*
X8382500Y-6517000D02*
X8273825Y-6535707D01*
X8468852Y-6506510D02*
X8382500Y-6517000D01*
X8543937Y-6516638D02*
X8468852Y-6506510D01*
X8652652Y-6568907D02*
X8543937Y-6516638D01*
X8722848Y-6643481D02*
X8652652Y-6568907D01*
X8760652Y-6725236D02*
X8722848Y-6643481D01*
X8772191Y-6799050D02*
X8760652Y-6725236D01*
X8648011Y-6799054D02*
X8772191Y-6799050D01*
X8634547Y-6735772D02*
X8648011Y-6799054D01*
X8596128Y-6681987D02*
X8634547Y-6735772D01*
X8538860Y-6644631D02*
X8596128Y-6681987D01*
X8468849Y-6630640D02*
X8538860Y-6644631D01*
X8406165Y-6642112D02*
X8468849Y-6630640D01*
X8305603Y-6660716D02*
X8406165Y-6642112D01*
X8166231Y-6648882D02*
X8305603Y-6660716D01*
X8039317Y-6596380D02*
X8166231Y-6648882D01*
X7929136Y-6499704D02*
X8039317Y-6596380D01*
X7851449Y-6367947D02*
X7929136Y-6499704D01*
X7829715Y-6291754D02*
X7851449Y-6367947D01*
X7822016Y-6210202D02*
X7829715Y-6291754D01*
X7850445Y-6051353D02*
X7822016Y-6210202D01*
X7929455Y-5917163D02*
X7850445Y-6051353D01*
X8049727Y-5818001D02*
X7929455Y-5917163D01*
X8201940Y-5764235D02*
X8049727Y-5818001D01*
X8303381Y-5759429D02*
X8201940Y-5764235D01*
X8415777Y-5781546D02*
X8303381Y-5759429D01*
X8468849Y-5789711D02*
X8415777Y-5781546D01*
X8538643Y-5775948D02*
X8468849Y-5789711D01*
X8595567Y-5738047D02*
X8538643Y-5775948D01*
X8634012Y-5681097D02*
X8595567Y-5738047D01*
X8648373Y-5610187D02*
X8634012Y-5681097D01*
X8633835Y-5533155D02*
X8648373Y-5610187D01*
X8605740Y-5486061D02*
X8633835Y-5533155D01*
X8452261Y-5335528D02*
X8605740Y-5486061D01*
X8539542Y-5245973D02*
X8452261Y-5335528D01*
X5522618Y-3627006D02*
X5522618Y-3627006D01*
X5435038Y-3644687D02*
X5522618Y-3627006D01*
X5363520Y-3692906D02*
X5435038Y-3644687D01*
X5315301Y-3764425D02*
X5363520Y-3692906D01*
X5297619Y-3852005D02*
X5315301Y-3764425D01*
X5315301Y-3939584D02*
X5297619Y-3852005D01*
X5363520Y-4011102D02*
X5315301Y-3939584D01*
X5435038Y-4059322D02*
X5363520Y-4011102D01*
X5522618Y-4077003D02*
X5435038Y-4059322D01*
X5610197Y-4059322D02*
X5522618Y-4077003D01*
X5681715Y-4011102D02*
X5610197Y-4059322D01*
X5729935Y-3939584D02*
X5681715Y-4011102D01*
X5747616Y-3852005D02*
X5729935Y-3939584D01*
X5729935Y-3764425D02*
X5747616Y-3852005D01*
X5681715Y-3692906D02*
X5729935Y-3764425D01*
X5610197Y-3644687D02*
X5681715Y-3692906D01*
X5522618Y-3627006D02*
X5610197Y-3644687D01*
X8214552Y-11230493D02*
X8214551Y-10576432D01*
X8339552Y-11230493D02*
X8214552Y-11230493D01*
X8339552Y-10576442D02*
X8339552Y-11230493D01*
X8214551Y-10576432D02*
X8339552Y-10576442D01*
X9077701Y-7517558D02*
X9077701Y-6627690D01*
X9202710Y-7517558D02*
X9077701Y-7517558D01*
X9202710Y-6627690D02*
X9202710Y-7517558D01*
X9077701Y-6627690D02*
X9202710Y-6627690D01*
D11*
D12*
X3388000Y-10991700D02*
X3508000Y-11111700D01*
X3508000Y-10991700D02*
X3388000Y-11111700D01*
X3388000Y-11241700D02*
X3508000Y-11361700D01*
X3508000Y-11241700D02*
X3388000Y-11361700D01*
X3888000Y-10491700D02*
X4008000Y-10611700D01*
X4008000Y-10491700D02*
X3888000Y-10611700D01*
X4388000Y-10991700D02*
X4508000Y-11111700D01*
X4508000Y-10991700D02*
X4388000Y-11111700D01*
X4388000Y-11241700D02*
X4508000Y-11361700D01*
X4508000Y-11241700D02*
X4388000Y-11361700D01*
X4653950Y-10991700D02*
X4773950Y-11111700D01*
X4773950Y-10991700D02*
X4653950Y-11111700D01*
X4653950Y-11241700D02*
X4773950Y-11361700D01*
X4773950Y-11241700D02*
X4653950Y-11361700D01*
X5153950Y-10491700D02*
X5273950Y-10611700D01*
X5273950Y-10491700D02*
X5153950Y-10611700D01*
X5653950Y-10991700D02*
X5773950Y-11111700D01*
X5773950Y-10991700D02*
X5653950Y-11111700D01*
X5653950Y-11241700D02*
X5773950Y-11361700D01*
X5773950Y-11241700D02*
X5653950Y-11361700D01*
X5928000Y-10991700D02*
X6048000Y-11111700D01*
X6048000Y-10991700D02*
X5928000Y-11111700D01*
X5928000Y-11241700D02*
X6048000Y-11361700D01*
X6048000Y-11241700D02*
X5928000Y-11361700D01*
X6428000Y-10491700D02*
X6548000Y-10611700D01*
X6548000Y-10491700D02*
X6428000Y-10611700D01*
X6928000Y-10991700D02*
X7048000Y-11111700D01*
X7048000Y-10991700D02*
X6928000Y-11111700D01*
X6928000Y-11241700D02*
X7048000Y-11361700D01*
X7048000Y-11241700D02*
X6928000Y-11361700D01*
D11*
X3551356Y-12317716D02*
X3551356Y-12117716D01*
X3598975Y-12117716D01*
X3627546Y-12127240D01*
X3646594Y-12146287D01*
X3656118Y-12165335D01*
X3665642Y-12203430D01*
X3665642Y-12232002D01*
X3656118Y-12270097D01*
X3646594Y-12289144D01*
X3627546Y-12308192D01*
X3598975Y-12317716D01*
X3551356Y-12317716D01*
X3751356Y-12317716D02*
X3751356Y-12184382D01*
X3751356Y-12222478D02*
X3760880Y-12203430D01*
X3770403Y-12193906D01*
X3789451Y-12184382D01*
X3808499Y-12184382D01*
X3875165Y-12317716D02*
X3875165Y-12184382D01*
X3875165Y-12117716D02*
X3865642Y-12127240D01*
X3875165Y-12136763D01*
X3884689Y-12127240D01*
X3875165Y-12117716D01*
X3875165Y-12136763D01*
X3998975Y-12317716D02*
X3979927Y-12308192D01*
X3970403Y-12289144D01*
X3970403Y-12117716D01*
X4103737Y-12317716D02*
X4084689Y-12308192D01*
X4075165Y-12289144D01*
X4075165Y-12117716D01*
X4332308Y-12317716D02*
X4332308Y-12117716D01*
X4398975Y-12260573D01*
X4465642Y-12117716D01*
X4465642Y-12317716D01*
X4646594Y-12317716D02*
X4646594Y-12212954D01*
X4637070Y-12193906D01*
X4618023Y-12184382D01*
X4579927Y-12184382D01*
X4560880Y-12193906D01*
X4646594Y-12308192D02*
X4627546Y-12317716D01*
X4579927Y-12317716D01*
X4560880Y-12308192D01*
X4551356Y-12289144D01*
X4551356Y-12270097D01*
X4560880Y-12251049D01*
X4579927Y-12241525D01*
X4627546Y-12241525D01*
X4646594Y-12232002D01*
X4741832Y-12184382D02*
X4741832Y-12384382D01*
X4741832Y-12193906D02*
X4760880Y-12184382D01*
X4798975Y-12184382D01*
X4818023Y-12193906D01*
X4827546Y-12203430D01*
X4837070Y-12222478D01*
X4837070Y-12279621D01*
X4827546Y-12298668D01*
X4818023Y-12308192D01*
X4798975Y-12317716D01*
X4760880Y-12317716D01*
X4741832Y-12308192D01*
X4922785Y-12298668D02*
X4932308Y-12308192D01*
X4922785Y-12317716D01*
X4913261Y-12308192D01*
X4922785Y-12298668D01*
X4922785Y-12317716D01*
X4922785Y-12193906D02*
X4932308Y-12203430D01*
X4922785Y-12212954D01*
X4913261Y-12203430D01*
X4922785Y-12193906D01*
X4922785Y-12212954D01*
D12*
X3173737Y-12587240D02*
X3293737Y-12707240D01*
X3293737Y-12587240D02*
X3173737Y-12707240D01*
D11*
X3656118Y-12737716D02*
X3541832Y-12737716D01*
X3598975Y-12737716D02*
X3598975Y-12537716D01*
X3579927Y-12566287D01*
X3560880Y-12585335D01*
X3541832Y-12594859D01*
X3741832Y-12718668D02*
X3751356Y-12728192D01*
X3741832Y-12737716D01*
X3732308Y-12728192D01*
X3741832Y-12718668D01*
X3741832Y-12737716D01*
X3827546Y-12556763D02*
X3837070Y-12547240D01*
X3856118Y-12537716D01*
X3903737Y-12537716D01*
X3922784Y-12547240D01*
X3932308Y-12556763D01*
X3941832Y-12575811D01*
X3941832Y-12594859D01*
X3932308Y-12623430D01*
X3818023Y-12737716D01*
X3941832Y-12737716D01*
X4065642Y-12537716D02*
X4084689Y-12537716D01*
X4103737Y-12547240D01*
X4113261Y-12556763D01*
X4122784Y-12575811D01*
X4132308Y-12613906D01*
X4132308Y-12661525D01*
X4122784Y-12699621D01*
X4113261Y-12718668D01*
X4103737Y-12728192D01*
X4084689Y-12737716D01*
X4065642Y-12737716D01*
X4046594Y-12728192D01*
X4037070Y-12718668D01*
X4027546Y-12699621D01*
X4018023Y-12661525D01*
X4018023Y-12613906D01*
X4027546Y-12575811D01*
X4037070Y-12556763D01*
X4046594Y-12547240D01*
X4065642Y-12537716D01*
X4256118Y-12537716D02*
X4275165Y-12537716D01*
X4294213Y-12547240D01*
X4303737Y-12556763D01*
X4313261Y-12575811D01*
X4322785Y-12613906D01*
X4322785Y-12661525D01*
X4313261Y-12699621D01*
X4303737Y-12718668D01*
X4294213Y-12728192D01*
X4275165Y-12737716D01*
X4256118Y-12737716D01*
X4237070Y-12728192D01*
X4227546Y-12718668D01*
X4218023Y-12699621D01*
X4208499Y-12661525D01*
X4208499Y-12613906D01*
X4218023Y-12575811D01*
X4227546Y-12556763D01*
X4237070Y-12547240D01*
X4256118Y-12537716D01*
X4408499Y-12737716D02*
X4408499Y-12604382D01*
X4408499Y-12623430D02*
X4418023Y-12613906D01*
X4437070Y-12604382D01*
X4465642Y-12604382D01*
X4484689Y-12613906D01*
X4494213Y-12632954D01*
X4494213Y-12737716D01*
X4494213Y-12632954D02*
X4503737Y-12613906D01*
X4522785Y-12604382D01*
X4551356Y-12604382D01*
X4570404Y-12613906D01*
X4579927Y-12632954D01*
X4579927Y-12737716D01*
X4675165Y-12737716D02*
X4675165Y-12604382D01*
X4675165Y-12623430D02*
X4684689Y-12613906D01*
X4703737Y-12604382D01*
X4732308Y-12604382D01*
X4751356Y-12613906D01*
X4760880Y-12632954D01*
X4760880Y-12737716D01*
X4760880Y-12632954D02*
X4770404Y-12613906D01*
X4789451Y-12604382D01*
X4818023Y-12604382D01*
X4837070Y-12613906D01*
X4846594Y-12632954D01*
X4846594Y-12737716D01*
X5237070Y-12528192D02*
X5065642Y-12785335D01*
X5494213Y-12537716D02*
X5513261Y-12537716D01*
X5532308Y-12547240D01*
X5541832Y-12556763D01*
X5551356Y-12575811D01*
X5560880Y-12613906D01*
X5560880Y-12661525D01*
X5551356Y-12699621D01*
X5541832Y-12718668D01*
X5532308Y-12728192D01*
X5513261Y-12737716D01*
X5494213Y-12737716D01*
X5475165Y-12728192D01*
X5465642Y-12718668D01*
X5456118Y-12699621D01*
X5446594Y-12661525D01*
X5446594Y-12613906D01*
X5456118Y-12575811D01*
X5465642Y-12556763D01*
X5475165Y-12547240D01*
X5494213Y-12537716D01*
X5646594Y-12718668D02*
X5656118Y-12728192D01*
X5646594Y-12737716D01*
X5637070Y-12728192D01*
X5646594Y-12718668D01*
X5646594Y-12737716D01*
X5779927Y-12537716D02*
X5798975Y-12537716D01*
X5818023Y-12547240D01*
X5827546Y-12556763D01*
X5837070Y-12575811D01*
X5846594Y-12613906D01*
X5846594Y-12661525D01*
X5837070Y-12699621D01*
X5827546Y-12718668D01*
X5818023Y-12728192D01*
X5798975Y-12737716D01*
X5779927Y-12737716D01*
X5760880Y-12728192D01*
X5751356Y-12718668D01*
X5741832Y-12699621D01*
X5732308Y-12661525D01*
X5732308Y-12613906D01*
X5741832Y-12575811D01*
X5751356Y-12556763D01*
X5760880Y-12547240D01*
X5779927Y-12537716D01*
X6018023Y-12604382D02*
X6018023Y-12737716D01*
X5970403Y-12528192D02*
X5922784Y-12671049D01*
X6046594Y-12671049D01*
X6103737Y-12537716D02*
X6237070Y-12537716D01*
X6151356Y-12737716D01*
X6303737Y-12556763D02*
X6313261Y-12547240D01*
X6332308Y-12537716D01*
X6379927Y-12537716D01*
X6398975Y-12547240D01*
X6408499Y-12556763D01*
X6418023Y-12575811D01*
X6418023Y-12594859D01*
X6408499Y-12623430D01*
X6294213Y-12737716D01*
X6418023Y-12737716D01*
X6494213Y-12537716D02*
X6494213Y-12575811D01*
X6570403Y-12537716D02*
X6570403Y-12575811D01*
X6865642Y-12813906D02*
X6856118Y-12804382D01*
X6837070Y-12775811D01*
X6827546Y-12756763D01*
X6818023Y-12728192D01*
X6808499Y-12680573D01*
X6808499Y-12642478D01*
X6818023Y-12594859D01*
X6827546Y-12566287D01*
X6837070Y-12547240D01*
X6856118Y-12518668D01*
X6865642Y-12509144D01*
X7046594Y-12737716D02*
X6932308Y-12737716D01*
X6989451Y-12737716D02*
X6989451Y-12537716D01*
X6970403Y-12566287D01*
X6951356Y-12585335D01*
X6932308Y-12594859D01*
X7227546Y-12537716D02*
X7132308Y-12537716D01*
X7122784Y-12632954D01*
X7132308Y-12623430D01*
X7151356Y-12613906D01*
X7198975Y-12613906D01*
X7218023Y-12623430D01*
X7227546Y-12632954D01*
X7237070Y-12652002D01*
X7237070Y-12699621D01*
X7227546Y-12718668D01*
X7218023Y-12728192D01*
X7198975Y-12737716D01*
X7151356Y-12737716D01*
X7132308Y-12728192D01*
X7122784Y-12718668D01*
X7475165Y-12737716D02*
X7475165Y-12537716D01*
X7560880Y-12737716D02*
X7560880Y-12632954D01*
X7551356Y-12613906D01*
X7532308Y-12604382D01*
X7503737Y-12604382D01*
X7484689Y-12613906D01*
X7475165Y-12623430D01*
X7684689Y-12737716D02*
X7665642Y-12728192D01*
X7656118Y-12718668D01*
X7646594Y-12699621D01*
X7646594Y-12642478D01*
X7656118Y-12623430D01*
X7665642Y-12613906D01*
X7684689Y-12604382D01*
X7713261Y-12604382D01*
X7732308Y-12613906D01*
X7741832Y-12623430D01*
X7751356Y-12642478D01*
X7751356Y-12699621D01*
X7741832Y-12718668D01*
X7732308Y-12728192D01*
X7713261Y-12737716D01*
X7684689Y-12737716D01*
X7865642Y-12737716D02*
X7846594Y-12728192D01*
X7837070Y-12709144D01*
X7837070Y-12537716D01*
X8018023Y-12728192D02*
X7998975Y-12737716D01*
X7960880Y-12737716D01*
X7941832Y-12728192D01*
X7932308Y-12709144D01*
X7932308Y-12632954D01*
X7941832Y-12613906D01*
X7960880Y-12604382D01*
X7998975Y-12604382D01*
X8018023Y-12613906D01*
X8027546Y-12632954D01*
X8027546Y-12652002D01*
X7932308Y-12671049D01*
X8103737Y-12728192D02*
X8122784Y-12737716D01*
X8160880Y-12737716D01*
X8179927Y-12728192D01*
X8189451Y-12709144D01*
X8189451Y-12699621D01*
X8179927Y-12680573D01*
X8160880Y-12671049D01*
X8132308Y-12671049D01*
X8113261Y-12661525D01*
X8103737Y-12642478D01*
X8103737Y-12632954D01*
X8113261Y-12613906D01*
X8132308Y-12604382D01*
X8160880Y-12604382D01*
X8179927Y-12613906D01*
X8256118Y-12813906D02*
X8265642Y-12804382D01*
X8284689Y-12775811D01*
X8294213Y-12756763D01*
X8303737Y-12728192D01*
X8313261Y-12680573D01*
X8313261Y-12642478D01*
X8303737Y-12594859D01*
X8294213Y-12566287D01*
X8284689Y-12547240D01*
X8265642Y-12518668D01*
X8256118Y-12509144D01*
X8618023Y-12813906D02*
X8608499Y-12804382D01*
X8589451Y-12775811D01*
X8579927Y-12756763D01*
X8570404Y-12728192D01*
X8560880Y-12680573D01*
X8560880Y-12642478D01*
X8570404Y-12594859D01*
X8579927Y-12566287D01*
X8589451Y-12547240D01*
X8608499Y-12518668D01*
X8618023Y-12509144D01*
X8694213Y-12604382D02*
X8694213Y-12737716D01*
X8694213Y-12623430D02*
X8703737Y-12613906D01*
X8722785Y-12604382D01*
X8751356Y-12604382D01*
X8770404Y-12613906D01*
X8779927Y-12632954D01*
X8779927Y-12737716D01*
X8903737Y-12737716D02*
X8884689Y-12728192D01*
X8875165Y-12718668D01*
X8865642Y-12699621D01*
X8865642Y-12642478D01*
X8875165Y-12623430D01*
X8884689Y-12613906D01*
X8903737Y-12604382D01*
X8932308Y-12604382D01*
X8951356Y-12613906D01*
X8960880Y-12623430D01*
X8970404Y-12642478D01*
X8970404Y-12699621D01*
X8960880Y-12718668D01*
X8951356Y-12728192D01*
X8932308Y-12737716D01*
X8903737Y-12737716D01*
X9027546Y-12604382D02*
X9103737Y-12604382D01*
X9056118Y-12537716D02*
X9056118Y-12709144D01*
X9065642Y-12728192D01*
X9084689Y-12737716D01*
X9103737Y-12737716D01*
X9322785Y-12604382D02*
X9322785Y-12804382D01*
X9322785Y-12613906D02*
X9341832Y-12604382D01*
X9379927Y-12604382D01*
X9398975Y-12613906D01*
X9408499Y-12623430D01*
X9418023Y-12642478D01*
X9418023Y-12699621D01*
X9408499Y-12718668D01*
X9398975Y-12728192D01*
X9379927Y-12737716D01*
X9341832Y-12737716D01*
X9322785Y-12728192D01*
X9532308Y-12737716D02*
X9513261Y-12728192D01*
X9503737Y-12709144D01*
X9503737Y-12537716D01*
X9694213Y-12737716D02*
X9694213Y-12632954D01*
X9684689Y-12613906D01*
X9665642Y-12604382D01*
X9627546Y-12604382D01*
X9608499Y-12613906D01*
X9694213Y-12728192D02*
X9675165Y-12737716D01*
X9627546Y-12737716D01*
X9608499Y-12728192D01*
X9598975Y-12709144D01*
X9598975Y-12690097D01*
X9608499Y-12671049D01*
X9627546Y-12661525D01*
X9675165Y-12661525D01*
X9694213Y-12652002D01*
X9760880Y-12604382D02*
X9837070Y-12604382D01*
X9789451Y-12537716D02*
X9789451Y-12709144D01*
X9798975Y-12728192D01*
X9818023Y-12737716D01*
X9837070Y-12737716D01*
X9979927Y-12728192D02*
X9960880Y-12737716D01*
X9922785Y-12737716D01*
X9903737Y-12728192D01*
X9894213Y-12709144D01*
X9894213Y-12632954D01*
X9903737Y-12613906D01*
X9922785Y-12604382D01*
X9960880Y-12604382D01*
X9979927Y-12613906D01*
X9989451Y-12632954D01*
X9989451Y-12652002D01*
X9894213Y-12671049D01*
X10160880Y-12737716D02*
X10160880Y-12537716D01*
X10160880Y-12728192D02*
X10141832Y-12737716D01*
X10103737Y-12737716D01*
X10084689Y-12728192D01*
X10075165Y-12718668D01*
X10065642Y-12699621D01*
X10065642Y-12642478D01*
X10075165Y-12623430D01*
X10084689Y-12613906D01*
X10103737Y-12604382D01*
X10141832Y-12604382D01*
X10160880Y-12613906D01*
X10237070Y-12813906D02*
X10246594Y-12804382D01*
X10265642Y-12775811D01*
X10275165Y-12756763D01*
X10284689Y-12728192D01*
X10294213Y-12680573D01*
X10294213Y-12642478D01*
X10284689Y-12594859D01*
X10275165Y-12566287D01*
X10265642Y-12547240D01*
X10246594Y-12518668D01*
X10237070Y-12509144D01*
M02*
