M48
; DRILL file {KiCad (6.0.7)} date Tue Oct  4 21:38:48 2022
; FORMAT={-:-/ absolute / metric / decimal}
; #@! TF.CreationDate,2022-10-04T21:38:48-04:00
; #@! TF.GenerationSoftware,Kicad,Pcbnew,(6.0.7)
; #@! TF.FileFunction,Plated,1,2,PTH
FMAT,2
METRIC
; #@! TA.AperFunction,Plated,PTH,ViaDrill
T1C0.400
; #@! TA.AperFunction,Plated,PTH,ComponentDrill
T2C0.400
; #@! TA.AperFunction,Plated,PTH,ComponentDrill
T3C0.700
; #@! TA.AperFunction,Plated,PTH,ComponentDrill
T4C0.750
; #@! TA.AperFunction,Plated,PTH,ComponentDrill
T5C0.800
; #@! TA.AperFunction,Plated,PTH,ComponentDrill
T6C1.000
; #@! TA.AperFunction,Plated,PTH,ComponentDrill
T7C1.100
; #@! TA.AperFunction,Plated,PTH,ComponentDrill
T8C1.300
; #@! TA.AperFunction,Plated,PTH,ComponentDrill
T9C1.320
; #@! TA.AperFunction,Plated,PTH,ComponentDrill
T10C1.500
%
G90
G05
T1
X34.019Y-90.386
X39.987Y-73.317
X40.955Y-85.2
X41.945Y-74.41
X42.045Y-90.5
X42.782Y-73.622
X43.544Y-68.161
X43.925Y-71.62
X44.433Y-70.066
X44.555Y-95.07
X45.207Y-68.669
X45.219Y-80.432
X48.125Y-89.55
X48.878Y-75.527
X48.995Y-77.81
X49.64Y-86.195
X50.021Y-73.241
X50.425Y-96.87
X50.656Y-82.258
X51.418Y-72.86
X52.053Y-74.257
X54.72Y-76.162
X54.974Y-98.641
X55.99Y-69.431
X56.875Y-95.42
X57.213Y-63.128
X57.26Y-67.145
X59.875Y-74.332
X59.925Y-92.268
X61.578Y-30.569
X63.25Y-74.575
X66.277Y-78.575
X67.375Y-75.325
X68.675Y-74.8
X70.849Y-88.354
X71.23Y-81.115
X72.627Y-77.178
X73.3Y-57.7
X73.575Y-59.975
X75.548Y-69.177
X77.275Y-56.475
X77.707Y-72.352
T3
X72.465Y-43.19
X72.465Y-50.81
X105.485Y-35.57
X105.485Y-50.81
T4
X36.9Y-76.925
X36.9Y-78.925
X36.9Y-80.925
X52.45Y-77.0
X52.45Y-79.0
X52.45Y-81.0
X52.45Y-83.0
X58.45Y-77.0
X58.45Y-79.0
X58.45Y-81.0
X58.45Y-83.0
X64.45Y-77.0
X64.45Y-79.0
X64.45Y-81.0
X64.45Y-83.0
X70.45Y-57.125
X70.45Y-59.125
X70.45Y-64.325
X70.45Y-66.325
X70.45Y-68.325
X70.45Y-70.325
X70.45Y-72.325
X70.45Y-74.325
T5
X41.915Y-81.195
X41.915Y-83.195
X44.635Y-86.07
X44.635Y-88.07
X48.175Y-64.77
X51.92Y-89.44
X53.055Y-64.77
X53.92Y-89.44
X58.535Y-88.43
X58.535Y-90.43
T6
X35.46Y-25.125
X35.46Y-27.665
X35.46Y-30.205
X35.46Y-32.745
X35.46Y-35.285
X35.46Y-37.825
X35.46Y-40.365
X35.46Y-42.905
X35.46Y-45.445
X35.46Y-47.985
X35.46Y-50.525
X35.46Y-53.065
X35.46Y-55.605
X35.46Y-58.145
X35.46Y-60.685
X35.46Y-63.225
X35.46Y-65.765
X35.46Y-68.305
X35.46Y-70.845
X37.52Y-98.36
X38.0Y-25.125
X38.0Y-27.665
X38.0Y-30.205
X38.0Y-32.745
X38.0Y-35.285
X38.0Y-37.825
X38.0Y-40.365
X38.0Y-42.905
X38.0Y-45.445
X38.0Y-47.985
X38.0Y-50.525
X38.0Y-53.065
X38.0Y-55.605
X38.0Y-58.145
X38.0Y-60.685
X38.0Y-63.225
X38.0Y-65.765
X38.0Y-68.305
X38.0Y-70.845
X40.06Y-98.36
X43.025Y-25.075
X45.565Y-25.075
X48.855Y-98.36
X51.395Y-98.36
X55.56Y-25.125
X58.1Y-25.125
X60.51Y-98.36
X63.05Y-98.36
X63.4Y-25.125
X63.4Y-27.665
X63.4Y-30.205
X63.4Y-32.745
X63.4Y-35.285
X63.4Y-37.825
X63.4Y-40.365
X63.4Y-42.905
X63.4Y-45.445
X63.4Y-47.985
X63.4Y-50.525
X63.4Y-53.065
X63.4Y-55.605
X63.4Y-58.145
X63.4Y-60.685
X63.4Y-63.225
X63.4Y-65.765
X63.4Y-68.305
X63.4Y-70.845
X65.94Y-25.125
X65.94Y-27.665
X65.94Y-30.205
X65.94Y-32.745
X65.94Y-35.285
X65.94Y-37.825
X65.94Y-40.365
X65.94Y-42.905
X65.94Y-45.445
X65.94Y-47.985
X65.94Y-50.525
X65.94Y-53.065
X65.94Y-55.605
X65.94Y-58.145
X65.94Y-60.685
X65.94Y-63.225
X65.94Y-65.765
X65.94Y-68.305
X65.94Y-70.845
X72.605Y-90.89
X72.605Y-98.49
X84.465Y-56.07
X84.465Y-68.07
X84.465Y-73.41
X84.465Y-85.41
T7
X70.16Y-27.075
X72.7Y-27.075
X75.24Y-27.075
T8
X82.515Y-62.02
X82.515Y-79.36
X87.975Y-92.38
X88.025Y-105.68
X94.375Y-92.43
X94.375Y-105.68
X96.665Y-68.07
X96.665Y-85.41
X96.715Y-56.02
X96.715Y-73.36
X100.675Y-92.38
X100.675Y-105.68
X104.925Y-105.68
X104.975Y-92.38
T9
X118.175Y-33.225
X118.175Y-38.225
X118.175Y-43.225
X118.175Y-48.225
X118.175Y-53.225
X118.175Y-58.225
X118.175Y-63.225
X118.175Y-68.225
X118.175Y-73.225
X118.175Y-78.225
X118.175Y-83.225
X118.175Y-88.225
X118.175Y-93.225
X118.175Y-98.225
X118.175Y-103.225
X118.175Y-108.225
T10
X85.225Y-25.675
X85.225Y-115.21
X106.409Y-59.017
X106.409Y-81.617
X107.825Y-25.675
X107.825Y-115.21
T2
X34.48Y-105.017G85X34.48Y-106.017
G05
X36.98Y-105.017G85X36.98Y-106.017
G05
X38.98Y-110.517G85X39.98Y-110.517
G05
X41.98Y-106.017G85X41.98Y-105.017
G05
X44.48Y-106.017G85X44.48Y-105.017
G05
X47.139Y-105.017G85X47.139Y-106.017
G05
X49.639Y-105.017G85X49.639Y-106.017
G05
X51.639Y-110.517G85X52.639Y-110.517
G05
X54.639Y-106.017G85X54.639Y-105.017
G05
X57.139Y-106.017G85X57.139Y-105.017
G05
X59.88Y-105.017G85X59.88Y-106.017
G05
X62.38Y-105.017G85X62.38Y-106.017
G05
X64.38Y-110.517G85X65.38Y-110.517
G05
X67.38Y-106.017G85X67.38Y-105.017
G05
X69.88Y-106.017G85X69.88Y-105.017
G05
T0
M30
