  0
SECTION
  2
HEADER
  9
$ACADVER
  1
AC1014
  9
$HANDSEED
  5
FFFF
  9
$MEASUREMENT
 70
     1
  0
ENDSEC
  0
SECTION
  2
TABLES
  0
TABLE
  2
VPORT
  5
8
330
0
100
AcDbSymbolTable
 70
     4
  0
VPORT
  5
2E
330
8
100
AcDbSymbolTableRecord
100
AcDbViewportTableRecord
  2
*ACTIVE
 70
     0
 10
0.0
 20
0.0
 11
1.0
 21
1.0
 12
210.0
 22
148.5
 13
0.0
 23
0.0
 14
10.0
 24
10.0
 15
10.0
 25
10.0
 16
0.0
 26
0.0
 36
1.0
 17
0.0
 27
0.0
 37
0.0
 40
341.0
 41
1.24
 42
50.0
 43
0.0
 44
0.0
 50
0.0
 51
0.0
 71
     0
 72
   100
 73
     1
 74
     3
 75
     0
 76
     0
 77
     0
 78
     0
  0
ENDTAB
  0
TABLE
  2
LTYPE
  5
5
330
0
100
AcDbSymbolTable
 70
     1
  0
LTYPE
  5
14
330
5
100
AcDbSymbolTableRecord
100
AcDbLinetypeTableRecord
  2
BYBLOCK
 70
     0
  3

 72
    65
 73
     0
 40
0.0
  0
LTYPE
  5
15
330
5
100
AcDbSymbolTableRecord
100
AcDbLinetypeTableRecord
  2
BYLAYER
 70
     0
  3

 72
    65
 73
     0
 40
0.0
  0
LTYPE
  5
16
330
5
100
AcDbSymbolTableRecord
100
AcDbLinetypeTableRecord
  2
CONTINUOUS
 70
     0
  3
Solid line
 72
    65
 73
     0
 40
0.0
  0
ENDTAB
  0
TABLE
  2
LAYER
  5
2
100
AcDbSymbolTable
 70
2
  0
LAYER
  5
50
100
AcDbSymbolTableRecord
100
AcDbLayerTableRecord
  2
0
 70
0
  6
CONTINUOUS
  0
LAYER
  5
51
100
AcDbSymbolTableRecord
100
AcDbLayerTableRecord
  2
Layer_1
 70
0
  6
CONTINUOUS
  0
ENDTAB
  0
TABLE
  2
STYLE
  5
3
330
0
100
AcDbSymbolTable
 70
     1
  0
STYLE
  5
11
330
3
100
AcDbSymbolTableRecord
100
AcDbTextStyleTableRecord
  2
STANDARD
 70
     0
 40
0.0
 41
1.0
 50
0.0
 71
     0
 42
2.5
  3
txt
  4

  0
ENDTAB
  0
TABLE
  2
VIEW
  5
6
330
0
100
AcDbSymbolTable
 70
     0
  0
ENDTAB
  0
TABLE
  2
UCS
  5
7
330
0
100
AcDbSymbolTable
 70
     0
  0
ENDTAB
  0
TABLE
  2
APPID
  5
9
330
0
100
AcDbSymbolTable
 70
     2
  0
APPID
  5
12
330
9
100
AcDbSymbolTableRecord
100
AcDbRegAppTableRecord
  2
ACAD
 70
     0
  0
ENDTAB
  0
TABLE
  2
DIMSTYLE
  5
A
330
0
100
AcDbSymbolTable
 70
     1
  0
DIMSTYLE
105
27
330
A
100
AcDbSymbolTableRecord
100
AcDbDimStyleTableRecord
  2
ISO-25
 70
     0
  3

  4

  5

  6

  7

 40
1.0
 41
2.5
 42
0.625
 43
3.75
 44
1.25
 45
0.0
 46
0.0
 47
0.0
 48
0.0
140
2.5
141
2.5
142
0.0
143
0.03937007874016
144
1.0
145
0.0
146
1.0
147
0.625
 71
     0
 72
     0
 73
     0
 74
     0
 75
     0
 76
     0
 77
     1
 78
     8
170
     0
171
     3
172
     1
173
     0
174
     0
175
     0
176
     0
177
     0
178
     0
270
     2
271
     2
272
     2
273
     2
274
     3
340
11
275
     0
280
     0
281
     0
282
     0
283
     0
284
     8
285
     0
286
     0
287
     3
288
     0
  0
ENDTAB
  0
TABLE
  2
BLOCK_RECORD
  5
1
330
0
100
AcDbSymbolTable
 70
     1
  0
BLOCK_RECORD
  5
1F
330
1
100
AcDbSymbolTableRecord
100
AcDbBlockTableRecord
  2
*MODEL_SPACE
  0
BLOCK_RECORD
  5
1B
330
1
100
AcDbSymbolTableRecord
100
AcDbBlockTableRecord
  2
*PAPER_SPACE
  0
ENDTAB
  0
ENDSEC
  0
SECTION
  2
BLOCKS
  0
BLOCK
  5
20
330
1F
100
AcDbEntity
  8
0
100
AcDbBlockBegin
  2
*MODEL_SPACE
 70
     0
 10
0.0
 20
0.0
 30
0.0
  3
*MODEL_SPACE
  1

  0
ENDBLK
  5
21
330
1F
100
AcDbEntity
  8
0
100
AcDbBlockEnd
  0
BLOCK
  5
1C
330
1B
100
AcDbEntity
 67
     1
  8
0
100
AcDbBlockBegin
  2
*PAPER_SPACE
  1

  0
ENDBLK
  5
1D
330
1B
100
AcDbEntity
 67
     1
  8
0
100
AcDbBlockEnd
  0
ENDSEC
  0
SECTION
  2
ENTITIES
  0
SPLINE
  5
100
100
AcDbEntity
  8
Layer_1
 62
7
100
AcDbSpline
 70
8
 71
3
 72
8
 73
4
 74
0
 40
0
 40
0
 40
0
 40
0
 40
1
 40
1
 40
1
 40
1
 10
2.655929
 20
77.854552
 30
0.0
 10
2.649183
 20
77.775668
 30
0.0
 10
2.645847
 20
77.696529
 30
0.0
 10
2.645929
 20
77.617357
 30
0.0
  0
SPLINE
  5
101
100
AcDbEntity
  8
Layer_1
 62
7
100
AcDbSpline
 70
8
 71
3
 72
8
 73
4
 74
0
 40
0
 40
0
 40
0
 40
0
 40
1
 40
1
 40
1
 40
1
 10
2.645929
 20
77.617357
 30
0.0
 10
2.648068
 20
77.151277
 30
0.0
 10
2.768632
 20
76.693387
 30
0.0
 10
2.996299
 20
76.286689
 30
0.0
  0
SPLINE
  5
102
100
AcDbEntity
  8
Layer_1
 62
7
100
AcDbSpline
 70
8
 71
3
 72
8
 73
4
 74
0
 40
0
 40
0
 40
0
 40
0
 40
1
 40
1
 40
1
 40
1
 10
2.996299
 20
76.286689
 30
0.0
 10
3.114374
 20
76.073130
 30
0.0
 10
3.260349
 20
75.876236
 30
0.0
 10
3.430379
 20
75.701196
 30
0.0
  0
SPLINE
  5
103
100
AcDbEntity
  8
Layer_1
 62
7
100
AcDbSpline
 70
8
 71
3
 72
8
 73
4
 74
0
 40
0
 40
0
 40
0
 40
0
 40
1
 40
1
 40
1
 40
1
 10
3.430379
 20
75.701196
 30
0.0
 10
3.771890
 20
75.349663
 30
0.0
 10
4.201142
 20
75.095785
 30
0.0
 10
4.673709
 20
74.965840
 30
0.0
  0
SPLINE
  5
104
100
AcDbEntity
  8
Layer_1
 62
7
100
AcDbSpline
 70
8
 71
3
 72
8
 73
4
 74
0
 40
0
 40
0
 40
0
 40
0
 40
1
 40
1
 40
1
 40
1
 10
4.673709
 20
74.965840
 30
0.0
 10
4.908929
 20
74.901237
 30
0.0
 10
5.151699
 20
74.868217
 30
0.0
 10
5.395628
 20
74.867650
 30
0.0
  0
SPLINE
  5
105
100
AcDbEntity
  8
Layer_1
 62
7
100
AcDbSpline
 70
8
 71
3
 72
8
 73
4
 74
0
 40
0
 40
0
 40
0
 40
0
 40
1
 40
1
 40
1
 40
1
 10
5.395628
 20
74.867650
 30
0.0
 10
5.617601
 20
74.861984
 30
0.0
 10
5.838701
 20
74.837611
 30
0.0
 10
6.056578
 20
74.794790
 30
0.0
  0
SPLINE
  5
106
100
AcDbEntity
  8
Layer_1
 62
7
100
AcDbSpline
 70
8
 71
3
 72
8
 73
4
 74
0
 40
0
 40
0
 40
0
 40
0
 40
1
 40
1
 40
1
 40
1
 10
6.056578
 20
74.794790
 30
0.0
 10
6.239820
 20
74.761087
 30
0.0
 10
6.420448
 20
74.714462
 30
0.0
 10
6.597108
 20
74.655264
 30
0.0
  0
SPLINE
  5
107
100
AcDbEntity
  8
Layer_1
 62
7
100
AcDbSpline
 70
8
 71
3
 72
8
 73
4
 74
0
 40
0
 40
0
 40
0
 40
0
 40
1
 40
1
 40
1
 40
1
 10
6.597108
 20
74.655264
 30
0.0
 10
7.854225
 20
74.253956
 30
0.0
 10
8.827906
 20
73.251386
 30
0.0
 10
9.192297
 20
71.983077
 30
0.0
  0
SPLINE
  5
108
100
AcDbEntity
  8
Layer_1
 62
7
100
AcDbSpline
 70
8
 71
3
 72
8
 73
4
 74
0
 40
0
 40
0
 40
0
 40
0
 40
1
 40
1
 40
1
 40
1
 10
9.192297
 20
71.983077
 30
0.0
 10
9.274278
 20
71.695521
 30
0.0
 10
9.323342
 20
71.399587
 30
0.0
 10
9.338547
 20
71.100960
 30
0.0
  0
LWPOLYLINE
  5
109
100
AcDbEntity
  8
Layer_1
 62
7
100
AcDbPolyline
 90
5
 70
0
 10
2.645929
 20
95.351153
 30
0.0
 10
2.645929
 20
86.436455
 30
0.0
 10
2.645929
 20
81.204217
 30
0.0
 10
2.645929
 20
77.854552
 30
0.0
 10
2.655929
 20
77.854552
 30
0.0
  0
SPLINE
  5
10a
100
AcDbEntity
  8
Layer_1
 62
7
100
AcDbSpline
 70
8
 71
3
 72
8
 73
4
 74
0
 40
0
 40
0
 40
0
 40
0
 40
1
 40
1
 40
1
 40
1
 10
9.339547
 20
64.092088
 30
0.0
 10
9.344256
 20
64.013111
 30
0.0
 10
9.346590
 20
63.934010
 30
0.0
 10
9.346547
 20
63.854893
 30
0.0
  0
SPLINE
  5
10b
100
AcDbEntity
  8
Layer_1
 62
7
100
AcDbSpline
 70
8
 71
3
 72
8
 73
4
 74
0
 40
0
 40
0
 40
0
 40
0
 40
1
 40
1
 40
1
 40
1
 10
9.346547
 20
63.854893
 30
0.0
 10
9.346343
 20
61.673658
 30
0.0
 10
7.578154
 20
59.905468
 30
0.0
 10
5.396918
 20
59.905264
 30
0.0
  0
LWPOLYLINE
  5
10c
100
AcDbEntity
  8
Layer_1
 62
7
100
AcDbPolyline
 90
6
 70
0
 10
9.338547
 20
71.100960
 30
0.0
 10
9.338547
 20
70.680831
 30
0.0
 10
9.335547
 20
70.680831
 30
0.0
 10
9.335547
 20
66.893466
 30
0.0
 10
9.335547
 20
64.092088
 30
0.0
 10
9.339547
 20
64.092088
 30
0.0
  0
SPLINE
  5
10d
100
AcDbEntity
  8
Layer_1
 62
7
100
AcDbSpline
 70
8
 71
3
 72
8
 73
4
 74
0
 40
0
 40
0
 40
0
 40
0
 40
1
 40
1
 40
1
 40
1
 10
2.750569
 20
59.905264
 30
0.0
 10
2.594431
 20
59.898162
 30
0.0
 10
2.439182
 20
59.877762
 30
0.0
 10
2.286509
 20
59.844284
 30
0.0
  0
SPLINE
  5
10e
100
AcDbEntity
  8
Layer_1
 62
7
100
AcDbSpline
 70
8
 71
3
 72
8
 73
4
 74
0
 40
0
 40
0
 40
0
 40
0
 40
1
 40
1
 40
1
 40
1
 10
2.286509
 20
59.844284
 30
0.0
 10
1.151753
 20
59.642173
 30
0.0
 10
0.263438
 20
58.753855
 30
0.0
 10
0.061330
 20
57.619098
 30
0.0
  0
SPLINE
  5
10f
100
AcDbEntity
  8
Layer_1
 62
7
100
AcDbSpline
 70
8
 71
3
 72
8
 73
4
 74
0
 40
0
 40
0
 40
0
 40
0
 40
1
 40
1
 40
1
 40
1
 10
0.061330
 20
57.619098
 30
0.0
 10
0.027846
 20
57.466427
 30
0.0
 10
0.007439
 20
57.311180
 30
0.0
 10
0.000330
 20
57.155043
 30
0.0
  0
SPLINE
  5
110
100
AcDbEntity
  8
Layer_1
 62
7
100
AcDbSpline
 70
8
 71
3
 72
8
 73
4
 74
0
 40
0
 40
0
 40
0
 40
0
 40
1
 40
1
 40
1
 40
1
 10
0.000330
 20
57.155043
 30
0.0
 10
0.007999
 20
55.858787
 30
0.0
 10
0.919846
 20
54.743897
 30
0.0
 10
2.188819
 20
54.479239
 30
0.0
  0
SPLINE
  5
111
100
AcDbEntity
  8
Layer_1
 62
7
100
AcDbSpline
 70
8
 71
3
 72
8
 73
4
 74
0
 40
0
 40
0
 40
0
 40
0
 40
1
 40
1
 40
1
 40
1
 10
2.188819
 20
54.479239
 30
0.0
 10
2.373019
 20
54.435331
 30
0.0
 10
2.561261
 20
54.410566
 30
0.0
 10
2.750549
 20
54.405339
 30
0.0
  0
LWPOLYLINE
  5
112
100
AcDbEntity
  8
Layer_1
 62
7
100
AcDbPolyline
 90
2
 70
0
 10
5.396918
 20
59.905264
 30
0.0
 10
2.750569
 20
59.905264
 30
0.0
  0
SPLINE
  5
113
100
AcDbEntity
  8
Layer_1
 62
7
100
AcDbSpline
 70
8
 71
3
 72
8
 73
4
 74
0
 40
0
 40
0
 40
0
 40
0
 40
1
 40
1
 40
1
 40
1
 10
5.396898
 20
54.405339
 30
0.0
 10
5.672574
 20
54.403191
 30
0.0
 10
5.947268
 20
54.372188
 30
0.0
 10
6.216488
 20
54.312839
 30
0.0
  0
SPLINE
  5
114
100
AcDbEntity
  8
Layer_1
 62
7
100
AcDbSpline
 70
8
 71
3
 72
8
 73
4
 74
0
 40
0
 40
0
 40
0
 40
0
 40
1
 40
1
 40
1
 40
1
 10
6.216488
 20
54.312839
 30
0.0
 10
6.484537
 20
54.253847
 30
0.0
 10
6.745708
 20
54.167079
 30
0.0
 10
6.995768
 20
54.053940
 30
0.0
  0
SPLINE
  5
115
100
AcDbEntity
  8
Layer_1
 62
7
100
AcDbSpline
 70
8
 71
3
 72
8
 73
4
 74
0
 40
0
 40
0
 40
0
 40
0
 40
1
 40
1
 40
1
 40
1
 10
6.995768
 20
54.053940
 30
0.0
 10
8.211309
 20
53.507302
 30
0.0
 10
9.069219
 20
52.384535
 30
0.0
 10
9.277277
 20
51.068076
 30
0.0
  0
SPLINE
  5
116
100
AcDbEntity
  8
Layer_1
 62
7
100
AcDbSpline
 70
8
 71
3
 72
8
 73
4
 74
0
 40
0
 40
0
 40
0
 40
0
 40
1
 40
1
 40
1
 40
1
 10
9.277277
 20
51.068076
 30
0.0
 10
9.316290
 20
50.866070
 30
0.0
 10
9.339460
 20
50.661326
 30
0.0
 10
9.346577
 20
50.455711
 30
0.0
  0
LWPOLYLINE
  5
117
100
AcDbEntity
  8
Layer_1
 62
7
100
AcDbPolyline
 90
3
 70
0
 10
2.750549
 20
54.405339
 30
0.0
 10
5.396378
 20
54.405339
 30
0.0
 10
5.396898
 20
54.405339
 30
0.0
  0
SPLINE
  5
118
100
AcDbEntity
  8
Layer_1
 62
7
100
AcDbSpline
 70
8
 71
3
 72
8
 73
4
 74
0
 40
0
 40
0
 40
0
 40
0
 40
1
 40
1
 40
1
 40
1
 10
9.346577
 20
50.411786
 30
0.0
 10
9.346414
 20
50.406619
 30
0.0
 10
9.346241
 20
50.401452
 30
0.0
 10
9.346057
 20
50.396286
 30
0.0
  0
LWPOLYLINE
  5
119
100
AcDbEntity
  8
Layer_1
 62
7
100
AcDbPolyline
 90
86
 70
0
 10
9.346577
 20
50.455711
 30
0.0
 10
9.346577
 20
50.455194
 30
0.0
 10
9.346577
 20
50.454677
 30
0.0
 10
9.346577
 20
50.454160
 30
0.0
 10
9.346577
 20
50.453644
 30
0.0
 10
9.346577
 20
50.453127
 30
0.0
 10
9.346577
 20
50.452610
 30
0.0
 10
9.346577
 20
50.452093
 30
0.0
 10
9.346577
 20
50.451576
 30
0.0
 10
9.346577
 20
50.451060
 30
0.0
 10
9.346577
 20
50.450543
 30
0.0
 10
9.346577
 20
50.450026
 30
0.0
 10
9.346577
 20
50.449509
 30
0.0
 10
9.346577
 20
50.448993
 30
0.0
 10
9.346577
 20
50.448476
 30
0.0
 10
9.346577
 20
50.447959
 30
0.0
 10
9.346577
 20
50.447442
 30
0.0
 10
9.346577
 20
50.446926
 30
0.0
 10
9.346577
 20
50.446409
 30
0.0
 10
9.346577
 20
50.445892
 30
0.0
 10
9.346577
 20
50.445375
 30
0.0
 10
9.346577
 20
50.444859
 30
0.0
 10
9.346577
 20
50.444342
 30
0.0
 10
9.346577
 20
50.443825
 30
0.0
 10
9.346577
 20
50.443308
 30
0.0
 10
9.346577
 20
50.442792
 30
0.0
 10
9.346577
 20
50.442275
 30
0.0
 10
9.346577
 20
50.441758
 30
0.0
 10
9.346577
 20
50.441241
 30
0.0
 10
9.346577
 20
50.440724
 30
0.0
 10
9.346577
 20
50.440208
 30
0.0
 10
9.346577
 20
50.439691
 30
0.0
 10
9.346577
 20
50.439174
 30
0.0
 10
9.346577
 20
50.438657
 30
0.0
 10
9.346577
 20
50.438141
 30
0.0
 10
9.346577
 20
50.437624
 30
0.0
 10
9.346577
 20
50.437107
 30
0.0
 10
9.346577
 20
50.436590
 30
0.0
 10
9.346577
 20
50.436074
 30
0.0
 10
9.346577
 20
50.435557
 30
0.0
 10
9.346577
 20
50.435040
 30
0.0
 10
9.346577
 20
50.434523
 30
0.0
 10
9.346577
 20
50.434007
 30
0.0
 10
9.346577
 20
50.433490
 30
0.0
 10
9.346577
 20
50.432973
 30
0.0
 10
9.346577
 20
50.432456
 30
0.0
 10
9.346577
 20
50.431939
 30
0.0
 10
9.346577
 20
50.431423
 30
0.0
 10
9.346577
 20
50.430906
 30
0.0
 10
9.346577
 20
50.430389
 30
0.0
 10
9.346577
 20
50.429872
 30
0.0
 10
9.346577
 20
50.429356
 30
0.0
 10
9.346577
 20
50.428839
 30
0.0
 10
9.346577
 20
50.428322
 30
0.0
 10
9.346577
 20
50.427805
 30
0.0
 10
9.346577
 20
50.427289
 30
0.0
 10
9.346577
 20
50.426772
 30
0.0
 10
9.346577
 20
50.426255
 30
0.0
 10
9.346577
 20
50.425738
 30
0.0
 10
9.346577
 20
50.425222
 30
0.0
 10
9.346577
 20
50.424705
 30
0.0
 10
9.346577
 20
50.424188
 30
0.0
 10
9.346577
 20
50.423671
 30
0.0
 10
9.346577
 20
50.423154
 30
0.0
 10
9.346577
 20
50.422638
 30
0.0
 10
9.346577
 20
50.422121
 30
0.0
 10
9.346577
 20
50.421604
 30
0.0
 10
9.346577
 20
50.421087
 30
0.0
 10
9.346577
 20
50.420571
 30
0.0
 10
9.346577
 20
50.420054
 30
0.0
 10
9.346577
 20
50.419537
 30
0.0
 10
9.346577
 20
50.419020
 30
0.0
 10
9.346577
 20
50.418504
 30
0.0
 10
9.346577
 20
50.417987
 30
0.0
 10
9.346577
 20
50.417470
 30
0.0
 10
9.346577
 20
50.416953
 30
0.0
 10
9.346577
 20
50.416437
 30
0.0
 10
9.346577
 20
50.415920
 30
0.0
 10
9.346577
 20
50.415403
 30
0.0
 10
9.346577
 20
50.414886
 30
0.0
 10
9.346577
 20
50.414369
 30
0.0
 10
9.346577
 20
50.413853
 30
0.0
 10
9.346577
 20
50.413336
 30
0.0
 10
9.346577
 20
50.412819
 30
0.0
 10
9.346577
 20
50.412302
 30
0.0
 10
9.346577
 20
50.411786
 30
0.0
  0
SPLINE
  5
11a
100
AcDbEntity
  8
Layer_1
 62
7
100
AcDbSpline
 70
8
 71
3
 72
8
 73
4
 74
0
 40
0
 40
0
 40
0
 40
0
 40
1
 40
1
 40
1
 40
1
 10
9.345537
 20
50.356997
 30
0.0
 10
9.345377
 20
50.351830
 30
0.0
 10
9.345207
 20
50.346663
 30
0.0
 10
9.345027
 20
50.341497
 30
0.0
  0
LWPOLYLINE
  5
11b
100
AcDbEntity
  8
Layer_1
 62
7
100
AcDbPolyline
 90
61
 70
0
 10
9.346057
 20
50.396286
 30
0.0
 10
9.346057
 20
50.395769
 30
0.0
 10
9.346057
 20
50.395252
 30
0.0
 10
9.346057
 20
50.394735
 30
0.0
 10
9.346057
 20
50.394219
 30
0.0
 10
9.346057
 20
50.393702
 30
0.0
 10
9.346057
 20
50.393185
 30
0.0
 10
9.346057
 20
50.392668
 30
0.0
 10
9.346057
 20
50.392152
 30
0.0
 10
9.346057
 20
50.391635
 30
0.0
 10
9.346057
 20
50.391118
 30
0.0
 10
9.346057
 20
50.390601
 30
0.0
 10
9.346057
 20
50.390085
 30
0.0
 10
9.346057
 20
50.389568
 30
0.0
 10
9.346057
 20
50.389051
 30
0.0
 10
9.346057
 20
50.388534
 30
0.0
 10
9.346057
 20
50.388017
 30
0.0
 10
9.346057
 20
50.387501
 30
0.0
 10
9.346057
 20
50.386984
 30
0.0
 10
9.346057
 20
50.386467
 30
0.0
 10
9.346057
 20
50.385950
 30
0.0
 10
9.346057
 20
50.385434
 30
0.0
 10
9.346057
 20
50.384917
 30
0.0
 10
9.346057
 20
50.384400
 30
0.0
 10
9.346057
 20
50.383883
 30
0.0
 10
9.346057
 20
50.383367
 30
0.0
 10
9.346057
 20
50.382850
 30
0.0
 10
9.346057
 20
50.382333
 30
0.0
 10
9.346057
 20
50.381816
 30
0.0
 10
9.346057
 20
50.381300
 30
0.0
 10
9.346057
 20
50.380783
 30
0.0
 10
9.346057
 20
50.380266
 30
0.0
 10
9.346057
 20
50.379749
 30
0.0
 10
9.346057
 20
50.379232
 30
0.0
 10
9.346057
 20
50.378716
 30
0.0
 10
9.346057
 20
50.378199
 30
0.0
 10
9.346057
 20
50.377682
 30
0.0
 10
9.346057
 20
50.377165
 30
0.0
 10
9.346057
 20
50.376649
 30
0.0
 10
9.345537
 20
50.367849
 30
0.0
 10
9.345537
 20
50.367332
 30
0.0
 10
9.345537
 20
50.366815
 30
0.0
 10
9.345537
 20
50.366298
 30
0.0
 10
9.345537
 20
50.365782
 30
0.0
 10
9.345537
 20
50.365265
 30
0.0
 10
9.345537
 20
50.364748
 30
0.0
 10
9.345537
 20
50.364231
 30
0.0
 10
9.345537
 20
50.363715
 30
0.0
 10
9.345537
 20
50.363198
 30
0.0
 10
9.345537
 20
50.362681
 30
0.0
 10
9.345537
 20
50.362164
 30
0.0
 10
9.345537
 20
50.361648
 30
0.0
 10
9.345537
 20
50.361131
 30
0.0
 10
9.345537
 20
50.360614
 30
0.0
 10
9.345537
 20
50.360097
 30
0.0
 10
9.345537
 20
50.359580
 30
0.0
 10
9.345537
 20
50.359064
 30
0.0
 10
9.345537
 20
50.358547
 30
0.0
 10
9.345537
 20
50.358030
 30
0.0
 10
9.345537
 20
50.357513
 30
0.0
 10
9.345537
 20
50.356997
 30
0.0
  0
SPLINE
  5
11c
100
AcDbEntity
  8
Layer_1
 62
7
100
AcDbSpline
 70
8
 71
3
 72
8
 73
4
 74
0
 40
0
 40
0
 40
0
 40
0
 40
1
 40
1
 40
1
 40
1
 10
9.345027
 20
46.554276
 30
0.0
 10
9.345207
 20
46.549109
 30
0.0
 10
9.345377
 20
46.543943
 30
0.0
 10
9.345537
 20
46.538776
 30
0.0
  0
LWPOLYLINE
  5
11d
100
AcDbEntity
  8
Layer_1
 62
7
100
AcDbPolyline
 90
225
 70
0
 10
9.345027
 20
50.341497
 30
0.0
 10
9.345027
 20
50.340980
 30
0.0
 10
9.345027
 20
50.340463
 30
0.0
 10
9.345027
 20
50.339946
 30
0.0
 10
9.345027
 20
50.339430
 30
0.0
 10
9.345027
 20
50.338913
 30
0.0
 10
9.345027
 20
50.338396
 30
0.0
 10
9.345027
 20
50.337879
 30
0.0
 10
9.345027
 20
50.337363
 30
0.0
 10
9.345027
 20
50.336846
 30
0.0
 10
9.345027
 20
50.336329
 30
0.0
 10
9.345027
 20
50.335812
 30
0.0
 10
9.345027
 20
50.335296
 30
0.0
 10
9.345027
 20
50.334779
 30
0.0
 10
9.345027
 20
50.334262
 30
0.0
 10
9.345027
 20
50.333745
 30
0.0
 10
9.345027
 20
50.333228
 30
0.0
 10
9.345027
 20
50.332712
 30
0.0
 10
9.344507
 20
50.327012
 30
0.0
 10
9.344507
 20
50.326496
 30
0.0
 10
9.344507
 20
50.325979
 30
0.0
 10
9.344507
 20
50.325462
 30
0.0
 10
9.344507
 20
50.324945
 30
0.0
 10
9.344507
 20
50.324428
 30
0.0
 10
9.344507
 20
50.323912
 30
0.0
 10
9.344507
 20
50.323395
 30
0.0
 10
9.344507
 20
50.322878
 30
0.0
 10
9.344507
 20
50.322361
 30
0.0
 10
9.344507
 20
50.321845
 30
0.0
 10
9.344507
 20
50.321328
 30
0.0
 10
9.344507
 20
50.320811
 30
0.0
 10
9.344507
 20
50.320294
 30
0.0
 10
9.344507
 20
50.319778
 30
0.0
 10
9.344507
 20
50.319261
 30
0.0
 10
9.344507
 20
50.318744
 30
0.0
 10
9.344507
 20
50.318227
 30
0.0
 10
9.344507
 20
50.317711
 30
0.0
 10
9.344507
 20
50.317194
 30
0.0
 10
9.344507
 20
50.316677
 30
0.0
 10
9.344507
 20
50.316160
 30
0.0
 10
9.344507
 20
50.315643
 30
0.0
 10
9.344507
 20
50.315127
 30
0.0
 10
9.343987
 20
50.307327
 30
0.0
 10
9.343987
 20
50.306810
 30
0.0
 10
9.343987
 20
50.306294
 30
0.0
 10
9.343477
 20
50.297494
 30
0.0
 10
9.343477
 20
50.296977
 30
0.0
 10
9.343477
 20
50.296460
 30
0.0
 10
9.343477
 20
50.295943
 30
0.0
 10
9.343477
 20
50.295427
 30
0.0
 10
9.343477
 20
50.294910
 30
0.0
 10
9.343477
 20
50.294393
 30
0.0
 10
9.343477
 20
50.293876
 30
0.0
 10
9.343477
 20
50.293360
 30
0.0
 10
9.343477
 20
50.292843
 30
0.0
 10
9.343477
 20
50.292326
 30
0.0
 10
9.343477
 20
50.291809
 30
0.0
 10
9.343477
 20
50.291293
 30
0.0
 10
9.343477
 20
50.290776
 30
0.0
 10
9.343477
 20
50.290259
 30
0.0
 10
9.343477
 20
50.289742
 30
0.0
 10
9.343477
 20
50.289225
 30
0.0
 10
9.343477
 20
50.288709
 30
0.0
 10
9.343477
 20
50.288192
 30
0.0
 10
9.343477
 20
50.287675
 30
0.0
 10
9.342957
 20
50.279875
 30
0.0
 10
9.342957
 20
50.279358
 30
0.0
 10
9.342957
 20
50.278841
 30
0.0
 10
9.342957
 20
50.278324
 30
0.0
 10
9.342957
 20
50.277808
 30
0.0
 10
9.342437
 20
50.271108
 30
0.0
 10
9.342437
 20
50.270591
 30
0.0
 10
9.342437
 20
50.270074
 30
0.0
 10
9.342437
 20
50.269557
 30
0.0
 10
9.342437
 20
50.269041
 30
0.0
 10
9.342437
 20
50.268524
 30
0.0
 10
9.342437
 20
50.268007
 30
0.0
 10
9.341927
 20
50.262307
 30
0.0
 10
9.341927
 20
50.261790
 30
0.0
 10
9.341927
 20
50.261273
 30
0.0
 10
9.341927
 20
50.260756
 30
0.0
 10
9.341927
 20
50.260240
 30
0.0
 10
9.341927
 20
50.259723
 30
0.0
 10
9.341927
 20
50.259206
 30
0.0
 10
9.341927
 20
50.258689
 30
0.0
 10
9.341927
 20
50.258173
 30
0.0
 10
9.341927
 20
50.257656
 30
0.0
 10
9.341927
 20
50.257139
 30
0.0
 10
9.341927
 20
50.256622
 30
0.0
 10
9.341927
 20
50.256106
 30
0.0
 10
9.341927
 20
50.255589
 30
0.0
 10
9.341927
 20
50.255072
 30
0.0
 10
9.341927
 20
50.254555
 30
0.0
 10
9.341927
 20
50.254039
 30
0.0
 10
9.341927
 20
50.253522
 30
0.0
 10
9.341407
 20
50.247822
 30
0.0
 10
9.341407
 20
50.247306
 30
0.0
 10
9.341407
 20
50.246789
 30
0.0
 10
9.341407
 20
50.246272
 30
0.0
 10
9.341407
 20
50.245755
 30
0.0
 10
9.341407
 20
50.245239
 30
0.0
 10
9.341407
 20
50.244722
 30
0.0
 10
9.340887
 20
50.238022
 30
0.0
 10
9.340887
 20
50.237505
 30
0.0
 10
9.340887
 20
50.236988
 30
0.0
 10
9.340887
 20
50.236472
 30
0.0
 10
9.340887
 20
50.235955
 30
0.0
 10
9.340887
 20
50.235438
 30
0.0
 10
9.340377
 20
50.227638
 30
0.0
 10
9.340377
 20
50.227121
 30
0.0
 10
9.340377
 20
50.226604
 30
0.0
 10
9.339857
 20
50.217804
 30
0.0
 10
9.346857
 20
50.217804
 30
0.0
 10
9.346857
 20
46.677453
 30
0.0
 10
9.339857
 20
46.677453
 30
0.0
 10
9.340377
 20
46.668653
 30
0.0
 10
9.340377
 20
46.668136
 30
0.0
 10
9.340377
 20
46.667619
 30
0.0
 10
9.340887
 20
46.659819
 30
0.0
 10
9.340887
 20
46.659302
 30
0.0
 10
9.340887
 20
46.658785
 30
0.0
 10
9.340887
 20
46.658268
 30
0.0
 10
9.340887
 20
46.657752
 30
0.0
 10
9.341407
 20
46.651052
 30
0.0
 10
9.341407
 20
46.650535
 30
0.0
 10
9.341407
 20
46.650018
 30
0.0
 10
9.341407
 20
46.649501
 30
0.0
 10
9.341407
 20
46.648985
 30
0.0
 10
9.341407
 20
46.648468
 30
0.0
 10
9.341407
 20
46.647951
 30
0.0
 10
9.341927
 20
46.642251
 30
0.0
 10
9.341927
 20
46.641734
 30
0.0
 10
9.341927
 20
46.641217
 30
0.0
 10
9.341927
 20
46.640700
 30
0.0
 10
9.341927
 20
46.640184
 30
0.0
 10
9.341927
 20
46.639667
 30
0.0
 10
9.341927
 20
46.639150
 30
0.0
 10
9.341927
 20
46.638633
 30
0.0
 10
9.341927
 20
46.638117
 30
0.0
 10
9.341927
 20
46.637600
 30
0.0
 10
9.341927
 20
46.637083
 30
0.0
 10
9.341927
 20
46.636566
 30
0.0
 10
9.341927
 20
46.636049
 30
0.0
 10
9.341927
 20
46.635533
 30
0.0
 10
9.341927
 20
46.635016
 30
0.0
 10
9.341927
 20
46.634499
 30
0.0
 10
9.341927
 20
46.633982
 30
0.0
 10
9.341927
 20
46.633466
 30
0.0
 10
9.342437
 20
46.627766
 30
0.0
 10
9.342437
 20
46.627250
 30
0.0
 10
9.342437
 20
46.626733
 30
0.0
 10
9.342437
 20
46.626216
 30
0.0
 10
9.342437
 20
46.625699
 30
0.0
 10
9.342437
 20
46.625182
 30
0.0
 10
9.342437
 20
46.624666
 30
0.0
 10
9.342957
 20
46.617966
 30
0.0
 10
9.342957
 20
46.617449
 30
0.0
 10
9.342957
 20
46.616932
 30
0.0
 10
9.342957
 20
46.616415
 30
0.0
 10
9.342957
 20
46.615899
 30
0.0
 10
9.343477
 20
46.608099
 30
0.0
 10
9.343477
 20
46.607582
 30
0.0
 10
9.343477
 20
46.607066
 30
0.0
 10
9.343477
 20
46.606549
 30
0.0
 10
9.343477
 20
46.606032
 30
0.0
 10
9.343477
 20
46.605515
 30
0.0
 10
9.343477
 20
46.604999
 30
0.0
 10
9.343477
 20
46.604482
 30
0.0
 10
9.343477
 20
46.603965
 30
0.0
 10
9.343477
 20
46.603448
 30
0.0
 10
9.343477
 20
46.602932
 30
0.0
 10
9.343477
 20
46.602415
 30
0.0
 10
9.343477
 20
46.601898
 30
0.0
 10
9.343477
 20
46.601381
 30
0.0
 10
9.343477
 20
46.600865
 30
0.0
 10
9.343477
 20
46.600348
 30
0.0
 10
9.343477
 20
46.599831
 30
0.0
 10
9.343477
 20
46.599314
 30
0.0
 10
9.343477
 20
46.598797
 30
0.0
 10
9.343477
 20
46.598281
 30
0.0
 10
9.343987
 20
46.589481
 30
0.0
 10
9.343987
 20
46.588964
 30
0.0
 10
9.343987
 20
46.588447
 30
0.0
 10
9.344507
 20
46.580647
 30
0.0
 10
9.344507
 20
46.580130
 30
0.0
 10
9.344507
 20
46.579613
 30
0.0
 10
9.344507
 20
46.579096
 30
0.0
 10
9.344507
 20
46.578580
 30
0.0
 10
9.344507
 20
46.578063
 30
0.0
 10
9.344507
 20
46.577546
 30
0.0
 10
9.344507
 20
46.577029
 30
0.0
 10
9.344507
 20
46.576513
 30
0.0
 10
9.344507
 20
46.575996
 30
0.0
 10
9.344507
 20
46.575479
 30
0.0
 10
9.344507
 20
46.574962
 30
0.0
 10
9.344507
 20
46.574446
 30
0.0
 10
9.344507
 20
46.573929
 30
0.0
 10
9.344507
 20
46.573412
 30
0.0
 10
9.344507
 20
46.572895
 30
0.0
 10
9.344507
 20
46.572378
 30
0.0
 10
9.344507
 20
46.571862
 30
0.0
 10
9.344507
 20
46.571345
 30
0.0
 10
9.344507
 20
46.570828
 30
0.0
 10
9.344507
 20
46.570311
 30
0.0
 10
9.344507
 20
46.569795
 30
0.0
 10
9.344507
 20
46.569278
 30
0.0
 10
9.344507
 20
46.568761
 30
0.0
 10
9.345027
 20
46.563061
 30
0.0
 10
9.345027
 20
46.562544
 30
0.0
 10
9.345027
 20
46.562027
 30
0.0
 10
9.345027
 20
46.561510
 30
0.0
 10
9.345027
 20
46.560994
 30
0.0
 10
9.345027
 20
46.560477
 30
0.0
 10
9.345027
 20
46.559960
 30
0.0
 10
9.345027
 20
46.559443
 30
0.0
 10
9.345027
 20
46.558927
 30
0.0
 10
9.345027
 20
46.558410
 30
0.0
 10
9.345027
 20
46.557893
 30
0.0
 10
9.345027
 20
46.557376
 30
0.0
 10
9.345027
 20
46.556860
 30
0.0
 10
9.345027
 20
46.556343
 30
0.0
 10
9.345027
 20
46.555826
 30
0.0
 10
9.345027
 20
46.555309
 30
0.0
 10
9.345027
 20
46.554792
 30
0.0
 10
9.345027
 20
46.554276
 30
0.0
  0
SPLINE
  5
11e
100
AcDbEntity
  8
Layer_1
 62
7
100
AcDbSpline
 70
8
 71
3
 72
8
 73
4
 74
0
 40
0
 40
0
 40
0
 40
0
 40
1
 40
1
 40
1
 40
1
 10
9.346057
 20
46.499487
 30
0.0
 10
9.346241
 20
46.494321
 30
0.0
 10
9.346414
 20
46.489154
 30
0.0
 10
9.346577
 20
46.483987
 30
0.0
  0
LWPOLYLINE
  5
11f
100
AcDbEntity
  8
Layer_1
 62
7
100
AcDbPolyline
 90
61
 70
0
 10
9.345537
 20
46.538776
 30
0.0
 10
9.345537
 20
46.538259
 30
0.0
 10
9.345537
 20
46.537742
 30
0.0
 10
9.345537
 20
46.537226
 30
0.0
 10
9.345537
 20
46.536709
 30
0.0
 10
9.345537
 20
46.536192
 30
0.0
 10
9.345537
 20
46.535675
 30
0.0
 10
9.345537
 20
46.535158
 30
0.0
 10
9.345537
 20
46.534642
 30
0.0
 10
9.345537
 20
46.534125
 30
0.0
 10
9.345537
 20
46.533608
 30
0.0
 10
9.345537
 20
46.533091
 30
0.0
 10
9.345537
 20
46.532575
 30
0.0
 10
9.345537
 20
46.532058
 30
0.0
 10
9.345537
 20
46.531541
 30
0.0
 10
9.345537
 20
46.531024
 30
0.0
 10
9.345537
 20
46.530508
 30
0.0
 10
9.345537
 20
46.529991
 30
0.0
 10
9.345537
 20
46.529474
 30
0.0
 10
9.345537
 20
46.528957
 30
0.0
 10
9.345537
 20
46.528441
 30
0.0
 10
9.345537
 20
46.527924
 30
0.0
 10
9.346057
 20
46.519124
 30
0.0
 10
9.346057
 20
46.518607
 30
0.0
 10
9.346057
 20
46.518090
 30
0.0
 10
9.346057
 20
46.517573
 30
0.0
 10
9.346057
 20
46.517057
 30
0.0
 10
9.346057
 20
46.516540
 30
0.0
 10
9.346057
 20
46.516023
 30
0.0
 10
9.346057
 20
46.515506
 30
0.0
 10
9.346057
 20
46.514990
 30
0.0
 10
9.346057
 20
46.514473
 30
0.0
 10
9.346057
 20
46.513956
 30
0.0
 10
9.346057
 20
46.513439
 30
0.0
 10
9.346057
 20
46.512923
 30
0.0
 10
9.346057
 20
46.512406
 30
0.0
 10
9.346057
 20
46.511889
 30
0.0
 10
9.346057
 20
46.511372
 30
0.0
 10
9.346057
 20
46.510856
 30
0.0
 10
9.346057
 20
46.510339
 30
0.0
 10
9.346057
 20
46.509822
 30
0.0
 10
9.346057
 20
46.509305
 30
0.0
 10
9.346057
 20
46.508788
 30
0.0
 10
9.346057
 20
46.508272
 30
0.0
 10
9.346057
 20
46.507755
 30
0.0
 10
9.346057
 20
46.507238
 30
0.0
 10
9.346057
 20
46.506721
 30
0.0
 10
9.346057
 20
46.506205
 30
0.0
 10
9.346057
 20
46.505688
 30
0.0
 10
9.346057
 20
46.505171
 30
0.0
 10
9.346057
 20
46.504654
 30
0.0
 10
9.346057
 20
46.504138
 30
0.0
 10
9.346057
 20
46.503621
 30
0.0
 10
9.346057
 20
46.503104
 30
0.0
 10
9.346057
 20
46.502587
 30
0.0
 10
9.346057
 20
46.502071
 30
0.0
 10
9.346057
 20
46.501554
 30
0.0
 10
9.346057
 20
46.501037
 30
0.0
 10
9.346057
 20
46.500520
 30
0.0
 10
9.346057
 20
46.500003
 30
0.0
 10
9.346057
 20
46.499487
 30
0.0
  0
SPLINE
  5
120
100
AcDbEntity
  8
Layer_1
 62
7
100
AcDbSpline
 70
8
 71
3
 72
8
 73
4
 74
0
 40
0
 40
0
 40
0
 40
0
 40
1
 40
1
 40
1
 40
1
 10
9.346577
 20
46.440062
 30
0.0
 10
9.339423
 20
46.237070
 30
0.0
 10
9.316622
 20
46.034933
 30
0.0
 10
9.278377
 20
45.835448
 30
0.0
  0
SPLINE
  5
121
100
AcDbEntity
  8
Layer_1
 62
7
100
AcDbSpline
 70
8
 71
3
 72
8
 73
4
 74
0
 40
0
 40
0
 40
0
 40
0
 40
1
 40
1
 40
1
 40
1
 10
9.278377
 20
45.835448
 30
0.0
 10
9.008871
 20
44.149896
 30
0.0
 10
7.687130
 20
42.828154
 30
0.0
 10
6.001578
 20
42.558646
 30
0.0
  0
SPLINE
  5
122
100
AcDbEntity
  8
Layer_1
 62
7
100
AcDbSpline
 70
8
 71
3
 72
8
 73
4
 74
0
 40
0
 40
0
 40
0
 40
0
 40
1
 40
1
 40
1
 40
1
 10
6.001578
 20
42.558646
 30
0.0
 10
5.802095
 20
42.520398
 30
0.0
 10
5.599959
 20
42.497594
 30
0.0
 10
5.396968
 20
42.490436
 30
0.0
  0
LWPOLYLINE
  5
123
100
AcDbEntity
  8
Layer_1
 62
7
100
AcDbPolyline
 90
86
 70
0
 10
9.346577
 20
46.483987
 30
0.0
 10
9.346577
 20
46.483470
 30
0.0
 10
9.346577
 20
46.482953
 30
0.0
 10
9.346577
 20
46.482436
 30
0.0
 10
9.346577
 20
46.481920
 30
0.0
 10
9.346577
 20
46.481403
 30
0.0
 10
9.346577
 20
46.480886
 30
0.0
 10
9.346577
 20
46.480369
 30
0.0
 10
9.346577
 20
46.479853
 30
0.0
 10
9.346577
 20
46.479336
 30
0.0
 10
9.346577
 20
46.478819
 30
0.0
 10
9.346577
 20
46.478302
 30
0.0
 10
9.346577
 20
46.477786
 30
0.0
 10
9.346577
 20
46.477269
 30
0.0
 10
9.346577
 20
46.476752
 30
0.0
 10
9.346577
 20
46.476235
 30
0.0
 10
9.346577
 20
46.475719
 30
0.0
 10
9.346577
 20
46.475202
 30
0.0
 10
9.346577
 20
46.474685
 30
0.0
 10
9.346577
 20
46.474168
 30
0.0
 10
9.346577
 20
46.473652
 30
0.0
 10
9.346577
 20
46.473135
 30
0.0
 10
9.346577
 20
46.472618
 30
0.0
 10
9.346577
 20
46.472101
 30
0.0
 10
9.346577
 20
46.471584
 30
0.0
 10
9.346577
 20
46.471068
 30
0.0
 10
9.346577
 20
46.470551
 30
0.0
 10
9.346577
 20
46.470034
 30
0.0
 10
9.346577
 20
46.469517
 30
0.0
 10
9.346577
 20
46.469001
 30
0.0
 10
9.346577
 20
46.468484
 30
0.0
 10
9.346577
 20
46.467967
 30
0.0
 10
9.346577
 20
46.467450
 30
0.0
 10
9.346577
 20
46.466934
 30
0.0
 10
9.346577
 20
46.466417
 30
0.0
 10
9.346577
 20
46.465900
 30
0.0
 10
9.346577
 20
46.465383
 30
0.0
 10
9.346577
 20
46.464867
 30
0.0
 10
9.346577
 20
46.464350
 30
0.0
 10
9.346577
 20
46.463833
 30
0.0
 10
9.346577
 20
46.463316
 30
0.0
 10
9.346577
 20
46.462799
 30
0.0
 10
9.346577
 20
46.462283
 30
0.0
 10
9.346577
 20
46.461766
 30
0.0
 10
9.346577
 20
46.461249
 30
0.0
 10
9.346577
 20
46.460732
 30
0.0
 10
9.346577
 20
46.460216
 30
0.0
 10
9.346577
 20
46.459699
 30
0.0
 10
9.346577
 20
46.459182
 30
0.0
 10
9.346577
 20
46.458665
 30
0.0
 10
9.346577
 20
46.458149
 30
0.0
 10
9.346577
 20
46.457632
 30
0.0
 10
9.346577
 20
46.457115
 30
0.0
 10
9.346577
 20
46.456598
 30
0.0
 10
9.346577
 20
46.456082
 30
0.0
 10
9.346577
 20
46.455565
 30
0.0
 10
9.346577
 20
46.455048
 30
0.0
 10
9.346577
 20
46.454531
 30
0.0
 10
9.346577
 20
46.454014
 30
0.0
 10
9.346577
 20
46.453498
 30
0.0
 10
9.346577
 20
46.452981
 30
0.0
 10
9.346577
 20
46.452464
 30
0.0
 10
9.346577
 20
46.451947
 30
0.0
 10
9.346577
 20
46.451431
 30
0.0
 10
9.346577
 20
46.450914
 30
0.0
 10
9.346577
 20
46.450397
 30
0.0
 10
9.346577
 20
46.449880
 30
0.0
 10
9.346577
 20
46.449364
 30
0.0
 10
9.346577
 20
46.448847
 30
0.0
 10
9.346577
 20
46.448330
 30
0.0
 10
9.346577
 20
46.447813
 30
0.0
 10
9.346577
 20
46.447297
 30
0.0
 10
9.346577
 20
46.446780
 30
0.0
 10
9.346577
 20
46.446263
 30
0.0
 10
9.346577
 20
46.445746
 30
0.0
 10
9.346577
 20
46.445229
 30
0.0
 10
9.346577
 20
46.444713
 30
0.0
 10
9.346577
 20
46.444196
 30
0.0
 10
9.346577
 20
46.443679
 30
0.0
 10
9.346577
 20
46.443162
 30
0.0
 10
9.346577
 20
46.442646
 30
0.0
 10
9.346577
 20
46.442129
 30
0.0
 10
9.346577
 20
46.441612
 30
0.0
 10
9.346577
 20
46.441095
 30
0.0
 10
9.346577
 20
46.440579
 30
0.0
 10
9.346577
 20
46.440062
 30
0.0
  0
SPLINE
  5
124
100
AcDbEntity
  8
Layer_1
 62
7
100
AcDbSpline
 70
8
 71
3
 72
8
 73
4
 74
0
 40
0
 40
0
 40
0
 40
0
 40
1
 40
1
 40
1
 40
1
 10
2.750619
 20
42.490436
 30
0.0
 10
2.484167
 20
42.487369
 30
0.0
 10
2.219574
 20
42.445591
 30
0.0
 10
1.965139
 20
42.366413
 30
0.0
  0
SPLINE
  5
125
100
AcDbEntity
  8
Layer_1
 62
7
100
AcDbSpline
 70
8
 71
3
 72
8
 73
4
 74
0
 40
0
 40
0
 40
0
 40
0
 40
1
 40
1
 40
1
 40
1
 10
1.965139
 20
42.366413
 30
0.0
 10
1.884230
 20
42.337256
 30
0.0
 10
1.804732
 20
42.304320
 30
0.0
 10
1.726910
 20
42.267713
 30
0.0
  0
SPLINE
  5
126
100
AcDbEntity
  8
Layer_1
 62
7
100
AcDbSpline
 70
8
 71
3
 72
8
 73
4
 74
0
 40
0
 40
0
 40
0
 40
0
 40
1
 40
1
 40
1
 40
1
 10
1.726910
 20
42.267713
 30
0.0
 10
1.558694
 20
42.201908
 30
0.0
 10
1.397372
 20
42.119690
 30
0.0
 10
1.245280
 20
42.022250
 30
0.0
  0
SPLINE
  5
127
100
AcDbEntity
  8
Layer_1
 62
7
100
AcDbSpline
 70
8
 71
3
 72
8
 73
4
 74
0
 40
0
 40
0
 40
0
 40
0
 40
1
 40
1
 40
1
 40
1
 10
1.245280
 20
42.022250
 30
0.0
 10
1.163896
 20
41.966387
 30
0.0
 10
1.085579
 20
41.906183
 30
0.0
 10
1.010670
 20
41.841899
 30
0.0
  0
SPLINE
  5
128
100
AcDbEntity
  8
Layer_1
 62
7
100
AcDbSpline
 70
8
 71
3
 72
8
 73
4
 74
0
 40
0
 40
0
 40
0
 40
0
 40
1
 40
1
 40
1
 40
1
 10
1.010670
 20
41.841899
 30
0.0
 10
0.879115
 20
41.732822
 30
0.0
 10
0.758015
 20
41.611720
 30
0.0
 10
0.648940
 20
41.480164
 30
0.0
  0
SPLINE
  5
129
100
AcDbEntity
  8
Layer_1
 62
7
100
AcDbSpline
 70
8
 71
3
 72
8
 73
4
 74
0
 40
0
 40
0
 40
0
 40
0
 40
1
 40
1
 40
1
 40
1
 10
0.648940
 20
41.480164
 30
0.0
 10
0.584656
 20
41.405254
 30
0.0
 10
0.524452
 20
41.326937
 30
0.0
 10
0.468590
 20
41.245553
 30
0.0
  0
SPLINE
  5
12a
100
AcDbEntity
  8
Layer_1
 62
7
100
AcDbSpline
 70
8
 71
3
 72
8
 73
4
 74
0
 40
0
 40
0
 40
0
 40
0
 40
1
 40
1
 40
1
 40
1
 10
0.468590
 20
41.245553
 30
0.0
 10
0.371148
 20
41.093463
 30
0.0
 10
0.288927
 20
40.932142
 30
0.0
 10
0.223120
 20
40.763928
 30
0.0
  0
SPLINE
  5
12b
100
AcDbEntity
  8
Layer_1
 62
7
100
AcDbSpline
 70
8
 71
3
 72
8
 73
4
 74
0
 40
0
 40
0
 40
0
 40
0
 40
1
 40
1
 40
1
 40
1
 10
0.223120
 20
40.763928
 30
0.0
 10
0.186513
 20
40.686106
 30
0.0
 10
0.153577
 20
40.606609
 30
0.0
 10
0.124420
 20
40.525701
 30
0.0
  0
SPLINE
  5
12c
100
AcDbEntity
  8
Layer_1
 62
7
100
AcDbSpline
 70
8
 71
3
 72
8
 73
4
 74
0
 40
0
 40
0
 40
0
 40
0
 40
1
 40
1
 40
1
 40
1
 10
0.124420
 20
40.525701
 30
0.0
 10
0.045242
 20
40.271265
 30
0.0
 10
0.003466
 20
40.006672
 30
0.0
 10
0.000400
 20
39.740219
 30
0.0
  0
SPLINE
  5
12d
100
AcDbEntity
  8
Layer_1
 62
7
100
AcDbSpline
 70
8
 71
3
 72
8
 73
4
 74
0
 40
0
 40
0
 40
0
 40
0
 40
1
 40
1
 40
1
 40
1
 10
0.000400
 20
39.740219
 30
0.0
 10
0.003897
 20
39.470439
 30
0.0
 10
0.047077
 20
39.202643
 30
0.0
 10
0.128550
 20
38.945436
 30
0.0
  0
SPLINE
  5
12e
100
AcDbEntity
  8
Layer_1
 62
7
100
AcDbSpline
 70
8
 71
3
 72
8
 73
4
 74
0
 40
0
 40
0
 40
0
 40
0
 40
1
 40
1
 40
1
 40
1
 10
0.128550
 20
38.945436
 30
0.0
 10
0.134778
 20
38.930049
 30
0.0
 10
0.141145
 20
38.914718
 30
0.0
 10
0.147650
 20
38.899446
 30
0.0
  0
SPLINE
  5
12f
100
AcDbEntity
  8
Layer_1
 62
7
100
AcDbSpline
 70
8
 71
3
 72
8
 73
4
 74
0
 40
0
 40
0
 40
0
 40
0
 40
1
 40
1
 40
1
 40
1
 10
0.147650
 20
38.899446
 30
0.0
 10
0.227970
 20
38.655469
 30
0.0
 10
0.342076
 20
38.423948
 30
0.0
 10
0.486640
 20
38.211633
 30
0.0
  0
SPLINE
  5
130
100
AcDbEntity
  8
Layer_1
 62
7
100
AcDbSpline
 70
8
 71
3
 72
8
 73
4
 74
0
 40
0
 40
0
 40
0
 40
0
 40
1
 40
1
 40
1
 40
1
 10
0.486640
 20
38.211633
 30
0.0
 10
0.492630
 20
38.203677
 30
0.0
 10
0.498664
 20
38.195754
 30
0.0
 10
0.504740
 20
38.187863
 30
0.0
  0
SPLINE
  5
131
100
AcDbEntity
  8
Layer_1
 62
7
100
AcDbSpline
 70
8
 71
3
 72
8
 73
4
 74
0
 40
0
 40
0
 40
0
 40
0
 40
1
 40
1
 40
1
 40
1
 10
0.504740
 20
38.187863
 30
0.0
 10
0.657708
 20
37.969108
 30
0.0
 10
0.841711
 20
37.773790
 30
0.0
 10
1.050960
 20
37.608054
 30
0.0
  0
SPLINE
  5
132
100
AcDbEntity
  8
Layer_1
 62
7
100
AcDbSpline
 70
8
 71
3
 72
8
 73
4
 74
0
 40
0
 40
0
 40
0
 40
0
 40
1
 40
1
 40
1
 40
1
 10
1.050960
 20
37.608054
 30
0.0
 10
1.531692
 20
37.216494
 30
0.0
 10
2.130637
 20
36.998878
 30
0.0
 10
2.750599
 20
36.990521
 30
0.0
  0
LWPOLYLINE
  5
133
100
AcDbEntity
  8
Layer_1
 62
7
100
AcDbPolyline
 90
3
 70
0
 10
5.396968
 20
42.490436
 30
0.0
 10
5.396448
 20
42.490436
 30
0.0
 10
2.750619
 20
42.490436
 30
0.0
  0
SPLINE
  5
134
100
AcDbEntity
  8
Layer_1
 62
7
100
AcDbSpline
 70
8
 71
3
 72
8
 73
4
 74
0
 40
0
 40
0
 40
0
 40
0
 40
1
 40
1
 40
1
 40
1
 10
5.396948
 20
36.990521
 30
0.0
 10
5.488404
 20
36.983361
 30
0.0
 10
5.579583
 20
36.973018
 30
0.0
 10
5.670318
 20
36.959511
 30
0.0
  0
SPLINE
  5
135
100
AcDbEntity
  8
Layer_1
 62
7
100
AcDbSpline
 70
8
 71
3
 72
8
 73
4
 74
0
 40
0
 40
0
 40
0
 40
0
 40
1
 40
1
 40
1
 40
1
 10
5.670318
 20
36.959511
 30
0.0
 10
5.994549
 20
36.935748
 30
0.0
 10
6.314606
 20
36.872048
 30
0.0
 10
6.623228
 20
36.769858
 30
0.0
  0
SPLINE
  5
136
100
AcDbEntity
  8
Layer_1
 62
7
100
AcDbSpline
 70
8
 71
3
 72
8
 73
4
 74
0
 40
0
 40
0
 40
0
 40
0
 40
1
 40
1
 40
1
 40
1
 10
6.623228
 20
36.769858
 30
0.0
 10
6.632707
 20
36.766627
 30
0.0
 10
6.642174
 20
36.763360
 30
0.0
 10
6.651628
 20
36.760058
 30
0.0
  0
SPLINE
  5
137
100
AcDbEntity
  8
Layer_1
 62
7
100
AcDbSpline
 70
8
 71
3
 72
8
 73
4
 74
0
 40
0
 40
0
 40
0
 40
0
 40
1
 40
1
 40
1
 40
1
 10
6.651628
 20
36.760058
 30
0.0
 10
6.950202
 20
36.658901
 30
0.0
 10
7.235592
 20
36.522365
 30
0.0
 10
7.501708
 20
36.353364
 30
0.0
  0
SPLINE
  5
138
100
AcDbEntity
  8
Layer_1
 62
7
100
AcDbSpline
 70
8
 71
3
 72
8
 73
4
 74
0
 40
0
 40
0
 40
0
 40
0
 40
1
 40
1
 40
1
 40
1
 10
7.501708
 20
36.353364
 30
0.0
 10
7.514856
 20
36.345171
 30
0.0
 10
7.527957
 20
36.336901
 30
0.0
 10
7.541008
 20
36.328554
 30
0.0
  0
SPLINE
  5
139
100
AcDbEntity
  8
Layer_1
 62
7
100
AcDbSpline
 70
8
 71
3
 72
8
 73
4
 74
0
 40
0
 40
0
 40
0
 40
0
 40
1
 40
1
 40
1
 40
1
 10
7.541008
 20
36.328554
 30
0.0
 10
7.804003
 20
36.157356
 30
0.0
 10
8.045660
 20
35.955428
 30
0.0
 10
8.260868
 20
35.727041
 30
0.0
  0
SPLINE
  5
13a
100
AcDbEntity
  8
Layer_1
 62
7
100
AcDbSpline
 70
8
 71
3
 72
8
 73
4
 74
0
 40
0
 40
0
 40
0
 40
0
 40
1
 40
1
 40
1
 40
1
 10
8.260868
 20
35.727041
 30
0.0
 10
8.270046
 20
35.717956
 30
0.0
 10
8.279179
 20
35.708826
 30
0.0
 10
8.288268
 20
35.699651
 30
0.0
  0
SPLINE
  5
13b
100
AcDbEntity
  8
Layer_1
 62
7
100
AcDbSpline
 70
8
 71
3
 72
8
 73
4
 74
0
 40
0
 40
0
 40
0
 40
0
 40
1
 40
1
 40
1
 40
1
 10
8.288268
 20
35.699651
 30
0.0
 10
8.509028
 20
35.461621
 30
0.0
 10
8.699602
 20
35.197283
 30
0.0
 10
8.855677
 20
34.912619
 30
0.0
  0
SPLINE
  5
13c
100
AcDbEntity
  8
Layer_1
 62
7
100
AcDbSpline
 70
8
 71
3
 72
8
 73
4
 74
0
 40
0
 40
0
 40
0
 40
0
 40
1
 40
1
 40
1
 40
1
 10
8.855677
 20
34.912619
 30
0.0
 10
9.171973
 20
34.339065
 30
0.0
 10
9.340679
 20
33.695859
 30
0.0
 10
9.346607
 20
33.040900
 30
0.0
  0
SPLINE
  5
13d
100
AcDbEntity
  8
Layer_1
 62
7
100
AcDbSpline
 70
8
 71
3
 72
8
 73
4
 74
0
 40
0
 40
0
 40
0
 40
0
 40
1
 40
1
 40
1
 40
1
 10
9.346607
 20
33.040900
 30
0.0
 10
9.346650
 20
32.961782
 30
0.0
 10
9.344316
 20
32.882682
 30
0.0
 10
9.339607
 20
32.803705
 30
0.0
  0
LWPOLYLINE
  5
13e
100
AcDbEntity
  8
Layer_1
 62
7
100
AcDbPolyline
 90
3
 70
0
 10
2.750599
 20
36.990521
 30
0.0
 10
5.396428
 20
36.990521
 30
0.0
 10
5.396948
 20
36.990521
 30
0.0
  0
SPLINE
  5
13f
100
AcDbEntity
  8
Layer_1
 62
7
100
AcDbSpline
 70
8
 71
3
 72
8
 73
4
 74
0
 40
0
 40
0
 40
0
 40
0
 40
1
 40
1
 40
1
 40
1
 10
9.337607
 20
32.803705
 30
0.0
 10
9.336095
 20
30.694546
 30
0.0
 10
7.677796
 20
28.958669
 30
0.0
 10
5.570908
 20
28.860794
 30
0.0
  0
LWPOLYLINE
  5
140
100
AcDbEntity
  8
Layer_1
 62
7
100
AcDbPolyline
 90
2
 70
0
 10
9.339607
 20
32.803705
 30
0.0
 10
9.337607
 20
32.803705
 30
0.0
  0
SPLINE
  5
141
100
AcDbEntity
  8
Layer_1
 62
7
100
AcDbSpline
 70
8
 71
3
 72
8
 73
4
 74
0
 40
0
 40
0
 40
0
 40
0
 40
1
 40
1
 40
1
 40
1
 10
5.150779
 20
28.860794
 30
0.0
 10
5.071893
 20
28.867473
 30
0.0
 10
4.992756
 20
28.870743
 30
0.0
 10
4.913589
 20
28.870594
 30
0.0
  0
SPLINE
  5
142
100
AcDbEntity
  8
Layer_1
 62
7
100
AcDbSpline
 70
8
 71
3
 72
8
 73
4
 74
0
 40
0
 40
0
 40
0
 40
0
 40
1
 40
1
 40
1
 40
1
 10
4.913589
 20
28.870594
 30
0.0
 10
3.395039
 20
28.870428
 30
0.0
 10
2.164053
 20
27.639441
 30
0.0
 10
2.163889
 20
26.120892
 30
0.0
  0
LWPOLYLINE
  5
143
100
AcDbEntity
  8
Layer_1
 62
7
100
AcDbPolyline
 90
2
 70
0
 10
5.570908
 20
28.860794
 30
0.0
 10
5.150779
 20
28.860794
 30
0.0
  0
SPLINE
  5
144
100
AcDbEntity
  8
Layer_1
 62
7
100
AcDbSpline
 70
8
 71
3
 72
8
 73
4
 74
0
 40
0
 40
0
 40
0
 40
0
 40
1
 40
1
 40
1
 40
1
 10
2.163889
 20
21.154787
 30
0.0
 10
2.284339
 20
21.311134
 30
0.0
 10
2.471269
 20
21.413170
 30
0.0
 10
2.684779
 20
21.413170
 30
0.0
  0
LWPOLYLINE
  5
145
100
AcDbEntity
  8
Layer_1
 62
7
100
AcDbPolyline
 90
3
 70
0
 10
2.163889
 20
26.120892
 30
0.0
 10
2.163889
 20
22.953644
 30
0.0
 10
2.163889
 20
21.154787
 30
0.0
  0
SPLINE
  5
146
100
AcDbEntity
  8
Layer_1
 62
7
100
AcDbSpline
 70
8
 71
3
 72
8
 73
4
 74
0
 40
0
 40
0
 40
0
 40
0
 40
1
 40
1
 40
1
 40
1
 10
5.868048
 20
21.413170
 30
0.0
 10
5.868048
 20
21.417650
 30
0.0
 10
5.868058
 20
21.422130
 30
0.0
 10
5.868048
 20
21.426606
 30
0.0
  0
LWPOLYLINE
  5
147
100
AcDbEntity
  8
Layer_1
 62
7
100
AcDbPolyline
 90
2
 70
0
 10
2.684779
 20
21.413170
 30
0.0
 10
5.868048
 20
21.413170
 30
0.0
  0
SPLINE
  5
148
100
AcDbEntity
  8
Layer_1
 62
7
100
AcDbSpline
 70
8
 71
3
 72
8
 73
4
 74
0
 40
0
 40
0
 40
0
 40
0
 40
1
 40
1
 40
1
 40
1
 10
8.001768
 20
23.560324
 30
0.0
 10
7.927368
 20
23.538904
 30
0.0
 10
7.850148
 20
23.523634
 30
0.0
 10
7.768708
 20
23.523634
 30
0.0
  0
LWPOLYLINE
  5
149
100
AcDbEntity
  8
Layer_1
 62
7
100
AcDbPolyline
 90
2
 70
0
 10
5.868048
 20
21.426606
 30
0.0
 10
8.001768
 20
23.560324
 30
0.0
  0
SPLINE
  5
14a
100
AcDbEntity
  8
Layer_1
 62
7
100
AcDbSpline
 70
8
 71
3
 72
8
 73
4
 74
0
 40
0
 40
0
 40
0
 40
0
 40
1
 40
1
 40
1
 40
1
 10
5.848928
 20
23.523634
 30
0.0
 10
5.383568
 20
23.523634
 30
0.0
 10
5.008669
 20
23.898533
 30
0.0
 10
5.008669
 20
24.363893
 30
0.0
  0
LWPOLYLINE
  5
14b
100
AcDbEntity
  8
Layer_1
 62
7
100
AcDbPolyline
 90
2
 70
0
 10
7.768708
 20
23.523634
 30
0.0
 10
5.848928
 20
23.523634
 30
0.0
  0
SPLINE
  5
14c
100
AcDbEntity
  8
Layer_1
 62
7
100
AcDbSpline
 70
8
 71
3
 72
8
 73
4
 74
0
 40
0
 40
0
 40
0
 40
0
 40
1
 40
1
 40
1
 40
1
 10
5.008669
 20
26.283672
 30
0.0
 10
5.008669
 20
26.749031
 30
0.0
 10
5.383568
 20
27.123930
 30
0.0
 10
5.848928
 20
27.123930
 30
0.0
  0
LWPOLYLINE
  5
14d
100
AcDbEntity
  8
Layer_1
 62
7
100
AcDbPolyline
 90
2
 70
0
 10
5.008669
 20
24.363893
 30
0.0
 10
5.008669
 20
26.283672
 30
0.0
  0
SPLINE
  5
14e
100
AcDbEntity
  8
Layer_1
 62
7
100
AcDbSpline
 70
8
 71
3
 72
8
 73
4
 74
0
 40
0
 40
0
 40
0
 40
0
 40
1
 40
1
 40
1
 40
1
 10
7.768708
 20
27.123930
 30
0.0
 10
8.234068
 20
27.123930
 30
0.0
 10
8.608968
 20
26.749031
 30
0.0
 10
8.608968
 20
26.283672
 30
0.0
  0
LWPOLYLINE
  5
14f
100
AcDbEntity
  8
Layer_1
 62
7
100
AcDbPolyline
 90
2
 70
0
 10
5.848928
 20
27.123930
 30
0.0
 10
7.768708
 20
27.123930
 30
0.0
  0
SPLINE
  5
150
100
AcDbEntity
  8
Layer_1
 62
7
100
AcDbSpline
 70
8
 71
3
 72
8
 73
4
 74
0
 40
0
 40
0
 40
0
 40
0
 40
1
 40
1
 40
1
 40
1
 10
8.608968
 20
24.363893
 30
0.0
 10
8.608968
 20
24.282483
 30
0.0
 10
8.594168
 20
24.205166
 30
0.0
 10
8.572768
 20
24.130832
 30
0.0
  0
LWPOLYLINE
  5
151
100
AcDbEntity
  8
Layer_1
 62
7
100
AcDbPolyline
 90
2
 70
0
 10
8.608968
 20
26.283672
 30
0.0
 10
8.608968
 20
24.363893
 30
0.0
  0
SPLINE
  5
152
100
AcDbEntity
  8
Layer_1
 62
7
100
AcDbSpline
 70
8
 71
3
 72
8
 73
4
 74
0
 40
0
 40
0
 40
0
 40
0
 40
1
 40
1
 40
1
 40
1
 10
16.436885
 20
31.995466
 30
0.0
 10
15.652621
 20
32.203764
 30
0.0
 10
15.104692
 20
32.911058
 30
0.0
 10
15.098986
 20
33.722492
 30
0.0
  0
SPLINE
  5
153
100
AcDbEntity
  8
Layer_1
 62
7
100
AcDbSpline
 70
8
 71
3
 72
8
 73
4
 74
0
 40
0
 40
0
 40
0
 40
0
 40
1
 40
1
 40
1
 40
1
 10
15.098986
 20
33.722492
 30
0.0
 10
15.099046
 20
34.716519
 30
0.0
 10
15.904849
 20
35.522322
 30
0.0
 10
16.898875
 20
35.522382
 30
0.0
  0
SPLINE
  5
154
100
AcDbEntity
  8
Layer_1
 62
7
100
AcDbSpline
 70
8
 71
3
 72
8
 73
4
 74
0
 40
0
 40
0
 40
0
 40
0
 40
1
 40
1
 40
1
 40
1
 10
16.898875
 20
35.522382
 30
0.0
 10
17.710456
 20
35.516609
 30
0.0
 10
18.417794
 20
34.968431
 30
0.0
 10
18.625895
 20
34.183962
 30
0.0
  0
LWPOLYLINE
  5
155
100
AcDbEntity
  8
Layer_1
 62
7
100
AcDbPolyline
 90
2
 70
0
 10
8.572768
 20
24.130832
 30
0.0
 10
16.436885
 20
31.995466
 30
0.0
  0
SPLINE
  5
156
100
AcDbEntity
  8
Layer_1
 62
7
100
AcDbSpline
 70
8
 71
3
 72
8
 73
4
 74
0
 40
0
 40
0
 40
0
 40
0
 40
1
 40
1
 40
1
 40
1
 10
37.977169
 20
46.666402
 30
0.0
 10
38.641969
 20
46.666402
 30
0.0
 10
39.177089
 20
46.136512
 30
0.0
 10
39.177089
 20
45.478360
 30
0.0
  0
SPLINE
  5
157
100
AcDbEntity
  8
Layer_1
 62
7
100
AcDbSpline
 70
8
 71
3
 72
8
 73
4
 74
0
 40
0
 40
0
 40
0
 40
0
 40
1
 40
1
 40
1
 40
1
 10
39.177089
 20
45.478360
 30
0.0
 10
39.177089
 20
44.820209
 30
0.0
 10
38.641969
 20
44.290319
 30
0.0
 10
37.977169
 20
44.290319
 30
0.0
  0
LWPOLYLINE
  5
158
100
AcDbEntity
  8
Layer_1
 62
7
100
AcDbPolyline
 90
11
 70
0
 10
18.625895
 20
34.183962
 30
0.0
 10
34.425450
 20
49.983511
 30
0.0
 10
34.425450
 20
51.666611
 30
0.0
 10
36.108550
 20
51.666611
 30
0.0
 10
43.140678
 20
58.698738
 30
0.0
 10
43.140678
 20
53.431878
 30
0.0
 10
39.177089
 20
49.468297
 30
0.0
 10
39.177089
 20
49.290530
 30
0.0
 10
38.999329
 20
49.290530
 30
0.0
 10
36.375200
 20
46.666402
 30
0.0
 10
37.977169
 20
46.666402
 30
0.0
  0
SPLINE
  5
159
100
AcDbEntity
  8
Layer_1
 62
7
100
AcDbSpline
 70
8
 71
3
 72
8
 73
4
 74
0
 40
0
 40
0
 40
0
 40
0
 40
1
 40
1
 40
1
 40
1
 10
35.625370
 20
44.290319
 30
0.0
 10
35.181170
 20
44.290319
 30
0.0
 10
34.799330
 20
44.529728
 30
0.0
 10
34.591840
 20
44.883048
 30
0.0
  0
LWPOLYLINE
  5
15a
100
AcDbEntity
  8
Layer_1
 62
7
100
AcDbPolyline
 90
2
 70
0
 10
37.977169
 20
44.290319
 30
0.0
 10
35.625370
 20
44.290319
 30
0.0
  0
SPLINE
  5
15b
100
AcDbEntity
  8
Layer_1
 62
7
100
AcDbSpline
 70
8
 71
3
 72
8
 73
4
 74
0
 40
0
 40
0
 40
0
 40
0
 40
1
 40
1
 40
1
 40
1
 10
14.957386
 20
25.248593
 30
0.0
 10
14.943174
 20
24.275046
 30
0.0
 10
14.157403
 20
23.489272
 30
0.0
 10
13.183856
 20
23.475058
 30
0.0
  0
LWPOLYLINE
  5
15c
100
AcDbEntity
  8
Layer_1
 62
7
100
AcDbPolyline
 90
2
 70
0
 10
34.591840
 20
44.883048
 30
0.0
 10
14.957386
 20
25.248593
 30
0.0
  0
SPLINE
  5
15d
100
AcDbEntity
  8
Layer_1
 62
7
100
AcDbSpline
 70
8
 71
3
 72
8
 73
4
 74
0
 40
0
 40
0
 40
0
 40
0
 40
1
 40
1
 40
1
 40
1
 10
18.671375
 20
23.729823
 30
0.0
 10
18.060040
 20
24.027252
 30
0.0
 10
17.668439
 20
24.643740
 30
0.0
 10
17.659035
 20
25.323524
 30
0.0
  0
SPLINE
  5
15e
100
AcDbEntity
  8
Layer_1
 62
7
100
AcDbSpline
 70
8
 71
3
 72
8
 73
4
 74
0
 40
0
 40
0
 40
0
 40
0
 40
1
 40
1
 40
1
 40
1
 10
17.659035
 20
25.323524
 30
0.0
 10
17.658927
 20
25.800965
 30
0.0
 10
17.848506
 20
26.258890
 30
0.0
 10
18.186060
 20
26.596540
 30
0.0
  0
SPLINE
  5
15f
100
AcDbEntity
  8
Layer_1
 62
7
100
AcDbSpline
 70
8
 71
3
 72
8
 73
4
 74
0
 40
0
 40
0
 40
0
 40
0
 40
1
 40
1
 40
1
 40
1
 10
18.186060
 20
26.596540
 30
0.0
 10
18.523613
 20
26.934190
 30
0.0
 10
18.981483
 20
27.123901
 30
0.0
 10
19.458924
 20
27.123930
 30
0.0
  0
SPLINE
  5
160
100
AcDbEntity
  8
Layer_1
 62
7
100
AcDbSpline
 70
8
 71
3
 72
8
 73
4
 74
0
 40
0
 40
0
 40
0
 40
0
 40
1
 40
1
 40
1
 40
1
 10
19.458924
 20
27.123930
 30
0.0
 10
20.141030
 20
27.123491
 30
0.0
 10
20.764288
 20
26.737532
 30
0.0
 10
21.068644
 20
26.127093
 30
0.0
  0
LWPOLYLINE
  5
161
100
AcDbEntity
  8
Layer_1
 62
7
100
AcDbPolyline
 90
4
 70
0
 10
13.183856
 20
23.475058
 30
0.0
 10
11.121967
 20
21.413170
 30
0.0
 10
16.354715
 20
21.413170
 30
0.0
 10
18.671375
 20
23.729823
 30
0.0
  0
SPLINE
  5
162
100
AcDbEntity
  8
Layer_1
 62
7
100
AcDbSpline
 70
8
 71
3
 72
8
 73
4
 74
0
 40
0
 40
0
 40
0
 40
0
 40
1
 40
1
 40
1
 40
1
 10
34.686410
 20
39.744862
 30
0.0
 10
34.525200
 20
39.947079
 30
0.0
 10
34.425450
 20
40.199389
 30
0.0
 10
34.425450
 20
40.478151
 30
0.0
  0
SPLINE
  5
163
100
AcDbEntity
  8
Layer_1
 62
7
100
AcDbSpline
 70
8
 71
3
 72
8
 73
4
 74
0
 40
0
 40
0
 40
0
 40
0
 40
1
 40
1
 40
1
 40
1
 10
34.425450
 20
40.478151
 30
0.0
 10
34.425450
 20
41.136301
 30
0.0
 10
34.960570
 20
41.666191
 30
0.0
 10
35.625370
 20
41.666191
 30
0.0
  0
LWPOLYLINE
  5
164
100
AcDbEntity
  8
Layer_1
 62
7
100
AcDbPolyline
 90
2
 70
0
 10
21.068644
 20
26.127093
 30
0.0
 10
34.686410
 20
39.744862
 30
0.0
  0
SPLINE
  5
165
100
AcDbEntity
  8
Layer_1
 62
7
100
AcDbSpline
 70
8
 71
3
 72
8
 73
4
 74
0
 40
0
 40
0
 40
0
 40
0
 40
1
 40
1
 40
1
 40
1
 10
37.977169
 20
36.666498
 30
0.0
 10
38.641969
 20
36.666498
 30
0.0
 10
39.177089
 20
36.136608
 30
0.0
 10
39.177089
 20
35.478457
 30
0.0
  0
SPLINE
  5
166
100
AcDbEntity
  8
Layer_1
 62
7
100
AcDbSpline
 70
8
 71
3
 72
8
 73
4
 74
0
 40
0
 40
0
 40
0
 40
0
 40
1
 40
1
 40
1
 40
1
 10
39.177089
 20
35.478457
 30
0.0
 10
39.177089
 20
34.820306
 30
0.0
 10
38.641969
 20
34.290416
 30
0.0
 10
37.977169
 20
34.290416
 30
0.0
  0
LWPOLYLINE
  5
167
100
AcDbEntity
  8
Layer_1
 62
7
100
AcDbPolyline
 90
6
 70
0
 10
35.625370
 20
41.666191
 30
0.0
 10
36.607740
 20
41.666191
 30
0.0
 10
43.140678
 20
48.199124
 30
0.0
 10
43.140678
 20
42.931747
 30
0.0
 10
36.875430
 20
36.666498
 30
0.0
 10
37.977169
 20
36.666498
 30
0.0
  0
SPLINE
  5
168
100
AcDbEntity
  8
Layer_1
 62
7
100
AcDbSpline
 70
8
 71
3
 72
8
 73
4
 74
0
 40
0
 40
0
 40
0
 40
0
 40
1
 40
1
 40
1
 40
1
 10
35.625370
 20
34.290416
 30
0.0
 10
35.311320
 20
34.290416
 30
0.0
 10
35.028530
 20
34.411491
 30
0.0
 10
34.815090
 20
34.605642
 30
0.0
  0
LWPOLYLINE
  5
169
100
AcDbEntity
  8
Layer_1
 62
7
100
AcDbPolyline
 90
2
 70
0
 10
37.977169
 20
34.290416
 30
0.0
 10
35.625370
 20
34.290416
 30
0.0
  0
SPLINE
  5
16a
100
AcDbEntity
  8
Layer_1
 62
7
100
AcDbSpline
 70
8
 71
3
 72
8
 73
4
 74
0
 40
0
 40
0
 40
0
 40
0
 40
1
 40
1
 40
1
 40
1
 10
25.557253
 20
25.348329
 30
0.0
 10
25.557977
 20
25.340067
 30
0.0
 10
25.558643
 20
25.331800
 30
0.0
 10
25.559253
 20
25.323529
 30
0.0
  0
SPLINE
  5
16b
100
AcDbEntity
  8
Layer_1
 62
7
100
AcDbSpline
 70
8
 71
3
 72
8
 73
4
 74
0
 40
0
 40
0
 40
0
 40
0
 40
1
 40
1
 40
1
 40
1
 10
25.559253
 20
25.323529
 30
0.0
 10
25.559192
 20
24.329502
 30
0.0
 10
24.753390
 20
23.523700
 30
0.0
 10
23.759363
 20
23.523639
 30
0.0
  0
SPLINE
  5
16c
100
AcDbEntity
  8
Layer_1
 62
7
100
AcDbSpline
 70
8
 71
3
 72
8
 73
4
 74
0
 40
0
 40
0
 40
0
 40
0
 40
1
 40
1
 40
1
 40
1
 10
23.759363
 20
23.523639
 30
0.0
 10
23.751789
 20
23.524791
 30
0.0
 10
23.744222
 20
23.525991
 30
0.0
 10
23.736663
 20
23.527239
 30
0.0
  0
LWPOLYLINE
  5
16d
100
AcDbEntity
  8
Layer_1
 62
7
100
AcDbPolyline
 90
2
 70
0
 10
34.815090
 20
34.605642
 30
0.0
 10
25.557253
 20
25.348329
 30
0.0
  0
SPLINE
  5
16e
100
AcDbEntity
  8
Layer_1
 62
7
100
AcDbSpline
 70
8
 71
3
 72
8
 73
4
 74
0
 40
0
 40
0
 40
0
 40
0
 40
1
 40
1
 40
1
 40
1
 10
37.977649
 20
26.666581
 30
0.0
 10
38.642449
 20
26.666581
 30
0.0
 10
39.177569
 20
26.136692
 30
0.0
 10
39.177569
 20
25.478541
 30
0.0
  0
SPLINE
  5
16f
100
AcDbEntity
  8
Layer_1
 62
7
100
AcDbSpline
 70
8
 71
3
 72
8
 73
4
 74
0
 40
0
 40
0
 40
0
 40
0
 40
1
 40
1
 40
1
 40
1
 10
39.177569
 20
25.478541
 30
0.0
 10
39.177569
 20
24.820389
 30
0.0
 10
38.642449
 20
24.290499
 30
0.0
 10
37.977649
 20
24.290499
 30
0.0
  0
LWPOLYLINE
  5
170
100
AcDbEntity
  8
Layer_1
 62
7
100
AcDbPolyline
 90
11
 70
0
 10
23.736663
 20
23.527239
 30
0.0
 10
21.623094
 20
21.413157
 30
0.0
 10
26.855332
 20
21.413157
 30
0.0
 10
34.732370
 20
29.290193
 30
0.0
 10
34.425930
 20
29.290193
 30
0.0
 10
34.425930
 20
31.666275
 30
0.0
 10
37.108449
 20
31.666275
 30
0.0
 10
43.141158
 20
37.698979
 30
0.0
 10
43.141158
 20
32.431603
 30
0.0
 10
37.376129
 20
26.666581
 30
0.0
 10
37.977649
 20
26.666581
 30
0.0
  0
SPLINE
  5
171
100
AcDbEntity
  8
Layer_1
 62
7
100
AcDbSpline
 70
8
 71
3
 72
8
 73
4
 74
0
 40
0
 40
0
 40
0
 40
0
 40
1
 40
1
 40
1
 40
1
 10
35.625850
 20
24.290499
 30
0.0
 10
35.442510
 20
24.290499
 30
0.0
 10
35.270920
 20
24.334079
 30
0.0
 10
35.115810
 20
24.406255
 30
0.0
  0
LWPOLYLINE
  5
172
100
AcDbEntity
  8
Layer_1
 62
7
100
AcDbPolyline
 90
2
 70
0
 10
37.977649
 20
24.290499
 30
0.0
 10
35.625850
 20
24.290499
 30
0.0
  0
SPLINE
  5
173
100
AcDbEntity
  8
Layer_1
 62
7
100
AcDbSpline
 70
8
 71
3
 72
8
 73
4
 74
0
 40
0
 40
0
 40
0
 40
0
 40
1
 40
1
 40
1
 40
1
 10
33.752580
 20
21.413157
 30
0.0
 10
34.118150
 20
21.413157
 30
0.0
 10
34.412490
 20
21.118816
 30
0.0
 10
34.412490
 20
20.753249
 30
0.0
  0
LWPOLYLINE
  5
174
100
AcDbEntity
  8
Layer_1
 62
7
100
AcDbPolyline
 90
3
 70
0
 10
35.115810
 20
24.406255
 30
0.0
 10
32.122711
 20
21.413157
 30
0.0
 10
33.752580
 20
21.413157
 30
0.0
  0
SPLINE
  5
175
100
AcDbEntity
  8
Layer_1
 62
7
100
AcDbSpline
 70
8
 71
3
 72
8
 73
4
 74
0
 40
0
 40
0
 40
0
 40
0
 40
1
 40
1
 40
1
 40
1
 10
35.286340
 20
19.344032
 30
0.0
 10
34.789070
 20
19.489062
 30
0.0
 10
34.425930
 20
19.937829
 30
0.0
 10
34.425930
 20
20.478330
 30
0.0
  0
SPLINE
  5
176
100
AcDbEntity
  8
Layer_1
 62
7
100
AcDbSpline
 70
8
 71
3
 72
8
 73
4
 74
0
 40
0
 40
0
 40
0
 40
0
 40
1
 40
1
 40
1
 40
1
 10
34.425930
 20
20.478330
 30
0.0
 10
34.425930
 20
21.136481
 30
0.0
 10
34.961050
 20
21.666371
 30
0.0
 10
35.625850
 20
21.666371
 30
0.0
  0
LWPOLYLINE
  5
177
100
AcDbEntity
  8
Layer_1
 62
7
100
AcDbPolyline
 90
3
 70
0
 10
34.412490
 20
20.753249
 30
0.0
 10
34.412490
 20
18.470184
 30
0.0
 10
35.286340
 20
19.344032
 30
0.0
  0
SPLINE
  5
178
100
AcDbEntity
  8
Layer_1
 62
7
100
AcDbSpline
 70
8
 71
3
 72
8
 73
4
 74
0
 40
0
 40
0
 40
0
 40
0
 40
1
 40
1
 40
1
 40
1
 10
37.977649
 20
16.666161
 30
0.0
 10
38.642449
 20
16.666161
 30
0.0
 10
39.177569
 20
16.136271
 30
0.0
 10
39.177569
 20
15.478119
 30
0.0
  0
SPLINE
  5
179
100
AcDbEntity
  8
Layer_1
 62
7
100
AcDbSpline
 70
8
 71
3
 72
8
 73
4
 74
0
 40
0
 40
0
 40
0
 40
0
 40
1
 40
1
 40
1
 40
1
 10
39.177569
 20
15.478119
 30
0.0
 10
39.177569
 20
14.819969
 30
0.0
 10
38.642449
 20
14.290596
 30
0.0
 10
37.977649
 20
14.290596
 30
0.0
  0
LWPOLYLINE
  5
17a
100
AcDbEntity
  8
Layer_1
 62
7
100
AcDbPolyline
 90
6
 70
0
 10
35.625850
 20
21.666371
 30
0.0
 10
37.608679
 20
21.666371
 30
0.0
 10
43.141158
 20
27.198848
 30
0.0
 10
43.141158
 20
21.931470
 30
0.0
 10
37.875839
 20
16.666161
 30
0.0
 10
37.977649
 20
16.666161
 30
0.0
  0
SPLINE
  5
17b
100
AcDbEntity
  8
Layer_1
 62
7
100
AcDbSpline
 70
8
 71
3
 72
8
 73
4
 74
0
 40
0
 40
0
 40
0
 40
0
 40
1
 40
1
 40
1
 40
1
 10
35.625850
 20
14.290596
 30
0.0
 10
35.586650
 20
14.290596
 30
0.0
 10
35.549850
 20
14.298366
 30
0.0
 10
35.511650
 20
14.301965
 30
0.0
  0
LWPOLYLINE
  5
17c
100
AcDbEntity
  8
Layer_1
 62
7
100
AcDbPolyline
 90
2
 70
0
 10
37.977649
 20
14.290596
 30
0.0
 10
35.625850
 20
14.290596
 30
0.0
  0
SPLINE
  5
17d
100
AcDbEntity
  8
Layer_1
 62
7
100
AcDbSpline
 70
8
 71
3
 72
8
 73
4
 74
0
 40
0
 40
0
 40
0
 40
0
 40
1
 40
1
 40
1
 40
1
 10
24.749513
 20
3.711400
 30
0.0
 10
24.747610
 20
2.884258
 30
0.0
 10
24.076497
 20
2.214761
 30
0.0
 10
23.249353
 20
2.214851
 30
0.0
  0
SPLINE
  5
17e
100
AcDbEntity
  8
Layer_1
 62
7
100
AcDbSpline
 70
8
 71
3
 72
8
 73
4
 74
0
 40
0
 40
0
 40
0
 40
0
 40
1
 40
1
 40
1
 40
1
 10
23.249353
 20
2.214851
 30
0.0
 10
22.422811
 20
2.215040
 30
0.0
 10
21.752175
 20
2.883827
 30
0.0
 10
21.749704
 20
3.710366
 30
0.0
  0
LWPOLYLINE
  5
17f
100
AcDbEntity
  8
Layer_1
 62
7
100
AcDbPolyline
 90
3
 70
0
 10
35.511650
 20
14.301965
 30
0.0
 10
24.921083
 20
3.711400
 30
0.0
 10
24.749513
 20
3.711400
 30
0.0
  0
SPLINE
  5
180
100
AcDbEntity
  8
Layer_1
 62
7
100
AcDbSpline
 70
8
 71
3
 72
8
 73
4
 74
0
 40
0
 40
0
 40
0
 40
0
 40
1
 40
1
 40
1
 40
1
 10
24.395013
 20
13.685468
 30
0.0
 10
25.068436
 20
13.407940
 30
0.0
 10
25.508232
 20
12.751922
 30
0.0
 10
25.509163
 20
12.023554
 30
0.0
  0
SPLINE
  5
181
100
AcDbEntity
  8
Layer_1
 62
7
100
AcDbSpline
 70
8
 71
3
 72
8
 73
4
 74
0
 40
0
 40
0
 40
0
 40
0
 40
1
 40
1
 40
1
 40
1
 10
25.509163
 20
12.023554
 30
0.0
 10
25.509102
 20
11.029528
 30
0.0
 10
24.703300
 20
10.223725
 30
0.0
 10
23.709273
 20
10.223665
 30
0.0
  0
SPLINE
  5
182
100
AcDbEntity
  8
Layer_1
 62
7
100
AcDbSpline
 70
8
 71
3
 72
8
 73
4
 74
0
 40
0
 40
0
 40
0
 40
0
 40
1
 40
1
 40
1
 40
1
 10
23.709273
 20
10.223665
 30
0.0
 10
22.982214
 20
10.230777
 30
0.0
 10
22.330831
 20
10.674612
 30
0.0
 10
22.058204
 20
11.348660
 30
0.0
  0
LWPOLYLINE
  5
183
100
AcDbEntity
  8
Layer_1
 62
7
100
AcDbPolyline
 90
5
 70
0
 10
21.749704
 20
3.710366
 30
0.0
 10
19.651634
 20
3.709336
 30
0.0
 10
30.782741
 20
14.840435
 30
0.0
 10
25.549983
 20
14.840435
 30
0.0
 10
24.395013
 20
13.685468
 30
0.0
  0
SPLINE
  5
184
100
AcDbEntity
  8
Layer_1
 62
7
100
AcDbSpline
 70
8
 71
3
 72
8
 73
4
 74
0
 40
0
 40
0
 40
0
 40
0
 40
1
 40
1
 40
1
 40
1
 10
13.448916
 20
3.707785
 30
0.0
 10
13.445026
 20
2.882256
 30
0.0
 10
12.774804
 20
2.215038
 30
0.0
 10
11.949267
 20
2.214854
 30
0.0
  0
SPLINE
  5
185
100
AcDbEntity
  8
Layer_1
 62
7
100
AcDbSpline
 70
8
 71
3
 72
8
 73
4
 74
0
 40
0
 40
0
 40
0
 40
0
 40
1
 40
1
 40
1
 40
1
 10
11.949267
 20
2.214854
 30
0.0
 10
11.124532
 20
2.215601
 30
0.0
 10
10.455101
 20
2.882029
 30
0.0
 10
10.450647
 20
3.706752
 30
0.0
  0
LWPOLYLINE
  5
186
100
AcDbEntity
  8
Layer_1
 62
7
100
AcDbPolyline
 90
3
 70
0
 10
22.058204
 20
11.348660
 30
0.0
 10
14.417336
 20
3.707785
 30
0.0
 10
13.448916
 20
3.707785
 30
0.0
  0
SPLINE
  5
187
100
AcDbEntity
  8
Layer_1
 62
7
100
AcDbSpline
 70
8
 71
3
 72
8
 73
4
 74
0
 40
0
 40
0
 40
0
 40
0
 40
1
 40
1
 40
1
 40
1
 10
17.695685
 20
12.254031
 30
0.0
 10
17.807064
 20
13.050140
 30
0.0
 10
18.432816
 20
13.675892
 30
0.0
 10
19.228925
 20
13.787271
 30
0.0
  0
LWPOLYLINE
  5
188
100
AcDbEntity
  8
Layer_1
 62
7
100
AcDbPolyline
 90
3
 70
0
 10
10.450647
 20
3.706752
 30
0.0
 10
9.148407
 20
3.706752
 30
0.0
 10
17.695685
 20
12.254031
 30
0.0
  0
SPLINE
  5
189
100
AcDbEntity
  8
Layer_1
 62
7
100
AcDbSpline
 70
8
 71
3
 72
8
 73
4
 74
0
 40
0
 40
0
 40
0
 40
0
 40
1
 40
1
 40
1
 40
1
 10
13.880416
 20
13.670482
 30
0.0
 10
14.535063
 20
13.384299
 30
0.0
 10
14.958478
 20
12.738020
 30
0.0
 10
14.959416
 20
12.023554
 30
0.0
  0
SPLINE
  5
18a
100
AcDbEntity
  8
Layer_1
 62
7
100
AcDbSpline
 70
8
 71
3
 72
8
 73
4
 74
0
 40
0
 40
0
 40
0
 40
0
 40
1
 40
1
 40
1
 40
1
 10
14.959416
 20
12.023554
 30
0.0
 10
14.959355
 20
11.029528
 30
0.0
 10
14.153553
 20
10.223725
 30
0.0
 10
13.159526
 20
10.223665
 30
0.0
  0
SPLINE
  5
18b
100
AcDbEntity
  8
Layer_1
 62
7
100
AcDbSpline
 70
8
 71
3
 72
8
 73
4
 74
0
 40
0
 40
0
 40
0
 40
0
 40
1
 40
1
 40
1
 40
1
 10
13.159526
 20
10.223665
 30
0.0
 10
12.446623
 20
10.231660
 30
0.0
 10
11.805623
 20
10.659670
 30
0.0
 10
11.525007
 20
11.315070
 30
0.0
  0
LWPOLYLINE
  5
18c
100
AcDbEntity
  8
Layer_1
 62
7
100
AcDbPolyline
 90
4
 70
0
 10
19.228925
 20
13.787271
 30
0.0
 10
20.282094
 20
14.840435
 30
0.0
 10
15.050366
 20
14.840435
 30
0.0
 10
13.880416
 20
13.670482
 30
0.0
  0
SPLINE
  5
18d
100
AcDbEntity
  8
Layer_1
 62
7
100
AcDbSpline
 70
8
 71
3
 72
8
 73
4
 74
0
 40
0
 40
0
 40
0
 40
0
 40
1
 40
1
 40
1
 40
1
 10
5.876768
 20
5.666838
 30
0.0
 10
5.875768
 20
7.185788
 30
0.0
 10
5.875768
 20
8.704705
 30
0.0
 10
5.874768
 20
10.223665
 30
0.0
  0
LWPOLYLINE
  5
18e
100
AcDbEntity
  8
Layer_1
 62
7
100
AcDbPolyline
 90
2
 70
0
 10
11.525007
 20
11.315070
 30
0.0
 10
5.876768
 20
5.666838
 30
0.0
  0
SPLINE
  5
18f
100
AcDbEntity
  8
Layer_1
 62
7
100
AcDbSpline
 70
8
 71
3
 72
8
 73
4
 74
0
 40
0
 40
0
 40
0
 40
0
 40
1
 40
1
 40
1
 40
1
 10
5.848968
 20
10.223665
 30
0.0
 10
5.383608
 20
10.223665
 30
0.0
 10
5.008709
 20
10.598564
 30
0.0
 10
5.008709
 20
11.063924
 30
0.0
  0
LWPOLYLINE
  5
190
100
AcDbEntity
  8
Layer_1
 62
7
100
AcDbPolyline
 90
2
 70
0
 10
5.874768
 20
10.223665
 30
0.0
 10
5.848968
 20
10.223665
 30
0.0
  0
SPLINE
  5
191
100
AcDbEntity
  8
Layer_1
 62
7
100
AcDbSpline
 70
8
 71
3
 72
8
 73
4
 74
0
 40
0
 40
0
 40
0
 40
0
 40
1
 40
1
 40
1
 40
1
 10
5.008709
 20
12.983702
 30
0.0
 10
5.008709
 20
13.449062
 30
0.0
 10
5.383608
 20
13.823961
 30
0.0
 10
5.848968
 20
13.823961
 30
0.0
  0
LWPOLYLINE
  5
192
100
AcDbEntity
  8
Layer_1
 62
7
100
AcDbPolyline
 90
2
 70
0
 10
5.008709
 20
11.063924
 30
0.0
 10
5.008709
 20
12.983702
 30
0.0
  0
SPLINE
  5
193
100
AcDbEntity
  8
Layer_1
 62
7
100
AcDbSpline
 70
8
 71
3
 72
8
 73
4
 74
0
 40
0
 40
0
 40
0
 40
0
 40
1
 40
1
 40
1
 40
1
 10
7.768748
 20
13.823961
 30
0.0
 10
8.041568
 20
13.823961
 30
0.0
 10
8.281088
 20
13.693032
 30
0.0
 10
8.434338
 20
13.492715
 30
0.0
  0
LWPOLYLINE
  5
194
100
AcDbEntity
  8
Layer_1
 62
7
100
AcDbPolyline
 90
2
 70
0
 10
5.848968
 20
13.823961
 30
0.0
 10
7.768748
 20
13.823961
 30
0.0
  0
SPLINE
  5
195
100
AcDbEntity
  8
Layer_1
 62
7
100
AcDbSpline
 70
8
 71
3
 72
8
 73
4
 74
0
 40
0
 40
0
 40
0
 40
0
 40
1
 40
1
 40
1
 40
1
 10
2.684819
 20
14.840435
 30
0.0
 10
2.476009
 20
14.840435
 30
0.0
 10
2.292939
 20
14.938516
 30
0.0
 10
2.172189
 20
15.088999
 30
0.0
  0
LWPOLYLINE
  5
196
100
AcDbEntity
  8
Layer_1
 62
7
100
AcDbPolyline
 90
3
 70
0
 10
8.434338
 20
13.492715
 30
0.0
 10
9.782067
 20
14.840435
 30
0.0
 10
2.684819
 20
14.840435
 30
0.0
  0
SPLINE
  5
197
100
AcDbEntity
  8
Layer_1
 62
7
100
AcDbSpline
 70
8
 71
3
 72
8
 73
4
 74
0
 40
0
 40
0
 40
0
 40
0
 40
1
 40
1
 40
1
 40
1
 10
34.084970
 20
1.984894
 30
0.0
 10
34.091215
 20
2.136206
 30
0.0
 10
34.110926
 20
2.286661
 30
0.0
 10
34.143870
 20
2.434474
 30
0.0
  0
SPLINE
  5
198
100
AcDbEntity
  8
Layer_1
 62
7
100
AcDbSpline
 70
8
 71
3
 72
8
 73
4
 74
0
 40
0
 40
0
 40
0
 40
0
 40
1
 40
1
 40
1
 40
1
 10
34.143870
 20
2.434474
 30
0.0
 10
34.336462
 20
3.471936
 30
0.0
 10
35.148140
 20
4.283617
 30
0.0
 10
36.185600
 20
4.476213
 30
0.0
  0
SPLINE
  5
199
100
AcDbEntity
  8
Layer_1
 62
7
100
AcDbSpline
 70
8
 71
3
 72
8
 73
4
 74
0
 40
0
 40
0
 40
0
 40
0
 40
1
 40
1
 40
1
 40
1
 10
36.185600
 20
4.476213
 30
0.0
 10
36.333246
 20
4.509131
 30
0.0
 10
36.483529
 20
4.528846
 30
0.0
 10
36.634670
 20
4.535124
 30
0.0
  0
SPLINE
  5
19a
100
AcDbEntity
  8
Layer_1
 62
7
100
AcDbSpline
 70
8
 71
3
 72
8
 73
4
 74
0
 40
0
 40
0
 40
0
 40
0
 40
1
 40
1
 40
1
 40
1
 10
36.634670
 20
4.535124
 30
0.0
 10
36.885755
 20
4.535117
 30
0.0
 10
37.135462
 20
4.498027
 30
0.0
 10
37.375709
 20
4.425053
 30
0.0
  0
SPLINE
  5
19b
100
AcDbEntity
  8
Layer_1
 62
7
100
AcDbSpline
 70
8
 71
3
 72
8
 73
4
 74
0
 40
0
 40
0
 40
0
 40
0
 40
1
 40
1
 40
1
 40
1
 10
37.375709
 20
4.425053
 30
0.0
 10
37.615931
 20
4.351995
 30
0.0
 10
37.844046
 20
4.243859
 30
0.0
 10
38.052669
 20
4.104144
 30
0.0
  0
SPLINE
  5
19c
100
AcDbEntity
  8
Layer_1
 62
7
100
AcDbSpline
 70
8
 71
3
 72
8
 73
4
 74
0
 40
0
 40
0
 40
0
 40
0
 40
1
 40
1
 40
1
 40
1
 10
38.052669
 20
4.104144
 30
0.0
 10
38.472285
 20
3.823303
 30
0.0
 10
38.799081
 20
3.424210
 30
0.0
 10
38.991639
 20
2.957444
 30
0.0
  0
SPLINE
  5
19d
100
AcDbEntity
  8
Layer_1
 62
7
100
AcDbSpline
 70
8
 71
3
 72
8
 73
4
 74
0
 40
0
 40
0
 40
0
 40
0
 40
1
 40
1
 40
1
 40
1
 10
38.991639
 20
2.957444
 30
0.0
 10
39.087397
 20
2.725308
 30
0.0
 10
39.148341
 20
2.480301
 30
0.0
 10
39.172499
 20
2.230354
 30
0.0
  0
SPLINE
  5
19e
100
AcDbEntity
  8
Layer_1
 62
7
100
AcDbSpline
 70
8
 71
3
 72
8
 73
4
 74
0
 40
0
 40
0
 40
0
 40
0
 40
1
 40
1
 40
1
 40
1
 10
39.172499
 20
2.230354
 30
0.0
 10
39.180575
 20
2.148781
 30
0.0
 10
39.184713
 20
2.066866
 30
0.0
 10
39.184899
 20
1.984894
 30
0.0
  0
LWPOLYLINE
  5
19f
100
AcDbEntity
  8
Layer_1
 62
7
100
AcDbPolyline
 90
13
 70
0
 10
2.172189
 20
15.088999
 30
0.0
 10
2.172189
 20
12.462287
 30
0.0
 10
2.172189
 20
7.230050
 30
0.0
 10
2.172189
 20
1.962154
 30
0.0
 10
2.172189
 20
0.000005
 30
0.0
 10
5.442278
 20
0.000005
 30
0.0
 10
10.709657
 20
0.000005
 30
0.0
 10
15.942415
 20
0.000005
 30
0.0
 10
21.209784
 20
0.000005
 30
0.0
 10
26.442543
 20
0.000005
 30
0.0
 10
31.709401
 20
0.000005
 30
0.0
 10
34.084970
 20
0.000005
 30
0.0
 10
34.084970
 20
1.984894
 30
0.0
  0
SPLINE
  5
1a0
100
AcDbEntity
  8
Layer_1
 62
7
100
AcDbSpline
 70
8
 71
3
 72
8
 73
4
 74
0
 40
0
 40
0
 40
0
 40
0
 40
1
 40
1
 40
1
 40
1
 10
40.454589
 20
93.980802
 30
0.0
 10
40.454717
 20
92.572499
 30
0.0
 10
39.313182
 20
91.430730
 30
0.0
 10
37.904879
 20
91.430571
 30
0.0
  0
SPLINE
  5
1a1
100
AcDbEntity
  8
Layer_1
 62
7
100
AcDbSpline
 70
8
 71
3
 72
8
 73
4
 74
0
 40
0
 40
0
 40
0
 40
0
 40
1
 40
1
 40
1
 40
1
 10
37.904879
 20
91.430571
 30
0.0
 10
36.846516
 20
91.439458
 30
0.0
 10
35.903662
 20
92.101206
 30
0.0
 10
35.535520
 20
93.093519
 30
0.0
  0
LWPOLYLINE
  5
1a2
100
AcDbEntity
  8
Layer_1
 62
7
100
AcDbPolyline
 90
26
 70
0
 10
39.184899
 20
1.984894
 30
0.0
 10
39.184899
 20
0.000005
 30
0.0
 10
42.209528
 20
0.000005
 30
0.0
 10
46.844897
 20
0.000005
 30
0.0
 10
46.844897
 20
4.635893
 30
0.0
 10
46.844897
 20
9.903271
 30
0.0
 10
46.844897
 20
15.136024
 30
0.0
 10
46.844897
 20
20.402885
 30
0.0
 10
46.844897
 20
25.635640
 30
0.0
 10
46.844897
 20
30.903017
 30
0.0
 10
46.844897
 20
36.135771
 30
0.0
 10
46.844897
 20
41.403148
 30
0.0
 10
46.844897
 20
46.635902
 30
0.0
 10
46.844897
 20
51.903279
 30
0.0
 10
46.844897
 20
57.136034
 30
0.0
 10
46.844897
 20
62.402894
 30
0.0
 10
46.844897
 20
67.635648
 30
0.0
 10
46.844897
 20
72.903025
 30
0.0
 10
46.844897
 20
78.135780
 30
0.0
 10
46.844897
 20
83.403156
 30
0.0
 10
46.844897
 20
88.635911
 30
0.0
 10
46.844897
 20
93.903287
 30
0.0
 10
46.844897
 20
95.350744
 30
0.0
 10
43.060118
 20
95.350744
 30
0.0
 10
40.454589
 20
95.350744
 30
0.0
 10
40.454589
 20
93.980802
 30
0.0
  0
SPLINE
  5
1a3
100
AcDbEntity
  8
Layer_1
 62
7
100
AcDbSpline
 70
8
 71
3
 72
8
 73
4
 74
0
 40
0
 40
0
 40
0
 40
0
 40
1
 40
1
 40
1
 40
1
 10
35.535520
 20
93.094036
 30
0.0
 10
35.487316
 20
93.218477
 30
0.0
 10
35.448954
 20
93.346511
 30
0.0
 10
35.420790
 20
93.476958
 30
0.0
  0
SPLINE
  5
1a4
100
AcDbEntity
  8
Layer_1
 62
7
100
AcDbSpline
 70
8
 71
3
 72
8
 73
4
 74
0
 40
0
 40
0
 40
0
 40
0
 40
1
 40
1
 40
1
 40
1
 10
35.420790
 20
93.476958
 30
0.0
 10
35.382036
 20
93.642286
 30
0.0
 10
35.359892
 20
93.811072
 30
0.0
 10
35.354690
 20
93.980802
 30
0.0
  0
LWPOLYLINE
  5
1a5
100
AcDbEntity
  8
Layer_1
 62
7
100
AcDbPolyline
 90
2
 70
0
 10
35.535520
 20
93.093519
 30
0.0
 10
35.535520
 20
93.094036
 30
0.0
  0
SPLINE
  5
1a6
100
AcDbEntity
  8
Layer_1
 62
7
100
AcDbSpline
 70
8
 71
3
 72
8
 73
4
 74
0
 40
0
 40
0
 40
0
 40
0
 40
1
 40
1
 40
1
 40
1
 10
7.730368
 20
92.971972
 30
0.0
 10
8.558725
 20
92.972066
 30
0.0
 10
9.230345
 20
92.300678
 30
0.0
 10
9.230537
 20
91.472321
 30
0.0
  0
SPLINE
  5
1a7
100
AcDbEntity
  8
Layer_1
 62
7
100
AcDbSpline
 70
8
 71
3
 72
8
 73
4
 74
0
 40
0
 40
0
 40
0
 40
0
 40
1
 40
1
 40
1
 40
1
 10
9.230537
 20
91.472321
 30
0.0
 10
9.230582
 20
91.074438
 30
0.0
 10
9.072542
 20
90.692839
 30
0.0
 10
8.791196
 20
90.411494
 30
0.0
  0
SPLINE
  5
1a8
100
AcDbEntity
  8
Layer_1
 62
7
100
AcDbSpline
 70
8
 71
3
 72
8
 73
4
 74
0
 40
0
 40
0
 40
0
 40
0
 40
1
 40
1
 40
1
 40
1
 10
8.791196
 20
90.411494
 30
0.0
 10
8.509850
 20
90.130148
 30
0.0
 10
8.128251
 20
89.972110
 30
0.0
 10
7.730368
 20
89.972156
 30
0.0
  0
SPLINE
  5
1a9
100
AcDbEntity
  8
Layer_1
 62
7
100
AcDbSpline
 70
8
 71
3
 72
8
 73
4
 74
0
 40
0
 40
0
 40
0
 40
0
 40
1
 40
1
 40
1
 40
1
 10
7.730368
 20
89.972156
 30
0.0
 10
7.322997
 20
89.978923
 30
0.0
 10
6.935904
 20
90.151110
 30
0.0
 10
6.658088
 20
90.449128
 30
0.0
  0
LWPOLYLINE
  5
1aa
100
AcDbEntity
  8
Layer_1
 62
7
100
AcDbPolyline
 90
8
 70
0
 10
35.354690
 20
93.980802
 30
0.0
 10
35.354690
 20
95.350744
 30
0.0
 10
32.560031
 20
95.350744
 30
0.0
 10
27.292652
 20
95.350744
 30
0.0
 10
22.059894
 20
95.350744
 30
0.0
 10
16.792515
 20
95.350744
 30
0.0
 10
11.559767
 20
95.350744
 30
0.0
 10
2.645929
 20
95.351153
 30
0.0
  0
SPLINE
  5
1ab
100
AcDbEntity
  8
Layer_1
 62
7
100
AcDbSpline
 70
8
 71
3
 72
8
 73
4
 74
0
 40
0
 40
0
 40
0
 40
0
 40
1
 40
1
 40
1
 40
1
 10
6.352678
 20
90.143720
 30
0.0
 10
6.352208
 20
90.400879
 30
0.0
 10
6.351678
 20
90.658077
 30
0.0
 10
6.350678
 20
90.915250
 30
0.0
  0
SPLINE
  5
1ac
100
AcDbEntity
  8
Layer_1
 62
7
100
AcDbSpline
 70
8
 71
3
 72
8
 73
4
 74
0
 40
0
 40
0
 40
0
 40
0
 40
1
 40
1
 40
1
 40
1
 10
6.350678
 20
90.915250
 30
0.0
 10
6.275134
 20
91.091504
 30
0.0
 10
6.234086
 20
91.280609
 30
0.0
 10
6.229758
 20
91.472321
 30
0.0
  0
SPLINE
  5
1ad
100
AcDbEntity
  8
Layer_1
 62
7
100
AcDbSpline
 70
8
 71
3
 72
8
 73
4
 74
0
 40
0
 40
0
 40
0
 40
0
 40
1
 40
1
 40
1
 40
1
 10
6.229758
 20
91.472321
 30
0.0
 10
6.229951
 20
92.300674
 30
0.0
 10
6.901565
 20
92.972060
 30
0.0
 10
7.729918
 20
92.971972
 30
0.0
  0
LWPOLYLINE
  5
1ae
100
AcDbEntity
  8
Layer_1
 62
7
100
AcDbPolyline
 90
2
 70
0
 10
6.658088
 20
90.449128
 30
0.0
 10
6.352678
 20
90.143720
 30
0.0
  0
SPLINE
  5
1af
100
AcDbEntity
  8
Layer_1
 62
7
100
AcDbSpline
 70
8
 71
3
 72
8
 73
4
 74
0
 40
0
 40
0
 40
0
 40
0
 40
1
 40
1
 40
1
 40
1
 10
12.330087
 20
92.971972
 30
0.0
 10
13.085024
 20
92.963301
 30
0.0
 10
13.715867
 20
92.394879
 30
0.0
 10
13.802866
 20
91.644921
 30
0.0
  0
LWPOLYLINE
  5
1b0
100
AcDbEntity
  8
Layer_1
 62
7
100
AcDbPolyline
 90
2
 70
0
 10
7.729918
 20
92.971972
 30
0.0
 10
7.730368
 20
92.971972
 30
0.0
  0
SPLINE
  5
1b1
100
AcDbEntity
  8
Layer_1
 62
7
100
AcDbSpline
 70
8
 71
3
 72
8
 73
4
 74
0
 40
0
 40
0
 40
0
 40
0
 40
1
 40
1
 40
1
 40
1
 10
6.396608
 20
79.686997
 30
0.0
 10
6.351508
 20
81.425391
 30
0.0
 10
6.341508
 20
83.164140
 30
0.0
 10
6.344908
 20
84.903215
 30
0.0
  0
LWPOLYLINE
  5
1b2
100
AcDbEntity
  8
Layer_1
 62
7
100
AcDbPolyline
 90
3
 70
0
 10
13.802866
 20
91.644921
 30
0.0
 10
18.354015
 20
91.644921
 30
0.0
 10
6.396608
 20
79.686997
 30
0.0
  0
SPLINE
  5
1b3
100
AcDbEntity
  8
Layer_1
 62
7
100
AcDbSpline
 70
8
 71
3
 72
8
 73
4
 74
0
 40
0
 40
0
 40
0
 40
0
 40
1
 40
1
 40
1
 40
1
 10
11.615387
 20
90.173693
 30
0.0
 10
11.137925
 20
90.432539
 30
0.0
 10
10.837678
 20
90.929258
 30
0.0
 10
10.830417
 20
91.472321
 30
0.0
  0
SPLINE
  5
1b4
100
AcDbEntity
  8
Layer_1
 62
7
100
AcDbSpline
 70
8
 71
3
 72
8
 73
4
 74
0
 40
0
 40
0
 40
0
 40
0
 40
1
 40
1
 40
1
 40
1
 10
10.830417
 20
91.472321
 30
0.0
 10
10.830609
 20
92.300475
 30
0.0
 10
11.501912
 20
92.971779
 30
0.0
 10
12.330067
 20
92.971972
 30
0.0
  0
LWPOLYLINE
  5
1b5
100
AcDbEntity
  8
Layer_1
 62
7
100
AcDbPolyline
 90
2
 70
0
 10
6.344908
 20
84.903215
 30
0.0
 10
11.615387
 20
90.173693
 30
0.0
  0
SPLINE
  5
1b6
100
AcDbEntity
  8
Layer_1
 62
7
100
AcDbSpline
 70
8
 71
3
 72
8
 73
4
 74
0
 40
0
 40
0
 40
0
 40
0
 40
1
 40
1
 40
1
 40
1
 10
23.630173
 20
92.971972
 30
0.0
 10
24.385111
 20
92.963301
 30
0.0
 10
25.015953
 20
92.394879
 30
0.0
 10
25.102953
 20
91.644921
 30
0.0
  0
LWPOLYLINE
  5
1b7
100
AcDbEntity
  8
Layer_1
 62
7
100
AcDbPolyline
 90
1
 70
1
 10
12.330067
 20
92.971972
 30
0.0
  0
SPLINE
  5
1b8
100
AcDbEntity
  8
Layer_1
 62
7
100
AcDbSpline
 70
8
 71
3
 72
8
 73
4
 74
0
 40
0
 40
0
 40
0
 40
0
 40
1
 40
1
 40
1
 40
1
 10
26.757632
 20
91.644921
 30
0.0
 10
26.844632
 20
92.394879
 30
0.0
 10
27.475474
 20
92.963301
 30
0.0
 10
28.230412
 20
92.971972
 30
0.0
  0
SPLINE
  5
1b9
100
AcDbEntity
  8
Layer_1
 62
7
100
AcDbSpline
 70
8
 71
3
 72
8
 73
4
 74
0
 40
0
 40
0
 40
0
 40
0
 40
1
 40
1
 40
1
 40
1
 10
28.230412
 20
92.971972
 30
0.0
 10
29.058765
 20
92.972060
 30
0.0
 10
29.730379
 20
92.300674
 30
0.0
 10
29.730572
 20
91.472321
 30
0.0
  0
SPLINE
  5
1ba
100
AcDbEntity
  8
Layer_1
 62
7
100
AcDbSpline
 70
8
 71
3
 72
8
 73
4
 74
0
 40
0
 40
0
 40
0
 40
0
 40
1
 40
1
 40
1
 40
1
 10
29.730572
 20
91.472321
 30
0.0
 10
29.730616
 20
91.074440
 30
0.0
 10
29.572578
 20
90.692842
 30
0.0
 10
29.291234
 20
90.411497
 30
0.0
  0
SPLINE
  5
1bb
100
AcDbEntity
  8
Layer_1
 62
7
100
AcDbSpline
 70
8
 71
3
 72
8
 73
4
 74
0
 40
0
 40
0
 40
0
 40
0
 40
1
 40
1
 40
1
 40
1
 10
29.291234
 20
90.411497
 30
0.0
 10
29.009890
 20
90.130152
 30
0.0
 10
28.628293
 20
89.972113
 30
0.0
 10
28.230412
 20
89.972156
 30
0.0
  0
SPLINE
  5
1bc
100
AcDbEntity
  8
Layer_1
 62
7
100
AcDbSpline
 70
8
 71
3
 72
8
 73
4
 74
0
 40
0
 40
0
 40
0
 40
0
 40
1
 40
1
 40
1
 40
1
 10
28.230412
 20
89.972156
 30
0.0
 10
27.944767
 20
89.976006
 30
0.0
 10
27.666161
 20
90.061345
 30
0.0
 10
27.427362
 20
90.218134
 30
0.0
  0
LWPOLYLINE
  5
1bd
100
AcDbEntity
  8
Layer_1
 62
7
100
AcDbPolyline
 90
2
 70
0
 10
25.102953
 20
91.644921
 30
0.0
 10
26.757632
 20
91.644921
 30
0.0
  0
SPLINE
  5
1be
100
AcDbEntity
  8
Layer_1
 62
7
100
AcDbSpline
 70
8
 71
3
 72
8
 73
4
 74
0
 40
0
 40
0
 40
0
 40
0
 40
1
 40
1
 40
1
 40
1
 10
11.960607
 20
74.751383
 30
0.0
 10
11.322567
 20
75.836017
 30
0.0
 10
10.435797
 20
76.773862
 30
0.0
 10
9.381947
 20
77.440107
 30
0.0
  0
LWPOLYLINE
  5
1bf
100
AcDbEntity
  8
Layer_1
 62
7
100
AcDbPolyline
 90
2
 70
0
 10
27.427362
 20
90.218134
 30
0.0
 10
11.960607
 20
74.751383
 30
0.0
  0
SPLINE
  5
1c0
100
AcDbEntity
  8
Layer_1
 62
7
100
AcDbSpline
 70
8
 71
3
 72
8
 73
4
 74
0
 40
0
 40
0
 40
0
 40
0
 40
1
 40
1
 40
1
 40
1
 10
22.474174
 20
90.532327
 30
0.0
 10
22.255387
 20
90.797076
 30
0.0
 10
22.134081
 20
91.128888
 30
0.0
 10
22.130524
 20
91.472321
 30
0.0
  0
SPLINE
  5
1c1
100
AcDbEntity
  8
Layer_1
 62
7
100
AcDbSpline
 70
8
 71
3
 72
8
 73
4
 74
0
 40
0
 40
0
 40
0
 40
0
 40
1
 40
1
 40
1
 40
1
 10
22.130524
 20
91.472321
 30
0.0
 10
22.130716
 20
92.300475
 30
0.0
 10
22.802019
 20
92.971779
 30
0.0
 10
23.630173
 20
92.971972
 30
0.0
  0
LWPOLYLINE
  5
1c2
100
AcDbEntity
  8
Layer_1
 62
7
100
AcDbPolyline
 90
2
 70
0
 10
9.381947
 20
77.440107
 30
0.0
 10
22.474174
 20
90.532327
 30
0.0
  0
SPLINE
  5
1c3
100
AcDbEntity
  8
Layer_1
 62
7
100
AcDbSpline
 70
8
 71
3
 72
8
 73
4
 74
0
 40
0
 40
0
 40
0
 40
0
 40
1
 40
1
 40
1
 40
1
 10
32.831161
 20
90.389183
 30
0.0
 10
33.534141
 20
89.434161
 30
0.0
 10
34.494260
 20
88.667730
 30
0.0
 10
35.590680
 20
88.213607
 30
0.0
  0
SPLINE
  5
1c4
100
AcDbEntity
  8
Layer_1
 62
7
100
AcDbSpline
 70
8
 71
3
 72
8
 73
4
 74
0
 40
0
 40
0
 40
0
 40
0
 40
1
 40
1
 40
1
 40
1
 10
35.590680
 20
88.213607
 30
0.0
 10
35.667280
 20
88.177687
 30
0.0
 10
35.744540
 20
88.144727
 30
0.0
 10
35.822190
 20
88.112838
 30
0.0
  0
LWPOLYLINE
  5
1c5
100
AcDbEntity
  8
Layer_1
 62
7
100
AcDbPolyline
 90
1
 70
1
 10
23.630173
 20
92.971972
 30
0.0
  0
SPLINE
  5
1c6
100
AcDbEntity
  8
Layer_1
 62
7
100
AcDbSpline
 70
8
 71
3
 72
8
 73
4
 74
0
 40
0
 40
0
 40
0
 40
0
 40
1
 40
1
 40
1
 40
1
 10
13.047876
 20
65.338523
 30
0.0
 10
13.048806
 20
65.901753
 30
0.0
 10
13.039876
 20
66.463201
 30
0.0
 10
13.039876
 20
67.016457
 30
0.0
  0
SPLINE
  5
1c7
100
AcDbEntity
  8
Layer_1
 62
7
100
AcDbSpline
 70
8
 71
3
 72
8
 73
4
 74
0
 40
0
 40
0
 40
0
 40
0
 40
1
 40
1
 40
1
 40
1
 10
13.039876
 20
67.016457
 30
0.0
 10
12.941276
 20
68.223377
 30
0.0
 10
13.098576
 20
69.433319
 30
0.0
 10
13.079676
 20
70.637423
 30
0.0
  0
LWPOLYLINE
  5
1c8
100
AcDbEntity
  8
Layer_1
 62
7
100
AcDbPolyline
 90
2
 70
0
 10
35.822190
 20
88.112838
 30
0.0
 10
13.047876
 20
65.338523
 30
0.0
  0
SPLINE
  5
1c9
100
AcDbEntity
  8
Layer_1
 62
7
100
AcDbSpline
 70
8
 71
3
 72
8
 73
4
 74
0
 40
0
 40
0
 40
0
 40
0
 40
1
 40
1
 40
1
 40
1
 10
25.942463
 20
83.500200
 30
0.0
 10
25.913220
 20
83.497607
 30
0.0
 10
25.883907
 20
83.495873
 30
0.0
 10
25.854563
 20
83.495000
 30
0.0
  0
SPLINE
  5
1ca
100
AcDbEntity
  8
Layer_1
 62
7
100
AcDbSpline
 70
8
 71
3
 72
8
 73
4
 74
0
 40
0
 40
0
 40
0
 40
0
 40
1
 40
1
 40
1
 40
1
 10
25.854563
 20
83.495000
 30
0.0
 10
25.456680
 20
83.494955
 30
0.0
 10
25.075080
 20
83.652993
 30
0.0
 10
24.793734
 20
83.934338
 30
0.0
  0
SPLINE
  5
1cb
100
AcDbEntity
  8
Layer_1
 62
7
100
AcDbSpline
 70
8
 71
3
 72
8
 73
4
 74
0
 40
0
 40
0
 40
0
 40
0
 40
1
 40
1
 40
1
 40
1
 10
24.793734
 20
83.934338
 30
0.0
 10
24.512388
 20
84.215684
 30
0.0
 10
24.354349
 20
84.597283
 30
0.0
 10
24.354393
 20
84.995166
 30
0.0
  0
SPLINE
  5
1cc
100
AcDbEntity
  8
Layer_1
 62
7
100
AcDbSpline
 70
8
 71
3
 72
8
 73
4
 74
0
 40
0
 40
0
 40
0
 40
0
 40
1
 40
1
 40
1
 40
1
 10
24.354393
 20
84.995166
 30
0.0
 10
24.354349
 20
85.393049
 30
0.0
 10
24.512388
 20
85.774648
 30
0.0
 10
24.793734
 20
86.055994
 30
0.0
  0
SPLINE
  5
1cd
100
AcDbEntity
  8
Layer_1
 62
7
100
AcDbSpline
 70
8
 71
3
 72
8
 73
4
 74
0
 40
0
 40
0
 40
0
 40
0
 40
1
 40
1
 40
1
 40
1
 10
24.793734
 20
86.055994
 30
0.0
 10
25.075080
 20
86.337340
 30
0.0
 10
25.456680
 20
86.495378
 30
0.0
 10
25.854563
 20
86.495333
 30
0.0
  0
SPLINE
  5
1ce
100
AcDbEntity
  8
Layer_1
 62
7
100
AcDbSpline
 70
8
 71
3
 72
8
 73
4
 74
0
 40
0
 40
0
 40
0
 40
0
 40
1
 40
1
 40
1
 40
1
 10
25.854563
 20
86.495333
 30
0.0
 10
26.252444
 20
86.495375
 30
0.0
 10
26.634041
 20
86.337336
 30
0.0
 10
26.915385
 20
86.055990
 30
0.0
  0
SPLINE
  5
1cf
100
AcDbEntity
  8
Layer_1
 62
7
100
AcDbSpline
 70
8
 71
3
 72
8
 73
4
 74
0
 40
0
 40
0
 40
0
 40
0
 40
1
 40
1
 40
1
 40
1
 10
26.915385
 20
86.055990
 30
0.0
 10
27.196729
 20
85.774645
 30
0.0
 10
27.354767
 20
85.393047
 30
0.0
 10
27.354722
 20
84.995166
 30
0.0
  0
SPLINE
  5
1d0
100
AcDbEntity
  8
Layer_1
 62
7
100
AcDbSpline
 70
8
 71
3
 72
8
 73
4
 74
0
 40
0
 40
0
 40
0
 40
0
 40
1
 40
1
 40
1
 40
1
 10
27.354722
 20
84.995166
 30
0.0
 10
27.353915
 20
84.965840
 30
0.0
 10
27.352248
 20
84.936544
 30
0.0
 10
27.349722
 20
84.907316
 30
0.0
  0
LWPOLYLINE
  5
1d1
100
AcDbEntity
  8
Layer_1
 62
7
100
AcDbPolyline
 90
2
 70
0
 10
13.079676
 20
70.637423
 30
0.0
 10
25.942463
 20
83.500200
 30
0.0
  0
LWPOLYLINE
  5
1d2
100
AcDbEntity
  8
Layer_1
 62
7
100
AcDbPolyline
 90
2
 70
0
 10
27.349722
 20
84.907316
 30
0.0
 10
32.831161
 20
90.389183
 30
0.0
  0
SPLINE
  5
1d3
100
AcDbEntity
  8
Layer_1
 62
7
100
AcDbSpline
 70
8
 71
3
 72
8
 73
4
 74
0
 40
0
 40
0
 40
0
 40
0
 40
1
 40
1
 40
1
 40
1
 10
39.099509
 20
80.890541
 30
0.0
 10
39.147409
 20
80.761916
 30
0.0
 10
39.177509
 20
80.624188
 30
0.0
 10
39.177509
 20
80.478680
 30
0.0
  0
SPLINE
  5
1d4
100
AcDbEntity
  8
Layer_1
 62
7
100
AcDbSpline
 70
8
 71
3
 72
8
 73
4
 74
0
 40
0
 40
0
 40
0
 40
0
 40
1
 40
1
 40
1
 40
1
 10
39.177509
 20
80.478680
 30
0.0
 10
39.177509
 20
79.820529
 30
0.0
 10
38.642389
 20
79.290640
 30
0.0
 10
37.977589
 20
79.290640
 30
0.0
  0
LWPOLYLINE
  5
1d5
100
AcDbEntity
  8
Layer_1
 62
7
100
AcDbPolyline
 90
3
 70
0
 10
43.141128
 20
90.199531
 30
0.0
 10
43.141128
 20
84.932154
 30
0.0
 10
39.099509
 20
80.890541
 30
0.0
  0
SPLINE
  5
1d6
100
AcDbEntity
  8
Layer_1
 62
7
100
AcDbSpline
 70
8
 71
3
 72
8
 73
4
 74
0
 40
0
 40
0
 40
0
 40
0
 40
1
 40
1
 40
1
 40
1
 10
12.149707
 20
53.940773
 30
0.0
 10
11.581197
 20
55.068695
 30
0.0
 10
10.763157
 20
56.058515
 30
0.0
 10
9.717817
 20
56.776258
 30
0.0
  0
LWPOLYLINE
  5
1d7
100
AcDbEntity
  8
Layer_1
 62
7
100
AcDbPolyline
 90
3
 70
0
 10
37.977589
 20
79.290640
 30
0.0
 10
37.499579
 20
79.290640
 30
0.0
 10
12.149707
 20
53.940773
 30
0.0
  0
SPLINE
  5
1d8
100
AcDbEntity
  8
Layer_1
 62
7
100
AcDbSpline
 70
8
 71
3
 72
8
 73
4
 74
0
 40
0
 40
0
 40
0
 40
0
 40
1
 40
1
 40
1
 40
1
 10
15.350036
 20
62.408470
 30
0.0
 10
15.225401
 20
62.649459
 30
0.0
 10
15.156856
 20
62.915505
 30
0.0
 10
15.149526
 20
63.186717
 30
0.0
  0
SPLINE
  5
1d9
100
AcDbEntity
  8
Layer_1
 62
7
100
AcDbSpline
 70
8
 71
3
 72
8
 73
4
 74
0
 40
0
 40
0
 40
0
 40
0
 40
1
 40
1
 40
1
 40
1
 10
15.149526
 20
63.186717
 30
0.0
 10
15.149586
 20
64.180744
 30
0.0
 10
15.955388
 20
64.986547
 30
0.0
 10
16.949415
 20
64.986608
 30
0.0
  0
SPLINE
  5
1da
100
AcDbEntity
  8
Layer_1
 62
7
100
AcDbSpline
 70
8
 71
3
 72
8
 73
4
 74
0
 40
0
 40
0
 40
0
 40
0
 40
1
 40
1
 40
1
 40
1
 10
16.949415
 20
64.986608
 30
0.0
 10
17.224532
 20
64.986201
 30
0.0
 10
17.495894
 20
64.922736
 30
0.0
 10
17.742655
 20
64.801089
 30
0.0
  0
LWPOLYLINE
  5
1db
100
AcDbEntity
  8
Layer_1
 62
7
100
AcDbPolyline
 90
2
 70
0
 10
9.717817
 20
56.776258
 30
0.0
 10
15.350036
 20
62.408470
 30
0.0
  0
SPLINE
  5
1dc
100
AcDbEntity
  8
Layer_1
 62
7
100
AcDbSpline
 70
8
 71
3
 72
8
 73
4
 74
0
 40
0
 40
0
 40
0
 40
0
 40
1
 40
1
 40
1
 40
1
 10
35.625790
 20
84.290850
 30
0.0
 10
34.960990
 20
84.290850
 30
0.0
 10
34.425870
 20
84.820739
 30
0.0
 10
34.425870
 20
85.478891
 30
0.0
  0
SPLINE
  5
1dd
100
AcDbEntity
  8
Layer_1
 62
7
100
AcDbSpline
 70
8
 71
3
 72
8
 73
4
 74
0
 40
0
 40
0
 40
0
 40
0
 40
1
 40
1
 40
1
 40
1
 10
34.425870
 20
85.478891
 30
0.0
 10
34.425870
 20
86.137042
 30
0.0
 10
34.960990
 20
86.666931
 30
0.0
 10
35.625790
 20
86.666931
 30
0.0
  0
LWPOLYLINE
  5
1de
100
AcDbEntity
  8
Layer_1
 62
7
100
AcDbPolyline
 90
3
 70
0
 10
17.742655
 20
64.801089
 30
0.0
 10
37.232409
 20
84.290850
 30
0.0
 10
35.625790
 20
84.290850
 30
0.0
  0
SPLINE
  5
1df
100
AcDbEntity
  8
Layer_1
 62
7
100
AcDbSpline
 70
8
 71
3
 72
8
 73
4
 74
0
 40
0
 40
0
 40
0
 40
0
 40
1
 40
1
 40
1
 40
1
 10
37.977589
 20
86.666931
 30
0.0
 10
38.422909
 20
86.666931
 30
0.0
 10
38.806079
 20
86.426420
 30
0.0
 10
39.013179
 20
86.071620
 30
0.0
  0
LWPOLYLINE
  5
1e0
100
AcDbEntity
  8
Layer_1
 62
7
100
AcDbPolyline
 90
2
 70
0
 10
35.625790
 20
86.666931
 30
0.0
 10
37.977589
 20
86.666931
 30
0.0
  0
LWPOLYLINE
  5
1e1
100
AcDbEntity
  8
Layer_1
 62
7
100
AcDbPolyline
 90
2
 70
0
 10
39.013179
 20
86.071620
 30
0.0
 10
43.141128
 20
90.199531
 30
0.0
  0
SPLINE
  5
1e2
100
AcDbEntity
  8
Layer_1
 62
7
100
AcDbSpline
 70
8
 71
3
 72
8
 73
4
 74
0
 40
0
 40
0
 40
0
 40
0
 40
1
 40
1
 40
1
 40
1
 10
35.337980
 20
66.628884
 30
0.0
 10
35.430580
 20
66.651424
 30
0.0
 10
35.525990
 20
66.666604
 30
0.0
 10
35.625820
 20
66.666604
 30
0.0
  0
LWPOLYLINE
  5
1e3
100
AcDbEntity
  8
Layer_1
 62
7
100
AcDbPolyline
 90
6
 70
0
 10
43.141128
 20
79.699400
 30
0.0
 10
43.141128
 20
74.432023
 30
0.0
 10
39.177539
 20
70.468442
 30
0.0
 10
39.177539
 20
69.290736
 30
0.0
 10
37.999839
 20
69.290736
 30
0.0
 10
35.337980
 20
66.628884
 30
0.0
  0
SPLINE
  5
1e4
100
AcDbEntity
  8
Layer_1
 62
7
100
AcDbSpline
 70
8
 71
3
 72
8
 73
4
 74
0
 40
0
 40
0
 40
0
 40
0
 40
1
 40
1
 40
1
 40
1
 10
37.977619
 20
66.666604
 30
0.0
 10
38.642419
 20
66.666604
 30
0.0
 10
39.177539
 20
66.136715
 30
0.0
 10
39.177539
 20
65.478563
 30
0.0
  0
SPLINE
  5
1e5
100
AcDbEntity
  8
Layer_1
 62
7
100
AcDbSpline
 70
8
 71
3
 72
8
 73
4
 74
0
 40
0
 40
0
 40
0
 40
0
 40
1
 40
1
 40
1
 40
1
 10
39.177539
 20
65.478563
 30
0.0
 10
39.177539
 20
65.381633
 30
0.0
 10
39.162739
 20
65.289075
 30
0.0
 10
39.140839
 20
65.198995
 30
0.0
  0
LWPOLYLINE
  5
1e6
100
AcDbEntity
  8
Layer_1
 62
7
100
AcDbPolyline
 90
2
 70
0
 10
35.625820
 20
66.666604
 30
0.0
 10
37.977619
 20
66.666604
 30
0.0
  0
SPLINE
  5
1e7
100
AcDbEntity
  8
Layer_1
 62
7
100
AcDbSpline
 70
8
 71
3
 72
8
 73
4
 74
0
 40
0
 40
0
 40
0
 40
0
 40
1
 40
1
 40
1
 40
1
 10
37.977609
 20
56.666701
 30
0.0
 10
38.642409
 20
56.666701
 30
0.0
 10
39.177529
 20
56.136811
 30
0.0
 10
39.177529
 20
55.478660
 30
0.0
  0
SPLINE
  5
1e8
100
AcDbEntity
  8
Layer_1
 62
7
100
AcDbSpline
 70
8
 71
3
 72
8
 73
4
 74
0
 40
0
 40
0
 40
0
 40
0
 40
1
 40
1
 40
1
 40
1
 10
39.177529
 20
55.478660
 30
0.0
 10
39.177529
 20
54.820508
 30
0.0
 10
38.642409
 20
54.290620
 30
0.0
 10
37.977609
 20
54.290620
 30
0.0
  0
LWPOLYLINE
  5
1e9
100
AcDbEntity
  8
Layer_1
 62
7
100
AcDbPolyline
 90
5
 70
0
 10
39.140839
 20
65.198995
 30
0.0
 10
43.141118
 20
69.199265
 30
0.0
 10
43.141118
 20
63.931889
 30
0.0
 10
35.875930
 20
56.666701
 30
0.0
 10
37.977609
 20
56.666701
 30
0.0
  0
SPLINE
  5
1ea
100
AcDbEntity
  8
Layer_1
 62
7
100
AcDbSpline
 70
8
 71
3
 72
8
 73
4
 74
0
 40
0
 40
0
 40
0
 40
0
 40
1
 40
1
 40
1
 40
1
 10
35.625810
 20
54.290620
 30
0.0
 10
35.043400
 20
54.290620
 30
0.0
 10
34.560930
 20
54.697629
 30
0.0
 10
34.450170
 20
55.240948
 30
0.0
  0
LWPOLYLINE
  5
1eb
100
AcDbEntity
  8
Layer_1
 62
7
100
AcDbPolyline
 90
2
 70
0
 10
37.977609
 20
54.290620
 30
0.0
 10
35.625810
 20
54.290620
 30
0.0
  0
SPLINE
  5
1ec
100
AcDbEntity
  8
Layer_1
 62
7
100
AcDbSpline
 70
8
 71
3
 72
8
 73
4
 74
0
 40
0
 40
0
 40
0
 40
0
 40
1
 40
1
 40
1
 40
1
 10
27.475412
 20
48.266182
 30
0.0
 10
27.428250
 20
47.511428
 30
0.0
 10
26.826627
 20
46.909809
 30
0.0
 10
26.071873
 20
46.862651
 30
0.0
  0
LWPOLYLINE
  5
1ed
100
AcDbEntity
  8
Layer_1
 62
7
100
AcDbPolyline
 90
2
 70
0
 10
34.450170
 20
55.240948
 30
0.0
 10
27.475412
 20
48.266182
 30
0.0
  0
SPLINE
  5
1ee
100
AcDbEntity
  8
Layer_1
 62
7
100
AcDbSpline
 70
8
 71
3
 72
8
 73
4
 74
0
 40
0
 40
0
 40
0
 40
0
 40
1
 40
1
 40
1
 40
1
 10
12.981206
 20
33.771980
 30
0.0
 10
12.833506
 20
35.143299
 30
0.0
 10
12.331987
 20
36.474507
 30
0.0
 10
11.532717
 20
37.590868
 30
0.0
  0
LWPOLYLINE
  5
1ef
100
AcDbEntity
  8
Layer_1
 62
7
100
AcDbPolyline
 90
2
 70
0
 10
26.071873
 20
46.862651
 30
0.0
 10
12.981206
 20
33.771980
 30
0.0
  0
SPLINE
  5
1f0
100
AcDbEntity
  8
Layer_1
 62
7
100
AcDbSpline
 70
8
 71
3
 72
8
 73
4
 74
0
 40
0
 40
0
 40
0
 40
0
 40
1
 40
1
 40
1
 40
1
 10
34.426400
 20
60.484555
 30
0.0
 10
34.429400
 20
61.133509
 30
0.0
 10
34.952990
 20
61.654559
 30
0.0
 10
35.606690
 20
61.664845
 30
0.0
  0
LWPOLYLINE
  5
1f1
100
AcDbEntity
  8
Layer_1
 62
7
100
AcDbPolyline
 90
2
 70
0
 10
11.532717
 20
37.590868
 30
0.0
 10
34.426400
 20
60.484555
 30
0.0
  0
SPLINE
  5
1f2
100
AcDbEntity
  8
Layer_1
 62
7
100
AcDbSpline
 70
8
 71
3
 72
8
 73
4
 74
0
 40
0
 40
0
 40
0
 40
0
 40
1
 40
1
 40
1
 40
1
 10
38.272679
 20
64.330831
 30
0.0
 10
38.177879
 20
64.307121
 30
0.0
 10
38.080089
 20
64.290521
 30
0.0
 10
37.977609
 20
64.290521
 30
0.0
  0
LWPOLYLINE
  5
1f3
100
AcDbEntity
  8
Layer_1
 62
7
100
AcDbPolyline
 90
2
 70
0
 10
35.606690
 20
61.664845
 30
0.0
 10
38.272679
 20
64.330831
 30
0.0
  0
SPLINE
  5
1f4
100
AcDbEntity
  8
Layer_1
 62
7
100
AcDbSpline
 70
8
 71
3
 72
8
 73
4
 74
0
 40
0
 40
0
 40
0
 40
0
 40
1
 40
1
 40
1
 40
1
 10
35.625810
 20
64.290521
 30
0.0
 10
34.961010
 20
64.290521
 30
0.0
 10
34.425890
 20
64.820411
 30
0.0
 10
34.425890
 20
65.478561
 30
0.0
  0
SPLINE
  5
1f5
100
AcDbEntity
  8
Layer_1
 62
7
100
AcDbSpline
 70
8
 71
3
 72
8
 73
4
 74
0
 40
0
 40
0
 40
0
 40
0
 40
1
 40
1
 40
1
 40
1
 10
34.425890
 20
65.478561
 30
0.0
 10
34.425890
 20
65.572621
 30
0.0
 10
34.439290
 20
65.663253
 30
0.0
 10
34.459990
 20
65.750896
 30
0.0
  0
LWPOLYLINE
  5
1f6
100
AcDbEntity
  8
Layer_1
 62
7
100
AcDbPolyline
 90
2
 70
0
 10
37.977609
 20
64.290521
 30
0.0
 10
35.625810
 20
64.290521
 30
0.0
  0
SPLINE
  5
1f7
100
AcDbEntity
  8
Layer_1
 62
7
100
AcDbSpline
 70
8
 71
3
 72
8
 73
4
 74
0
 40
0
 40
0
 40
0
 40
0
 40
1
 40
1
 40
1
 40
1
 10
15.987735
 20
47.278645
 30
0.0
 10
16.273856
 20
47.466034
 30
0.0
 10
16.607443
 20
47.568028
 30
0.0
 10
16.949435
 20
47.572683
 30
0.0
  0
SPLINE
  5
1f8
100
AcDbEntity
  8
Layer_1
 62
7
100
AcDbSpline
 70
8
 71
3
 72
8
 73
4
 74
0
 40
0
 40
0
 40
0
 40
0
 40
1
 40
1
 40
1
 40
1
 10
16.949435
 20
47.572683
 30
0.0
 10
17.943462
 20
47.572622
 30
0.0
 10
18.749264
 20
46.766820
 30
0.0
 10
18.749325
 20
45.772793
 30
0.0
  0
SPLINE
  5
1f9
100
AcDbEntity
  8
Layer_1
 62
7
100
AcDbSpline
 70
8
 71
3
 72
8
 73
4
 74
0
 40
0
 40
0
 40
0
 40
0
 40
1
 40
1
 40
1
 40
1
 10
18.749325
 20
45.772793
 30
0.0
 10
18.749264
 20
44.778767
 30
0.0
 10
17.943462
 20
43.972964
 30
0.0
 10
16.949435
 20
43.972904
 30
0.0
  0
SPLINE
  5
1fa
100
AcDbEntity
  8
Layer_1
 62
7
100
AcDbSpline
 70
8
 71
3
 72
8
 73
4
 74
0
 40
0
 40
0
 40
0
 40
0
 40
1
 40
1
 40
1
 40
1
 10
16.949435
 20
43.972904
 30
0.0
 10
15.955409
 20
43.972964
 30
0.0
 10
15.149606
 20
44.778767
 30
0.0
 10
15.149546
 20
45.772793
 30
0.0
  0
SPLINE
  5
1fb
100
AcDbEntity
  8
Layer_1
 62
7
100
AcDbSpline
 70
8
 71
3
 72
8
 73
4
 74
0
 40
0
 40
0
 40
0
 40
0
 40
1
 40
1
 40
1
 40
1
 10
15.149546
 20
45.772793
 30
0.0
 10
15.154258
 20
46.115013
 30
0.0
 10
15.256438
 20
46.448796
 30
0.0
 10
15.444106
 20
46.735008
 30
0.0
  0
LWPOLYLINE
  5
1fc
100
AcDbEntity
  8
Layer_1
 62
7
100
AcDbPolyline
 90
2
 70
0
 10
34.459990
 20
65.750896
 30
0.0
 10
15.987735
 20
47.278645
 30
0.0
  0
SPLINE
  5
1fd
100
AcDbEntity
  8
Layer_1
 62
7
100
AcDbSpline
 70
8
 71
3
 72
8
 73
4
 74
0
 40
0
 40
0
 40
0
 40
0
 40
1
 40
1
 40
1
 40
1
 10
12.554356
 20
43.844747
 30
0.0
 10
13.198256
 20
45.691955
 30
0.0
 10
13.066876
 20
47.710920
 30
0.0
 10
13.092306
 20
49.650592
 30
0.0
  0
LWPOLYLINE
  5
1fe
100
AcDbEntity
  8
Layer_1
 62
7
100
AcDbPolyline
 90
2
 70
0
 10
15.444106
 20
46.735008
 30
0.0
 10
12.554356
 20
43.844747
 30
0.0
  0
SPLINE
  5
1ff
100
AcDbEntity
  8
Layer_1
 62
7
100
AcDbSpline
 70
8
 71
3
 72
8
 73
4
 74
0
 40
0
 40
0
 40
0
 40
0
 40
1
 40
1
 40
1
 40
1
 10
15.242046
 20
51.800330
 30
0.0
 10
15.424948
 20
52.251955
 30
0.0
 10
15.783130
 20
52.610135
 30
0.0
 10
16.234755
 20
52.793035
 30
0.0
  0
LWPOLYLINE
  5
200
100
AcDbEntity
  8
Layer_1
 62
7
100
AcDbPolyline
 90
2
 70
0
 10
13.092306
 20
49.650592
 30
0.0
 10
15.242046
 20
51.800330
 30
0.0
  0
SPLINE
  5
201
100
AcDbEntity
  8
Layer_1
 62
7
100
AcDbSpline
 70
8
 71
3
 72
8
 73
4
 74
0
 40
0
 40
0
 40
0
 40
0
 40
1
 40
1
 40
1
 40
1
 10
26.220703
 20
62.778985
 30
0.0
 10
26.141658
 20
62.765367
 30
0.0
 10
26.061648
 20
62.758110
 30
0.0
 10
25.981443
 20
62.757285
 30
0.0
  0
SPLINE
  5
202
100
AcDbEntity
  8
Layer_1
 62
7
100
AcDbSpline
 70
8
 71
3
 72
8
 73
4
 74
0
 40
0
 40
0
 40
0
 40
0
 40
1
 40
1
 40
1
 40
1
 10
25.981443
 20
62.757285
 30
0.0
 10
25.153086
 20
62.757191
 30
0.0
 10
24.481466
 20
63.428578
 30
0.0
 10
24.481273
 20
64.256935
 30
0.0
  0
SPLINE
  5
203
100
AcDbEntity
  8
Layer_1
 62
7
100
AcDbSpline
 70
8
 71
3
 72
8
 73
4
 74
0
 40
0
 40
0
 40
0
 40
0
 40
1
 40
1
 40
1
 40
1
 10
24.481273
 20
64.256935
 30
0.0
 10
24.481229
 20
64.654818
 30
0.0
 10
24.639268
 20
65.036417
 30
0.0
 10
24.920614
 20
65.317763
 30
0.0
  0
SPLINE
  5
204
100
AcDbEntity
  8
Layer_1
 62
7
100
AcDbSpline
 70
8
 71
3
 72
8
 73
4
 74
0
 40
0
 40
0
 40
0
 40
0
 40
1
 40
1
 40
1
 40
1
 10
24.920614
 20
65.317763
 30
0.0
 10
25.201960
 20
65.599108
 30
0.0
 10
25.583560
 20
65.757147
 30
0.0
 10
25.981443
 20
65.757101
 30
0.0
  0
SPLINE
  5
205
100
AcDbEntity
  8
Layer_1
 62
7
100
AcDbSpline
 70
8
 71
3
 72
8
 73
4
 74
0
 40
0
 40
0
 40
0
 40
0
 40
1
 40
1
 40
1
 40
1
 10
25.981443
 20
65.757101
 30
0.0
 10
26.809798
 20
65.756908
 30
0.0
 10
27.481185
 20
65.085290
 30
0.0
 10
27.481092
 20
64.256935
 30
0.0
  0
SPLINE
  5
206
100
AcDbEntity
  8
Layer_1
 62
7
100
AcDbSpline
 70
8
 71
3
 72
8
 73
4
 74
0
 40
0
 40
0
 40
0
 40
0
 40
1
 40
1
 40
1
 40
1
 10
27.481092
 20
64.256935
 30
0.0
 10
27.480268
 20
64.176729
 30
0.0
 10
27.473011
 20
64.096718
 30
0.0
 10
27.459392
 20
64.017673
 30
0.0
  0
LWPOLYLINE
  5
207
100
AcDbEntity
  8
Layer_1
 62
7
100
AcDbPolyline
 90
2
 70
0
 10
16.234755
 20
52.793035
 30
0.0
 10
26.220703
 20
62.778985
 30
0.0
  0
SPLINE
  5
208
100
AcDbEntity
  8
Layer_1
 62
7
100
AcDbSpline
 70
8
 71
3
 72
8
 73
4
 74
0
 40
0
 40
0
 40
0
 40
0
 40
1
 40
1
 40
1
 40
1
 10
35.625810
 20
74.290945
 30
0.0
 10
34.961010
 20
74.290945
 30
0.0
 10
34.425890
 20
74.820835
 30
0.0
 10
34.425890
 20
75.478986
 30
0.0
  0
SPLINE
  5
209
100
AcDbEntity
  8
Layer_1
 62
7
100
AcDbSpline
 70
8
 71
3
 72
8
 73
4
 74
0
 40
0
 40
0
 40
0
 40
0
 40
1
 40
1
 40
1
 40
1
 10
34.425890
 20
75.478986
 30
0.0
 10
34.425890
 20
76.137137
 30
0.0
 10
34.961010
 20
76.666510
 30
0.0
 10
35.625810
 20
76.666510
 30
0.0
  0
LWPOLYLINE
  5
20a
100
AcDbEntity
  8
Layer_1
 62
7
100
AcDbPolyline
 90
6
 70
0
 10
27.459392
 20
64.017673
 30
0.0
 10
34.425890
 20
70.984171
 30
0.0
 10
34.425890
 20
71.666817
 30
0.0
 10
35.108530
 20
71.666817
 30
0.0
 10
37.732659
 20
74.290945
 30
0.0
 10
35.625810
 20
74.290945
 30
0.0
  0
SPLINE
  5
20b
100
AcDbEntity
  8
Layer_1
 62
7
100
AcDbSpline
 70
8
 71
3
 72
8
 73
4
 74
0
 40
0
 40
0
 40
0
 40
0
 40
1
 40
1
 40
1
 40
1
 10
37.977609
 20
76.666510
 30
0.0
 10
38.561629
 20
76.666510
 30
0.0
 10
39.044769
 20
76.257629
 30
0.0
 10
39.153759
 20
75.712047
 30
0.0
  0
LWPOLYLINE
  5
20c
100
AcDbEntity
  8
Layer_1
 62
7
100
AcDbPolyline
 90
2
 70
0
 10
35.625810
 20
76.666510
 30
0.0
 10
37.977609
 20
76.666510
 30
0.0
  0
SPLINE
  5
20d
100
AcDbEntity
  8
Layer_1
 62
7
100
AcDbSpline
 70
8
 71
3
 72
8
 73
4
 74
0
 40
0
 40
0
 40
0
 40
0
 40
1
 40
1
 40
1
 40
1
 10
2.749279
 20
58.986458
 30
0.0
 10
3.743306
 20
58.986398
 30
0.0
 10
4.549108
 20
58.180595
 30
0.0
 10
4.549169
 20
57.186569
 30
0.0
  0
SPLINE
  5
20e
100
AcDbEntity
  8
Layer_1
 62
7
100
AcDbSpline
 70
8
 71
3
 72
8
 73
4
 74
0
 40
0
 40
0
 40
0
 40
0
 40
1
 40
1
 40
1
 40
1
 10
4.549169
 20
57.186569
 30
0.0
 10
4.549108
 20
56.192542
 30
0.0
 10
3.743306
 20
55.386740
 30
0.0
 10
2.749279
 20
55.386679
 30
0.0
  0
SPLINE
  5
20f
100
AcDbEntity
  8
Layer_1
 62
7
100
AcDbSpline
 70
8
 71
3
 72
8
 73
4
 74
0
 40
0
 40
0
 40
0
 40
0
 40
1
 40
1
 40
1
 40
1
 10
2.749279
 20
55.386679
 30
0.0
 10
1.755253
 20
55.386740
 30
0.0
 10
0.949450
 20
56.192542
 30
0.0
 10
0.949390
 20
57.186569
 30
0.0
  0
SPLINE
  5
210
100
AcDbEntity
  8
Layer_1
 62
7
100
AcDbSpline
 70
8
 71
3
 72
8
 73
4
 74
0
 40
0
 40
0
 40
0
 40
0
 40
1
 40
1
 40
1
 40
1
 10
0.949390
 20
57.186569
 30
0.0
 10
0.949450
 20
58.180595
 30
0.0
 10
1.755253
 20
58.986398
 30
0.0
 10
2.749279
 20
58.986458
 30
0.0
  0
LWPOLYLINE
  5
211
100
AcDbEntity
  8
Layer_1
 62
7
100
AcDbPolyline
 90
2
 70
0
 10
39.153759
 20
75.712047
 30
0.0
 10
43.141128
 20
79.699400
 30
0.0
  0
SPLINE
  5
212
100
AcDbEntity
  8
Layer_1
 62
7
100
AcDbSpline
 70
8
 71
3
 72
8
 73
4
 74
0
 40
0
 40
0
 40
0
 40
0
 40
1
 40
1
 40
1
 40
1
 10
25.981453
 20
45.257068
 30
0.0
 10
26.809808
 20
45.256875
 30
0.0
 10
27.481195
 20
44.585257
 30
0.0
 10
27.481102
 20
43.756902
 30
0.0
  0
SPLINE
  5
213
100
AcDbEntity
  8
Layer_1
 62
7
100
AcDbSpline
 70
8
 71
3
 72
8
 73
4
 74
0
 40
0
 40
0
 40
0
 40
0
 40
1
 40
1
 40
1
 40
1
 10
27.481102
 20
43.756902
 30
0.0
 10
27.480909
 20
42.928748
 30
0.0
 10
26.809606
 20
42.257445
 30
0.0
 10
25.981453
 20
42.257252
 30
0.0
  0
SPLINE
  5
214
100
AcDbEntity
  8
Layer_1
 62
7
100
AcDbSpline
 70
8
 71
3
 72
8
 73
4
 74
0
 40
0
 40
0
 40
0
 40
0
 40
1
 40
1
 40
1
 40
1
 10
25.981453
 20
42.257252
 30
0.0
 10
25.153096
 20
42.257158
 30
0.0
 10
24.481476
 20
42.928545
 30
0.0
 10
24.481283
 20
43.756902
 30
0.0
  0
SPLINE
  5
215
100
AcDbEntity
  8
Layer_1
 62
7
100
AcDbSpline
 70
8
 71
3
 72
8
 73
4
 74
0
 40
0
 40
0
 40
0
 40
0
 40
1
 40
1
 40
1
 40
1
 10
24.481283
 20
43.756902
 30
0.0
 10
24.481239
 20
44.154785
 30
0.0
 10
24.639278
 20
44.536384
 30
0.0
 10
24.920624
 20
44.817730
 30
0.0
  0
SPLINE
  5
216
100
AcDbEntity
  8
Layer_1
 62
7
100
AcDbSpline
 70
8
 71
3
 72
8
 73
4
 74
0
 40
0
 40
0
 40
0
 40
0
 40
1
 40
1
 40
1
 40
1
 10
24.920624
 20
44.817730
 30
0.0
 10
25.201970
 20
45.099075
 30
0.0
 10
25.583570
 20
45.257113
 30
0.0
 10
25.981453
 20
45.257068
 30
0.0
  0
LWPOLYLINE
  5
217
100
AcDbEntity
  8
Layer_1
 62
7
100
AcDbPolyline
 90
1
 70
1
 10
2.749279
 20
58.986458
 30
0.0
  0
SPLINE
  5
218
100
AcDbEntity
  8
Layer_1
 62
7
100
AcDbSpline
 70
8
 71
3
 72
8
 73
4
 74
0
 40
0
 40
0
 40
0
 40
0
 40
1
 40
1
 40
1
 40
1
 10
2.749279
 20
41.573056
 30
0.0
 10
3.226720
 20
41.573027
 30
0.0
 10
3.684591
 20
41.383316
 30
0.0
 10
4.022144
 20
41.045666
 30
0.0
  0
SPLINE
  5
219
100
AcDbEntity
  8
Layer_1
 62
7
100
AcDbSpline
 70
8
 71
3
 72
8
 73
4
 74
0
 40
0
 40
0
 40
0
 40
0
 40
1
 40
1
 40
1
 40
1
 10
4.022144
 20
41.045666
 30
0.0
 10
4.359697
 20
40.708016
 30
0.0
 10
4.549277
 20
40.250091
 30
0.0
 10
4.549169
 20
39.772650
 30
0.0
  0
SPLINE
  5
21a
100
AcDbEntity
  8
Layer_1
 62
7
100
AcDbSpline
 70
8
 71
3
 72
8
 73
4
 74
0
 40
0
 40
0
 40
0
 40
0
 40
1
 40
1
 40
1
 40
1
 10
4.549169
 20
39.772650
 30
0.0
 10
4.549108
 20
38.778623
 30
0.0
 10
3.743306
 20
37.972821
 30
0.0
 10
2.749279
 20
37.972760
 30
0.0
  0
SPLINE
  5
21b
100
AcDbEntity
  8
Layer_1
 62
7
100
AcDbSpline
 70
8
 71
3
 72
8
 73
4
 74
0
 40
0
 40
0
 40
0
 40
0
 40
1
 40
1
 40
1
 40
1
 10
2.749279
 20
37.972760
 30
0.0
 10
1.755253
 20
37.972821
 30
0.0
 10
0.949450
 20
38.778623
 30
0.0
 10
0.949390
 20
39.772650
 30
0.0
  0
SPLINE
  5
21c
100
AcDbEntity
  8
Layer_1
 62
7
100
AcDbSpline
 70
8
 71
3
 72
8
 73
4
 74
0
 40
0
 40
0
 40
0
 40
0
 40
1
 40
1
 40
1
 40
1
 10
0.949390
 20
39.772650
 30
0.0
 10
0.949282
 20
40.250091
 30
0.0
 10
1.138861
 20
40.708016
 30
0.0
 10
1.476414
 20
41.045666
 30
0.0
  0
SPLINE
  5
21d
100
AcDbEntity
  8
Layer_1
 62
7
100
AcDbSpline
 70
8
 71
3
 72
8
 73
4
 74
0
 40
0
 40
0
 40
0
 40
0
 40
1
 40
1
 40
1
 40
1
 10
1.476414
 20
41.045666
 30
0.0
 10
1.813968
 20
41.383316
 30
0.0
 10
2.271838
 20
41.573027
 30
0.0
 10
2.749279
 20
41.573056
 30
0.0
  0
LWPOLYLINE
  5
21e
100
AcDbEntity
  8
Layer_1
 62
7
100
AcDbPolyline
 90
1
 70
1
 10
25.981453
 20
45.257068
 30
0.0
  0
LWPOLYLINE
  5
21f
100
AcDbEntity
  8
Layer_1
 62
7
100
AcDbPolyline
 90
1
 70
1
 10
2.749279
 20
41.573056
 30
0.0
  0
SPLINE
  5
220
100
AcDbEntity
  8
Layer_1
 62
7
100
AcDbSpline
 70
8
 71
3
 72
8
 73
4
 74
0
 40
0
 40
0
 40
0
 40
0
 40
1
 40
1
 40
1
 40
1
 10
39.297949
 20
7.589093
 30
0.0
 10
38.808199
 20
7.827942
 30
0.0
 10
38.290429
 20
8.008040
 30
0.0
 10
37.756439
 20
8.114125
 30
0.0
  0
SPLINE
  5
221
100
AcDbEntity
  8
Layer_1
 62
7
100
AcDbSpline
 70
8
 71
3
 72
8
 73
4
 74
0
 40
0
 40
0
 40
0
 40
0
 40
1
 40
1
 40
1
 40
1
 10
37.756439
 20
8.114125
 30
0.0
 10
36.531980
 20
8.411801
 30
0.0
 10
35.284030
 20
8.233274
 30
0.0
 10
34.171650
 20
7.729653
 30
0.0
  0
LWPOLYLINE
  5
222
100
AcDbEntity
  8
Layer_1
 62
7
100
AcDbPolyline
 90
3
 70
0
 10
43.141128
 20
16.699129
 30
0.0
 10
43.141128
 20
11.432268
 30
0.0
 10
39.297949
 20
7.589093
 30
0.0
  0
LWPOLYLINE
  5
223
100
AcDbEntity
  8
Layer_1
 62
7
100
AcDbPolyline
 90
6
 70
0
 10
34.171650
 20
7.729653
 30
0.0
 10
35.732790
 20
9.290797
 30
0.0
 10
34.425900
 20
9.290797
 30
0.0
 10
34.425900
 20
11.666879
 30
0.0
 10
38.108869
 20
11.666879
 30
0.0
 10
43.141128
 20
16.699129
 30
0.0
  0
SPLINE
  5
224
100
AcDbEntity
  8
Layer_1
 62
7
100
AcDbSpline
 70
8
 71
3
 72
8
 73
4
 74
0
 40
0
 40
0
 40
0
 40
0
 40
1
 40
1
 40
1
 40
1
 10
43.141128
 20
4.884349
 30
0.0
 10
43.036078
 20
4.442597
 30
0.0
 10
43.461338
 20
3.420903
 30
0.0
 10
42.674488
 20
3.729382
 30
0.0
  0
SPLINE
  5
225
100
AcDbEntity
  8
Layer_1
 62
7
100
AcDbSpline
 70
8
 71
3
 72
8
 73
4
 74
0
 40
0
 40
0
 40
0
 40
0
 40
1
 40
1
 40
1
 40
1
 10
42.674488
 20
3.729382
 30
0.0
 10
42.526918
 20
4.214261
 30
0.0
 10
42.312268
 20
4.674938
 30
0.0
 10
42.047648
 20
5.106041
 30
0.0
  0
LWPOLYLINE
  5
226
100
AcDbEntity
  8
Layer_1
 62
7
100
AcDbPolyline
 90
2
 70
0
 10
43.141128
 20
6.199514
 30
0.0
 10
43.141128
 20
4.884349
 30
0.0
  0
SPLINE
  5
227
100
AcDbEntity
  8
Layer_1
 62
7
100
AcDbSpline
 70
8
 71
3
 72
8
 73
4
 74
0
 40
0
 40
0
 40
0
 40
0
 40
1
 40
1
 40
1
 40
1
 10
7.349518
 20
5.215078
 30
0.0
 10
8.177672
 20
5.214885
 30
0.0
 10
8.848975
 20
4.543582
 30
0.0
 10
8.849167
 20
3.715429
 30
0.0
  0
SPLINE
  5
228
100
AcDbEntity
  8
Layer_1
 62
7
100
AcDbSpline
 70
8
 71
3
 72
8
 73
4
 74
0
 40
0
 40
0
 40
0
 40
0
 40
1
 40
1
 40
1
 40
1
 10
8.849167
 20
3.715429
 30
0.0
 10
8.849259
 20
2.887074
 30
0.0
 10
8.177873
 20
2.215456
 30
0.0
 10
7.349518
 20
2.215263
 30
0.0
  0
SPLINE
  5
229
100
AcDbEntity
  8
Layer_1
 62
7
100
AcDbSpline
 70
8
 71
3
 72
8
 73
4
 74
0
 40
0
 40
0
 40
0
 40
0
 40
1
 40
1
 40
1
 40
1
 10
7.349518
 20
2.215263
 30
0.0
 10
6.951635
 20
2.215218
 30
0.0
 10
6.570035
 20
2.373256
 30
0.0
 10
6.288689
 20
2.654601
 30
0.0
  0
SPLINE
  5
22a
100
AcDbEntity
  8
Layer_1
 62
7
100
AcDbSpline
 70
8
 71
3
 72
8
 73
4
 74
0
 40
0
 40
0
 40
0
 40
0
 40
1
 40
1
 40
1
 40
1
 10
6.288689
 20
2.654601
 30
0.0
 10
6.007343
 20
2.935947
 30
0.0
 10
5.849304
 20
3.317546
 30
0.0
 10
5.849348
 20
3.715429
 30
0.0
  0
SPLINE
  5
22b
100
AcDbEntity
  8
Layer_1
 62
7
100
AcDbSpline
 70
8
 71
3
 72
8
 73
4
 74
0
 40
0
 40
0
 40
0
 40
0
 40
1
 40
1
 40
1
 40
1
 10
5.849348
 20
3.715429
 30
0.0
 10
5.849541
 20
4.543785
 30
0.0
 10
6.521161
 20
5.215172
 30
0.0
 10
7.349518
 20
5.215078
 30
0.0
  0
LWPOLYLINE
  5
22c
100
AcDbEntity
  8
Layer_1
 62
7
100
AcDbPolyline
 90
2
 70
0
 10
42.047648
 20
5.106041
 30
0.0
 10
43.141128
 20
6.199514
 30
0.0
  0
SPLINE
  5
22d
100
AcDbEntity
  8
Layer_1
 62
7
100
AcDbSpline
 70
8
 71
3
 72
8
 73
4
 74
0
 40
0
 40
0
 40
0
 40
0
 40
1
 40
1
 40
1
 40
1
 10
27.849552
 20
5.215078
 30
0.0
 10
28.677706
 20
5.214885
 30
0.0
 10
29.349009
 20
4.543582
 30
0.0
 10
29.349202
 20
3.715429
 30
0.0
  0
SPLINE
  5
22e
100
AcDbEntity
  8
Layer_1
 62
7
100
AcDbSpline
 70
8
 71
3
 72
8
 73
4
 74
0
 40
0
 40
0
 40
0
 40
0
 40
1
 40
1
 40
1
 40
1
 10
29.349202
 20
3.715429
 30
0.0
 10
29.349293
 20
2.887074
 30
0.0
 10
28.677907
 20
2.215456
 30
0.0
 10
27.849552
 20
2.215263
 30
0.0
  0
SPLINE
  5
22f
100
AcDbEntity
  8
Layer_1
 62
7
100
AcDbSpline
 70
8
 71
3
 72
8
 73
4
 74
0
 40
0
 40
0
 40
0
 40
0
 40
1
 40
1
 40
1
 40
1
 10
27.849552
 20
2.215263
 30
0.0
 10
27.451671
 20
2.215221
 30
0.0
 10
27.070074
 20
2.373260
 30
0.0
 10
26.788730
 20
2.654605
 30
0.0
  0
SPLINE
  5
230
100
AcDbEntity
  8
Layer_1
 62
7
100
AcDbSpline
 70
8
 71
3
 72
8
 73
4
 74
0
 40
0
 40
0
 40
0
 40
0
 40
1
 40
1
 40
1
 40
1
 10
26.788730
 20
2.654605
 30
0.0
 10
26.507386
 20
2.935950
 30
0.0
 10
26.349348
 20
3.317548
 30
0.0
 10
26.349393
 20
3.715429
 30
0.0
  0
SPLINE
  5
231
100
AcDbEntity
  8
Layer_1
 62
7
100
AcDbSpline
 70
8
 71
3
 72
8
 73
4
 74
0
 40
0
 40
0
 40
0
 40
0
 40
1
 40
1
 40
1
 40
1
 10
26.349393
 20
3.715429
 30
0.0
 10
26.349586
 20
4.543781
 30
0.0
 10
27.021199
 20
5.215167
 30
0.0
 10
27.849552
 20
5.215078
 30
0.0
  0
LWPOLYLINE
  5
232
100
AcDbEntity
  8
Layer_1
 62
7
100
AcDbPolyline
 90
1
 70
1
 10
7.349518
 20
5.215078
 30
0.0
  0
SPLINE
  5
233
100
AcDbEntity
  8
Layer_1
 62
7
100
AcDbSpline
 70
8
 71
3
 72
8
 73
4
 74
0
 40
0
 40
0
 40
0
 40
0
 40
1
 40
1
 40
1
 40
1
 10
30.944451
 20
4.502460
 30
0.0
 10
30.830511
 20
4.246047
 30
0.0
 10
30.728601
 20
3.984302
 30
0.0
 10
30.653001
 20
3.713362
 30
0.0
  0
LWPOLYLINE
  5
234
100
AcDbEntity
  8
Layer_1
 62
7
100
AcDbPolyline
 90
1
 70
1
 10
27.849552
 20
5.215078
 30
0.0
  0
LWPOLYLINE
  5
235
100
AcDbEntity
  8
Layer_1
 62
7
100
AcDbPolyline
 90
3
 70
0
 10
30.653001
 20
3.713362
 30
0.0
 10
30.155361
 20
3.713362
 30
0.0
 10
30.944451
 20
4.502460
 30
0.0
  0
ENDSEC
  0
SECTION
  2
OBJECTS
  0
DICTIONARY
  5
C
330
0
100
AcDbDictionary
  3
ACAD_GROUP
350
D
  3
ACAD_MLINESTYLE
350
17
  0
DICTIONARY
  5
D
330
C
100
AcDbDictionary
  0
DICTIONARY
  5
1A
330
C
100
AcDbDictionary
  0
DICTIONARY
  5
17
330
C
100
AcDbDictionary
  3
STANDARD
350
18
  0
DICTIONARY
  5
19
330
C
100
AcDbDictionary
  0
ENDSEC
  0
EOF
