999
"DXF R12 Output" (www.mydxf.blogspot.com)
 0 
SECTION
 2 
HEADER
 9 
$ACADVER
 1 
AC1009
 9 
$EXTMIN
 10 
 0 
 20 
 0 
 9 
$EXTMAX
 10 
 8.5 
 20 
 11 
 0 
ENDSEC
 0 
SECTION
 2 
ENTITIES
0
LINE
8
Layer 1
10
-0.000440
20
95.310000
11
-0.000440
21
-0.040236
0
LINE
8
Layer 1
10
-0.000440
20
-0.040236
11
34.329800
21
-0.040236
0
LINE
8
Layer 1
10
34.329800
20
-0.040236
11
34.329800
21
2.549790
0
LINE
8
Layer 1
10
34.329800
20
2.549790
11
34.530095
21
3.542366
0
LINE
8
Layer 1
10
34.530095
20
3.542366
11
35.076490
21
4.352955
0
LINE
8
Layer 1
10
35.076490
20
4.352955
11
35.886965
21
4.899519
0
LINE
8
Layer 1
10
35.886965
20
4.899519
11
36.879500
21
5.100020
0
LINE
8
Layer 1
10
36.879500
20
5.100020
11
37.855457
21
4.905948
0
LINE
8
Layer 1
10
37.855457
20
4.905948
11
38.682833
21
4.353132
0
LINE
8
Layer 1
10
38.682833
20
4.353132
11
39.235640
21
3.525750
0
LINE
8
Layer 1
10
39.235640
20
3.525750
11
39.429700
21
2.549790
0
LINE
8
Layer 1
10
39.429700
20
2.549790
11
39.429700
21
-0.040236
0
LINE
8
Layer 1
10
39.429700
20
-0.040236
11
82.589900
21
-0.040236
0
LINE
8
Layer 1
10
82.589900
20
-0.040236
11
82.589900
21
1.944660
0
LINE
8
Layer 1
10
82.589900
20
1.944660
11
82.790195
21
2.937236
0
LINE
8
Layer 1
10
82.790195
20
2.937236
11
83.336590
21
3.747825
0
LINE
8
Layer 1
10
83.336590
20
3.747825
11
84.147065
21
4.294389
0
LINE
8
Layer 1
10
84.147065
20
4.294389
11
85.139600
21
4.494890
0
LINE
8
Layer 1
10
85.139600
20
4.494890
11
86.115557
21
4.300818
0
LINE
8
Layer 1
10
86.115557
20
4.300818
11
86.942933
21
3.748002
0
LINE
8
Layer 1
10
86.942933
20
3.748002
11
87.495740
21
2.920620
0
LINE
8
Layer 1
10
87.495740
20
2.920620
11
87.689800
21
1.944660
0
LINE
8
Layer 1
10
87.689800
20
1.944660
11
87.689800
21
-0.040236
0
LINE
8
Layer 1
10
87.689800
20
-0.040236
11
95.349800
21
-0.040236
0
LINE
8
Layer 1
10
95.349800
20
-0.040236
11
95.349800
21
95.310000
0
LINE
8
Layer 1
10
95.349800
20
95.310000
11
88.959500
21
95.310000
0
LINE
8
Layer 1
10
88.959500
20
95.310000
11
88.959500
21
93.940100
0
LINE
8
Layer 1
10
88.959500
20
93.940100
11
88.765508
21
92.964234
0
LINE
8
Layer 1
10
88.765508
20
92.964234
11
88.212834
21
92.136890
0
LINE
8
Layer 1
10
88.212834
20
92.136890
11
87.385620
21
91.584022
0
LINE
8
Layer 1
10
87.385620
20
91.584022
11
86.409800
21
91.389800
0
LINE
8
Layer 1
10
86.409800
20
91.389800
11
85.433827
21
91.583878
0
LINE
8
Layer 1
10
85.433827
20
91.583878
11
84.606442
21
92.136713
0
LINE
8
Layer 1
10
84.606442
20
92.136713
11
84.053640
21
92.964119
0
LINE
8
Layer 1
10
84.053640
20
92.964119
11
83.859600
21
93.940100
0
LINE
8
Layer 1
10
83.859600
20
93.940100
11
83.859600
21
95.310000
0
LINE
8
Layer 1
10
83.859600
20
95.310000
11
45.144600
21
95.310000
0
LINE
8
Layer 1
10
45.144600
20
95.310000
11
45.144600
21
93.989700
0
LINE
8
Layer 1
10
45.144600
20
93.989700
11
44.944152
21
92.997294
0
LINE
8
Layer 1
10
44.944152
20
92.997294
11
44.397722
21
92.186878
0
LINE
8
Layer 1
10
44.397722
20
92.186878
11
43.587306
21
91.640448
0
LINE
8
Layer 1
10
43.587306
20
91.640448
11
42.594900
21
91.440000
0
LINE
8
Layer 1
10
42.594900
20
91.440000
11
41.602333
21
91.640304
0
LINE
8
Layer 1
10
41.602333
20
91.640304
11
40.791754
21
92.186701
0
LINE
8
Layer 1
10
40.791754
20
92.186701
11
40.245198
21
92.997173
0
LINE
8
Layer 1
10
40.245198
20
92.997173
11
40.044700
21
93.989700
0
LINE
8
Layer 1
10
40.044700
20
93.989700
11
40.044700
21
95.310000
0
LINE
8
Layer 1
10
40.044700
20
95.310000
11
-0.000440
21
95.310000
0
LINE
8
Layer 1
10
-0.000440
20
95.310000
11
-0.000440
21
95.310000
0
LINE
8
Layer 1
10
49.950500
20
93.310100
11
51.150400
21
93.310100
0
LINE
8
Layer 1
10
51.150400
20
93.310100
11
51.150400
21
77.773100
0
LINE
8
Layer 1
10
51.150400
20
77.773100
11
49.950500
21
77.773100
0
LINE
8
Layer 1
10
49.950500
20
77.773100
11
49.950500
21
93.310100
0
LINE
8
Layer 1
10
49.950500
20
93.310100
11
49.950500
21
93.310100
0
LINE
8
Layer 1
10
56.640000
20
70.639700
11
57.840000
21
70.639700
0
LINE
8
Layer 1
10
57.840000
20
70.639700
11
57.840000
21
64.050900
0
LINE
8
Layer 1
10
57.840000
20
64.050900
11
57.844100
21
64.050900
0
LINE
8
Layer 1
10
57.844100
20
64.050900
11
57.850800
21
63.813700
0
LINE
8
Layer 1
10
57.850800
20
63.813700
11
57.770491
21
63.017753
0
LINE
8
Layer 1
10
57.770491
20
63.017753
11
57.540315
21
62.276407
0
LINE
8
Layer 1
10
57.540315
20
62.276407
11
56.693872
21
61.021028
0
LINE
8
Layer 1
10
56.693872
20
61.021028
11
55.438493
21
60.174585
0
LINE
8
Layer 1
10
55.438493
20
60.174585
11
54.697147
21
59.944409
0
LINE
8
Layer 1
10
54.697147
20
59.944409
11
53.901200
21
59.864100
0
LINE
8
Layer 1
10
53.901200
20
59.864100
11
51.254800
21
59.864100
0
LINE
8
Layer 1
10
51.254800
20
59.864100
11
50.202313
21
59.654807
0
LINE
8
Layer 1
10
50.202313
20
59.654807
11
49.310056
21
59.058644
0
LINE
8
Layer 1
10
49.310056
20
59.058644
11
48.713893
21
58.166387
0
LINE
8
Layer 1
10
48.713893
20
58.166387
11
48.504600
21
57.113900
0
LINE
8
Layer 1
10
48.504600
20
57.113900
11
48.720815
21
56.043524
0
LINE
8
Layer 1
10
48.720815
20
56.043524
11
49.310233
21
55.169480
0
LINE
8
Layer 1
10
49.310233
20
55.169480
11
50.184384
21
54.580221
0
LINE
8
Layer 1
10
50.184384
20
54.580221
11
51.254800
21
54.364200
0
LINE
8
Layer 1
10
51.254800
20
54.364200
11
53.900700
21
54.364200
0
LINE
8
Layer 1
10
53.900700
20
54.364200
11
53.901200
21
54.364200
0
LINE
8
Layer 1
10
53.901200
20
54.364200
11
54.697147
21
54.283891
0
LINE
8
Layer 1
10
54.697147
20
54.283891
11
55.438493
21
54.053715
0
LINE
8
Layer 1
10
55.438493
20
54.053715
11
56.693872
21
53.207272
0
LINE
8
Layer 1
10
56.693872
20
53.207272
11
57.540315
21
51.951893
0
LINE
8
Layer 1
10
57.540315
20
51.951893
11
57.770491
21
51.210547
0
LINE
8
Layer 1
10
57.770491
20
51.210547
11
57.850800
21
50.414600
0
LINE
8
Layer 1
10
57.850800
20
50.414600
11
57.844100
21
50.177400
0
LINE
8
Layer 1
10
57.844100
20
50.177400
11
56.641100
21
50.177400
0
LINE
8
Layer 1
10
56.641100
20
50.177400
11
56.650900
21
50.414600
0
LINE
8
Layer 1
10
56.650900
20
50.414600
11
56.434735
21
51.484855
0
LINE
8
Layer 1
10
56.434735
20
51.484855
11
55.845444
21
52.358844
0
LINE
8
Layer 1
10
55.845444
20
52.358844
11
54.971455
21
52.948135
0
LINE
8
Layer 1
10
54.971455
20
52.948135
11
53.901200
21
53.164300
0
LINE
8
Layer 1
10
53.901200
20
53.164300
11
51.254800
21
53.164300
0
LINE
8
Layer 1
10
51.254800
20
53.164300
11
50.458776
21
53.244522
0
LINE
8
Layer 1
10
50.458776
20
53.244522
11
49.717347
21
53.474641
0
LINE
8
Layer 1
10
49.717347
20
53.474641
11
48.461805
21
54.321051
0
LINE
8
Layer 1
10
48.461805
20
54.321051
11
47.615236
21
55.576486
0
LINE
8
Layer 1
10
47.615236
20
55.576486
11
47.385022
21
56.317886
0
LINE
8
Layer 1
10
47.385022
20
56.317886
11
47.304700
21
57.113900
0
LINE
8
Layer 1
10
47.304700
20
57.113900
11
47.381285
21
57.888132
0
LINE
8
Layer 1
10
47.381285
20
57.888132
11
47.605357
21
58.625553
0
LINE
8
Layer 1
10
47.605357
20
58.625553
11
47.968332
21
59.305441
0
LINE
8
Layer 1
10
47.968332
20
59.305441
11
48.461628
21
59.907072
0
LINE
8
Layer 1
10
48.461628
20
59.907072
11
49.063259
21
60.400368
0
LINE
8
Layer 1
10
49.063259
20
60.400368
11
49.743147
21
60.763343
0
LINE
8
Layer 1
10
49.743147
20
60.763343
11
50.480568
21
60.987415
0
LINE
8
Layer 1
10
50.480568
20
60.987415
11
51.254800
21
61.064000
0
LINE
8
Layer 1
10
51.254800
20
61.064000
11
53.900700
21
61.064000
0
LINE
8
Layer 1
10
53.900700
20
61.064000
11
53.901200
21
61.064000
0
LINE
8
Layer 1
10
53.901200
20
61.064000
11
54.971455
21
61.280165
0
LINE
8
Layer 1
10
54.971455
20
61.280165
11
55.845444
21
61.869456
0
LINE
8
Layer 1
10
55.845444
20
61.869456
11
56.434735
21
62.743445
0
LINE
8
Layer 1
10
56.434735
20
62.743445
11
56.650900
21
63.813700
0
LINE
8
Layer 1
10
56.650900
20
63.813700
11
56.641100
21
64.050900
0
LINE
8
Layer 1
10
56.641100
20
64.050900
11
56.640000
21
64.050900
0
LINE
8
Layer 1
10
56.640000
20
64.050900
11
56.640000
21
70.639700
0
LINE
8
Layer 1
10
56.640000
20
70.639700
11
56.640000
21
70.639700
0
LINE
8
Layer 1
10
56.641100
20
46.637000
11
57.844100
21
46.637000
0
LINE
8
Layer 1
10
57.844100
20
46.637000
11
57.850800
21
46.399800
0
LINE
8
Layer 1
10
57.850800
20
46.399800
11
57.770491
21
45.603853
0
LINE
8
Layer 1
10
57.770491
20
45.603853
11
57.540315
21
44.862507
0
LINE
8
Layer 1
10
57.540315
20
44.862507
11
56.693872
21
43.607128
0
LINE
8
Layer 1
10
56.693872
20
43.607128
11
55.438493
21
42.760685
0
LINE
8
Layer 1
10
55.438493
20
42.760685
11
54.697147
21
42.530509
0
LINE
8
Layer 1
10
54.697147
20
42.530509
11
53.901200
21
42.450200
0
LINE
8
Layer 1
10
53.901200
20
42.450200
11
53.900700
21
42.450200
0
LINE
8
Layer 1
10
53.900700
20
42.450200
11
51.254800
21
42.450200
0
LINE
8
Layer 1
10
51.254800
20
42.450200
11
50.202313
21
42.240907
0
LINE
8
Layer 1
10
50.202313
20
42.240907
11
49.310056
21
41.644744
0
LINE
8
Layer 1
10
49.310056
20
41.644744
11
48.713893
21
40.752487
0
LINE
8
Layer 1
10
48.713893
20
40.752487
11
48.504600
21
39.700000
0
LINE
8
Layer 1
10
48.504600
20
39.700000
11
48.720815
21
38.629624
0
LINE
8
Layer 1
10
48.720815
20
38.629624
11
49.310233
21
37.755580
0
LINE
8
Layer 1
10
49.310233
20
37.755580
11
50.184384
21
37.166321
0
LINE
8
Layer 1
10
50.184384
20
37.166321
11
51.254800
21
36.950300
0
LINE
8
Layer 1
10
51.254800
20
36.950300
11
53.900700
21
36.950300
0
LINE
8
Layer 1
10
53.900700
20
36.950300
11
53.901200
21
36.950300
0
LINE
8
Layer 1
10
53.901200
20
36.950300
11
54.697160
21
36.869988
0
LINE
8
Layer 1
10
54.697160
20
36.869988
11
55.438517
21
36.639805
0
LINE
8
Layer 1
10
55.438517
20
36.639805
11
56.693907
21
35.793336
0
LINE
8
Layer 1
10
56.693907
20
35.793336
11
57.540344
21
34.537925
0
LINE
8
Layer 1
10
57.540344
20
34.537925
11
57.770508
21
33.796562
0
LINE
8
Layer 1
10
57.770508
20
33.796562
11
57.850800
21
33.000600
0
LINE
8
Layer 1
10
57.850800
20
33.000600
11
57.844100
21
32.763400
0
LINE
8
Layer 1
10
57.844100
20
32.763400
11
56.641100
21
32.763400
0
LINE
8
Layer 1
10
56.641100
20
32.763400
11
56.650900
21
33.000600
0
LINE
8
Layer 1
10
56.650900
20
33.000600
11
56.434735
21
34.070855
0
LINE
8
Layer 1
10
56.434735
20
34.070855
11
55.845444
21
34.944844
0
LINE
8
Layer 1
10
55.845444
20
34.944844
11
54.971455
21
35.534135
0
LINE
8
Layer 1
10
54.971455
20
35.534135
11
53.901200
21
35.750300
0
LINE
8
Layer 1
10
53.901200
20
35.750300
11
51.254800
21
35.750300
0
LINE
8
Layer 1
10
51.254800
20
35.750300
11
50.458762
21
35.830524
0
LINE
8
Layer 1
10
50.458762
20
35.830524
11
49.717322
21
36.060651
0
LINE
8
Layer 1
10
49.717322
20
36.060651
11
48.461770
21
36.907087
0
LINE
8
Layer 1
10
48.461770
20
36.907087
11
47.615207
21
38.162554
0
LINE
8
Layer 1
10
47.615207
20
38.162554
11
47.385005
21
38.903970
0
LINE
8
Layer 1
10
47.385005
20
38.903970
11
47.304700
21
39.700000
0
LINE
8
Layer 1
10
47.304700
20
39.700000
11
47.381285
21
40.474232
0
LINE
8
Layer 1
10
47.381285
20
40.474232
11
47.605357
21
41.211653
0
LINE
8
Layer 1
10
47.605357
20
41.211653
11
47.968332
21
41.891541
0
LINE
8
Layer 1
10
47.968332
20
41.891541
11
48.461628
21
42.493172
0
LINE
8
Layer 1
10
48.461628
20
42.493172
11
49.063259
21
42.986468
0
LINE
8
Layer 1
10
49.063259
20
42.986468
11
49.743147
21
43.349443
0
LINE
8
Layer 1
10
49.743147
20
43.349443
11
50.480568
21
43.573515
0
LINE
8
Layer 1
10
50.480568
20
43.573515
11
51.254800
21
43.650100
0
LINE
8
Layer 1
10
51.254800
20
43.650100
11
53.900700
21
43.650100
0
LINE
8
Layer 1
10
53.900700
20
43.650100
11
53.901200
21
43.650100
0
LINE
8
Layer 1
10
53.901200
20
43.650100
11
54.971455
21
43.866265
0
LINE
8
Layer 1
10
54.971455
20
43.866265
11
55.845444
21
44.455556
0
LINE
8
Layer 1
10
55.845444
20
44.455556
11
56.434735
21
45.329545
0
LINE
8
Layer 1
10
56.434735
20
45.329545
11
56.650900
21
46.399800
0
LINE
8
Layer 1
10
56.650900
20
46.399800
11
56.641100
21
46.637000
0
LINE
8
Layer 1
10
56.641100
20
46.637000
11
56.641100
21
46.637000
0
LINE
8
Layer 1
10
53.426800
20
30.098500
11
53.664000
21
30.091800
0
LINE
8
Layer 1
10
53.664000
20
30.091800
11
53.664000
21
28.888700
0
LINE
8
Layer 1
10
53.664000
20
28.888700
11
53.426800
21
28.898600
0
LINE
8
Layer 1
10
53.426800
20
28.898600
11
52.356545
21
28.682435
0
LINE
8
Layer 1
10
52.356545
20
28.682435
11
51.482556
21
28.093144
0
LINE
8
Layer 1
10
51.482556
20
28.093144
11
50.893265
21
27.219155
0
LINE
8
Layer 1
10
50.893265
20
27.219155
11
50.677100
21
26.148900
0
LINE
8
Layer 1
10
50.677100
20
26.148900
11
50.677100
21
21.001400
0
LINE
8
Layer 1
10
50.677100
20
21.001400
11
49.476600
21
21.001400
0
LINE
8
Layer 1
10
49.476600
20
21.001400
11
49.476600
21
26.148900
0
LINE
8
Layer 1
10
49.476600
20
26.148900
11
49.477200
21
26.148900
0
LINE
8
Layer 1
10
49.477200
20
26.148900
11
49.557509
21
26.944847
0
LINE
8
Layer 1
10
49.557509
20
26.944847
11
49.787685
21
27.686193
0
LINE
8
Layer 1
10
49.787685
20
27.686193
11
50.634128
21
28.941572
0
LINE
8
Layer 1
10
50.634128
20
28.941572
11
51.889507
21
29.788015
0
LINE
8
Layer 1
10
51.889507
20
29.788015
11
52.630853
21
30.018191
0
LINE
8
Layer 1
10
52.630853
20
30.018191
11
53.426800
21
30.098500
0
LINE
8
Layer 1
10
53.426800
20
30.098500
11
53.426800
21
30.098500
0
LINE
8
Layer 1
10
49.476600
20
14.604300
11
50.677100
21
14.604300
0
LINE
8
Layer 1
10
50.677100
20
14.604300
11
50.677100
21
2.000470
0
LINE
8
Layer 1
10
50.677100
20
2.000470
11
49.476600
21
2.000470
0
LINE
8
Layer 1
10
49.476600
20
2.000470
11
49.476600
21
14.604300
0
LINE
8
Layer 1
10
49.476600
20
14.604300
11
49.476600
21
14.604300
 0 
ENDSEC
 0 
EOF