%TF.GenerationSoftware,KiCad,Pcbnew,(6.0.5)*%
%TF.CreationDate,2022-08-07T22:36:51-04:00*%
%TF.ProjectId,ADE7953-Power-Sensor-breakout,41444537-3935-4332-9d50-6f7765722d53,rev?*%
%TF.SameCoordinates,Original*%
%TF.FileFunction,Copper,L2,Bot*%
%TF.FilePolarity,Positive*%
%FSLAX46Y46*%
G04 Gerber Fmt 4.6, Leading zero omitted, Abs format (unit mm)*
G04 Created by KiCad (PCBNEW (6.0.5)) date 2022-08-07 22:36:51*
%MOMM*%
%LPD*%
G01*
G04 APERTURE LIST*
%TA.AperFunction,ComponentPad*%
%ADD10C,1.500000*%
%TD*%
%TA.AperFunction,ComponentPad*%
%ADD11R,1.600000X1.600000*%
%TD*%
%TA.AperFunction,ComponentPad*%
%ADD12C,1.600000*%
%TD*%
%TA.AperFunction,ComponentPad*%
%ADD13O,2.200000X1.200000*%
%TD*%
%TA.AperFunction,ComponentPad*%
%ADD14O,1.200000X2.200000*%
%TD*%
%TA.AperFunction,ComponentPad*%
%ADD15R,1.700000X1.700000*%
%TD*%
%TA.AperFunction,ComponentPad*%
%ADD16O,1.700000X1.700000*%
%TD*%
%TA.AperFunction,ViaPad*%
%ADD17C,0.800000*%
%TD*%
%TA.AperFunction,Conductor*%
%ADD18C,0.250000*%
%TD*%
G04 APERTURE END LIST*
D10*
%TO.P,Y1,2,2*%
%TO.N,Net-(C12-Pad1)*%
X191660000Y-70110000D03*
%TO.P,Y1,1,1*%
%TO.N,Net-(C13-Pad1)*%
X191660000Y-65230000D03*
%TD*%
D11*
%TO.P,C17,1*%
%TO.N,+3V3*%
X198314888Y-70610000D03*
D12*
%TO.P,C17,2*%
%TO.N,GND*%
X200314888Y-70610000D03*
%TD*%
D11*
%TO.P,C15,1*%
%TO.N,Net-(C14-Pad1)*%
X203944888Y-54220000D03*
D12*
%TO.P,C15,2*%
%TO.N,GND*%
X205944888Y-54220000D03*
%TD*%
D11*
%TO.P,C11,1*%
%TO.N,Net-(C11-Pad1)*%
X200225113Y-54230000D03*
D12*
%TO.P,C11,2*%
%TO.N,GND*%
X198225113Y-54230000D03*
%TD*%
%TO.P,C10,2*%
%TO.N,GND*%
X205944888Y-70610000D03*
D11*
%TO.P,C10,1*%
%TO.N,Net-(C10-Pad1)*%
X203944888Y-70610000D03*
%TD*%
D13*
%TO.P,INPUT-B-1,R*%
%TO.N,GND*%
X221267887Y-60800000D03*
D14*
%TO.P,INPUT-B-1,S*%
%TO.N,IBP*%
X226267887Y-55800000D03*
D13*
%TO.P,INPUT-B-1,T*%
%TO.N,IBN*%
X221267887Y-50800000D03*
%TD*%
D15*
%TO.P,J1,1,Pin_1*%
%TO.N,REVP*%
X192795000Y-51055000D03*
D16*
%TO.P,J1,2,Pin_2*%
%TO.N,ZX_I*%
X190255000Y-51055000D03*
%TO.P,J1,3,Pin_3*%
%TO.N,IRQ*%
X187715000Y-51055000D03*
%TO.P,J1,4,Pin_4*%
%TO.N,CF1*%
X185175000Y-51055000D03*
%TO.P,J1,5,Pin_5*%
%TO.N,CF2*%
X182635000Y-51055000D03*
%TO.P,J1,6,Pin_6*%
%TO.N,ZX*%
X180095000Y-51055000D03*
%TO.P,J1,7,Pin_7*%
%TO.N,reset*%
X177555000Y-51055000D03*
%TD*%
%TO.P,J7,6,Pin_6*%
%TO.N,SCLK*%
X182650000Y-58590000D03*
%TO.P,J7,5,Pin_5*%
%TO.N,MOSI*%
X182650000Y-61130000D03*
%TO.P,J7,4,Pin_4*%
%TO.N,MISO*%
X182650000Y-63670000D03*
%TO.P,J7,3,Pin_3*%
%TO.N,CS*%
X182650000Y-66210000D03*
%TO.P,J7,2,Pin_2*%
%TO.N,+3V3*%
X182650000Y-68750000D03*
D15*
%TO.P,J7,1,Pin_1*%
%TO.N,GND*%
X182650000Y-71290000D03*
%TD*%
%TO.P,INPUT-B-2,1,Pin_1*%
%TO.N,IBP*%
X216407887Y-56785000D03*
D16*
%TO.P,INPUT-B-2,2,Pin_2*%
%TO.N,IBN*%
X216407887Y-54245000D03*
%TD*%
%TO.P,J6,4,Pin_4*%
%TO.N,MOSI*%
X177570000Y-63670000D03*
%TO.P,J6,3,Pin_3*%
%TO.N,MISO*%
X177570000Y-66210000D03*
%TO.P,J6,2,Pin_2*%
%TO.N,+3V3*%
X177570000Y-68750000D03*
D15*
%TO.P,J6,1,Pin_1*%
%TO.N,GND*%
X177570000Y-71290000D03*
%TD*%
%TO.P,INPUT-A-2,1,Pin_1*%
%TO.N,IAP*%
X216437887Y-69875000D03*
D16*
%TO.P,INPUT-A-2,2,Pin_2*%
%TO.N,IAN*%
X216437887Y-67335000D03*
%TD*%
D13*
%TO.P,INPUT-A-1,R*%
%TO.N,GND*%
X221267887Y-73550000D03*
D14*
%TO.P,INPUT-A-1,S*%
%TO.N,IAP*%
X226267887Y-68550000D03*
D13*
%TO.P,INPUT-A-1,T*%
%TO.N,IAN*%
X221267887Y-63550000D03*
%TD*%
D17*
%TO.N,GND*%
X194230000Y-58870000D03*
X193800000Y-65570000D03*
%TO.N,reset*%
X189380000Y-68050500D03*
%TO.N,ZX*%
X190660000Y-67404019D03*
%TO.N,IRQ*%
X198640000Y-58790000D03*
X196640000Y-60230000D03*
%TO.N,Net-(C12-Pad1)*%
X194980000Y-71440000D03*
%TO.N,Net-(C13-Pad1)*%
X195700500Y-64620000D03*
%TO.N,Net-(C12-Pad1)*%
X199326651Y-60232592D03*
%TO.N,Net-(C13-Pad1)*%
X199860000Y-58750000D03*
%TO.N,+3V3*%
X200680000Y-59600000D03*
X205700000Y-62610000D03*
%TD*%
D18*
%TO.N,+3V3*%
X198314888Y-68120226D02*
X198314888Y-70610000D01*
X203825114Y-62610000D02*
X198314888Y-68120226D01*
%TO.N,reset*%
X189380000Y-62880000D02*
X177555000Y-51055000D01*
X189380000Y-68050500D02*
X189380000Y-62880000D01*
%TO.N,ZX*%
X190610489Y-61570489D02*
X180095000Y-51055000D01*
X190610489Y-67354508D02*
X190610489Y-61570489D01*
X190660000Y-67404019D02*
X190610489Y-67354508D01*
%TO.N,Net-(C13-Pad1)*%
X199820000Y-58750000D02*
X199860000Y-58750000D01*
X195700500Y-62869500D02*
X199820000Y-58750000D01*
X195700500Y-64620000D02*
X195700500Y-62869500D01*
%TO.N,Net-(C12-Pad1)*%
X196400000Y-70020000D02*
X194980000Y-71440000D01*
X199326651Y-60232592D02*
X199227408Y-60232592D01*
X199227408Y-60232592D02*
X196400000Y-63060000D01*
X196400000Y-63060000D02*
X196400000Y-70020000D01*
%TO.N,IRQ*%
X198080000Y-58790000D02*
X198640000Y-58790000D01*
X196640000Y-60230000D02*
X198080000Y-58790000D01*
%TO.N,+3V3*%
X203825114Y-62610000D02*
X205700000Y-62610000D01*
X200680000Y-59600000D02*
X200815114Y-59600000D01*
X200815114Y-59600000D02*
X203825114Y-62610000D01*
%TD*%
%TA.AperFunction,Conductor*%
%TO.N,GND*%
G36*
X226013654Y-49526186D02*
G01*
X226071827Y-49545141D01*
X226107749Y-49594671D01*
X226107698Y-49655856D01*
X226071693Y-49705326D01*
X226030335Y-49722755D01*
X226023003Y-49724015D01*
X225973949Y-49732444D01*
X225784193Y-49802449D01*
X225610371Y-49905862D01*
X225606956Y-49908857D01*
X225606953Y-49908859D01*
X225590630Y-49923174D01*
X225458305Y-50039220D01*
X225449439Y-50050467D01*
X225337805Y-50192075D01*
X225333089Y-50198057D01*
X225238914Y-50377053D01*
X225237569Y-50381384D01*
X225237568Y-50381387D01*
X225180644Y-50564717D01*
X225178937Y-50570213D01*
X225155164Y-50771069D01*
X225155461Y-50775597D01*
X225156580Y-50792675D01*
X225168025Y-50967288D01*
X225168392Y-50972894D01*
X225218178Y-51168928D01*
X225302856Y-51352607D01*
X225419588Y-51517780D01*
X225564466Y-51658913D01*
X225732637Y-51771282D01*
X225918470Y-51851122D01*
X226115740Y-51895760D01*
X226317842Y-51903700D01*
X226371377Y-51895938D01*
X226513519Y-51875329D01*
X226513522Y-51875328D01*
X226518007Y-51874678D01*
X226622138Y-51839330D01*
X226705234Y-51811123D01*
X226705237Y-51811121D01*
X226709531Y-51809664D01*
X226886001Y-51710837D01*
X227041505Y-51581505D01*
X227170837Y-51426001D01*
X227269664Y-51249531D01*
X227272651Y-51240734D01*
X227307608Y-51137751D01*
X227334678Y-51058007D01*
X227345416Y-50983951D01*
X227363283Y-50860717D01*
X227363700Y-50857842D01*
X227365215Y-50800000D01*
X227364699Y-50794376D01*
X227348312Y-50616049D01*
X227346708Y-50598591D01*
X227291807Y-50403926D01*
X227284867Y-50389852D01*
X227204359Y-50226599D01*
X227202351Y-50222527D01*
X227096999Y-50081443D01*
X227084051Y-50064104D01*
X227084050Y-50064103D01*
X227081335Y-50060467D01*
X226932812Y-49923174D01*
X226910125Y-49908859D01*
X226765594Y-49817667D01*
X226761757Y-49815246D01*
X226573898Y-49740298D01*
X226485395Y-49722694D01*
X226432012Y-49692797D01*
X226406396Y-49637232D01*
X226418333Y-49577223D01*
X226463263Y-49535690D01*
X226504793Y-49526596D01*
X228478423Y-49528245D01*
X228536596Y-49547200D01*
X228572518Y-49596730D01*
X228572467Y-49657915D01*
X228536462Y-49707385D01*
X228505368Y-49722200D01*
X228503949Y-49722444D01*
X228314193Y-49792449D01*
X228140371Y-49895862D01*
X228136956Y-49898857D01*
X228136953Y-49898859D01*
X228038487Y-49985212D01*
X227988305Y-50029220D01*
X227985497Y-50032782D01*
X227869056Y-50180488D01*
X227863089Y-50188057D01*
X227768914Y-50367053D01*
X227767569Y-50371384D01*
X227767568Y-50371387D01*
X227737851Y-50467095D01*
X227708937Y-50560213D01*
X227685164Y-50761069D01*
X227686116Y-50775597D01*
X227686580Y-50782675D01*
X227691507Y-50857842D01*
X227698392Y-50962894D01*
X227748178Y-51158928D01*
X227832856Y-51342607D01*
X227949588Y-51507780D01*
X228094466Y-51648913D01*
X228262637Y-51761282D01*
X228448470Y-51841122D01*
X228645740Y-51885760D01*
X228847842Y-51893700D01*
X228901377Y-51885938D01*
X229043519Y-51865329D01*
X229043522Y-51865328D01*
X229048007Y-51864678D01*
X229172536Y-51822406D01*
X229235234Y-51801123D01*
X229235237Y-51801121D01*
X229239531Y-51799664D01*
X229398145Y-51710837D01*
X229412039Y-51703056D01*
X229412041Y-51703055D01*
X229416001Y-51700837D01*
X229571505Y-51571505D01*
X229700837Y-51416001D01*
X229799664Y-51239531D01*
X229864678Y-51048007D01*
X229876382Y-50967288D01*
X229893283Y-50850717D01*
X229893700Y-50847842D01*
X229895029Y-50797101D01*
X229895139Y-50792913D01*
X229895139Y-50792908D01*
X229895215Y-50790000D01*
X229893476Y-50771069D01*
X229880965Y-50634915D01*
X229876708Y-50588591D01*
X229821807Y-50393926D01*
X229815624Y-50381387D01*
X229771212Y-50291329D01*
X229732351Y-50212527D01*
X229630735Y-50076447D01*
X229614051Y-50054104D01*
X229614050Y-50054103D01*
X229611335Y-50050467D01*
X229462812Y-49913174D01*
X229455974Y-49908859D01*
X229295594Y-49807667D01*
X229291757Y-49805246D01*
X229103898Y-49730298D01*
X229076549Y-49724858D01*
X229023165Y-49694961D01*
X228997549Y-49639396D01*
X229009486Y-49579387D01*
X229054416Y-49537854D01*
X229095944Y-49528760D01*
X230468473Y-49529907D01*
X230526645Y-49548862D01*
X230562567Y-49598392D01*
X230567387Y-49628906D01*
X230567387Y-53300500D01*
X230548480Y-53358691D01*
X230498980Y-53394655D01*
X230468387Y-53399500D01*
X229802164Y-53399500D01*
X229779812Y-53396944D01*
X229768598Y-53394345D01*
X229767880Y-53394344D01*
X229761997Y-53395686D01*
X229761655Y-53395764D01*
X229750727Y-53397620D01*
X229638936Y-53410219D01*
X229638933Y-53410220D01*
X229633411Y-53410842D01*
X229621215Y-53415110D01*
X229510929Y-53453704D01*
X229510927Y-53453705D01*
X229505686Y-53455539D01*
X229500984Y-53458493D01*
X229500983Y-53458494D01*
X229395816Y-53524577D01*
X229395812Y-53524580D01*
X229391108Y-53527536D01*
X229295424Y-53623224D01*
X229292472Y-53627923D01*
X229292469Y-53627926D01*
X229253775Y-53689508D01*
X229223430Y-53737803D01*
X229204997Y-53790483D01*
X229184285Y-53849678D01*
X229178738Y-53865530D01*
X229176800Y-53882731D01*
X229165600Y-53982133D01*
X229164732Y-53987214D01*
X229164729Y-53988777D01*
X229162231Y-53999641D01*
X229164691Y-54010513D01*
X229164946Y-54011638D01*
X229167387Y-54033488D01*
X229167387Y-57565983D01*
X229164869Y-57588169D01*
X229162231Y-57599641D01*
X229164692Y-57610515D01*
X229164689Y-57612030D01*
X229165489Y-57616766D01*
X229178750Y-57734467D01*
X229180584Y-57739710D01*
X229180585Y-57739712D01*
X229198947Y-57792187D01*
X229223442Y-57862191D01*
X229295434Y-57976768D01*
X229391116Y-58072454D01*
X229395820Y-58075410D01*
X229395824Y-58075413D01*
X229439234Y-58102690D01*
X229505691Y-58144449D01*
X229510932Y-58146283D01*
X229510934Y-58146284D01*
X229628167Y-58187309D01*
X229633414Y-58189145D01*
X229638940Y-58189768D01*
X229638941Y-58189768D01*
X229749418Y-58202220D01*
X229760680Y-58204153D01*
X229761693Y-58204388D01*
X229761699Y-58204389D01*
X229767162Y-58205655D01*
X229767880Y-58205656D01*
X229779625Y-58202977D01*
X229801632Y-58200500D01*
X230468387Y-58200500D01*
X230526578Y-58219407D01*
X230562542Y-58268907D01*
X230567387Y-58299500D01*
X230567387Y-66050500D01*
X230548480Y-66108691D01*
X230498980Y-66144655D01*
X230468387Y-66149500D01*
X229802164Y-66149500D01*
X229779812Y-66146944D01*
X229768598Y-66144345D01*
X229767880Y-66144344D01*
X229761997Y-66145686D01*
X229761655Y-66145764D01*
X229750727Y-66147620D01*
X229638936Y-66160219D01*
X229638933Y-66160220D01*
X229633411Y-66160842D01*
X229604495Y-66170961D01*
X229510929Y-66203704D01*
X229510927Y-66203705D01*
X229505686Y-66205539D01*
X229500984Y-66208493D01*
X229500983Y-66208494D01*
X229395816Y-66274577D01*
X229395812Y-66274580D01*
X229391108Y-66277536D01*
X229295424Y-66373224D01*
X229292472Y-66377923D01*
X229292469Y-66377926D01*
X229229398Y-66478305D01*
X229223430Y-66487803D01*
X229204997Y-66540483D01*
X229183159Y-66602896D01*
X229178738Y-66615530D01*
X229176800Y-66632731D01*
X229165600Y-66732133D01*
X229164732Y-66737214D01*
X229164729Y-66738777D01*
X229162231Y-66749641D01*
X229164691Y-66760513D01*
X229164946Y-66761638D01*
X229167387Y-66783488D01*
X229167387Y-70315983D01*
X229164869Y-70338169D01*
X229162231Y-70349641D01*
X229164692Y-70360515D01*
X229164689Y-70362030D01*
X229165489Y-70366766D01*
X229178750Y-70484467D01*
X229180584Y-70489710D01*
X229180585Y-70489712D01*
X229198947Y-70542187D01*
X229223442Y-70612191D01*
X229295434Y-70726768D01*
X229391116Y-70822454D01*
X229395820Y-70825410D01*
X229395824Y-70825413D01*
X229500988Y-70891494D01*
X229505691Y-70894449D01*
X229510932Y-70896283D01*
X229510934Y-70896284D01*
X229591713Y-70924552D01*
X229633414Y-70939145D01*
X229638940Y-70939768D01*
X229638941Y-70939768D01*
X229749418Y-70952220D01*
X229760680Y-70954153D01*
X229761693Y-70954388D01*
X229761699Y-70954389D01*
X229767162Y-70955655D01*
X229767880Y-70955656D01*
X229779625Y-70952977D01*
X229801632Y-70950500D01*
X230468387Y-70950500D01*
X230526578Y-70969407D01*
X230562542Y-71018907D01*
X230567387Y-71049500D01*
X230567387Y-74741094D01*
X230548480Y-74799285D01*
X230498980Y-74835249D01*
X230468474Y-74840093D01*
X229088102Y-74841248D01*
X229029897Y-74822390D01*
X228993892Y-74772920D01*
X228993841Y-74711735D01*
X229029763Y-74662205D01*
X229056198Y-74648503D01*
X229225234Y-74591123D01*
X229225237Y-74591121D01*
X229229531Y-74589664D01*
X229406001Y-74490837D01*
X229561505Y-74361505D01*
X229690837Y-74206001D01*
X229789664Y-74029531D01*
X229801307Y-73995234D01*
X229853219Y-73842304D01*
X229854678Y-73838007D01*
X229859679Y-73803519D01*
X229881047Y-73656137D01*
X229883700Y-73637842D01*
X229885215Y-73580000D01*
X229882459Y-73550000D01*
X229867123Y-73383109D01*
X229866708Y-73378591D01*
X229811807Y-73183926D01*
X229722351Y-73002527D01*
X229601335Y-72840467D01*
X229452812Y-72703174D01*
X229430125Y-72688859D01*
X229285594Y-72597667D01*
X229281757Y-72595246D01*
X229093898Y-72520298D01*
X228895526Y-72480839D01*
X228795930Y-72479535D01*
X228697826Y-72478251D01*
X228697821Y-72478251D01*
X228693286Y-72478192D01*
X228688813Y-72478961D01*
X228688808Y-72478961D01*
X228590245Y-72495898D01*
X228493949Y-72512444D01*
X228304193Y-72582449D01*
X228130371Y-72685862D01*
X228126956Y-72688857D01*
X228126953Y-72688859D01*
X228110630Y-72703174D01*
X227978305Y-72819220D01*
X227975497Y-72822782D01*
X227890915Y-72930075D01*
X227853089Y-72978057D01*
X227758914Y-73157053D01*
X227757569Y-73161384D01*
X227757568Y-73161387D01*
X227706854Y-73324717D01*
X227698937Y-73350213D01*
X227688982Y-73434320D01*
X227676158Y-73542675D01*
X227675164Y-73551069D01*
X227675461Y-73555597D01*
X227676580Y-73572675D01*
X227686714Y-73727288D01*
X227688392Y-73752894D01*
X227689508Y-73757288D01*
X227722587Y-73887536D01*
X227738178Y-73948928D01*
X227822856Y-74132607D01*
X227939588Y-74297780D01*
X228084466Y-74438913D01*
X228252637Y-74551282D01*
X228438470Y-74631122D01*
X228498732Y-74644758D01*
X228505087Y-74646196D01*
X228557670Y-74677480D01*
X228581823Y-74733696D01*
X228568319Y-74793373D01*
X228522317Y-74833715D01*
X228483323Y-74841755D01*
X226391587Y-74843505D01*
X226333380Y-74824646D01*
X226297375Y-74775176D01*
X226297324Y-74713991D01*
X226333246Y-74664461D01*
X226377298Y-74646529D01*
X226483563Y-74631122D01*
X226523518Y-74625329D01*
X226523519Y-74625329D01*
X226528007Y-74624678D01*
X226637691Y-74587445D01*
X226715234Y-74561123D01*
X226715237Y-74561121D01*
X226719531Y-74559664D01*
X226896001Y-74460837D01*
X227051505Y-74331505D01*
X227180837Y-74176001D01*
X227279664Y-73999531D01*
X227296842Y-73948928D01*
X227317681Y-73887536D01*
X227344678Y-73808007D01*
X227356262Y-73728116D01*
X227373283Y-73610717D01*
X227373700Y-73607842D01*
X227374621Y-73572675D01*
X227375139Y-73552913D01*
X227375139Y-73552908D01*
X227375215Y-73550000D01*
X227374900Y-73546565D01*
X227357123Y-73353109D01*
X227356708Y-73348591D01*
X227301807Y-73153926D01*
X227212351Y-72972527D01*
X227091335Y-72810467D01*
X226942812Y-72673174D01*
X226920125Y-72658859D01*
X226775594Y-72567667D01*
X226771757Y-72565246D01*
X226583898Y-72490298D01*
X226385526Y-72450839D01*
X226285930Y-72449535D01*
X226187826Y-72448251D01*
X226187821Y-72448251D01*
X226183286Y-72448192D01*
X226178813Y-72448961D01*
X226178808Y-72448961D01*
X226080245Y-72465898D01*
X225983949Y-72482444D01*
X225794193Y-72552449D01*
X225620371Y-72655862D01*
X225616956Y-72658857D01*
X225616953Y-72658859D01*
X225600630Y-72673174D01*
X225468305Y-72789220D01*
X225465497Y-72792782D01*
X225357265Y-72930075D01*
X225343089Y-72948057D01*
X225248914Y-73127053D01*
X225247569Y-73131384D01*
X225247568Y-73131387D01*
X225222394Y-73212464D01*
X225188937Y-73320213D01*
X225165164Y-73521069D01*
X225165461Y-73525597D01*
X225166580Y-73542675D01*
X225174635Y-73665568D01*
X225178392Y-73722894D01*
X225179508Y-73727288D01*
X225225299Y-73907590D01*
X225228178Y-73918928D01*
X225312856Y-74102607D01*
X225429588Y-74267780D01*
X225574466Y-74408913D01*
X225742637Y-74521282D01*
X225928470Y-74601122D01*
X226125740Y-74645760D01*
X226130276Y-74645938D01*
X226134777Y-74646531D01*
X226134504Y-74648607D01*
X226184315Y-74666983D01*
X226218308Y-74717857D01*
X226215906Y-74778995D01*
X226178027Y-74827045D01*
X226123109Y-74843730D01*
X202716961Y-74863316D01*
X202205910Y-74863744D01*
X202205876Y-74863744D01*
X170928575Y-74879342D01*
X170870375Y-74860464D01*
X170834387Y-74810982D01*
X170829527Y-74780771D01*
X170829035Y-74666983D01*
X170824677Y-73660348D01*
X219975034Y-73660348D01*
X219981027Y-73717372D01*
X219983389Y-73728116D01*
X220037660Y-73887536D01*
X220042347Y-73897496D01*
X220130588Y-74040931D01*
X220137360Y-74049599D01*
X220255193Y-74169925D01*
X220263716Y-74176876D01*
X220405278Y-74268108D01*
X220415124Y-74272995D01*
X220573383Y-74330596D01*
X220584077Y-74333183D01*
X220714112Y-74349610D01*
X220720300Y-74350000D01*
X221152207Y-74350000D01*
X221164892Y-74345878D01*
X221167887Y-74341757D01*
X221167887Y-74334320D01*
X221367887Y-74334320D01*
X221372009Y-74347005D01*
X221376130Y-74350000D01*
X221810243Y-74350000D01*
X221815772Y-74349691D01*
X221940742Y-74335673D01*
X221951479Y-74333234D01*
X222110516Y-74277851D01*
X222120435Y-74273099D01*
X222263257Y-74183854D01*
X222271874Y-74177024D01*
X222391375Y-74058355D01*
X222398269Y-74049779D01*
X222488506Y-73907590D01*
X222493328Y-73897704D01*
X222549823Y-73739046D01*
X222552333Y-73728347D01*
X222559819Y-73665568D01*
X222557228Y-73652486D01*
X222555672Y-73651045D01*
X222550918Y-73650000D01*
X221383567Y-73650000D01*
X221370882Y-73654122D01*
X221367887Y-73658243D01*
X221367887Y-74334320D01*
X221167887Y-74334320D01*
X221167887Y-73665680D01*
X221163765Y-73652995D01*
X221159644Y-73650000D01*
X219989626Y-73650000D01*
X219976941Y-73654122D01*
X219975476Y-73656137D01*
X219975034Y-73660348D01*
X170824677Y-73660348D01*
X170823699Y-73434432D01*
X219975955Y-73434432D01*
X219978546Y-73447514D01*
X219980102Y-73448955D01*
X219984856Y-73450000D01*
X221152207Y-73450000D01*
X221164892Y-73445878D01*
X221167887Y-73441757D01*
X221167887Y-73434320D01*
X221367887Y-73434320D01*
X221372009Y-73447005D01*
X221376130Y-73450000D01*
X222546148Y-73450000D01*
X222558833Y-73445878D01*
X222560298Y-73443863D01*
X222560740Y-73439652D01*
X222554747Y-73382628D01*
X222552385Y-73371884D01*
X222498114Y-73212464D01*
X222493427Y-73202504D01*
X222405186Y-73059069D01*
X222398414Y-73050401D01*
X222280581Y-72930075D01*
X222272058Y-72923124D01*
X222130496Y-72831892D01*
X222120650Y-72827005D01*
X221962391Y-72769404D01*
X221951697Y-72766817D01*
X221821662Y-72750390D01*
X221815474Y-72750000D01*
X221383567Y-72750000D01*
X221370882Y-72754122D01*
X221367887Y-72758243D01*
X221367887Y-73434320D01*
X221167887Y-73434320D01*
X221167887Y-72765680D01*
X221163765Y-72752995D01*
X221159644Y-72750000D01*
X220725531Y-72750000D01*
X220720002Y-72750309D01*
X220595032Y-72764327D01*
X220584295Y-72766766D01*
X220425258Y-72822149D01*
X220415339Y-72826901D01*
X220272517Y-72916146D01*
X220263900Y-72922976D01*
X220144399Y-73041645D01*
X220137505Y-73050221D01*
X220047268Y-73192410D01*
X220042446Y-73202296D01*
X219985951Y-73360954D01*
X219983441Y-73371653D01*
X219975955Y-73434432D01*
X170823699Y-73434432D01*
X170818160Y-72154840D01*
X176520000Y-72154840D01*
X176520948Y-72164462D01*
X176529702Y-72208474D01*
X176537021Y-72226142D01*
X176570389Y-72276082D01*
X176583918Y-72289611D01*
X176633858Y-72322979D01*
X176651526Y-72330298D01*
X176695538Y-72339052D01*
X176705160Y-72340000D01*
X177454320Y-72340000D01*
X177467005Y-72335878D01*
X177470000Y-72331757D01*
X177470000Y-72324320D01*
X177670000Y-72324320D01*
X177674122Y-72337005D01*
X177678243Y-72340000D01*
X178434840Y-72340000D01*
X178444462Y-72339052D01*
X178488474Y-72330298D01*
X178506142Y-72322979D01*
X178556082Y-72289611D01*
X178569611Y-72276082D01*
X178602979Y-72226142D01*
X178610298Y-72208474D01*
X178619052Y-72164462D01*
X178620000Y-72154840D01*
X181600000Y-72154840D01*
X181600948Y-72164462D01*
X181609702Y-72208474D01*
X181617021Y-72226142D01*
X181650389Y-72276082D01*
X181663918Y-72289611D01*
X181713858Y-72322979D01*
X181731526Y-72330298D01*
X181775538Y-72339052D01*
X181785160Y-72340000D01*
X182534320Y-72340000D01*
X182547005Y-72335878D01*
X182550000Y-72331757D01*
X182550000Y-72324320D01*
X182750000Y-72324320D01*
X182754122Y-72337005D01*
X182758243Y-72340000D01*
X183514840Y-72340000D01*
X183524462Y-72339052D01*
X183568474Y-72330298D01*
X183586142Y-72322979D01*
X183636082Y-72289611D01*
X183649611Y-72276082D01*
X183682979Y-72226142D01*
X183690298Y-72208474D01*
X183699052Y-72164462D01*
X183700000Y-72154840D01*
X183700000Y-71440000D01*
X194374318Y-71440000D01*
X194394956Y-71596762D01*
X194455464Y-71742841D01*
X194551718Y-71868282D01*
X194677159Y-71964536D01*
X194823238Y-72025044D01*
X194980000Y-72045682D01*
X195136762Y-72025044D01*
X195282841Y-71964536D01*
X195408282Y-71868282D01*
X195504536Y-71742841D01*
X195565044Y-71596762D01*
X195585682Y-71440000D01*
X195575144Y-71359958D01*
X195586294Y-71299799D01*
X195603293Y-71277033D01*
X196103719Y-70776608D01*
X196617069Y-70263258D01*
X196623424Y-70257435D01*
X196653194Y-70232455D01*
X196672636Y-70198781D01*
X196677261Y-70191522D01*
X196694587Y-70166778D01*
X196694587Y-70166777D01*
X196699554Y-70159684D01*
X196701795Y-70151322D01*
X196704258Y-70146040D01*
X196706257Y-70140546D01*
X196710588Y-70133045D01*
X196717337Y-70094771D01*
X196719206Y-70086344D01*
X196727022Y-70057173D01*
X196727022Y-70057170D01*
X196729263Y-70048807D01*
X196725877Y-70010103D01*
X196725500Y-70001475D01*
X196725500Y-63235834D01*
X196744407Y-63177643D01*
X196754496Y-63165830D01*
X199077166Y-60843160D01*
X199131683Y-60815383D01*
X199169195Y-60817349D01*
X199169889Y-60817636D01*
X199176323Y-60818483D01*
X199306963Y-60835682D01*
X199326651Y-60838274D01*
X199483413Y-60817636D01*
X199629492Y-60757128D01*
X199754933Y-60660874D01*
X199851187Y-60535433D01*
X199911695Y-60389354D01*
X199932333Y-60232592D01*
X199930228Y-60216599D01*
X199926073Y-60185044D01*
X199911695Y-60075830D01*
X199851187Y-59929751D01*
X199754933Y-59804310D01*
X199629492Y-59708056D01*
X199623501Y-59705574D01*
X199623495Y-59705571D01*
X199549140Y-59674773D01*
X199502614Y-59635037D01*
X199488330Y-59575542D01*
X199511745Y-59519014D01*
X199517021Y-59513305D01*
X199661686Y-59368640D01*
X199716203Y-59340863D01*
X199744612Y-59340491D01*
X199860000Y-59355682D01*
X199982915Y-59339500D01*
X200043076Y-59350650D01*
X200085193Y-59395032D01*
X200093990Y-59450575D01*
X200085000Y-59518863D01*
X200074318Y-59600000D01*
X200094956Y-59756762D01*
X200155464Y-59902841D01*
X200251718Y-60028282D01*
X200377159Y-60124536D01*
X200455285Y-60156897D01*
X200511474Y-60180171D01*
X200523238Y-60185044D01*
X200680000Y-60205682D01*
X200836762Y-60185044D01*
X200848526Y-60180171D01*
X200909523Y-60175369D01*
X200956418Y-60201630D01*
X203294784Y-62539996D01*
X203322561Y-62594513D01*
X203312990Y-62654945D01*
X203294784Y-62680004D01*
X198097831Y-67876957D01*
X198091464Y-67882791D01*
X198061694Y-67907771D01*
X198057365Y-67915270D01*
X198042261Y-67941431D01*
X198037620Y-67948715D01*
X198015334Y-67980542D01*
X198013092Y-67988910D01*
X198010626Y-67994197D01*
X198008630Y-67999682D01*
X198004300Y-68007181D01*
X198002797Y-68015707D01*
X198002796Y-68015709D01*
X197997554Y-68045442D01*
X197995684Y-68053876D01*
X197985624Y-68091419D01*
X197986379Y-68100048D01*
X197989011Y-68130131D01*
X197989388Y-68138760D01*
X197989388Y-69510500D01*
X197970481Y-69568691D01*
X197920981Y-69604655D01*
X197890388Y-69609500D01*
X197495140Y-69609500D01*
X197469108Y-69614678D01*
X197446222Y-69619230D01*
X197446220Y-69619231D01*
X197436657Y-69621133D01*
X197370336Y-69665448D01*
X197326021Y-69731769D01*
X197314388Y-69790252D01*
X197314388Y-71429748D01*
X197326021Y-71488231D01*
X197370336Y-71554552D01*
X197436657Y-71598867D01*
X197446220Y-71600769D01*
X197446222Y-71600770D01*
X197468893Y-71605279D01*
X197495140Y-71610500D01*
X199134636Y-71610500D01*
X199160883Y-71605279D01*
X199183554Y-71600770D01*
X199183556Y-71600769D01*
X199193119Y-71598867D01*
X199259440Y-71554552D01*
X199303755Y-71488231D01*
X199315388Y-71429748D01*
X199315388Y-71385241D01*
X199686898Y-71385241D01*
X199687388Y-71388340D01*
X199689324Y-71390792D01*
X199737726Y-71431985D01*
X199745640Y-71437486D01*
X199908376Y-71528435D01*
X199917204Y-71532292D01*
X200094515Y-71589904D01*
X200103915Y-71591971D01*
X200289043Y-71614046D01*
X200298669Y-71614248D01*
X200484547Y-71599945D01*
X200494041Y-71598271D01*
X200673593Y-71548139D01*
X200682590Y-71544649D01*
X200848986Y-71460597D01*
X200857121Y-71455435D01*
X200889999Y-71429748D01*
X202944388Y-71429748D01*
X202956021Y-71488231D01*
X203000336Y-71554552D01*
X203066657Y-71598867D01*
X203076220Y-71600769D01*
X203076222Y-71600770D01*
X203098893Y-71605279D01*
X203125140Y-71610500D01*
X204764636Y-71610500D01*
X204790883Y-71605279D01*
X204813554Y-71600770D01*
X204813556Y-71600769D01*
X204823119Y-71598867D01*
X204889440Y-71554552D01*
X204933755Y-71488231D01*
X204945388Y-71429748D01*
X204945388Y-71385241D01*
X205316898Y-71385241D01*
X205317388Y-71388340D01*
X205319324Y-71390792D01*
X205367726Y-71431985D01*
X205375640Y-71437486D01*
X205538376Y-71528435D01*
X205547204Y-71532292D01*
X205724515Y-71589904D01*
X205733915Y-71591971D01*
X205919043Y-71614046D01*
X205928669Y-71614248D01*
X206114547Y-71599945D01*
X206124041Y-71598271D01*
X206303593Y-71548139D01*
X206312590Y-71544649D01*
X206478986Y-71460597D01*
X206487121Y-71455435D01*
X206565587Y-71394130D01*
X206573046Y-71383073D01*
X206572975Y-71381045D01*
X206570279Y-71376813D01*
X205955974Y-70762507D01*
X205944091Y-70756453D01*
X205939060Y-70757249D01*
X205322952Y-71373358D01*
X205316898Y-71385241D01*
X204945388Y-71385241D01*
X204945388Y-71243227D01*
X204964295Y-71185036D01*
X205013795Y-71149072D01*
X205074981Y-71149072D01*
X205121974Y-71181734D01*
X205160763Y-71230674D01*
X205171874Y-71238056D01*
X205174084Y-71237963D01*
X205178046Y-71235420D01*
X205792381Y-70621086D01*
X205797623Y-70610797D01*
X206091341Y-70610797D01*
X206092137Y-70615828D01*
X206708362Y-71232052D01*
X206720245Y-71238106D01*
X206723527Y-71237587D01*
X206725732Y-71235858D01*
X206762822Y-71192888D01*
X206768381Y-71185007D01*
X206860465Y-71022911D01*
X206864381Y-71014116D01*
X206923229Y-70837212D01*
X206925363Y-70827818D01*
X206935857Y-70744748D01*
X215387387Y-70744748D01*
X215399020Y-70803231D01*
X215443335Y-70869552D01*
X215509656Y-70913867D01*
X215519219Y-70915769D01*
X215519221Y-70915770D01*
X215541892Y-70920279D01*
X215568139Y-70925500D01*
X217307635Y-70925500D01*
X217333882Y-70920279D01*
X217356553Y-70915770D01*
X217356555Y-70915769D01*
X217366118Y-70913867D01*
X217432439Y-70869552D01*
X217476754Y-70803231D01*
X217488387Y-70744748D01*
X217488387Y-69005252D01*
X217476754Y-68946769D01*
X217432439Y-68880448D01*
X217366118Y-68836133D01*
X217356555Y-68834231D01*
X217356553Y-68834230D01*
X217333882Y-68829721D01*
X217307635Y-68824500D01*
X215568139Y-68824500D01*
X215541892Y-68829721D01*
X215519221Y-68834230D01*
X215519219Y-68834231D01*
X215509656Y-68836133D01*
X215443335Y-68880448D01*
X215399020Y-68946769D01*
X215387387Y-69005252D01*
X215387387Y-70744748D01*
X206935857Y-70744748D01*
X206948987Y-70640810D01*
X206949374Y-70635283D01*
X206949688Y-70612759D01*
X206949458Y-70607261D01*
X206931062Y-70419636D01*
X206929193Y-70410198D01*
X206875306Y-70231718D01*
X206871636Y-70222814D01*
X206784112Y-70058204D01*
X206778779Y-70050178D01*
X206729103Y-69989269D01*
X206717891Y-69982044D01*
X206715310Y-69982188D01*
X206711897Y-69984413D01*
X206097395Y-70598914D01*
X206091341Y-70610797D01*
X205797623Y-70610797D01*
X205798435Y-70609203D01*
X205797639Y-70604172D01*
X205181611Y-69988145D01*
X205169728Y-69982091D01*
X205166811Y-69982553D01*
X205164118Y-69984695D01*
X205120226Y-70037003D01*
X205068338Y-70069426D01*
X205007302Y-70065158D01*
X204960431Y-70025829D01*
X204945388Y-69973367D01*
X204945388Y-69837008D01*
X205316899Y-69837008D01*
X205317017Y-69839405D01*
X205319402Y-69843092D01*
X205933802Y-70457493D01*
X205945685Y-70463547D01*
X205950716Y-70462751D01*
X206566696Y-69846770D01*
X206572750Y-69834887D01*
X206572317Y-69832153D01*
X206569966Y-69829218D01*
X206510520Y-69780039D01*
X206502526Y-69774647D01*
X206338533Y-69685976D01*
X206329662Y-69682247D01*
X206151561Y-69627116D01*
X206142127Y-69625179D01*
X205956719Y-69605691D01*
X205947081Y-69605624D01*
X205761420Y-69622520D01*
X205751954Y-69624326D01*
X205573116Y-69676962D01*
X205564175Y-69680575D01*
X205398972Y-69766940D01*
X205390896Y-69772225D01*
X205324202Y-69825849D01*
X205316899Y-69837008D01*
X204945388Y-69837008D01*
X204945388Y-69790252D01*
X204933755Y-69731769D01*
X204889440Y-69665448D01*
X204823119Y-69621133D01*
X204813556Y-69619231D01*
X204813554Y-69619230D01*
X204790668Y-69614678D01*
X204764636Y-69609500D01*
X203125140Y-69609500D01*
X203099108Y-69614678D01*
X203076222Y-69619230D01*
X203076220Y-69619231D01*
X203066657Y-69621133D01*
X203000336Y-69665448D01*
X202956021Y-69731769D01*
X202944388Y-69790252D01*
X202944388Y-71429748D01*
X200889999Y-71429748D01*
X200935587Y-71394130D01*
X200943046Y-71383073D01*
X200942975Y-71381045D01*
X200940279Y-71376813D01*
X200325974Y-70762507D01*
X200314091Y-70756453D01*
X200309060Y-70757249D01*
X199692952Y-71373358D01*
X199686898Y-71385241D01*
X199315388Y-71385241D01*
X199315388Y-71243227D01*
X199334295Y-71185036D01*
X199383795Y-71149072D01*
X199444981Y-71149072D01*
X199491974Y-71181734D01*
X199530763Y-71230674D01*
X199541874Y-71238056D01*
X199544084Y-71237963D01*
X199548046Y-71235420D01*
X200162381Y-70621086D01*
X200167623Y-70610797D01*
X200461341Y-70610797D01*
X200462137Y-70615828D01*
X201078362Y-71232052D01*
X201090245Y-71238106D01*
X201093527Y-71237587D01*
X201095732Y-71235858D01*
X201132822Y-71192888D01*
X201138381Y-71185007D01*
X201230465Y-71022911D01*
X201234381Y-71014116D01*
X201293229Y-70837212D01*
X201295363Y-70827818D01*
X201318987Y-70640810D01*
X201319374Y-70635283D01*
X201319688Y-70612759D01*
X201319458Y-70607261D01*
X201301062Y-70419636D01*
X201299193Y-70410198D01*
X201245306Y-70231718D01*
X201241636Y-70222814D01*
X201154112Y-70058204D01*
X201148779Y-70050178D01*
X201099103Y-69989269D01*
X201087891Y-69982044D01*
X201085310Y-69982188D01*
X201081897Y-69984413D01*
X200467395Y-70598914D01*
X200461341Y-70610797D01*
X200167623Y-70610797D01*
X200168435Y-70609203D01*
X200167639Y-70604172D01*
X199551611Y-69988145D01*
X199539728Y-69982091D01*
X199536811Y-69982553D01*
X199534118Y-69984695D01*
X199490226Y-70037003D01*
X199438338Y-70069426D01*
X199377302Y-70065158D01*
X199330431Y-70025829D01*
X199315388Y-69973367D01*
X199315388Y-69837008D01*
X199686899Y-69837008D01*
X199687017Y-69839405D01*
X199689402Y-69843092D01*
X200303802Y-70457493D01*
X200315685Y-70463547D01*
X200320716Y-70462751D01*
X200936696Y-69846770D01*
X200942750Y-69834887D01*
X200942317Y-69832153D01*
X200939966Y-69829218D01*
X200880520Y-69780039D01*
X200872526Y-69774647D01*
X200708533Y-69685976D01*
X200699662Y-69682247D01*
X200521561Y-69627116D01*
X200512127Y-69625179D01*
X200326719Y-69605691D01*
X200317081Y-69605624D01*
X200131420Y-69622520D01*
X200121954Y-69624326D01*
X199943116Y-69676962D01*
X199934175Y-69680575D01*
X199768972Y-69766940D01*
X199760896Y-69772225D01*
X199694202Y-69825849D01*
X199686899Y-69837008D01*
X199315388Y-69837008D01*
X199315388Y-69790252D01*
X199303755Y-69731769D01*
X199259440Y-69665448D01*
X199193119Y-69621133D01*
X199183556Y-69619231D01*
X199183554Y-69619230D01*
X199160668Y-69614678D01*
X199134636Y-69609500D01*
X198739388Y-69609500D01*
X198681197Y-69590593D01*
X198645233Y-69541093D01*
X198640388Y-69510500D01*
X198640388Y-68511069D01*
X220175164Y-68511069D01*
X220175461Y-68515597D01*
X220176580Y-68532675D01*
X220181040Y-68600717D01*
X220188392Y-68712894D01*
X220238178Y-68908928D01*
X220322856Y-69092607D01*
X220439588Y-69257780D01*
X220584466Y-69398913D01*
X220752637Y-69511282D01*
X220938470Y-69591122D01*
X221135740Y-69635760D01*
X221337842Y-69643700D01*
X221347651Y-69642278D01*
X221533519Y-69615329D01*
X221533522Y-69615328D01*
X221538007Y-69614678D01*
X221655946Y-69574643D01*
X221725234Y-69551123D01*
X221725237Y-69551121D01*
X221729531Y-69549664D01*
X221906001Y-69450837D01*
X222061505Y-69321505D01*
X222070403Y-69310807D01*
X222138880Y-69228472D01*
X222190837Y-69166001D01*
X222197041Y-69154924D01*
X222229136Y-69097612D01*
X222230512Y-69095155D01*
X225467387Y-69095155D01*
X225482341Y-69228472D01*
X225484163Y-69233704D01*
X225527612Y-69358472D01*
X225541402Y-69398073D01*
X225550625Y-69412833D01*
X225615970Y-69517406D01*
X225636571Y-69550375D01*
X225645276Y-69559141D01*
X225758898Y-69673558D01*
X225763117Y-69677807D01*
X225767791Y-69680773D01*
X225767792Y-69680774D01*
X225877934Y-69750672D01*
X225914751Y-69774037D01*
X225919962Y-69775893D01*
X225919963Y-69775893D01*
X225933412Y-69780682D01*
X226083936Y-69834281D01*
X226089423Y-69834935D01*
X226089426Y-69834936D01*
X226256767Y-69854890D01*
X226256770Y-69854890D01*
X226262263Y-69855545D01*
X226440870Y-69836773D01*
X226446110Y-69834989D01*
X226446111Y-69834989D01*
X226605638Y-69780682D01*
X226605642Y-69780680D01*
X226610880Y-69778897D01*
X226615590Y-69775999D01*
X226615595Y-69775997D01*
X226759133Y-69687691D01*
X226763842Y-69684794D01*
X226845678Y-69604655D01*
X226888202Y-69563012D01*
X226892155Y-69559141D01*
X226989441Y-69408183D01*
X227050865Y-69239422D01*
X227068387Y-69100717D01*
X227068387Y-68004845D01*
X227067791Y-67999527D01*
X227061914Y-67947138D01*
X227053433Y-67871528D01*
X227018048Y-67769915D01*
X226996192Y-67707153D01*
X226996192Y-67707152D01*
X226994372Y-67701927D01*
X226959339Y-67645862D01*
X226902134Y-67554315D01*
X226902132Y-67554313D01*
X226899203Y-67549625D01*
X226792053Y-67441725D01*
X226776558Y-67426121D01*
X226776556Y-67426120D01*
X226772657Y-67422193D01*
X226767742Y-67419074D01*
X226625697Y-67328929D01*
X226625696Y-67328928D01*
X226621023Y-67325963D01*
X226451838Y-67265719D01*
X226446351Y-67265065D01*
X226446348Y-67265064D01*
X226279007Y-67245110D01*
X226279004Y-67245110D01*
X226273511Y-67244455D01*
X226094904Y-67263227D01*
X226089664Y-67265011D01*
X226089663Y-67265011D01*
X225930136Y-67319318D01*
X225930132Y-67319320D01*
X225924894Y-67321103D01*
X225920184Y-67324001D01*
X225920179Y-67324003D01*
X225800574Y-67397585D01*
X225771932Y-67415206D01*
X225643619Y-67540859D01*
X225546333Y-67691817D01*
X225484909Y-67860578D01*
X225467387Y-67999283D01*
X225467387Y-69095155D01*
X222230512Y-69095155D01*
X222289664Y-68989531D01*
X222293219Y-68979060D01*
X222353219Y-68802304D01*
X222354678Y-68798007D01*
X222357768Y-68776699D01*
X222378111Y-68636391D01*
X222383700Y-68597842D01*
X222385215Y-68540000D01*
X222384788Y-68535345D01*
X222367975Y-68352380D01*
X222366708Y-68338591D01*
X222311807Y-68143926D01*
X222222351Y-67962527D01*
X222101335Y-67800467D01*
X221952812Y-67663174D01*
X221930125Y-67648859D01*
X221785594Y-67557667D01*
X221781757Y-67555246D01*
X221593898Y-67480298D01*
X221395526Y-67440839D01*
X221295930Y-67439535D01*
X221197826Y-67438251D01*
X221197821Y-67438251D01*
X221193286Y-67438192D01*
X221188813Y-67438961D01*
X221188808Y-67438961D01*
X221090245Y-67455898D01*
X220993949Y-67472444D01*
X220804193Y-67542449D01*
X220800290Y-67544771D01*
X220792131Y-67549625D01*
X220630371Y-67645862D01*
X220626956Y-67648857D01*
X220626953Y-67648859D01*
X220536829Y-67727896D01*
X220478305Y-67779220D01*
X220475497Y-67782782D01*
X220360580Y-67928555D01*
X220353089Y-67938057D01*
X220258914Y-68117053D01*
X220257569Y-68121384D01*
X220257568Y-68121387D01*
X220203332Y-68296060D01*
X220198937Y-68310213D01*
X220175164Y-68511069D01*
X198640388Y-68511069D01*
X198640388Y-68296060D01*
X198659295Y-68237869D01*
X198669384Y-68226056D01*
X199575178Y-67320262D01*
X215382407Y-67320262D01*
X215382812Y-67325082D01*
X215395772Y-67479414D01*
X215399646Y-67525553D01*
X215400979Y-67530201D01*
X215400979Y-67530202D01*
X215433478Y-67643538D01*
X215456431Y-67723586D01*
X215550599Y-67906818D01*
X215678564Y-68068270D01*
X215682244Y-68071402D01*
X215682246Y-68071404D01*
X215756314Y-68134440D01*
X215835451Y-68201791D01*
X215839674Y-68204151D01*
X215839678Y-68204154D01*
X215930750Y-68255052D01*
X216015285Y-68302297D01*
X216019883Y-68303791D01*
X216206611Y-68364463D01*
X216206613Y-68364464D01*
X216211216Y-68365959D01*
X216415781Y-68390351D01*
X216420603Y-68389980D01*
X216420606Y-68389980D01*
X216488428Y-68384761D01*
X216621187Y-68374546D01*
X216819612Y-68319145D01*
X216823925Y-68316966D01*
X216823931Y-68316964D01*
X216999176Y-68228441D01*
X216999178Y-68228440D01*
X217003497Y-68226258D01*
X217038830Y-68198653D01*
X217162022Y-68102406D01*
X217162026Y-68102402D01*
X217165838Y-68099424D01*
X217208758Y-68049701D01*
X217248969Y-68003115D01*
X217300451Y-67943472D01*
X217303527Y-67938057D01*
X217399821Y-67768550D01*
X217399822Y-67768547D01*
X217402210Y-67764344D01*
X217405767Y-67753654D01*
X217465711Y-67573454D01*
X217465711Y-67573452D01*
X217467238Y-67568863D01*
X217468653Y-67557667D01*
X217492710Y-67367228D01*
X217493058Y-67364474D01*
X217493470Y-67335000D01*
X217492392Y-67324003D01*
X217473839Y-67134780D01*
X217473838Y-67134776D01*
X217473367Y-67129970D01*
X217465358Y-67103441D01*
X217426801Y-66975737D01*
X217413822Y-66932749D01*
X217317105Y-66750849D01*
X217186898Y-66591200D01*
X217149490Y-66560253D01*
X217031889Y-66462965D01*
X217031887Y-66462964D01*
X217028162Y-66459882D01*
X216846942Y-66361897D01*
X216783742Y-66342333D01*
X216654762Y-66302407D01*
X216654758Y-66302406D01*
X216650141Y-66300977D01*
X216645333Y-66300472D01*
X216645330Y-66300471D01*
X216450072Y-66279949D01*
X216450070Y-66279949D01*
X216445256Y-66279443D01*
X216385241Y-66284905D01*
X216244909Y-66297675D01*
X216244904Y-66297676D01*
X216240090Y-66298114D01*
X216042459Y-66356280D01*
X216038175Y-66358519D01*
X216038174Y-66358520D01*
X216027315Y-66364197D01*
X215859889Y-66451726D01*
X215856118Y-66454758D01*
X215703107Y-66577781D01*
X215703104Y-66577783D01*
X215699334Y-66580815D01*
X215696220Y-66584526D01*
X215696219Y-66584527D01*
X215572363Y-66732133D01*
X215566911Y-66738630D01*
X215564576Y-66742878D01*
X215564575Y-66742879D01*
X215557842Y-66755126D01*
X215467663Y-66919162D01*
X215466200Y-66923775D01*
X215466198Y-66923779D01*
X215450970Y-66971784D01*
X215405371Y-67115532D01*
X215404831Y-67120344D01*
X215404831Y-67120345D01*
X215390837Y-67245110D01*
X215382407Y-67320262D01*
X199575178Y-67320262D01*
X203351065Y-63544376D01*
X219962342Y-63544376D01*
X219981114Y-63722983D01*
X219982898Y-63728223D01*
X219982898Y-63728224D01*
X220027947Y-63860553D01*
X220038990Y-63892993D01*
X220041888Y-63897703D01*
X220041890Y-63897708D01*
X220119698Y-64024182D01*
X220133093Y-64045955D01*
X220258746Y-64174268D01*
X220409704Y-64271554D01*
X220578465Y-64332978D01*
X220717170Y-64350500D01*
X221813042Y-64350500D01*
X221815796Y-64350191D01*
X221815798Y-64350191D01*
X221846982Y-64346693D01*
X221946359Y-64335546D01*
X222068004Y-64293185D01*
X222110734Y-64278305D01*
X222110735Y-64278305D01*
X222115960Y-64276485D01*
X222153866Y-64252799D01*
X222263572Y-64184247D01*
X222263574Y-64184245D01*
X222268262Y-64181316D01*
X222343788Y-64106315D01*
X222391766Y-64058671D01*
X222391767Y-64058669D01*
X222395694Y-64054770D01*
X222398661Y-64050095D01*
X222488958Y-63907810D01*
X222488959Y-63907809D01*
X222491924Y-63903136D01*
X222552168Y-63733951D01*
X222553487Y-63722894D01*
X222572777Y-63561120D01*
X222572777Y-63561117D01*
X222573432Y-63555624D01*
X222569800Y-63521069D01*
X225165110Y-63521069D01*
X225165407Y-63525597D01*
X225166526Y-63542675D01*
X225174691Y-63667244D01*
X225178338Y-63722894D01*
X225228124Y-63918928D01*
X225312802Y-64102607D01*
X225429534Y-64267780D01*
X225574412Y-64408913D01*
X225742583Y-64521282D01*
X225928416Y-64601122D01*
X226125686Y-64645760D01*
X226327788Y-64653700D01*
X226381323Y-64645938D01*
X226523465Y-64625329D01*
X226523468Y-64625328D01*
X226527953Y-64624678D01*
X226625804Y-64591462D01*
X226715180Y-64561123D01*
X226715183Y-64561121D01*
X226719477Y-64559664D01*
X226895947Y-64460837D01*
X227051451Y-64331505D01*
X227058397Y-64323154D01*
X227083322Y-64293185D01*
X227180783Y-64176001D01*
X227279610Y-63999531D01*
X227299201Y-63941820D01*
X227343165Y-63812304D01*
X227344624Y-63808007D01*
X227354919Y-63737006D01*
X227371579Y-63622095D01*
X227373646Y-63607842D01*
X227375161Y-63550000D01*
X227374645Y-63544376D01*
X227373359Y-63530381D01*
X227638886Y-63530381D01*
X227639183Y-63534909D01*
X227640163Y-63549868D01*
X227644709Y-63619218D01*
X227652429Y-63737006D01*
X227653545Y-63741399D01*
X227653545Y-63741401D01*
X227693585Y-63899060D01*
X227703399Y-63937703D01*
X227790091Y-64125751D01*
X227909599Y-64294852D01*
X227912847Y-64298016D01*
X228052875Y-64434424D01*
X228057923Y-64439342D01*
X228061695Y-64441862D01*
X228061697Y-64441864D01*
X228103318Y-64469674D01*
X228230094Y-64554383D01*
X228420347Y-64636122D01*
X228622309Y-64681822D01*
X228829218Y-64689951D01*
X228833701Y-64689301D01*
X228833702Y-64689301D01*
X229029657Y-64660890D01*
X229029662Y-64660889D01*
X229034144Y-64660239D01*
X229076798Y-64645760D01*
X229225926Y-64595138D01*
X229225929Y-64595136D01*
X229230223Y-64593679D01*
X229410890Y-64492500D01*
X229570093Y-64360093D01*
X229702500Y-64200890D01*
X229789268Y-64045955D01*
X229801462Y-64024182D01*
X229801463Y-64024181D01*
X229803679Y-64020223D01*
X229809359Y-64003492D01*
X229868781Y-63828439D01*
X229870239Y-63824144D01*
X229873230Y-63803519D01*
X229899534Y-63622095D01*
X229899534Y-63622093D01*
X229899951Y-63619218D01*
X229901502Y-63560000D01*
X229900573Y-63549881D01*
X229884185Y-63371539D01*
X229882555Y-63353800D01*
X229826348Y-63154506D01*
X229814552Y-63130585D01*
X229774858Y-63050095D01*
X229734764Y-62968792D01*
X229610870Y-62802877D01*
X229458815Y-62662319D01*
X229453332Y-62658859D01*
X229287528Y-62554245D01*
X229283691Y-62551824D01*
X229279480Y-62550144D01*
X229279476Y-62550142D01*
X229129473Y-62490298D01*
X229091364Y-62475094D01*
X228888274Y-62434696D01*
X228784748Y-62433341D01*
X228685762Y-62432045D01*
X228685758Y-62432045D01*
X228681223Y-62431986D01*
X228676748Y-62432755D01*
X228676747Y-62432755D01*
X228586910Y-62448192D01*
X228477146Y-62467053D01*
X228282876Y-62538723D01*
X228104920Y-62644596D01*
X228101505Y-62647591D01*
X228101502Y-62647593D01*
X228044036Y-62697989D01*
X227949237Y-62781125D01*
X227946429Y-62784687D01*
X227826578Y-62936719D01*
X227821043Y-62943740D01*
X227724628Y-63126993D01*
X227723283Y-63131324D01*
X227723282Y-63131327D01*
X227665978Y-63315880D01*
X227663224Y-63324748D01*
X227659867Y-63353109D01*
X227646059Y-63469780D01*
X227638886Y-63530381D01*
X227373359Y-63530381D01*
X227358258Y-63366049D01*
X227356654Y-63348591D01*
X227301753Y-63153926D01*
X227212297Y-62972527D01*
X227104707Y-62828446D01*
X227093997Y-62814104D01*
X227093996Y-62814103D01*
X227091281Y-62810467D01*
X226942758Y-62673174D01*
X226929081Y-62664544D01*
X226775540Y-62567667D01*
X226771703Y-62565246D01*
X226583844Y-62490298D01*
X226385472Y-62450839D01*
X226285876Y-62449535D01*
X226187772Y-62448251D01*
X226187767Y-62448251D01*
X226183232Y-62448192D01*
X226178759Y-62448961D01*
X226178754Y-62448961D01*
X226080191Y-62465898D01*
X225983895Y-62482444D01*
X225794139Y-62552449D01*
X225620317Y-62655862D01*
X225616902Y-62658857D01*
X225616899Y-62658859D01*
X225560320Y-62708478D01*
X225468251Y-62789220D01*
X225461357Y-62797965D01*
X225349249Y-62940175D01*
X225343035Y-62948057D01*
X225248860Y-63127053D01*
X225247515Y-63131384D01*
X225247514Y-63131387D01*
X225207959Y-63258779D01*
X225188883Y-63320213D01*
X225165110Y-63521069D01*
X222569800Y-63521069D01*
X222554660Y-63377017D01*
X222549153Y-63360840D01*
X222498569Y-63212249D01*
X222498567Y-63212245D01*
X222496784Y-63207007D01*
X222493886Y-63202297D01*
X222493884Y-63202292D01*
X222405578Y-63058754D01*
X222402681Y-63054045D01*
X222326841Y-62976599D01*
X222287787Y-62936719D01*
X222277028Y-62925732D01*
X222126070Y-62828446D01*
X221957309Y-62767022D01*
X221818604Y-62749500D01*
X220722732Y-62749500D01*
X220719978Y-62749809D01*
X220719976Y-62749809D01*
X220692596Y-62752880D01*
X220589415Y-62764454D01*
X220584183Y-62766276D01*
X220479079Y-62802877D01*
X220419814Y-62823515D01*
X220388908Y-62842827D01*
X220272202Y-62915753D01*
X220272200Y-62915755D01*
X220267512Y-62918684D01*
X220213292Y-62972527D01*
X220147077Y-63038282D01*
X220140080Y-63045230D01*
X220137114Y-63049904D01*
X220137113Y-63049905D01*
X220073317Y-63150432D01*
X220043850Y-63196864D01*
X219983606Y-63366049D01*
X219982952Y-63371536D01*
X219982951Y-63371539D01*
X219963471Y-63534909D01*
X219962342Y-63544376D01*
X203351065Y-63544376D01*
X203930945Y-62964496D01*
X203985462Y-62936719D01*
X204000949Y-62935500D01*
X205144030Y-62935500D01*
X205202221Y-62954407D01*
X205222571Y-62974232D01*
X205271718Y-63038282D01*
X205397159Y-63134536D01*
X205543238Y-63195044D01*
X205700000Y-63215682D01*
X205856762Y-63195044D01*
X206002841Y-63134536D01*
X206128282Y-63038282D01*
X206224536Y-62912841D01*
X206285044Y-62766762D01*
X206305682Y-62610000D01*
X206285044Y-62453238D01*
X206224536Y-62307159D01*
X206128282Y-62181718D01*
X206002841Y-62085464D01*
X205856762Y-62024956D01*
X205700000Y-62004318D01*
X205543238Y-62024956D01*
X205397159Y-62085464D01*
X205271718Y-62181718D01*
X205267764Y-62186871D01*
X205222572Y-62245767D01*
X205172148Y-62280423D01*
X205144030Y-62284500D01*
X204000948Y-62284500D01*
X203942757Y-62265593D01*
X203930944Y-62255504D01*
X202585788Y-60910348D01*
X219975034Y-60910348D01*
X219981027Y-60967372D01*
X219983389Y-60978116D01*
X220037660Y-61137536D01*
X220042347Y-61147496D01*
X220130588Y-61290931D01*
X220137360Y-61299599D01*
X220255193Y-61419925D01*
X220263716Y-61426876D01*
X220405278Y-61518108D01*
X220415124Y-61522995D01*
X220573383Y-61580596D01*
X220584077Y-61583183D01*
X220714112Y-61599610D01*
X220720300Y-61600000D01*
X221152207Y-61600000D01*
X221164892Y-61595878D01*
X221167887Y-61591757D01*
X221167887Y-61584320D01*
X221367887Y-61584320D01*
X221372009Y-61597005D01*
X221376130Y-61600000D01*
X221810243Y-61600000D01*
X221815772Y-61599691D01*
X221940742Y-61585673D01*
X221951479Y-61583234D01*
X222110516Y-61527851D01*
X222120435Y-61523099D01*
X222263257Y-61433854D01*
X222271874Y-61427024D01*
X222391375Y-61308355D01*
X222398269Y-61299779D01*
X222488506Y-61157590D01*
X222493328Y-61147704D01*
X222549823Y-60989046D01*
X222552333Y-60978347D01*
X222559819Y-60915568D01*
X222557228Y-60902486D01*
X222555672Y-60901045D01*
X222550918Y-60900000D01*
X221383567Y-60900000D01*
X221370882Y-60904122D01*
X221367887Y-60908243D01*
X221367887Y-61584320D01*
X221167887Y-61584320D01*
X221167887Y-60915680D01*
X221163765Y-60902995D01*
X221159644Y-60900000D01*
X219989626Y-60900000D01*
X219976941Y-60904122D01*
X219975476Y-60906137D01*
X219975034Y-60910348D01*
X202585788Y-60910348D01*
X202426509Y-60751069D01*
X225165164Y-60751069D01*
X225166116Y-60765597D01*
X225166580Y-60772675D01*
X225176562Y-60924970D01*
X225178392Y-60952894D01*
X225228178Y-61148928D01*
X225312856Y-61332607D01*
X225429588Y-61497780D01*
X225574466Y-61638913D01*
X225742637Y-61751282D01*
X225928470Y-61831122D01*
X226125740Y-61875760D01*
X226327842Y-61883700D01*
X226381377Y-61875938D01*
X226523519Y-61855329D01*
X226523522Y-61855328D01*
X226528007Y-61854678D01*
X226623769Y-61822171D01*
X226715234Y-61791123D01*
X226715237Y-61791121D01*
X226719531Y-61789664D01*
X226878145Y-61700837D01*
X226892039Y-61693056D01*
X226892041Y-61693055D01*
X226896001Y-61690837D01*
X227051505Y-61561505D01*
X227180837Y-61406001D01*
X227188856Y-61391683D01*
X227207125Y-61359060D01*
X227279664Y-61229531D01*
X227302511Y-61162228D01*
X227320085Y-61110454D01*
X227344678Y-61038007D01*
X227354920Y-60967372D01*
X227373283Y-60840717D01*
X227373700Y-60837842D01*
X227375215Y-60780000D01*
X227373476Y-60761069D01*
X227675164Y-60761069D01*
X227675461Y-60765597D01*
X227676580Y-60782675D01*
X227688025Y-60957288D01*
X227688392Y-60962894D01*
X227738178Y-61158928D01*
X227822856Y-61342607D01*
X227939588Y-61507780D01*
X228084466Y-61648913D01*
X228252637Y-61761282D01*
X228438470Y-61841122D01*
X228635740Y-61885760D01*
X228837842Y-61893700D01*
X228891377Y-61885938D01*
X229033519Y-61865329D01*
X229033522Y-61865328D01*
X229038007Y-61864678D01*
X229142138Y-61829330D01*
X229225234Y-61801123D01*
X229225237Y-61801121D01*
X229229531Y-61799664D01*
X229406001Y-61700837D01*
X229546097Y-61584320D01*
X229558011Y-61574411D01*
X229561505Y-61571505D01*
X229690837Y-61416001D01*
X229700377Y-61398967D01*
X229726419Y-61352464D01*
X229789664Y-61239531D01*
X229794518Y-61225234D01*
X229826845Y-61130000D01*
X229854678Y-61048007D01*
X229866382Y-60967288D01*
X229883283Y-60850717D01*
X229883700Y-60847842D01*
X229885215Y-60790000D01*
X229882195Y-60757128D01*
X229867123Y-60593108D01*
X229866708Y-60588591D01*
X229811807Y-60393926D01*
X229806379Y-60382918D01*
X229761368Y-60291645D01*
X229722351Y-60212527D01*
X229621074Y-60076901D01*
X229604051Y-60054104D01*
X229604050Y-60054103D01*
X229601335Y-60050467D01*
X229452812Y-59913174D01*
X229436436Y-59902841D01*
X229299054Y-59816160D01*
X229281757Y-59805246D01*
X229093898Y-59730298D01*
X228895526Y-59690839D01*
X228795930Y-59689535D01*
X228697826Y-59688251D01*
X228697821Y-59688251D01*
X228693286Y-59688192D01*
X228688813Y-59688961D01*
X228688808Y-59688961D01*
X228607218Y-59702981D01*
X228493949Y-59722444D01*
X228304193Y-59792449D01*
X228130371Y-59895862D01*
X228126956Y-59898857D01*
X228126953Y-59898859D01*
X228084892Y-59935746D01*
X227978305Y-60029220D01*
X227969439Y-60040467D01*
X227857805Y-60182075D01*
X227853089Y-60188057D01*
X227758914Y-60367053D01*
X227757569Y-60371384D01*
X227757568Y-60371387D01*
X227700644Y-60554717D01*
X227698937Y-60560213D01*
X227698404Y-60564717D01*
X227681219Y-60709915D01*
X227675164Y-60761069D01*
X227373476Y-60761069D01*
X227357627Y-60588591D01*
X227356708Y-60578591D01*
X227301807Y-60383926D01*
X227295624Y-60371387D01*
X227235643Y-60249758D01*
X227212351Y-60202527D01*
X227091335Y-60040467D01*
X226942812Y-59903174D01*
X226935974Y-59898859D01*
X226775594Y-59797667D01*
X226771757Y-59795246D01*
X226583898Y-59720298D01*
X226385526Y-59680839D01*
X226285930Y-59679535D01*
X226187826Y-59678251D01*
X226187821Y-59678251D01*
X226183286Y-59678192D01*
X226178813Y-59678961D01*
X226178808Y-59678961D01*
X226080245Y-59695898D01*
X225983949Y-59712444D01*
X225794193Y-59782449D01*
X225620371Y-59885862D01*
X225616956Y-59888857D01*
X225616953Y-59888859D01*
X225563489Y-59935746D01*
X225468305Y-60019220D01*
X225465497Y-60022782D01*
X225346978Y-60173124D01*
X225343089Y-60178057D01*
X225248914Y-60357053D01*
X225247569Y-60361384D01*
X225247568Y-60361387D01*
X225191458Y-60542095D01*
X225188937Y-60550213D01*
X225165164Y-60751069D01*
X202426509Y-60751069D01*
X202359872Y-60684432D01*
X219975955Y-60684432D01*
X219978546Y-60697514D01*
X219980102Y-60698955D01*
X219984856Y-60700000D01*
X221152207Y-60700000D01*
X221164892Y-60695878D01*
X221167887Y-60691757D01*
X221167887Y-60684320D01*
X221367887Y-60684320D01*
X221372009Y-60697005D01*
X221376130Y-60700000D01*
X222546148Y-60700000D01*
X222558833Y-60695878D01*
X222560298Y-60693863D01*
X222560740Y-60689652D01*
X222554747Y-60632628D01*
X222552385Y-60621884D01*
X222498114Y-60462464D01*
X222493427Y-60452504D01*
X222405186Y-60309069D01*
X222398414Y-60300401D01*
X222280581Y-60180075D01*
X222272058Y-60173124D01*
X222130496Y-60081892D01*
X222120650Y-60077005D01*
X221962391Y-60019404D01*
X221951697Y-60016817D01*
X221821662Y-60000390D01*
X221815474Y-60000000D01*
X221383567Y-60000000D01*
X221370882Y-60004122D01*
X221367887Y-60008243D01*
X221367887Y-60684320D01*
X221167887Y-60684320D01*
X221167887Y-60015680D01*
X221163765Y-60002995D01*
X221159644Y-60000000D01*
X220725531Y-60000000D01*
X220720002Y-60000309D01*
X220595032Y-60014327D01*
X220584295Y-60016766D01*
X220425258Y-60072149D01*
X220415339Y-60076901D01*
X220272517Y-60166146D01*
X220263900Y-60172976D01*
X220144399Y-60291645D01*
X220137505Y-60300221D01*
X220047268Y-60442410D01*
X220042446Y-60452296D01*
X219985951Y-60610954D01*
X219983441Y-60621653D01*
X219975955Y-60684432D01*
X202359872Y-60684432D01*
X201310997Y-59635557D01*
X201282848Y-59578475D01*
X201265891Y-59449674D01*
X201265044Y-59443238D01*
X201261725Y-59435224D01*
X201240699Y-59384464D01*
X201204536Y-59297159D01*
X201108282Y-59171718D01*
X200982841Y-59075464D01*
X200851921Y-59021235D01*
X200842759Y-59017440D01*
X200836762Y-59014956D01*
X200680000Y-58994318D01*
X200557085Y-59010500D01*
X200496924Y-58999350D01*
X200454807Y-58954968D01*
X200446010Y-58899425D01*
X200464835Y-58756434D01*
X200465682Y-58750000D01*
X200445044Y-58593238D01*
X200384536Y-58447159D01*
X200288282Y-58321718D01*
X200162841Y-58225464D01*
X200016762Y-58164956D01*
X199885569Y-58147684D01*
X199866434Y-58145165D01*
X199860000Y-58144318D01*
X199853566Y-58145165D01*
X199834431Y-58147684D01*
X199703238Y-58164956D01*
X199557159Y-58225464D01*
X199431718Y-58321718D01*
X199335464Y-58447159D01*
X199332981Y-58453154D01*
X199330401Y-58459382D01*
X199290664Y-58505908D01*
X199231169Y-58520191D01*
X199174641Y-58496776D01*
X199160398Y-58481766D01*
X199068282Y-58361718D01*
X198942841Y-58265464D01*
X198796762Y-58204956D01*
X198640000Y-58184318D01*
X198483238Y-58204956D01*
X198337159Y-58265464D01*
X198211718Y-58361718D01*
X198207764Y-58366871D01*
X198163484Y-58424578D01*
X198113060Y-58459234D01*
X198076314Y-58462934D01*
X198051194Y-58460736D01*
X198042830Y-58462977D01*
X198013651Y-58470795D01*
X198005222Y-58472664D01*
X197991108Y-58475153D01*
X197966955Y-58479412D01*
X197959454Y-58483743D01*
X197953964Y-58485741D01*
X197948683Y-58488204D01*
X197940316Y-58490446D01*
X197918235Y-58505908D01*
X197908489Y-58512732D01*
X197901208Y-58517371D01*
X197867545Y-58536806D01*
X197861978Y-58543441D01*
X197842569Y-58566571D01*
X197836735Y-58572939D01*
X196802967Y-59606707D01*
X196748450Y-59634484D01*
X196720045Y-59634856D01*
X196640000Y-59624318D01*
X196483238Y-59644956D01*
X196337159Y-59705464D01*
X196211718Y-59801718D01*
X196115464Y-59927159D01*
X196054956Y-60073238D01*
X196034318Y-60230000D01*
X196054956Y-60386762D01*
X196115464Y-60532841D01*
X196211718Y-60658282D01*
X196337159Y-60754536D01*
X196483238Y-60815044D01*
X196640000Y-60835682D01*
X196796762Y-60815044D01*
X196942841Y-60754536D01*
X197068282Y-60658282D01*
X197164536Y-60532841D01*
X197225044Y-60386762D01*
X197245682Y-60230000D01*
X197235144Y-60149958D01*
X197246294Y-60089799D01*
X197263293Y-60067033D01*
X198093929Y-59236397D01*
X198148446Y-59208620D01*
X198208878Y-59218191D01*
X198224190Y-59227852D01*
X198337159Y-59314536D01*
X198483238Y-59375044D01*
X198496427Y-59376780D01*
X198506350Y-59378087D01*
X198561575Y-59404429D01*
X198590769Y-59458201D01*
X198582781Y-59518863D01*
X198563430Y-59546244D01*
X195483443Y-62626231D01*
X195477076Y-62632065D01*
X195447306Y-62657045D01*
X195436217Y-62676253D01*
X195427873Y-62690705D01*
X195423232Y-62697989D01*
X195400946Y-62729816D01*
X195398704Y-62738184D01*
X195396238Y-62743471D01*
X195394242Y-62748956D01*
X195389912Y-62756455D01*
X195388409Y-62764981D01*
X195388408Y-62764983D01*
X195383166Y-62794716D01*
X195381296Y-62803151D01*
X195375025Y-62826555D01*
X195371236Y-62840693D01*
X195371991Y-62849322D01*
X195374623Y-62879405D01*
X195375000Y-62888034D01*
X195375000Y-64064030D01*
X195356093Y-64122221D01*
X195336268Y-64142571D01*
X195272218Y-64191718D01*
X195175964Y-64317159D01*
X195115456Y-64463238D01*
X195094818Y-64620000D01*
X195115456Y-64776762D01*
X195175964Y-64922841D01*
X195272218Y-65048282D01*
X195397659Y-65144536D01*
X195515454Y-65193329D01*
X195528978Y-65198930D01*
X195543738Y-65205044D01*
X195700500Y-65225682D01*
X195857262Y-65205044D01*
X195872023Y-65198930D01*
X195894649Y-65189558D01*
X195937614Y-65171761D01*
X195998611Y-65166960D01*
X196050780Y-65198930D01*
X196074195Y-65255457D01*
X196074500Y-65263225D01*
X196074500Y-69844165D01*
X196055593Y-69902356D01*
X196045504Y-69914169D01*
X195592908Y-70366766D01*
X195142967Y-70816707D01*
X195088450Y-70844484D01*
X195060045Y-70844856D01*
X194980000Y-70834318D01*
X194823238Y-70854956D01*
X194677159Y-70915464D01*
X194551718Y-71011718D01*
X194455464Y-71137159D01*
X194394956Y-71283238D01*
X194374318Y-71440000D01*
X183700000Y-71440000D01*
X183700000Y-71405680D01*
X183695878Y-71392995D01*
X183691757Y-71390000D01*
X182765680Y-71390000D01*
X182752995Y-71394122D01*
X182750000Y-71398243D01*
X182750000Y-72324320D01*
X182550000Y-72324320D01*
X182550000Y-71405680D01*
X182545878Y-71392995D01*
X182541757Y-71390000D01*
X181615680Y-71390000D01*
X181602995Y-71394122D01*
X181600000Y-71398243D01*
X181600000Y-72154840D01*
X178620000Y-72154840D01*
X178620000Y-71405680D01*
X178615878Y-71392995D01*
X178611757Y-71390000D01*
X177685680Y-71390000D01*
X177672995Y-71394122D01*
X177670000Y-71398243D01*
X177670000Y-72324320D01*
X177470000Y-72324320D01*
X177470000Y-71405680D01*
X177465878Y-71392995D01*
X177461757Y-71390000D01*
X176535680Y-71390000D01*
X176522995Y-71394122D01*
X176520000Y-71398243D01*
X176520000Y-72154840D01*
X170818160Y-72154840D01*
X170813915Y-71174320D01*
X176520000Y-71174320D01*
X176524122Y-71187005D01*
X176528243Y-71190000D01*
X177454320Y-71190000D01*
X177467005Y-71185878D01*
X177470000Y-71181757D01*
X177470000Y-71174320D01*
X177670000Y-71174320D01*
X177674122Y-71187005D01*
X177678243Y-71190000D01*
X178604320Y-71190000D01*
X178617005Y-71185878D01*
X178620000Y-71181757D01*
X178620000Y-71174320D01*
X181600000Y-71174320D01*
X181604122Y-71187005D01*
X181608243Y-71190000D01*
X182534320Y-71190000D01*
X182547005Y-71185878D01*
X182550000Y-71181757D01*
X182550000Y-71174320D01*
X182750000Y-71174320D01*
X182754122Y-71187005D01*
X182758243Y-71190000D01*
X183684320Y-71190000D01*
X183697005Y-71185878D01*
X183700000Y-71181757D01*
X183700000Y-70425160D01*
X183699052Y-70415538D01*
X183690298Y-70371526D01*
X183682979Y-70353858D01*
X183649611Y-70303918D01*
X183636082Y-70290389D01*
X183586142Y-70257021D01*
X183568474Y-70249702D01*
X183524462Y-70240948D01*
X183514840Y-70240000D01*
X182765680Y-70240000D01*
X182752995Y-70244122D01*
X182750000Y-70248243D01*
X182750000Y-71174320D01*
X182550000Y-71174320D01*
X182550000Y-70255680D01*
X182545878Y-70242995D01*
X182541757Y-70240000D01*
X181785160Y-70240000D01*
X181775538Y-70240948D01*
X181731526Y-70249702D01*
X181713858Y-70257021D01*
X181663918Y-70290389D01*
X181650389Y-70303918D01*
X181617021Y-70353858D01*
X181609702Y-70371526D01*
X181600948Y-70415538D01*
X181600000Y-70425160D01*
X181600000Y-71174320D01*
X178620000Y-71174320D01*
X178620000Y-70425160D01*
X178619052Y-70415538D01*
X178610298Y-70371526D01*
X178602979Y-70353858D01*
X178569611Y-70303918D01*
X178556082Y-70290389D01*
X178506142Y-70257021D01*
X178488474Y-70249702D01*
X178444462Y-70240948D01*
X178434840Y-70240000D01*
X177685680Y-70240000D01*
X177672995Y-70244122D01*
X177670000Y-70248243D01*
X177670000Y-71174320D01*
X177470000Y-71174320D01*
X177470000Y-70255680D01*
X177465878Y-70242995D01*
X177461757Y-70240000D01*
X176705160Y-70240000D01*
X176695538Y-70240948D01*
X176651526Y-70249702D01*
X176633858Y-70257021D01*
X176583918Y-70290389D01*
X176570389Y-70303918D01*
X176537021Y-70353858D01*
X176529702Y-70371526D01*
X176520948Y-70415538D01*
X176520000Y-70425160D01*
X176520000Y-71174320D01*
X170813915Y-71174320D01*
X170812614Y-70873834D01*
X170812613Y-70873405D01*
X170812613Y-70096665D01*
X190704994Y-70096665D01*
X190709140Y-70146040D01*
X190718460Y-70257021D01*
X190720592Y-70282414D01*
X190721925Y-70287062D01*
X190721925Y-70287063D01*
X190768790Y-70450500D01*
X190771971Y-70461595D01*
X190774186Y-70465905D01*
X190825034Y-70564844D01*
X190857176Y-70627385D01*
X190972959Y-70773468D01*
X190976646Y-70776606D01*
X190976648Y-70776608D01*
X191111224Y-70891141D01*
X191111229Y-70891144D01*
X191114912Y-70894279D01*
X191119134Y-70896639D01*
X191119139Y-70896642D01*
X191219942Y-70952978D01*
X191277627Y-70985217D01*
X191282225Y-70986711D01*
X191450302Y-71041323D01*
X191450304Y-71041324D01*
X191454907Y-71042819D01*
X191639998Y-71064890D01*
X191644820Y-71064519D01*
X191644823Y-71064519D01*
X191821023Y-71050961D01*
X191821028Y-71050960D01*
X191825851Y-71050589D01*
X192005387Y-71000462D01*
X192009700Y-70998283D01*
X192009706Y-70998281D01*
X192167447Y-70918600D01*
X192167449Y-70918598D01*
X192171768Y-70916417D01*
X192318655Y-70801656D01*
X192440454Y-70660550D01*
X192503565Y-70549455D01*
X192530137Y-70502680D01*
X192530138Y-70502677D01*
X192532526Y-70498474D01*
X192539023Y-70478946D01*
X192589837Y-70326192D01*
X192589837Y-70326190D01*
X192591364Y-70321601D01*
X192614727Y-70136668D01*
X192615099Y-70110000D01*
X192596909Y-69924487D01*
X192543033Y-69746040D01*
X192455522Y-69581456D01*
X192337710Y-69437005D01*
X192333981Y-69433920D01*
X192197812Y-69321270D01*
X192197810Y-69321269D01*
X192194085Y-69318187D01*
X192038252Y-69233928D01*
X192034370Y-69231829D01*
X192034369Y-69231829D01*
X192030116Y-69229529D01*
X191852049Y-69174409D01*
X191847239Y-69173903D01*
X191847237Y-69173903D01*
X191671484Y-69155430D01*
X191671482Y-69155430D01*
X191666668Y-69154924D01*
X191604673Y-69160566D01*
X191485852Y-69171379D01*
X191485848Y-69171380D01*
X191481032Y-69171818D01*
X191476390Y-69173184D01*
X191476386Y-69173185D01*
X191306861Y-69223080D01*
X191306858Y-69223081D01*
X191302214Y-69224448D01*
X191137023Y-69310807D01*
X191133247Y-69313843D01*
X191133244Y-69313845D01*
X191073180Y-69362138D01*
X190991752Y-69427608D01*
X190988644Y-69431312D01*
X190875044Y-69566695D01*
X190875041Y-69566699D01*
X190871935Y-69570401D01*
X190782135Y-69733746D01*
X190780672Y-69738359D01*
X190780670Y-69738363D01*
X190743706Y-69854890D01*
X190725772Y-69911424D01*
X190725232Y-69916236D01*
X190725232Y-69916237D01*
X190706152Y-70086344D01*
X190704994Y-70096665D01*
X170812613Y-70096665D01*
X170812613Y-68735262D01*
X176514520Y-68735262D01*
X176514925Y-68740082D01*
X176523446Y-68841552D01*
X176531759Y-68940553D01*
X176533092Y-68945201D01*
X176533092Y-68945202D01*
X176578570Y-69103801D01*
X176588544Y-69138586D01*
X176682712Y-69321818D01*
X176810677Y-69483270D01*
X176814357Y-69486402D01*
X176814359Y-69486404D01*
X176913056Y-69570401D01*
X176967564Y-69616791D01*
X176971787Y-69619151D01*
X176971791Y-69619154D01*
X177088702Y-69684493D01*
X177147398Y-69717297D01*
X177151996Y-69718791D01*
X177338724Y-69779463D01*
X177338726Y-69779464D01*
X177343329Y-69780959D01*
X177547894Y-69805351D01*
X177552716Y-69804980D01*
X177552719Y-69804980D01*
X177620541Y-69799761D01*
X177753300Y-69789546D01*
X177951725Y-69734145D01*
X177956038Y-69731966D01*
X177956044Y-69731964D01*
X178131289Y-69643441D01*
X178131291Y-69643440D01*
X178135610Y-69641258D01*
X178139427Y-69638276D01*
X178294135Y-69517406D01*
X178294139Y-69517402D01*
X178297951Y-69514424D01*
X178301339Y-69510500D01*
X178394140Y-69402987D01*
X178432564Y-69358472D01*
X178451231Y-69325613D01*
X178531934Y-69183550D01*
X178531935Y-69183547D01*
X178534323Y-69179344D01*
X178542279Y-69155430D01*
X178597824Y-68988454D01*
X178597824Y-68988452D01*
X178599351Y-68983863D01*
X178605062Y-68938660D01*
X178624823Y-68782228D01*
X178625171Y-68779474D01*
X178625583Y-68750000D01*
X178624138Y-68735262D01*
X181594520Y-68735262D01*
X181594925Y-68740082D01*
X181603446Y-68841552D01*
X181611759Y-68940553D01*
X181613092Y-68945201D01*
X181613092Y-68945202D01*
X181658570Y-69103801D01*
X181668544Y-69138586D01*
X181762712Y-69321818D01*
X181890677Y-69483270D01*
X181894357Y-69486402D01*
X181894359Y-69486404D01*
X181993056Y-69570401D01*
X182047564Y-69616791D01*
X182051787Y-69619151D01*
X182051791Y-69619154D01*
X182168702Y-69684493D01*
X182227398Y-69717297D01*
X182231996Y-69718791D01*
X182418724Y-69779463D01*
X182418726Y-69779464D01*
X182423329Y-69780959D01*
X182627894Y-69805351D01*
X182632716Y-69804980D01*
X182632719Y-69804980D01*
X182700541Y-69799761D01*
X182833300Y-69789546D01*
X183031725Y-69734145D01*
X183036038Y-69731966D01*
X183036044Y-69731964D01*
X183211289Y-69643441D01*
X183211291Y-69643440D01*
X183215610Y-69641258D01*
X183219427Y-69638276D01*
X183374135Y-69517406D01*
X183374139Y-69517402D01*
X183377951Y-69514424D01*
X183381339Y-69510500D01*
X183474140Y-69402987D01*
X183512564Y-69358472D01*
X183531231Y-69325613D01*
X183611934Y-69183550D01*
X183611935Y-69183547D01*
X183614323Y-69179344D01*
X183622279Y-69155430D01*
X183677824Y-68988454D01*
X183677824Y-68988452D01*
X183679351Y-68983863D01*
X183685062Y-68938660D01*
X183704823Y-68782228D01*
X183705171Y-68779474D01*
X183705583Y-68750000D01*
X183701501Y-68708369D01*
X183685952Y-68549780D01*
X183685951Y-68549776D01*
X183685480Y-68544970D01*
X183683980Y-68540000D01*
X183638624Y-68389778D01*
X183625935Y-68347749D01*
X183529218Y-68165849D01*
X183399011Y-68006200D01*
X183367996Y-67980542D01*
X183244002Y-67877965D01*
X183244000Y-67877964D01*
X183240275Y-67874882D01*
X183128123Y-67814242D01*
X183063309Y-67779197D01*
X183063308Y-67779197D01*
X183059055Y-67776897D01*
X182964602Y-67747659D01*
X182866875Y-67717407D01*
X182866871Y-67717406D01*
X182862254Y-67715977D01*
X182857446Y-67715472D01*
X182857443Y-67715471D01*
X182662185Y-67694949D01*
X182662183Y-67694949D01*
X182657369Y-67694443D01*
X182597354Y-67699905D01*
X182457022Y-67712675D01*
X182457017Y-67712676D01*
X182452203Y-67713114D01*
X182254572Y-67771280D01*
X182250288Y-67773519D01*
X182250287Y-67773520D01*
X182239428Y-67779197D01*
X182072002Y-67866726D01*
X182064720Y-67872581D01*
X181915220Y-67992781D01*
X181915217Y-67992783D01*
X181911447Y-67995815D01*
X181908333Y-67999526D01*
X181908332Y-67999527D01*
X181787167Y-68143926D01*
X181779024Y-68153630D01*
X181776689Y-68157878D01*
X181776688Y-68157879D01*
X181769955Y-68170126D01*
X181679776Y-68334162D01*
X181678313Y-68338775D01*
X181678311Y-68338779D01*
X181661952Y-68390351D01*
X181617484Y-68530532D01*
X181616944Y-68535344D01*
X181616944Y-68535345D01*
X181597537Y-68708369D01*
X181594520Y-68735262D01*
X178624138Y-68735262D01*
X178621501Y-68708369D01*
X178605952Y-68549780D01*
X178605951Y-68549776D01*
X178605480Y-68544970D01*
X178603980Y-68540000D01*
X178558624Y-68389778D01*
X178545935Y-68347749D01*
X178449218Y-68165849D01*
X178319011Y-68006200D01*
X178287996Y-67980542D01*
X178164002Y-67877965D01*
X178164000Y-67877964D01*
X178160275Y-67874882D01*
X178048123Y-67814242D01*
X177983309Y-67779197D01*
X177983308Y-67779197D01*
X177979055Y-67776897D01*
X177884602Y-67747659D01*
X177786875Y-67717407D01*
X177786871Y-67717406D01*
X177782254Y-67715977D01*
X177777446Y-67715472D01*
X177777443Y-67715471D01*
X177582185Y-67694949D01*
X177582183Y-67694949D01*
X177577369Y-67694443D01*
X177517354Y-67699905D01*
X177377022Y-67712675D01*
X177377017Y-67712676D01*
X177372203Y-67713114D01*
X177174572Y-67771280D01*
X177170288Y-67773519D01*
X177170287Y-67773520D01*
X177159428Y-67779197D01*
X176992002Y-67866726D01*
X176984720Y-67872581D01*
X176835220Y-67992781D01*
X176835217Y-67992783D01*
X176831447Y-67995815D01*
X176828333Y-67999526D01*
X176828332Y-67999527D01*
X176707167Y-68143926D01*
X176699024Y-68153630D01*
X176696689Y-68157878D01*
X176696688Y-68157879D01*
X176689955Y-68170126D01*
X176599776Y-68334162D01*
X176598313Y-68338775D01*
X176598311Y-68338779D01*
X176581952Y-68390351D01*
X176537484Y-68530532D01*
X176536944Y-68535344D01*
X176536944Y-68535345D01*
X176517537Y-68708369D01*
X176514520Y-68735262D01*
X170812613Y-68735262D01*
X170812613Y-66195262D01*
X176514520Y-66195262D01*
X176514925Y-66200082D01*
X176528009Y-66355892D01*
X176531759Y-66400553D01*
X176533092Y-66405201D01*
X176533092Y-66405202D01*
X176585679Y-66588593D01*
X176588544Y-66598586D01*
X176682712Y-66781818D01*
X176810677Y-66943270D01*
X176814357Y-66946402D01*
X176814359Y-66946404D01*
X176854880Y-66980890D01*
X176967564Y-67076791D01*
X176971787Y-67079151D01*
X176971791Y-67079154D01*
X177062716Y-67129970D01*
X177147398Y-67177297D01*
X177151996Y-67178791D01*
X177338724Y-67239463D01*
X177338726Y-67239464D01*
X177343329Y-67240959D01*
X177547894Y-67265351D01*
X177552716Y-67264980D01*
X177552719Y-67264980D01*
X177620541Y-67259761D01*
X177753300Y-67249546D01*
X177951725Y-67194145D01*
X177956038Y-67191966D01*
X177956044Y-67191964D01*
X178131289Y-67103441D01*
X178131291Y-67103440D01*
X178135610Y-67101258D01*
X178170943Y-67073653D01*
X178294135Y-66977406D01*
X178294139Y-66977402D01*
X178297951Y-66974424D01*
X178306446Y-66964583D01*
X178415556Y-66838176D01*
X178432564Y-66818472D01*
X178452438Y-66783488D01*
X178531934Y-66643550D01*
X178531935Y-66643547D01*
X178534323Y-66639344D01*
X178540409Y-66621051D01*
X178597824Y-66448454D01*
X178597824Y-66448452D01*
X178599351Y-66443863D01*
X178602764Y-66416850D01*
X178620363Y-66277536D01*
X178625171Y-66239474D01*
X178625583Y-66210000D01*
X178624138Y-66195262D01*
X181594520Y-66195262D01*
X181594925Y-66200082D01*
X181608009Y-66355892D01*
X181611759Y-66400553D01*
X181613092Y-66405201D01*
X181613092Y-66405202D01*
X181665679Y-66588593D01*
X181668544Y-66598586D01*
X181762712Y-66781818D01*
X181890677Y-66943270D01*
X181894357Y-66946402D01*
X181894359Y-66946404D01*
X181934880Y-66980890D01*
X182047564Y-67076791D01*
X182051787Y-67079151D01*
X182051791Y-67079154D01*
X182142716Y-67129970D01*
X182227398Y-67177297D01*
X182231996Y-67178791D01*
X182418724Y-67239463D01*
X182418726Y-67239464D01*
X182423329Y-67240959D01*
X182627894Y-67265351D01*
X182632716Y-67264980D01*
X182632719Y-67264980D01*
X182700541Y-67259761D01*
X182833300Y-67249546D01*
X183031725Y-67194145D01*
X183036038Y-67191966D01*
X183036044Y-67191964D01*
X183211289Y-67103441D01*
X183211291Y-67103440D01*
X183215610Y-67101258D01*
X183250943Y-67073653D01*
X183374135Y-66977406D01*
X183374139Y-66977402D01*
X183377951Y-66974424D01*
X183386446Y-66964583D01*
X183495556Y-66838176D01*
X183512564Y-66818472D01*
X183532438Y-66783488D01*
X183611934Y-66643550D01*
X183611935Y-66643547D01*
X183614323Y-66639344D01*
X183620409Y-66621051D01*
X183677824Y-66448454D01*
X183677824Y-66448452D01*
X183679351Y-66443863D01*
X183682764Y-66416850D01*
X183700363Y-66277536D01*
X183705171Y-66239474D01*
X183705583Y-66210000D01*
X183703065Y-66184317D01*
X183685952Y-66009780D01*
X183685951Y-66009776D01*
X183685480Y-66004970D01*
X183678577Y-65982104D01*
X183627333Y-65812380D01*
X183625935Y-65807749D01*
X183529218Y-65625849D01*
X183399011Y-65466200D01*
X183240275Y-65334882D01*
X183093381Y-65255457D01*
X183063309Y-65239197D01*
X183063308Y-65239197D01*
X183059055Y-65236897D01*
X182958891Y-65205891D01*
X182866875Y-65177407D01*
X182866871Y-65177406D01*
X182862254Y-65175977D01*
X182857446Y-65175472D01*
X182857443Y-65175471D01*
X182662185Y-65154949D01*
X182662183Y-65154949D01*
X182657369Y-65154443D01*
X182597354Y-65159905D01*
X182457022Y-65172675D01*
X182457017Y-65172676D01*
X182452203Y-65173114D01*
X182254572Y-65231280D01*
X182250288Y-65233519D01*
X182250287Y-65233520D01*
X182193467Y-65263225D01*
X182072002Y-65326726D01*
X182068231Y-65329758D01*
X181915220Y-65452781D01*
X181915217Y-65452783D01*
X181911447Y-65455815D01*
X181908333Y-65459526D01*
X181908332Y-65459527D01*
X181899585Y-65469952D01*
X181779024Y-65613630D01*
X181776689Y-65617878D01*
X181776688Y-65617879D01*
X181769955Y-65630126D01*
X181679776Y-65794162D01*
X181617484Y-65990532D01*
X181616944Y-65995344D01*
X181616944Y-65995345D01*
X181595748Y-66184317D01*
X181594520Y-66195262D01*
X178624138Y-66195262D01*
X178623065Y-66184317D01*
X178605952Y-66009780D01*
X178605951Y-66009776D01*
X178605480Y-66004970D01*
X178598577Y-65982104D01*
X178547333Y-65812380D01*
X178545935Y-65807749D01*
X178449218Y-65625849D01*
X178319011Y-65466200D01*
X178160275Y-65334882D01*
X178013381Y-65255457D01*
X177983309Y-65239197D01*
X177983308Y-65239197D01*
X177979055Y-65236897D01*
X177878891Y-65205891D01*
X177786875Y-65177407D01*
X177786871Y-65177406D01*
X177782254Y-65175977D01*
X177777446Y-65175472D01*
X177777443Y-65175471D01*
X177582185Y-65154949D01*
X177582183Y-65154949D01*
X177577369Y-65154443D01*
X177517354Y-65159905D01*
X177377022Y-65172675D01*
X177377017Y-65172676D01*
X177372203Y-65173114D01*
X177174572Y-65231280D01*
X177170288Y-65233519D01*
X177170287Y-65233520D01*
X177113467Y-65263225D01*
X176992002Y-65326726D01*
X176988231Y-65329758D01*
X176835220Y-65452781D01*
X176835217Y-65452783D01*
X176831447Y-65455815D01*
X176828333Y-65459526D01*
X176828332Y-65459527D01*
X176819585Y-65469952D01*
X176699024Y-65613630D01*
X176696689Y-65617878D01*
X176696688Y-65617879D01*
X176689955Y-65630126D01*
X176599776Y-65794162D01*
X176537484Y-65990532D01*
X176536944Y-65995344D01*
X176536944Y-65995345D01*
X176515748Y-66184317D01*
X176514520Y-66195262D01*
X170812613Y-66195262D01*
X170812613Y-63655262D01*
X176514520Y-63655262D01*
X176514925Y-63660082D01*
X176528702Y-63824144D01*
X176531759Y-63860553D01*
X176533092Y-63865201D01*
X176533092Y-63865202D01*
X176586055Y-64049905D01*
X176588544Y-64058586D01*
X176682712Y-64241818D01*
X176810677Y-64403270D01*
X176814357Y-64406402D01*
X176814359Y-64406404D01*
X176906352Y-64484696D01*
X176967564Y-64536791D01*
X176971787Y-64539151D01*
X176971791Y-64539154D01*
X177011342Y-64561258D01*
X177147398Y-64637297D01*
X177151996Y-64638791D01*
X177338724Y-64699463D01*
X177338726Y-64699464D01*
X177343329Y-64700959D01*
X177547894Y-64725351D01*
X177552716Y-64724980D01*
X177552719Y-64724980D01*
X177620541Y-64719761D01*
X177753300Y-64709546D01*
X177951725Y-64654145D01*
X177956038Y-64651966D01*
X177956044Y-64651964D01*
X178131289Y-64563441D01*
X178131291Y-64563440D01*
X178135610Y-64561258D01*
X178139427Y-64558276D01*
X178294135Y-64437406D01*
X178294139Y-64437402D01*
X178297951Y-64434424D01*
X178317796Y-64411434D01*
X178373678Y-64346693D01*
X178432564Y-64278472D01*
X178434957Y-64274260D01*
X178531934Y-64103550D01*
X178531935Y-64103547D01*
X178534323Y-64099344D01*
X178546071Y-64064030D01*
X178597824Y-63908454D01*
X178597824Y-63908452D01*
X178599351Y-63903863D01*
X178600102Y-63897924D01*
X178624823Y-63702228D01*
X178625171Y-63699474D01*
X178625583Y-63670000D01*
X178624138Y-63655262D01*
X181594520Y-63655262D01*
X181594925Y-63660082D01*
X181608702Y-63824144D01*
X181611759Y-63860553D01*
X181613092Y-63865201D01*
X181613092Y-63865202D01*
X181666055Y-64049905D01*
X181668544Y-64058586D01*
X181762712Y-64241818D01*
X181890677Y-64403270D01*
X181894357Y-64406402D01*
X181894359Y-64406404D01*
X181986352Y-64484696D01*
X182047564Y-64536791D01*
X182051787Y-64539151D01*
X182051791Y-64539154D01*
X182091342Y-64561258D01*
X182227398Y-64637297D01*
X182231996Y-64638791D01*
X182418724Y-64699463D01*
X182418726Y-64699464D01*
X182423329Y-64700959D01*
X182627894Y-64725351D01*
X182632716Y-64724980D01*
X182632719Y-64724980D01*
X182700541Y-64719761D01*
X182833300Y-64709546D01*
X183031725Y-64654145D01*
X183036038Y-64651966D01*
X183036044Y-64651964D01*
X183211289Y-64563441D01*
X183211291Y-64563440D01*
X183215610Y-64561258D01*
X183219427Y-64558276D01*
X183374135Y-64437406D01*
X183374139Y-64437402D01*
X183377951Y-64434424D01*
X183397796Y-64411434D01*
X183453678Y-64346693D01*
X183512564Y-64278472D01*
X183514957Y-64274260D01*
X183611934Y-64103550D01*
X183611935Y-64103547D01*
X183614323Y-64099344D01*
X183626071Y-64064030D01*
X183677824Y-63908454D01*
X183677824Y-63908452D01*
X183679351Y-63903863D01*
X183680102Y-63897924D01*
X183704823Y-63702228D01*
X183705171Y-63699474D01*
X183705583Y-63670000D01*
X183700604Y-63619218D01*
X183685952Y-63469780D01*
X183685951Y-63469776D01*
X183685480Y-63464970D01*
X183625935Y-63267749D01*
X183529218Y-63085849D01*
X183399011Y-62926200D01*
X183342446Y-62879405D01*
X183244002Y-62797965D01*
X183244000Y-62797964D01*
X183240275Y-62794882D01*
X183059055Y-62696897D01*
X182982418Y-62673174D01*
X182866875Y-62637407D01*
X182866871Y-62637406D01*
X182862254Y-62635977D01*
X182857446Y-62635472D01*
X182857443Y-62635471D01*
X182662185Y-62614949D01*
X182662183Y-62614949D01*
X182657369Y-62614443D01*
X182597354Y-62619905D01*
X182457022Y-62632675D01*
X182457017Y-62632676D01*
X182452203Y-62633114D01*
X182254572Y-62691280D01*
X182250288Y-62693519D01*
X182250287Y-62693520D01*
X182194431Y-62722721D01*
X182072002Y-62786726D01*
X182068231Y-62789758D01*
X181915220Y-62912781D01*
X181915217Y-62912783D01*
X181911447Y-62915815D01*
X181908333Y-62919526D01*
X181908332Y-62919527D01*
X181798932Y-63049905D01*
X181779024Y-63073630D01*
X181776689Y-63077878D01*
X181776688Y-63077879D01*
X181769955Y-63090126D01*
X181679776Y-63254162D01*
X181678313Y-63258775D01*
X181678311Y-63258779D01*
X181624413Y-63428689D01*
X181617484Y-63450532D01*
X181616944Y-63455344D01*
X181616944Y-63455345D01*
X181604879Y-63562913D01*
X181594520Y-63655262D01*
X178624138Y-63655262D01*
X178620604Y-63619218D01*
X178605952Y-63469780D01*
X178605951Y-63469776D01*
X178605480Y-63464970D01*
X178545935Y-63267749D01*
X178449218Y-63085849D01*
X178319011Y-62926200D01*
X178262446Y-62879405D01*
X178164002Y-62797965D01*
X178164000Y-62797964D01*
X178160275Y-62794882D01*
X177979055Y-62696897D01*
X177902418Y-62673174D01*
X177786875Y-62637407D01*
X177786871Y-62637406D01*
X177782254Y-62635977D01*
X177777446Y-62635472D01*
X177777443Y-62635471D01*
X177582185Y-62614949D01*
X177582183Y-62614949D01*
X177577369Y-62614443D01*
X177517354Y-62619905D01*
X177377022Y-62632675D01*
X177377017Y-62632676D01*
X177372203Y-62633114D01*
X177174572Y-62691280D01*
X177170288Y-62693519D01*
X177170287Y-62693520D01*
X177114431Y-62722721D01*
X176992002Y-62786726D01*
X176988231Y-62789758D01*
X176835220Y-62912781D01*
X176835217Y-62912783D01*
X176831447Y-62915815D01*
X176828333Y-62919526D01*
X176828332Y-62919527D01*
X176718932Y-63049905D01*
X176699024Y-63073630D01*
X176696689Y-63077878D01*
X176696688Y-63077879D01*
X176689955Y-63090126D01*
X176599776Y-63254162D01*
X176598313Y-63258775D01*
X176598311Y-63258779D01*
X176544413Y-63428689D01*
X176537484Y-63450532D01*
X176536944Y-63455344D01*
X176536944Y-63455345D01*
X176524879Y-63562913D01*
X176514520Y-63655262D01*
X170812613Y-63655262D01*
X170812613Y-61115262D01*
X181594520Y-61115262D01*
X181598187Y-61158928D01*
X181610735Y-61308355D01*
X181611759Y-61320553D01*
X181613092Y-61325201D01*
X181613092Y-61325202D01*
X181666353Y-61510944D01*
X181668544Y-61518586D01*
X181762712Y-61701818D01*
X181890677Y-61863270D01*
X181894357Y-61866402D01*
X181894359Y-61866404D01*
X182007017Y-61962283D01*
X182047564Y-61996791D01*
X182051787Y-61999151D01*
X182051791Y-61999154D01*
X182168702Y-62064493D01*
X182227398Y-62097297D01*
X182231996Y-62098791D01*
X182418724Y-62159463D01*
X182418726Y-62159464D01*
X182423329Y-62160959D01*
X182627894Y-62185351D01*
X182632716Y-62184980D01*
X182632719Y-62184980D01*
X182700541Y-62179761D01*
X182833300Y-62169546D01*
X183031725Y-62114145D01*
X183036038Y-62111966D01*
X183036044Y-62111964D01*
X183211289Y-62023441D01*
X183211291Y-62023440D01*
X183215610Y-62021258D01*
X183236208Y-62005165D01*
X183374135Y-61897406D01*
X183374139Y-61897402D01*
X183377951Y-61894424D01*
X183386295Y-61884758D01*
X183437313Y-61825651D01*
X183512564Y-61738472D01*
X183514957Y-61734260D01*
X183611934Y-61563550D01*
X183611935Y-61563547D01*
X183614323Y-61559344D01*
X183620199Y-61541682D01*
X183677824Y-61368454D01*
X183677824Y-61368452D01*
X183679351Y-61363863D01*
X183680088Y-61358034D01*
X183704823Y-61162228D01*
X183705171Y-61159474D01*
X183705583Y-61130000D01*
X183697104Y-61043519D01*
X183685952Y-60929780D01*
X183685951Y-60929776D01*
X183685480Y-60924970D01*
X183682642Y-60915568D01*
X183634343Y-60755597D01*
X183625935Y-60727749D01*
X183529218Y-60545849D01*
X183399011Y-60386200D01*
X183369017Y-60361387D01*
X183244002Y-60257965D01*
X183244000Y-60257964D01*
X183240275Y-60254882D01*
X183105621Y-60182075D01*
X183063309Y-60159197D01*
X183063308Y-60159197D01*
X183059055Y-60156897D01*
X182962535Y-60127019D01*
X182866875Y-60097407D01*
X182866871Y-60097406D01*
X182862254Y-60095977D01*
X182857446Y-60095472D01*
X182857443Y-60095471D01*
X182662185Y-60074949D01*
X182662183Y-60074949D01*
X182657369Y-60074443D01*
X182599888Y-60079674D01*
X182457022Y-60092675D01*
X182457017Y-60092676D01*
X182452203Y-60093114D01*
X182254572Y-60151280D01*
X182250288Y-60153519D01*
X182250287Y-60153520D01*
X182210172Y-60174492D01*
X182072002Y-60246726D01*
X182068231Y-60249758D01*
X181915220Y-60372781D01*
X181915217Y-60372783D01*
X181911447Y-60375815D01*
X181908333Y-60379526D01*
X181908332Y-60379527D01*
X181782542Y-60529438D01*
X181779024Y-60533630D01*
X181776689Y-60537878D01*
X181776688Y-60537879D01*
X181769955Y-60550126D01*
X181679776Y-60714162D01*
X181678313Y-60718775D01*
X181678311Y-60718779D01*
X181638293Y-60844933D01*
X181617484Y-60910532D01*
X181616944Y-60915344D01*
X181616944Y-60915345D01*
X181612240Y-60957288D01*
X181594520Y-61115262D01*
X170812613Y-61115262D01*
X170812613Y-57130000D01*
X173444564Y-57130000D01*
X173444776Y-57133235D01*
X173458226Y-57338440D01*
X173464287Y-57430920D01*
X173523120Y-57726691D01*
X173620055Y-58012252D01*
X173651203Y-58075413D01*
X173746874Y-58269415D01*
X173753434Y-58282718D01*
X173920975Y-58533461D01*
X174119811Y-58760189D01*
X174346539Y-58959025D01*
X174597282Y-59126566D01*
X174600188Y-59127999D01*
X174600193Y-59128002D01*
X174734552Y-59194260D01*
X174867748Y-59259945D01*
X175153309Y-59356880D01*
X175449080Y-59415713D01*
X175452302Y-59415924D01*
X175452308Y-59415925D01*
X175746765Y-59435224D01*
X175750000Y-59435436D01*
X175753235Y-59435224D01*
X176047692Y-59415925D01*
X176047698Y-59415924D01*
X176050920Y-59415713D01*
X176346691Y-59356880D01*
X176632252Y-59259945D01*
X176765448Y-59194260D01*
X176899807Y-59128002D01*
X176899812Y-59127999D01*
X176902718Y-59126566D01*
X177153461Y-58959025D01*
X177380189Y-58760189D01*
X177542366Y-58575262D01*
X181594520Y-58575262D01*
X181599519Y-58634795D01*
X181609734Y-58756434D01*
X181611759Y-58780553D01*
X181613092Y-58785201D01*
X181613092Y-58785202D01*
X181662322Y-58956886D01*
X181668544Y-58978586D01*
X181670759Y-58982896D01*
X181691652Y-59023550D01*
X181762712Y-59161818D01*
X181890677Y-59323270D01*
X181894357Y-59326402D01*
X181894359Y-59326404D01*
X182007017Y-59422283D01*
X182047564Y-59456791D01*
X182051787Y-59459151D01*
X182051791Y-59459154D01*
X182158899Y-59519014D01*
X182227398Y-59557297D01*
X182231996Y-59558791D01*
X182418724Y-59619463D01*
X182418726Y-59619464D01*
X182423329Y-59620959D01*
X182627894Y-59645351D01*
X182632716Y-59644980D01*
X182632719Y-59644980D01*
X182700541Y-59639761D01*
X182833300Y-59629546D01*
X183031725Y-59574145D01*
X183036038Y-59571966D01*
X183036044Y-59571964D01*
X183211289Y-59483441D01*
X183211291Y-59483440D01*
X183215610Y-59481258D01*
X183264274Y-59443238D01*
X183374135Y-59357406D01*
X183374139Y-59357402D01*
X183377951Y-59354424D01*
X183389657Y-59340863D01*
X183487198Y-59227859D01*
X183512564Y-59198472D01*
X183524835Y-59176871D01*
X183611934Y-59023550D01*
X183611935Y-59023547D01*
X183614323Y-59019344D01*
X183616065Y-59014109D01*
X183677824Y-58828454D01*
X183677824Y-58828452D01*
X183679351Y-58823863D01*
X183684897Y-58779966D01*
X183698017Y-58676101D01*
X183705171Y-58619474D01*
X183705583Y-58590000D01*
X183705313Y-58587244D01*
X183685952Y-58389780D01*
X183685951Y-58389776D01*
X183685480Y-58384970D01*
X183625935Y-58187749D01*
X183529218Y-58005849D01*
X183399011Y-57846200D01*
X183378527Y-57829254D01*
X183244002Y-57717965D01*
X183244000Y-57717964D01*
X183240275Y-57714882D01*
X183113180Y-57646162D01*
X183063309Y-57619197D01*
X183063308Y-57619197D01*
X183059055Y-57616897D01*
X182966250Y-57588169D01*
X182866875Y-57557407D01*
X182866871Y-57557406D01*
X182862254Y-57555977D01*
X182857446Y-57555472D01*
X182857443Y-57555471D01*
X182662185Y-57534949D01*
X182662183Y-57534949D01*
X182657369Y-57534443D01*
X182597354Y-57539905D01*
X182457022Y-57552675D01*
X182457017Y-57552676D01*
X182452203Y-57553114D01*
X182254572Y-57611280D01*
X182250288Y-57613519D01*
X182250287Y-57613520D01*
X182239428Y-57619197D01*
X182072002Y-57706726D01*
X182068231Y-57709758D01*
X181915220Y-57832781D01*
X181915217Y-57832783D01*
X181911447Y-57835815D01*
X181908333Y-57839526D01*
X181908332Y-57839527D01*
X181893749Y-57856907D01*
X181779024Y-57993630D01*
X181776689Y-57997878D01*
X181776688Y-57997879D01*
X181768692Y-58012423D01*
X181679776Y-58174162D01*
X181678313Y-58178775D01*
X181678311Y-58178779D01*
X181636088Y-58311883D01*
X181617484Y-58370532D01*
X181616944Y-58375344D01*
X181616944Y-58375345D01*
X181595123Y-58569890D01*
X181594520Y-58575262D01*
X177542366Y-58575262D01*
X177579025Y-58533461D01*
X177746566Y-58282718D01*
X177753127Y-58269415D01*
X177848797Y-58075413D01*
X177879945Y-58012252D01*
X177976880Y-57726691D01*
X178035713Y-57430920D01*
X178041775Y-57338440D01*
X178055224Y-57133235D01*
X178055436Y-57130000D01*
X178052482Y-57084936D01*
X178035925Y-56832308D01*
X178035924Y-56832302D01*
X178035713Y-56829080D01*
X177976880Y-56533309D01*
X177879945Y-56247748D01*
X177786375Y-56058007D01*
X177748002Y-55980193D01*
X177747999Y-55980188D01*
X177746566Y-55977282D01*
X177579025Y-55726539D01*
X177380189Y-55499811D01*
X177153461Y-55300975D01*
X176910203Y-55138435D01*
X176905415Y-55135236D01*
X176905414Y-55135236D01*
X176902718Y-55133434D01*
X176899812Y-55132001D01*
X176899807Y-55131998D01*
X176733019Y-55049748D01*
X176632252Y-55000055D01*
X176346691Y-54903120D01*
X176050920Y-54844287D01*
X176047698Y-54844076D01*
X176047692Y-54844075D01*
X175753235Y-54824776D01*
X175750000Y-54824564D01*
X175746765Y-54824776D01*
X175452308Y-54844075D01*
X175452302Y-54844076D01*
X175449080Y-54844287D01*
X175153309Y-54903120D01*
X174867748Y-55000055D01*
X174766981Y-55049748D01*
X174600193Y-55131998D01*
X174600188Y-55132001D01*
X174597282Y-55133434D01*
X174594586Y-55135236D01*
X174594585Y-55135236D01*
X174589797Y-55138435D01*
X174346539Y-55300975D01*
X174119811Y-55499811D01*
X173920975Y-55726539D01*
X173753434Y-55977282D01*
X173752001Y-55980188D01*
X173751998Y-55980193D01*
X173713625Y-56058007D01*
X173620055Y-56247748D01*
X173523120Y-56533309D01*
X173464287Y-56829080D01*
X173464076Y-56832301D01*
X173464075Y-56832308D01*
X173451704Y-57021071D01*
X173448475Y-57070335D01*
X173444564Y-57130000D01*
X170812613Y-57130000D01*
X170812613Y-51040262D01*
X176499520Y-51040262D01*
X176500526Y-51052244D01*
X176510325Y-51168928D01*
X176516759Y-51245553D01*
X176518092Y-51250201D01*
X176518092Y-51250202D01*
X176570026Y-51431316D01*
X176573544Y-51443586D01*
X176667712Y-51626818D01*
X176795677Y-51788270D01*
X176799357Y-51791402D01*
X176799359Y-51791404D01*
X176855672Y-51839330D01*
X176952564Y-51921791D01*
X176956787Y-51924151D01*
X176956791Y-51924154D01*
X176996342Y-51946258D01*
X177132398Y-52022297D01*
X177136996Y-52023791D01*
X177323724Y-52084463D01*
X177323726Y-52084464D01*
X177328329Y-52085959D01*
X177532894Y-52110351D01*
X177537716Y-52109980D01*
X177537719Y-52109980D01*
X177608259Y-52104552D01*
X177738300Y-52094546D01*
X177936725Y-52039145D01*
X177967164Y-52023769D01*
X178027629Y-52014408D01*
X178081805Y-52042131D01*
X183554867Y-57515194D01*
X189025504Y-62985831D01*
X189053281Y-63040348D01*
X189054500Y-63055835D01*
X189054500Y-67494530D01*
X189035593Y-67552721D01*
X189015768Y-67573071D01*
X188951718Y-67622218D01*
X188855464Y-67747659D01*
X188852981Y-67753654D01*
X188800642Y-67880012D01*
X188794956Y-67893738D01*
X188774318Y-68050500D01*
X188794956Y-68207262D01*
X188855464Y-68353341D01*
X188951718Y-68478782D01*
X189077159Y-68575036D01*
X189223238Y-68635544D01*
X189380000Y-68656182D01*
X189536762Y-68635544D01*
X189682841Y-68575036D01*
X189808282Y-68478782D01*
X189904536Y-68353341D01*
X189965044Y-68207262D01*
X189985682Y-68050500D01*
X189965044Y-67893738D01*
X189959359Y-67880012D01*
X189907019Y-67753654D01*
X189904536Y-67747659D01*
X189808282Y-67622218D01*
X189744233Y-67573071D01*
X189709577Y-67522648D01*
X189705500Y-67494530D01*
X189705500Y-62898523D01*
X189705877Y-62889894D01*
X189708508Y-62859820D01*
X189709263Y-62851193D01*
X189707022Y-62842830D01*
X189707022Y-62842827D01*
X189699206Y-62813656D01*
X189697337Y-62805228D01*
X189694074Y-62786726D01*
X189690588Y-62766955D01*
X189686257Y-62759454D01*
X189684258Y-62753960D01*
X189681795Y-62748678D01*
X189679554Y-62740316D01*
X189657259Y-62708475D01*
X189652636Y-62701219D01*
X189633194Y-62667545D01*
X189603436Y-62642575D01*
X189597068Y-62636741D01*
X184085285Y-57124958D01*
X178543923Y-51583597D01*
X178516146Y-51529080D01*
X178519988Y-51482344D01*
X178520850Y-51479755D01*
X178577762Y-51308671D01*
X178582824Y-51293454D01*
X178582824Y-51293452D01*
X178584351Y-51288863D01*
X178588820Y-51253492D01*
X178609823Y-51087228D01*
X178610171Y-51084474D01*
X178610583Y-51055000D01*
X178610313Y-51052244D01*
X178609138Y-51040262D01*
X179039520Y-51040262D01*
X179040526Y-51052244D01*
X179050325Y-51168928D01*
X179056759Y-51245553D01*
X179058092Y-51250201D01*
X179058092Y-51250202D01*
X179110026Y-51431316D01*
X179113544Y-51443586D01*
X179207712Y-51626818D01*
X179335677Y-51788270D01*
X179339357Y-51791402D01*
X179339359Y-51791404D01*
X179395672Y-51839330D01*
X179492564Y-51921791D01*
X179496787Y-51924151D01*
X179496791Y-51924154D01*
X179536342Y-51946258D01*
X179672398Y-52022297D01*
X179676996Y-52023791D01*
X179863724Y-52084463D01*
X179863726Y-52084464D01*
X179868329Y-52085959D01*
X180072894Y-52110351D01*
X180077716Y-52109980D01*
X180077719Y-52109980D01*
X180148259Y-52104552D01*
X180278300Y-52094546D01*
X180476725Y-52039145D01*
X180507164Y-52023769D01*
X180567629Y-52014408D01*
X180621805Y-52042131D01*
X185442031Y-56862358D01*
X190255993Y-61676320D01*
X190283770Y-61730837D01*
X190284989Y-61746324D01*
X190284989Y-66886040D01*
X190266082Y-66944231D01*
X190246257Y-66964581D01*
X190231718Y-66975737D01*
X190135464Y-67101178D01*
X190074956Y-67247257D01*
X190054318Y-67404019D01*
X190074956Y-67560781D01*
X190135464Y-67706860D01*
X190231718Y-67832301D01*
X190357159Y-67928555D01*
X190430392Y-67958889D01*
X190482667Y-67980542D01*
X190503238Y-67989063D01*
X190623115Y-68004845D01*
X190640859Y-68007181D01*
X190660000Y-68009701D01*
X190679142Y-68007181D01*
X190696885Y-68004845D01*
X190816762Y-67989063D01*
X190837334Y-67980542D01*
X190889608Y-67958889D01*
X190962841Y-67928555D01*
X191088282Y-67832301D01*
X191184536Y-67706860D01*
X191245044Y-67560781D01*
X191265682Y-67404019D01*
X191245044Y-67247257D01*
X191184536Y-67101178D01*
X191088282Y-66975737D01*
X190974721Y-66888599D01*
X190940066Y-66838176D01*
X190935989Y-66810058D01*
X190935989Y-66076259D01*
X190954896Y-66018068D01*
X191004396Y-65982104D01*
X191065582Y-65982104D01*
X191099153Y-66000867D01*
X191114912Y-66014279D01*
X191119134Y-66016639D01*
X191119139Y-66016642D01*
X191149191Y-66033437D01*
X191277627Y-66105217D01*
X191282225Y-66106711D01*
X191450302Y-66161323D01*
X191450304Y-66161324D01*
X191454907Y-66162819D01*
X191639998Y-66184890D01*
X191644820Y-66184519D01*
X191644823Y-66184519D01*
X191821023Y-66170961D01*
X191821028Y-66170960D01*
X191825851Y-66170589D01*
X192005387Y-66120462D01*
X192009700Y-66118283D01*
X192009706Y-66118281D01*
X192167447Y-66038600D01*
X192167449Y-66038598D01*
X192171768Y-66036417D01*
X192318655Y-65921656D01*
X192440454Y-65780550D01*
X192525907Y-65630126D01*
X192530137Y-65622680D01*
X192530138Y-65622677D01*
X192532526Y-65618474D01*
X192534138Y-65613630D01*
X192589837Y-65446192D01*
X192589837Y-65446190D01*
X192591364Y-65441601D01*
X192614727Y-65256668D01*
X192615099Y-65230000D01*
X192596909Y-65044487D01*
X192543033Y-64866040D01*
X192455522Y-64701456D01*
X192337710Y-64557005D01*
X192259738Y-64492500D01*
X192197812Y-64441270D01*
X192197810Y-64441269D01*
X192194085Y-64438187D01*
X192049654Y-64360093D01*
X192034370Y-64351829D01*
X192034369Y-64351829D01*
X192030116Y-64349529D01*
X191852049Y-64294409D01*
X191847239Y-64293903D01*
X191847237Y-64293903D01*
X191671484Y-64275430D01*
X191671482Y-64275430D01*
X191666668Y-64274924D01*
X191629517Y-64278305D01*
X191485852Y-64291379D01*
X191485848Y-64291380D01*
X191481032Y-64291818D01*
X191476390Y-64293184D01*
X191476386Y-64293185D01*
X191306861Y-64343080D01*
X191306858Y-64343081D01*
X191302214Y-64344448D01*
X191137023Y-64430807D01*
X191133247Y-64433843D01*
X191133244Y-64433845D01*
X191097023Y-64462968D01*
X191039825Y-64484696D01*
X190980780Y-64468654D01*
X190942441Y-64420970D01*
X190935989Y-64385814D01*
X190935989Y-61589015D01*
X190936366Y-61580387D01*
X190937449Y-61568011D01*
X190939752Y-61541682D01*
X190937511Y-61533319D01*
X190937511Y-61533316D01*
X190929695Y-61504145D01*
X190927826Y-61495717D01*
X190922581Y-61465974D01*
X190921077Y-61457444D01*
X190916746Y-61449943D01*
X190914747Y-61444449D01*
X190912284Y-61439167D01*
X190910043Y-61430805D01*
X190887748Y-61398964D01*
X190883125Y-61391708D01*
X190863683Y-61358034D01*
X190833925Y-61333064D01*
X190827557Y-61327230D01*
X187155074Y-57654748D01*
X215357387Y-57654748D01*
X215361539Y-57675619D01*
X215366488Y-57700500D01*
X215369020Y-57713231D01*
X215413335Y-57779552D01*
X215479656Y-57823867D01*
X215489219Y-57825769D01*
X215489221Y-57825770D01*
X215506738Y-57829254D01*
X215538139Y-57835500D01*
X217277635Y-57835500D01*
X217309036Y-57829254D01*
X217326553Y-57825770D01*
X217326555Y-57825769D01*
X217336118Y-57823867D01*
X217402439Y-57779552D01*
X217446754Y-57713231D01*
X217449287Y-57700500D01*
X217454235Y-57675619D01*
X217458387Y-57654748D01*
X217458387Y-55915252D01*
X217446754Y-55856769D01*
X217402439Y-55790448D01*
X217373437Y-55771069D01*
X220175164Y-55771069D01*
X220175461Y-55775597D01*
X220176580Y-55792675D01*
X220184302Y-55910488D01*
X220188392Y-55972894D01*
X220238178Y-56168928D01*
X220322856Y-56352607D01*
X220439588Y-56517780D01*
X220584466Y-56658913D01*
X220752637Y-56771282D01*
X220938470Y-56851122D01*
X221135740Y-56895760D01*
X221337842Y-56903700D01*
X221391377Y-56895938D01*
X221533519Y-56875329D01*
X221533522Y-56875328D01*
X221538007Y-56874678D01*
X221633769Y-56842171D01*
X221725234Y-56811123D01*
X221725237Y-56811121D01*
X221729531Y-56809664D01*
X221906001Y-56710837D01*
X222061505Y-56581505D01*
X222190837Y-56426001D01*
X222236113Y-56345155D01*
X225467387Y-56345155D01*
X225482341Y-56478472D01*
X225541402Y-56648073D01*
X225548176Y-56658913D01*
X225618392Y-56771282D01*
X225636571Y-56800375D01*
X225668282Y-56832308D01*
X225739178Y-56903700D01*
X225763117Y-56927807D01*
X225767791Y-56930773D01*
X225767792Y-56930774D01*
X225778692Y-56937691D01*
X225914751Y-57024037D01*
X226083936Y-57084281D01*
X226089423Y-57084935D01*
X226089426Y-57084936D01*
X226256767Y-57104890D01*
X226256770Y-57104890D01*
X226262263Y-57105545D01*
X226440870Y-57086773D01*
X226446110Y-57084989D01*
X226446111Y-57084989D01*
X226605638Y-57030682D01*
X226605642Y-57030680D01*
X226610880Y-57028897D01*
X226615590Y-57025999D01*
X226615595Y-57025997D01*
X226759133Y-56937691D01*
X226763842Y-56934794D01*
X226830676Y-56869346D01*
X226888202Y-56813012D01*
X226892155Y-56809141D01*
X226989441Y-56658183D01*
X227050865Y-56489422D01*
X227068387Y-56350717D01*
X227068387Y-55254845D01*
X227065683Y-55230734D01*
X227063782Y-55213791D01*
X227053433Y-55121528D01*
X227024954Y-55039748D01*
X226996192Y-54957153D01*
X226996192Y-54957152D01*
X226994372Y-54951927D01*
X226935141Y-54857138D01*
X226902134Y-54804315D01*
X226902132Y-54804313D01*
X226899203Y-54799625D01*
X226772657Y-54672193D01*
X226767742Y-54669074D01*
X226625697Y-54578929D01*
X226625696Y-54578928D01*
X226621023Y-54575963D01*
X226451838Y-54515719D01*
X226446351Y-54515065D01*
X226446348Y-54515064D01*
X226279007Y-54495110D01*
X226279004Y-54495110D01*
X226273511Y-54494455D01*
X226094904Y-54513227D01*
X226089664Y-54515011D01*
X226089663Y-54515011D01*
X225930136Y-54569318D01*
X225930132Y-54569320D01*
X225924894Y-54571103D01*
X225920184Y-54574001D01*
X225920179Y-54574003D01*
X225776794Y-54662215D01*
X225771932Y-54665206D01*
X225767983Y-54669074D01*
X225767982Y-54669074D01*
X225738248Y-54698192D01*
X225643619Y-54790859D01*
X225546333Y-54941817D01*
X225484909Y-55110578D01*
X225467387Y-55249283D01*
X225467387Y-56345155D01*
X222236113Y-56345155D01*
X222289664Y-56249531D01*
X222354678Y-56058007D01*
X222366382Y-55977288D01*
X222383283Y-55860717D01*
X222383700Y-55857842D01*
X222385215Y-55800000D01*
X222384338Y-55790448D01*
X222367123Y-55603109D01*
X222366708Y-55598591D01*
X222311807Y-55403926D01*
X222222351Y-55222527D01*
X222112512Y-55075435D01*
X222104051Y-55064104D01*
X222104050Y-55064103D01*
X222101335Y-55060467D01*
X221952812Y-54923174D01*
X221930125Y-54908859D01*
X221785594Y-54817667D01*
X221781757Y-54815246D01*
X221593898Y-54740298D01*
X221395526Y-54700839D01*
X221295930Y-54699535D01*
X221197826Y-54698251D01*
X221197821Y-54698251D01*
X221193286Y-54698192D01*
X221188813Y-54698961D01*
X221188808Y-54698961D01*
X221090245Y-54715898D01*
X220993949Y-54732444D01*
X220804193Y-54802449D01*
X220630371Y-54905862D01*
X220626956Y-54908857D01*
X220626953Y-54908859D01*
X220538064Y-54986813D01*
X220478305Y-55039220D01*
X220475497Y-55042782D01*
X220367347Y-55179971D01*
X220353089Y-55198057D01*
X220258914Y-55377053D01*
X220257569Y-55381384D01*
X220257568Y-55381387D01*
X220249072Y-55408751D01*
X220198937Y-55570213D01*
X220188034Y-55662335D01*
X220180116Y-55729234D01*
X220175164Y-55771069D01*
X217373437Y-55771069D01*
X217336118Y-55746133D01*
X217326555Y-55744231D01*
X217326553Y-55744230D01*
X217303882Y-55739721D01*
X217277635Y-55734500D01*
X215538139Y-55734500D01*
X215511892Y-55739721D01*
X215489221Y-55744230D01*
X215489219Y-55744231D01*
X215479656Y-55746133D01*
X215413335Y-55790448D01*
X215369020Y-55856769D01*
X215357387Y-55915252D01*
X215357387Y-57654748D01*
X187155074Y-57654748D01*
X184505567Y-55005241D01*
X197597123Y-55005241D01*
X197597613Y-55008340D01*
X197599549Y-55010792D01*
X197647951Y-55051985D01*
X197655865Y-55057486D01*
X197818601Y-55148435D01*
X197827429Y-55152292D01*
X198004740Y-55209904D01*
X198014140Y-55211971D01*
X198199268Y-55234046D01*
X198208894Y-55234248D01*
X198394772Y-55219945D01*
X198404266Y-55218271D01*
X198583818Y-55168139D01*
X198592815Y-55164649D01*
X198759211Y-55080597D01*
X198767346Y-55075435D01*
X198845812Y-55014130D01*
X198853271Y-55003073D01*
X198853200Y-55001045D01*
X198850504Y-54996813D01*
X198236199Y-54382507D01*
X198224316Y-54376453D01*
X198219285Y-54377249D01*
X197603177Y-54993358D01*
X197597123Y-55005241D01*
X184505567Y-55005241D01*
X183721116Y-54220790D01*
X197220777Y-54220790D01*
X197236377Y-54406574D01*
X197238115Y-54416042D01*
X197289501Y-54595248D01*
X197293052Y-54604216D01*
X197378266Y-54770025D01*
X197383486Y-54778124D01*
X197440988Y-54850674D01*
X197452099Y-54858056D01*
X197454309Y-54857963D01*
X197458271Y-54855420D01*
X198072606Y-54241086D01*
X198077848Y-54230797D01*
X198371566Y-54230797D01*
X198372362Y-54235828D01*
X198988587Y-54852052D01*
X199000470Y-54858106D01*
X199003752Y-54857587D01*
X199005957Y-54855858D01*
X199043053Y-54812882D01*
X199044714Y-54810527D01*
X199045763Y-54809742D01*
X199046212Y-54809222D01*
X199046326Y-54809321D01*
X199093706Y-54773874D01*
X199154885Y-54773018D01*
X199204884Y-54808285D01*
X199224613Y-54867591D01*
X199224613Y-55049748D01*
X199228760Y-55070597D01*
X199234257Y-55098231D01*
X199236246Y-55108231D01*
X199280561Y-55174552D01*
X199346882Y-55218867D01*
X199356445Y-55220769D01*
X199356447Y-55220770D01*
X199373934Y-55224248D01*
X199405365Y-55230500D01*
X201044861Y-55230500D01*
X201076292Y-55224248D01*
X201093779Y-55220770D01*
X201093781Y-55220769D01*
X201103344Y-55218867D01*
X201169665Y-55174552D01*
X201213980Y-55108231D01*
X201215970Y-55098231D01*
X201221466Y-55070597D01*
X201225613Y-55049748D01*
X201225613Y-55039748D01*
X202944388Y-55039748D01*
X202947916Y-55057486D01*
X202951487Y-55075435D01*
X202956021Y-55098231D01*
X203000336Y-55164552D01*
X203066657Y-55208867D01*
X203076220Y-55210769D01*
X203076222Y-55210770D01*
X203098893Y-55215279D01*
X203125140Y-55220500D01*
X204764636Y-55220500D01*
X204790883Y-55215279D01*
X204813554Y-55210770D01*
X204813556Y-55210769D01*
X204823119Y-55208867D01*
X204889440Y-55164552D01*
X204933755Y-55098231D01*
X204938290Y-55075435D01*
X204941860Y-55057486D01*
X204945388Y-55039748D01*
X204945388Y-54995241D01*
X205316898Y-54995241D01*
X205317388Y-54998340D01*
X205319324Y-55000792D01*
X205367726Y-55041985D01*
X205375640Y-55047486D01*
X205538376Y-55138435D01*
X205547204Y-55142292D01*
X205724515Y-55199904D01*
X205733915Y-55201971D01*
X205919043Y-55224046D01*
X205928669Y-55224248D01*
X206114547Y-55209945D01*
X206124041Y-55208271D01*
X206303593Y-55158139D01*
X206312590Y-55154649D01*
X206478986Y-55070597D01*
X206487121Y-55065435D01*
X206565587Y-55004130D01*
X206573046Y-54993073D01*
X206572975Y-54991045D01*
X206570279Y-54986813D01*
X205955974Y-54372507D01*
X205944091Y-54366453D01*
X205939060Y-54367249D01*
X205322952Y-54983358D01*
X205316898Y-54995241D01*
X204945388Y-54995241D01*
X204945388Y-54853227D01*
X204964295Y-54795036D01*
X205013795Y-54759072D01*
X205074981Y-54759072D01*
X205121974Y-54791734D01*
X205160763Y-54840674D01*
X205171874Y-54848056D01*
X205174084Y-54847963D01*
X205178046Y-54845420D01*
X205792381Y-54231086D01*
X205797623Y-54220797D01*
X206091341Y-54220797D01*
X206092137Y-54225828D01*
X206708362Y-54842052D01*
X206720245Y-54848106D01*
X206723527Y-54847587D01*
X206725732Y-54845858D01*
X206762822Y-54802888D01*
X206768381Y-54795007D01*
X206860465Y-54632911D01*
X206864381Y-54624116D01*
X206923229Y-54447212D01*
X206925363Y-54437818D01*
X206948987Y-54250810D01*
X206949374Y-54245283D01*
X206949583Y-54230262D01*
X215352407Y-54230262D01*
X215355887Y-54271699D01*
X215368008Y-54416042D01*
X215369646Y-54435553D01*
X215370979Y-54440201D01*
X215370979Y-54440202D01*
X215423716Y-54624116D01*
X215426431Y-54633586D01*
X215520599Y-54816818D01*
X215648564Y-54978270D01*
X215652244Y-54981402D01*
X215652246Y-54981404D01*
X215735179Y-55051985D01*
X215805451Y-55111791D01*
X215809674Y-55114151D01*
X215809678Y-55114154D01*
X215900029Y-55164649D01*
X215985285Y-55212297D01*
X215989883Y-55213791D01*
X216176611Y-55274463D01*
X216176613Y-55274464D01*
X216181216Y-55275959D01*
X216385781Y-55300351D01*
X216390603Y-55299980D01*
X216390606Y-55299980D01*
X216458428Y-55294761D01*
X216591187Y-55284546D01*
X216789612Y-55229145D01*
X216793925Y-55226966D01*
X216793931Y-55226964D01*
X216969176Y-55138441D01*
X216969178Y-55138440D01*
X216973497Y-55136258D01*
X216998991Y-55116340D01*
X217132022Y-55012406D01*
X217132026Y-55012402D01*
X217135838Y-55009424D01*
X217142688Y-55001489D01*
X217212375Y-54920754D01*
X217270451Y-54853472D01*
X217272844Y-54849260D01*
X217369821Y-54678550D01*
X217369822Y-54678547D01*
X217372210Y-54674344D01*
X217373964Y-54669074D01*
X217435711Y-54483454D01*
X217435711Y-54483452D01*
X217437238Y-54478863D01*
X217441237Y-54447212D01*
X217462710Y-54277228D01*
X217463058Y-54274474D01*
X217463470Y-54245000D01*
X217462106Y-54231086D01*
X217443839Y-54044780D01*
X217443838Y-54044776D01*
X217443367Y-54039970D01*
X217441650Y-54034281D01*
X217392367Y-53871051D01*
X217383822Y-53842749D01*
X217287105Y-53660849D01*
X217156898Y-53501200D01*
X217115279Y-53466770D01*
X217001889Y-53372965D01*
X217001887Y-53372964D01*
X216998162Y-53369882D01*
X216831982Y-53280029D01*
X216821196Y-53274197D01*
X216821195Y-53274197D01*
X216816942Y-53271897D01*
X216753742Y-53252333D01*
X216624762Y-53212407D01*
X216624758Y-53212406D01*
X216620141Y-53210977D01*
X216615333Y-53210472D01*
X216615330Y-53210471D01*
X216420072Y-53189949D01*
X216420070Y-53189949D01*
X216415256Y-53189443D01*
X216355241Y-53194905D01*
X216214909Y-53207675D01*
X216214904Y-53207676D01*
X216210090Y-53208114D01*
X216012459Y-53266280D01*
X216008175Y-53268519D01*
X216008174Y-53268520D01*
X215997315Y-53274197D01*
X215829889Y-53361726D01*
X215826118Y-53364758D01*
X215673107Y-53487781D01*
X215673104Y-53487783D01*
X215669334Y-53490815D01*
X215666220Y-53494526D01*
X215666219Y-53494527D01*
X215572773Y-53605892D01*
X215536911Y-53648630D01*
X215534576Y-53652878D01*
X215534575Y-53652879D01*
X215526150Y-53668204D01*
X215437663Y-53829162D01*
X215436200Y-53833775D01*
X215436198Y-53833779D01*
X215392968Y-53970060D01*
X215375371Y-54025532D01*
X215374831Y-54030344D01*
X215374831Y-54030345D01*
X215353249Y-54222759D01*
X215352407Y-54230262D01*
X206949583Y-54230262D01*
X206949688Y-54222759D01*
X206949458Y-54217261D01*
X206931062Y-54029636D01*
X206929193Y-54020198D01*
X206875306Y-53841718D01*
X206871636Y-53832814D01*
X206784112Y-53668204D01*
X206778779Y-53660178D01*
X206729103Y-53599269D01*
X206717891Y-53592044D01*
X206715310Y-53592188D01*
X206711897Y-53594413D01*
X206097395Y-54208914D01*
X206091341Y-54220797D01*
X205797623Y-54220797D01*
X205798435Y-54219203D01*
X205797639Y-54214172D01*
X205181611Y-53598145D01*
X205169728Y-53592091D01*
X205166811Y-53592553D01*
X205164118Y-53594695D01*
X205120226Y-53647003D01*
X205068338Y-53679426D01*
X205007302Y-53675158D01*
X204960431Y-53635829D01*
X204945388Y-53583367D01*
X204945388Y-53447008D01*
X205316899Y-53447008D01*
X205317017Y-53449405D01*
X205319402Y-53453092D01*
X205933802Y-54067493D01*
X205945685Y-54073547D01*
X205950716Y-54072751D01*
X206566696Y-53456770D01*
X206572750Y-53444887D01*
X206572317Y-53442153D01*
X206569966Y-53439218D01*
X206510520Y-53390039D01*
X206502526Y-53384647D01*
X206338533Y-53295976D01*
X206329662Y-53292247D01*
X206151561Y-53237116D01*
X206142127Y-53235179D01*
X205956719Y-53215691D01*
X205947081Y-53215624D01*
X205761420Y-53232520D01*
X205751954Y-53234326D01*
X205573116Y-53286962D01*
X205564175Y-53290575D01*
X205398972Y-53376940D01*
X205390896Y-53382225D01*
X205324202Y-53435849D01*
X205316899Y-53447008D01*
X204945388Y-53447008D01*
X204945388Y-53400252D01*
X204937121Y-53358691D01*
X204935658Y-53351334D01*
X204935657Y-53351332D01*
X204933755Y-53341769D01*
X204889440Y-53275448D01*
X204823119Y-53231133D01*
X204813556Y-53229231D01*
X204813554Y-53229230D01*
X204790883Y-53224721D01*
X204764636Y-53219500D01*
X203125140Y-53219500D01*
X203098893Y-53224721D01*
X203076222Y-53229230D01*
X203076220Y-53229231D01*
X203066657Y-53231133D01*
X203000336Y-53275448D01*
X202956021Y-53341769D01*
X202954119Y-53351332D01*
X202954118Y-53351334D01*
X202952655Y-53358691D01*
X202944388Y-53400252D01*
X202944388Y-55039748D01*
X201225613Y-55039748D01*
X201225613Y-53410252D01*
X201213980Y-53351769D01*
X201169665Y-53285448D01*
X201103344Y-53241133D01*
X201093781Y-53239231D01*
X201093779Y-53239230D01*
X201069123Y-53234326D01*
X201044861Y-53229500D01*
X199405365Y-53229500D01*
X199381103Y-53234326D01*
X199356447Y-53239230D01*
X199356445Y-53239231D01*
X199346882Y-53241133D01*
X199280561Y-53285448D01*
X199236246Y-53351769D01*
X199224613Y-53410252D01*
X199224613Y-53595211D01*
X199205706Y-53653402D01*
X199156206Y-53689366D01*
X199095020Y-53689366D01*
X199048894Y-53657782D01*
X199009328Y-53609269D01*
X198998116Y-53602044D01*
X198995535Y-53602188D01*
X198992122Y-53604413D01*
X198377620Y-54218914D01*
X198371566Y-54230797D01*
X198077848Y-54230797D01*
X198078660Y-54229203D01*
X198077864Y-54224172D01*
X197461836Y-53608145D01*
X197449953Y-53602091D01*
X197447036Y-53602553D01*
X197444343Y-53604695D01*
X197399124Y-53658584D01*
X197393671Y-53666548D01*
X197303865Y-53829905D01*
X197300065Y-53838769D01*
X197243696Y-54016467D01*
X197241692Y-54025895D01*
X197220911Y-54211162D01*
X197220777Y-54220790D01*
X183721116Y-54220790D01*
X182957334Y-53457008D01*
X197597124Y-53457008D01*
X197597242Y-53459405D01*
X197599627Y-53463092D01*
X198214027Y-54077493D01*
X198225910Y-54083547D01*
X198230941Y-54082751D01*
X198846921Y-53466770D01*
X198852975Y-53454887D01*
X198852542Y-53452153D01*
X198850191Y-53449218D01*
X198790745Y-53400039D01*
X198782751Y-53394647D01*
X198618758Y-53305976D01*
X198609887Y-53302247D01*
X198431786Y-53247116D01*
X198422352Y-53245179D01*
X198236944Y-53225691D01*
X198227306Y-53225624D01*
X198041645Y-53242520D01*
X198032179Y-53244326D01*
X197853341Y-53296962D01*
X197844400Y-53300575D01*
X197679197Y-53386940D01*
X197671121Y-53392225D01*
X197604427Y-53445849D01*
X197597124Y-53457008D01*
X182957334Y-53457008D01*
X181083923Y-51583597D01*
X181056146Y-51529080D01*
X181059988Y-51482344D01*
X181060850Y-51479755D01*
X181117762Y-51308671D01*
X181122824Y-51293454D01*
X181122824Y-51293452D01*
X181124351Y-51288863D01*
X181128820Y-51253492D01*
X181149823Y-51087228D01*
X181150171Y-51084474D01*
X181150583Y-51055000D01*
X181150313Y-51052244D01*
X181149138Y-51040262D01*
X181579520Y-51040262D01*
X181580526Y-51052244D01*
X181590325Y-51168928D01*
X181596759Y-51245553D01*
X181598092Y-51250201D01*
X181598092Y-51250202D01*
X181650026Y-51431316D01*
X181653544Y-51443586D01*
X181747712Y-51626818D01*
X181875677Y-51788270D01*
X181879357Y-51791402D01*
X181879359Y-51791404D01*
X181935672Y-51839330D01*
X182032564Y-51921791D01*
X182036787Y-51924151D01*
X182036791Y-51924154D01*
X182076342Y-51946258D01*
X182212398Y-52022297D01*
X182216996Y-52023791D01*
X182403724Y-52084463D01*
X182403726Y-52084464D01*
X182408329Y-52085959D01*
X182612894Y-52110351D01*
X182617716Y-52109980D01*
X182617719Y-52109980D01*
X182688259Y-52104552D01*
X182818300Y-52094546D01*
X183016725Y-52039145D01*
X183021038Y-52036966D01*
X183021044Y-52036964D01*
X183196289Y-51948441D01*
X183196291Y-51948440D01*
X183200610Y-51946258D01*
X183265245Y-51895760D01*
X183359135Y-51822406D01*
X183359139Y-51822402D01*
X183362951Y-51819424D01*
X183370117Y-51811123D01*
X183422313Y-51750651D01*
X183497564Y-51663472D01*
X183500154Y-51658913D01*
X183596934Y-51488550D01*
X183596935Y-51488547D01*
X183599323Y-51484344D01*
X183612882Y-51443586D01*
X183662824Y-51293454D01*
X183662824Y-51293452D01*
X183664351Y-51288863D01*
X183668820Y-51253492D01*
X183689823Y-51087228D01*
X183690171Y-51084474D01*
X183690583Y-51055000D01*
X183690313Y-51052244D01*
X183689138Y-51040262D01*
X184119520Y-51040262D01*
X184120526Y-51052244D01*
X184130325Y-51168928D01*
X184136759Y-51245553D01*
X184138092Y-51250201D01*
X184138092Y-51250202D01*
X184190026Y-51431316D01*
X184193544Y-51443586D01*
X184287712Y-51626818D01*
X184415677Y-51788270D01*
X184419357Y-51791402D01*
X184419359Y-51791404D01*
X184475672Y-51839330D01*
X184572564Y-51921791D01*
X184576787Y-51924151D01*
X184576791Y-51924154D01*
X184616342Y-51946258D01*
X184752398Y-52022297D01*
X184756996Y-52023791D01*
X184943724Y-52084463D01*
X184943726Y-52084464D01*
X184948329Y-52085959D01*
X185152894Y-52110351D01*
X185157716Y-52109980D01*
X185157719Y-52109980D01*
X185228259Y-52104552D01*
X185358300Y-52094546D01*
X185556725Y-52039145D01*
X185561038Y-52036966D01*
X185561044Y-52036964D01*
X185736289Y-51948441D01*
X185736291Y-51948440D01*
X185740610Y-51946258D01*
X185805245Y-51895760D01*
X185899135Y-51822406D01*
X185899139Y-51822402D01*
X185902951Y-51819424D01*
X185910117Y-51811123D01*
X185962313Y-51750651D01*
X186037564Y-51663472D01*
X186040154Y-51658913D01*
X186136934Y-51488550D01*
X186136935Y-51488547D01*
X186139323Y-51484344D01*
X186152882Y-51443586D01*
X186202824Y-51293454D01*
X186202824Y-51293452D01*
X186204351Y-51288863D01*
X186208820Y-51253492D01*
X186229823Y-51087228D01*
X186230171Y-51084474D01*
X186230583Y-51055000D01*
X186230313Y-51052244D01*
X186229138Y-51040262D01*
X186659520Y-51040262D01*
X186660526Y-51052244D01*
X186670325Y-51168928D01*
X186676759Y-51245553D01*
X186678092Y-51250201D01*
X186678092Y-51250202D01*
X186730026Y-51431316D01*
X186733544Y-51443586D01*
X186827712Y-51626818D01*
X186955677Y-51788270D01*
X186959357Y-51791402D01*
X186959359Y-51791404D01*
X187015672Y-51839330D01*
X187112564Y-51921791D01*
X187116787Y-51924151D01*
X187116791Y-51924154D01*
X187156342Y-51946258D01*
X187292398Y-52022297D01*
X187296996Y-52023791D01*
X187483724Y-52084463D01*
X187483726Y-52084464D01*
X187488329Y-52085959D01*
X187692894Y-52110351D01*
X187697716Y-52109980D01*
X187697719Y-52109980D01*
X187768259Y-52104552D01*
X187898300Y-52094546D01*
X188096725Y-52039145D01*
X188101038Y-52036966D01*
X188101044Y-52036964D01*
X188276289Y-51948441D01*
X188276291Y-51948440D01*
X188280610Y-51946258D01*
X188345245Y-51895760D01*
X188439135Y-51822406D01*
X188439139Y-51822402D01*
X188442951Y-51819424D01*
X188450117Y-51811123D01*
X188502313Y-51750651D01*
X188577564Y-51663472D01*
X188580154Y-51658913D01*
X188676934Y-51488550D01*
X188676935Y-51488547D01*
X188679323Y-51484344D01*
X188692882Y-51443586D01*
X188742824Y-51293454D01*
X188742824Y-51293452D01*
X188744351Y-51288863D01*
X188748820Y-51253492D01*
X188769823Y-51087228D01*
X188770171Y-51084474D01*
X188770583Y-51055000D01*
X188770313Y-51052244D01*
X188769138Y-51040262D01*
X189199520Y-51040262D01*
X189200526Y-51052244D01*
X189210325Y-51168928D01*
X189216759Y-51245553D01*
X189218092Y-51250201D01*
X189218092Y-51250202D01*
X189270026Y-51431316D01*
X189273544Y-51443586D01*
X189367712Y-51626818D01*
X189495677Y-51788270D01*
X189499357Y-51791402D01*
X189499359Y-51791404D01*
X189555672Y-51839330D01*
X189652564Y-51921791D01*
X189656787Y-51924151D01*
X189656791Y-51924154D01*
X189696342Y-51946258D01*
X189832398Y-52022297D01*
X189836996Y-52023791D01*
X190023724Y-52084463D01*
X190023726Y-52084464D01*
X190028329Y-52085959D01*
X190232894Y-52110351D01*
X190237716Y-52109980D01*
X190237719Y-52109980D01*
X190308259Y-52104552D01*
X190438300Y-52094546D01*
X190636725Y-52039145D01*
X190641038Y-52036966D01*
X190641044Y-52036964D01*
X190816289Y-51948441D01*
X190816291Y-51948440D01*
X190820610Y-51946258D01*
X190848142Y-51924748D01*
X191744500Y-51924748D01*
X191756133Y-51983231D01*
X191800448Y-52049552D01*
X191866769Y-52093867D01*
X191876332Y-52095769D01*
X191876334Y-52095770D01*
X191899005Y-52100279D01*
X191925252Y-52105500D01*
X193664748Y-52105500D01*
X193690995Y-52100279D01*
X193713666Y-52095770D01*
X193713668Y-52095769D01*
X193723231Y-52093867D01*
X193789552Y-52049552D01*
X193833867Y-51983231D01*
X193845500Y-51924748D01*
X193845500Y-50794376D01*
X219962342Y-50794376D01*
X219981114Y-50972983D01*
X219982898Y-50978223D01*
X219982898Y-50978224D01*
X220019069Y-51084474D01*
X220038990Y-51142993D01*
X220041888Y-51147703D01*
X220041890Y-51147708D01*
X220125775Y-51284060D01*
X220133093Y-51295955D01*
X220258746Y-51424268D01*
X220409704Y-51521554D01*
X220578465Y-51582978D01*
X220717170Y-51600500D01*
X221813042Y-51600500D01*
X221815796Y-51600191D01*
X221815798Y-51600191D01*
X221843178Y-51597120D01*
X221946359Y-51585546D01*
X222115960Y-51526485D01*
X222190744Y-51479755D01*
X222263572Y-51434247D01*
X222263574Y-51434245D01*
X222268262Y-51431316D01*
X222395694Y-51304770D01*
X222398661Y-51300095D01*
X222488958Y-51157810D01*
X222488959Y-51157809D01*
X222491924Y-51153136D01*
X222552168Y-50983951D01*
X222553487Y-50972894D01*
X222572777Y-50811120D01*
X222572777Y-50811117D01*
X222573432Y-50805624D01*
X222554660Y-50627017D01*
X222536856Y-50574717D01*
X222498569Y-50462249D01*
X222498567Y-50462245D01*
X222496784Y-50457007D01*
X222493886Y-50452297D01*
X222493884Y-50452292D01*
X222405578Y-50308754D01*
X222402681Y-50304045D01*
X222326841Y-50226599D01*
X222280899Y-50179685D01*
X222277028Y-50175732D01*
X222126070Y-50078446D01*
X221957309Y-50017022D01*
X221818604Y-49999500D01*
X220722732Y-49999500D01*
X220719978Y-49999809D01*
X220719976Y-49999809D01*
X220692596Y-50002880D01*
X220589415Y-50014454D01*
X220549461Y-50028367D01*
X220434049Y-50068558D01*
X220419814Y-50073515D01*
X220415121Y-50076447D01*
X220415122Y-50076447D01*
X220272202Y-50165753D01*
X220272200Y-50165755D01*
X220267512Y-50168684D01*
X220140080Y-50295230D01*
X220137114Y-50299904D01*
X220137113Y-50299905D01*
X220077446Y-50393926D01*
X220043850Y-50446864D01*
X219983606Y-50616049D01*
X219982952Y-50621536D01*
X219982951Y-50621539D01*
X219965658Y-50766565D01*
X219962342Y-50794376D01*
X193845500Y-50794376D01*
X193845500Y-50185252D01*
X193833867Y-50126769D01*
X193789552Y-50060448D01*
X193723231Y-50016133D01*
X193713668Y-50014231D01*
X193713666Y-50014230D01*
X193690995Y-50009721D01*
X193664748Y-50004500D01*
X191925252Y-50004500D01*
X191899005Y-50009721D01*
X191876334Y-50014230D01*
X191876332Y-50014231D01*
X191866769Y-50016133D01*
X191800448Y-50060448D01*
X191756133Y-50126769D01*
X191744500Y-50185252D01*
X191744500Y-51924748D01*
X190848142Y-51924748D01*
X190885245Y-51895760D01*
X190979135Y-51822406D01*
X190979139Y-51822402D01*
X190982951Y-51819424D01*
X190990117Y-51811123D01*
X191042313Y-51750651D01*
X191117564Y-51663472D01*
X191120154Y-51658913D01*
X191216934Y-51488550D01*
X191216935Y-51488547D01*
X191219323Y-51484344D01*
X191232882Y-51443586D01*
X191282824Y-51293454D01*
X191282824Y-51293452D01*
X191284351Y-51288863D01*
X191288820Y-51253492D01*
X191309823Y-51087228D01*
X191310171Y-51084474D01*
X191310583Y-51055000D01*
X191310313Y-51052244D01*
X191290952Y-50854780D01*
X191290951Y-50854776D01*
X191290480Y-50849970D01*
X191288960Y-50844933D01*
X191232333Y-50657380D01*
X191230935Y-50652749D01*
X191134218Y-50470849D01*
X191004011Y-50311200D01*
X190991458Y-50300815D01*
X190849002Y-50182965D01*
X190849000Y-50182964D01*
X190845275Y-50179882D01*
X190664055Y-50081897D01*
X190584873Y-50057386D01*
X190471875Y-50022407D01*
X190471871Y-50022406D01*
X190467254Y-50020977D01*
X190462446Y-50020472D01*
X190462443Y-50020471D01*
X190267185Y-49999949D01*
X190267183Y-49999949D01*
X190262369Y-49999443D01*
X190206800Y-50004500D01*
X190062022Y-50017675D01*
X190062017Y-50017676D01*
X190057203Y-50018114D01*
X189859572Y-50076280D01*
X189855288Y-50078519D01*
X189855287Y-50078520D01*
X189844428Y-50084197D01*
X189677002Y-50171726D01*
X189673231Y-50174758D01*
X189520220Y-50297781D01*
X189520217Y-50297783D01*
X189516447Y-50300815D01*
X189513333Y-50304526D01*
X189513332Y-50304527D01*
X189455844Y-50373039D01*
X189384024Y-50458630D01*
X189381689Y-50462878D01*
X189381688Y-50462879D01*
X189374955Y-50475126D01*
X189284776Y-50639162D01*
X189283313Y-50643775D01*
X189283311Y-50643779D01*
X189236079Y-50792675D01*
X189222484Y-50835532D01*
X189221944Y-50840344D01*
X189221944Y-50840345D01*
X189206479Y-50978224D01*
X189199520Y-51040262D01*
X188769138Y-51040262D01*
X188750952Y-50854780D01*
X188750951Y-50854776D01*
X188750480Y-50849970D01*
X188748960Y-50844933D01*
X188692333Y-50657380D01*
X188690935Y-50652749D01*
X188594218Y-50470849D01*
X188464011Y-50311200D01*
X188451458Y-50300815D01*
X188309002Y-50182965D01*
X188309000Y-50182964D01*
X188305275Y-50179882D01*
X188124055Y-50081897D01*
X188044873Y-50057386D01*
X187931875Y-50022407D01*
X187931871Y-50022406D01*
X187927254Y-50020977D01*
X187922446Y-50020472D01*
X187922443Y-50020471D01*
X187727185Y-49999949D01*
X187727183Y-49999949D01*
X187722369Y-49999443D01*
X187666800Y-50004500D01*
X187522022Y-50017675D01*
X187522017Y-50017676D01*
X187517203Y-50018114D01*
X187319572Y-50076280D01*
X187315288Y-50078519D01*
X187315287Y-50078520D01*
X187304428Y-50084197D01*
X187137002Y-50171726D01*
X187133231Y-50174758D01*
X186980220Y-50297781D01*
X186980217Y-50297783D01*
X186976447Y-50300815D01*
X186973333Y-50304526D01*
X186973332Y-50304527D01*
X186915844Y-50373039D01*
X186844024Y-50458630D01*
X186841689Y-50462878D01*
X186841688Y-50462879D01*
X186834955Y-50475126D01*
X186744776Y-50639162D01*
X186743313Y-50643775D01*
X186743311Y-50643779D01*
X186696079Y-50792675D01*
X186682484Y-50835532D01*
X186681944Y-50840344D01*
X186681944Y-50840345D01*
X186666479Y-50978224D01*
X186659520Y-51040262D01*
X186229138Y-51040262D01*
X186210952Y-50854780D01*
X186210951Y-50854776D01*
X186210480Y-50849970D01*
X186208960Y-50844933D01*
X186152333Y-50657380D01*
X186150935Y-50652749D01*
X186054218Y-50470849D01*
X185924011Y-50311200D01*
X185911458Y-50300815D01*
X185769002Y-50182965D01*
X185769000Y-50182964D01*
X185765275Y-50179882D01*
X185584055Y-50081897D01*
X185504873Y-50057386D01*
X185391875Y-50022407D01*
X185391871Y-50022406D01*
X185387254Y-50020977D01*
X185382446Y-50020472D01*
X185382443Y-50020471D01*
X185187185Y-49999949D01*
X185187183Y-49999949D01*
X185182369Y-49999443D01*
X185126800Y-50004500D01*
X184982022Y-50017675D01*
X184982017Y-50017676D01*
X184977203Y-50018114D01*
X184779572Y-50076280D01*
X184775288Y-50078519D01*
X184775287Y-50078520D01*
X184764428Y-50084197D01*
X184597002Y-50171726D01*
X184593231Y-50174758D01*
X184440220Y-50297781D01*
X184440217Y-50297783D01*
X184436447Y-50300815D01*
X184433333Y-50304526D01*
X184433332Y-50304527D01*
X184375844Y-50373039D01*
X184304024Y-50458630D01*
X184301689Y-50462878D01*
X184301688Y-50462879D01*
X184294955Y-50475126D01*
X184204776Y-50639162D01*
X184203313Y-50643775D01*
X184203311Y-50643779D01*
X184156079Y-50792675D01*
X184142484Y-50835532D01*
X184141944Y-50840344D01*
X184141944Y-50840345D01*
X184126479Y-50978224D01*
X184119520Y-51040262D01*
X183689138Y-51040262D01*
X183670952Y-50854780D01*
X183670951Y-50854776D01*
X183670480Y-50849970D01*
X183668960Y-50844933D01*
X183612333Y-50657380D01*
X183610935Y-50652749D01*
X183514218Y-50470849D01*
X183384011Y-50311200D01*
X183371458Y-50300815D01*
X183229002Y-50182965D01*
X183229000Y-50182964D01*
X183225275Y-50179882D01*
X183044055Y-50081897D01*
X182964873Y-50057386D01*
X182851875Y-50022407D01*
X182851871Y-50022406D01*
X182847254Y-50020977D01*
X182842446Y-50020472D01*
X182842443Y-50020471D01*
X182647185Y-49999949D01*
X182647183Y-49999949D01*
X182642369Y-49999443D01*
X182586800Y-50004500D01*
X182442022Y-50017675D01*
X182442017Y-50017676D01*
X182437203Y-50018114D01*
X182239572Y-50076280D01*
X182235288Y-50078519D01*
X182235287Y-50078520D01*
X182224428Y-50084197D01*
X182057002Y-50171726D01*
X182053231Y-50174758D01*
X181900220Y-50297781D01*
X181900217Y-50297783D01*
X181896447Y-50300815D01*
X181893333Y-50304526D01*
X181893332Y-50304527D01*
X181835844Y-50373039D01*
X181764024Y-50458630D01*
X181761689Y-50462878D01*
X181761688Y-50462879D01*
X181754955Y-50475126D01*
X181664776Y-50639162D01*
X181663313Y-50643775D01*
X181663311Y-50643779D01*
X181616079Y-50792675D01*
X181602484Y-50835532D01*
X181601944Y-50840344D01*
X181601944Y-50840345D01*
X181586479Y-50978224D01*
X181579520Y-51040262D01*
X181149138Y-51040262D01*
X181130952Y-50854780D01*
X181130951Y-50854776D01*
X181130480Y-50849970D01*
X181128960Y-50844933D01*
X181072333Y-50657380D01*
X181070935Y-50652749D01*
X180974218Y-50470849D01*
X180844011Y-50311200D01*
X180831458Y-50300815D01*
X180689002Y-50182965D01*
X180689000Y-50182964D01*
X180685275Y-50179882D01*
X180504055Y-50081897D01*
X180424873Y-50057386D01*
X180311875Y-50022407D01*
X180311871Y-50022406D01*
X180307254Y-50020977D01*
X180302446Y-50020472D01*
X180302443Y-50020471D01*
X180107185Y-49999949D01*
X180107183Y-49999949D01*
X180102369Y-49999443D01*
X180046800Y-50004500D01*
X179902022Y-50017675D01*
X179902017Y-50017676D01*
X179897203Y-50018114D01*
X179699572Y-50076280D01*
X179695288Y-50078519D01*
X179695287Y-50078520D01*
X179684428Y-50084197D01*
X179517002Y-50171726D01*
X179513231Y-50174758D01*
X179360220Y-50297781D01*
X179360217Y-50297783D01*
X179356447Y-50300815D01*
X179353333Y-50304526D01*
X179353332Y-50304527D01*
X179295844Y-50373039D01*
X179224024Y-50458630D01*
X179221689Y-50462878D01*
X179221688Y-50462879D01*
X179214955Y-50475126D01*
X179124776Y-50639162D01*
X179123313Y-50643775D01*
X179123311Y-50643779D01*
X179076079Y-50792675D01*
X179062484Y-50835532D01*
X179061944Y-50840344D01*
X179061944Y-50840345D01*
X179046479Y-50978224D01*
X179039520Y-51040262D01*
X178609138Y-51040262D01*
X178590952Y-50854780D01*
X178590951Y-50854776D01*
X178590480Y-50849970D01*
X178588960Y-50844933D01*
X178532333Y-50657380D01*
X178530935Y-50652749D01*
X178434218Y-50470849D01*
X178304011Y-50311200D01*
X178291458Y-50300815D01*
X178149002Y-50182965D01*
X178149000Y-50182964D01*
X178145275Y-50179882D01*
X177964055Y-50081897D01*
X177884873Y-50057386D01*
X177771875Y-50022407D01*
X177771871Y-50022406D01*
X177767254Y-50020977D01*
X177762446Y-50020472D01*
X177762443Y-50020471D01*
X177567185Y-49999949D01*
X177567183Y-49999949D01*
X177562369Y-49999443D01*
X177506800Y-50004500D01*
X177362022Y-50017675D01*
X177362017Y-50017676D01*
X177357203Y-50018114D01*
X177159572Y-50076280D01*
X177155288Y-50078519D01*
X177155287Y-50078520D01*
X177144428Y-50084197D01*
X176977002Y-50171726D01*
X176973231Y-50174758D01*
X176820220Y-50297781D01*
X176820217Y-50297783D01*
X176816447Y-50300815D01*
X176813333Y-50304526D01*
X176813332Y-50304527D01*
X176755844Y-50373039D01*
X176684024Y-50458630D01*
X176681689Y-50462878D01*
X176681688Y-50462879D01*
X176674955Y-50475126D01*
X176584776Y-50639162D01*
X176583313Y-50643775D01*
X176583311Y-50643779D01*
X176536079Y-50792675D01*
X176522484Y-50835532D01*
X176521944Y-50840344D01*
X176521944Y-50840345D01*
X176506479Y-50978224D01*
X176499520Y-51040262D01*
X170812613Y-51040262D01*
X170812613Y-49599500D01*
X170831520Y-49541309D01*
X170881020Y-49505345D01*
X170911613Y-49500500D01*
X195262600Y-49500500D01*
X226013654Y-49526186D01*
G37*
%TD.AperFunction*%
%TD*%
M02*
