M48
; DRILL file {KiCad (6.0.5)} date Sun Aug  7 22:36:58 2022
; FORMAT={-:-/ absolute / metric / decimal}
; #@! TF.CreationDate,2022-08-07T22:36:58-04:00
; #@! TF.GenerationSoftware,Kicad,Pcbnew,(6.0.5)
; #@! TF.FileFunction,Plated,1,2,PTH
FMAT,2
METRIC
; #@! TA.AperFunction,Plated,PTH,ViaDrill
T1C0.400
; #@! TA.AperFunction,Plated,PTH,ComponentDrill
T2C0.400
; #@! TA.AperFunction,Plated,PTH,ComponentDrill
T3C0.800
; #@! TA.AperFunction,Plated,PTH,ComponentDrill
T4C1.000
%
G90
G05
T1
X189.38Y-68.05
X190.66Y-67.404
X193.8Y-65.57
X194.23Y-58.87
X194.98Y-71.44
X195.701Y-64.62
X196.64Y-60.23
X198.64Y-58.79
X199.327Y-60.233
X199.86Y-58.75
X200.68Y-59.6
X205.7Y-62.61
T3
X191.66Y-65.23
X191.66Y-70.11
X198.225Y-54.23
X198.315Y-70.61
X200.225Y-54.23
X200.315Y-70.61
X203.945Y-54.22
X203.945Y-70.61
X205.945Y-54.22
X205.945Y-70.61
T4
X177.555Y-51.055
X177.57Y-63.67
X177.57Y-66.21
X177.57Y-68.75
X177.57Y-71.29
X180.095Y-51.055
X182.635Y-51.055
X182.65Y-58.59
X182.65Y-61.13
X182.65Y-63.67
X182.65Y-66.21
X182.65Y-68.75
X182.65Y-71.29
X185.175Y-51.055
X187.715Y-51.055
X190.255Y-51.055
X192.795Y-51.055
X216.408Y-54.245
X216.408Y-56.785
X216.438Y-67.335
X216.438Y-69.875
T2
X221.768Y-50.8G85X220.768Y-50.8
G05
X220.768Y-60.8G85X221.768Y-60.8
G05
X221.768Y-63.55G85X220.768Y-63.55
G05
X220.768Y-73.55G85X221.768Y-73.55
G05
X226.268Y-56.3G85X226.268Y-55.3
G05
X226.268Y-69.05G85X226.268Y-68.05
G05
T0
M30
