%TF.GenerationSoftware,KiCad,Pcbnew,(6.0.5)*%
%TF.CreationDate,2022-08-07T22:36:51-04:00*%
%TF.ProjectId,ADE7953-Power-Sensor-breakout,41444537-3935-4332-9d50-6f7765722d53,rev?*%
%TF.SameCoordinates,Original*%
%TF.FileFunction,Paste,Top*%
%TF.FilePolarity,Positive*%
%FSLAX46Y46*%
G04 Gerber Fmt 4.6, Leading zero omitted, Abs format (unit mm)*
G04 Created by KiCad (PCBNEW (6.0.5)) date 2022-08-07 22:36:51*
%MOMM*%
%LPD*%
G01*
G04 APERTURE LIST*
G04 Aperture macros list*
%AMRoundRect*
0 Rectangle with rounded corners*
0 $1 Rounding radius*
0 $2 $3 $4 $5 $6 $7 $8 $9 X,Y pos of 4 corners*
0 Add a 4 corners polygon primitive as box body*
4,1,4,$2,$3,$4,$5,$6,$7,$8,$9,$2,$3,0*
0 Add four circle primitives for the rounded corners*
1,1,$1+$1,$2,$3*
1,1,$1+$1,$4,$5*
1,1,$1+$1,$6,$7*
1,1,$1+$1,$8,$9*
0 Add four rect primitives between the rounded corners*
20,1,$1+$1,$2,$3,$4,$5,0*
20,1,$1+$1,$4,$5,$6,$7,0*
20,1,$1+$1,$6,$7,$8,$9,0*
20,1,$1+$1,$8,$9,$2,$3,0*%
G04 Aperture macros list end*
%ADD10RoundRect,0.250000X0.544472X0.000000X0.000000X0.544472X-0.544472X0.000000X0.000000X-0.544472X0*%
%ADD11RoundRect,0.062500X0.327037X-0.238649X-0.238649X0.327037X-0.327037X0.238649X0.238649X-0.327037X0*%
%ADD12RoundRect,0.062500X0.327037X0.238649X0.238649X0.327037X-0.327037X-0.238649X-0.238649X-0.327037X0*%
%ADD13RoundRect,0.079500X-0.079500X-0.100500X0.079500X-0.100500X0.079500X0.100500X-0.079500X0.100500X0*%
%ADD14RoundRect,0.079500X-0.100500X0.079500X-0.100500X-0.079500X0.100500X-0.079500X0.100500X0.079500X0*%
%ADD15RoundRect,0.079500X0.079500X0.100500X-0.079500X0.100500X-0.079500X-0.100500X0.079500X-0.100500X0*%
%ADD16RoundRect,0.079500X0.100500X-0.079500X0.100500X0.079500X-0.100500X0.079500X-0.100500X-0.079500X0*%
%ADD17RoundRect,0.090000X0.090000X-0.139000X0.090000X0.139000X-0.090000X0.139000X-0.090000X-0.139000X0*%
G04 APERTURE END LIST*
D10*
%TO.C,U1*%
X203840158Y-62650000D03*
X202730000Y-61539842D03*
X202730000Y-63760158D03*
X201619842Y-62650000D03*
D11*
X203357557Y-65398878D03*
X203711111Y-65045324D03*
X204064664Y-64691771D03*
X204418217Y-64338217D03*
X204771771Y-63984664D03*
X205125324Y-63631111D03*
X205478878Y-63277557D03*
D12*
X205478878Y-62022443D03*
X205125324Y-61668889D03*
X204771771Y-61315336D03*
X204418217Y-60961783D03*
X204064664Y-60608229D03*
X203711111Y-60254676D03*
X203357557Y-59901122D03*
D11*
X202102443Y-59901122D03*
X201748889Y-60254676D03*
X201395336Y-60608229D03*
X201041783Y-60961783D03*
X200688229Y-61315336D03*
X200334676Y-61668889D03*
X199981122Y-62022443D03*
D12*
X199981122Y-63277557D03*
X200334676Y-63631111D03*
X200688229Y-63984664D03*
X201041783Y-64338217D03*
X201395336Y-64691771D03*
X201748889Y-65045324D03*
X202102443Y-65398878D03*
%TD*%
D13*
%TO.C,R9*%
X199675000Y-57830000D03*
X200365000Y-57830000D03*
%TD*%
D14*
%TO.C,R8*%
X201910000Y-67525000D03*
X201910000Y-68215000D03*
%TD*%
D13*
%TO.C,C16*%
X200785000Y-58760000D03*
X201475000Y-58760000D03*
%TD*%
D15*
%TO.C,C14*%
X204385000Y-58060000D03*
X203695000Y-58060000D03*
%TD*%
D14*
%TO.C,C13*%
X194880000Y-65455000D03*
X194880000Y-64765000D03*
%TD*%
D16*
%TO.C,C12*%
X194930000Y-69735000D03*
X194930000Y-70425000D03*
%TD*%
D15*
%TO.C,C9*%
X202175000Y-57850000D03*
X201485000Y-57850000D03*
%TD*%
D13*
%TO.C,C8*%
X204625000Y-67030000D03*
X205315000Y-67030000D03*
%TD*%
D16*
%TO.C,C7*%
X202710000Y-68215000D03*
X202710000Y-67525000D03*
%TD*%
D13*
%TO.C,R10*%
X209537887Y-54440000D03*
X210227887Y-54440000D03*
%TD*%
D15*
%TO.C,R7*%
X209527887Y-56730000D03*
X210217887Y-56730000D03*
%TD*%
D13*
%TO.C,R6*%
X213022887Y-67670000D03*
X213712887Y-67670000D03*
%TD*%
D15*
%TO.C,R1*%
X213022887Y-69930000D03*
X213712887Y-69930000D03*
%TD*%
D16*
%TO.C,C19*%
X208712887Y-55135000D03*
X208712887Y-54445000D03*
%TD*%
%TO.C,C18*%
X208702887Y-56035000D03*
X208702887Y-56725000D03*
%TD*%
%TO.C,C6*%
X212237887Y-68365000D03*
X212237887Y-67675000D03*
%TD*%
%TO.C,C5*%
X212237887Y-69235000D03*
X212237887Y-69925000D03*
%TD*%
D13*
%TO.C,R3*%
X210272887Y-67650000D03*
X209582887Y-67650000D03*
%TD*%
D16*
%TO.C,C2*%
X208787887Y-67655000D03*
X208787887Y-68345000D03*
%TD*%
%TO.C,C1*%
X208787887Y-69915000D03*
X208787887Y-69225000D03*
%TD*%
%TO.C,R14*%
X180120000Y-68748750D03*
X180120000Y-69438750D03*
%TD*%
D13*
%TO.C,R5*%
X212922887Y-54440000D03*
X213612887Y-54440000D03*
%TD*%
D15*
%TO.C,R4*%
X212912887Y-56730000D03*
X213602887Y-56730000D03*
%TD*%
D17*
%TO.C,D3*%
X180120000Y-70321250D03*
X180120000Y-71186250D03*
%TD*%
D16*
%TO.C,C3*%
X212092887Y-56035000D03*
X212092887Y-56725000D03*
%TD*%
%TO.C,C4*%
X212102887Y-55135000D03*
X212102887Y-54445000D03*
%TD*%
D15*
%TO.C,R2*%
X209582887Y-69920000D03*
X210272887Y-69920000D03*
%TD*%
M02*
