%FSLAX45Y45*%
G04 Gerber Fmt 4.5, Leading zero omitted, Abs format (unit mm)*
G04 Created by KiCad (PCBNEW (6.0.5)) date 2022-08-07 22:37:00*
%MOMM*%
%LPD*%
G01*
G04 APERTURE LIST*
%TA.AperFunction,Profile*%
%ADD10C,0.050000*%
%TD*%
%TA.AperFunction,Profile*%
%ADD11C,0.100000*%
%TD*%
%ADD12C,0.200000*%
%ADD13C,0.040000*%
%ADD14C,0.080000*%
%ADD15C,0.100000*%
G04 APERTURE END LIST*
D10*
X22968000Y-7358000D02*
G75*
G03*
X22968000Y-7358000I-90000J0D01*
G01*
X22717000Y-7355000D02*
G75*
G03*
X22717000Y-7355000I-90000J0D01*
G01*
X22218000Y-6854000D02*
G75*
G03*
X22218000Y-6854000I-90000J0D01*
G01*
X22969617Y-6356000D02*
G75*
G03*
X22969617Y-6356000I-92618J0D01*
G01*
X22716995Y-6355000D02*
G75*
G03*
X22716995Y-6355000I-90000J0D01*
G01*
X22968000Y-6079000D02*
G75*
G03*
X22968000Y-6079000I-90000J0D01*
G01*
X22717000Y-6078000D02*
G75*
G03*
X22717000Y-6078000I-90000J0D01*
G01*
X22218000Y-5580000D02*
G75*
G03*
X22218000Y-5580000I-90000J0D01*
G01*
X22969000Y-5079000D02*
G75*
G03*
X22969000Y-5079000I-90000J0D01*
G01*
X22716000Y-5080000D02*
G75*
G03*
X22716000Y-5080000I-90000J0D01*
G01*
D11*
X17061211Y-7508000D02*
X23076789Y-7505000D01*
X17061211Y-4930000D02*
X17061211Y-7508000D01*
X23076789Y-4930000D02*
X17061211Y-4930000D01*
X17785000Y-5713000D02*
G75*
G03*
X17785000Y-5713000I-210000J0D01*
G01*
D12*
D13*
X18918000Y-6785050D02*
X18958000Y-6825050D01*
X18958000Y-6785050D02*
X18918000Y-6825050D01*
X19046000Y-6720402D02*
X19086000Y-6760402D01*
X19086000Y-6720402D02*
X19046000Y-6760402D01*
X19360000Y-6537000D02*
X19400000Y-6577000D01*
X19400000Y-6537000D02*
X19360000Y-6577000D01*
X19403000Y-5867000D02*
X19443000Y-5907000D01*
X19443000Y-5867000D02*
X19403000Y-5907000D01*
X19478000Y-7124000D02*
X19518000Y-7164000D01*
X19518000Y-7124000D02*
X19478000Y-7164000D01*
X19550050Y-6442000D02*
X19590050Y-6482000D01*
X19590050Y-6442000D02*
X19550050Y-6482000D01*
X19644000Y-6003000D02*
X19684000Y-6043000D01*
X19684000Y-6003000D02*
X19644000Y-6043000D01*
X19844000Y-5859000D02*
X19884000Y-5899000D01*
X19884000Y-5859000D02*
X19844000Y-5899000D01*
X19912665Y-6003259D02*
X19952665Y-6043259D01*
X19952665Y-6003259D02*
X19912665Y-6043259D01*
X19966000Y-5855000D02*
X20006000Y-5895000D01*
X20006000Y-5855000D02*
X19966000Y-5895000D01*
X20048000Y-5940000D02*
X20088000Y-5980000D01*
X20088000Y-5940000D02*
X20048000Y-5980000D01*
X20550000Y-6241000D02*
X20590000Y-6281000D01*
X20590000Y-6241000D02*
X20550000Y-6281000D01*
X22146789Y-5080000D02*
G75*
G03*
X22146789Y-5080000I-20000J0D01*
G01*
D12*
X22176789Y-5070000D02*
X22076789Y-5070000D01*
X22176789Y-5090000D02*
X22076789Y-5090000D01*
X22076789Y-5070000D02*
G75*
G03*
X22076789Y-5090000I0J-10000D01*
G01*
X22176789Y-5090000D02*
G75*
G03*
X22176789Y-5070000I0J10000D01*
G01*
D13*
X22146789Y-6080000D02*
G75*
G03*
X22146789Y-6080000I-20000J0D01*
G01*
D12*
X22076789Y-6090000D02*
X22176789Y-6090000D01*
X22076789Y-6070000D02*
X22176789Y-6070000D01*
X22176789Y-6090000D02*
G75*
G03*
X22176789Y-6070000I0J10000D01*
G01*
X22076789Y-6070000D02*
G75*
G03*
X22076789Y-6090000I0J-10000D01*
G01*
D13*
X22146789Y-6355000D02*
G75*
G03*
X22146789Y-6355000I-20000J0D01*
G01*
D12*
X22176789Y-6345000D02*
X22076789Y-6345000D01*
X22176789Y-6365000D02*
X22076789Y-6365000D01*
X22076789Y-6345000D02*
G75*
G03*
X22076789Y-6365000I0J-10000D01*
G01*
X22176789Y-6365000D02*
G75*
G03*
X22176789Y-6345000I0J10000D01*
G01*
D13*
X22146789Y-7355000D02*
G75*
G03*
X22146789Y-7355000I-20000J0D01*
G01*
D12*
X22076789Y-7365000D02*
X22176789Y-7365000D01*
X22076789Y-7345000D02*
X22176789Y-7345000D01*
X22176789Y-7365000D02*
G75*
G03*
X22176789Y-7345000I0J10000D01*
G01*
X22076789Y-7345000D02*
G75*
G03*
X22076789Y-7365000I0J-10000D01*
G01*
D13*
X22646789Y-5580000D02*
G75*
G03*
X22646789Y-5580000I-20000J0D01*
G01*
D12*
X22636789Y-5630000D02*
X22636789Y-5530000D01*
X22616789Y-5630000D02*
X22616789Y-5530000D01*
X22636789Y-5530000D02*
G75*
G03*
X22616789Y-5530000I-10000J0D01*
G01*
X22616789Y-5630000D02*
G75*
G03*
X22636789Y-5630000I10000J0D01*
G01*
D13*
X22646789Y-6855000D02*
G75*
G03*
X22646789Y-6855000I-20000J0D01*
G01*
D12*
X22636789Y-6905000D02*
X22636789Y-6805000D01*
X22616789Y-6905000D02*
X22616789Y-6805000D01*
X22636789Y-6805000D02*
G75*
G03*
X22616789Y-6805000I-10000J0D01*
G01*
X22616789Y-6905000D02*
G75*
G03*
X22636789Y-6905000I10000J0D01*
G01*
D14*
X19166000Y-6483000D02*
X19166000Y-6563000D01*
X19126000Y-6523000D02*
X19206000Y-6523000D01*
X19166000Y-6971000D02*
X19166000Y-7051000D01*
X19126000Y-7011000D02*
X19206000Y-7011000D01*
X19822511Y-5383000D02*
X19822511Y-5463000D01*
X19782511Y-5423000D02*
X19862511Y-5423000D01*
X19831489Y-7021000D02*
X19831489Y-7101000D01*
X19791489Y-7061000D02*
X19871489Y-7061000D01*
X20022511Y-5383000D02*
X20022511Y-5463000D01*
X19982511Y-5423000D02*
X20062511Y-5423000D01*
X20031489Y-7021000D02*
X20031489Y-7101000D01*
X19991489Y-7061000D02*
X20071489Y-7061000D01*
X20394489Y-5382000D02*
X20394489Y-5462000D01*
X20354489Y-5422000D02*
X20434489Y-5422000D01*
X20394489Y-7021000D02*
X20394489Y-7101000D01*
X20354489Y-7061000D02*
X20434489Y-7061000D01*
X20594489Y-5382000D02*
X20594489Y-5462000D01*
X20554489Y-5422000D02*
X20634489Y-5422000D01*
X20594489Y-7021000D02*
X20594489Y-7101000D01*
X20554489Y-7061000D02*
X20634489Y-7061000D01*
D15*
X17790856Y-5140856D02*
X17790856Y-5070144D01*
X17720144Y-5070144D01*
X17720144Y-5140856D01*
X17790856Y-5140856D01*
X17792356Y-6402356D02*
X17792356Y-6331644D01*
X17721644Y-6331644D01*
X17721644Y-6402356D01*
X17792356Y-6402356D01*
X17792356Y-6656356D02*
X17792356Y-6585644D01*
X17721644Y-6585644D01*
X17721644Y-6656356D01*
X17792356Y-6656356D01*
X17792356Y-6910356D02*
X17792356Y-6839644D01*
X17721644Y-6839644D01*
X17721644Y-6910356D01*
X17792356Y-6910356D01*
X17792356Y-7164356D02*
X17792356Y-7093644D01*
X17721644Y-7093644D01*
X17721644Y-7164356D01*
X17792356Y-7164356D01*
X18044856Y-5140856D02*
X18044856Y-5070144D01*
X17974144Y-5070144D01*
X17974144Y-5140856D01*
X18044856Y-5140856D01*
X18298856Y-5140856D02*
X18298856Y-5070144D01*
X18228144Y-5070144D01*
X18228144Y-5140856D01*
X18298856Y-5140856D01*
X18300356Y-5894356D02*
X18300356Y-5823644D01*
X18229644Y-5823644D01*
X18229644Y-5894356D01*
X18300356Y-5894356D01*
X18300356Y-6148356D02*
X18300356Y-6077644D01*
X18229644Y-6077644D01*
X18229644Y-6148356D01*
X18300356Y-6148356D01*
X18300356Y-6402356D02*
X18300356Y-6331644D01*
X18229644Y-6331644D01*
X18229644Y-6402356D01*
X18300356Y-6402356D01*
X18300356Y-6656356D02*
X18300356Y-6585644D01*
X18229644Y-6585644D01*
X18229644Y-6656356D01*
X18300356Y-6656356D01*
X18300356Y-6910356D02*
X18300356Y-6839644D01*
X18229644Y-6839644D01*
X18229644Y-6910356D01*
X18300356Y-6910356D01*
X18300356Y-7164356D02*
X18300356Y-7093644D01*
X18229644Y-7093644D01*
X18229644Y-7164356D01*
X18300356Y-7164356D01*
X18552856Y-5140856D02*
X18552856Y-5070144D01*
X18482144Y-5070144D01*
X18482144Y-5140856D01*
X18552856Y-5140856D01*
X18806856Y-5140856D02*
X18806856Y-5070144D01*
X18736144Y-5070144D01*
X18736144Y-5140856D01*
X18806856Y-5140856D01*
X19060856Y-5140856D02*
X19060856Y-5070144D01*
X18990144Y-5070144D01*
X18990144Y-5140856D01*
X19060856Y-5140856D01*
X19314856Y-5140856D02*
X19314856Y-5070144D01*
X19244144Y-5070144D01*
X19244144Y-5140856D01*
X19314856Y-5140856D01*
X21676144Y-5459856D02*
X21676144Y-5389144D01*
X21605433Y-5389144D01*
X21605433Y-5459856D01*
X21676144Y-5459856D01*
X21676144Y-5713856D02*
X21676144Y-5643144D01*
X21605433Y-5643144D01*
X21605433Y-5713856D01*
X21676144Y-5713856D01*
X21679144Y-6768856D02*
X21679144Y-6698144D01*
X21608433Y-6698144D01*
X21608433Y-6768856D01*
X21679144Y-6768856D01*
X21679144Y-7022856D02*
X21679144Y-6952144D01*
X21608433Y-6952144D01*
X21608433Y-7022856D01*
X21679144Y-7022856D01*
D12*
X17313830Y-7823476D02*
X17313830Y-7623476D01*
X17361449Y-7623476D01*
X17390021Y-7633000D01*
X17409068Y-7652048D01*
X17418592Y-7671095D01*
X17428116Y-7709190D01*
X17428116Y-7737762D01*
X17418592Y-7775857D01*
X17409068Y-7794905D01*
X17390021Y-7813952D01*
X17361449Y-7823476D01*
X17313830Y-7823476D01*
X17513830Y-7823476D02*
X17513830Y-7690143D01*
X17513830Y-7728238D02*
X17523354Y-7709190D01*
X17532878Y-7699667D01*
X17551926Y-7690143D01*
X17570973Y-7690143D01*
X17637640Y-7823476D02*
X17637640Y-7690143D01*
X17637640Y-7623476D02*
X17628116Y-7633000D01*
X17637640Y-7642524D01*
X17647164Y-7633000D01*
X17637640Y-7623476D01*
X17637640Y-7642524D01*
X17761449Y-7823476D02*
X17742402Y-7813952D01*
X17732878Y-7794905D01*
X17732878Y-7623476D01*
X17866211Y-7823476D02*
X17847164Y-7813952D01*
X17837640Y-7794905D01*
X17837640Y-7623476D01*
X18094783Y-7823476D02*
X18094783Y-7623476D01*
X18161449Y-7766333D01*
X18228116Y-7623476D01*
X18228116Y-7823476D01*
X18409068Y-7823476D02*
X18409068Y-7718714D01*
X18399545Y-7699667D01*
X18380497Y-7690143D01*
X18342402Y-7690143D01*
X18323354Y-7699667D01*
X18409068Y-7813952D02*
X18390021Y-7823476D01*
X18342402Y-7823476D01*
X18323354Y-7813952D01*
X18313830Y-7794905D01*
X18313830Y-7775857D01*
X18323354Y-7756809D01*
X18342402Y-7747286D01*
X18390021Y-7747286D01*
X18409068Y-7737762D01*
X18504307Y-7690143D02*
X18504307Y-7890143D01*
X18504307Y-7699667D02*
X18523354Y-7690143D01*
X18561449Y-7690143D01*
X18580497Y-7699667D01*
X18590021Y-7709190D01*
X18599545Y-7728238D01*
X18599545Y-7785381D01*
X18590021Y-7804428D01*
X18580497Y-7813952D01*
X18561449Y-7823476D01*
X18523354Y-7823476D01*
X18504307Y-7813952D01*
X18685259Y-7804428D02*
X18694783Y-7813952D01*
X18685259Y-7823476D01*
X18675735Y-7813952D01*
X18685259Y-7804428D01*
X18685259Y-7823476D01*
X18685259Y-7699667D02*
X18694783Y-7709190D01*
X18685259Y-7718714D01*
X18675735Y-7709190D01*
X18685259Y-7699667D01*
X18685259Y-7718714D01*
D13*
X17016211Y-8133000D02*
X17056211Y-8173000D01*
X17056211Y-8133000D02*
X17016211Y-8173000D01*
D12*
X17351926Y-8043476D02*
X17370973Y-8043476D01*
X17390021Y-8053000D01*
X17399545Y-8062524D01*
X17409068Y-8081571D01*
X17418592Y-8119667D01*
X17418592Y-8167286D01*
X17409068Y-8205381D01*
X17399545Y-8224428D01*
X17390021Y-8233952D01*
X17370973Y-8243476D01*
X17351926Y-8243476D01*
X17332878Y-8233952D01*
X17323354Y-8224428D01*
X17313830Y-8205381D01*
X17304307Y-8167286D01*
X17304307Y-8119667D01*
X17313830Y-8081571D01*
X17323354Y-8062524D01*
X17332878Y-8053000D01*
X17351926Y-8043476D01*
X17504307Y-8224428D02*
X17513830Y-8233952D01*
X17504307Y-8243476D01*
X17494783Y-8233952D01*
X17504307Y-8224428D01*
X17504307Y-8243476D01*
X17685259Y-8110143D02*
X17685259Y-8243476D01*
X17637640Y-8033952D02*
X17590021Y-8176809D01*
X17713830Y-8176809D01*
X17828116Y-8043476D02*
X17847164Y-8043476D01*
X17866211Y-8053000D01*
X17875735Y-8062524D01*
X17885259Y-8081571D01*
X17894783Y-8119667D01*
X17894783Y-8167286D01*
X17885259Y-8205381D01*
X17875735Y-8224428D01*
X17866211Y-8233952D01*
X17847164Y-8243476D01*
X17828116Y-8243476D01*
X17809068Y-8233952D01*
X17799545Y-8224428D01*
X17790021Y-8205381D01*
X17780497Y-8167286D01*
X17780497Y-8119667D01*
X17790021Y-8081571D01*
X17799545Y-8062524D01*
X17809068Y-8053000D01*
X17828116Y-8043476D01*
X18018592Y-8043476D02*
X18037640Y-8043476D01*
X18056687Y-8053000D01*
X18066211Y-8062524D01*
X18075735Y-8081571D01*
X18085259Y-8119667D01*
X18085259Y-8167286D01*
X18075735Y-8205381D01*
X18066211Y-8224428D01*
X18056687Y-8233952D01*
X18037640Y-8243476D01*
X18018592Y-8243476D01*
X17999545Y-8233952D01*
X17990021Y-8224428D01*
X17980497Y-8205381D01*
X17970973Y-8167286D01*
X17970973Y-8119667D01*
X17980497Y-8081571D01*
X17990021Y-8062524D01*
X17999545Y-8053000D01*
X18018592Y-8043476D01*
X18170973Y-8243476D02*
X18170973Y-8110143D01*
X18170973Y-8129190D02*
X18180497Y-8119667D01*
X18199545Y-8110143D01*
X18228116Y-8110143D01*
X18247164Y-8119667D01*
X18256687Y-8138714D01*
X18256687Y-8243476D01*
X18256687Y-8138714D02*
X18266211Y-8119667D01*
X18285259Y-8110143D01*
X18313830Y-8110143D01*
X18332878Y-8119667D01*
X18342402Y-8138714D01*
X18342402Y-8243476D01*
X18437640Y-8243476D02*
X18437640Y-8110143D01*
X18437640Y-8129190D02*
X18447164Y-8119667D01*
X18466211Y-8110143D01*
X18494783Y-8110143D01*
X18513830Y-8119667D01*
X18523354Y-8138714D01*
X18523354Y-8243476D01*
X18523354Y-8138714D02*
X18532878Y-8119667D01*
X18551926Y-8110143D01*
X18580497Y-8110143D01*
X18599545Y-8119667D01*
X18609068Y-8138714D01*
X18609068Y-8243476D01*
X18999545Y-8033952D02*
X18828116Y-8291095D01*
X19256687Y-8043476D02*
X19275735Y-8043476D01*
X19294783Y-8053000D01*
X19304307Y-8062524D01*
X19313830Y-8081571D01*
X19323354Y-8119667D01*
X19323354Y-8167286D01*
X19313830Y-8205381D01*
X19304307Y-8224428D01*
X19294783Y-8233952D01*
X19275735Y-8243476D01*
X19256687Y-8243476D01*
X19237640Y-8233952D01*
X19228116Y-8224428D01*
X19218592Y-8205381D01*
X19209068Y-8167286D01*
X19209068Y-8119667D01*
X19218592Y-8081571D01*
X19228116Y-8062524D01*
X19237640Y-8053000D01*
X19256687Y-8043476D01*
X19409068Y-8224428D02*
X19418592Y-8233952D01*
X19409068Y-8243476D01*
X19399545Y-8233952D01*
X19409068Y-8224428D01*
X19409068Y-8243476D01*
X19542402Y-8043476D02*
X19561449Y-8043476D01*
X19580497Y-8053000D01*
X19590021Y-8062524D01*
X19599545Y-8081571D01*
X19609068Y-8119667D01*
X19609068Y-8167286D01*
X19599545Y-8205381D01*
X19590021Y-8224428D01*
X19580497Y-8233952D01*
X19561449Y-8243476D01*
X19542402Y-8243476D01*
X19523354Y-8233952D01*
X19513830Y-8224428D01*
X19504307Y-8205381D01*
X19494783Y-8167286D01*
X19494783Y-8119667D01*
X19504307Y-8081571D01*
X19513830Y-8062524D01*
X19523354Y-8053000D01*
X19542402Y-8043476D01*
X19799545Y-8243476D02*
X19685259Y-8243476D01*
X19742402Y-8243476D02*
X19742402Y-8043476D01*
X19723354Y-8072048D01*
X19704307Y-8091095D01*
X19685259Y-8100619D01*
X19980497Y-8043476D02*
X19885259Y-8043476D01*
X19875735Y-8138714D01*
X19885259Y-8129190D01*
X19904307Y-8119667D01*
X19951926Y-8119667D01*
X19970973Y-8129190D01*
X19980497Y-8138714D01*
X19990021Y-8157762D01*
X19990021Y-8205381D01*
X19980497Y-8224428D01*
X19970973Y-8233952D01*
X19951926Y-8243476D01*
X19904307Y-8243476D01*
X19885259Y-8233952D01*
X19875735Y-8224428D01*
X20056687Y-8043476D02*
X20190021Y-8043476D01*
X20104307Y-8243476D01*
X20256687Y-8043476D02*
X20256687Y-8081571D01*
X20332878Y-8043476D02*
X20332878Y-8081571D01*
X20628116Y-8319667D02*
X20618592Y-8310143D01*
X20599545Y-8281571D01*
X20590021Y-8262524D01*
X20580497Y-8233952D01*
X20570973Y-8186333D01*
X20570973Y-8148238D01*
X20580497Y-8100619D01*
X20590021Y-8072048D01*
X20599545Y-8053000D01*
X20618592Y-8024428D01*
X20628116Y-8014905D01*
X20809068Y-8243476D02*
X20694783Y-8243476D01*
X20751926Y-8243476D02*
X20751926Y-8043476D01*
X20732878Y-8072048D01*
X20713830Y-8091095D01*
X20694783Y-8100619D01*
X20885259Y-8062524D02*
X20894783Y-8053000D01*
X20913830Y-8043476D01*
X20961449Y-8043476D01*
X20980497Y-8053000D01*
X20990021Y-8062524D01*
X20999545Y-8081571D01*
X20999545Y-8100619D01*
X20990021Y-8129190D01*
X20875735Y-8243476D01*
X20999545Y-8243476D01*
X21237640Y-8243476D02*
X21237640Y-8043476D01*
X21323354Y-8243476D02*
X21323354Y-8138714D01*
X21313830Y-8119667D01*
X21294783Y-8110143D01*
X21266211Y-8110143D01*
X21247164Y-8119667D01*
X21237640Y-8129190D01*
X21447164Y-8243476D02*
X21428116Y-8233952D01*
X21418592Y-8224428D01*
X21409068Y-8205381D01*
X21409068Y-8148238D01*
X21418592Y-8129190D01*
X21428116Y-8119667D01*
X21447164Y-8110143D01*
X21475735Y-8110143D01*
X21494783Y-8119667D01*
X21504307Y-8129190D01*
X21513830Y-8148238D01*
X21513830Y-8205381D01*
X21504307Y-8224428D01*
X21494783Y-8233952D01*
X21475735Y-8243476D01*
X21447164Y-8243476D01*
X21628116Y-8243476D02*
X21609068Y-8233952D01*
X21599545Y-8214905D01*
X21599545Y-8043476D01*
X21780497Y-8233952D02*
X21761449Y-8243476D01*
X21723354Y-8243476D01*
X21704307Y-8233952D01*
X21694783Y-8214905D01*
X21694783Y-8138714D01*
X21704307Y-8119667D01*
X21723354Y-8110143D01*
X21761449Y-8110143D01*
X21780497Y-8119667D01*
X21790021Y-8138714D01*
X21790021Y-8157762D01*
X21694783Y-8176809D01*
X21866211Y-8233952D02*
X21885259Y-8243476D01*
X21923354Y-8243476D01*
X21942402Y-8233952D01*
X21951926Y-8214905D01*
X21951926Y-8205381D01*
X21942402Y-8186333D01*
X21923354Y-8176809D01*
X21894783Y-8176809D01*
X21875735Y-8167286D01*
X21866211Y-8148238D01*
X21866211Y-8138714D01*
X21875735Y-8119667D01*
X21894783Y-8110143D01*
X21923354Y-8110143D01*
X21942402Y-8119667D01*
X22018592Y-8319667D02*
X22028116Y-8310143D01*
X22047164Y-8281571D01*
X22056687Y-8262524D01*
X22066211Y-8233952D01*
X22075735Y-8186333D01*
X22075735Y-8148238D01*
X22066211Y-8100619D01*
X22056687Y-8072048D01*
X22047164Y-8053000D01*
X22028116Y-8024428D01*
X22018592Y-8014905D01*
D13*
X17056211Y-8417000D02*
G75*
G03*
X17056211Y-8417000I-20000J0D01*
G01*
D12*
X17351926Y-8307476D02*
X17370973Y-8307476D01*
X17390021Y-8317000D01*
X17399545Y-8326524D01*
X17409068Y-8345571D01*
X17418592Y-8383667D01*
X17418592Y-8431286D01*
X17409068Y-8469381D01*
X17399545Y-8488429D01*
X17390021Y-8497952D01*
X17370973Y-8507476D01*
X17351926Y-8507476D01*
X17332878Y-8497952D01*
X17323354Y-8488429D01*
X17313830Y-8469381D01*
X17304307Y-8431286D01*
X17304307Y-8383667D01*
X17313830Y-8345571D01*
X17323354Y-8326524D01*
X17332878Y-8317000D01*
X17351926Y-8307476D01*
X17504307Y-8488429D02*
X17513830Y-8497952D01*
X17504307Y-8507476D01*
X17494783Y-8497952D01*
X17504307Y-8488429D01*
X17504307Y-8507476D01*
X17685259Y-8374143D02*
X17685259Y-8507476D01*
X17637640Y-8297952D02*
X17590021Y-8440810D01*
X17713830Y-8440810D01*
X17828116Y-8307476D02*
X17847164Y-8307476D01*
X17866211Y-8317000D01*
X17875735Y-8326524D01*
X17885259Y-8345571D01*
X17894783Y-8383667D01*
X17894783Y-8431286D01*
X17885259Y-8469381D01*
X17875735Y-8488429D01*
X17866211Y-8497952D01*
X17847164Y-8507476D01*
X17828116Y-8507476D01*
X17809068Y-8497952D01*
X17799545Y-8488429D01*
X17790021Y-8469381D01*
X17780497Y-8431286D01*
X17780497Y-8383667D01*
X17790021Y-8345571D01*
X17799545Y-8326524D01*
X17809068Y-8317000D01*
X17828116Y-8307476D01*
X18018592Y-8307476D02*
X18037640Y-8307476D01*
X18056687Y-8317000D01*
X18066211Y-8326524D01*
X18075735Y-8345571D01*
X18085259Y-8383667D01*
X18085259Y-8431286D01*
X18075735Y-8469381D01*
X18066211Y-8488429D01*
X18056687Y-8497952D01*
X18037640Y-8507476D01*
X18018592Y-8507476D01*
X17999545Y-8497952D01*
X17990021Y-8488429D01*
X17980497Y-8469381D01*
X17970973Y-8431286D01*
X17970973Y-8383667D01*
X17980497Y-8345571D01*
X17990021Y-8326524D01*
X17999545Y-8317000D01*
X18018592Y-8307476D01*
X18170973Y-8507476D02*
X18170973Y-8374143D01*
X18170973Y-8393190D02*
X18180497Y-8383667D01*
X18199545Y-8374143D01*
X18228116Y-8374143D01*
X18247164Y-8383667D01*
X18256687Y-8402714D01*
X18256687Y-8507476D01*
X18256687Y-8402714D02*
X18266211Y-8383667D01*
X18285259Y-8374143D01*
X18313830Y-8374143D01*
X18332878Y-8383667D01*
X18342402Y-8402714D01*
X18342402Y-8507476D01*
X18437640Y-8507476D02*
X18437640Y-8374143D01*
X18437640Y-8393190D02*
X18447164Y-8383667D01*
X18466211Y-8374143D01*
X18494783Y-8374143D01*
X18513830Y-8383667D01*
X18523354Y-8402714D01*
X18523354Y-8507476D01*
X18523354Y-8402714D02*
X18532878Y-8383667D01*
X18551926Y-8374143D01*
X18580497Y-8374143D01*
X18599545Y-8383667D01*
X18609068Y-8402714D01*
X18609068Y-8507476D01*
X18999545Y-8297952D02*
X18828116Y-8555095D01*
X19256687Y-8307476D02*
X19275735Y-8307476D01*
X19294783Y-8317000D01*
X19304307Y-8326524D01*
X19313830Y-8345571D01*
X19323354Y-8383667D01*
X19323354Y-8431286D01*
X19313830Y-8469381D01*
X19304307Y-8488429D01*
X19294783Y-8497952D01*
X19275735Y-8507476D01*
X19256687Y-8507476D01*
X19237640Y-8497952D01*
X19228116Y-8488429D01*
X19218592Y-8469381D01*
X19209068Y-8431286D01*
X19209068Y-8383667D01*
X19218592Y-8345571D01*
X19228116Y-8326524D01*
X19237640Y-8317000D01*
X19256687Y-8307476D01*
X19409068Y-8488429D02*
X19418592Y-8497952D01*
X19409068Y-8507476D01*
X19399545Y-8497952D01*
X19409068Y-8488429D01*
X19409068Y-8507476D01*
X19542402Y-8307476D02*
X19561449Y-8307476D01*
X19580497Y-8317000D01*
X19590021Y-8326524D01*
X19599545Y-8345571D01*
X19609068Y-8383667D01*
X19609068Y-8431286D01*
X19599545Y-8469381D01*
X19590021Y-8488429D01*
X19580497Y-8497952D01*
X19561449Y-8507476D01*
X19542402Y-8507476D01*
X19523354Y-8497952D01*
X19513830Y-8488429D01*
X19504307Y-8469381D01*
X19494783Y-8431286D01*
X19494783Y-8383667D01*
X19504307Y-8345571D01*
X19513830Y-8326524D01*
X19523354Y-8317000D01*
X19542402Y-8307476D01*
X19799545Y-8507476D02*
X19685259Y-8507476D01*
X19742402Y-8507476D02*
X19742402Y-8307476D01*
X19723354Y-8336048D01*
X19704307Y-8355095D01*
X19685259Y-8364619D01*
X19980497Y-8307476D02*
X19885259Y-8307476D01*
X19875735Y-8402714D01*
X19885259Y-8393190D01*
X19904307Y-8383667D01*
X19951926Y-8383667D01*
X19970973Y-8393190D01*
X19980497Y-8402714D01*
X19990021Y-8421762D01*
X19990021Y-8469381D01*
X19980497Y-8488429D01*
X19970973Y-8497952D01*
X19951926Y-8507476D01*
X19904307Y-8507476D01*
X19885259Y-8497952D01*
X19875735Y-8488429D01*
X20056687Y-8307476D02*
X20190021Y-8307476D01*
X20104307Y-8507476D01*
X20256687Y-8307476D02*
X20256687Y-8345571D01*
X20332878Y-8307476D02*
X20332878Y-8345571D01*
X20628116Y-8583667D02*
X20618592Y-8574143D01*
X20599545Y-8545571D01*
X20590021Y-8526524D01*
X20580497Y-8497952D01*
X20570973Y-8450333D01*
X20570973Y-8412238D01*
X20580497Y-8364619D01*
X20590021Y-8336048D01*
X20599545Y-8317000D01*
X20618592Y-8288428D01*
X20628116Y-8278905D01*
X20742402Y-8307476D02*
X20761449Y-8307476D01*
X20780497Y-8317000D01*
X20790021Y-8326524D01*
X20799545Y-8345571D01*
X20809068Y-8383667D01*
X20809068Y-8431286D01*
X20799545Y-8469381D01*
X20790021Y-8488429D01*
X20780497Y-8497952D01*
X20761449Y-8507476D01*
X20742402Y-8507476D01*
X20723354Y-8497952D01*
X20713830Y-8488429D01*
X20704307Y-8469381D01*
X20694783Y-8431286D01*
X20694783Y-8383667D01*
X20704307Y-8345571D01*
X20713830Y-8326524D01*
X20723354Y-8317000D01*
X20742402Y-8307476D01*
X21047164Y-8507476D02*
X21047164Y-8307476D01*
X21132878Y-8507476D02*
X21132878Y-8402714D01*
X21123354Y-8383667D01*
X21104307Y-8374143D01*
X21075735Y-8374143D01*
X21056687Y-8383667D01*
X21047164Y-8393190D01*
X21256687Y-8507476D02*
X21237640Y-8497952D01*
X21228116Y-8488429D01*
X21218592Y-8469381D01*
X21218592Y-8412238D01*
X21228116Y-8393190D01*
X21237640Y-8383667D01*
X21256687Y-8374143D01*
X21285259Y-8374143D01*
X21304307Y-8383667D01*
X21313830Y-8393190D01*
X21323354Y-8412238D01*
X21323354Y-8469381D01*
X21313830Y-8488429D01*
X21304307Y-8497952D01*
X21285259Y-8507476D01*
X21256687Y-8507476D01*
X21437640Y-8507476D02*
X21418592Y-8497952D01*
X21409068Y-8478905D01*
X21409068Y-8307476D01*
X21590021Y-8497952D02*
X21570973Y-8507476D01*
X21532878Y-8507476D01*
X21513830Y-8497952D01*
X21504307Y-8478905D01*
X21504307Y-8402714D01*
X21513830Y-8383667D01*
X21532878Y-8374143D01*
X21570973Y-8374143D01*
X21590021Y-8383667D01*
X21599545Y-8402714D01*
X21599545Y-8421762D01*
X21504307Y-8440810D01*
X21675735Y-8497952D02*
X21694783Y-8507476D01*
X21732878Y-8507476D01*
X21751926Y-8497952D01*
X21761449Y-8478905D01*
X21761449Y-8469381D01*
X21751926Y-8450333D01*
X21732878Y-8440810D01*
X21704307Y-8440810D01*
X21685259Y-8431286D01*
X21675735Y-8412238D01*
X21675735Y-8402714D01*
X21685259Y-8383667D01*
X21704307Y-8374143D01*
X21732878Y-8374143D01*
X21751926Y-8383667D01*
X21999545Y-8431286D02*
X22151926Y-8431286D01*
X22075735Y-8507476D02*
X22075735Y-8355095D01*
X22485259Y-8307476D02*
X22447164Y-8307476D01*
X22428116Y-8317000D01*
X22418592Y-8326524D01*
X22399545Y-8355095D01*
X22390021Y-8393190D01*
X22390021Y-8469381D01*
X22399545Y-8488429D01*
X22409068Y-8497952D01*
X22428116Y-8507476D01*
X22466211Y-8507476D01*
X22485259Y-8497952D01*
X22494783Y-8488429D01*
X22504306Y-8469381D01*
X22504306Y-8421762D01*
X22494783Y-8402714D01*
X22485259Y-8393190D01*
X22466211Y-8383667D01*
X22428116Y-8383667D01*
X22409068Y-8393190D01*
X22399545Y-8402714D01*
X22390021Y-8421762D01*
X22732878Y-8497952D02*
X22751925Y-8507476D01*
X22790021Y-8507476D01*
X22809068Y-8497952D01*
X22818592Y-8478905D01*
X22818592Y-8469381D01*
X22809068Y-8450333D01*
X22790021Y-8440810D01*
X22761449Y-8440810D01*
X22742402Y-8431286D01*
X22732878Y-8412238D01*
X22732878Y-8402714D01*
X22742402Y-8383667D01*
X22761449Y-8374143D01*
X22790021Y-8374143D01*
X22809068Y-8383667D01*
X22932878Y-8507476D02*
X22913830Y-8497952D01*
X22904306Y-8478905D01*
X22904306Y-8307476D01*
X23037640Y-8507476D02*
X23018592Y-8497952D01*
X23009068Y-8488429D01*
X22999545Y-8469381D01*
X22999545Y-8412238D01*
X23009068Y-8393190D01*
X23018592Y-8383667D01*
X23037640Y-8374143D01*
X23066211Y-8374143D01*
X23085259Y-8383667D01*
X23094783Y-8393190D01*
X23104306Y-8412238D01*
X23104306Y-8469381D01*
X23094783Y-8488429D01*
X23085259Y-8497952D01*
X23066211Y-8507476D01*
X23037640Y-8507476D01*
X23161449Y-8374143D02*
X23237640Y-8374143D01*
X23190021Y-8307476D02*
X23190021Y-8478905D01*
X23199545Y-8497952D01*
X23218592Y-8507476D01*
X23237640Y-8507476D01*
X23294783Y-8497952D02*
X23313830Y-8507476D01*
X23351925Y-8507476D01*
X23370973Y-8497952D01*
X23380497Y-8478905D01*
X23380497Y-8469381D01*
X23370973Y-8450333D01*
X23351925Y-8440810D01*
X23323354Y-8440810D01*
X23304306Y-8431286D01*
X23294783Y-8412238D01*
X23294783Y-8402714D01*
X23304306Y-8383667D01*
X23323354Y-8374143D01*
X23351925Y-8374143D01*
X23370973Y-8383667D01*
X23447164Y-8583667D02*
X23456687Y-8574143D01*
X23475735Y-8545571D01*
X23485259Y-8526524D01*
X23494783Y-8497952D01*
X23504306Y-8450333D01*
X23504306Y-8412238D01*
X23494783Y-8364619D01*
X23485259Y-8336048D01*
X23475735Y-8317000D01*
X23456687Y-8288428D01*
X23447164Y-8278905D01*
D14*
X17016211Y-8641000D02*
X17016211Y-8721000D01*
X16976211Y-8681000D02*
X17056211Y-8681000D01*
D12*
X17351926Y-8571476D02*
X17370973Y-8571476D01*
X17390021Y-8581000D01*
X17399545Y-8590524D01*
X17409068Y-8609571D01*
X17418592Y-8647667D01*
X17418592Y-8695286D01*
X17409068Y-8733381D01*
X17399545Y-8752429D01*
X17390021Y-8761952D01*
X17370973Y-8771476D01*
X17351926Y-8771476D01*
X17332878Y-8761952D01*
X17323354Y-8752429D01*
X17313830Y-8733381D01*
X17304307Y-8695286D01*
X17304307Y-8647667D01*
X17313830Y-8609571D01*
X17323354Y-8590524D01*
X17332878Y-8581000D01*
X17351926Y-8571476D01*
X17504307Y-8752429D02*
X17513830Y-8761952D01*
X17504307Y-8771476D01*
X17494783Y-8761952D01*
X17504307Y-8752429D01*
X17504307Y-8771476D01*
X17628116Y-8657190D02*
X17609068Y-8647667D01*
X17599545Y-8638143D01*
X17590021Y-8619095D01*
X17590021Y-8609571D01*
X17599545Y-8590524D01*
X17609068Y-8581000D01*
X17628116Y-8571476D01*
X17666211Y-8571476D01*
X17685259Y-8581000D01*
X17694783Y-8590524D01*
X17704307Y-8609571D01*
X17704307Y-8619095D01*
X17694783Y-8638143D01*
X17685259Y-8647667D01*
X17666211Y-8657190D01*
X17628116Y-8657190D01*
X17609068Y-8666714D01*
X17599545Y-8676238D01*
X17590021Y-8695286D01*
X17590021Y-8733381D01*
X17599545Y-8752429D01*
X17609068Y-8761952D01*
X17628116Y-8771476D01*
X17666211Y-8771476D01*
X17685259Y-8761952D01*
X17694783Y-8752429D01*
X17704307Y-8733381D01*
X17704307Y-8695286D01*
X17694783Y-8676238D01*
X17685259Y-8666714D01*
X17666211Y-8657190D01*
X17828116Y-8571476D02*
X17847164Y-8571476D01*
X17866211Y-8581000D01*
X17875735Y-8590524D01*
X17885259Y-8609571D01*
X17894783Y-8647667D01*
X17894783Y-8695286D01*
X17885259Y-8733381D01*
X17875735Y-8752429D01*
X17866211Y-8761952D01*
X17847164Y-8771476D01*
X17828116Y-8771476D01*
X17809068Y-8761952D01*
X17799545Y-8752429D01*
X17790021Y-8733381D01*
X17780497Y-8695286D01*
X17780497Y-8647667D01*
X17790021Y-8609571D01*
X17799545Y-8590524D01*
X17809068Y-8581000D01*
X17828116Y-8571476D01*
X18018592Y-8571476D02*
X18037640Y-8571476D01*
X18056687Y-8581000D01*
X18066211Y-8590524D01*
X18075735Y-8609571D01*
X18085259Y-8647667D01*
X18085259Y-8695286D01*
X18075735Y-8733381D01*
X18066211Y-8752429D01*
X18056687Y-8761952D01*
X18037640Y-8771476D01*
X18018592Y-8771476D01*
X17999545Y-8761952D01*
X17990021Y-8752429D01*
X17980497Y-8733381D01*
X17970973Y-8695286D01*
X17970973Y-8647667D01*
X17980497Y-8609571D01*
X17990021Y-8590524D01*
X17999545Y-8581000D01*
X18018592Y-8571476D01*
X18170973Y-8771476D02*
X18170973Y-8638143D01*
X18170973Y-8657190D02*
X18180497Y-8647667D01*
X18199545Y-8638143D01*
X18228116Y-8638143D01*
X18247164Y-8647667D01*
X18256687Y-8666714D01*
X18256687Y-8771476D01*
X18256687Y-8666714D02*
X18266211Y-8647667D01*
X18285259Y-8638143D01*
X18313830Y-8638143D01*
X18332878Y-8647667D01*
X18342402Y-8666714D01*
X18342402Y-8771476D01*
X18437640Y-8771476D02*
X18437640Y-8638143D01*
X18437640Y-8657190D02*
X18447164Y-8647667D01*
X18466211Y-8638143D01*
X18494783Y-8638143D01*
X18513830Y-8647667D01*
X18523354Y-8666714D01*
X18523354Y-8771476D01*
X18523354Y-8666714D02*
X18532878Y-8647667D01*
X18551926Y-8638143D01*
X18580497Y-8638143D01*
X18599545Y-8647667D01*
X18609068Y-8666714D01*
X18609068Y-8771476D01*
X18999545Y-8561952D02*
X18828116Y-8819095D01*
X19256687Y-8571476D02*
X19275735Y-8571476D01*
X19294783Y-8581000D01*
X19304307Y-8590524D01*
X19313830Y-8609571D01*
X19323354Y-8647667D01*
X19323354Y-8695286D01*
X19313830Y-8733381D01*
X19304307Y-8752429D01*
X19294783Y-8761952D01*
X19275735Y-8771476D01*
X19256687Y-8771476D01*
X19237640Y-8761952D01*
X19228116Y-8752429D01*
X19218592Y-8733381D01*
X19209068Y-8695286D01*
X19209068Y-8647667D01*
X19218592Y-8609571D01*
X19228116Y-8590524D01*
X19237640Y-8581000D01*
X19256687Y-8571476D01*
X19409068Y-8752429D02*
X19418592Y-8761952D01*
X19409068Y-8771476D01*
X19399545Y-8761952D01*
X19409068Y-8752429D01*
X19409068Y-8771476D01*
X19542402Y-8571476D02*
X19561449Y-8571476D01*
X19580497Y-8581000D01*
X19590021Y-8590524D01*
X19599545Y-8609571D01*
X19609068Y-8647667D01*
X19609068Y-8695286D01*
X19599545Y-8733381D01*
X19590021Y-8752429D01*
X19580497Y-8761952D01*
X19561449Y-8771476D01*
X19542402Y-8771476D01*
X19523354Y-8761952D01*
X19513830Y-8752429D01*
X19504307Y-8733381D01*
X19494783Y-8695286D01*
X19494783Y-8647667D01*
X19504307Y-8609571D01*
X19513830Y-8590524D01*
X19523354Y-8581000D01*
X19542402Y-8571476D01*
X19675735Y-8571476D02*
X19799545Y-8571476D01*
X19732878Y-8647667D01*
X19761449Y-8647667D01*
X19780497Y-8657190D01*
X19790021Y-8666714D01*
X19799545Y-8685762D01*
X19799545Y-8733381D01*
X19790021Y-8752429D01*
X19780497Y-8761952D01*
X19761449Y-8771476D01*
X19704307Y-8771476D01*
X19685259Y-8761952D01*
X19675735Y-8752429D01*
X19990021Y-8771476D02*
X19875735Y-8771476D01*
X19932878Y-8771476D02*
X19932878Y-8571476D01*
X19913830Y-8600048D01*
X19894783Y-8619095D01*
X19875735Y-8628619D01*
X20170973Y-8571476D02*
X20075735Y-8571476D01*
X20066211Y-8666714D01*
X20075735Y-8657190D01*
X20094783Y-8647667D01*
X20142402Y-8647667D01*
X20161449Y-8657190D01*
X20170973Y-8666714D01*
X20180497Y-8685762D01*
X20180497Y-8733381D01*
X20170973Y-8752429D01*
X20161449Y-8761952D01*
X20142402Y-8771476D01*
X20094783Y-8771476D01*
X20075735Y-8761952D01*
X20066211Y-8752429D01*
X20256687Y-8571476D02*
X20256687Y-8609571D01*
X20332878Y-8571476D02*
X20332878Y-8609571D01*
X20628116Y-8847667D02*
X20618592Y-8838143D01*
X20599545Y-8809571D01*
X20590021Y-8790524D01*
X20580497Y-8761952D01*
X20570973Y-8714333D01*
X20570973Y-8676238D01*
X20580497Y-8628619D01*
X20590021Y-8600048D01*
X20599545Y-8581000D01*
X20618592Y-8552429D01*
X20628116Y-8542905D01*
X20809068Y-8771476D02*
X20694783Y-8771476D01*
X20751926Y-8771476D02*
X20751926Y-8571476D01*
X20732878Y-8600048D01*
X20713830Y-8619095D01*
X20694783Y-8628619D01*
X20932878Y-8571476D02*
X20951926Y-8571476D01*
X20970973Y-8581000D01*
X20980497Y-8590524D01*
X20990021Y-8609571D01*
X20999545Y-8647667D01*
X20999545Y-8695286D01*
X20990021Y-8733381D01*
X20980497Y-8752429D01*
X20970973Y-8761952D01*
X20951926Y-8771476D01*
X20932878Y-8771476D01*
X20913830Y-8761952D01*
X20904307Y-8752429D01*
X20894783Y-8733381D01*
X20885259Y-8695286D01*
X20885259Y-8647667D01*
X20894783Y-8609571D01*
X20904307Y-8590524D01*
X20913830Y-8581000D01*
X20932878Y-8571476D01*
X21237640Y-8771476D02*
X21237640Y-8571476D01*
X21323354Y-8771476D02*
X21323354Y-8666714D01*
X21313830Y-8647667D01*
X21294783Y-8638143D01*
X21266211Y-8638143D01*
X21247164Y-8647667D01*
X21237640Y-8657190D01*
X21447164Y-8771476D02*
X21428116Y-8761952D01*
X21418592Y-8752429D01*
X21409068Y-8733381D01*
X21409068Y-8676238D01*
X21418592Y-8657190D01*
X21428116Y-8647667D01*
X21447164Y-8638143D01*
X21475735Y-8638143D01*
X21494783Y-8647667D01*
X21504307Y-8657190D01*
X21513830Y-8676238D01*
X21513830Y-8733381D01*
X21504307Y-8752429D01*
X21494783Y-8761952D01*
X21475735Y-8771476D01*
X21447164Y-8771476D01*
X21628116Y-8771476D02*
X21609068Y-8761952D01*
X21599545Y-8742905D01*
X21599545Y-8571476D01*
X21780497Y-8761952D02*
X21761449Y-8771476D01*
X21723354Y-8771476D01*
X21704307Y-8761952D01*
X21694783Y-8742905D01*
X21694783Y-8666714D01*
X21704307Y-8647667D01*
X21723354Y-8638143D01*
X21761449Y-8638143D01*
X21780497Y-8647667D01*
X21790021Y-8666714D01*
X21790021Y-8685762D01*
X21694783Y-8704810D01*
X21866211Y-8761952D02*
X21885259Y-8771476D01*
X21923354Y-8771476D01*
X21942402Y-8761952D01*
X21951926Y-8742905D01*
X21951926Y-8733381D01*
X21942402Y-8714333D01*
X21923354Y-8704810D01*
X21894783Y-8704810D01*
X21875735Y-8695286D01*
X21866211Y-8676238D01*
X21866211Y-8666714D01*
X21875735Y-8647667D01*
X21894783Y-8638143D01*
X21923354Y-8638143D01*
X21942402Y-8647667D01*
X22018592Y-8847667D02*
X22028116Y-8838143D01*
X22047164Y-8809571D01*
X22056687Y-8790524D01*
X22066211Y-8761952D01*
X22075735Y-8714333D01*
X22075735Y-8676238D01*
X22066211Y-8628619D01*
X22056687Y-8600048D01*
X22047164Y-8581000D01*
X22028116Y-8552429D01*
X22018592Y-8542905D01*
D15*
X17041567Y-8980356D02*
X17041567Y-8909644D01*
X16970856Y-8909644D01*
X16970856Y-8980356D01*
X17041567Y-8980356D01*
D12*
X17418592Y-9035476D02*
X17304307Y-9035476D01*
X17361449Y-9035476D02*
X17361449Y-8835476D01*
X17342402Y-8864048D01*
X17323354Y-8883095D01*
X17304307Y-8892619D01*
X17504307Y-9016429D02*
X17513830Y-9025952D01*
X17504307Y-9035476D01*
X17494783Y-9025952D01*
X17504307Y-9016429D01*
X17504307Y-9035476D01*
X17637640Y-8835476D02*
X17656687Y-8835476D01*
X17675735Y-8845000D01*
X17685259Y-8854524D01*
X17694783Y-8873571D01*
X17704307Y-8911667D01*
X17704307Y-8959286D01*
X17694783Y-8997381D01*
X17685259Y-9016429D01*
X17675735Y-9025952D01*
X17656687Y-9035476D01*
X17637640Y-9035476D01*
X17618592Y-9025952D01*
X17609068Y-9016429D01*
X17599545Y-8997381D01*
X17590021Y-8959286D01*
X17590021Y-8911667D01*
X17599545Y-8873571D01*
X17609068Y-8854524D01*
X17618592Y-8845000D01*
X17637640Y-8835476D01*
X17828116Y-8835476D02*
X17847164Y-8835476D01*
X17866211Y-8845000D01*
X17875735Y-8854524D01*
X17885259Y-8873571D01*
X17894783Y-8911667D01*
X17894783Y-8959286D01*
X17885259Y-8997381D01*
X17875735Y-9016429D01*
X17866211Y-9025952D01*
X17847164Y-9035476D01*
X17828116Y-9035476D01*
X17809068Y-9025952D01*
X17799545Y-9016429D01*
X17790021Y-8997381D01*
X17780497Y-8959286D01*
X17780497Y-8911667D01*
X17790021Y-8873571D01*
X17799545Y-8854524D01*
X17809068Y-8845000D01*
X17828116Y-8835476D01*
X18018592Y-8835476D02*
X18037640Y-8835476D01*
X18056687Y-8845000D01*
X18066211Y-8854524D01*
X18075735Y-8873571D01*
X18085259Y-8911667D01*
X18085259Y-8959286D01*
X18075735Y-8997381D01*
X18066211Y-9016429D01*
X18056687Y-9025952D01*
X18037640Y-9035476D01*
X18018592Y-9035476D01*
X17999545Y-9025952D01*
X17990021Y-9016429D01*
X17980497Y-8997381D01*
X17970973Y-8959286D01*
X17970973Y-8911667D01*
X17980497Y-8873571D01*
X17990021Y-8854524D01*
X17999545Y-8845000D01*
X18018592Y-8835476D01*
X18170973Y-9035476D02*
X18170973Y-8902143D01*
X18170973Y-8921190D02*
X18180497Y-8911667D01*
X18199545Y-8902143D01*
X18228116Y-8902143D01*
X18247164Y-8911667D01*
X18256687Y-8930714D01*
X18256687Y-9035476D01*
X18256687Y-8930714D02*
X18266211Y-8911667D01*
X18285259Y-8902143D01*
X18313830Y-8902143D01*
X18332878Y-8911667D01*
X18342402Y-8930714D01*
X18342402Y-9035476D01*
X18437640Y-9035476D02*
X18437640Y-8902143D01*
X18437640Y-8921190D02*
X18447164Y-8911667D01*
X18466211Y-8902143D01*
X18494783Y-8902143D01*
X18513830Y-8911667D01*
X18523354Y-8930714D01*
X18523354Y-9035476D01*
X18523354Y-8930714D02*
X18532878Y-8911667D01*
X18551926Y-8902143D01*
X18580497Y-8902143D01*
X18599545Y-8911667D01*
X18609068Y-8930714D01*
X18609068Y-9035476D01*
X18999545Y-8825952D02*
X18828116Y-9083095D01*
X19256687Y-8835476D02*
X19275735Y-8835476D01*
X19294783Y-8845000D01*
X19304307Y-8854524D01*
X19313830Y-8873571D01*
X19323354Y-8911667D01*
X19323354Y-8959286D01*
X19313830Y-8997381D01*
X19304307Y-9016429D01*
X19294783Y-9025952D01*
X19275735Y-9035476D01*
X19256687Y-9035476D01*
X19237640Y-9025952D01*
X19228116Y-9016429D01*
X19218592Y-8997381D01*
X19209068Y-8959286D01*
X19209068Y-8911667D01*
X19218592Y-8873571D01*
X19228116Y-8854524D01*
X19237640Y-8845000D01*
X19256687Y-8835476D01*
X19409068Y-9016429D02*
X19418592Y-9025952D01*
X19409068Y-9035476D01*
X19399545Y-9025952D01*
X19409068Y-9016429D01*
X19409068Y-9035476D01*
X19542402Y-8835476D02*
X19561449Y-8835476D01*
X19580497Y-8845000D01*
X19590021Y-8854524D01*
X19599545Y-8873571D01*
X19609068Y-8911667D01*
X19609068Y-8959286D01*
X19599545Y-8997381D01*
X19590021Y-9016429D01*
X19580497Y-9025952D01*
X19561449Y-9035476D01*
X19542402Y-9035476D01*
X19523354Y-9025952D01*
X19513830Y-9016429D01*
X19504307Y-8997381D01*
X19494783Y-8959286D01*
X19494783Y-8911667D01*
X19504307Y-8873571D01*
X19513830Y-8854524D01*
X19523354Y-8845000D01*
X19542402Y-8835476D01*
X19675735Y-8835476D02*
X19799545Y-8835476D01*
X19732878Y-8911667D01*
X19761449Y-8911667D01*
X19780497Y-8921190D01*
X19790021Y-8930714D01*
X19799545Y-8949762D01*
X19799545Y-8997381D01*
X19790021Y-9016429D01*
X19780497Y-9025952D01*
X19761449Y-9035476D01*
X19704307Y-9035476D01*
X19685259Y-9025952D01*
X19675735Y-9016429D01*
X19894783Y-9035476D02*
X19932878Y-9035476D01*
X19951926Y-9025952D01*
X19961449Y-9016429D01*
X19980497Y-8987857D01*
X19990021Y-8949762D01*
X19990021Y-8873571D01*
X19980497Y-8854524D01*
X19970973Y-8845000D01*
X19951926Y-8835476D01*
X19913830Y-8835476D01*
X19894783Y-8845000D01*
X19885259Y-8854524D01*
X19875735Y-8873571D01*
X19875735Y-8921190D01*
X19885259Y-8940238D01*
X19894783Y-8949762D01*
X19913830Y-8959286D01*
X19951926Y-8959286D01*
X19970973Y-8949762D01*
X19980497Y-8940238D01*
X19990021Y-8921190D01*
X20161449Y-8902143D02*
X20161449Y-9035476D01*
X20113830Y-8825952D02*
X20066211Y-8968810D01*
X20190021Y-8968810D01*
X20256687Y-8835476D02*
X20256687Y-8873571D01*
X20332878Y-8835476D02*
X20332878Y-8873571D01*
X20628116Y-9111667D02*
X20618592Y-9102143D01*
X20599545Y-9073571D01*
X20590021Y-9054524D01*
X20580497Y-9025952D01*
X20570973Y-8978333D01*
X20570973Y-8940238D01*
X20580497Y-8892619D01*
X20590021Y-8864048D01*
X20599545Y-8845000D01*
X20618592Y-8816429D01*
X20628116Y-8806905D01*
X20694783Y-8854524D02*
X20704307Y-8845000D01*
X20723354Y-8835476D01*
X20770973Y-8835476D01*
X20790021Y-8845000D01*
X20799545Y-8854524D01*
X20809068Y-8873571D01*
X20809068Y-8892619D01*
X20799545Y-8921190D01*
X20685259Y-9035476D01*
X20809068Y-9035476D01*
X20999545Y-9035476D02*
X20885259Y-9035476D01*
X20942402Y-9035476D02*
X20942402Y-8835476D01*
X20923354Y-8864048D01*
X20904307Y-8883095D01*
X20885259Y-8892619D01*
X21237640Y-9035476D02*
X21237640Y-8835476D01*
X21323354Y-9035476D02*
X21323354Y-8930714D01*
X21313830Y-8911667D01*
X21294783Y-8902143D01*
X21266211Y-8902143D01*
X21247164Y-8911667D01*
X21237640Y-8921190D01*
X21447164Y-9035476D02*
X21428116Y-9025952D01*
X21418592Y-9016429D01*
X21409068Y-8997381D01*
X21409068Y-8940238D01*
X21418592Y-8921190D01*
X21428116Y-8911667D01*
X21447164Y-8902143D01*
X21475735Y-8902143D01*
X21494783Y-8911667D01*
X21504307Y-8921190D01*
X21513830Y-8940238D01*
X21513830Y-8997381D01*
X21504307Y-9016429D01*
X21494783Y-9025952D01*
X21475735Y-9035476D01*
X21447164Y-9035476D01*
X21628116Y-9035476D02*
X21609068Y-9025952D01*
X21599545Y-9006905D01*
X21599545Y-8835476D01*
X21780497Y-9025952D02*
X21761449Y-9035476D01*
X21723354Y-9035476D01*
X21704307Y-9025952D01*
X21694783Y-9006905D01*
X21694783Y-8930714D01*
X21704307Y-8911667D01*
X21723354Y-8902143D01*
X21761449Y-8902143D01*
X21780497Y-8911667D01*
X21790021Y-8930714D01*
X21790021Y-8949762D01*
X21694783Y-8968810D01*
X21866211Y-9025952D02*
X21885259Y-9035476D01*
X21923354Y-9035476D01*
X21942402Y-9025952D01*
X21951926Y-9006905D01*
X21951926Y-8997381D01*
X21942402Y-8978333D01*
X21923354Y-8968810D01*
X21894783Y-8968810D01*
X21875735Y-8959286D01*
X21866211Y-8940238D01*
X21866211Y-8930714D01*
X21875735Y-8911667D01*
X21894783Y-8902143D01*
X21923354Y-8902143D01*
X21942402Y-8911667D01*
X22018592Y-9111667D02*
X22028116Y-9102143D01*
X22047164Y-9073571D01*
X22056687Y-9054524D01*
X22066211Y-9025952D01*
X22075735Y-8978333D01*
X22075735Y-8940238D01*
X22066211Y-8892619D01*
X22056687Y-8864048D01*
X22047164Y-8845000D01*
X22028116Y-8816429D01*
X22018592Y-8806905D01*
M02*
