%TF.GenerationSoftware,KiCad,Pcbnew,(6.0.5)*%
%TF.CreationDate,2022-08-07T22:36:51-04:00*%
%TF.ProjectId,ADE7953-Power-Sensor-breakout,41444537-3935-4332-9d50-6f7765722d53,rev?*%
%TF.SameCoordinates,Original*%
%TF.FileFunction,Legend,Top*%
%TF.FilePolarity,Positive*%
%FSLAX46Y46*%
G04 Gerber Fmt 4.6, Leading zero omitted, Abs format (unit mm)*
G04 Created by KiCad (PCBNEW (6.0.5)) date 2022-08-07 22:36:51*
%MOMM*%
%LPD*%
G01*
G04 APERTURE LIST*
%ADD10C,0.375000*%
%ADD11C,0.300000*%
%ADD12C,0.150000*%
%ADD13C,0.120000*%
%ADD14C,0.100000*%
G04 APERTURE END LIST*
D10*
X207008095Y-62693333D02*
X207817619Y-62693333D01*
X206846190Y-63264761D02*
X207412857Y-61264761D01*
X207979523Y-63264761D01*
X208546190Y-63264761D02*
X208546190Y-61264761D01*
X208950952Y-61264761D01*
X209193809Y-61360000D01*
X209355714Y-61550476D01*
X209436666Y-61740952D01*
X209517619Y-62121904D01*
X209517619Y-62407619D01*
X209436666Y-62788571D01*
X209355714Y-62979047D01*
X209193809Y-63169523D01*
X208950952Y-63264761D01*
X208546190Y-63264761D01*
X210246190Y-62217142D02*
X210812857Y-62217142D01*
X211055714Y-63264761D02*
X210246190Y-63264761D01*
X210246190Y-61264761D01*
X211055714Y-61264761D01*
X211622380Y-61264761D02*
X212755714Y-61264761D01*
X212027142Y-63264761D01*
X213484285Y-63264761D02*
X213808095Y-63264761D01*
X213970000Y-63169523D01*
X214050952Y-63074285D01*
X214212857Y-62788571D01*
X214293809Y-62407619D01*
X214293809Y-61645714D01*
X214212857Y-61455238D01*
X214131904Y-61360000D01*
X213970000Y-61264761D01*
X213646190Y-61264761D01*
X213484285Y-61360000D01*
X213403333Y-61455238D01*
X213322380Y-61645714D01*
X213322380Y-62121904D01*
X213403333Y-62312380D01*
X213484285Y-62407619D01*
X213646190Y-62502857D01*
X213970000Y-62502857D01*
X214131904Y-62407619D01*
X214212857Y-62312380D01*
X214293809Y-62121904D01*
X215831904Y-61264761D02*
X215022380Y-61264761D01*
X214941428Y-62217142D01*
X215022380Y-62121904D01*
X215184285Y-62026666D01*
X215589047Y-62026666D01*
X215750952Y-62121904D01*
X215831904Y-62217142D01*
X215912857Y-62407619D01*
X215912857Y-62883809D01*
X215831904Y-63074285D01*
X215750952Y-63169523D01*
X215589047Y-63264761D01*
X215184285Y-63264761D01*
X215022380Y-63169523D01*
X214941428Y-63074285D01*
X216479523Y-61264761D02*
X217531904Y-61264761D01*
X216965238Y-62026666D01*
X217208095Y-62026666D01*
X217370000Y-62121904D01*
X217450952Y-62217142D01*
X217531904Y-62407619D01*
X217531904Y-62883809D01*
X217450952Y-63074285D01*
X217370000Y-63169523D01*
X217208095Y-63264761D01*
X216722380Y-63264761D01*
X216560476Y-63169523D01*
X216479523Y-63074285D01*
D11*
X192111428Y-53719285D02*
X192825714Y-53219285D01*
X192111428Y-52862142D02*
X193611428Y-52862142D01*
X193611428Y-53433571D01*
X193540000Y-53576428D01*
X193468571Y-53647857D01*
X193325714Y-53719285D01*
X193111428Y-53719285D01*
X192968571Y-53647857D01*
X192897142Y-53576428D01*
X192825714Y-53433571D01*
X192825714Y-52862142D01*
X192897142Y-54362142D02*
X192897142Y-54862142D01*
X192111428Y-55076428D02*
X192111428Y-54362142D01*
X193611428Y-54362142D01*
X193611428Y-55076428D01*
X193611428Y-55505000D02*
X192111428Y-56005000D01*
X193611428Y-56505000D01*
X192111428Y-57005000D02*
X193611428Y-57005000D01*
X193611428Y-57576428D01*
X193540000Y-57719285D01*
X193468571Y-57790714D01*
X193325714Y-57862142D01*
X193111428Y-57862142D01*
X192968571Y-57790714D01*
X192897142Y-57719285D01*
X192825714Y-57576428D01*
X192825714Y-57005000D01*
X191071428Y-52729285D02*
X191071428Y-53729285D01*
X189571428Y-52729285D01*
X189571428Y-53729285D01*
X191071428Y-54157857D02*
X189571428Y-55157857D01*
X191071428Y-55157857D02*
X189571428Y-54157857D01*
X189428571Y-55372142D02*
X189428571Y-56515000D01*
X189571428Y-56872142D02*
X191071428Y-56872142D01*
X187021428Y-52832142D02*
X188521428Y-52832142D01*
X187021428Y-54403571D02*
X187735714Y-53903571D01*
X187021428Y-53546428D02*
X188521428Y-53546428D01*
X188521428Y-54117857D01*
X188450000Y-54260714D01*
X188378571Y-54332142D01*
X188235714Y-54403571D01*
X188021428Y-54403571D01*
X187878571Y-54332142D01*
X187807142Y-54260714D01*
X187735714Y-54117857D01*
X187735714Y-53546428D01*
X186878571Y-56046428D02*
X186950000Y-55903571D01*
X187092857Y-55760714D01*
X187307142Y-55546428D01*
X187378571Y-55403571D01*
X187378571Y-55260714D01*
X187021428Y-55332142D02*
X187092857Y-55189285D01*
X187235714Y-55046428D01*
X187521428Y-54975000D01*
X188021428Y-54975000D01*
X188307142Y-55046428D01*
X188450000Y-55189285D01*
X188521428Y-55332142D01*
X188521428Y-55617857D01*
X188450000Y-55760714D01*
X188307142Y-55903571D01*
X188021428Y-55975000D01*
X187521428Y-55975000D01*
X187235714Y-55903571D01*
X187092857Y-55760714D01*
X187021428Y-55617857D01*
X187021428Y-55332142D01*
X184654285Y-53729285D02*
X184582857Y-53657857D01*
X184511428Y-53443571D01*
X184511428Y-53300714D01*
X184582857Y-53086428D01*
X184725714Y-52943571D01*
X184868571Y-52872142D01*
X185154285Y-52800714D01*
X185368571Y-52800714D01*
X185654285Y-52872142D01*
X185797142Y-52943571D01*
X185940000Y-53086428D01*
X186011428Y-53300714D01*
X186011428Y-53443571D01*
X185940000Y-53657857D01*
X185868571Y-53729285D01*
X185297142Y-54872142D02*
X185297142Y-54372142D01*
X184511428Y-54372142D02*
X186011428Y-54372142D01*
X186011428Y-55086428D01*
X184511428Y-56443571D02*
X184511428Y-55586428D01*
X184511428Y-56015000D02*
X186011428Y-56015000D01*
X185797142Y-55872142D01*
X185654285Y-55729285D01*
X185582857Y-55586428D01*
X182104285Y-53789285D02*
X182032857Y-53717857D01*
X181961428Y-53503571D01*
X181961428Y-53360714D01*
X182032857Y-53146428D01*
X182175714Y-53003571D01*
X182318571Y-52932142D01*
X182604285Y-52860714D01*
X182818571Y-52860714D01*
X183104285Y-52932142D01*
X183247142Y-53003571D01*
X183390000Y-53146428D01*
X183461428Y-53360714D01*
X183461428Y-53503571D01*
X183390000Y-53717857D01*
X183318571Y-53789285D01*
X182747142Y-54932142D02*
X182747142Y-54432142D01*
X181961428Y-54432142D02*
X183461428Y-54432142D01*
X183461428Y-55146428D01*
X183318571Y-55646428D02*
X183390000Y-55717857D01*
X183461428Y-55860714D01*
X183461428Y-56217857D01*
X183390000Y-56360714D01*
X183318571Y-56432142D01*
X183175714Y-56503571D01*
X183032857Y-56503571D01*
X182818571Y-56432142D01*
X181961428Y-55575000D01*
X181961428Y-56503571D01*
X180951428Y-52769285D02*
X180951428Y-53769285D01*
X179451428Y-52769285D01*
X179451428Y-53769285D01*
X180951428Y-54197857D02*
X179451428Y-55197857D01*
X180951428Y-55197857D02*
X179451428Y-54197857D01*
X173209285Y-51788571D02*
X172709285Y-51074285D01*
X172352142Y-51788571D02*
X172352142Y-50288571D01*
X172923571Y-50288571D01*
X173066428Y-50360000D01*
X173137857Y-50431428D01*
X173209285Y-50574285D01*
X173209285Y-50788571D01*
X173137857Y-50931428D01*
X173066428Y-51002857D01*
X172923571Y-51074285D01*
X172352142Y-51074285D01*
X173780714Y-51717142D02*
X173995000Y-51788571D01*
X174352142Y-51788571D01*
X174495000Y-51717142D01*
X174566428Y-51645714D01*
X174637857Y-51502857D01*
X174637857Y-51360000D01*
X174566428Y-51217142D01*
X174495000Y-51145714D01*
X174352142Y-51074285D01*
X174066428Y-51002857D01*
X173923571Y-50931428D01*
X173852142Y-50860000D01*
X173780714Y-50717142D01*
X173780714Y-50574285D01*
X173852142Y-50431428D01*
X173923571Y-50360000D01*
X174066428Y-50288571D01*
X174423571Y-50288571D01*
X174637857Y-50360000D01*
X175066428Y-50288571D02*
X175923571Y-50288571D01*
X175495000Y-51788571D02*
X175495000Y-50288571D01*
X184492619Y-61795476D02*
X184492619Y-60545476D01*
X184968809Y-60545476D01*
X185087857Y-60605000D01*
X185147380Y-60664523D01*
X185206904Y-60783571D01*
X185206904Y-60962142D01*
X185147380Y-61081190D01*
X185087857Y-61140714D01*
X184968809Y-61200238D01*
X184492619Y-61200238D01*
X185980714Y-60545476D02*
X186218809Y-60545476D01*
X186337857Y-60605000D01*
X186456904Y-60724047D01*
X186516428Y-60962142D01*
X186516428Y-61378809D01*
X186456904Y-61616904D01*
X186337857Y-61735952D01*
X186218809Y-61795476D01*
X185980714Y-61795476D01*
X185861666Y-61735952D01*
X185742619Y-61616904D01*
X185683095Y-61378809D01*
X185683095Y-60962142D01*
X185742619Y-60724047D01*
X185861666Y-60605000D01*
X185980714Y-60545476D01*
X187766428Y-61676428D02*
X187706904Y-61735952D01*
X187528333Y-61795476D01*
X187409285Y-61795476D01*
X187230714Y-61735952D01*
X187111666Y-61616904D01*
X187052142Y-61497857D01*
X186992619Y-61259761D01*
X186992619Y-61081190D01*
X187052142Y-60843095D01*
X187111666Y-60724047D01*
X187230714Y-60605000D01*
X187409285Y-60545476D01*
X187528333Y-60545476D01*
X187706904Y-60605000D01*
X187766428Y-60664523D01*
X188302142Y-61795476D02*
X188302142Y-60545476D01*
X184453095Y-59155952D02*
X184631666Y-59215476D01*
X184929285Y-59215476D01*
X185048333Y-59155952D01*
X185107857Y-59096428D01*
X185167380Y-58977380D01*
X185167380Y-58858333D01*
X185107857Y-58739285D01*
X185048333Y-58679761D01*
X184929285Y-58620238D01*
X184691190Y-58560714D01*
X184572142Y-58501190D01*
X184512619Y-58441666D01*
X184453095Y-58322619D01*
X184453095Y-58203571D01*
X184512619Y-58084523D01*
X184572142Y-58025000D01*
X184691190Y-57965476D01*
X184988809Y-57965476D01*
X185167380Y-58025000D01*
X186417380Y-59096428D02*
X186357857Y-59155952D01*
X186179285Y-59215476D01*
X186060238Y-59215476D01*
X185881666Y-59155952D01*
X185762619Y-59036904D01*
X185703095Y-58917857D01*
X185643571Y-58679761D01*
X185643571Y-58501190D01*
X185703095Y-58263095D01*
X185762619Y-58144047D01*
X185881666Y-58025000D01*
X186060238Y-57965476D01*
X186179285Y-57965476D01*
X186357857Y-58025000D01*
X186417380Y-58084523D01*
X187548333Y-59215476D02*
X186953095Y-59215476D01*
X186953095Y-57965476D01*
X187965000Y-59215476D02*
X187965000Y-57965476D01*
X188679285Y-59215476D02*
X188143571Y-58501190D01*
X188679285Y-57965476D02*
X187965000Y-58679761D01*
X185186904Y-66856428D02*
X185127380Y-66915952D01*
X184948809Y-66975476D01*
X184829761Y-66975476D01*
X184651190Y-66915952D01*
X184532142Y-66796904D01*
X184472619Y-66677857D01*
X184413095Y-66439761D01*
X184413095Y-66261190D01*
X184472619Y-66023095D01*
X184532142Y-65904047D01*
X184651190Y-65785000D01*
X184829761Y-65725476D01*
X184948809Y-65725476D01*
X185127380Y-65785000D01*
X185186904Y-65844523D01*
X185663095Y-66915952D02*
X185841666Y-66975476D01*
X186139285Y-66975476D01*
X186258333Y-66915952D01*
X186317857Y-66856428D01*
X186377380Y-66737380D01*
X186377380Y-66618333D01*
X186317857Y-66499285D01*
X186258333Y-66439761D01*
X186139285Y-66380238D01*
X185901190Y-66320714D01*
X185782142Y-66261190D01*
X185722619Y-66201666D01*
X185663095Y-66082619D01*
X185663095Y-65963571D01*
X185722619Y-65844523D01*
X185782142Y-65785000D01*
X185901190Y-65725476D01*
X186198809Y-65725476D01*
X186377380Y-65785000D01*
X184492619Y-64395476D02*
X184492619Y-63145476D01*
X184968809Y-63145476D01*
X185087857Y-63205000D01*
X185147380Y-63264523D01*
X185206904Y-63383571D01*
X185206904Y-63562142D01*
X185147380Y-63681190D01*
X185087857Y-63740714D01*
X184968809Y-63800238D01*
X184492619Y-63800238D01*
X185742619Y-64395476D02*
X185742619Y-63145476D01*
X187052142Y-64276428D02*
X186992619Y-64335952D01*
X186814047Y-64395476D01*
X186695000Y-64395476D01*
X186516428Y-64335952D01*
X186397380Y-64216904D01*
X186337857Y-64097857D01*
X186278333Y-63859761D01*
X186278333Y-63681190D01*
X186337857Y-63443095D01*
X186397380Y-63324047D01*
X186516428Y-63205000D01*
X186695000Y-63145476D01*
X186814047Y-63145476D01*
X186992619Y-63205000D01*
X187052142Y-63264523D01*
X187825952Y-63145476D02*
X188064047Y-63145476D01*
X188183095Y-63205000D01*
X188302142Y-63324047D01*
X188361666Y-63562142D01*
X188361666Y-63978809D01*
X188302142Y-64216904D01*
X188183095Y-64335952D01*
X188064047Y-64395476D01*
X187825952Y-64395476D01*
X187706904Y-64335952D01*
X187587857Y-64216904D01*
X187528333Y-63978809D01*
X187528333Y-63562142D01*
X187587857Y-63324047D01*
X187706904Y-63205000D01*
X187825952Y-63145476D01*
X185087380Y-70815000D02*
X184968333Y-70755476D01*
X184789761Y-70755476D01*
X184611190Y-70815000D01*
X184492142Y-70934047D01*
X184432619Y-71053095D01*
X184373095Y-71291190D01*
X184373095Y-71469761D01*
X184432619Y-71707857D01*
X184492142Y-71826904D01*
X184611190Y-71945952D01*
X184789761Y-72005476D01*
X184908809Y-72005476D01*
X185087380Y-71945952D01*
X185146904Y-71886428D01*
X185146904Y-71469761D01*
X184908809Y-71469761D01*
X185682619Y-72005476D02*
X185682619Y-70755476D01*
X186396904Y-72005476D01*
X186396904Y-70755476D01*
X186992142Y-72005476D02*
X186992142Y-70755476D01*
X187289761Y-70755476D01*
X187468333Y-70815000D01*
X187587380Y-70934047D01*
X187646904Y-71053095D01*
X187706428Y-71291190D01*
X187706428Y-71469761D01*
X187646904Y-71707857D01*
X187587380Y-71826904D01*
X187468333Y-71945952D01*
X187289761Y-72005476D01*
X186992142Y-72005476D01*
X184333571Y-68175476D02*
X185107380Y-68175476D01*
X184690714Y-68651666D01*
X184869285Y-68651666D01*
X184988333Y-68711190D01*
X185047857Y-68770714D01*
X185107380Y-68889761D01*
X185107380Y-69187380D01*
X185047857Y-69306428D01*
X184988333Y-69365952D01*
X184869285Y-69425476D01*
X184512142Y-69425476D01*
X184393095Y-69365952D01*
X184333571Y-69306428D01*
X185464523Y-68175476D02*
X185881190Y-69425476D01*
X186297857Y-68175476D01*
X186595476Y-68175476D02*
X187369285Y-68175476D01*
X186952619Y-68651666D01*
X187131190Y-68651666D01*
X187250238Y-68711190D01*
X187309761Y-68770714D01*
X187369285Y-68889761D01*
X187369285Y-69187380D01*
X187309761Y-69306428D01*
X187250238Y-69365952D01*
X187131190Y-69425476D01*
X186774047Y-69425476D01*
X186655000Y-69365952D01*
X186595476Y-69306428D01*
X216030982Y-65645476D02*
X216030982Y-64395476D01*
X216745267Y-65645476D01*
X216745267Y-64395476D01*
X172811190Y-68095476D02*
X173585000Y-68095476D01*
X173168333Y-68571666D01*
X173346904Y-68571666D01*
X173465952Y-68631190D01*
X173525476Y-68690714D01*
X173585000Y-68809761D01*
X173585000Y-69107380D01*
X173525476Y-69226428D01*
X173465952Y-69285952D01*
X173346904Y-69345476D01*
X172989761Y-69345476D01*
X172870714Y-69285952D01*
X172811190Y-69226428D01*
X173942142Y-68095476D02*
X174358809Y-69345476D01*
X174775476Y-68095476D01*
X175073095Y-68095476D02*
X175846904Y-68095476D01*
X175430238Y-68571666D01*
X175608809Y-68571666D01*
X175727857Y-68631190D01*
X175787380Y-68690714D01*
X175846904Y-68809761D01*
X175846904Y-69107380D01*
X175787380Y-69226428D01*
X175727857Y-69285952D01*
X175608809Y-69345476D01*
X175251666Y-69345476D01*
X175132619Y-69285952D01*
X175073095Y-69226428D01*
X172830714Y-64175952D02*
X173009285Y-64235476D01*
X173306904Y-64235476D01*
X173425952Y-64175952D01*
X173485476Y-64116428D01*
X173545000Y-63997380D01*
X173545000Y-63878333D01*
X173485476Y-63759285D01*
X173425952Y-63699761D01*
X173306904Y-63640238D01*
X173068809Y-63580714D01*
X172949761Y-63521190D01*
X172890238Y-63461666D01*
X172830714Y-63342619D01*
X172830714Y-63223571D01*
X172890238Y-63104523D01*
X172949761Y-63045000D01*
X173068809Y-62985476D01*
X173366428Y-62985476D01*
X173545000Y-63045000D01*
X174080714Y-64235476D02*
X174080714Y-62985476D01*
X174378333Y-62985476D01*
X174556904Y-63045000D01*
X174675952Y-63164047D01*
X174735476Y-63283095D01*
X174795000Y-63521190D01*
X174795000Y-63699761D01*
X174735476Y-63937857D01*
X174675952Y-64056904D01*
X174556904Y-64175952D01*
X174378333Y-64235476D01*
X174080714Y-64235476D01*
X175925952Y-64235476D02*
X175330714Y-64235476D01*
X175330714Y-62985476D01*
X216864791Y-51174523D02*
X216864791Y-52424523D01*
X216150506Y-51174523D01*
X216150506Y-52424523D01*
X215990506Y-59765476D02*
X215990506Y-58515476D01*
X216466696Y-58515476D01*
X216585744Y-58575000D01*
X216645267Y-58634523D01*
X216704791Y-58753571D01*
X216704791Y-58932142D01*
X216645267Y-59051190D01*
X216585744Y-59110714D01*
X216466696Y-59170238D01*
X215990506Y-59170238D01*
X172751190Y-66755952D02*
X172929761Y-66815476D01*
X173227380Y-66815476D01*
X173346428Y-66755952D01*
X173405952Y-66696428D01*
X173465476Y-66577380D01*
X173465476Y-66458333D01*
X173405952Y-66339285D01*
X173346428Y-66279761D01*
X173227380Y-66220238D01*
X172989285Y-66160714D01*
X172870238Y-66101190D01*
X172810714Y-66041666D01*
X172751190Y-65922619D01*
X172751190Y-65803571D01*
X172810714Y-65684523D01*
X172870238Y-65625000D01*
X172989285Y-65565476D01*
X173286904Y-65565476D01*
X173465476Y-65625000D01*
X174001190Y-66815476D02*
X174001190Y-65565476D01*
X174298809Y-65565476D01*
X174477380Y-65625000D01*
X174596428Y-65744047D01*
X174655952Y-65863095D01*
X174715476Y-66101190D01*
X174715476Y-66279761D01*
X174655952Y-66517857D01*
X174596428Y-66636904D01*
X174477380Y-66755952D01*
X174298809Y-66815476D01*
X174001190Y-66815476D01*
X175191666Y-66458333D02*
X175786904Y-66458333D01*
X175072619Y-66815476D02*
X175489285Y-65565476D01*
X175905952Y-66815476D01*
X216090506Y-73235476D02*
X216090506Y-71985476D01*
X216566696Y-71985476D01*
X216685744Y-72045000D01*
X216745267Y-72104523D01*
X216804791Y-72223571D01*
X216804791Y-72402142D01*
X216745267Y-72521190D01*
X216685744Y-72580714D01*
X216566696Y-72640238D01*
X216090506Y-72640238D01*
X173207857Y-70735000D02*
X173088809Y-70675476D01*
X172910238Y-70675476D01*
X172731666Y-70735000D01*
X172612619Y-70854047D01*
X172553095Y-70973095D01*
X172493571Y-71211190D01*
X172493571Y-71389761D01*
X172553095Y-71627857D01*
X172612619Y-71746904D01*
X172731666Y-71865952D01*
X172910238Y-71925476D01*
X173029285Y-71925476D01*
X173207857Y-71865952D01*
X173267380Y-71806428D01*
X173267380Y-71389761D01*
X173029285Y-71389761D01*
X173803095Y-71925476D02*
X173803095Y-70675476D01*
X174517380Y-71925476D01*
X174517380Y-70675476D01*
X175112619Y-71925476D02*
X175112619Y-70675476D01*
X175410238Y-70675476D01*
X175588809Y-70735000D01*
X175707857Y-70854047D01*
X175767380Y-70973095D01*
X175826904Y-71211190D01*
X175826904Y-71389761D01*
X175767380Y-71627857D01*
X175707857Y-71746904D01*
X175588809Y-71865952D01*
X175410238Y-71925476D01*
X175112619Y-71925476D01*
D12*
%TO.C,Y1*%
X191183809Y-61106190D02*
X191183809Y-61582380D01*
X190850476Y-60582380D02*
X191183809Y-61106190D01*
X191517142Y-60582380D01*
X192374285Y-61582380D02*
X191802857Y-61582380D01*
X192088571Y-61582380D02*
X192088571Y-60582380D01*
X191993333Y-60725238D01*
X191898095Y-60820476D01*
X191802857Y-60868095D01*
%TO.C,U1*%
X200194516Y-66262979D02*
X200766936Y-65690559D01*
X200800608Y-65589544D01*
X200800608Y-65522200D01*
X200766936Y-65421185D01*
X200632249Y-65286498D01*
X200531234Y-65252826D01*
X200463890Y-65252826D01*
X200362875Y-65286498D01*
X199790455Y-65858918D01*
X199790455Y-64444704D02*
X200194516Y-64848765D01*
X199992486Y-64646735D02*
X199285379Y-65353841D01*
X199453738Y-65320170D01*
X199588425Y-65320170D01*
X199689440Y-65353841D01*
%TO.C,R9*%
X198143333Y-58222380D02*
X197810000Y-57746190D01*
X197571904Y-58222380D02*
X197571904Y-57222380D01*
X197952857Y-57222380D01*
X198048095Y-57270000D01*
X198095714Y-57317619D01*
X198143333Y-57412857D01*
X198143333Y-57555714D01*
X198095714Y-57650952D01*
X198048095Y-57698571D01*
X197952857Y-57746190D01*
X197571904Y-57746190D01*
X198619523Y-58222380D02*
X198810000Y-58222380D01*
X198905238Y-58174761D01*
X198952857Y-58127142D01*
X199048095Y-57984285D01*
X199095714Y-57793809D01*
X199095714Y-57412857D01*
X199048095Y-57317619D01*
X199000476Y-57270000D01*
X198905238Y-57222380D01*
X198714761Y-57222380D01*
X198619523Y-57270000D01*
X198571904Y-57317619D01*
X198524285Y-57412857D01*
X198524285Y-57650952D01*
X198571904Y-57746190D01*
X198619523Y-57793809D01*
X198714761Y-57841428D01*
X198905238Y-57841428D01*
X199000476Y-57793809D01*
X199048095Y-57746190D01*
X199095714Y-57650952D01*
%TO.C,R8*%
X202623333Y-69102380D02*
X202290000Y-68626190D01*
X202051904Y-69102380D02*
X202051904Y-68102380D01*
X202432857Y-68102380D01*
X202528095Y-68150000D01*
X202575714Y-68197619D01*
X202623333Y-68292857D01*
X202623333Y-68435714D01*
X202575714Y-68530952D01*
X202528095Y-68578571D01*
X202432857Y-68626190D01*
X202051904Y-68626190D01*
X203194761Y-68530952D02*
X203099523Y-68483333D01*
X203051904Y-68435714D01*
X203004285Y-68340476D01*
X203004285Y-68292857D01*
X203051904Y-68197619D01*
X203099523Y-68150000D01*
X203194761Y-68102380D01*
X203385238Y-68102380D01*
X203480476Y-68150000D01*
X203528095Y-68197619D01*
X203575714Y-68292857D01*
X203575714Y-68340476D01*
X203528095Y-68435714D01*
X203480476Y-68483333D01*
X203385238Y-68530952D01*
X203194761Y-68530952D01*
X203099523Y-68578571D01*
X203051904Y-68626190D01*
X203004285Y-68721428D01*
X203004285Y-68911904D01*
X203051904Y-69007142D01*
X203099523Y-69054761D01*
X203194761Y-69102380D01*
X203385238Y-69102380D01*
X203480476Y-69054761D01*
X203528095Y-69007142D01*
X203575714Y-68911904D01*
X203575714Y-68721428D01*
X203528095Y-68626190D01*
X203480476Y-68578571D01*
X203385238Y-68530952D01*
%TO.C,C17*%
X198567142Y-74317142D02*
X198519523Y-74364761D01*
X198376666Y-74412380D01*
X198281428Y-74412380D01*
X198138571Y-74364761D01*
X198043333Y-74269523D01*
X197995714Y-74174285D01*
X197948095Y-73983809D01*
X197948095Y-73840952D01*
X197995714Y-73650476D01*
X198043333Y-73555238D01*
X198138571Y-73460000D01*
X198281428Y-73412380D01*
X198376666Y-73412380D01*
X198519523Y-73460000D01*
X198567142Y-73507619D01*
X199519523Y-74412380D02*
X198948095Y-74412380D01*
X199233809Y-74412380D02*
X199233809Y-73412380D01*
X199138571Y-73555238D01*
X199043333Y-73650476D01*
X198948095Y-73698095D01*
X199852857Y-73412380D02*
X200519523Y-73412380D01*
X200090952Y-74412380D01*
%TO.C,C16*%
X198707142Y-60207142D02*
X198659523Y-60254761D01*
X198516666Y-60302380D01*
X198421428Y-60302380D01*
X198278571Y-60254761D01*
X198183333Y-60159523D01*
X198135714Y-60064285D01*
X198088095Y-59873809D01*
X198088095Y-59730952D01*
X198135714Y-59540476D01*
X198183333Y-59445238D01*
X198278571Y-59350000D01*
X198421428Y-59302380D01*
X198516666Y-59302380D01*
X198659523Y-59350000D01*
X198707142Y-59397619D01*
X199659523Y-60302380D02*
X199088095Y-60302380D01*
X199373809Y-60302380D02*
X199373809Y-59302380D01*
X199278571Y-59445238D01*
X199183333Y-59540476D01*
X199088095Y-59588095D01*
X200516666Y-59302380D02*
X200326190Y-59302380D01*
X200230952Y-59350000D01*
X200183333Y-59397619D01*
X200088095Y-59540476D01*
X200040476Y-59730952D01*
X200040476Y-60111904D01*
X200088095Y-60207142D01*
X200135714Y-60254761D01*
X200230952Y-60302380D01*
X200421428Y-60302380D01*
X200516666Y-60254761D01*
X200564285Y-60207142D01*
X200611904Y-60111904D01*
X200611904Y-59873809D01*
X200564285Y-59778571D01*
X200516666Y-59730952D01*
X200421428Y-59683333D01*
X200230952Y-59683333D01*
X200135714Y-59730952D01*
X200088095Y-59778571D01*
X200040476Y-59873809D01*
%TO.C,C15*%
X204167142Y-51247142D02*
X204119523Y-51294761D01*
X203976666Y-51342380D01*
X203881428Y-51342380D01*
X203738571Y-51294761D01*
X203643333Y-51199523D01*
X203595714Y-51104285D01*
X203548095Y-50913809D01*
X203548095Y-50770952D01*
X203595714Y-50580476D01*
X203643333Y-50485238D01*
X203738571Y-50390000D01*
X203881428Y-50342380D01*
X203976666Y-50342380D01*
X204119523Y-50390000D01*
X204167142Y-50437619D01*
X205119523Y-51342380D02*
X204548095Y-51342380D01*
X204833809Y-51342380D02*
X204833809Y-50342380D01*
X204738571Y-50485238D01*
X204643333Y-50580476D01*
X204548095Y-50628095D01*
X206024285Y-50342380D02*
X205548095Y-50342380D01*
X205500476Y-50818571D01*
X205548095Y-50770952D01*
X205643333Y-50723333D01*
X205881428Y-50723333D01*
X205976666Y-50770952D01*
X206024285Y-50818571D01*
X206071904Y-50913809D01*
X206071904Y-51151904D01*
X206024285Y-51247142D01*
X205976666Y-51294761D01*
X205881428Y-51342380D01*
X205643333Y-51342380D01*
X205548095Y-51294761D01*
X205500476Y-51247142D01*
%TO.C,C14*%
X204907142Y-59347142D02*
X204859523Y-59394761D01*
X204716666Y-59442380D01*
X204621428Y-59442380D01*
X204478571Y-59394761D01*
X204383333Y-59299523D01*
X204335714Y-59204285D01*
X204288095Y-59013809D01*
X204288095Y-58870952D01*
X204335714Y-58680476D01*
X204383333Y-58585238D01*
X204478571Y-58490000D01*
X204621428Y-58442380D01*
X204716666Y-58442380D01*
X204859523Y-58490000D01*
X204907142Y-58537619D01*
X205859523Y-59442380D02*
X205288095Y-59442380D01*
X205573809Y-59442380D02*
X205573809Y-58442380D01*
X205478571Y-58585238D01*
X205383333Y-58680476D01*
X205288095Y-58728095D01*
X206716666Y-58775714D02*
X206716666Y-59442380D01*
X206478571Y-58394761D02*
X206240476Y-59109047D01*
X206859523Y-59109047D01*
%TO.C,C13*%
X195277142Y-63562857D02*
X195324761Y-63610476D01*
X195372380Y-63753333D01*
X195372380Y-63848571D01*
X195324761Y-63991428D01*
X195229523Y-64086666D01*
X195134285Y-64134285D01*
X194943809Y-64181904D01*
X194800952Y-64181904D01*
X194610476Y-64134285D01*
X194515238Y-64086666D01*
X194420000Y-63991428D01*
X194372380Y-63848571D01*
X194372380Y-63753333D01*
X194420000Y-63610476D01*
X194467619Y-63562857D01*
X195372380Y-62610476D02*
X195372380Y-63181904D01*
X195372380Y-62896190D02*
X194372380Y-62896190D01*
X194515238Y-62991428D01*
X194610476Y-63086666D01*
X194658095Y-63181904D01*
X194372380Y-62277142D02*
X194372380Y-61658095D01*
X194753333Y-61991428D01*
X194753333Y-61848571D01*
X194800952Y-61753333D01*
X194848571Y-61705714D01*
X194943809Y-61658095D01*
X195181904Y-61658095D01*
X195277142Y-61705714D01*
X195324761Y-61753333D01*
X195372380Y-61848571D01*
X195372380Y-62134285D01*
X195324761Y-62229523D01*
X195277142Y-62277142D01*
%TO.C,C12*%
X195447142Y-68492857D02*
X195494761Y-68540476D01*
X195542380Y-68683333D01*
X195542380Y-68778571D01*
X195494761Y-68921428D01*
X195399523Y-69016666D01*
X195304285Y-69064285D01*
X195113809Y-69111904D01*
X194970952Y-69111904D01*
X194780476Y-69064285D01*
X194685238Y-69016666D01*
X194590000Y-68921428D01*
X194542380Y-68778571D01*
X194542380Y-68683333D01*
X194590000Y-68540476D01*
X194637619Y-68492857D01*
X195542380Y-67540476D02*
X195542380Y-68111904D01*
X195542380Y-67826190D02*
X194542380Y-67826190D01*
X194685238Y-67921428D01*
X194780476Y-68016666D01*
X194828095Y-68111904D01*
X194637619Y-67159523D02*
X194590000Y-67111904D01*
X194542380Y-67016666D01*
X194542380Y-66778571D01*
X194590000Y-66683333D01*
X194637619Y-66635714D01*
X194732857Y-66588095D01*
X194828095Y-66588095D01*
X194970952Y-66635714D01*
X195542380Y-67207142D01*
X195542380Y-66588095D01*
%TO.C,C11*%
X198557142Y-51167142D02*
X198509523Y-51214761D01*
X198366666Y-51262380D01*
X198271428Y-51262380D01*
X198128571Y-51214761D01*
X198033333Y-51119523D01*
X197985714Y-51024285D01*
X197938095Y-50833809D01*
X197938095Y-50690952D01*
X197985714Y-50500476D01*
X198033333Y-50405238D01*
X198128571Y-50310000D01*
X198271428Y-50262380D01*
X198366666Y-50262380D01*
X198509523Y-50310000D01*
X198557142Y-50357619D01*
X199509523Y-51262380D02*
X198938095Y-51262380D01*
X199223809Y-51262380D02*
X199223809Y-50262380D01*
X199128571Y-50405238D01*
X199033333Y-50500476D01*
X198938095Y-50548095D01*
X200461904Y-51262380D02*
X199890476Y-51262380D01*
X200176190Y-51262380D02*
X200176190Y-50262380D01*
X200080952Y-50405238D01*
X199985714Y-50500476D01*
X199890476Y-50548095D01*
%TO.C,C10*%
X204267142Y-74297142D02*
X204219523Y-74344761D01*
X204076666Y-74392380D01*
X203981428Y-74392380D01*
X203838571Y-74344761D01*
X203743333Y-74249523D01*
X203695714Y-74154285D01*
X203648095Y-73963809D01*
X203648095Y-73820952D01*
X203695714Y-73630476D01*
X203743333Y-73535238D01*
X203838571Y-73440000D01*
X203981428Y-73392380D01*
X204076666Y-73392380D01*
X204219523Y-73440000D01*
X204267142Y-73487619D01*
X205219523Y-74392380D02*
X204648095Y-74392380D01*
X204933809Y-74392380D02*
X204933809Y-73392380D01*
X204838571Y-73535238D01*
X204743333Y-73630476D01*
X204648095Y-73678095D01*
X205838571Y-73392380D02*
X205933809Y-73392380D01*
X206029047Y-73440000D01*
X206076666Y-73487619D01*
X206124285Y-73582857D01*
X206171904Y-73773333D01*
X206171904Y-74011428D01*
X206124285Y-74201904D01*
X206076666Y-74297142D01*
X206029047Y-74344761D01*
X205933809Y-74392380D01*
X205838571Y-74392380D01*
X205743333Y-74344761D01*
X205695714Y-74297142D01*
X205648095Y-74201904D01*
X205600476Y-74011428D01*
X205600476Y-73773333D01*
X205648095Y-73582857D01*
X205695714Y-73487619D01*
X205743333Y-73440000D01*
X205838571Y-73392380D01*
%TO.C,C9*%
X202033333Y-57317142D02*
X201985714Y-57364761D01*
X201842857Y-57412380D01*
X201747619Y-57412380D01*
X201604761Y-57364761D01*
X201509523Y-57269523D01*
X201461904Y-57174285D01*
X201414285Y-56983809D01*
X201414285Y-56840952D01*
X201461904Y-56650476D01*
X201509523Y-56555238D01*
X201604761Y-56460000D01*
X201747619Y-56412380D01*
X201842857Y-56412380D01*
X201985714Y-56460000D01*
X202033333Y-56507619D01*
X202509523Y-57412380D02*
X202700000Y-57412380D01*
X202795238Y-57364761D01*
X202842857Y-57317142D01*
X202938095Y-57174285D01*
X202985714Y-56983809D01*
X202985714Y-56602857D01*
X202938095Y-56507619D01*
X202890476Y-56460000D01*
X202795238Y-56412380D01*
X202604761Y-56412380D01*
X202509523Y-56460000D01*
X202461904Y-56507619D01*
X202414285Y-56602857D01*
X202414285Y-56840952D01*
X202461904Y-56936190D01*
X202509523Y-56983809D01*
X202604761Y-57031428D01*
X202795238Y-57031428D01*
X202890476Y-56983809D01*
X202938095Y-56936190D01*
X202985714Y-56840952D01*
%TO.C,C8*%
X204923333Y-66567142D02*
X204875714Y-66614761D01*
X204732857Y-66662380D01*
X204637619Y-66662380D01*
X204494761Y-66614761D01*
X204399523Y-66519523D01*
X204351904Y-66424285D01*
X204304285Y-66233809D01*
X204304285Y-66090952D01*
X204351904Y-65900476D01*
X204399523Y-65805238D01*
X204494761Y-65710000D01*
X204637619Y-65662380D01*
X204732857Y-65662380D01*
X204875714Y-65710000D01*
X204923333Y-65757619D01*
X205494761Y-66090952D02*
X205399523Y-66043333D01*
X205351904Y-65995714D01*
X205304285Y-65900476D01*
X205304285Y-65852857D01*
X205351904Y-65757619D01*
X205399523Y-65710000D01*
X205494761Y-65662380D01*
X205685238Y-65662380D01*
X205780476Y-65710000D01*
X205828095Y-65757619D01*
X205875714Y-65852857D01*
X205875714Y-65900476D01*
X205828095Y-65995714D01*
X205780476Y-66043333D01*
X205685238Y-66090952D01*
X205494761Y-66090952D01*
X205399523Y-66138571D01*
X205351904Y-66186190D01*
X205304285Y-66281428D01*
X205304285Y-66471904D01*
X205351904Y-66567142D01*
X205399523Y-66614761D01*
X205494761Y-66662380D01*
X205685238Y-66662380D01*
X205780476Y-66614761D01*
X205828095Y-66567142D01*
X205875714Y-66471904D01*
X205875714Y-66281428D01*
X205828095Y-66186190D01*
X205780476Y-66138571D01*
X205685238Y-66090952D01*
%TO.C,C7*%
X202963333Y-67837142D02*
X202915714Y-67884761D01*
X202772857Y-67932380D01*
X202677619Y-67932380D01*
X202534761Y-67884761D01*
X202439523Y-67789523D01*
X202391904Y-67694285D01*
X202344285Y-67503809D01*
X202344285Y-67360952D01*
X202391904Y-67170476D01*
X202439523Y-67075238D01*
X202534761Y-66980000D01*
X202677619Y-66932380D01*
X202772857Y-66932380D01*
X202915714Y-66980000D01*
X202963333Y-67027619D01*
X203296666Y-66932380D02*
X203963333Y-66932380D01*
X203534761Y-67932380D01*
%TO.C,INPUT-B-1*%
X211977142Y-50712380D02*
X211977142Y-49712380D01*
X212453333Y-50712380D02*
X212453333Y-49712380D01*
X213024761Y-50712380D01*
X213024761Y-49712380D01*
X213500952Y-50712380D02*
X213500952Y-49712380D01*
X213881904Y-49712380D01*
X213977142Y-49760000D01*
X214024761Y-49807619D01*
X214072380Y-49902857D01*
X214072380Y-50045714D01*
X214024761Y-50140952D01*
X213977142Y-50188571D01*
X213881904Y-50236190D01*
X213500952Y-50236190D01*
X214500952Y-49712380D02*
X214500952Y-50521904D01*
X214548571Y-50617142D01*
X214596190Y-50664761D01*
X214691428Y-50712380D01*
X214881904Y-50712380D01*
X214977142Y-50664761D01*
X215024761Y-50617142D01*
X215072380Y-50521904D01*
X215072380Y-49712380D01*
X215405714Y-49712380D02*
X215977142Y-49712380D01*
X215691428Y-50712380D02*
X215691428Y-49712380D01*
X216310476Y-50331428D02*
X217072380Y-50331428D01*
X217881904Y-50188571D02*
X218024761Y-50236190D01*
X218072380Y-50283809D01*
X218120000Y-50379047D01*
X218120000Y-50521904D01*
X218072380Y-50617142D01*
X218024761Y-50664761D01*
X217929523Y-50712380D01*
X217548571Y-50712380D01*
X217548571Y-49712380D01*
X217881904Y-49712380D01*
X217977142Y-49760000D01*
X218024761Y-49807619D01*
X218072380Y-49902857D01*
X218072380Y-49998095D01*
X218024761Y-50093333D01*
X217977142Y-50140952D01*
X217881904Y-50188571D01*
X217548571Y-50188571D01*
X218548571Y-50331428D02*
X219310476Y-50331428D01*
X220310476Y-50712380D02*
X219739047Y-50712380D01*
X220024761Y-50712380D02*
X220024761Y-49712380D01*
X219929523Y-49855238D01*
X219834285Y-49950476D01*
X219739047Y-49998095D01*
%TO.C,JP3*%
X208684553Y-72782380D02*
X208684553Y-73496666D01*
X208636934Y-73639523D01*
X208541696Y-73734761D01*
X208398839Y-73782380D01*
X208303601Y-73782380D01*
X209160744Y-73782380D02*
X209160744Y-72782380D01*
X209541696Y-72782380D01*
X209636934Y-72830000D01*
X209684553Y-72877619D01*
X209732172Y-72972857D01*
X209732172Y-73115714D01*
X209684553Y-73210952D01*
X209636934Y-73258571D01*
X209541696Y-73306190D01*
X209160744Y-73306190D01*
X210065506Y-72782380D02*
X210684553Y-72782380D01*
X210351220Y-73163333D01*
X210494077Y-73163333D01*
X210589315Y-73210952D01*
X210636934Y-73258571D01*
X210684553Y-73353809D01*
X210684553Y-73591904D01*
X210636934Y-73687142D01*
X210589315Y-73734761D01*
X210494077Y-73782380D01*
X210208363Y-73782380D01*
X210113125Y-73734761D01*
X210065506Y-73687142D01*
%TO.C,R10*%
X209625029Y-55742380D02*
X209291696Y-55266190D01*
X209053601Y-55742380D02*
X209053601Y-54742380D01*
X209434553Y-54742380D01*
X209529791Y-54790000D01*
X209577410Y-54837619D01*
X209625029Y-54932857D01*
X209625029Y-55075714D01*
X209577410Y-55170952D01*
X209529791Y-55218571D01*
X209434553Y-55266190D01*
X209053601Y-55266190D01*
X210577410Y-55742380D02*
X210005982Y-55742380D01*
X210291696Y-55742380D02*
X210291696Y-54742380D01*
X210196458Y-54885238D01*
X210101220Y-54980476D01*
X210005982Y-55028095D01*
X211196458Y-54742380D02*
X211291696Y-54742380D01*
X211386934Y-54790000D01*
X211434553Y-54837619D01*
X211482172Y-54932857D01*
X211529791Y-55123333D01*
X211529791Y-55361428D01*
X211482172Y-55551904D01*
X211434553Y-55647142D01*
X211386934Y-55694761D01*
X211291696Y-55742380D01*
X211196458Y-55742380D01*
X211101220Y-55694761D01*
X211053601Y-55647142D01*
X211005982Y-55551904D01*
X210958363Y-55361428D01*
X210958363Y-55123333D01*
X211005982Y-54932857D01*
X211053601Y-54837619D01*
X211101220Y-54790000D01*
X211196458Y-54742380D01*
%TO.C,R7*%
X209721220Y-56422380D02*
X209387887Y-55946190D01*
X209149791Y-56422380D02*
X209149791Y-55422380D01*
X209530744Y-55422380D01*
X209625982Y-55470000D01*
X209673601Y-55517619D01*
X209721220Y-55612857D01*
X209721220Y-55755714D01*
X209673601Y-55850952D01*
X209625982Y-55898571D01*
X209530744Y-55946190D01*
X209149791Y-55946190D01*
X210054553Y-55422380D02*
X210721220Y-55422380D01*
X210292648Y-56422380D01*
%TO.C,R6*%
X214651220Y-67942380D02*
X214317887Y-67466190D01*
X214079791Y-67942380D02*
X214079791Y-66942380D01*
X214460744Y-66942380D01*
X214555982Y-66990000D01*
X214603601Y-67037619D01*
X214651220Y-67132857D01*
X214651220Y-67275714D01*
X214603601Y-67370952D01*
X214555982Y-67418571D01*
X214460744Y-67466190D01*
X214079791Y-67466190D01*
X215508363Y-66942380D02*
X215317887Y-66942380D01*
X215222648Y-66990000D01*
X215175029Y-67037619D01*
X215079791Y-67180476D01*
X215032172Y-67370952D01*
X215032172Y-67751904D01*
X215079791Y-67847142D01*
X215127410Y-67894761D01*
X215222648Y-67942380D01*
X215413125Y-67942380D01*
X215508363Y-67894761D01*
X215555982Y-67847142D01*
X215603601Y-67751904D01*
X215603601Y-67513809D01*
X215555982Y-67418571D01*
X215508363Y-67370952D01*
X215413125Y-67323333D01*
X215222648Y-67323333D01*
X215127410Y-67370952D01*
X215079791Y-67418571D01*
X215032172Y-67513809D01*
%TO.C,R1*%
X214811220Y-70822380D02*
X214477887Y-70346190D01*
X214239791Y-70822380D02*
X214239791Y-69822380D01*
X214620744Y-69822380D01*
X214715982Y-69870000D01*
X214763601Y-69917619D01*
X214811220Y-70012857D01*
X214811220Y-70155714D01*
X214763601Y-70250952D01*
X214715982Y-70298571D01*
X214620744Y-70346190D01*
X214239791Y-70346190D01*
X215763601Y-70822380D02*
X215192172Y-70822380D01*
X215477887Y-70822380D02*
X215477887Y-69822380D01*
X215382648Y-69965238D01*
X215287410Y-70060476D01*
X215192172Y-70108095D01*
%TO.C,JP8*%
X208634553Y-50592380D02*
X208634553Y-51306666D01*
X208586934Y-51449523D01*
X208491696Y-51544761D01*
X208348839Y-51592380D01*
X208253601Y-51592380D01*
X209110744Y-51592380D02*
X209110744Y-50592380D01*
X209491696Y-50592380D01*
X209586934Y-50640000D01*
X209634553Y-50687619D01*
X209682172Y-50782857D01*
X209682172Y-50925714D01*
X209634553Y-51020952D01*
X209586934Y-51068571D01*
X209491696Y-51116190D01*
X209110744Y-51116190D01*
X210253601Y-51020952D02*
X210158363Y-50973333D01*
X210110744Y-50925714D01*
X210063125Y-50830476D01*
X210063125Y-50782857D01*
X210110744Y-50687619D01*
X210158363Y-50640000D01*
X210253601Y-50592380D01*
X210444077Y-50592380D01*
X210539315Y-50640000D01*
X210586934Y-50687619D01*
X210634553Y-50782857D01*
X210634553Y-50830476D01*
X210586934Y-50925714D01*
X210539315Y-50973333D01*
X210444077Y-51020952D01*
X210253601Y-51020952D01*
X210158363Y-51068571D01*
X210110744Y-51116190D01*
X210063125Y-51211428D01*
X210063125Y-51401904D01*
X210110744Y-51497142D01*
X210158363Y-51544761D01*
X210253601Y-51592380D01*
X210444077Y-51592380D01*
X210539315Y-51544761D01*
X210586934Y-51497142D01*
X210634553Y-51401904D01*
X210634553Y-51211428D01*
X210586934Y-51116190D01*
X210539315Y-51068571D01*
X210444077Y-51020952D01*
%TO.C,JP7*%
X208654553Y-59562380D02*
X208654553Y-60276666D01*
X208606934Y-60419523D01*
X208511696Y-60514761D01*
X208368839Y-60562380D01*
X208273601Y-60562380D01*
X209130744Y-60562380D02*
X209130744Y-59562380D01*
X209511696Y-59562380D01*
X209606934Y-59610000D01*
X209654553Y-59657619D01*
X209702172Y-59752857D01*
X209702172Y-59895714D01*
X209654553Y-59990952D01*
X209606934Y-60038571D01*
X209511696Y-60086190D01*
X209130744Y-60086190D01*
X210035506Y-59562380D02*
X210702172Y-59562380D01*
X210273601Y-60562380D01*
%TO.C,JP6*%
X212014553Y-50612380D02*
X212014553Y-51326666D01*
X211966934Y-51469523D01*
X211871696Y-51564761D01*
X211728839Y-51612380D01*
X211633601Y-51612380D01*
X212490744Y-51612380D02*
X212490744Y-50612380D01*
X212871696Y-50612380D01*
X212966934Y-50660000D01*
X213014553Y-50707619D01*
X213062172Y-50802857D01*
X213062172Y-50945714D01*
X213014553Y-51040952D01*
X212966934Y-51088571D01*
X212871696Y-51136190D01*
X212490744Y-51136190D01*
X213919315Y-50612380D02*
X213728839Y-50612380D01*
X213633601Y-50660000D01*
X213585982Y-50707619D01*
X213490744Y-50850476D01*
X213443125Y-51040952D01*
X213443125Y-51421904D01*
X213490744Y-51517142D01*
X213538363Y-51564761D01*
X213633601Y-51612380D01*
X213824077Y-51612380D01*
X213919315Y-51564761D01*
X213966934Y-51517142D01*
X214014553Y-51421904D01*
X214014553Y-51183809D01*
X213966934Y-51088571D01*
X213919315Y-51040952D01*
X213824077Y-50993333D01*
X213633601Y-50993333D01*
X213538363Y-51040952D01*
X213490744Y-51088571D01*
X213443125Y-51183809D01*
%TO.C,JP5*%
X212024553Y-59572380D02*
X212024553Y-60286666D01*
X211976934Y-60429523D01*
X211881696Y-60524761D01*
X211738839Y-60572380D01*
X211643601Y-60572380D01*
X212500744Y-60572380D02*
X212500744Y-59572380D01*
X212881696Y-59572380D01*
X212976934Y-59620000D01*
X213024553Y-59667619D01*
X213072172Y-59762857D01*
X213072172Y-59905714D01*
X213024553Y-60000952D01*
X212976934Y-60048571D01*
X212881696Y-60096190D01*
X212500744Y-60096190D01*
X213976934Y-59572380D02*
X213500744Y-59572380D01*
X213453125Y-60048571D01*
X213500744Y-60000952D01*
X213595982Y-59953333D01*
X213834077Y-59953333D01*
X213929315Y-60000952D01*
X213976934Y-60048571D01*
X214024553Y-60143809D01*
X214024553Y-60381904D01*
X213976934Y-60477142D01*
X213929315Y-60524761D01*
X213834077Y-60572380D01*
X213595982Y-60572380D01*
X213500744Y-60524761D01*
X213453125Y-60477142D01*
%TO.C,JP4*%
X208644553Y-63932380D02*
X208644553Y-64646666D01*
X208596934Y-64789523D01*
X208501696Y-64884761D01*
X208358839Y-64932380D01*
X208263601Y-64932380D01*
X209120744Y-64932380D02*
X209120744Y-63932380D01*
X209501696Y-63932380D01*
X209596934Y-63980000D01*
X209644553Y-64027619D01*
X209692172Y-64122857D01*
X209692172Y-64265714D01*
X209644553Y-64360952D01*
X209596934Y-64408571D01*
X209501696Y-64456190D01*
X209120744Y-64456190D01*
X210549315Y-64265714D02*
X210549315Y-64932380D01*
X210311220Y-63884761D02*
X210073125Y-64599047D01*
X210692172Y-64599047D01*
%TO.C,JP2*%
X212024553Y-63822380D02*
X212024553Y-64536666D01*
X211976934Y-64679523D01*
X211881696Y-64774761D01*
X211738839Y-64822380D01*
X211643601Y-64822380D01*
X212500744Y-64822380D02*
X212500744Y-63822380D01*
X212881696Y-63822380D01*
X212976934Y-63870000D01*
X213024553Y-63917619D01*
X213072172Y-64012857D01*
X213072172Y-64155714D01*
X213024553Y-64250952D01*
X212976934Y-64298571D01*
X212881696Y-64346190D01*
X212500744Y-64346190D01*
X213453125Y-63917619D02*
X213500744Y-63870000D01*
X213595982Y-63822380D01*
X213834077Y-63822380D01*
X213929315Y-63870000D01*
X213976934Y-63917619D01*
X214024553Y-64012857D01*
X214024553Y-64108095D01*
X213976934Y-64250952D01*
X213405506Y-64822380D01*
X214024553Y-64822380D01*
%TO.C,JP1*%
X212024553Y-72782380D02*
X212024553Y-73496666D01*
X211976934Y-73639523D01*
X211881696Y-73734761D01*
X211738839Y-73782380D01*
X211643601Y-73782380D01*
X212500744Y-73782380D02*
X212500744Y-72782380D01*
X212881696Y-72782380D01*
X212976934Y-72830000D01*
X213024553Y-72877619D01*
X213072172Y-72972857D01*
X213072172Y-73115714D01*
X213024553Y-73210952D01*
X212976934Y-73258571D01*
X212881696Y-73306190D01*
X212500744Y-73306190D01*
X214024553Y-73782380D02*
X213453125Y-73782380D01*
X213738839Y-73782380D02*
X213738839Y-72782380D01*
X213643601Y-72925238D01*
X213548363Y-73020476D01*
X213453125Y-73068095D01*
%TO.C,C19*%
X208245029Y-54962857D02*
X208292648Y-55010476D01*
X208340267Y-55153333D01*
X208340267Y-55248571D01*
X208292648Y-55391428D01*
X208197410Y-55486666D01*
X208102172Y-55534285D01*
X207911696Y-55581904D01*
X207768839Y-55581904D01*
X207578363Y-55534285D01*
X207483125Y-55486666D01*
X207387887Y-55391428D01*
X207340267Y-55248571D01*
X207340267Y-55153333D01*
X207387887Y-55010476D01*
X207435506Y-54962857D01*
X208340267Y-54010476D02*
X208340267Y-54581904D01*
X208340267Y-54296190D02*
X207340267Y-54296190D01*
X207483125Y-54391428D01*
X207578363Y-54486666D01*
X207625982Y-54581904D01*
X208340267Y-53534285D02*
X208340267Y-53343809D01*
X208292648Y-53248571D01*
X208245029Y-53200952D01*
X208102172Y-53105714D01*
X207911696Y-53058095D01*
X207530744Y-53058095D01*
X207435506Y-53105714D01*
X207387887Y-53153333D01*
X207340267Y-53248571D01*
X207340267Y-53439047D01*
X207387887Y-53534285D01*
X207435506Y-53581904D01*
X207530744Y-53629523D01*
X207768839Y-53629523D01*
X207864077Y-53581904D01*
X207911696Y-53534285D01*
X207959315Y-53439047D01*
X207959315Y-53248571D01*
X207911696Y-53153333D01*
X207864077Y-53105714D01*
X207768839Y-53058095D01*
%TO.C,C18*%
X208235029Y-57542857D02*
X208282648Y-57590476D01*
X208330267Y-57733333D01*
X208330267Y-57828571D01*
X208282648Y-57971428D01*
X208187410Y-58066666D01*
X208092172Y-58114285D01*
X207901696Y-58161904D01*
X207758839Y-58161904D01*
X207568363Y-58114285D01*
X207473125Y-58066666D01*
X207377887Y-57971428D01*
X207330267Y-57828571D01*
X207330267Y-57733333D01*
X207377887Y-57590476D01*
X207425506Y-57542857D01*
X208330267Y-56590476D02*
X208330267Y-57161904D01*
X208330267Y-56876190D02*
X207330267Y-56876190D01*
X207473125Y-56971428D01*
X207568363Y-57066666D01*
X207615982Y-57161904D01*
X207758839Y-56019047D02*
X207711220Y-56114285D01*
X207663601Y-56161904D01*
X207568363Y-56209523D01*
X207520744Y-56209523D01*
X207425506Y-56161904D01*
X207377887Y-56114285D01*
X207330267Y-56019047D01*
X207330267Y-55828571D01*
X207377887Y-55733333D01*
X207425506Y-55685714D01*
X207520744Y-55638095D01*
X207568363Y-55638095D01*
X207663601Y-55685714D01*
X207711220Y-55733333D01*
X207758839Y-55828571D01*
X207758839Y-56019047D01*
X207806458Y-56114285D01*
X207854077Y-56161904D01*
X207949315Y-56209523D01*
X208139791Y-56209523D01*
X208235029Y-56161904D01*
X208282648Y-56114285D01*
X208330267Y-56019047D01*
X208330267Y-55828571D01*
X208282648Y-55733333D01*
X208235029Y-55685714D01*
X208139791Y-55638095D01*
X207949315Y-55638095D01*
X207854077Y-55685714D01*
X207806458Y-55733333D01*
X207758839Y-55828571D01*
%TO.C,C6*%
X211845029Y-67956666D02*
X211892648Y-68004285D01*
X211940267Y-68147142D01*
X211940267Y-68242380D01*
X211892648Y-68385238D01*
X211797410Y-68480476D01*
X211702172Y-68528095D01*
X211511696Y-68575714D01*
X211368839Y-68575714D01*
X211178363Y-68528095D01*
X211083125Y-68480476D01*
X210987887Y-68385238D01*
X210940267Y-68242380D01*
X210940267Y-68147142D01*
X210987887Y-68004285D01*
X211035506Y-67956666D01*
X210940267Y-67099523D02*
X210940267Y-67290000D01*
X210987887Y-67385238D01*
X211035506Y-67432857D01*
X211178363Y-67528095D01*
X211368839Y-67575714D01*
X211749791Y-67575714D01*
X211845029Y-67528095D01*
X211892648Y-67480476D01*
X211940267Y-67385238D01*
X211940267Y-67194761D01*
X211892648Y-67099523D01*
X211845029Y-67051904D01*
X211749791Y-67004285D01*
X211511696Y-67004285D01*
X211416458Y-67051904D01*
X211368839Y-67099523D01*
X211321220Y-67194761D01*
X211321220Y-67385238D01*
X211368839Y-67480476D01*
X211416458Y-67528095D01*
X211511696Y-67575714D01*
%TO.C,C5*%
X211855029Y-70016666D02*
X211902648Y-70064285D01*
X211950267Y-70207142D01*
X211950267Y-70302380D01*
X211902648Y-70445238D01*
X211807410Y-70540476D01*
X211712172Y-70588095D01*
X211521696Y-70635714D01*
X211378839Y-70635714D01*
X211188363Y-70588095D01*
X211093125Y-70540476D01*
X210997887Y-70445238D01*
X210950267Y-70302380D01*
X210950267Y-70207142D01*
X210997887Y-70064285D01*
X211045506Y-70016666D01*
X210950267Y-69111904D02*
X210950267Y-69588095D01*
X211426458Y-69635714D01*
X211378839Y-69588095D01*
X211331220Y-69492857D01*
X211331220Y-69254761D01*
X211378839Y-69159523D01*
X211426458Y-69111904D01*
X211521696Y-69064285D01*
X211759791Y-69064285D01*
X211855029Y-69111904D01*
X211902648Y-69159523D01*
X211950267Y-69254761D01*
X211950267Y-69492857D01*
X211902648Y-69588095D01*
X211855029Y-69635714D01*
%TO.C,J1*%
X194472380Y-51333333D02*
X195186666Y-51333333D01*
X195329523Y-51380952D01*
X195424761Y-51476190D01*
X195472380Y-51619047D01*
X195472380Y-51714285D01*
X195472380Y-50333333D02*
X195472380Y-50904761D01*
X195472380Y-50619047D02*
X194472380Y-50619047D01*
X194615238Y-50714285D01*
X194710476Y-50809523D01*
X194758095Y-50904761D01*
%TO.C,J7*%
X182316666Y-73072380D02*
X182316666Y-73786666D01*
X182269047Y-73929523D01*
X182173809Y-74024761D01*
X182030952Y-74072380D01*
X181935714Y-74072380D01*
X182697619Y-73072380D02*
X183364285Y-73072380D01*
X182935714Y-74072380D01*
%TO.C,INPUT-B-2*%
X220060267Y-59942857D02*
X219060267Y-59942857D01*
X220060267Y-59466666D02*
X219060267Y-59466666D01*
X220060267Y-58895238D01*
X219060267Y-58895238D01*
X220060267Y-58419047D02*
X219060267Y-58419047D01*
X219060267Y-58038095D01*
X219107887Y-57942857D01*
X219155506Y-57895238D01*
X219250744Y-57847619D01*
X219393601Y-57847619D01*
X219488839Y-57895238D01*
X219536458Y-57942857D01*
X219584077Y-58038095D01*
X219584077Y-58419047D01*
X219060267Y-57419047D02*
X219869791Y-57419047D01*
X219965029Y-57371428D01*
X220012648Y-57323809D01*
X220060267Y-57228571D01*
X220060267Y-57038095D01*
X220012648Y-56942857D01*
X219965029Y-56895238D01*
X219869791Y-56847619D01*
X219060267Y-56847619D01*
X219060267Y-56514285D02*
X219060267Y-55942857D01*
X220060267Y-56228571D02*
X219060267Y-56228571D01*
X219679315Y-55609523D02*
X219679315Y-54847619D01*
X219536458Y-54038095D02*
X219584077Y-53895238D01*
X219631696Y-53847619D01*
X219726934Y-53800000D01*
X219869791Y-53800000D01*
X219965029Y-53847619D01*
X220012648Y-53895238D01*
X220060267Y-53990476D01*
X220060267Y-54371428D01*
X219060267Y-54371428D01*
X219060267Y-54038095D01*
X219107887Y-53942857D01*
X219155506Y-53895238D01*
X219250744Y-53847619D01*
X219345982Y-53847619D01*
X219441220Y-53895238D01*
X219488839Y-53942857D01*
X219536458Y-54038095D01*
X219536458Y-54371428D01*
X219679315Y-53371428D02*
X219679315Y-52609523D01*
X219155506Y-52180952D02*
X219107887Y-52133333D01*
X219060267Y-52038095D01*
X219060267Y-51800000D01*
X219107887Y-51704761D01*
X219155506Y-51657142D01*
X219250744Y-51609523D01*
X219345982Y-51609523D01*
X219488839Y-51657142D01*
X220060267Y-52228571D01*
X220060267Y-51609523D01*
%TO.C,R3*%
X209861220Y-68952380D02*
X209527887Y-68476190D01*
X209289791Y-68952380D02*
X209289791Y-67952380D01*
X209670744Y-67952380D01*
X209765982Y-68000000D01*
X209813601Y-68047619D01*
X209861220Y-68142857D01*
X209861220Y-68285714D01*
X209813601Y-68380952D01*
X209765982Y-68428571D01*
X209670744Y-68476190D01*
X209289791Y-68476190D01*
X210194553Y-67952380D02*
X210813601Y-67952380D01*
X210480267Y-68333333D01*
X210623125Y-68333333D01*
X210718363Y-68380952D01*
X210765982Y-68428571D01*
X210813601Y-68523809D01*
X210813601Y-68761904D01*
X210765982Y-68857142D01*
X210718363Y-68904761D01*
X210623125Y-68952380D01*
X210337410Y-68952380D01*
X210242172Y-68904761D01*
X210194553Y-68857142D01*
%TO.C,C2*%
X208195029Y-67876666D02*
X208242648Y-67924285D01*
X208290267Y-68067142D01*
X208290267Y-68162380D01*
X208242648Y-68305238D01*
X208147410Y-68400476D01*
X208052172Y-68448095D01*
X207861696Y-68495714D01*
X207718839Y-68495714D01*
X207528363Y-68448095D01*
X207433125Y-68400476D01*
X207337887Y-68305238D01*
X207290267Y-68162380D01*
X207290267Y-68067142D01*
X207337887Y-67924285D01*
X207385506Y-67876666D01*
X207385506Y-67495714D02*
X207337887Y-67448095D01*
X207290267Y-67352857D01*
X207290267Y-67114761D01*
X207337887Y-67019523D01*
X207385506Y-66971904D01*
X207480744Y-66924285D01*
X207575982Y-66924285D01*
X207718839Y-66971904D01*
X208290267Y-67543333D01*
X208290267Y-66924285D01*
%TO.C,C1*%
X208215029Y-70156666D02*
X208262648Y-70204285D01*
X208310267Y-70347142D01*
X208310267Y-70442380D01*
X208262648Y-70585238D01*
X208167410Y-70680476D01*
X208072172Y-70728095D01*
X207881696Y-70775714D01*
X207738839Y-70775714D01*
X207548363Y-70728095D01*
X207453125Y-70680476D01*
X207357887Y-70585238D01*
X207310267Y-70442380D01*
X207310267Y-70347142D01*
X207357887Y-70204285D01*
X207405506Y-70156666D01*
X208310267Y-69204285D02*
X208310267Y-69775714D01*
X208310267Y-69490000D02*
X207310267Y-69490000D01*
X207453125Y-69585238D01*
X207548363Y-69680476D01*
X207595982Y-69775714D01*
%TO.C,R14*%
X179412380Y-68746607D02*
X178936190Y-69079940D01*
X179412380Y-69318035D02*
X178412380Y-69318035D01*
X178412380Y-68937083D01*
X178460000Y-68841845D01*
X178507619Y-68794226D01*
X178602857Y-68746607D01*
X178745714Y-68746607D01*
X178840952Y-68794226D01*
X178888571Y-68841845D01*
X178936190Y-68937083D01*
X178936190Y-69318035D01*
X179412380Y-67794226D02*
X179412380Y-68365654D01*
X179412380Y-68079940D02*
X178412380Y-68079940D01*
X178555238Y-68175178D01*
X178650476Y-68270416D01*
X178698095Y-68365654D01*
X178745714Y-66937083D02*
X179412380Y-66937083D01*
X178364761Y-67175178D02*
X179079047Y-67413273D01*
X179079047Y-66794226D01*
%TO.C,R5*%
X214681220Y-54602380D02*
X214347887Y-54126190D01*
X214109791Y-54602380D02*
X214109791Y-53602380D01*
X214490744Y-53602380D01*
X214585982Y-53650000D01*
X214633601Y-53697619D01*
X214681220Y-53792857D01*
X214681220Y-53935714D01*
X214633601Y-54030952D01*
X214585982Y-54078571D01*
X214490744Y-54126190D01*
X214109791Y-54126190D01*
X215585982Y-53602380D02*
X215109791Y-53602380D01*
X215062172Y-54078571D01*
X215109791Y-54030952D01*
X215205029Y-53983333D01*
X215443125Y-53983333D01*
X215538363Y-54030952D01*
X215585982Y-54078571D01*
X215633601Y-54173809D01*
X215633601Y-54411904D01*
X215585982Y-54507142D01*
X215538363Y-54554761D01*
X215443125Y-54602380D01*
X215205029Y-54602380D01*
X215109791Y-54554761D01*
X215062172Y-54507142D01*
%TO.C,R4*%
X214621220Y-57632380D02*
X214287887Y-57156190D01*
X214049791Y-57632380D02*
X214049791Y-56632380D01*
X214430744Y-56632380D01*
X214525982Y-56680000D01*
X214573601Y-56727619D01*
X214621220Y-56822857D01*
X214621220Y-56965714D01*
X214573601Y-57060952D01*
X214525982Y-57108571D01*
X214430744Y-57156190D01*
X214049791Y-57156190D01*
X215478363Y-56965714D02*
X215478363Y-57632380D01*
X215240267Y-56584761D02*
X215002172Y-57299047D01*
X215621220Y-57299047D01*
%TO.C,D3*%
X179322380Y-71981845D02*
X178322380Y-71981845D01*
X178322380Y-71743750D01*
X178370000Y-71600892D01*
X178465238Y-71505654D01*
X178560476Y-71458035D01*
X178750952Y-71410416D01*
X178893809Y-71410416D01*
X179084285Y-71458035D01*
X179179523Y-71505654D01*
X179274761Y-71600892D01*
X179322380Y-71743750D01*
X179322380Y-71981845D01*
X178322380Y-71077083D02*
X178322380Y-70458035D01*
X178703333Y-70791369D01*
X178703333Y-70648511D01*
X178750952Y-70553273D01*
X178798571Y-70505654D01*
X178893809Y-70458035D01*
X179131904Y-70458035D01*
X179227142Y-70505654D01*
X179274761Y-70553273D01*
X179322380Y-70648511D01*
X179322380Y-70934226D01*
X179274761Y-71029464D01*
X179227142Y-71077083D01*
%TO.C,C3*%
X212991220Y-56327142D02*
X212943601Y-56374761D01*
X212800744Y-56422380D01*
X212705506Y-56422380D01*
X212562648Y-56374761D01*
X212467410Y-56279523D01*
X212419791Y-56184285D01*
X212372172Y-55993809D01*
X212372172Y-55850952D01*
X212419791Y-55660476D01*
X212467410Y-55565238D01*
X212562648Y-55470000D01*
X212705506Y-55422380D01*
X212800744Y-55422380D01*
X212943601Y-55470000D01*
X212991220Y-55517619D01*
X213324553Y-55422380D02*
X213943601Y-55422380D01*
X213610267Y-55803333D01*
X213753125Y-55803333D01*
X213848363Y-55850952D01*
X213895982Y-55898571D01*
X213943601Y-55993809D01*
X213943601Y-56231904D01*
X213895982Y-56327142D01*
X213848363Y-56374761D01*
X213753125Y-56422380D01*
X213467410Y-56422380D01*
X213372172Y-56374761D01*
X213324553Y-56327142D01*
%TO.C,J6*%
X177236666Y-73072380D02*
X177236666Y-73786666D01*
X177189047Y-73929523D01*
X177093809Y-74024761D01*
X176950952Y-74072380D01*
X176855714Y-74072380D01*
X178141428Y-73072380D02*
X177950952Y-73072380D01*
X177855714Y-73120000D01*
X177808095Y-73167619D01*
X177712857Y-73310476D01*
X177665238Y-73500952D01*
X177665238Y-73881904D01*
X177712857Y-73977142D01*
X177760476Y-74024761D01*
X177855714Y-74072380D01*
X178046190Y-74072380D01*
X178141428Y-74024761D01*
X178189047Y-73977142D01*
X178236666Y-73881904D01*
X178236666Y-73643809D01*
X178189047Y-73548571D01*
X178141428Y-73500952D01*
X178046190Y-73453333D01*
X177855714Y-73453333D01*
X177760476Y-73500952D01*
X177712857Y-73548571D01*
X177665238Y-73643809D01*
%TO.C,C4*%
X213091220Y-55627142D02*
X213043601Y-55674761D01*
X212900744Y-55722380D01*
X212805506Y-55722380D01*
X212662648Y-55674761D01*
X212567410Y-55579523D01*
X212519791Y-55484285D01*
X212472172Y-55293809D01*
X212472172Y-55150952D01*
X212519791Y-54960476D01*
X212567410Y-54865238D01*
X212662648Y-54770000D01*
X212805506Y-54722380D01*
X212900744Y-54722380D01*
X213043601Y-54770000D01*
X213091220Y-54817619D01*
X213948363Y-55055714D02*
X213948363Y-55722380D01*
X213710267Y-54674761D02*
X213472172Y-55389047D01*
X214091220Y-55389047D01*
%TO.C,INPUT-A-2*%
X214280267Y-72531428D02*
X213280267Y-72531428D01*
X214280267Y-72055238D02*
X213280267Y-72055238D01*
X214280267Y-71483809D01*
X213280267Y-71483809D01*
X214280267Y-71007619D02*
X213280267Y-71007619D01*
X213280267Y-70626666D01*
X213327887Y-70531428D01*
X213375506Y-70483809D01*
X213470744Y-70436190D01*
X213613601Y-70436190D01*
X213708839Y-70483809D01*
X213756458Y-70531428D01*
X213804077Y-70626666D01*
X213804077Y-71007619D01*
X213280267Y-70007619D02*
X214089791Y-70007619D01*
X214185029Y-69960000D01*
X214232648Y-69912380D01*
X214280267Y-69817142D01*
X214280267Y-69626666D01*
X214232648Y-69531428D01*
X214185029Y-69483809D01*
X214089791Y-69436190D01*
X213280267Y-69436190D01*
X213280267Y-69102857D02*
X213280267Y-68531428D01*
X214280267Y-68817142D02*
X213280267Y-68817142D01*
X213899315Y-68198095D02*
X213899315Y-67436190D01*
X213994553Y-67007619D02*
X213994553Y-66531428D01*
X214280267Y-67102857D02*
X213280267Y-66769523D01*
X214280267Y-66436190D01*
X213899315Y-66102857D02*
X213899315Y-65340952D01*
X213375506Y-64912380D02*
X213327887Y-64864761D01*
X213280267Y-64769523D01*
X213280267Y-64531428D01*
X213327887Y-64436190D01*
X213375506Y-64388571D01*
X213470744Y-64340952D01*
X213565982Y-64340952D01*
X213708839Y-64388571D01*
X214280267Y-64960000D01*
X214280267Y-64340952D01*
%TO.C,INPUT-A-1*%
X212048571Y-74512380D02*
X212048571Y-73512380D01*
X212524761Y-74512380D02*
X212524761Y-73512380D01*
X213096190Y-74512380D01*
X213096190Y-73512380D01*
X213572380Y-74512380D02*
X213572380Y-73512380D01*
X213953333Y-73512380D01*
X214048571Y-73560000D01*
X214096190Y-73607619D01*
X214143809Y-73702857D01*
X214143809Y-73845714D01*
X214096190Y-73940952D01*
X214048571Y-73988571D01*
X213953333Y-74036190D01*
X213572380Y-74036190D01*
X214572380Y-73512380D02*
X214572380Y-74321904D01*
X214620000Y-74417142D01*
X214667619Y-74464761D01*
X214762857Y-74512380D01*
X214953333Y-74512380D01*
X215048571Y-74464761D01*
X215096190Y-74417142D01*
X215143809Y-74321904D01*
X215143809Y-73512380D01*
X215477142Y-73512380D02*
X216048571Y-73512380D01*
X215762857Y-74512380D02*
X215762857Y-73512380D01*
X216381904Y-74131428D02*
X217143809Y-74131428D01*
X217572380Y-74226666D02*
X218048571Y-74226666D01*
X217477142Y-74512380D02*
X217810476Y-73512380D01*
X218143809Y-74512380D01*
X218477142Y-74131428D02*
X219239047Y-74131428D01*
X220239047Y-74512380D02*
X219667619Y-74512380D01*
X219953333Y-74512380D02*
X219953333Y-73512380D01*
X219858095Y-73655238D01*
X219762857Y-73750476D01*
X219667619Y-73798095D01*
%TO.C,R2*%
X209861220Y-69602380D02*
X209527887Y-69126190D01*
X209289791Y-69602380D02*
X209289791Y-68602380D01*
X209670744Y-68602380D01*
X209765982Y-68650000D01*
X209813601Y-68697619D01*
X209861220Y-68792857D01*
X209861220Y-68935714D01*
X209813601Y-69030952D01*
X209765982Y-69078571D01*
X209670744Y-69126190D01*
X209289791Y-69126190D01*
X210242172Y-68697619D02*
X210289791Y-68650000D01*
X210385029Y-68602380D01*
X210623125Y-68602380D01*
X210718363Y-68650000D01*
X210765982Y-68697619D01*
X210813601Y-68792857D01*
X210813601Y-68888095D01*
X210765982Y-69030952D01*
X210194553Y-69602380D01*
X210813601Y-69602380D01*
D13*
%TO.C,Y1*%
X189135000Y-70870000D02*
G75*
G03*
X194185000Y-70870000I2525000J0D01*
G01*
X194185000Y-64470000D02*
G75*
G03*
X189135000Y-64470000I-2525000J0D01*
G01*
X189135000Y-64470000D02*
X189135000Y-70870000D01*
X194185000Y-64470000D02*
X194185000Y-70870000D01*
%TO.C,U1*%
X203242652Y-59471555D02*
X202730000Y-58958903D01*
X199038903Y-62650000D02*
X199551555Y-62137348D01*
X202730000Y-58958903D02*
X202217348Y-59471555D01*
X205908445Y-62137348D02*
X206421097Y-62650000D01*
X206421097Y-62650000D02*
X205908445Y-63162652D01*
X202217348Y-65828445D02*
X202730000Y-66341097D01*
X199551555Y-63162652D02*
X199038903Y-62650000D01*
%TO.C,C17*%
X201315888Y-71650000D02*
X201315888Y-72263000D01*
X200635888Y-71650000D02*
X200635888Y-72834000D01*
X199514888Y-71650000D02*
X199514888Y-73183000D01*
X200555888Y-68342000D02*
X200555888Y-69570000D01*
X200435888Y-68281000D02*
X200435888Y-69570000D01*
X200475888Y-68300000D02*
X200475888Y-69570000D01*
X200995888Y-68639000D02*
X200995888Y-69570000D01*
X201275888Y-71650000D02*
X201275888Y-72309000D01*
X200955888Y-71650000D02*
X200955888Y-72614000D01*
X199474888Y-68034000D02*
X199474888Y-69570000D01*
X200875888Y-68545000D02*
X200875888Y-69570000D01*
X199354888Y-71650000D02*
X199354888Y-73190000D01*
X200035888Y-71650000D02*
X200035888Y-73090000D01*
X200195888Y-68182000D02*
X200195888Y-69570000D01*
X200235888Y-68196000D02*
X200235888Y-69570000D01*
X201075888Y-68709000D02*
X201075888Y-69570000D01*
X199914888Y-68099000D02*
X199914888Y-69570000D01*
X199554888Y-71650000D02*
X199554888Y-73179000D01*
X200155888Y-71650000D02*
X200155888Y-73052000D01*
X199874888Y-71650000D02*
X199874888Y-73130000D01*
X200595888Y-71650000D02*
X200595888Y-72857000D01*
X200715888Y-71650000D02*
X200715888Y-72785000D01*
X199434888Y-71650000D02*
X199434888Y-73188000D01*
X199834888Y-68082000D02*
X199834888Y-69570000D01*
X200755888Y-68461000D02*
X200755888Y-69570000D01*
X201155888Y-68784000D02*
X201155888Y-69570000D01*
X201315888Y-68957000D02*
X201315888Y-69570000D01*
X200355888Y-71650000D02*
X200355888Y-72975000D01*
X199314888Y-68030000D02*
X199314888Y-69570000D01*
X199634888Y-68049000D02*
X199634888Y-69570000D01*
X200355888Y-68245000D02*
X200355888Y-69570000D01*
X199794888Y-68074000D02*
X199794888Y-69570000D01*
X201795888Y-69805000D02*
X201795888Y-71415000D01*
X201595888Y-69359000D02*
X201595888Y-71861000D01*
X201435888Y-69110000D02*
X201435888Y-72110000D01*
X199674888Y-71650000D02*
X199674888Y-73166000D01*
X200395888Y-71650000D02*
X200395888Y-72958000D01*
X201835888Y-69933000D02*
X201835888Y-71287000D01*
X200875888Y-71650000D02*
X200875888Y-72675000D01*
X200835888Y-71650000D02*
X200835888Y-72705000D01*
X200075888Y-68142000D02*
X200075888Y-69570000D01*
X200315888Y-71650000D02*
X200315888Y-72992000D01*
X200195888Y-71650000D02*
X200195888Y-73038000D01*
X200395888Y-68262000D02*
X200395888Y-69570000D01*
X200555888Y-71650000D02*
X200555888Y-72878000D01*
X201195888Y-68825000D02*
X201195888Y-69570000D01*
X200835888Y-68515000D02*
X200835888Y-69570000D01*
X199634888Y-71650000D02*
X199634888Y-73171000D01*
X200235888Y-71650000D02*
X200235888Y-73024000D01*
X200275888Y-71650000D02*
X200275888Y-73008000D01*
X199474888Y-71650000D02*
X199474888Y-73186000D01*
X200315888Y-68228000D02*
X200315888Y-69570000D01*
X199994888Y-68119000D02*
X199994888Y-69570000D01*
X201715888Y-69599000D02*
X201715888Y-71621000D01*
X201395888Y-69056000D02*
X201395888Y-72164000D01*
X201755888Y-69695000D02*
X201755888Y-71525000D01*
X196510113Y-69135000D02*
X197010113Y-69135000D01*
X199314888Y-71650000D02*
X199314888Y-73190000D01*
X200115888Y-68155000D02*
X200115888Y-69570000D01*
X200795888Y-68488000D02*
X200795888Y-69570000D01*
X200515888Y-71650000D02*
X200515888Y-72900000D01*
X200675888Y-68410000D02*
X200675888Y-69570000D01*
X201115888Y-68746000D02*
X201115888Y-69570000D01*
X201235888Y-71650000D02*
X201235888Y-72353000D01*
X201675888Y-69512000D02*
X201675888Y-71708000D01*
X199434888Y-68032000D02*
X199434888Y-69570000D01*
X199594888Y-68045000D02*
X199594888Y-69570000D01*
X199394888Y-68031000D02*
X199394888Y-69570000D01*
X199514888Y-68037000D02*
X199514888Y-69570000D01*
X201115888Y-71650000D02*
X201115888Y-72474000D01*
X200435888Y-71650000D02*
X200435888Y-72939000D01*
X201875888Y-70092000D02*
X201875888Y-71128000D01*
X201915888Y-70326000D02*
X201915888Y-70894000D01*
X199914888Y-71650000D02*
X199914888Y-73121000D01*
X201035888Y-71650000D02*
X201035888Y-72547000D01*
X200475888Y-71650000D02*
X200475888Y-72920000D01*
X199714888Y-71650000D02*
X199714888Y-73160000D01*
X201555888Y-69291000D02*
X201555888Y-71929000D01*
X201515888Y-69227000D02*
X201515888Y-71993000D01*
X200275888Y-68212000D02*
X200275888Y-69570000D01*
X200595888Y-68363000D02*
X200595888Y-69570000D01*
X201635888Y-69432000D02*
X201635888Y-71788000D01*
X200675888Y-71650000D02*
X200675888Y-72810000D01*
X201235888Y-68867000D02*
X201235888Y-69570000D01*
X200915888Y-68575000D02*
X200915888Y-69570000D01*
X201355888Y-69005000D02*
X201355888Y-72215000D01*
X200795888Y-71650000D02*
X200795888Y-72732000D01*
X200075888Y-71650000D02*
X200075888Y-73078000D01*
X199834888Y-71650000D02*
X199834888Y-73138000D01*
X200155888Y-68168000D02*
X200155888Y-69570000D01*
X199674888Y-68054000D02*
X199674888Y-69570000D01*
X199754888Y-71650000D02*
X199754888Y-73153000D01*
X201475888Y-69167000D02*
X201475888Y-72053000D01*
X201155888Y-71650000D02*
X201155888Y-72436000D01*
X200115888Y-71650000D02*
X200115888Y-73065000D01*
X199594888Y-71650000D02*
X199594888Y-73175000D01*
X199394888Y-71650000D02*
X199394888Y-73189000D01*
X199994888Y-71650000D02*
X199994888Y-73101000D01*
X201195888Y-71650000D02*
X201195888Y-72395000D01*
X200035888Y-68130000D02*
X200035888Y-69570000D01*
X200955888Y-68606000D02*
X200955888Y-69570000D01*
X200755888Y-71650000D02*
X200755888Y-72759000D01*
X200715888Y-68435000D02*
X200715888Y-69570000D01*
X200515888Y-68320000D02*
X200515888Y-69570000D01*
X199554888Y-68041000D02*
X199554888Y-69570000D01*
X201035888Y-68673000D02*
X201035888Y-69570000D01*
X199754888Y-68067000D02*
X199754888Y-69570000D01*
X199954888Y-71650000D02*
X199954888Y-73111000D01*
X200635888Y-68386000D02*
X200635888Y-69570000D01*
X196760113Y-68885000D02*
X196760113Y-69385000D01*
X199714888Y-68060000D02*
X199714888Y-69570000D01*
X200995888Y-71650000D02*
X200995888Y-72581000D01*
X199794888Y-71650000D02*
X199794888Y-73146000D01*
X199874888Y-68090000D02*
X199874888Y-69570000D01*
X200915888Y-71650000D02*
X200915888Y-72645000D01*
X201075888Y-71650000D02*
X201075888Y-72511000D01*
X199354888Y-68030000D02*
X199354888Y-69570000D01*
X199954888Y-68109000D02*
X199954888Y-69570000D01*
X201275888Y-68911000D02*
X201275888Y-69570000D01*
X201934888Y-70610000D02*
G75*
G03*
X201934888Y-70610000I-2620000J0D01*
G01*
%TO.C,C15*%
X206945888Y-55260000D02*
X206945888Y-55873000D01*
X206265888Y-55260000D02*
X206265888Y-56444000D01*
X205144888Y-55260000D02*
X205144888Y-56793000D01*
X206185888Y-51952000D02*
X206185888Y-53180000D01*
X206065888Y-51891000D02*
X206065888Y-53180000D01*
X206105888Y-51910000D02*
X206105888Y-53180000D01*
X206625888Y-52249000D02*
X206625888Y-53180000D01*
X206905888Y-55260000D02*
X206905888Y-55919000D01*
X206585888Y-55260000D02*
X206585888Y-56224000D01*
X205104888Y-51644000D02*
X205104888Y-53180000D01*
X206505888Y-52155000D02*
X206505888Y-53180000D01*
X204984888Y-55260000D02*
X204984888Y-56800000D01*
X205665888Y-55260000D02*
X205665888Y-56700000D01*
X205825888Y-51792000D02*
X205825888Y-53180000D01*
X205865888Y-51806000D02*
X205865888Y-53180000D01*
X206705888Y-52319000D02*
X206705888Y-53180000D01*
X205544888Y-51709000D02*
X205544888Y-53180000D01*
X205184888Y-55260000D02*
X205184888Y-56789000D01*
X205785888Y-55260000D02*
X205785888Y-56662000D01*
X205504888Y-55260000D02*
X205504888Y-56740000D01*
X206225888Y-55260000D02*
X206225888Y-56467000D01*
X206345888Y-55260000D02*
X206345888Y-56395000D01*
X205064888Y-55260000D02*
X205064888Y-56798000D01*
X205464888Y-51692000D02*
X205464888Y-53180000D01*
X206385888Y-52071000D02*
X206385888Y-53180000D01*
X206785888Y-52394000D02*
X206785888Y-53180000D01*
X206945888Y-52567000D02*
X206945888Y-53180000D01*
X205985888Y-55260000D02*
X205985888Y-56585000D01*
X204944888Y-51640000D02*
X204944888Y-53180000D01*
X205264888Y-51659000D02*
X205264888Y-53180000D01*
X205985888Y-51855000D02*
X205985888Y-53180000D01*
X205424888Y-51684000D02*
X205424888Y-53180000D01*
X207425888Y-53415000D02*
X207425888Y-55025000D01*
X207225888Y-52969000D02*
X207225888Y-55471000D01*
X207065888Y-52720000D02*
X207065888Y-55720000D01*
X205304888Y-55260000D02*
X205304888Y-56776000D01*
X206025888Y-55260000D02*
X206025888Y-56568000D01*
X207465888Y-53543000D02*
X207465888Y-54897000D01*
X206505888Y-55260000D02*
X206505888Y-56285000D01*
X206465888Y-55260000D02*
X206465888Y-56315000D01*
X205705888Y-51752000D02*
X205705888Y-53180000D01*
X205945888Y-55260000D02*
X205945888Y-56602000D01*
X205825888Y-55260000D02*
X205825888Y-56648000D01*
X206025888Y-51872000D02*
X206025888Y-53180000D01*
X206185888Y-55260000D02*
X206185888Y-56488000D01*
X206825888Y-52435000D02*
X206825888Y-53180000D01*
X206465888Y-52125000D02*
X206465888Y-53180000D01*
X205264888Y-55260000D02*
X205264888Y-56781000D01*
X205865888Y-55260000D02*
X205865888Y-56634000D01*
X205905888Y-55260000D02*
X205905888Y-56618000D01*
X205104888Y-55260000D02*
X205104888Y-56796000D01*
X205945888Y-51838000D02*
X205945888Y-53180000D01*
X205624888Y-51729000D02*
X205624888Y-53180000D01*
X207345888Y-53209000D02*
X207345888Y-55231000D01*
X207025888Y-52666000D02*
X207025888Y-55774000D01*
X207385888Y-53305000D02*
X207385888Y-55135000D01*
X202140113Y-52745000D02*
X202640113Y-52745000D01*
X204944888Y-55260000D02*
X204944888Y-56800000D01*
X205745888Y-51765000D02*
X205745888Y-53180000D01*
X206425888Y-52098000D02*
X206425888Y-53180000D01*
X206145888Y-55260000D02*
X206145888Y-56510000D01*
X206305888Y-52020000D02*
X206305888Y-53180000D01*
X206745888Y-52356000D02*
X206745888Y-53180000D01*
X206865888Y-55260000D02*
X206865888Y-55963000D01*
X207305888Y-53122000D02*
X207305888Y-55318000D01*
X205064888Y-51642000D02*
X205064888Y-53180000D01*
X205224888Y-51655000D02*
X205224888Y-53180000D01*
X205024888Y-51641000D02*
X205024888Y-53180000D01*
X205144888Y-51647000D02*
X205144888Y-53180000D01*
X206745888Y-55260000D02*
X206745888Y-56084000D01*
X206065888Y-55260000D02*
X206065888Y-56549000D01*
X207505888Y-53702000D02*
X207505888Y-54738000D01*
X207545888Y-53936000D02*
X207545888Y-54504000D01*
X205544888Y-55260000D02*
X205544888Y-56731000D01*
X206665888Y-55260000D02*
X206665888Y-56157000D01*
X206105888Y-55260000D02*
X206105888Y-56530000D01*
X205344888Y-55260000D02*
X205344888Y-56770000D01*
X207185888Y-52901000D02*
X207185888Y-55539000D01*
X207145888Y-52837000D02*
X207145888Y-55603000D01*
X205905888Y-51822000D02*
X205905888Y-53180000D01*
X206225888Y-51973000D02*
X206225888Y-53180000D01*
X207265888Y-53042000D02*
X207265888Y-55398000D01*
X206305888Y-55260000D02*
X206305888Y-56420000D01*
X206865888Y-52477000D02*
X206865888Y-53180000D01*
X206545888Y-52185000D02*
X206545888Y-53180000D01*
X206985888Y-52615000D02*
X206985888Y-55825000D01*
X206425888Y-55260000D02*
X206425888Y-56342000D01*
X205705888Y-55260000D02*
X205705888Y-56688000D01*
X205464888Y-55260000D02*
X205464888Y-56748000D01*
X205785888Y-51778000D02*
X205785888Y-53180000D01*
X205304888Y-51664000D02*
X205304888Y-53180000D01*
X205384888Y-55260000D02*
X205384888Y-56763000D01*
X207105888Y-52777000D02*
X207105888Y-55663000D01*
X206785888Y-55260000D02*
X206785888Y-56046000D01*
X205745888Y-55260000D02*
X205745888Y-56675000D01*
X205224888Y-55260000D02*
X205224888Y-56785000D01*
X205024888Y-55260000D02*
X205024888Y-56799000D01*
X205624888Y-55260000D02*
X205624888Y-56711000D01*
X206825888Y-55260000D02*
X206825888Y-56005000D01*
X205665888Y-51740000D02*
X205665888Y-53180000D01*
X206585888Y-52216000D02*
X206585888Y-53180000D01*
X206385888Y-55260000D02*
X206385888Y-56369000D01*
X206345888Y-52045000D02*
X206345888Y-53180000D01*
X206145888Y-51930000D02*
X206145888Y-53180000D01*
X205184888Y-51651000D02*
X205184888Y-53180000D01*
X206665888Y-52283000D02*
X206665888Y-53180000D01*
X205384888Y-51677000D02*
X205384888Y-53180000D01*
X205584888Y-55260000D02*
X205584888Y-56721000D01*
X206265888Y-51996000D02*
X206265888Y-53180000D01*
X202390113Y-52495000D02*
X202390113Y-52995000D01*
X205344888Y-51670000D02*
X205344888Y-53180000D01*
X206625888Y-55260000D02*
X206625888Y-56191000D01*
X205424888Y-55260000D02*
X205424888Y-56756000D01*
X205504888Y-51700000D02*
X205504888Y-53180000D01*
X206545888Y-55260000D02*
X206545888Y-56255000D01*
X206705888Y-55260000D02*
X206705888Y-56121000D01*
X204984888Y-51640000D02*
X204984888Y-53180000D01*
X205584888Y-51719000D02*
X205584888Y-53180000D01*
X206905888Y-52521000D02*
X206905888Y-53180000D01*
X207564888Y-54220000D02*
G75*
G03*
X207564888Y-54220000I-2620000J0D01*
G01*
%TO.C,C11*%
X197224113Y-53190000D02*
X197224113Y-52577000D01*
X197904113Y-53190000D02*
X197904113Y-52006000D01*
X199025113Y-53190000D02*
X199025113Y-51657000D01*
X197984113Y-56498000D02*
X197984113Y-55270000D01*
X198104113Y-56559000D02*
X198104113Y-55270000D01*
X198064113Y-56540000D02*
X198064113Y-55270000D01*
X197544113Y-56201000D02*
X197544113Y-55270000D01*
X197264113Y-53190000D02*
X197264113Y-52531000D01*
X197584113Y-53190000D02*
X197584113Y-52226000D01*
X199065113Y-56806000D02*
X199065113Y-55270000D01*
X197664113Y-56295000D02*
X197664113Y-55270000D01*
X199185113Y-53190000D02*
X199185113Y-51650000D01*
X198504113Y-53190000D02*
X198504113Y-51750000D01*
X198344113Y-56658000D02*
X198344113Y-55270000D01*
X198304113Y-56644000D02*
X198304113Y-55270000D01*
X197464113Y-56131000D02*
X197464113Y-55270000D01*
X198625113Y-56741000D02*
X198625113Y-55270000D01*
X198985113Y-53190000D02*
X198985113Y-51661000D01*
X198384113Y-53190000D02*
X198384113Y-51788000D01*
X198665113Y-53190000D02*
X198665113Y-51710000D01*
X197944113Y-53190000D02*
X197944113Y-51983000D01*
X197824113Y-53190000D02*
X197824113Y-52055000D01*
X199105113Y-53190000D02*
X199105113Y-51652000D01*
X198705113Y-56758000D02*
X198705113Y-55270000D01*
X197784113Y-56379000D02*
X197784113Y-55270000D01*
X197384113Y-56056000D02*
X197384113Y-55270000D01*
X197224113Y-55883000D02*
X197224113Y-55270000D01*
X198184113Y-53190000D02*
X198184113Y-51865000D01*
X199225113Y-56810000D02*
X199225113Y-55270000D01*
X198905113Y-56791000D02*
X198905113Y-55270000D01*
X198184113Y-56595000D02*
X198184113Y-55270000D01*
X198745113Y-56766000D02*
X198745113Y-55270000D01*
X196744113Y-55035000D02*
X196744113Y-53425000D01*
X196944113Y-55481000D02*
X196944113Y-52979000D01*
X197104113Y-55730000D02*
X197104113Y-52730000D01*
X198865113Y-53190000D02*
X198865113Y-51674000D01*
X198144113Y-53190000D02*
X198144113Y-51882000D01*
X196704113Y-54907000D02*
X196704113Y-53553000D01*
X197664113Y-53190000D02*
X197664113Y-52165000D01*
X197704113Y-53190000D02*
X197704113Y-52135000D01*
X198464113Y-56698000D02*
X198464113Y-55270000D01*
X198224113Y-53190000D02*
X198224113Y-51848000D01*
X198344113Y-53190000D02*
X198344113Y-51802000D01*
X198144113Y-56578000D02*
X198144113Y-55270000D01*
X197984113Y-53190000D02*
X197984113Y-51962000D01*
X197344113Y-56015000D02*
X197344113Y-55270000D01*
X197704113Y-56325000D02*
X197704113Y-55270000D01*
X198905113Y-53190000D02*
X198905113Y-51669000D01*
X198304113Y-53190000D02*
X198304113Y-51816000D01*
X198264113Y-53190000D02*
X198264113Y-51832000D01*
X199065113Y-53190000D02*
X199065113Y-51654000D01*
X198224113Y-56612000D02*
X198224113Y-55270000D01*
X198545113Y-56721000D02*
X198545113Y-55270000D01*
X196824113Y-55241000D02*
X196824113Y-53219000D01*
X197144113Y-55784000D02*
X197144113Y-52676000D01*
X196784113Y-55145000D02*
X196784113Y-53315000D01*
X202029888Y-55705000D02*
X201529888Y-55705000D01*
X199225113Y-53190000D02*
X199225113Y-51650000D01*
X198424113Y-56685000D02*
X198424113Y-55270000D01*
X197744113Y-56352000D02*
X197744113Y-55270000D01*
X198024113Y-53190000D02*
X198024113Y-51940000D01*
X197864113Y-56430000D02*
X197864113Y-55270000D01*
X197424113Y-56094000D02*
X197424113Y-55270000D01*
X197304113Y-53190000D02*
X197304113Y-52487000D01*
X196864113Y-55328000D02*
X196864113Y-53132000D01*
X199105113Y-56808000D02*
X199105113Y-55270000D01*
X198945113Y-56795000D02*
X198945113Y-55270000D01*
X199145113Y-56809000D02*
X199145113Y-55270000D01*
X199025113Y-56803000D02*
X199025113Y-55270000D01*
X197424113Y-53190000D02*
X197424113Y-52366000D01*
X198104113Y-53190000D02*
X198104113Y-51901000D01*
X196664113Y-54748000D02*
X196664113Y-53712000D01*
X196624113Y-54514000D02*
X196624113Y-53946000D01*
X198625113Y-53190000D02*
X198625113Y-51719000D01*
X197504113Y-53190000D02*
X197504113Y-52293000D01*
X198064113Y-53190000D02*
X198064113Y-51920000D01*
X198825113Y-53190000D02*
X198825113Y-51680000D01*
X196984113Y-55549000D02*
X196984113Y-52911000D01*
X197024113Y-55613000D02*
X197024113Y-52847000D01*
X198264113Y-56628000D02*
X198264113Y-55270000D01*
X197944113Y-56477000D02*
X197944113Y-55270000D01*
X196904113Y-55408000D02*
X196904113Y-53052000D01*
X197864113Y-53190000D02*
X197864113Y-52030000D01*
X197304113Y-55973000D02*
X197304113Y-55270000D01*
X197624113Y-56265000D02*
X197624113Y-55270000D01*
X197184113Y-55835000D02*
X197184113Y-52625000D01*
X197744113Y-53190000D02*
X197744113Y-52108000D01*
X198464113Y-53190000D02*
X198464113Y-51762000D01*
X198705113Y-53190000D02*
X198705113Y-51702000D01*
X198384113Y-56672000D02*
X198384113Y-55270000D01*
X198865113Y-56786000D02*
X198865113Y-55270000D01*
X198785113Y-53190000D02*
X198785113Y-51687000D01*
X197064113Y-55673000D02*
X197064113Y-52787000D01*
X197384113Y-53190000D02*
X197384113Y-52404000D01*
X198424113Y-53190000D02*
X198424113Y-51775000D01*
X198945113Y-53190000D02*
X198945113Y-51665000D01*
X199145113Y-53190000D02*
X199145113Y-51651000D01*
X198545113Y-53190000D02*
X198545113Y-51739000D01*
X197344113Y-53190000D02*
X197344113Y-52445000D01*
X198504113Y-56710000D02*
X198504113Y-55270000D01*
X197584113Y-56234000D02*
X197584113Y-55270000D01*
X197784113Y-53190000D02*
X197784113Y-52081000D01*
X197824113Y-56405000D02*
X197824113Y-55270000D01*
X198024113Y-56520000D02*
X198024113Y-55270000D01*
X198985113Y-56799000D02*
X198985113Y-55270000D01*
X197504113Y-56167000D02*
X197504113Y-55270000D01*
X198785113Y-56773000D02*
X198785113Y-55270000D01*
X198585113Y-53190000D02*
X198585113Y-51729000D01*
X197904113Y-56454000D02*
X197904113Y-55270000D01*
X201779888Y-55955000D02*
X201779888Y-55455000D01*
X198825113Y-56780000D02*
X198825113Y-55270000D01*
X197544113Y-53190000D02*
X197544113Y-52259000D01*
X198745113Y-53190000D02*
X198745113Y-51694000D01*
X198665113Y-56750000D02*
X198665113Y-55270000D01*
X197624113Y-53190000D02*
X197624113Y-52195000D01*
X197464113Y-53190000D02*
X197464113Y-52329000D01*
X199185113Y-56810000D02*
X199185113Y-55270000D01*
X198585113Y-56731000D02*
X198585113Y-55270000D01*
X197264113Y-55929000D02*
X197264113Y-55270000D01*
X201845113Y-54230000D02*
G75*
G03*
X201845113Y-54230000I-2620000J0D01*
G01*
%TO.C,C10*%
X207564888Y-70610000D02*
G75*
G03*
X207564888Y-70610000I-2620000J0D01*
G01*
X206905888Y-68911000D02*
X206905888Y-69570000D01*
X205584888Y-68109000D02*
X205584888Y-69570000D01*
X204984888Y-68030000D02*
X204984888Y-69570000D01*
X206705888Y-71650000D02*
X206705888Y-72511000D01*
X206545888Y-71650000D02*
X206545888Y-72645000D01*
X205504888Y-68090000D02*
X205504888Y-69570000D01*
X205424888Y-71650000D02*
X205424888Y-73146000D01*
X206625888Y-71650000D02*
X206625888Y-72581000D01*
X205344888Y-68060000D02*
X205344888Y-69570000D01*
X202390113Y-68885000D02*
X202390113Y-69385000D01*
X206265888Y-68386000D02*
X206265888Y-69570000D01*
X205584888Y-71650000D02*
X205584888Y-73111000D01*
X205384888Y-68067000D02*
X205384888Y-69570000D01*
X206665888Y-68673000D02*
X206665888Y-69570000D01*
X205184888Y-68041000D02*
X205184888Y-69570000D01*
X206145888Y-68320000D02*
X206145888Y-69570000D01*
X206345888Y-68435000D02*
X206345888Y-69570000D01*
X206385888Y-71650000D02*
X206385888Y-72759000D01*
X206585888Y-68606000D02*
X206585888Y-69570000D01*
X205665888Y-68130000D02*
X205665888Y-69570000D01*
X206825888Y-71650000D02*
X206825888Y-72395000D01*
X205624888Y-71650000D02*
X205624888Y-73101000D01*
X205024888Y-71650000D02*
X205024888Y-73189000D01*
X205224888Y-71650000D02*
X205224888Y-73175000D01*
X205745888Y-71650000D02*
X205745888Y-73065000D01*
X206785888Y-71650000D02*
X206785888Y-72436000D01*
X207105888Y-69167000D02*
X207105888Y-72053000D01*
X205384888Y-71650000D02*
X205384888Y-73153000D01*
X205304888Y-68054000D02*
X205304888Y-69570000D01*
X205785888Y-68168000D02*
X205785888Y-69570000D01*
X205464888Y-71650000D02*
X205464888Y-73138000D01*
X205705888Y-71650000D02*
X205705888Y-73078000D01*
X206425888Y-71650000D02*
X206425888Y-72732000D01*
X206985888Y-69005000D02*
X206985888Y-72215000D01*
X206545888Y-68575000D02*
X206545888Y-69570000D01*
X206865888Y-68867000D02*
X206865888Y-69570000D01*
X206305888Y-71650000D02*
X206305888Y-72810000D01*
X207265888Y-69432000D02*
X207265888Y-71788000D01*
X206225888Y-68363000D02*
X206225888Y-69570000D01*
X205905888Y-68212000D02*
X205905888Y-69570000D01*
X207145888Y-69227000D02*
X207145888Y-71993000D01*
X207185888Y-69291000D02*
X207185888Y-71929000D01*
X205344888Y-71650000D02*
X205344888Y-73160000D01*
X206105888Y-71650000D02*
X206105888Y-72920000D01*
X206665888Y-71650000D02*
X206665888Y-72547000D01*
X205544888Y-71650000D02*
X205544888Y-73121000D01*
X207545888Y-70326000D02*
X207545888Y-70894000D01*
X207505888Y-70092000D02*
X207505888Y-71128000D01*
X206065888Y-71650000D02*
X206065888Y-72939000D01*
X206745888Y-71650000D02*
X206745888Y-72474000D01*
X205144888Y-68037000D02*
X205144888Y-69570000D01*
X205024888Y-68031000D02*
X205024888Y-69570000D01*
X205224888Y-68045000D02*
X205224888Y-69570000D01*
X205064888Y-68032000D02*
X205064888Y-69570000D01*
X207305888Y-69512000D02*
X207305888Y-71708000D01*
X206865888Y-71650000D02*
X206865888Y-72353000D01*
X206745888Y-68746000D02*
X206745888Y-69570000D01*
X206305888Y-68410000D02*
X206305888Y-69570000D01*
X206145888Y-71650000D02*
X206145888Y-72900000D01*
X206425888Y-68488000D02*
X206425888Y-69570000D01*
X205745888Y-68155000D02*
X205745888Y-69570000D01*
X204944888Y-71650000D02*
X204944888Y-73190000D01*
X202140113Y-69135000D02*
X202640113Y-69135000D01*
X207385888Y-69695000D02*
X207385888Y-71525000D01*
X207025888Y-69056000D02*
X207025888Y-72164000D01*
X207345888Y-69599000D02*
X207345888Y-71621000D01*
X205624888Y-68119000D02*
X205624888Y-69570000D01*
X205945888Y-68228000D02*
X205945888Y-69570000D01*
X205104888Y-71650000D02*
X205104888Y-73186000D01*
X205905888Y-71650000D02*
X205905888Y-73008000D01*
X205865888Y-71650000D02*
X205865888Y-73024000D01*
X205264888Y-71650000D02*
X205264888Y-73171000D01*
X206465888Y-68515000D02*
X206465888Y-69570000D01*
X206825888Y-68825000D02*
X206825888Y-69570000D01*
X206185888Y-71650000D02*
X206185888Y-72878000D01*
X206025888Y-68262000D02*
X206025888Y-69570000D01*
X205825888Y-71650000D02*
X205825888Y-73038000D01*
X205945888Y-71650000D02*
X205945888Y-72992000D01*
X205705888Y-68142000D02*
X205705888Y-69570000D01*
X206465888Y-71650000D02*
X206465888Y-72705000D01*
X206505888Y-71650000D02*
X206505888Y-72675000D01*
X207465888Y-69933000D02*
X207465888Y-71287000D01*
X206025888Y-71650000D02*
X206025888Y-72958000D01*
X205304888Y-71650000D02*
X205304888Y-73166000D01*
X207065888Y-69110000D02*
X207065888Y-72110000D01*
X207225888Y-69359000D02*
X207225888Y-71861000D01*
X207425888Y-69805000D02*
X207425888Y-71415000D01*
X205424888Y-68074000D02*
X205424888Y-69570000D01*
X205985888Y-68245000D02*
X205985888Y-69570000D01*
X205264888Y-68049000D02*
X205264888Y-69570000D01*
X204944888Y-68030000D02*
X204944888Y-69570000D01*
X205985888Y-71650000D02*
X205985888Y-72975000D01*
X206945888Y-68957000D02*
X206945888Y-69570000D01*
X206785888Y-68784000D02*
X206785888Y-69570000D01*
X206385888Y-68461000D02*
X206385888Y-69570000D01*
X205464888Y-68082000D02*
X205464888Y-69570000D01*
X205064888Y-71650000D02*
X205064888Y-73188000D01*
X206345888Y-71650000D02*
X206345888Y-72785000D01*
X206225888Y-71650000D02*
X206225888Y-72857000D01*
X205504888Y-71650000D02*
X205504888Y-73130000D01*
X205785888Y-71650000D02*
X205785888Y-73052000D01*
X205184888Y-71650000D02*
X205184888Y-73179000D01*
X205544888Y-68099000D02*
X205544888Y-69570000D01*
X206705888Y-68709000D02*
X206705888Y-69570000D01*
X205865888Y-68196000D02*
X205865888Y-69570000D01*
X205825888Y-68182000D02*
X205825888Y-69570000D01*
X205665888Y-71650000D02*
X205665888Y-73090000D01*
X204984888Y-71650000D02*
X204984888Y-73190000D01*
X206505888Y-68545000D02*
X206505888Y-69570000D01*
X205104888Y-68034000D02*
X205104888Y-69570000D01*
X206585888Y-71650000D02*
X206585888Y-72614000D01*
X206905888Y-71650000D02*
X206905888Y-72309000D01*
X206625888Y-68639000D02*
X206625888Y-69570000D01*
X206105888Y-68300000D02*
X206105888Y-69570000D01*
X206065888Y-68281000D02*
X206065888Y-69570000D01*
X206185888Y-68342000D02*
X206185888Y-69570000D01*
X205144888Y-71650000D02*
X205144888Y-73183000D01*
X206265888Y-71650000D02*
X206265888Y-72834000D01*
X206945888Y-71650000D02*
X206945888Y-72263000D01*
%TO.C,INPUT-B-1*%
X229567887Y-53800000D02*
X229567887Y-57800000D01*
X230767887Y-60300000D02*
X229567887Y-60300000D01*
X229567887Y-49800000D02*
X229567887Y-51300000D01*
X230767887Y-51300000D02*
X230767887Y-52800000D01*
X232567887Y-52800000D02*
X232567887Y-58800000D01*
X232567887Y-58800000D02*
X230767887Y-58800000D01*
X229567887Y-51300000D02*
X230767887Y-51300000D01*
X230767887Y-52800000D02*
X232567887Y-52800000D01*
X218567887Y-49800000D02*
X229567887Y-49800000D01*
X229567887Y-60300000D02*
X229567887Y-61800000D01*
X230767887Y-58800000D02*
X230767887Y-60300000D01*
X232567887Y-53800000D02*
X229567887Y-53800000D01*
X229567887Y-57800000D02*
X232567887Y-57800000D01*
X218567887Y-61800000D02*
X218567887Y-49800000D01*
X229567887Y-61800000D02*
X218567887Y-61800000D01*
%TO.C,JP3*%
X208797887Y-70610000D02*
G75*
G03*
X208097887Y-71310000I0J-700000D01*
G01*
X210897887Y-71310000D02*
G75*
G03*
X210197887Y-70610000I-699999J1D01*
G01*
X210197887Y-72610000D02*
G75*
G03*
X210897887Y-71910000I1J699999D01*
G01*
X208097887Y-71910000D02*
G75*
G03*
X208797887Y-72610000I700000J0D01*
G01*
X210897887Y-71310000D02*
X210897887Y-71910000D01*
X208097887Y-71910000D02*
X208097887Y-71310000D01*
X208797887Y-70610000D02*
X210197887Y-70610000D01*
X210197887Y-72610000D02*
X208797887Y-72610000D01*
%TO.C,JP8*%
X208787887Y-51760000D02*
G75*
G03*
X208087887Y-52460000I0J-700000D01*
G01*
X210887887Y-52460000D02*
G75*
G03*
X210187887Y-51760000I-699999J1D01*
G01*
X210187887Y-53760000D02*
G75*
G03*
X210887887Y-53060000I1J699999D01*
G01*
X208087887Y-53060000D02*
G75*
G03*
X208787887Y-53760000I700000J0D01*
G01*
X210887887Y-52460000D02*
X210887887Y-53060000D01*
X208087887Y-53060000D02*
X208087887Y-52460000D01*
X208787887Y-51760000D02*
X210187887Y-51760000D01*
X210187887Y-53760000D02*
X208787887Y-53760000D01*
%TO.C,JP7*%
X208777887Y-57420000D02*
G75*
G03*
X208077887Y-58120000I0J-700000D01*
G01*
X210877887Y-58120000D02*
G75*
G03*
X210177887Y-57420000I-699999J1D01*
G01*
X210177887Y-59420000D02*
G75*
G03*
X210877887Y-58720000I1J699999D01*
G01*
X208077887Y-58720000D02*
G75*
G03*
X208777887Y-59420000I700000J0D01*
G01*
X210877887Y-58120000D02*
X210877887Y-58720000D01*
X208077887Y-58720000D02*
X208077887Y-58120000D01*
X208777887Y-57420000D02*
X210177887Y-57420000D01*
X210177887Y-59420000D02*
X208777887Y-59420000D01*
%TO.C,JP6*%
X213547887Y-53760000D02*
X212147887Y-53760000D01*
X212147887Y-51760000D02*
X213547887Y-51760000D01*
X211447887Y-53060000D02*
X211447887Y-52460000D01*
X214247887Y-52460000D02*
X214247887Y-53060000D01*
X211447887Y-53060000D02*
G75*
G03*
X212147887Y-53760000I700000J0D01*
G01*
X213547887Y-53760000D02*
G75*
G03*
X214247887Y-53060000I1J699999D01*
G01*
X214247887Y-52460000D02*
G75*
G03*
X213547887Y-51760000I-699999J1D01*
G01*
X212147887Y-51760000D02*
G75*
G03*
X211447887Y-52460000I0J-700000D01*
G01*
%TO.C,JP5*%
X212137887Y-57420000D02*
G75*
G03*
X211437887Y-58120000I0J-700000D01*
G01*
X214237887Y-58120000D02*
G75*
G03*
X213537887Y-57420000I-699999J1D01*
G01*
X213537887Y-59420000D02*
G75*
G03*
X214237887Y-58720000I1J699999D01*
G01*
X211437887Y-58720000D02*
G75*
G03*
X212137887Y-59420000I700000J0D01*
G01*
X214237887Y-58120000D02*
X214237887Y-58720000D01*
X211437887Y-58720000D02*
X211437887Y-58120000D01*
X212137887Y-57420000D02*
X213537887Y-57420000D01*
X213537887Y-59420000D02*
X212137887Y-59420000D01*
%TO.C,JP4*%
X210197887Y-66970000D02*
X208797887Y-66970000D01*
X208797887Y-64970000D02*
X210197887Y-64970000D01*
X208097887Y-66270000D02*
X208097887Y-65670000D01*
X210897887Y-65670000D02*
X210897887Y-66270000D01*
X208097887Y-66270000D02*
G75*
G03*
X208797887Y-66970000I700000J0D01*
G01*
X210197887Y-66970000D02*
G75*
G03*
X210897887Y-66270000I1J699999D01*
G01*
X210897887Y-65670000D02*
G75*
G03*
X210197887Y-64970000I-699999J1D01*
G01*
X208797887Y-64970000D02*
G75*
G03*
X208097887Y-65670000I0J-700000D01*
G01*
%TO.C,JP2*%
X212167887Y-64980000D02*
G75*
G03*
X211467887Y-65680000I0J-700000D01*
G01*
X214267887Y-65680000D02*
G75*
G03*
X213567887Y-64980000I-699999J1D01*
G01*
X213567887Y-66980000D02*
G75*
G03*
X214267887Y-66280000I1J699999D01*
G01*
X211467887Y-66280000D02*
G75*
G03*
X212167887Y-66980000I700000J0D01*
G01*
X214267887Y-65680000D02*
X214267887Y-66280000D01*
X211467887Y-66280000D02*
X211467887Y-65680000D01*
X212167887Y-64980000D02*
X213567887Y-64980000D01*
X213567887Y-66980000D02*
X212167887Y-66980000D01*
%TO.C,JP1*%
X212167887Y-70610000D02*
G75*
G03*
X211467887Y-71310000I0J-700000D01*
G01*
X214267887Y-71310000D02*
G75*
G03*
X213567887Y-70610000I-699999J1D01*
G01*
X213567887Y-72610000D02*
G75*
G03*
X214267887Y-71910000I1J699999D01*
G01*
X211467887Y-71910000D02*
G75*
G03*
X212167887Y-72610000I700000J0D01*
G01*
X214267887Y-71310000D02*
X214267887Y-71910000D01*
X211467887Y-71910000D02*
X211467887Y-71310000D01*
X212167887Y-70610000D02*
X213567887Y-70610000D01*
X213567887Y-72610000D02*
X212167887Y-72610000D01*
%TO.C,J1*%
X191525000Y-49725000D02*
X191525000Y-52385000D01*
X191525000Y-49725000D02*
X176225000Y-49725000D01*
X194125000Y-49725000D02*
X194125000Y-51055000D01*
X176225000Y-49725000D02*
X176225000Y-52385000D01*
X192795000Y-49725000D02*
X194125000Y-49725000D01*
X191525000Y-52385000D02*
X176225000Y-52385000D01*
%TO.C,J7*%
X183980000Y-70020000D02*
X181320000Y-70020000D01*
X183980000Y-72620000D02*
X182650000Y-72620000D01*
X183980000Y-70020000D02*
X183980000Y-57260000D01*
X183980000Y-71290000D02*
X183980000Y-72620000D01*
X181320000Y-70020000D02*
X181320000Y-57260000D01*
X183980000Y-57260000D02*
X181320000Y-57260000D01*
%TO.C,INPUT-B-2*%
X217737887Y-52915000D02*
X215077887Y-52915000D01*
X217737887Y-55515000D02*
X217737887Y-52915000D01*
X217737887Y-56785000D02*
X217737887Y-58115000D01*
X217737887Y-55515000D02*
X215077887Y-55515000D01*
X215077887Y-55515000D02*
X215077887Y-52915000D01*
X217737887Y-58115000D02*
X216407887Y-58115000D01*
D14*
%TO.C,D3*%
X180170000Y-71788750D02*
G75*
G03*
X180170000Y-71788750I-50000J0D01*
G01*
D13*
%TO.C,J6*%
X176240000Y-70020000D02*
X176240000Y-62340000D01*
X178900000Y-62340000D02*
X176240000Y-62340000D01*
X178900000Y-70020000D02*
X178900000Y-62340000D01*
X178900000Y-71290000D02*
X178900000Y-72620000D01*
X178900000Y-72620000D02*
X177570000Y-72620000D01*
X178900000Y-70020000D02*
X176240000Y-70020000D01*
%TO.C,INPUT-A-2*%
X217767887Y-68605000D02*
X215107887Y-68605000D01*
X217767887Y-66005000D02*
X215107887Y-66005000D01*
X217767887Y-69875000D02*
X217767887Y-71205000D01*
X215107887Y-68605000D02*
X215107887Y-66005000D01*
X217767887Y-71205000D02*
X216437887Y-71205000D01*
X217767887Y-68605000D02*
X217767887Y-66005000D01*
%TO.C,INPUT-A-1*%
X230767887Y-64050000D02*
X230767887Y-65550000D01*
X229567887Y-74550000D02*
X218567887Y-74550000D01*
X229567887Y-62550000D02*
X229567887Y-64050000D01*
X230767887Y-73050000D02*
X229567887Y-73050000D01*
X229567887Y-64050000D02*
X230767887Y-64050000D01*
X218567887Y-62550000D02*
X229567887Y-62550000D01*
X229567887Y-73050000D02*
X229567887Y-74550000D01*
X232567887Y-71550000D02*
X230767887Y-71550000D01*
X229567887Y-70550000D02*
X232567887Y-70550000D01*
X229567887Y-66550000D02*
X229567887Y-70550000D01*
X232567887Y-66550000D02*
X229567887Y-66550000D01*
X230767887Y-71550000D02*
X230767887Y-73050000D01*
X230767887Y-65550000D02*
X232567887Y-65550000D01*
X232567887Y-65550000D02*
X232567887Y-71550000D01*
X218567887Y-74550000D02*
X218567887Y-62550000D01*
%TD*%
M02*
