999
"DXF R12 Output" (www.mydxf.blogspot.com)
 0 
SECTION
 2 
HEADER
 9 
$ACADVER
 1 
AC1009
 9 
$EXTMIN
 10 
 0 
 20 
 0 
 9 
$EXTMAX
 10 
 8.5 
 20 
 11 
 0 
ENDSEC
 0 
SECTION
 2 
ENTITIES
0
LINE
8
Layer 1
10
50.075000
20
188.082000
11
50.075000
21
190.082000
0
LINE
8
Layer 1
10
100.075000
20
188.082000
11
100.075000
21
190.082000
0
LINE
8
Layer 1
10
150.075000
20
188.082000
11
150.075000
21
190.082000
0
LINE
8
Layer 1
10
200.075000
20
188.082000
11
200.075000
21
190.082000
0
LINE
8
Layer 1
10
250.075000
20
188.082000
11
250.075000
21
190.082000
0
LINE
8
Layer 1
10
26.140500
20
188.494000
11
25.397600
21
188.494000
0
LINE
8
Layer 1
10
25.769000
20
188.494000
11
25.769000
21
189.794000
0
LINE
8
Layer 1
10
25.769000
20
189.794000
11
25.645191
21
189.608286
0
LINE
8
Layer 1
10
25.645191
20
189.608286
11
25.521381
21
189.484476
0
LINE
8
Layer 1
10
25.521381
20
189.484476
11
25.397572
21
189.422572
0
LINE
8
Layer 1
10
75.397600
20
189.670000
11
75.459504
21
189.731904
0
LINE
8
Layer 1
10
75.459504
20
189.731904
11
75.583314
21
189.793809
0
LINE
8
Layer 1
10
75.583314
20
189.793809
11
75.892900
21
189.794000
0
LINE
8
Layer 1
10
75.892900
20
189.794000
11
76.016709
21
189.732095
0
LINE
8
Layer 1
10
76.016709
20
189.732095
11
76.078614
21
189.670191
0
LINE
8
Layer 1
10
76.078614
20
189.670191
11
76.140519
21
189.546381
0
LINE
8
Layer 1
10
76.140519
20
189.546381
11
76.140500
21
189.422000
0
LINE
8
Layer 1
10
76.140500
20
189.422000
11
76.078595
21
189.236285
0
LINE
8
Layer 1
10
76.078595
20
189.236285
11
75.335738
21
188.493428
0
LINE
8
Layer 1
10
75.335738
20
188.493428
11
76.140500
21
188.494000
0
LINE
8
Layer 1
10
125.336000
20
189.794000
11
126.140000
21
189.794000
0
LINE
8
Layer 1
10
126.140000
20
189.794000
11
125.706660
21
189.298762
0
LINE
8
Layer 1
10
125.706660
20
189.298762
11
125.893000
21
189.299000
0
LINE
8
Layer 1
10
125.893000
20
189.299000
11
126.016810
21
189.237095
0
LINE
8
Layer 1
10
126.016810
20
189.237095
11
126.078710
21
189.175191
0
LINE
8
Layer 1
10
126.078710
20
189.175191
11
126.140620
21
189.051381
0
LINE
8
Layer 1
10
126.140620
20
189.051381
11
126.140000
21
188.742000
0
LINE
8
Layer 1
10
126.140000
20
188.742000
11
126.078090
21
188.618191
0
LINE
8
Layer 1
10
126.078090
20
188.618191
11
126.016190
21
188.556286
0
LINE
8
Layer 1
10
126.016190
20
188.556286
11
125.892380
21
188.494381
0
LINE
8
Layer 1
10
125.892380
20
188.494381
11
125.521000
21
188.494000
0
LINE
8
Layer 1
10
125.521000
20
188.494000
11
125.397190
21
188.555905
0
LINE
8
Layer 1
10
125.397190
20
188.555905
11
125.335280
21
188.617810
0
LINE
8
Layer 1
10
176.017000
20
189.361000
11
176.017000
21
188.494000
0
LINE
8
Layer 1
10
175.707000
20
189.856000
11
175.397480
21
188.927429
0
LINE
8
Layer 1
10
175.397480
20
188.927429
11
176.202000
21
188.927000
0
LINE
8
Layer 1
10
226.079000
20
189.794000
11
225.460000
21
189.794000
0
LINE
8
Layer 1
10
225.460000
20
189.794000
11
225.398100
21
189.174953
0
LINE
8
Layer 1
10
225.398100
20
189.174953
11
225.460000
21
189.236857
0
LINE
8
Layer 1
10
225.460000
20
189.236857
11
225.583810
21
189.298762
0
LINE
8
Layer 1
10
225.583810
20
189.298762
11
225.893000
21
189.299000
0
LINE
8
Layer 1
10
225.893000
20
189.299000
11
226.016810
21
189.237095
0
LINE
8
Layer 1
10
226.016810
20
189.237095
11
226.078710
21
189.175191
0
LINE
8
Layer 1
10
226.078710
20
189.175191
11
226.140620
21
189.051381
0
LINE
8
Layer 1
10
226.140620
20
189.051381
11
226.140000
21
188.742000
0
LINE
8
Layer 1
10
226.140000
20
188.742000
11
226.078090
21
188.618191
0
LINE
8
Layer 1
10
226.078090
20
188.618191
11
226.016190
21
188.556286
0
LINE
8
Layer 1
10
226.016190
20
188.556286
11
225.892380
21
188.494381
0
LINE
8
Layer 1
10
225.892380
20
188.494381
11
225.583000
21
188.494000
0
LINE
8
Layer 1
10
225.583000
20
188.494000
11
225.459190
21
188.555905
0
LINE
8
Layer 1
10
225.459190
20
188.555905
11
225.397290
21
188.617810
0
LINE
8
Layer 1
10
276.017000
20
189.794000
11
275.769000
21
189.794000
0
LINE
8
Layer 1
10
275.769000
20
189.794000
11
275.645190
21
189.732095
0
LINE
8
Layer 1
10
275.645190
20
189.732095
11
275.583280
21
189.670191
0
LINE
8
Layer 1
10
275.583280
20
189.670191
11
275.459470
21
189.484476
0
LINE
8
Layer 1
10
275.459470
20
189.484476
11
275.397570
21
189.236857
0
LINE
8
Layer 1
10
275.397570
20
189.236857
11
275.398000
21
188.742000
0
LINE
8
Layer 1
10
275.398000
20
188.742000
11
275.459900
21
188.618191
0
LINE
8
Layer 1
10
275.459900
20
188.618191
11
275.521810
21
188.556286
0
LINE
8
Layer 1
10
275.521810
20
188.556286
11
275.645620
21
188.494381
0
LINE
8
Layer 1
10
275.645620
20
188.494381
11
275.893000
21
188.494000
0
LINE
8
Layer 1
10
275.893000
20
188.494000
11
276.016810
21
188.555905
0
LINE
8
Layer 1
10
276.016810
20
188.555905
11
276.078710
21
188.617810
0
LINE
8
Layer 1
10
276.078710
20
188.617810
11
276.140620
21
188.741619
0
LINE
8
Layer 1
10
276.140620
20
188.741619
11
276.140000
21
189.051000
0
LINE
8
Layer 1
10
276.140000
20
189.051000
11
276.078090
21
189.174810
0
LINE
8
Layer 1
10
276.078090
20
189.174810
11
276.016190
21
189.236714
0
LINE
8
Layer 1
10
276.016190
20
189.236714
11
275.892380
21
189.298619
0
LINE
8
Layer 1
10
275.892380
20
189.298619
11
275.645000
21
189.299000
0
LINE
8
Layer 1
10
275.645000
20
189.299000
11
275.521190
21
189.237095
0
LINE
8
Layer 1
10
275.521190
20
189.237095
11
275.459280
21
189.175191
0
LINE
8
Layer 1
10
275.459280
20
189.175191
11
275.397380
21
189.051381
0
LINE
8
Layer 1
10
50.075000
20
2.074800
11
50.075000
21
0.074800
0
LINE
8
Layer 1
10
100.075000
20
2.074800
11
100.075000
21
0.074800
0
LINE
8
Layer 1
10
150.075000
20
2.074800
11
150.075000
21
0.074800
0
LINE
8
Layer 1
10
200.075000
20
2.074800
11
200.075000
21
0.074800
0
LINE
8
Layer 1
10
250.075000
20
2.074800
11
250.075000
21
0.074800
0
LINE
8
Layer 1
10
26.140500
20
0.486700
11
25.397600
21
0.486700
0
LINE
8
Layer 1
10
25.769000
20
0.486700
11
25.769000
21
1.786700
0
LINE
8
Layer 1
10
25.769000
20
1.786700
11
25.645191
21
1.600990
0
LINE
8
Layer 1
10
25.645191
20
1.600990
11
25.521381
21
1.477180
0
LINE
8
Layer 1
10
25.521381
20
1.477180
11
25.397572
21
1.415280
0
LINE
8
Layer 1
10
75.397600
20
1.662900
11
75.459504
21
1.724800
0
LINE
8
Layer 1
10
75.459504
20
1.724800
11
75.583314
21
1.786700
0
LINE
8
Layer 1
10
75.583314
20
1.786700
11
75.892900
21
1.786700
0
LINE
8
Layer 1
10
75.892900
20
1.786700
11
76.016709
21
1.724800
0
LINE
8
Layer 1
10
76.016709
20
1.724800
11
76.078614
21
1.662900
0
LINE
8
Layer 1
10
76.078614
20
1.662900
11
76.140519
21
1.539090
0
LINE
8
Layer 1
10
76.140519
20
1.539090
11
76.140500
21
1.415280
0
LINE
8
Layer 1
10
76.140500
20
1.415280
11
76.078595
21
1.229560
0
LINE
8
Layer 1
10
76.078595
20
1.229560
11
75.335738
21
0.486700
0
LINE
8
Layer 1
10
75.335738
20
0.486700
11
76.140500
21
0.486700
0
LINE
8
Layer 1
10
125.336000
20
1.786700
11
126.140000
21
1.786700
0
LINE
8
Layer 1
10
126.140000
20
1.786700
11
125.706660
21
1.291470
0
LINE
8
Layer 1
10
125.706660
20
1.291470
11
125.893000
21
1.291470
0
LINE
8
Layer 1
10
125.893000
20
1.291470
11
126.016810
21
1.229560
0
LINE
8
Layer 1
10
126.016810
20
1.229560
11
126.078710
21
1.167660
0
LINE
8
Layer 1
10
126.078710
20
1.167660
11
126.140620
21
1.043850
0
LINE
8
Layer 1
10
126.140620
20
1.043850
11
126.140000
21
0.734320
0
LINE
8
Layer 1
10
126.140000
20
0.734320
11
126.078090
21
0.610510
0
LINE
8
Layer 1
10
126.078090
20
0.610510
11
126.016190
21
0.548610
0
LINE
8
Layer 1
10
126.016190
20
0.548610
11
125.892380
21
0.486700
0
LINE
8
Layer 1
10
125.892380
20
0.486700
11
125.521000
21
0.486700
0
LINE
8
Layer 1
10
125.521000
20
0.486700
11
125.397190
21
0.548610
0
LINE
8
Layer 1
10
125.397190
20
0.548610
11
125.335280
21
0.610510
0
LINE
8
Layer 1
10
176.017000
20
1.353370
11
176.017000
21
0.486700
0
LINE
8
Layer 1
10
175.707000
20
1.848610
11
175.397480
21
0.920040
0
LINE
8
Layer 1
10
175.397480
20
0.920040
11
176.202000
21
0.920040
0
LINE
8
Layer 1
10
226.079000
20
1.786700
11
225.460000
21
1.786700
0
LINE
8
Layer 1
10
225.460000
20
1.786700
11
225.398100
21
1.167660
0
LINE
8
Layer 1
10
225.398100
20
1.167660
11
225.460000
21
1.229560
0
LINE
8
Layer 1
10
225.460000
20
1.229560
11
225.583810
21
1.291470
0
LINE
8
Layer 1
10
225.583810
20
1.291470
11
225.893000
21
1.291470
0
LINE
8
Layer 1
10
225.893000
20
1.291470
11
226.016810
21
1.229560
0
LINE
8
Layer 1
10
226.016810
20
1.229560
11
226.078710
21
1.167660
0
LINE
8
Layer 1
10
226.078710
20
1.167660
11
226.140620
21
1.043850
0
LINE
8
Layer 1
10
226.140620
20
1.043850
11
226.140000
21
0.734320
0
LINE
8
Layer 1
10
226.140000
20
0.734320
11
226.078090
21
0.610510
0
LINE
8
Layer 1
10
226.078090
20
0.610510
11
226.016190
21
0.548610
0
LINE
8
Layer 1
10
226.016190
20
0.548610
11
225.892380
21
0.486700
0
LINE
8
Layer 1
10
225.892380
20
0.486700
11
225.583000
21
0.486700
0
LINE
8
Layer 1
10
225.583000
20
0.486700
11
225.459190
21
0.548610
0
LINE
8
Layer 1
10
225.459190
20
0.548610
11
225.397290
21
0.610510
0
LINE
8
Layer 1
10
276.017000
20
1.786700
11
275.769000
21
1.786700
0
LINE
8
Layer 1
10
275.769000
20
1.786700
11
275.645190
21
1.724800
0
LINE
8
Layer 1
10
275.645190
20
1.724800
11
275.583280
21
1.662900
0
LINE
8
Layer 1
10
275.583280
20
1.662900
11
275.459470
21
1.477180
0
LINE
8
Layer 1
10
275.459470
20
1.477180
11
275.397570
21
1.229560
0
LINE
8
Layer 1
10
275.397570
20
1.229560
11
275.398000
21
0.734320
0
LINE
8
Layer 1
10
275.398000
20
0.734320
11
275.459900
21
0.610510
0
LINE
8
Layer 1
10
275.459900
20
0.610510
11
275.521810
21
0.548610
0
LINE
8
Layer 1
10
275.521810
20
0.548610
11
275.645620
21
0.486700
0
LINE
8
Layer 1
10
275.645620
20
0.486700
11
275.893000
21
0.486700
0
LINE
8
Layer 1
10
275.893000
20
0.486700
11
276.016810
21
0.548610
0
LINE
8
Layer 1
10
276.016810
20
0.548610
11
276.078710
21
0.610510
0
LINE
8
Layer 1
10
276.078710
20
0.610510
11
276.140620
21
0.734320
0
LINE
8
Layer 1
10
276.140620
20
0.734320
11
276.140000
21
1.043850
0
LINE
8
Layer 1
10
276.140000
20
1.043850
11
276.078090
21
1.167660
0
LINE
8
Layer 1
10
276.078090
20
1.167660
11
276.016190
21
1.229560
0
LINE
8
Layer 1
10
276.016190
20
1.229560
11
275.892380
21
1.291470
0
LINE
8
Layer 1
10
275.892380
20
1.291470
11
275.645000
21
1.291470
0
LINE
8
Layer 1
10
275.645000
20
1.291470
11
275.521190
21
1.229560
0
LINE
8
Layer 1
10
275.521190
20
1.229560
11
275.459280
21
1.167660
0
LINE
8
Layer 1
10
275.459280
20
1.167660
11
275.397380
21
1.043850
0
LINE
8
Layer 1
10
0.075000
20
140.082000
11
2.075000
21
140.082000
0
LINE
8
Layer 1
10
0.075000
20
90.082000
11
2.075000
21
90.082000
0
LINE
8
Layer 1
10
0.075000
20
40.082000
11
2.075000
21
40.082000
0
LINE
8
Layer 1
10
0.765476
20
164.865000
11
1.384520
21
164.865000
0
LINE
8
Layer 1
10
0.641666
20
164.494000
11
1.075000
21
165.794000
0
LINE
8
Layer 1
10
1.075000
20
165.794000
11
1.508333
21
164.494000
0
LINE
8
Layer 1
10
1.167860
20
115.175000
11
1.353574
21
115.113095
0
LINE
8
Layer 1
10
1.353574
20
115.113095
11
1.415479
21
115.051190
0
LINE
8
Layer 1
10
1.415479
20
115.051190
11
1.477383
21
114.927381
0
LINE
8
Layer 1
10
1.477383
20
114.927381
11
1.477380
21
114.742000
0
LINE
8
Layer 1
10
1.477380
20
114.742000
11
1.415476
21
114.618191
0
LINE
8
Layer 1
10
1.415476
20
114.618191
11
1.353571
21
114.556286
0
LINE
8
Layer 1
10
1.353571
20
114.556286
11
1.229761
21
114.494381
0
LINE
8
Layer 1
10
1.229761
20
114.494381
11
0.734523
21
114.494000
0
LINE
8
Layer 1
10
0.734523
20
114.494000
11
0.734523
21
115.794000
0
LINE
8
Layer 1
10
0.734523
20
115.794000
11
1.167860
21
115.794000
0
LINE
8
Layer 1
10
1.167860
20
115.794000
11
1.291669
21
115.732095
0
LINE
8
Layer 1
10
1.291669
20
115.732095
11
1.353574
21
115.670191
0
LINE
8
Layer 1
10
1.353574
20
115.670191
11
1.415479
21
115.546381
0
LINE
8
Layer 1
10
1.415479
20
115.546381
11
1.415480
21
115.422000
0
LINE
8
Layer 1
10
1.415480
20
115.422000
11
1.353575
21
115.298190
0
LINE
8
Layer 1
10
1.353575
20
115.298190
11
1.291670
21
115.236285
0
LINE
8
Layer 1
10
1.291670
20
115.236285
11
1.167861
21
115.174381
0
LINE
8
Layer 1
10
1.167861
20
115.174381
11
0.734523
21
115.175000
0
LINE
8
Layer 1
10
1.477380
20
64.617700
11
1.415476
21
64.555800
0
LINE
8
Layer 1
10
1.415476
20
64.555800
11
1.229761
21
64.493890
0
LINE
8
Layer 1
10
1.229761
20
64.493890
11
1.105950
21
64.493900
0
LINE
8
Layer 1
10
1.105950
20
64.493900
11
0.920236
21
64.555810
0
LINE
8
Layer 1
10
0.920236
20
64.555810
11
0.796426
21
64.679620
0
LINE
8
Layer 1
10
0.796426
20
64.679620
11
0.734521
21
64.803430
0
LINE
8
Layer 1
10
0.734521
20
64.803430
11
0.672617
21
65.051050
0
LINE
8
Layer 1
10
0.672617
20
65.051050
11
0.672619
21
65.236800
0
LINE
8
Layer 1
10
0.672619
20
65.236800
11
0.734523
21
65.484420
0
LINE
8
Layer 1
10
0.734523
20
65.484420
11
0.796428
21
65.608230
0
LINE
8
Layer 1
10
0.796428
20
65.608230
11
0.920238
21
65.732040
0
LINE
8
Layer 1
10
0.920238
20
65.732040
11
1.105952
21
65.793940
0
LINE
8
Layer 1
10
1.105952
20
65.793940
11
1.229760
21
65.793900
0
LINE
8
Layer 1
10
1.229760
20
65.793900
11
1.415475
21
65.732000
0
LINE
8
Layer 1
10
1.415475
20
65.732000
11
1.477379
21
65.670100
0
LINE
8
Layer 1
10
0.734523
20
14.493900
11
0.734523
21
15.793900
0
LINE
8
Layer 1
10
0.734523
20
15.793900
11
1.044050
21
15.793900
0
LINE
8
Layer 1
10
1.044050
20
15.793900
11
1.229764
21
15.732000
0
LINE
8
Layer 1
10
1.229764
20
15.732000
11
1.353574
21
15.608190
0
LINE
8
Layer 1
10
1.353574
20
15.608190
11
1.415479
21
15.484380
0
LINE
8
Layer 1
10
1.415479
20
15.484380
11
1.477383
21
15.236760
0
LINE
8
Layer 1
10
1.477383
20
15.236760
11
1.477380
21
15.051100
0
LINE
8
Layer 1
10
1.477380
20
15.051100
11
1.415476
21
14.803480
0
LINE
8
Layer 1
10
1.415476
20
14.803480
11
1.353571
21
14.679670
0
LINE
8
Layer 1
10
1.353571
20
14.679670
11
1.229761
21
14.555860
0
LINE
8
Layer 1
10
1.229761
20
14.555860
11
1.044047
21
14.493950
0
LINE
8
Layer 1
10
1.044047
20
14.493950
11
0.734523
21
14.493900
0
LINE
8
Layer 1
10
277.077000
20
140.082000
11
275.077000
21
140.082000
0
LINE
8
Layer 1
10
277.077000
20
90.082000
11
275.077000
21
90.082000
0
LINE
8
Layer 1
10
277.077000
20
40.082000
11
275.077000
21
40.082000
0
LINE
8
Layer 1
10
275.768000
20
164.865000
11
276.387000
21
164.865000
0
LINE
8
Layer 1
10
275.644000
20
164.494000
11
276.077330
21
165.794000
0
LINE
8
Layer 1
10
276.077330
20
165.794000
11
276.510660
21
164.494000
0
LINE
8
Layer 1
10
276.170000
20
115.175000
11
276.355710
21
115.113095
0
LINE
8
Layer 1
10
276.355710
20
115.113095
11
276.417620
21
115.051190
0
LINE
8
Layer 1
10
276.417620
20
115.051190
11
276.479520
21
114.927381
0
LINE
8
Layer 1
10
276.479520
20
114.927381
11
276.480000
21
114.742000
0
LINE
8
Layer 1
10
276.480000
20
114.742000
11
276.418100
21
114.618191
0
LINE
8
Layer 1
10
276.418100
20
114.618191
11
276.356190
21
114.556286
0
LINE
8
Layer 1
10
276.356190
20
114.556286
11
276.232380
21
114.494381
0
LINE
8
Layer 1
10
276.232380
20
114.494381
11
275.737000
21
114.494000
0
LINE
8
Layer 1
10
275.737000
20
114.494000
11
275.737000
21
115.794000
0
LINE
8
Layer 1
10
275.737000
20
115.794000
11
276.170000
21
115.794000
0
LINE
8
Layer 1
10
276.170000
20
115.794000
11
276.293810
21
115.732095
0
LINE
8
Layer 1
10
276.293810
20
115.732095
11
276.355710
21
115.670191
0
LINE
8
Layer 1
10
276.355710
20
115.670191
11
276.417620
21
115.546381
0
LINE
8
Layer 1
10
276.417620
20
115.546381
11
276.418000
21
115.422000
0
LINE
8
Layer 1
10
276.418000
20
115.422000
11
276.356090
21
115.298190
0
LINE
8
Layer 1
10
276.356090
20
115.298190
11
276.294190
21
115.236285
0
LINE
8
Layer 1
10
276.294190
20
115.236285
11
276.170380
21
115.174381
0
LINE
8
Layer 1
10
276.170380
20
115.174381
11
275.737000
21
115.175000
0
LINE
8
Layer 1
10
276.480000
20
64.617700
11
276.418100
21
64.555800
0
LINE
8
Layer 1
10
276.418100
20
64.555800
11
276.232380
21
64.493890
0
LINE
8
Layer 1
10
276.232380
20
64.493890
11
276.108000
21
64.493900
0
LINE
8
Layer 1
10
276.108000
20
64.493900
11
275.922290
21
64.555810
0
LINE
8
Layer 1
10
275.922290
20
64.555810
11
275.798480
21
64.679620
0
LINE
8
Layer 1
10
275.798480
20
64.679620
11
275.736570
21
64.803430
0
LINE
8
Layer 1
10
275.736570
20
64.803430
11
275.674670
21
65.051050
0
LINE
8
Layer 1
10
275.674670
20
65.051050
11
275.675000
21
65.236800
0
LINE
8
Layer 1
10
275.675000
20
65.236800
11
275.736900
21
65.484420
0
LINE
8
Layer 1
10
275.736900
20
65.484420
11
275.798810
21
65.608230
0
LINE
8
Layer 1
10
275.798810
20
65.608230
11
275.922620
21
65.732040
0
LINE
8
Layer 1
10
275.922620
20
65.732040
11
276.108330
21
65.793940
0
LINE
8
Layer 1
10
276.108330
20
65.793940
11
276.232000
21
65.793900
0
LINE
8
Layer 1
10
276.232000
20
65.793900
11
276.417720
21
65.732000
0
LINE
8
Layer 1
10
276.417720
20
65.732000
11
276.479620
21
65.670100
0
LINE
8
Layer 1
10
275.737000
20
14.493900
11
275.737000
21
15.793900
0
LINE
8
Layer 1
10
275.737000
20
15.793900
11
276.046000
21
15.793900
0
LINE
8
Layer 1
10
276.046000
20
15.793900
11
276.231710
21
15.732000
0
LINE
8
Layer 1
10
276.231710
20
15.732000
11
276.355520
21
15.608190
0
LINE
8
Layer 1
10
276.355520
20
15.608190
11
276.417430
21
15.484380
0
LINE
8
Layer 1
10
276.417430
20
15.484380
11
276.479330
21
15.236760
0
LINE
8
Layer 1
10
276.479330
20
15.236760
11
276.480000
21
15.051100
0
LINE
8
Layer 1
10
276.480000
20
15.051100
11
276.418100
21
14.803480
0
LINE
8
Layer 1
10
276.418100
20
14.803480
11
276.356190
21
14.679670
0
LINE
8
Layer 1
10
276.356190
20
14.679670
11
276.232380
21
14.555860
0
LINE
8
Layer 1
10
276.232380
20
14.555860
11
276.046670
21
14.493950
0
LINE
8
Layer 1
10
276.046670
20
14.493950
11
275.737000
21
14.493900
0
LINE
8
Layer 1
10
190.509000
20
6.296230
11
190.509000
21
7.796230
0
LINE
8
Layer 1
10
190.509000
20
7.796230
11
190.866000
21
7.796230
0
LINE
8
Layer 1
10
190.866000
20
7.796230
11
191.080280
21
7.724800
0
LINE
8
Layer 1
10
191.080280
20
7.724800
11
191.223140
21
7.581940
0
LINE
8
Layer 1
10
191.223140
20
7.581940
11
191.294570
21
7.439090
0
LINE
8
Layer 1
10
191.294570
20
7.439090
11
191.366000
21
7.153370
0
LINE
8
Layer 1
10
191.366000
20
7.153370
11
191.366000
21
6.939090
0
LINE
8
Layer 1
10
191.366000
20
6.939090
11
191.294570
21
6.653370
0
LINE
8
Layer 1
10
191.294570
20
6.653370
11
191.223140
21
6.510510
0
LINE
8
Layer 1
10
191.223140
20
6.510510
11
191.080280
21
6.367660
0
LINE
8
Layer 1
10
191.080280
20
6.367660
11
190.866000
21
6.296230
0
LINE
8
Layer 1
10
190.866000
20
6.296230
11
190.509000
21
6.296230
0
LINE
8
Layer 1
10
192.652000
20
6.296230
11
192.652000
21
7.081940
0
LINE
8
Layer 1
10
192.652000
20
7.081940
11
192.580570
21
7.224800
0
LINE
8
Layer 1
10
192.580570
20
7.224800
11
192.437710
21
7.296230
0
LINE
8
Layer 1
10
192.437710
20
7.296230
11
192.152000
21
7.296230
0
LINE
8
Layer 1
10
192.152000
20
7.296230
11
192.009140
21
7.224800
0
LINE
8
Layer 1
10
192.652000
20
6.367660
11
192.509140
21
6.296230
0
LINE
8
Layer 1
10
192.509140
20
6.296230
11
192.152000
21
6.296230
0
LINE
8
Layer 1
10
192.152000
20
6.296230
11
192.009140
21
6.367660
0
LINE
8
Layer 1
10
192.009140
20
6.367660
11
191.937710
21
6.510510
0
LINE
8
Layer 1
10
191.937710
20
6.510510
11
191.938000
21
6.653370
0
LINE
8
Layer 1
10
191.938000
20
6.653370
11
192.009430
21
6.796230
0
LINE
8
Layer 1
10
192.009430
20
6.796230
11
192.152290
21
6.867660
0
LINE
8
Layer 1
10
192.152290
20
6.867660
11
192.509000
21
6.867660
0
LINE
8
Layer 1
10
192.509000
20
6.867660
11
192.651860
21
6.939090
0
LINE
8
Layer 1
10
193.152000
20
7.296230
11
193.724000
21
7.296230
0
LINE
8
Layer 1
10
193.366000
20
7.796230
11
193.366000
21
6.510510
0
LINE
8
Layer 1
10
193.366000
20
6.510510
11
193.437420
21
6.367660
0
LINE
8
Layer 1
10
193.437420
20
6.367660
11
193.580280
21
6.296230
0
LINE
8
Layer 1
10
193.580280
20
6.296230
11
193.724000
21
6.296230
0
LINE
8
Layer 1
10
194.795000
20
6.367660
11
194.652140
21
6.296230
0
LINE
8
Layer 1
10
194.652140
20
6.296230
11
194.366000
21
6.296230
0
LINE
8
Layer 1
10
194.366000
20
6.296230
11
194.223140
21
6.367660
0
LINE
8
Layer 1
10
194.223140
20
6.367660
11
194.151710
21
6.510510
0
LINE
8
Layer 1
10
194.151710
20
6.510510
11
194.152000
21
7.081940
0
LINE
8
Layer 1
10
194.152000
20
7.081940
11
194.223430
21
7.224800
0
LINE
8
Layer 1
10
194.223430
20
7.224800
11
194.366290
21
7.296230
0
LINE
8
Layer 1
10
194.366290
20
7.296230
11
194.652000
21
7.296230
0
LINE
8
Layer 1
10
194.652000
20
7.296230
11
194.794860
21
7.224800
0
LINE
8
Layer 1
10
194.794860
20
7.224800
11
194.866290
21
7.081940
0
LINE
8
Layer 1
10
194.866290
20
7.081940
11
194.866000
21
6.939090
0
LINE
8
Layer 1
10
194.866000
20
6.939090
11
194.151710
21
6.796230
0
LINE
8
Layer 1
10
195.509000
20
6.439090
11
195.580430
21
6.367660
0
LINE
8
Layer 1
10
195.580430
20
6.367660
11
195.509000
21
6.296230
0
LINE
8
Layer 1
10
195.509000
20
6.296230
11
195.437570
21
6.367660
0
LINE
8
Layer 1
10
195.437570
20
6.367660
11
195.509000
21
6.439090
0
LINE
8
Layer 1
10
195.509000
20
6.439090
11
195.509000
21
6.296230
0
LINE
8
Layer 1
10
195.509000
20
7.224800
11
195.580430
21
7.153370
0
LINE
8
Layer 1
10
195.580430
20
7.153370
11
195.509000
21
7.081940
0
LINE
8
Layer 1
10
195.509000
20
7.081940
11
195.437570
21
7.153370
0
LINE
8
Layer 1
10
195.437570
20
7.153370
11
195.509000
21
7.224800
0
LINE
8
Layer 1
10
195.509000
20
7.224800
11
195.509000
21
7.081940
0
LINE
8
Layer 1
10
167.077000
20
5.574800
11
275.077000
21
5.574800
0
LINE
8
Layer 1
10
168.509000
20
3.496230
11
168.509000
21
4.996230
0
LINE
8
Layer 1
10
169.366000
20
3.496230
11
168.723140
21
4.353370
0
LINE
8
Layer 1
10
169.366000
20
4.996230
11
168.508850
21
4.139090
0
LINE
8
Layer 1
10
170.009000
20
3.496230
11
170.009000
21
4.496230
0
LINE
8
Layer 1
10
170.009000
20
4.996230
11
169.937570
21
4.924800
0
LINE
8
Layer 1
10
169.937570
20
4.924800
11
170.009000
21
4.853370
0
LINE
8
Layer 1
10
170.009000
20
4.853370
11
170.080430
21
4.924800
0
LINE
8
Layer 1
10
170.080430
20
4.924800
11
170.009000
21
4.996230
0
LINE
8
Layer 1
10
170.009000
20
4.996230
11
170.009000
21
4.853370
0
LINE
8
Layer 1
10
171.581000
20
3.639090
11
171.509570
21
3.567660
0
LINE
8
Layer 1
10
171.509570
20
3.567660
11
171.295290
21
3.496230
0
LINE
8
Layer 1
10
171.295290
20
3.496230
11
171.152000
21
3.496230
0
LINE
8
Layer 1
10
171.152000
20
3.496230
11
170.937710
21
3.567660
0
LINE
8
Layer 1
10
170.937710
20
3.567660
11
170.794860
21
3.710510
0
LINE
8
Layer 1
10
170.794860
20
3.710510
11
170.723430
21
3.853370
0
LINE
8
Layer 1
10
170.723430
20
3.853370
11
170.652000
21
4.139090
0
LINE
8
Layer 1
10
170.652000
20
4.139090
11
170.652000
21
4.353370
0
LINE
8
Layer 1
10
170.652000
20
4.353370
11
170.723430
21
4.639090
0
LINE
8
Layer 1
10
170.723430
20
4.639090
11
170.794860
21
4.781940
0
LINE
8
Layer 1
10
170.794860
20
4.781940
11
170.937710
21
4.924800
0
LINE
8
Layer 1
10
170.937710
20
4.924800
11
171.152000
21
4.996230
0
LINE
8
Layer 1
10
171.152000
20
4.996230
11
171.295000
21
4.996230
0
LINE
8
Layer 1
10
171.295000
20
4.996230
11
171.509280
21
4.924800
0
LINE
8
Layer 1
10
171.509280
20
4.924800
11
171.580710
21
4.853370
0
LINE
8
Layer 1
10
172.866000
20
3.496230
11
172.866000
21
4.281940
0
LINE
8
Layer 1
10
172.866000
20
4.281940
11
172.794570
21
4.424800
0
LINE
8
Layer 1
10
172.794570
20
4.424800
11
172.651710
21
4.496230
0
LINE
8
Layer 1
10
172.651710
20
4.496230
11
172.366000
21
4.496230
0
LINE
8
Layer 1
10
172.366000
20
4.496230
11
172.223140
21
4.424800
0
LINE
8
Layer 1
10
172.866000
20
3.567660
11
172.723140
21
3.496230
0
LINE
8
Layer 1
10
172.723140
20
3.496230
11
172.366000
21
3.496230
0
LINE
8
Layer 1
10
172.366000
20
3.496230
11
172.223140
21
3.567660
0
LINE
8
Layer 1
10
172.223140
20
3.567660
11
172.151710
21
3.710510
0
LINE
8
Layer 1
10
172.151710
20
3.710510
11
172.152000
21
3.853370
0
LINE
8
Layer 1
10
172.152000
20
3.853370
11
172.223430
21
3.996230
0
LINE
8
Layer 1
10
172.223430
20
3.996230
11
172.366290
21
4.067660
0
LINE
8
Layer 1
10
172.366290
20
4.067660
11
172.724000
21
4.067660
0
LINE
8
Layer 1
10
172.724000
20
4.067660
11
172.866860
21
4.139090
0
LINE
8
Layer 1
10
174.224000
20
3.496230
11
174.224000
21
4.996230
0
LINE
8
Layer 1
10
174.224000
20
3.567660
11
174.081140
21
3.496230
0
LINE
8
Layer 1
10
174.081140
20
3.496230
11
173.795000
21
3.496230
0
LINE
8
Layer 1
10
173.795000
20
3.496230
11
173.652140
21
3.567660
0
LINE
8
Layer 1
10
173.652140
20
3.567660
11
173.580710
21
3.639090
0
LINE
8
Layer 1
10
173.580710
20
3.639090
11
173.509280
21
3.781940
0
LINE
8
Layer 1
10
173.509280
20
3.781940
11
173.509000
21
4.210510
0
LINE
8
Layer 1
10
173.509000
20
4.210510
11
173.580430
21
4.353370
0
LINE
8
Layer 1
10
173.580430
20
4.353370
11
173.651860
21
4.424800
0
LINE
8
Layer 1
10
173.651860
20
4.424800
11
173.794720
21
4.496230
0
LINE
8
Layer 1
10
173.794720
20
4.496230
11
174.081000
21
4.496230
0
LINE
8
Layer 1
10
174.081000
20
4.496230
11
174.223860
21
4.424800
0
LINE
8
Layer 1
10
176.081000
20
4.281940
11
176.581000
21
4.281940
0
LINE
8
Layer 1
10
176.795000
20
3.496230
11
176.081000
21
3.496230
0
LINE
8
Layer 1
10
176.081000
20
3.496230
11
176.081000
21
4.996230
0
LINE
8
Layer 1
10
176.081000
20
4.996230
11
176.795000
21
4.996230
0
LINE
8
Layer 1
10
177.438000
20
3.639090
11
177.509430
21
3.567660
0
LINE
8
Layer 1
10
177.509430
20
3.567660
11
177.438000
21
3.496230
0
LINE
8
Layer 1
10
177.438000
20
3.496230
11
177.366580
21
3.567660
0
LINE
8
Layer 1
10
177.366580
20
3.567660
11
177.438000
21
3.639090
0
LINE
8
Layer 1
10
177.438000
20
3.639090
11
177.438000
21
3.496230
0
LINE
8
Layer 1
10
178.152000
20
3.496230
11
178.152000
21
4.996230
0
LINE
8
Layer 1
10
178.152000
20
4.996230
11
178.509000
21
4.996230
0
LINE
8
Layer 1
10
178.509000
20
4.996230
11
178.723290
21
4.924800
0
LINE
8
Layer 1
10
178.723290
20
4.924800
11
178.866150
21
4.781940
0
LINE
8
Layer 1
10
178.866150
20
4.781940
11
178.937570
21
4.639090
0
LINE
8
Layer 1
10
178.937570
20
4.639090
11
179.009000
21
4.353370
0
LINE
8
Layer 1
10
179.009000
20
4.353370
11
179.009000
21
4.139090
0
LINE
8
Layer 1
10
179.009000
20
4.139090
11
178.937570
21
3.853370
0
LINE
8
Layer 1
10
178.937570
20
3.853370
11
178.866150
21
3.710510
0
LINE
8
Layer 1
10
178.866150
20
3.710510
11
178.723290
21
3.567660
0
LINE
8
Layer 1
10
178.723290
20
3.567660
11
178.509000
21
3.496230
0
LINE
8
Layer 1
10
178.509000
20
3.496230
11
178.152000
21
3.496230
0
LINE
8
Layer 1
10
179.652000
20
3.639090
11
179.723430
21
3.567660
0
LINE
8
Layer 1
10
179.723430
20
3.567660
11
179.652000
21
3.496230
0
LINE
8
Layer 1
10
179.652000
20
3.496230
11
179.580570
21
3.567660
0
LINE
8
Layer 1
10
179.580570
20
3.567660
11
179.652000
21
3.639090
0
LINE
8
Layer 1
10
179.652000
20
3.639090
11
179.652000
21
3.496230
0
LINE
8
Layer 1
10
180.295000
20
3.924800
11
181.009000
21
3.924800
0
LINE
8
Layer 1
10
180.152000
20
3.496230
11
180.652000
21
4.996230
0
LINE
8
Layer 1
10
180.652000
20
4.996230
11
181.152000
21
3.496230
0
LINE
8
Layer 1
10
181.652000
20
3.639090
11
181.723430
21
3.567660
0
LINE
8
Layer 1
10
181.723430
20
3.567660
11
181.652000
21
3.496230
0
LINE
8
Layer 1
10
181.652000
20
3.496230
11
181.580570
21
3.567660
0
LINE
8
Layer 1
10
181.580570
20
3.567660
11
181.652000
21
3.639090
0
LINE
8
Layer 1
10
181.652000
20
3.639090
11
181.652000
21
3.496230
0
LINE
8
Layer 1
10
184.652000
20
3.496230
11
184.652000
21
4.996230
0
LINE
8
Layer 1
10
184.795000
20
4.067660
11
185.223570
21
3.496230
0
LINE
8
Layer 1
10
185.224000
20
4.496230
11
184.652570
21
3.924800
0
LINE
8
Layer 1
10
185.866000
20
3.496230
11
185.866000
21
4.496230
0
LINE
8
Layer 1
10
185.866000
20
4.996230
11
185.794570
21
4.924800
0
LINE
8
Layer 1
10
185.794570
20
4.924800
11
185.866000
21
4.853370
0
LINE
8
Layer 1
10
185.866000
20
4.853370
11
185.937420
21
4.924800
0
LINE
8
Layer 1
10
185.937420
20
4.924800
11
185.866000
21
4.996230
0
LINE
8
Layer 1
10
185.866000
20
4.996230
11
185.866000
21
4.853370
0
LINE
8
Layer 1
10
187.224000
20
3.567660
11
187.081140
21
3.496230
0
LINE
8
Layer 1
10
187.081140
20
3.496230
11
186.795000
21
3.496230
0
LINE
8
Layer 1
10
186.795000
20
3.496230
11
186.652140
21
3.567660
0
LINE
8
Layer 1
10
186.652140
20
3.567660
11
186.580710
21
3.639090
0
LINE
8
Layer 1
10
186.580710
20
3.639090
11
186.509280
21
3.781940
0
LINE
8
Layer 1
10
186.509280
20
3.781940
11
186.509000
21
4.210510
0
LINE
8
Layer 1
10
186.509000
20
4.210510
11
186.580430
21
4.353370
0
LINE
8
Layer 1
10
186.580430
20
4.353370
11
186.651860
21
4.424800
0
LINE
8
Layer 1
10
186.651860
20
4.424800
11
186.794720
21
4.496230
0
LINE
8
Layer 1
10
186.794720
20
4.496230
11
187.081000
21
4.496230
0
LINE
8
Layer 1
10
187.081000
20
4.496230
11
187.223860
21
4.424800
0
LINE
8
Layer 1
10
188.509000
20
3.496230
11
188.509000
21
4.281940
0
LINE
8
Layer 1
10
188.509000
20
4.281940
11
188.437570
21
4.424800
0
LINE
8
Layer 1
10
188.437570
20
4.424800
11
188.294720
21
4.496230
0
LINE
8
Layer 1
10
188.294720
20
4.496230
11
188.009000
21
4.496230
0
LINE
8
Layer 1
10
188.009000
20
4.496230
11
187.866150
21
4.424800
0
LINE
8
Layer 1
10
188.509000
20
3.567660
11
188.366150
21
3.496230
0
LINE
8
Layer 1
10
188.366150
20
3.496230
11
188.009000
21
3.496230
0
LINE
8
Layer 1
10
188.009000
20
3.496230
11
187.866150
21
3.567660
0
LINE
8
Layer 1
10
187.866150
20
3.567660
11
187.794720
21
3.710510
0
LINE
8
Layer 1
10
187.794720
20
3.710510
11
187.795000
21
3.853370
0
LINE
8
Layer 1
10
187.795000
20
3.853370
11
187.866430
21
3.996230
0
LINE
8
Layer 1
10
187.866430
20
3.996230
11
188.009280
21
4.067660
0
LINE
8
Layer 1
10
188.009280
20
4.067660
11
188.366000
21
4.067660
0
LINE
8
Layer 1
10
188.366000
20
4.067660
11
188.508850
21
4.139090
0
LINE
8
Layer 1
10
189.866000
20
3.496230
11
189.866000
21
4.996230
0
LINE
8
Layer 1
10
189.866000
20
3.567660
11
189.723140
21
3.496230
0
LINE
8
Layer 1
10
189.723140
20
3.496230
11
189.438000
21
3.496230
0
LINE
8
Layer 1
10
189.438000
20
3.496230
11
189.295150
21
3.567660
0
LINE
8
Layer 1
10
189.295150
20
3.567660
11
189.223720
21
3.639090
0
LINE
8
Layer 1
10
189.223720
20
3.639090
11
189.152290
21
3.781940
0
LINE
8
Layer 1
10
189.152290
20
3.781940
11
189.152000
21
4.210510
0
LINE
8
Layer 1
10
189.152000
20
4.210510
11
189.223430
21
4.353370
0
LINE
8
Layer 1
10
189.223430
20
4.353370
11
189.294860
21
4.424800
0
LINE
8
Layer 1
10
189.294860
20
4.424800
11
189.437710
21
4.496230
0
LINE
8
Layer 1
10
189.437710
20
4.496230
11
189.724000
21
4.496230
0
LINE
8
Layer 1
10
189.724000
20
4.496230
11
189.866860
21
4.424800
0
LINE
8
Layer 1
10
192.152000
20
2.924800
11
192.080570
21
2.996230
0
LINE
8
Layer 1
10
192.080570
20
2.996230
11
191.937710
21
3.210510
0
LINE
8
Layer 1
10
191.937710
20
3.210510
11
191.866290
21
3.353370
0
LINE
8
Layer 1
10
191.866290
20
3.353370
11
191.794860
21
3.567660
0
LINE
8
Layer 1
10
191.794860
20
3.567660
11
191.723430
21
3.924800
0
LINE
8
Layer 1
10
191.723430
20
3.924800
11
191.724000
21
4.210510
0
LINE
8
Layer 1
10
191.724000
20
4.210510
11
191.795430
21
4.567660
0
LINE
8
Layer 1
10
191.795430
20
4.567660
11
191.866860
21
4.781940
0
LINE
8
Layer 1
10
191.866860
20
4.781940
11
191.938280
21
4.924800
0
LINE
8
Layer 1
10
191.938280
20
4.924800
11
192.081140
21
5.139090
0
LINE
8
Layer 1
10
192.081140
20
5.139090
11
192.152570
21
5.210510
0
LINE
8
Layer 1
10
193.366000
20
4.996230
11
193.081000
21
4.996230
0
LINE
8
Layer 1
10
193.081000
20
4.996230
11
192.938140
21
4.924800
0
LINE
8
Layer 1
10
192.938140
20
4.924800
11
192.866720
21
4.853370
0
LINE
8
Layer 1
10
192.866720
20
4.853370
11
192.723860
21
4.639090
0
LINE
8
Layer 1
10
192.723860
20
4.639090
11
192.652430
21
4.353370
0
LINE
8
Layer 1
10
192.652430
20
4.353370
11
192.652000
21
3.781940
0
LINE
8
Layer 1
10
192.652000
20
3.781940
11
192.723430
21
3.639090
0
LINE
8
Layer 1
10
192.723430
20
3.639090
11
192.794860
21
3.567660
0
LINE
8
Layer 1
10
192.794860
20
3.567660
11
192.937710
21
3.496230
0
LINE
8
Layer 1
10
192.937710
20
3.496230
11
193.224000
21
3.496230
0
LINE
8
Layer 1
10
193.224000
20
3.496230
11
193.366860
21
3.567660
0
LINE
8
Layer 1
10
193.366860
20
3.567660
11
193.438280
21
3.639090
0
LINE
8
Layer 1
10
193.438280
20
3.639090
11
193.509710
21
3.781940
0
LINE
8
Layer 1
10
193.509710
20
3.781940
11
193.509000
21
4.139090
0
LINE
8
Layer 1
10
193.509000
20
4.139090
11
193.437570
21
4.281940
0
LINE
8
Layer 1
10
193.437570
20
4.281940
11
193.366150
21
4.353370
0
LINE
8
Layer 1
10
193.366150
20
4.353370
11
193.223290
21
4.424800
0
LINE
8
Layer 1
10
193.223290
20
4.424800
11
192.938000
21
4.424800
0
LINE
8
Layer 1
10
192.938000
20
4.424800
11
192.795150
21
4.353370
0
LINE
8
Layer 1
10
192.795150
20
4.353370
11
192.723720
21
4.281940
0
LINE
8
Layer 1
10
192.723720
20
4.281940
11
192.652290
21
4.139090
0
LINE
8
Layer 1
10
194.152000
20
3.639090
11
194.223430
21
3.567660
0
LINE
8
Layer 1
10
194.223430
20
3.567660
11
194.152000
21
3.496230
0
LINE
8
Layer 1
10
194.152000
20
3.496230
11
194.080570
21
3.567660
0
LINE
8
Layer 1
10
194.080570
20
3.567660
11
194.152000
21
3.639090
0
LINE
8
Layer 1
10
194.152000
20
3.639090
11
194.152000
21
3.496230
0
LINE
8
Layer 1
10
195.152000
20
4.996230
11
195.295000
21
4.996230
0
LINE
8
Layer 1
10
195.295000
20
4.996230
11
195.437850
21
4.924800
0
LINE
8
Layer 1
10
195.437850
20
4.924800
11
195.509280
21
4.853370
0
LINE
8
Layer 1
10
195.509280
20
4.853370
11
195.580710
21
4.710510
0
LINE
8
Layer 1
10
195.580710
20
4.710510
11
195.652140
21
4.424800
0
LINE
8
Layer 1
10
195.652140
20
4.424800
11
195.652000
21
4.067660
0
LINE
8
Layer 1
10
195.652000
20
4.067660
11
195.580570
21
3.781940
0
LINE
8
Layer 1
10
195.580570
20
3.781940
11
195.509140
21
3.639090
0
LINE
8
Layer 1
10
195.509140
20
3.639090
11
195.437710
21
3.567660
0
LINE
8
Layer 1
10
195.437710
20
3.567660
11
195.294860
21
3.496230
0
LINE
8
Layer 1
10
195.294860
20
3.496230
11
195.152000
21
3.496230
0
LINE
8
Layer 1
10
195.152000
20
3.496230
11
195.009140
21
3.567660
0
LINE
8
Layer 1
10
195.009140
20
3.567660
11
194.937710
21
3.639090
0
LINE
8
Layer 1
10
194.937710
20
3.639090
11
194.866290
21
3.781940
0
LINE
8
Layer 1
10
194.866290
20
3.781940
11
194.794860
21
4.067660
0
LINE
8
Layer 1
10
194.794860
20
4.067660
11
194.795000
21
4.424800
0
LINE
8
Layer 1
10
194.795000
20
4.424800
11
194.866430
21
4.710510
0
LINE
8
Layer 1
10
194.866430
20
4.710510
11
194.937850
21
4.853370
0
LINE
8
Layer 1
10
194.937850
20
4.853370
11
195.009280
21
4.924800
0
LINE
8
Layer 1
10
195.009280
20
4.924800
11
195.152140
21
4.996230
0
LINE
8
Layer 1
10
196.295000
20
3.639090
11
196.366430
21
3.567660
0
LINE
8
Layer 1
10
196.366430
20
3.567660
11
196.295000
21
3.496230
0
LINE
8
Layer 1
10
196.295000
20
3.496230
11
196.223570
21
3.567660
0
LINE
8
Layer 1
10
196.223570
20
3.567660
11
196.295000
21
3.639090
0
LINE
8
Layer 1
10
196.295000
20
3.639090
11
196.295000
21
3.496230
0
LINE
8
Layer 1
10
196.866000
20
4.996230
11
197.866000
21
4.996230
0
LINE
8
Layer 1
10
197.866000
20
4.996230
11
197.223140
21
3.496230
0
LINE
8
Layer 1
10
198.295000
20
2.924800
11
198.366430
21
2.996230
0
LINE
8
Layer 1
10
198.366430
20
2.996230
11
198.509280
21
3.210510
0
LINE
8
Layer 1
10
198.509280
20
3.210510
11
198.580710
21
3.353370
0
LINE
8
Layer 1
10
198.580710
20
3.353370
11
198.652140
21
3.567660
0
LINE
8
Layer 1
10
198.652140
20
3.567660
11
198.723570
21
3.924800
0
LINE
8
Layer 1
10
198.723570
20
3.924800
11
198.724000
21
4.210510
0
LINE
8
Layer 1
10
198.724000
20
4.210510
11
198.652570
21
4.567660
0
LINE
8
Layer 1
10
198.652570
20
4.567660
11
198.581140
21
4.781940
0
LINE
8
Layer 1
10
198.581140
20
4.781940
11
198.509710
21
4.924800
0
LINE
8
Layer 1
10
198.509710
20
4.924800
11
198.366860
21
5.139090
0
LINE
8
Layer 1
10
198.366860
20
5.139090
11
198.295430
21
5.210510
0
LINE
8
Layer 1
10
167.077000
20
8.574800
11
275.077000
21
8.574800
0
LINE
8
Layer 1
10
254.486000
20
6.296230
11
253.986000
21
7.010510
0
LINE
8
Layer 1
10
253.629000
20
6.296230
11
253.629000
21
7.796230
0
LINE
8
Layer 1
10
253.629000
20
7.796230
11
254.201000
21
7.796230
0
LINE
8
Layer 1
10
254.201000
20
7.796230
11
254.343860
21
7.724800
0
LINE
8
Layer 1
10
254.343860
20
7.724800
11
254.415290
21
7.653370
0
LINE
8
Layer 1
10
254.415290
20
7.653370
11
254.486720
21
7.510510
0
LINE
8
Layer 1
10
254.486720
20
7.510510
11
254.486000
21
7.296230
0
LINE
8
Layer 1
10
254.486000
20
7.296230
11
254.414570
21
7.153370
0
LINE
8
Layer 1
10
254.414570
20
7.153370
11
254.343140
21
7.081940
0
LINE
8
Layer 1
10
254.343140
20
7.081940
11
254.200280
21
7.010510
0
LINE
8
Layer 1
10
254.200280
20
7.010510
11
253.629000
21
7.010510
0
LINE
8
Layer 1
10
255.701000
20
6.367660
11
255.558140
21
6.296230
0
LINE
8
Layer 1
10
255.558140
20
6.296230
11
255.272000
21
6.296230
0
LINE
8
Layer 1
10
255.272000
20
6.296230
11
255.129140
21
6.367660
0
LINE
8
Layer 1
10
255.129140
20
6.367660
11
255.057710
21
6.510510
0
LINE
8
Layer 1
10
255.057710
20
6.510510
11
255.058000
21
7.081940
0
LINE
8
Layer 1
10
255.058000
20
7.081940
11
255.129430
21
7.224800
0
LINE
8
Layer 1
10
255.129430
20
7.224800
11
255.272290
21
7.296230
0
LINE
8
Layer 1
10
255.272290
20
7.296230
11
255.558000
21
7.296230
0
LINE
8
Layer 1
10
255.558000
20
7.296230
11
255.700860
21
7.224800
0
LINE
8
Layer 1
10
255.700860
20
7.224800
11
255.772290
21
7.081940
0
LINE
8
Layer 1
10
255.772290
20
7.081940
11
255.772000
21
6.939090
0
LINE
8
Layer 1
10
255.772000
20
6.939090
11
255.057710
21
6.796230
0
LINE
8
Layer 1
10
256.272000
20
7.296230
11
256.629140
21
6.296230
0
LINE
8
Layer 1
10
256.629140
20
6.296230
11
256.986290
21
7.296230
0
LINE
8
Layer 1
10
257.558000
20
6.439090
11
257.629430
21
6.367660
0
LINE
8
Layer 1
10
257.629430
20
6.367660
11
257.558000
21
6.296230
0
LINE
8
Layer 1
10
257.558000
20
6.296230
11
257.486580
21
6.367660
0
LINE
8
Layer 1
10
257.486580
20
6.367660
11
257.558000
21
6.439090
0
LINE
8
Layer 1
10
257.558000
20
6.439090
11
257.558000
21
6.296230
0
LINE
8
Layer 1
10
257.558000
20
7.224800
11
257.629430
21
7.153370
0
LINE
8
Layer 1
10
257.629430
20
7.153370
11
257.558000
21
7.081940
0
LINE
8
Layer 1
10
257.558000
20
7.081940
11
257.486580
21
7.153370
0
LINE
8
Layer 1
10
257.486580
20
7.153370
11
257.558000
21
7.224800
0
LINE
8
Layer 1
10
257.558000
20
7.224800
11
257.558000
21
7.081940
0
LINE
8
Layer 1
10
168.438000
20
6.367660
11
168.652290
21
6.296230
0
LINE
8
Layer 1
10
168.652290
20
6.296230
11
169.009000
21
6.296230
0
LINE
8
Layer 1
10
169.009000
20
6.296230
11
169.151860
21
6.367660
0
LINE
8
Layer 1
10
169.151860
20
6.367660
11
169.223290
21
6.439090
0
LINE
8
Layer 1
10
169.223290
20
6.439090
11
169.294720
21
6.581940
0
LINE
8
Layer 1
10
169.294720
20
6.581940
11
169.295000
21
6.724800
0
LINE
8
Layer 1
10
169.295000
20
6.724800
11
169.223570
21
6.867660
0
LINE
8
Layer 1
10
169.223570
20
6.867660
11
169.152140
21
6.939090
0
LINE
8
Layer 1
10
169.152140
20
6.939090
11
169.009280
21
7.010510
0
LINE
8
Layer 1
10
169.009280
20
7.010510
11
168.723570
21
7.081940
0
LINE
8
Layer 1
10
168.723570
20
7.081940
11
168.580710
21
7.153370
0
LINE
8
Layer 1
10
168.580710
20
7.153370
11
168.509280
21
7.224800
0
LINE
8
Layer 1
10
168.509280
20
7.224800
11
168.437850
21
7.367660
0
LINE
8
Layer 1
10
168.437850
20
7.367660
11
168.438000
21
7.510510
0
LINE
8
Layer 1
10
168.438000
20
7.510510
11
168.509430
21
7.653370
0
LINE
8
Layer 1
10
168.509430
20
7.653370
11
168.580860
21
7.724800
0
LINE
8
Layer 1
10
168.580860
20
7.724800
11
168.723720
21
7.796230
0
LINE
8
Layer 1
10
168.723720
20
7.796230
11
169.081000
21
7.796230
0
LINE
8
Layer 1
10
169.081000
20
7.796230
11
169.295290
21
7.724800
0
LINE
8
Layer 1
10
169.938000
20
6.296230
11
169.938000
21
7.296230
0
LINE
8
Layer 1
10
169.938000
20
7.796230
11
169.866580
21
7.724800
0
LINE
8
Layer 1
10
169.866580
20
7.724800
11
169.938000
21
7.653370
0
LINE
8
Layer 1
10
169.938000
20
7.653370
11
170.009430
21
7.724800
0
LINE
8
Layer 1
10
170.009430
20
7.724800
11
169.938000
21
7.796230
0
LINE
8
Layer 1
10
169.938000
20
7.796230
11
169.938000
21
7.653370
0
LINE
8
Layer 1
10
170.509000
20
7.296230
11
171.295000
21
7.296230
0
LINE
8
Layer 1
10
171.295000
20
7.296230
11
170.509280
21
6.296230
0
LINE
8
Layer 1
10
170.509280
20
6.296230
11
171.295000
21
6.296230
0
LINE
8
Layer 1
10
172.438000
20
6.367660
11
172.295150
21
6.296230
0
LINE
8
Layer 1
10
172.295150
20
6.296230
11
172.009000
21
6.296230
0
LINE
8
Layer 1
10
172.009000
20
6.296230
11
171.866150
21
6.367660
0
LINE
8
Layer 1
10
171.866150
20
6.367660
11
171.794720
21
6.510510
0
LINE
8
Layer 1
10
171.794720
20
6.510510
11
171.795000
21
7.081940
0
LINE
8
Layer 1
10
171.795000
20
7.081940
11
171.866430
21
7.224800
0
LINE
8
Layer 1
10
171.866430
20
7.224800
11
172.009280
21
7.296230
0
LINE
8
Layer 1
10
172.009280
20
7.296230
11
172.295000
21
7.296230
0
LINE
8
Layer 1
10
172.295000
20
7.296230
11
172.437850
21
7.224800
0
LINE
8
Layer 1
10
172.437850
20
7.224800
11
172.509280
21
7.081940
0
LINE
8
Layer 1
10
172.509280
20
7.081940
11
172.509000
21
6.939090
0
LINE
8
Layer 1
10
172.509000
20
6.939090
11
171.794720
21
6.796230
0
LINE
8
Layer 1
10
173.152000
20
6.439090
11
173.223430
21
6.367660
0
LINE
8
Layer 1
10
173.223430
20
6.367660
11
173.152000
21
6.296230
0
LINE
8
Layer 1
10
173.152000
20
6.296230
11
173.080570
21
6.367660
0
LINE
8
Layer 1
10
173.080570
20
6.367660
11
173.152000
21
6.439090
0
LINE
8
Layer 1
10
173.152000
20
6.439090
11
173.152000
21
6.296230
0
LINE
8
Layer 1
10
173.152000
20
7.224800
11
173.223430
21
7.153370
0
LINE
8
Layer 1
10
173.223430
20
7.153370
11
173.152000
21
7.081940
0
LINE
8
Layer 1
10
173.152000
20
7.081940
11
173.080570
21
7.153370
0
LINE
8
Layer 1
10
173.080570
20
7.153370
11
173.152000
21
7.224800
0
LINE
8
Layer 1
10
173.152000
20
7.224800
11
173.152000
21
7.081940
0
LINE
8
Layer 1
10
174.938000
20
6.724800
11
175.652000
21
6.724800
0
LINE
8
Layer 1
10
174.795000
20
6.296230
11
175.295000
21
7.796230
0
LINE
8
Layer 1
10
175.295000
20
7.796230
11
175.795000
21
6.296230
0
LINE
8
Layer 1
10
176.938000
20
7.296230
11
176.938000
21
6.296230
0
LINE
8
Layer 1
10
176.581000
20
7.867660
11
176.223860
21
6.796230
0
LINE
8
Layer 1
10
176.223860
20
6.796230
11
177.152000
21
6.796230
0
LINE
8
Layer 1
10
253.509000
20
3.496230
11
253.509000
21
4.996230
0
LINE
8
Layer 1
10
254.866000
20
3.496230
11
254.866000
21
4.996230
0
LINE
8
Layer 1
10
254.866000
20
3.567660
11
254.723140
21
3.496230
0
LINE
8
Layer 1
10
254.723140
20
3.496230
11
254.438000
21
3.496230
0
LINE
8
Layer 1
10
254.438000
20
3.496230
11
254.295150
21
3.567660
0
LINE
8
Layer 1
10
254.295150
20
3.567660
11
254.223720
21
3.639090
0
LINE
8
Layer 1
10
254.223720
20
3.639090
11
254.152290
21
3.781940
0
LINE
8
Layer 1
10
254.152290
20
3.781940
11
254.152000
21
4.210510
0
LINE
8
Layer 1
10
254.152000
20
4.210510
11
254.223430
21
4.353370
0
LINE
8
Layer 1
10
254.223430
20
4.353370
11
254.294860
21
4.424800
0
LINE
8
Layer 1
10
254.294860
20
4.424800
11
254.437710
21
4.496230
0
LINE
8
Layer 1
10
254.437710
20
4.496230
11
254.724000
21
4.496230
0
LINE
8
Layer 1
10
254.724000
20
4.496230
11
254.866860
21
4.424800
0
LINE
8
Layer 1
10
255.581000
20
3.639090
11
255.652430
21
3.567660
0
LINE
8
Layer 1
10
255.652430
20
3.567660
11
255.581000
21
3.496230
0
LINE
8
Layer 1
10
255.581000
20
3.496230
11
255.509570
21
3.567660
0
LINE
8
Layer 1
10
255.509570
20
3.567660
11
255.581000
21
3.639090
0
LINE
8
Layer 1
10
255.581000
20
3.639090
11
255.581000
21
3.496230
0
LINE
8
Layer 1
10
255.581000
20
4.424800
11
255.652430
21
4.353370
0
LINE
8
Layer 1
10
255.652430
20
4.353370
11
255.581000
21
4.281940
0
LINE
8
Layer 1
10
255.581000
20
4.281940
11
255.509570
21
4.353370
0
LINE
8
Layer 1
10
255.509570
20
4.353370
11
255.581000
21
4.424800
0
LINE
8
Layer 1
10
255.581000
20
4.424800
11
255.581000
21
4.281940
0
LINE
8
Layer 1
10
258.224000
20
3.496230
11
257.366000
21
3.496230
0
LINE
8
Layer 1
10
257.795000
20
3.496230
11
257.795000
21
4.996230
0
LINE
8
Layer 1
10
257.795000
20
4.996230
11
257.652140
21
4.781940
0
LINE
8
Layer 1
10
257.652140
20
4.781940
11
257.509280
21
4.639090
0
LINE
8
Layer 1
10
257.509280
20
4.639090
11
257.366430
21
4.567660
0
LINE
8
Layer 1
10
259.938000
20
5.067660
11
258.652290
21
3.139090
0
LINE
8
Layer 1
10
261.224000
20
3.496230
11
260.366000
21
3.496230
0
LINE
8
Layer 1
10
260.795000
20
3.496230
11
260.795000
21
4.996230
0
LINE
8
Layer 1
10
260.795000
20
4.996230
11
260.652140
21
4.781940
0
LINE
8
Layer 1
10
260.652140
20
4.781940
11
260.509280
21
4.639090
0
LINE
8
Layer 1
10
260.509280
20
4.639090
11
260.366430
21
4.567660
0
LINE
8
Layer 1
10
167.077000
20
12.574800
11
275.077000
21
12.574800
0
LINE
8
Layer 1
10
168.790000
20
11.870000
11
169.932000
21
11.870000
0
LINE
8
Layer 1
10
169.111000
20
9.870040
11
169.361000
21
11.870040
0
LINE
8
Layer 1
10
170.349000
20
9.870040
11
170.515670
21
11.203370
0
LINE
8
Layer 1
10
170.599000
20
11.870000
11
170.491860
21
11.774760
0
LINE
8
Layer 1
10
170.491860
20
11.774760
11
170.575200
21
11.679520
0
LINE
8
Layer 1
10
170.575200
20
11.679520
11
170.682340
21
11.774760
0
LINE
8
Layer 1
10
170.682340
20
11.774760
11
170.599000
21
11.870000
0
LINE
8
Layer 1
10
170.599000
20
11.870000
11
170.575200
21
11.679520
0
LINE
8
Layer 1
10
171.182000
20
11.203400
11
171.944000
21
11.203400
0
LINE
8
Layer 1
10
171.551000
20
11.870000
11
171.336710
21
10.155710
0
LINE
8
Layer 1
10
171.336710
20
10.155710
11
171.408140
21
9.965240
0
LINE
8
Layer 1
10
171.408140
20
9.965240
11
171.586710
21
9.870000
0
LINE
8
Layer 1
10
171.586710
20
9.870000
11
171.778000
21
9.870040
0
LINE
8
Layer 1
10
172.730000
20
9.870040
11
172.551430
21
9.965280
0
LINE
8
Layer 1
10
172.551430
20
9.965280
11
172.480000
21
10.155750
0
LINE
8
Layer 1
10
172.480000
20
10.155750
11
172.694280
21
11.870040
0
LINE
8
Layer 1
10
174.266000
20
9.965280
11
174.063620
21
9.870040
0
LINE
8
Layer 1
10
174.063620
20
9.870040
11
173.682000
21
9.870040
0
LINE
8
Layer 1
10
173.682000
20
9.870040
11
173.503430
21
9.965280
0
LINE
8
Layer 1
10
173.503430
20
9.965280
11
173.432000
21
10.155750
0
LINE
8
Layer 1
10
173.432000
20
10.155750
11
173.527240
21
10.917660
0
LINE
8
Layer 1
10
173.527240
20
10.917660
11
173.646280
21
11.108130
0
LINE
8
Layer 1
10
173.646280
20
11.108130
11
173.848660
21
11.203370
0
LINE
8
Layer 1
10
173.848660
20
11.203370
11
174.230000
21
11.203400
0
LINE
8
Layer 1
10
174.230000
20
11.203400
11
174.408570
21
11.108160
0
LINE
8
Layer 1
10
174.408570
20
11.108160
11
174.480000
21
10.917690
0
LINE
8
Layer 1
10
174.480000
20
10.917690
11
174.456190
21
10.727210
0
LINE
8
Layer 1
10
174.456190
20
10.727210
11
173.480000
21
10.536730
0
LINE
8
Layer 1
10
175.230000
20
10.060500
11
175.313330
21
9.965270
0
LINE
8
Layer 1
10
175.313330
20
9.965270
11
175.206190
21
9.870030
0
LINE
8
Layer 1
10
175.206190
20
9.870030
11
175.122850
21
9.965270
0
LINE
8
Layer 1
10
175.122850
20
9.965270
11
175.230000
21
10.060500
0
LINE
8
Layer 1
10
175.230000
20
10.060500
11
175.206190
21
9.870030
0
LINE
8
Layer 1
10
175.361000
20
11.108100
11
175.444330
21
11.012870
0
LINE
8
Layer 1
10
175.444330
20
11.012870
11
175.337190
21
10.917630
0
LINE
8
Layer 1
10
175.337190
20
10.917630
11
175.253860
21
11.012870
0
LINE
8
Layer 1
10
175.253860
20
11.012870
11
175.361000
21
11.108100
0
LINE
8
Layer 1
10
175.361000
20
11.108100
11
175.337190
21
10.917630
0
LINE
8
Layer 1
10
169.009000
20
14.481900
11
168.509000
21
14.481900
0
LINE
8
Layer 1
10
168.509000
20
13.696200
11
168.509000
21
15.196200
0
LINE
8
Layer 1
10
168.509000
20
15.196200
11
169.224000
21
15.196200
0
LINE
8
Layer 1
10
169.795000
20
13.696200
11
169.795000
21
14.696200
0
LINE
8
Layer 1
10
169.795000
20
15.196200
11
169.723570
21
15.124770
0
LINE
8
Layer 1
10
169.723570
20
15.124770
11
169.795000
21
15.053340
0
LINE
8
Layer 1
10
169.795000
20
15.053340
11
169.866430
21
15.124770
0
LINE
8
Layer 1
10
169.866430
20
15.124770
11
169.795000
21
15.196200
0
LINE
8
Layer 1
10
169.795000
20
15.196200
11
169.795000
21
15.053400
0
LINE
8
Layer 1
10
170.724000
20
13.696200
11
170.581140
21
13.767630
0
LINE
8
Layer 1
10
170.581140
20
13.767630
11
170.509710
21
13.910480
0
LINE
8
Layer 1
10
170.509710
20
13.910480
11
170.509000
21
15.196200
0
LINE
8
Layer 1
10
171.866000
20
13.767700
11
171.723140
21
13.696270
0
LINE
8
Layer 1
10
171.723140
20
13.696270
11
171.438000
21
13.696200
0
LINE
8
Layer 1
10
171.438000
20
13.696200
11
171.295150
21
13.767630
0
LINE
8
Layer 1
10
171.295150
20
13.767630
11
171.223720
21
13.910480
0
LINE
8
Layer 1
10
171.223720
20
13.910480
11
171.224000
21
14.481900
0
LINE
8
Layer 1
10
171.224000
20
14.481900
11
171.295430
21
14.624760
0
LINE
8
Layer 1
10
171.295430
20
14.624760
11
171.438280
21
14.696190
0
LINE
8
Layer 1
10
171.438280
20
14.696190
11
171.724000
21
14.696200
0
LINE
8
Layer 1
10
171.724000
20
14.696200
11
171.866860
21
14.624770
0
LINE
8
Layer 1
10
171.866860
20
14.624770
11
171.938280
21
14.481910
0
LINE
8
Layer 1
10
171.938280
20
14.481910
11
171.938000
21
14.339100
0
LINE
8
Layer 1
10
171.938000
20
14.339100
11
171.223720
21
14.196240
0
LINE
8
Layer 1
10
172.581000
20
13.839100
11
172.652430
21
13.767670
0
LINE
8
Layer 1
10
172.652430
20
13.767670
11
172.581000
21
13.696240
0
LINE
8
Layer 1
10
172.581000
20
13.696240
11
172.509570
21
13.767670
0
LINE
8
Layer 1
10
172.509570
20
13.767670
11
172.581000
21
13.839100
0
LINE
8
Layer 1
10
172.581000
20
13.839100
11
172.581000
21
13.696200
0
LINE
8
Layer 1
10
172.581000
20
14.624800
11
172.652430
21
14.553370
0
LINE
8
Layer 1
10
172.652430
20
14.553370
11
172.581000
21
14.481940
0
LINE
8
Layer 1
10
172.581000
20
14.481940
11
172.509570
21
14.553370
0
LINE
8
Layer 1
10
172.509570
20
14.553370
11
172.581000
21
14.624800
0
LINE
8
Layer 1
10
172.581000
20
14.624800
11
172.581000
21
14.481900
0
LINE
8
Layer 1
10
174.438000
20
13.696200
11
174.438000
21
14.696200
0
LINE
8
Layer 1
10
174.438000
20
14.553400
11
174.509430
21
14.624830
0
LINE
8
Layer 1
10
174.509430
20
14.624830
11
174.652290
21
14.696260
0
LINE
8
Layer 1
10
174.652290
20
14.696260
11
174.866000
21
14.696200
0
LINE
8
Layer 1
10
174.866000
20
14.696200
11
175.008850
21
14.624770
0
LINE
8
Layer 1
10
175.008850
20
14.624770
11
175.080280
21
14.481910
0
LINE
8
Layer 1
10
175.080280
20
14.481910
11
175.081000
21
13.696200
0
LINE
8
Layer 1
10
175.081000
20
14.481900
11
175.152430
21
14.624760
0
LINE
8
Layer 1
10
175.152430
20
14.624760
11
175.295290
21
14.696190
0
LINE
8
Layer 1
10
175.295290
20
14.696190
11
175.509000
21
14.696200
0
LINE
8
Layer 1
10
175.509000
20
14.696200
11
175.651860
21
14.624770
0
LINE
8
Layer 1
10
175.651860
20
14.624770
11
175.723290
21
14.481910
0
LINE
8
Layer 1
10
175.723290
20
14.481910
11
175.724000
21
13.696200
0
LINE
8
Layer 1
10
176.438000
20
13.696200
11
176.438000
21
15.196200
0
LINE
8
Layer 1
10
177.081000
20
13.696200
11
177.081000
21
14.481900
0
LINE
8
Layer 1
10
177.081000
20
14.481900
11
177.009570
21
14.624760
0
LINE
8
Layer 1
10
177.009570
20
14.624760
11
176.866720
21
14.696190
0
LINE
8
Layer 1
10
176.866720
20
14.696190
11
176.652000
21
14.696200
0
LINE
8
Layer 1
10
176.652000
20
14.696200
11
176.509140
21
14.624770
0
LINE
8
Layer 1
10
176.509140
20
14.624770
11
176.437710
21
14.553340
0
LINE
8
Layer 1
10
177.795000
20
14.267700
11
178.938000
21
14.267700
0
LINE
8
Layer 1
10
180.295000
20
13.767700
11
180.152140
21
13.696270
0
LINE
8
Layer 1
10
180.152140
20
13.696270
11
179.866000
21
13.696200
0
LINE
8
Layer 1
10
179.866000
20
13.696200
11
179.723140
21
13.767630
0
LINE
8
Layer 1
10
179.723140
20
13.767630
11
179.651710
21
13.839060
0
LINE
8
Layer 1
10
179.651710
20
13.839060
11
179.580280
21
13.981910
0
LINE
8
Layer 1
10
179.580280
20
13.981910
11
179.581000
21
14.410500
0
LINE
8
Layer 1
10
179.581000
20
14.410500
11
179.652430
21
14.553360
0
LINE
8
Layer 1
10
179.652430
20
14.553360
11
179.723860
21
14.624790
0
LINE
8
Layer 1
10
179.723860
20
14.624790
11
179.866720
21
14.696220
0
LINE
8
Layer 1
10
179.866720
20
14.696220
11
180.152000
21
14.696200
0
LINE
8
Layer 1
10
180.152000
20
14.696200
11
180.294860
21
14.624770
0
LINE
8
Layer 1
10
181.581000
20
14.696200
11
181.581000
21
13.696200
0
LINE
8
Layer 1
10
180.938000
20
14.696200
11
180.938000
21
13.910500
0
LINE
8
Layer 1
10
180.938000
20
13.910500
11
181.009430
21
13.767650
0
LINE
8
Layer 1
10
181.009430
20
13.767650
11
181.152290
21
13.696220
0
LINE
8
Layer 1
10
181.152290
20
13.696220
11
181.366000
21
13.696200
0
LINE
8
Layer 1
10
181.366000
20
13.696200
11
181.508850
21
13.767630
0
LINE
8
Layer 1
10
181.508850
20
13.767630
11
181.580280
21
13.839060
0
LINE
8
Layer 1
10
182.224000
20
13.767700
11
182.366860
21
13.696270
0
LINE
8
Layer 1
10
182.366860
20
13.696270
11
182.652000
21
13.696200
0
LINE
8
Layer 1
10
182.652000
20
13.696200
11
182.794860
21
13.767630
0
LINE
8
Layer 1
10
182.794860
20
13.767630
11
182.866290
21
13.910480
0
LINE
8
Layer 1
10
182.866290
20
13.910480
11
182.866000
21
13.981900
0
LINE
8
Layer 1
10
182.866000
20
13.981900
11
182.794570
21
14.124760
0
LINE
8
Layer 1
10
182.794570
20
14.124760
11
182.651710
21
14.196190
0
LINE
8
Layer 1
10
182.651710
20
14.196190
11
182.438000
21
14.196200
0
LINE
8
Layer 1
10
182.438000
20
14.196200
11
182.295150
21
14.267630
0
LINE
8
Layer 1
10
182.295150
20
14.267630
11
182.223720
21
14.410480
0
LINE
8
Layer 1
10
182.223720
20
14.410480
11
182.224000
21
14.481900
0
LINE
8
Layer 1
10
182.224000
20
14.481900
11
182.295430
21
14.624760
0
LINE
8
Layer 1
10
182.295430
20
14.624760
11
182.438280
21
14.696190
0
LINE
8
Layer 1
10
182.438280
20
14.696190
11
182.652000
21
14.696200
0
LINE
8
Layer 1
10
182.652000
20
14.696200
11
182.794860
21
14.624770
0
LINE
8
Layer 1
10
183.295000
20
14.696200
11
183.866000
21
14.696200
0
LINE
8
Layer 1
10
183.509000
20
15.196200
11
183.509000
21
13.910500
0
LINE
8
Layer 1
10
183.509000
20
13.910500
11
183.580430
21
13.767650
0
LINE
8
Layer 1
10
183.580430
20
13.767650
11
183.723290
21
13.696220
0
LINE
8
Layer 1
10
183.723290
20
13.696220
11
183.866000
21
13.696200
0
LINE
8
Layer 1
10
184.581000
20
13.696200
11
184.438140
21
13.767630
0
LINE
8
Layer 1
10
184.438140
20
13.767630
11
184.366720
21
13.839060
0
LINE
8
Layer 1
10
184.366720
20
13.839060
11
184.295290
21
13.981910
0
LINE
8
Layer 1
10
184.295290
20
13.981910
11
184.295000
21
14.410500
0
LINE
8
Layer 1
10
184.295000
20
14.410500
11
184.366430
21
14.553360
0
LINE
8
Layer 1
10
184.366430
20
14.553360
11
184.437850
21
14.624790
0
LINE
8
Layer 1
10
184.437850
20
14.624790
11
184.580710
21
14.696220
0
LINE
8
Layer 1
10
184.580710
20
14.696220
11
184.795000
21
14.696200
0
LINE
8
Layer 1
10
184.795000
20
14.696200
11
184.937850
21
14.624770
0
LINE
8
Layer 1
10
184.937850
20
14.624770
11
185.009280
21
14.553340
0
LINE
8
Layer 1
10
185.009280
20
14.553340
11
185.080710
21
14.410480
0
LINE
8
Layer 1
10
185.080710
20
14.410480
11
185.081000
21
13.981900
0
LINE
8
Layer 1
10
185.081000
20
13.981900
11
185.009570
21
13.839050
0
LINE
8
Layer 1
10
185.009570
20
13.839050
11
184.938140
21
13.767620
0
LINE
8
Layer 1
10
184.938140
20
13.767620
11
184.795290
21
13.696190
0
LINE
8
Layer 1
10
184.795290
20
13.696190
11
184.581000
21
13.696200
0
LINE
8
Layer 1
10
185.724000
20
13.696200
11
185.724000
21
14.696200
0
LINE
8
Layer 1
10
185.724000
20
14.553400
11
185.795430
21
14.624830
0
LINE
8
Layer 1
10
185.795430
20
14.624830
11
185.938280
21
14.696260
0
LINE
8
Layer 1
10
185.938280
20
14.696260
11
186.152000
21
14.696200
0
LINE
8
Layer 1
10
186.152000
20
14.696200
11
186.294860
21
14.624770
0
LINE
8
Layer 1
10
186.294860
20
14.624770
11
186.366290
21
14.481910
0
LINE
8
Layer 1
10
186.366290
20
14.481910
11
186.366000
21
13.696200
0
LINE
8
Layer 1
10
186.366000
20
14.481900
11
186.437420
21
14.624760
0
LINE
8
Layer 1
10
186.437420
20
14.624760
11
186.580280
21
14.696190
0
LINE
8
Layer 1
10
186.580280
20
14.696190
11
186.795000
21
14.696200
0
LINE
8
Layer 1
10
186.795000
20
14.696200
11
186.937850
21
14.624770
0
LINE
8
Layer 1
10
186.937850
20
14.624770
11
187.009280
21
14.481910
0
LINE
8
Layer 1
10
187.009280
20
14.481910
11
187.009000
21
13.696200
0
LINE
8
Layer 1
10
187.724000
20
14.267700
11
188.866000
21
14.267700
0
LINE
8
Layer 1
10
189.438000
20
14.696200
11
189.795150
21
13.696200
0
LINE
8
Layer 1
10
189.795150
20
13.696200
11
190.152290
21
14.696200
0
LINE
8
Layer 1
10
190.652000
20
15.053400
11
190.723430
21
15.124830
0
LINE
8
Layer 1
10
190.723430
20
15.124830
11
190.866290
21
15.196260
0
LINE
8
Layer 1
10
190.866290
20
15.196260
11
191.224000
21
15.196200
0
LINE
8
Layer 1
10
191.224000
20
15.196200
11
191.366860
21
15.124770
0
LINE
8
Layer 1
10
191.366860
20
15.124770
11
191.438280
21
15.053340
0
LINE
8
Layer 1
10
191.438280
20
15.053340
11
191.509710
21
14.910480
0
LINE
8
Layer 1
10
191.509710
20
14.910480
11
191.509000
21
14.767700
0
LINE
8
Layer 1
10
191.509000
20
14.767700
11
191.437570
21
14.553410
0
LINE
8
Layer 1
10
191.437570
20
14.553410
11
190.580430
21
13.696270
0
LINE
8
Layer 1
10
190.580430
20
13.696270
11
191.509000
21
13.696200
0
LINE
8
Layer 1
10
192.152000
20
13.839100
11
192.223430
21
13.767670
0
LINE
8
Layer 1
10
192.223430
20
13.767670
11
192.152000
21
13.696240
0
LINE
8
Layer 1
10
192.152000
20
13.696240
11
192.080570
21
13.767670
0
LINE
8
Layer 1
10
192.080570
20
13.767670
11
192.152000
21
13.839100
0
LINE
8
Layer 1
10
192.152000
20
13.839100
11
192.152000
21
13.696200
0
LINE
8
Layer 1
10
192.866000
20
13.696200
11
192.866000
21
15.196200
0
LINE
8
Layer 1
10
193.009000
20
14.267700
11
193.437570
21
13.696270
0
LINE
8
Layer 1
10
193.438000
20
14.696200
11
192.866580
21
14.124770
0
LINE
8
Layer 1
10
194.081000
20
13.696200
11
194.081000
21
14.696200
0
LINE
8
Layer 1
10
194.081000
20
15.196200
11
194.009570
21
15.124770
0
LINE
8
Layer 1
10
194.009570
20
15.124770
11
194.081000
21
15.053340
0
LINE
8
Layer 1
10
194.081000
20
15.053340
11
194.152430
21
15.124770
0
LINE
8
Layer 1
10
194.152430
20
15.124770
11
194.081000
21
15.196200
0
LINE
8
Layer 1
10
194.081000
20
15.196200
11
194.081000
21
15.053400
0
LINE
8
Layer 1
10
195.438000
20
13.767700
11
195.295150
21
13.696270
0
LINE
8
Layer 1
10
195.295150
20
13.696270
11
195.009000
21
13.696200
0
LINE
8
Layer 1
10
195.009000
20
13.696200
11
194.866150
21
13.767630
0
LINE
8
Layer 1
10
194.866150
20
13.767630
11
194.794720
21
13.839060
0
LINE
8
Layer 1
10
194.794720
20
13.839060
11
194.723290
21
13.981910
0
LINE
8
Layer 1
10
194.723290
20
13.981910
11
194.724000
21
14.410500
0
LINE
8
Layer 1
10
194.724000
20
14.410500
11
194.795430
21
14.553360
0
LINE
8
Layer 1
10
194.795430
20
14.553360
11
194.866860
21
14.624790
0
LINE
8
Layer 1
10
194.866860
20
14.624790
11
195.009710
21
14.696220
0
LINE
8
Layer 1
10
195.009710
20
14.696220
11
195.295000
21
14.696200
0
LINE
8
Layer 1
10
195.295000
20
14.696200
11
195.437850
21
14.624770
0
LINE
8
Layer 1
10
196.724000
20
13.696200
11
196.724000
21
14.481900
0
LINE
8
Layer 1
10
196.724000
20
14.481900
11
196.652570
21
14.624760
0
LINE
8
Layer 1
10
196.652570
20
14.624760
11
196.509710
21
14.696190
0
LINE
8
Layer 1
10
196.509710
20
14.696190
11
196.224000
21
14.696200
0
LINE
8
Layer 1
10
196.224000
20
14.696200
11
196.081140
21
14.624770
0
LINE
8
Layer 1
10
196.724000
20
13.767700
11
196.581140
21
13.696270
0
LINE
8
Layer 1
10
196.581140
20
13.696270
11
196.224000
21
13.696200
0
LINE
8
Layer 1
10
196.224000
20
13.696200
11
196.081140
21
13.767630
0
LINE
8
Layer 1
10
196.081140
20
13.767630
11
196.009710
21
13.910480
0
LINE
8
Layer 1
10
196.009710
20
13.910480
11
196.009000
21
14.053400
0
LINE
8
Layer 1
10
196.009000
20
14.053400
11
196.080430
21
14.196260
0
LINE
8
Layer 1
10
196.080430
20
14.196260
11
196.223290
21
14.267690
0
LINE
8
Layer 1
10
196.223290
20
14.267690
11
196.581000
21
14.267700
0
LINE
8
Layer 1
10
196.581000
20
14.267700
11
196.723860
21
14.339130
0
LINE
8
Layer 1
10
198.081000
20
13.696200
11
198.081000
21
15.196200
0
LINE
8
Layer 1
10
198.081000
20
13.767700
11
197.938140
21
13.696270
0
LINE
8
Layer 1
10
197.938140
20
13.696270
11
197.652000
21
13.696200
0
LINE
8
Layer 1
10
197.652000
20
13.696200
11
197.509140
21
13.767630
0
LINE
8
Layer 1
10
197.509140
20
13.767630
11
197.437710
21
13.839060
0
LINE
8
Layer 1
10
197.437710
20
13.839060
11
197.366290
21
13.981910
0
LINE
8
Layer 1
10
197.366290
20
13.981910
11
197.366000
21
14.410500
0
LINE
8
Layer 1
10
197.366000
20
14.410500
11
197.437420
21
14.553360
0
LINE
8
Layer 1
10
197.437420
20
14.553360
11
197.508850
21
14.624790
0
LINE
8
Layer 1
10
197.508850
20
14.624790
11
197.651710
21
14.696220
0
LINE
8
Layer 1
10
197.651710
20
14.696220
11
197.938000
21
14.696200
0
LINE
8
Layer 1
10
197.938000
20
14.696200
11
198.080860
21
14.624770
0
LINE
8
Layer 1
10
198.438000
20
13.553400
11
199.581000
21
13.553400
0
LINE
8
Layer 1
10
199.938000
20
14.696200
11
199.938000
21
13.196200
0
LINE
8
Layer 1
10
199.938000
20
14.624800
11
200.080860
21
14.696230
0
LINE
8
Layer 1
10
200.080860
20
14.696230
11
200.366000
21
14.696200
0
LINE
8
Layer 1
10
200.366000
20
14.696200
11
200.508850
21
14.624770
0
LINE
8
Layer 1
10
200.508850
20
14.624770
11
200.580280
21
14.553340
0
LINE
8
Layer 1
10
200.580280
20
14.553340
11
200.651710
21
14.410480
0
LINE
8
Layer 1
10
200.651710
20
14.410480
11
200.652000
21
13.981900
0
LINE
8
Layer 1
10
200.652000
20
13.981900
11
200.580570
21
13.839050
0
LINE
8
Layer 1
10
200.580570
20
13.839050
11
200.509140
21
13.767620
0
LINE
8
Layer 1
10
200.509140
20
13.767620
11
200.366290
21
13.696190
0
LINE
8
Layer 1
10
200.366290
20
13.696190
11
200.081000
21
13.696200
0
LINE
8
Layer 1
10
200.081000
20
13.696200
11
199.938140
21
13.767630
0
LINE
8
Layer 1
10
201.938000
20
13.767700
11
201.795150
21
13.696270
0
LINE
8
Layer 1
10
201.795150
20
13.696270
11
201.509000
21
13.696200
0
LINE
8
Layer 1
10
201.509000
20
13.696200
11
201.366150
21
13.767630
0
LINE
8
Layer 1
10
201.366150
20
13.767630
11
201.294720
21
13.839060
0
LINE
8
Layer 1
10
201.294720
20
13.839060
11
201.223290
21
13.981910
0
LINE
8
Layer 1
10
201.223290
20
13.981910
11
201.224000
21
14.410500
0
LINE
8
Layer 1
10
201.224000
20
14.410500
11
201.295430
21
14.553360
0
LINE
8
Layer 1
10
201.295430
20
14.553360
11
201.366860
21
14.624790
0
LINE
8
Layer 1
10
201.366860
20
14.624790
11
201.509710
21
14.696220
0
LINE
8
Layer 1
10
201.509710
20
14.696220
11
201.795000
21
14.696200
0
LINE
8
Layer 1
10
201.795000
20
14.696200
11
201.937850
21
14.624770
0
LINE
8
Layer 1
10
202.581000
20
13.696200
11
202.581000
21
15.196200
0
LINE
8
Layer 1
10
202.581000
20
14.624800
11
202.723860
21
14.696230
0
LINE
8
Layer 1
10
202.723860
20
14.696230
11
203.009000
21
14.696200
0
LINE
8
Layer 1
10
203.009000
20
14.696200
11
203.151860
21
14.624770
0
LINE
8
Layer 1
10
203.151860
20
14.624770
11
203.223290
21
14.553340
0
LINE
8
Layer 1
10
203.223290
20
14.553340
11
203.294720
21
14.410480
0
LINE
8
Layer 1
10
203.294720
20
14.410480
11
203.295000
21
13.981900
0
LINE
8
Layer 1
10
203.295000
20
13.981900
11
203.223570
21
13.839050
0
LINE
8
Layer 1
10
203.223570
20
13.839050
11
203.152140
21
13.767620
0
LINE
8
Layer 1
10
203.152140
20
13.767620
11
203.009280
21
13.696190
0
LINE
8
Layer 1
10
203.009280
20
13.696190
11
202.724000
21
13.696200
0
LINE
8
Layer 1
10
202.724000
20
13.696200
11
202.581140
21
13.767630
0
LINE
8
Layer 1
10
167.077000
20
18.574800
11
275.077000
21
18.574800
0
LINE
8
Layer 1
10
168.438000
20
16.467700
11
168.652290
21
16.396270
0
LINE
8
Layer 1
10
168.652290
20
16.396270
11
169.009000
21
16.396200
0
LINE
8
Layer 1
10
169.009000
20
16.396200
11
169.151860
21
16.467630
0
LINE
8
Layer 1
10
169.151860
20
16.467630
11
169.223290
21
16.539060
0
LINE
8
Layer 1
10
169.223290
20
16.539060
11
169.294720
21
16.681910
0
LINE
8
Layer 1
10
169.294720
20
16.681910
11
169.295000
21
16.824800
0
LINE
8
Layer 1
10
169.295000
20
16.824800
11
169.223570
21
16.967660
0
LINE
8
Layer 1
10
169.223570
20
16.967660
11
169.152140
21
17.039090
0
LINE
8
Layer 1
10
169.152140
20
17.039090
11
169.009280
21
17.110510
0
LINE
8
Layer 1
10
169.009280
20
17.110510
11
168.723570
21
17.181940
0
LINE
8
Layer 1
10
168.723570
20
17.181940
11
168.580710
21
17.253370
0
LINE
8
Layer 1
10
168.580710
20
17.253370
11
168.509280
21
17.324800
0
LINE
8
Layer 1
10
168.509280
20
17.324800
11
168.437850
21
17.467660
0
LINE
8
Layer 1
10
168.437850
20
17.467660
11
168.438000
21
17.610500
0
LINE
8
Layer 1
10
168.438000
20
17.610500
11
168.509430
21
17.753360
0
LINE
8
Layer 1
10
168.509430
20
17.753360
11
168.580860
21
17.824790
0
LINE
8
Layer 1
10
168.580860
20
17.824790
11
168.723720
21
17.896220
0
LINE
8
Layer 1
10
168.723720
20
17.896220
11
169.081000
21
17.896200
0
LINE
8
Layer 1
10
169.081000
20
17.896200
11
169.295290
21
17.824770
0
LINE
8
Layer 1
10
169.938000
20
16.396200
11
169.938000
21
17.896200
0
LINE
8
Layer 1
10
170.581000
20
16.396200
11
170.581000
21
17.181900
0
LINE
8
Layer 1
10
170.581000
20
17.181900
11
170.509570
21
17.324760
0
LINE
8
Layer 1
10
170.509570
20
17.324760
11
170.366720
21
17.396190
0
LINE
8
Layer 1
10
170.366720
20
17.396190
11
170.152000
21
17.396200
0
LINE
8
Layer 1
10
170.152000
20
17.396200
11
170.009140
21
17.324770
0
LINE
8
Layer 1
10
170.009140
20
17.324770
11
169.937710
21
17.253340
0
LINE
8
Layer 1
10
171.866000
20
16.467700
11
171.723140
21
16.396270
0
LINE
8
Layer 1
10
171.723140
20
16.396270
11
171.438000
21
16.396200
0
LINE
8
Layer 1
10
171.438000
20
16.396200
11
171.295150
21
16.467630
0
LINE
8
Layer 1
10
171.295150
20
16.467630
11
171.223720
21
16.610480
0
LINE
8
Layer 1
10
171.223720
20
16.610480
11
171.224000
21
17.181900
0
LINE
8
Layer 1
10
171.224000
20
17.181900
11
171.295430
21
17.324760
0
LINE
8
Layer 1
10
171.295430
20
17.324760
11
171.438280
21
17.396190
0
LINE
8
Layer 1
10
171.438280
20
17.396190
11
171.724000
21
17.396200
0
LINE
8
Layer 1
10
171.724000
20
17.396200
11
171.866860
21
17.324770
0
LINE
8
Layer 1
10
171.866860
20
17.324770
11
171.938280
21
17.181910
0
LINE
8
Layer 1
10
171.938280
20
17.181910
11
171.938000
21
17.039100
0
LINE
8
Layer 1
10
171.938000
20
17.039100
11
171.223720
21
16.896240
0
LINE
8
Layer 1
10
173.152000
20
16.467700
11
173.009140
21
16.396270
0
LINE
8
Layer 1
10
173.009140
20
16.396270
11
172.724000
21
16.396200
0
LINE
8
Layer 1
10
172.724000
20
16.396200
11
172.581140
21
16.467630
0
LINE
8
Layer 1
10
172.581140
20
16.467630
11
172.509710
21
16.610480
0
LINE
8
Layer 1
10
172.509710
20
16.610480
11
172.509000
21
17.181900
0
LINE
8
Layer 1
10
172.509000
20
17.181900
11
172.580430
21
17.324760
0
LINE
8
Layer 1
10
172.580430
20
17.324760
11
172.723290
21
17.396190
0
LINE
8
Layer 1
10
172.723290
20
17.396190
11
173.009000
21
17.396200
0
LINE
8
Layer 1
10
173.009000
20
17.396200
11
173.151860
21
17.324770
0
LINE
8
Layer 1
10
173.151860
20
17.324770
11
173.223290
21
17.181910
0
LINE
8
Layer 1
10
173.223290
20
17.181910
11
173.224000
21
17.039100
0
LINE
8
Layer 1
10
173.224000
20
17.039100
11
172.509710
21
16.896240
0
LINE
8
Layer 1
10
173.652000
20
17.396200
11
174.224000
21
17.396200
0
LINE
8
Layer 1
10
173.866000
20
17.896200
11
173.866000
21
16.610500
0
LINE
8
Layer 1
10
173.866000
20
16.610500
11
173.937420
21
16.467650
0
LINE
8
Layer 1
10
173.937420
20
16.467650
11
174.080280
21
16.396220
0
LINE
8
Layer 1
10
174.080280
20
16.396220
11
174.224000
21
16.396200
0
LINE
8
Layer 1
10
174.724000
20
16.539100
11
174.795430
21
16.467670
0
LINE
8
Layer 1
10
174.795430
20
16.467670
11
174.724000
21
16.396240
0
LINE
8
Layer 1
10
174.724000
20
16.396240
11
174.652570
21
16.467670
0
LINE
8
Layer 1
10
174.652570
20
16.467670
11
174.724000
21
16.539100
0
LINE
8
Layer 1
10
174.724000
20
16.539100
11
174.724000
21
16.396200
0
LINE
8
Layer 1
10
174.724000
20
17.324800
11
174.795430
21
17.253370
0
LINE
8
Layer 1
10
174.795430
20
17.253370
11
174.724000
21
17.181940
0
LINE
8
Layer 1
10
174.724000
20
17.181940
11
174.652570
21
17.253370
0
LINE
8
Layer 1
10
174.652570
20
17.253370
11
174.724000
21
17.324800
0
LINE
8
Layer 1
10
174.724000
20
17.324800
11
174.724000
21
17.181900
0
LINE
8
Layer 1
10
187.077000
20
8.574800
11
187.077000
21
5.574800
0
LINE
8
Layer 1
10
251.077000
20
8.574800
11
251.077000
21
2.074800
0
LINE
8
Layer 1
10
47.325000
20
175.807000
11
49.025000
21
175.807000
0
LINE
8
Layer 1
10
49.025000
20
175.807000
11
49.025000
21
174.107000
0
LINE
8
Layer 1
10
49.025000
20
174.107000
11
47.325000
21
174.107000
0
LINE
8
Layer 1
10
47.325000
20
174.107000
11
47.325000
21
175.807000
0
LINE
8
Layer 1
10
27.225000
20
174.107000
11
27.225000
21
175.807000
0
LINE
8
Layer 1
10
27.225000
20
175.807000
11
28.925000
21
175.807000
0
LINE
8
Layer 1
10
28.925000
20
175.807000
11
28.925000
21
174.107000
0
LINE
8
Layer 1
10
28.925000
20
174.107000
11
27.225000
21
174.107000
0
LINE
8
Layer 1
10
59.900000
20
140.357000
11
59.804329
21
140.376030
0
LINE
8
Layer 1
10
59.804329
20
140.376030
11
59.723223
21
140.430223
0
LINE
8
Layer 1
10
59.723223
20
140.430223
11
59.669030
21
140.511329
0
LINE
8
Layer 1
10
59.669030
20
140.511329
11
59.650000
21
140.607000
0
LINE
8
Layer 1
10
59.650000
20
140.607000
11
59.650000
21
141.307000
0
LINE
8
Layer 1
10
59.650000
20
141.307000
11
59.669030
21
141.402671
0
LINE
8
Layer 1
10
59.669030
20
141.402671
11
59.723223
21
141.483777
0
LINE
8
Layer 1
10
59.723223
20
141.483777
11
59.804329
21
141.537970
0
LINE
8
Layer 1
10
59.804329
20
141.537970
11
59.900000
21
141.557000
0
LINE
8
Layer 1
10
59.900000
20
141.557000
11
61.150000
21
141.557000
0
LINE
8
Layer 1
10
61.150000
20
141.557000
11
61.245671
21
141.537970
0
LINE
8
Layer 1
10
61.245671
20
141.537970
11
61.326777
21
141.483777
0
LINE
8
Layer 1
10
61.326777
20
141.483777
11
61.380970
21
141.402671
0
LINE
8
Layer 1
10
61.380970
20
141.402671
11
61.400000
21
141.307000
0
LINE
8
Layer 1
10
61.400000
20
141.307000
11
61.400000
21
140.607000
0
LINE
8
Layer 1
10
61.400000
20
140.607000
11
61.380970
21
140.511329
0
LINE
8
Layer 1
10
61.380970
20
140.511329
11
61.326777
21
140.430223
0
LINE
8
Layer 1
10
61.326777
20
140.430223
11
61.245671
21
140.376030
0
LINE
8
Layer 1
10
61.245671
20
140.376030
11
61.150000
21
140.357000
0
LINE
8
Layer 1
10
61.150000
20
140.357000
11
59.900000
21
140.357000
0
LINE
8
Layer 1
10
60.250000
20
142.957000
11
60.800000
21
142.957000
0
LINE
8
Layer 1
10
110.230000
20
90.867000
11
106.270000
21
90.867000
0
LINE
8
Layer 1
10
106.270000
20
90.867000
11
106.270000
21
92.847000
0
LINE
8
Layer 1
10
106.270000
20
92.847000
11
110.230000
21
92.847000
0
LINE
8
Layer 1
10
110.230000
20
92.847000
11
110.230000
21
90.867000
0
LINE
8
Layer 1
10
107.260000
20
96.857000
11
109.240000
21
96.857000
0
LINE
8
Layer 1
10
107.260000
20
101.857000
11
109.240000
21
101.857000
0
LINE
8
Layer 1
10
107.260000
20
106.857000
11
109.240000
21
106.857000
0
LINE
8
Layer 1
10
33.950000
20
174.157000
11
32.250000
21
174.157000
0
LINE
8
Layer 1
10
32.250000
20
174.157000
11
32.250000
21
175.857000
0
LINE
8
Layer 1
10
32.250000
20
175.857000
11
33.950000
21
175.857000
0
LINE
8
Layer 1
10
33.950000
20
175.857000
11
33.950000
21
174.157000
0
LINE
8
Layer 1
10
31.190000
20
119.687000
11
32.790000
21
119.687000
0
LINE
8
Layer 1
10
32.790000
20
119.687000
11
32.790000
21
118.087000
0
LINE
8
Layer 1
10
32.790000
20
118.087000
11
31.190000
21
118.087000
0
LINE
8
Layer 1
10
31.190000
20
118.087000
11
31.190000
21
119.687000
0
LINE
8
Layer 1
10
78.800000
20
109.202000
11
78.952090
21
109.186417
0
LINE
8
Layer 1
10
78.952090
20
109.186417
11
79.116964
21
109.131731
0
LINE
8
Layer 1
10
79.116964
20
109.131731
11
79.264834
21
109.040582
0
LINE
8
Layer 1
10
79.264834
20
109.040582
11
79.387770
21
108.917861
0
LINE
8
Layer 1
10
79.387770
20
108.917861
11
79.479177
21
108.770150
0
LINE
8
Layer 1
10
79.479177
20
108.770150
11
79.534151
21
108.605372
0
LINE
8
Layer 1
10
79.534151
20
108.605372
11
79.550000
21
108.452000
0
LINE
8
Layer 1
10
79.550000
20
108.452000
11
79.550000
21
106.952000
0
LINE
8
Layer 1
10
79.550000
20
106.952000
11
79.534417
21
106.799910
0
LINE
8
Layer 1
10
79.534417
20
106.799910
11
79.479731
21
106.635036
0
LINE
8
Layer 1
10
79.479731
20
106.635036
11
79.388582
21
106.487166
0
LINE
8
Layer 1
10
79.388582
20
106.487166
11
79.265861
21
106.364230
0
LINE
8
Layer 1
10
79.265861
20
106.364230
11
79.118150
21
106.272823
0
LINE
8
Layer 1
10
79.118150
20
106.272823
11
78.953372
21
106.217849
0
LINE
8
Layer 1
10
78.953372
20
106.217849
11
78.800000
21
106.202000
0
LINE
8
Layer 1
10
78.800000
20
106.202000
11
77.300000
21
106.202000
0
LINE
8
Layer 1
10
77.300000
20
106.202000
11
77.147910
21
106.217583
0
LINE
8
Layer 1
10
77.147910
20
106.217583
11
76.983036
21
106.272269
0
LINE
8
Layer 1
10
76.983036
20
106.272269
11
76.835166
21
106.363418
0
LINE
8
Layer 1
10
76.835166
20
106.363418
11
76.712230
21
106.486139
0
LINE
8
Layer 1
10
76.712230
20
106.486139
11
76.620823
21
106.633850
0
LINE
8
Layer 1
10
76.620823
20
106.633850
11
76.565849
21
106.798628
0
LINE
8
Layer 1
10
76.565849
20
106.798628
11
76.550000
21
106.952000
0
LINE
8
Layer 1
10
76.550000
20
106.952000
11
76.550000
21
108.452000
0
LINE
8
Layer 1
10
76.550000
20
108.452000
11
76.565583
21
108.604090
0
LINE
8
Layer 1
10
76.565583
20
108.604090
11
76.620269
21
108.768964
0
LINE
8
Layer 1
10
76.620269
20
108.768964
11
76.711418
21
108.916834
0
LINE
8
Layer 1
10
76.711418
20
108.916834
11
76.834139
21
109.039770
0
LINE
8
Layer 1
10
76.834139
20
109.039770
11
76.981850
21
109.131177
0
LINE
8
Layer 1
10
76.981850
20
109.131177
11
77.146628
21
109.186151
0
LINE
8
Layer 1
10
77.146628
20
109.186151
11
77.300000
21
109.202000
0
LINE
8
Layer 1
10
77.300000
20
109.202000
11
78.800000
21
109.202000
0
LINE
8
Layer 1
10
78.850000
20
95.902000
11
79.002090
21
95.886420
0
LINE
8
Layer 1
10
79.002090
20
95.886420
11
79.166964
21
95.831730
0
LINE
8
Layer 1
10
79.166964
20
95.831730
11
79.314834
21
95.740580
0
LINE
8
Layer 1
10
79.314834
20
95.740580
11
79.437770
21
95.617860
0
LINE
8
Layer 1
10
79.437770
20
95.617860
11
79.529177
21
95.470150
0
LINE
8
Layer 1
10
79.529177
20
95.470150
11
79.584151
21
95.305370
0
LINE
8
Layer 1
10
79.584151
20
95.305370
11
79.600000
21
95.152000
0
LINE
8
Layer 1
10
79.600000
20
95.152000
11
79.600000
21
93.652000
0
LINE
8
Layer 1
10
79.600000
20
93.652000
11
79.584417
21
93.499910
0
LINE
8
Layer 1
10
79.584417
20
93.499910
11
79.529731
21
93.335040
0
LINE
8
Layer 1
10
79.529731
20
93.335040
11
79.438582
21
93.187170
0
LINE
8
Layer 1
10
79.438582
20
93.187170
11
79.315861
21
93.064230
0
LINE
8
Layer 1
10
79.315861
20
93.064230
11
79.168150
21
92.972820
0
LINE
8
Layer 1
10
79.168150
20
92.972820
11
79.003372
21
92.917850
0
LINE
8
Layer 1
10
79.003372
20
92.917850
11
78.850000
21
92.902000
0
LINE
8
Layer 1
10
78.850000
20
92.902000
11
77.350000
21
92.902000
0
LINE
8
Layer 1
10
77.350000
20
92.902000
11
77.197910
21
92.917580
0
LINE
8
Layer 1
10
77.197910
20
92.917580
11
77.033036
21
92.972270
0
LINE
8
Layer 1
10
77.033036
20
92.972270
11
76.885166
21
93.063420
0
LINE
8
Layer 1
10
76.885166
20
93.063420
11
76.762230
21
93.186140
0
LINE
8
Layer 1
10
76.762230
20
93.186140
11
76.670823
21
93.333850
0
LINE
8
Layer 1
10
76.670823
20
93.333850
11
76.615849
21
93.498630
0
LINE
8
Layer 1
10
76.615849
20
93.498630
11
76.600000
21
93.652000
0
LINE
8
Layer 1
10
76.600000
20
93.652000
11
76.600000
21
95.152000
0
LINE
8
Layer 1
10
76.600000
20
95.152000
11
76.615583
21
95.304090
0
LINE
8
Layer 1
10
76.615583
20
95.304090
11
76.670269
21
95.468960
0
LINE
8
Layer 1
10
76.670269
20
95.468960
11
76.761418
21
95.616830
0
LINE
8
Layer 1
10
76.761418
20
95.616830
11
76.884139
21
95.739770
0
LINE
8
Layer 1
10
76.884139
20
95.739770
11
77.031850
21
95.831180
0
LINE
8
Layer 1
10
77.031850
20
95.831180
11
77.196628
21
95.886150
0
LINE
8
Layer 1
10
77.196628
20
95.886150
11
77.350000
21
95.902000
0
LINE
8
Layer 1
10
77.350000
20
95.902000
11
78.850000
21
95.902000
0
LINE
8
Layer 1
10
110.230000
20
150.867000
11
106.270000
21
150.867000
0
LINE
8
Layer 1
10
106.270000
20
150.867000
11
106.270000
21
152.847000
0
LINE
8
Layer 1
10
106.270000
20
152.847000
11
110.230000
21
152.847000
0
LINE
8
Layer 1
10
110.230000
20
152.847000
11
110.230000
21
150.867000
0
LINE
8
Layer 1
10
107.260000
20
156.857000
11
109.240000
21
156.857000
0
LINE
8
Layer 1
10
107.260000
20
161.857000
11
109.240000
21
161.857000
0
LINE
8
Layer 1
10
107.260000
20
166.857000
11
109.240000
21
166.857000
0
LINE
8
Layer 1
10
28.445000
20
100.872000
11
26.745000
21
100.872000
0
LINE
8
Layer 1
10
26.745000
20
100.872000
11
26.745000
21
102.572000
0
LINE
8
Layer 1
10
26.745000
20
102.572000
11
28.445000
21
102.572000
0
LINE
8
Layer 1
10
28.445000
20
102.572000
11
28.445000
21
100.872000
0
LINE
8
Layer 1
10
110.230000
20
130.867000
11
106.270000
21
130.867000
0
LINE
8
Layer 1
10
106.270000
20
130.867000
11
106.270000
21
132.847000
0
LINE
8
Layer 1
10
106.270000
20
132.847000
11
110.230000
21
132.847000
0
LINE
8
Layer 1
10
110.230000
20
132.847000
11
110.230000
21
130.867000
0
LINE
8
Layer 1
10
107.260000
20
136.857000
11
109.240000
21
136.857000
0
LINE
8
Layer 1
10
107.260000
20
141.857000
11
109.240000
21
141.857000
0
LINE
8
Layer 1
10
107.260000
20
146.857000
11
109.240000
21
146.857000
0
LINE
8
Layer 1
10
110.230000
20
110.867000
11
106.270000
21
110.867000
0
LINE
8
Layer 1
10
106.270000
20
110.867000
11
106.270000
21
112.847000
0
LINE
8
Layer 1
10
106.270000
20
112.847000
11
110.230000
21
112.847000
0
LINE
8
Layer 1
10
110.230000
20
112.847000
11
110.230000
21
110.867000
0
LINE
8
Layer 1
10
107.260000
20
116.857000
11
109.240000
21
116.857000
0
LINE
8
Layer 1
10
107.260000
20
121.857000
11
109.240000
21
121.857000
0
LINE
8
Layer 1
10
107.260000
20
126.857000
11
109.240000
21
126.857000
0
LINE
8
Layer 1
10
33.910000
20
114.812000
11
35.510000
21
114.812000
0
LINE
8
Layer 1
10
35.510000
20
114.812000
11
35.510000
21
113.212000
0
LINE
8
Layer 1
10
35.510000
20
113.212000
11
33.910000
21
113.212000
0
LINE
8
Layer 1
10
33.910000
20
113.212000
11
33.910000
21
114.812000
0
LINE
8
Layer 1
10
39.780000
20
100.872000
11
38.080000
21
100.872000
0
LINE
8
Layer 1
10
38.080000
20
100.872000
11
38.080000
21
102.572000
0
LINE
8
Layer 1
10
38.080000
20
102.572000
11
39.780000
21
102.572000
0
LINE
8
Layer 1
10
39.780000
20
102.572000
11
39.780000
21
100.872000
0
LINE
8
Layer 1
10
51.435000
20
100.872000
11
49.735000
21
100.872000
0
LINE
8
Layer 1
10
49.735000
20
100.872000
11
49.735000
21
102.572000
0
LINE
8
Layer 1
10
49.735000
20
102.572000
11
51.435000
21
102.572000
0
LINE
8
Layer 1
10
51.435000
20
102.572000
11
51.435000
21
100.872000
0
LINE
8
Layer 1
10
41.194900
20
109.842000
11
41.194900
21
111.442000
0
LINE
8
Layer 1
10
41.194900
20
111.442000
11
42.794900
21
111.442000
0
LINE
8
Layer 1
10
42.794900
20
111.442000
11
42.794900
21
109.842000
0
LINE
8
Layer 1
10
42.794900
20
109.842000
11
41.194900
21
109.842000
0
LINE
8
Layer 1
10
59.900000
20
125.157000
11
59.804329
21
125.176030
0
LINE
8
Layer 1
10
59.804329
20
125.176030
11
59.723223
21
125.230223
0
LINE
8
Layer 1
10
59.723223
20
125.230223
11
59.669030
21
125.311329
0
LINE
8
Layer 1
10
59.669030
20
125.311329
11
59.650000
21
125.407000
0
LINE
8
Layer 1
10
59.650000
20
125.407000
11
59.650000
21
126.107000
0
LINE
8
Layer 1
10
59.650000
20
126.107000
11
59.669030
21
126.202671
0
LINE
8
Layer 1
10
59.669030
20
126.202671
11
59.723223
21
126.283777
0
LINE
8
Layer 1
10
59.723223
20
126.283777
11
59.804329
21
126.337970
0
LINE
8
Layer 1
10
59.804329
20
126.337970
11
59.900000
21
126.357000
0
LINE
8
Layer 1
10
59.900000
20
126.357000
11
61.150000
21
126.357000
0
LINE
8
Layer 1
10
61.150000
20
126.357000
11
61.245671
21
126.337970
0
LINE
8
Layer 1
10
61.245671
20
126.337970
11
61.326777
21
126.283777
0
LINE
8
Layer 1
10
61.326777
20
126.283777
11
61.380970
21
126.202671
0
LINE
8
Layer 1
10
61.380970
20
126.202671
11
61.400000
21
126.107000
0
LINE
8
Layer 1
10
61.400000
20
126.107000
11
61.400000
21
125.407000
0
LINE
8
Layer 1
10
61.400000
20
125.407000
11
61.380970
21
125.311329
0
LINE
8
Layer 1
10
61.380970
20
125.311329
11
61.326777
21
125.230223
0
LINE
8
Layer 1
10
61.326777
20
125.230223
11
61.245671
21
125.176030
0
LINE
8
Layer 1
10
61.245671
20
125.176030
11
61.150000
21
125.157000
0
LINE
8
Layer 1
10
61.150000
20
125.157000
11
59.900000
21
125.157000
0
LINE
8
Layer 1
10
60.250000
20
127.757000
11
60.800000
21
127.757000
0
LINE
8
Layer 1
10
60.250000
20
129.757000
11
60.800000
21
129.757000
0
LINE
8
Layer 1
10
60.250000
20
131.757000
11
60.800000
21
131.757000
0
LINE
8
Layer 1
10
60.250000
20
133.757000
11
60.800000
21
133.757000
0
LINE
8
Layer 1
10
60.250000
20
135.757000
11
60.800000
21
135.757000
0
LINE
8
Layer 1
10
41.900000
20
116.482000
11
41.804329
21
116.501030
0
LINE
8
Layer 1
10
41.804329
20
116.501030
11
41.723223
21
116.555223
0
LINE
8
Layer 1
10
41.723223
20
116.555223
11
41.669030
21
116.636329
0
LINE
8
Layer 1
10
41.669030
20
116.636329
11
41.650000
21
116.732000
0
LINE
8
Layer 1
10
41.650000
20
116.732000
11
41.650000
21
117.432000
0
LINE
8
Layer 1
10
41.650000
20
117.432000
11
41.669030
21
117.527671
0
LINE
8
Layer 1
10
41.669030
20
117.527671
11
41.723223
21
117.608777
0
LINE
8
Layer 1
10
41.723223
20
117.608777
11
41.804329
21
117.662970
0
LINE
8
Layer 1
10
41.804329
20
117.662970
11
41.900000
21
117.682000
0
LINE
8
Layer 1
10
41.900000
20
117.682000
11
43.150000
21
117.682000
0
LINE
8
Layer 1
10
43.150000
20
117.682000
11
43.245671
21
117.662970
0
LINE
8
Layer 1
10
43.245671
20
117.662970
11
43.326777
21
117.608777
0
LINE
8
Layer 1
10
43.326777
20
117.608777
11
43.380970
21
117.527671
0
LINE
8
Layer 1
10
43.380970
20
117.527671
11
43.400000
21
117.432000
0
LINE
8
Layer 1
10
43.400000
20
117.432000
11
43.400000
21
116.732000
0
LINE
8
Layer 1
10
43.400000
20
116.732000
11
43.380970
21
116.636329
0
LINE
8
Layer 1
10
43.380970
20
116.636329
11
43.326777
21
116.555223
0
LINE
8
Layer 1
10
43.326777
20
116.555223
11
43.245671
21
116.501030
0
LINE
8
Layer 1
10
43.245671
20
116.501030
11
43.150000
21
116.482000
0
LINE
8
Layer 1
10
43.150000
20
116.482000
11
41.900000
21
116.482000
0
LINE
8
Layer 1
10
42.250000
20
119.082000
11
42.800000
21
119.082000
0
LINE
8
Layer 1
10
42.250000
20
121.082000
11
42.800000
21
121.082000
0
LINE
8
Layer 1
10
42.250000
20
123.082000
11
42.800000
21
123.082000
0
LINE
8
Layer 1
10
53.900000
20
116.482000
11
53.804329
21
116.501030
0
LINE
8
Layer 1
10
53.804329
20
116.501030
11
53.723223
21
116.555223
0
LINE
8
Layer 1
10
53.723223
20
116.555223
11
53.669030
21
116.636329
0
LINE
8
Layer 1
10
53.669030
20
116.636329
11
53.650000
21
116.732000
0
LINE
8
Layer 1
10
53.650000
20
116.732000
11
53.650000
21
117.432000
0
LINE
8
Layer 1
10
53.650000
20
117.432000
11
53.669030
21
117.527671
0
LINE
8
Layer 1
10
53.669030
20
117.527671
11
53.723223
21
117.608777
0
LINE
8
Layer 1
10
53.723223
20
117.608777
11
53.804329
21
117.662970
0
LINE
8
Layer 1
10
53.804329
20
117.662970
11
53.900000
21
117.682000
0
LINE
8
Layer 1
10
53.900000
20
117.682000
11
55.150000
21
117.682000
0
LINE
8
Layer 1
10
55.150000
20
117.682000
11
55.245671
21
117.662970
0
LINE
8
Layer 1
10
55.245671
20
117.662970
11
55.326777
21
117.608777
0
LINE
8
Layer 1
10
55.326777
20
117.608777
11
55.380970
21
117.527671
0
LINE
8
Layer 1
10
55.380970
20
117.527671
11
55.400000
21
117.432000
0
LINE
8
Layer 1
10
55.400000
20
117.432000
11
55.400000
21
116.732000
0
LINE
8
Layer 1
10
55.400000
20
116.732000
11
55.380970
21
116.636329
0
LINE
8
Layer 1
10
55.380970
20
116.636329
11
55.326777
21
116.555223
0
LINE
8
Layer 1
10
55.326777
20
116.555223
11
55.245671
21
116.501030
0
LINE
8
Layer 1
10
55.245671
20
116.501030
11
55.150000
21
116.482000
0
LINE
8
Layer 1
10
55.150000
20
116.482000
11
53.900000
21
116.482000
0
LINE
8
Layer 1
10
54.250000
20
119.082000
11
54.800000
21
119.082000
0
LINE
8
Layer 1
10
54.250000
20
121.082000
11
54.800000
21
121.082000
0
LINE
8
Layer 1
10
54.250000
20
123.082000
11
54.800000
21
123.082000
0
LINE
8
Layer 1
10
63.680000
20
100.592000
11
61.680000
21
100.592000
0
LINE
8
Layer 1
10
61.680000
20
100.592000
11
61.680000
21
102.592000
0
LINE
8
Layer 1
10
61.680000
20
102.592000
11
63.680000
21
102.592000
0
LINE
8
Layer 1
10
63.680000
20
102.592000
11
63.680000
21
100.592000
0
LINE
8
Layer 1
10
47.810000
20
112.452000
11
49.410000
21
112.452000
0
LINE
8
Layer 1
10
49.410000
20
112.452000
11
49.410000
21
110.852000
0
LINE
8
Layer 1
10
49.410000
20
110.852000
11
47.810000
21
110.852000
0
LINE
8
Layer 1
10
47.810000
20
110.852000
11
47.810000
21
112.452000
0
LINE
8
Layer 1
10
27.600000
20
123.757000
11
27.695671
21
123.737970
0
LINE
8
Layer 1
10
27.695671
20
123.737970
11
27.776777
21
123.683777
0
LINE
8
Layer 1
10
27.776777
20
123.683777
11
27.830970
21
123.602671
0
LINE
8
Layer 1
10
27.830970
20
123.602671
11
27.850000
21
123.507000
0
LINE
8
Layer 1
10
27.850000
20
123.507000
11
27.850000
21
122.807000
0
LINE
8
Layer 1
10
27.850000
20
122.807000
11
27.830970
21
122.711329
0
LINE
8
Layer 1
10
27.830970
20
122.711329
11
27.776777
21
122.630223
0
LINE
8
Layer 1
10
27.776777
20
122.630223
11
27.695671
21
122.576030
0
LINE
8
Layer 1
10
27.695671
20
122.576030
11
27.600000
21
122.557000
0
LINE
8
Layer 1
10
27.600000
20
122.557000
11
26.350000
21
122.557000
0
LINE
8
Layer 1
10
26.350000
20
122.557000
11
26.254329
21
122.576030
0
LINE
8
Layer 1
10
26.254329
20
122.576030
11
26.173223
21
122.630223
0
LINE
8
Layer 1
10
26.173223
20
122.630223
11
26.119030
21
122.711329
0
LINE
8
Layer 1
10
26.119030
20
122.711329
11
26.100000
21
122.807000
0
LINE
8
Layer 1
10
26.100000
20
122.807000
11
26.100000
21
123.507000
0
LINE
8
Layer 1
10
26.100000
20
123.507000
11
26.119030
21
123.602671
0
LINE
8
Layer 1
10
26.119030
20
123.602671
11
26.173223
21
123.683777
0
LINE
8
Layer 1
10
26.173223
20
123.683777
11
26.254329
21
123.737970
0
LINE
8
Layer 1
10
26.254329
20
123.737970
11
26.350000
21
123.757000
0
LINE
8
Layer 1
10
26.350000
20
123.757000
11
27.600000
21
123.757000
0
LINE
8
Layer 1
10
27.250000
20
121.157000
11
26.700000
21
121.157000
0
LINE
8
Layer 1
10
27.250000
20
119.157000
11
26.700000
21
119.157000
0
LINE
8
Layer 1
10
55.165000
20
174.107000
11
55.165000
21
175.807000
0
LINE
8
Layer 1
10
55.165000
20
175.807000
11
56.865000
21
175.807000
0
LINE
8
Layer 1
10
56.865000
20
175.807000
11
56.865000
21
174.107000
0
LINE
8
Layer 1
10
56.865000
20
174.107000
11
55.165000
21
174.107000
0
LINE
8
Layer 1
10
59.185000
20
171.957000
11
59.185000
21
174.057000
0
LINE
8
Layer 1
10
59.185000
20
174.057000
11
61.285000
21
174.057000
0
LINE
8
Layer 1
10
61.285000
20
174.057000
11
61.285000
21
171.957000
0
LINE
8
Layer 1
10
61.285000
20
171.957000
11
59.185000
21
171.957000
0
LINE
8
Layer 1
10
47.900000
20
116.482000
11
47.804329
21
116.501030
0
LINE
8
Layer 1
10
47.804329
20
116.501030
11
47.723223
21
116.555223
0
LINE
8
Layer 1
10
47.723223
20
116.555223
11
47.669030
21
116.636329
0
LINE
8
Layer 1
10
47.669030
20
116.636329
11
47.650000
21
116.732000
0
LINE
8
Layer 1
10
47.650000
20
116.732000
11
47.650000
21
117.432000
0
LINE
8
Layer 1
10
47.650000
20
117.432000
11
47.669030
21
117.527671
0
LINE
8
Layer 1
10
47.669030
20
117.527671
11
47.723223
21
117.608777
0
LINE
8
Layer 1
10
47.723223
20
117.608777
11
47.804329
21
117.662970
0
LINE
8
Layer 1
10
47.804329
20
117.662970
11
47.900000
21
117.682000
0
LINE
8
Layer 1
10
47.900000
20
117.682000
11
49.150000
21
117.682000
0
LINE
8
Layer 1
10
49.150000
20
117.682000
11
49.245671
21
117.662970
0
LINE
8
Layer 1
10
49.245671
20
117.662970
11
49.326777
21
117.608777
0
LINE
8
Layer 1
10
49.326777
20
117.608777
11
49.380970
21
117.527671
0
LINE
8
Layer 1
10
49.380970
20
117.527671
11
49.400000
21
117.432000
0
LINE
8
Layer 1
10
49.400000
20
117.432000
11
49.400000
21
116.732000
0
LINE
8
Layer 1
10
49.400000
20
116.732000
11
49.380970
21
116.636329
0
LINE
8
Layer 1
10
49.380970
20
116.636329
11
49.326777
21
116.555223
0
LINE
8
Layer 1
10
49.326777
20
116.555223
11
49.245671
21
116.501030
0
LINE
8
Layer 1
10
49.245671
20
116.501030
11
49.150000
21
116.482000
0
LINE
8
Layer 1
10
49.150000
20
116.482000
11
47.900000
21
116.482000
0
LINE
8
Layer 1
10
48.250000
20
119.082000
11
48.800000
21
119.082000
0
LINE
8
Layer 1
10
48.250000
20
121.082000
11
48.800000
21
121.082000
0
LINE
8
Layer 1
10
48.250000
20
123.082000
11
48.800000
21
123.082000
0
LINE
8
Layer 1
10
75.350000
20
131.407000
11
67.025000
21
131.407000
0
LINE
8
Layer 1
10
60.525000
20
137.907000
11
60.525000
21
140.957000
0
LINE
8
Layer 1
10
67.300000
20
143.657000
11
63.225000
21
143.657000
0
LINE
8
Layer 1
10
63.225000
20
143.657000
11
60.525000
21
140.957000
0
LINE
8
Layer 1
10
67.350000
20
143.607000
11
67.300000
21
143.657000
0
LINE
8
Layer 1
10
67.025000
20
131.407000
11
60.525000
21
137.907000
0
LINE
8
Layer 1
10
95.590000
20
121.952000
11
95.590000
21
126.552000
0
LINE
8
Layer 1
10
94.960000
20
126.552000
11
89.500000
21
132.012000
0
LINE
8
Layer 1
10
89.500000
20
132.012000
11
86.740000
21
132.012000
0
LINE
8
Layer 1
10
95.590000
20
126.552000
11
94.960000
21
126.552000
0
LINE
8
Layer 1
10
72.590000
20
120.722000
11
92.150000
21
120.722000
0
LINE
8
Layer 1
10
96.890000
20
118.802000
11
104.945000
21
126.857000
0
LINE
8
Layer 1
10
104.945000
20
126.857000
11
108.250000
21
126.857000
0
LINE
8
Layer 1
10
92.150000
20
120.722000
11
94.070000
21
118.802000
0
LINE
8
Layer 1
10
94.070000
20
118.802000
11
96.890000
21
118.802000
0
LINE
8
Layer 1
10
62.702000
20
122.904000
11
62.702000
21
125.698000
0
LINE
8
Layer 1
10
64.734000
20
127.730000
11
67.782000
21
127.730000
0
LINE
8
Layer 1
10
62.702000
20
125.698000
11
64.734000
21
127.730000
0
LINE
8
Layer 1
10
48.175000
20
172.991000
11
51.653000
21
169.513000
0
LINE
8
Layer 1
10
48.175000
20
174.957000
11
48.175000
21
172.991000
0
LINE
8
Layer 1
10
56.015000
20
141.937000
11
53.475000
21
141.937000
0
LINE
8
Layer 1
10
53.475000
20
174.957000
11
56.015000
21
174.957000
0
LINE
8
Layer 1
10
56.015000
20
159.717000
11
53.475000
21
159.717000
0
LINE
8
Layer 1
10
25.535000
20
172.417000
11
28.075000
21
172.417000
0
LINE
8
Layer 1
10
34.508000
20
130.016000
11
34.508000
21
132.128000
0
LINE
8
Layer 1
10
42.525000
20
121.082000
11
48.525000
21
121.082000
0
LINE
8
Layer 1
10
47.335000
20
136.907000
11
47.335000
21
132.937000
0
LINE
8
Layer 1
10
30.150000
20
136.486000
11
30.150000
21
172.882000
0
LINE
8
Layer 1
10
30.531700
20
127.235000
11
30.061873
21
126.765173
0
LINE
8
Layer 1
10
25.535000
20
174.957000
11
28.075000
21
174.957000
0
LINE
8
Layer 1
10
35.294000
20
121.060000
11
35.294000
21
119.650000
0
LINE
8
Layer 1
10
38.789200
20
124.555000
11
35.294040
21
121.059840
0
LINE
8
Layer 1
10
30.061900
20
124.882000
11
35.293990
21
119.649910
0
LINE
8
Layer 1
10
38.953000
20
124.555000
11
38.789200
21
124.555000
0
LINE
8
Layer 1
10
34.508000
20
130.016000
11
34.775000
21
129.749000
0
LINE
8
Layer 1
10
48.525000
20
121.082000
11
54.525000
21
121.082000
0
LINE
8
Layer 1
10
34.775000
20
129.749000
11
34.775000
21
128.141000
0
LINE
8
Layer 1
10
34.508000
20
132.128000
11
30.150000
21
136.486000
0
LINE
8
Layer 1
10
33.868500
20
127.235000
11
30.531700
21
127.235000
0
LINE
8
Layer 1
10
47.288200
20
136.954000
11
47.335045
21
136.907155
0
LINE
8
Layer 1
10
30.150000
20
172.882000
11
28.075000
21
174.957000
0
LINE
8
Layer 1
10
34.775000
20
128.141000
11
33.868516
21
127.234516
0
LINE
8
Layer 1
10
30.061900
20
126.765000
11
30.061900
21
124.882000
0
LINE
8
Layer 1
10
32.050500
20
130.412000
11
27.508000
21
130.412000
0
LINE
8
Layer 1
10
34.000000
20
128.462000
11
32.050500
21
130.412000
0
LINE
8
Layer 1
10
26.888000
20
153.284000
11
25.535000
21
154.637000
0
LINE
8
Layer 1
10
26.888000
20
131.032000
11
26.888000
21
153.284000
0
LINE
8
Layer 1
10
27.508000
20
130.412000
11
26.888000
21
131.032000
0
LINE
8
Layer 1
10
25.535000
20
154.637000
11
28.075000
21
154.637000
0
LINE
8
Layer 1
10
34.000000
20
128.462000
11
33.683500
21
128.462000
0
LINE
8
Layer 1
10
42.293300
20
131.269000
11
38.250000
21
135.312000
0
LINE
8
Layer 1
10
42.293300
20
127.006000
11
42.293300
21
131.269000
0
LINE
8
Layer 1
10
43.906000
20
126.968000
11
43.906000
21
134.536000
0
LINE
8
Layer 1
10
43.906000
20
126.968000
11
43.906003
21
126.968003
0
LINE
8
Layer 1
10
43.906000
20
134.536000
11
43.130000
21
135.312000
0
LINE
8
Layer 1
10
100.780000
20
149.162000
11
100.780000
21
158.822000
0
LINE
8
Layer 1
10
95.590000
20
142.452000
11
95.590000
21
143.972000
0
LINE
8
Layer 1
10
103.815000
20
161.857000
11
108.250000
21
161.857000
0
LINE
8
Layer 1
10
95.590000
20
142.452000
11
95.590000
21
137.852000
0
LINE
8
Layer 1
10
95.590000
20
143.972000
11
100.780000
21
149.162000
0
LINE
8
Layer 1
10
100.780000
20
158.822000
11
103.815000
21
161.857000
0
LINE
8
Layer 1
10
110.440000
20
170.012000
11
101.270000
21
170.012000
0
LINE
8
Layer 1
10
112.490000
20
100.107000
11
112.490000
21
167.962000
0
LINE
8
Layer 1
10
109.240000
20
96.857000
11
112.490000
21
100.107000
0
LINE
8
Layer 1
10
101.270000
20
170.012000
11
95.585000
21
164.327000
0
LINE
8
Layer 1
10
108.250000
20
96.857000
11
109.240000
21
96.857000
0
LINE
8
Layer 1
10
112.490000
20
167.962000
11
110.440000
21
170.012000
0
LINE
8
Layer 1
10
96.700000
20
85.762000
11
102.795000
21
91.857000
0
LINE
8
Layer 1
10
92.100000
20
85.762000
11
96.700000
21
85.762000
0
LINE
8
Layer 1
10
102.795000
20
91.857000
11
108.250000
21
91.857000
0
LINE
8
Layer 1
10
84.450000
20
94.402000
11
91.905000
21
101.857000
0
LINE
8
Layer 1
10
84.450000
20
87.352000
11
82.860000
21
85.762000
0
LINE
8
Layer 1
10
82.860000
20
85.762000
11
80.800000
21
85.762000
0
LINE
8
Layer 1
10
91.905000
20
101.857000
11
108.250000
21
101.857000
0
LINE
8
Layer 1
10
76.200000
20
85.762000
11
80.800000
21
85.762000
0
LINE
8
Layer 1
10
84.450000
20
94.402000
11
84.450000
21
87.352000
0
LINE
8
Layer 1
10
51.388000
20
127.188000
11
51.388000
21
167.790000
0
LINE
8
Layer 1
10
53.475000
20
169.877000
11
56.015000
21
169.877000
0
LINE
8
Layer 1
10
42.525000
20
117.082000
11
48.525000
21
117.082000
0
LINE
8
Layer 1
10
49.950000
20
125.750000
11
51.388000
21
127.188000
0
LINE
8
Layer 1
10
32.020000
20
125.672000
11
39.106000
21
125.672000
0
LINE
8
Layer 1
10
40.360000
20
124.418000
11
40.360000
21
119.247000
0
LINE
8
Layer 1
10
40.360000
20
119.247000
11
42.525000
21
117.082000
0
LINE
8
Layer 1
10
51.388000
20
167.790000
11
53.475000
21
169.877000
0
LINE
8
Layer 1
10
39.106000
20
125.672000
11
40.360000
21
124.418000
0
LINE
8
Layer 1
10
48.525000
20
117.082000
11
54.525000
21
117.082000
0
LINE
8
Layer 1
10
39.292400
20
126.122000
11
40.810000
21
124.604400
0
LINE
8
Layer 1
10
42.525000
20
119.082000
11
48.525000
21
119.082000
0
LINE
8
Layer 1
10
53.475000
20
162.257000
11
56.015000
21
162.257000
0
LINE
8
Layer 1
10
51.838000
20
126.994000
11
51.838000
21
160.620000
0
LINE
8
Layer 1
10
32.857000
20
126.460000
11
33.195000
21
126.122000
0
LINE
8
Layer 1
10
33.195000
20
126.122000
11
39.292400
21
126.122000
0
LINE
8
Layer 1
10
51.838000
20
160.620000
11
53.475000
21
162.257000
0
LINE
8
Layer 1
10
40.810000
20
124.604000
11
40.810000
21
120.952000
0
LINE
8
Layer 1
10
40.810000
20
120.952000
11
42.525000
21
119.237000
0
LINE
8
Layer 1
10
53.325000
20
125.507000
11
51.838000
21
126.994000
0
LINE
8
Layer 1
10
42.525000
20
119.237000
11
42.525000
21
119.082000
0
LINE
8
Layer 1
10
48.525000
20
119.082000
11
54.525000
21
119.082000
0
LINE
8
Layer 1
10
28.075000
20
169.877000
11
25.535000
21
169.877000
0
LINE
8
Layer 1
10
25.535000
20
167.337000
11
28.075000
21
167.337000
0
LINE
8
Layer 1
10
25.535000
20
164.797000
11
28.075000
21
164.797000
0
LINE
8
Layer 1
10
25.535000
20
162.257000
11
28.075000
21
162.257000
0
LINE
8
Layer 1
10
25.535000
20
159.717000
11
28.075000
21
159.717000
0
LINE
8
Layer 1
10
28.075000
20
157.177000
11
25.535000
21
157.177000
0
LINE
8
Layer 1
10
56.254000
20
124.757000
11
52.288000
21
128.723000
0
LINE
8
Layer 1
10
52.288000
20
128.723000
11
52.288000
21
150.910000
0
LINE
8
Layer 1
10
56.015000
20
152.097000
11
53.475000
21
152.097000
0
LINE
8
Layer 1
10
57.450000
20
124.757000
11
56.254000
21
124.757000
0
LINE
8
Layer 1
10
52.288000
20
150.910000
11
53.475000
21
152.097000
0
LINE
8
Layer 1
10
35.282500
20
131.400000
11
35.282500
21
131.413000
0
LINE
8
Layer 1
10
39.842000
20
126.841000
11
35.282500
21
131.400000
0
LINE
8
Layer 1
10
33.619000
20
131.921000
11
29.428000
21
136.112000
0
LINE
8
Layer 1
10
40.096000
20
126.841000
11
39.842000
21
126.841000
0
LINE
8
Layer 1
10
29.428000
20
136.112000
11
29.428000
21
145.664000
0
LINE
8
Layer 1
10
29.428000
20
145.664000
11
28.075000
21
147.017000
0
LINE
8
Layer 1
10
59.117100
20
131.165000
11
59.117100
21
169.315000
0
LINE
8
Layer 1
10
56.015000
20
172.417000
11
53.475000
21
172.417000
0
LINE
8
Layer 1
10
60.525000
20
129.757000
11
59.117100
21
131.165000
0
LINE
8
Layer 1
10
59.117100
20
169.315000
11
56.015000
21
172.417000
0
LINE
8
Layer 1
10
56.015000
20
167.337000
11
53.475000
21
167.337000
0
LINE
8
Layer 1
10
56.015000
20
164.797000
11
53.475000
21
164.797000
0
LINE
8
Layer 1
10
60.525000
20
127.757000
11
58.667100
21
129.615000
0
LINE
8
Layer 1
10
56.015000
20
157.177000
11
53.475000
21
157.177000
0
LINE
8
Layer 1
10
58.667100
20
129.615000
11
58.667100
21
154.525000
0
LINE
8
Layer 1
10
58.667100
20
154.525000
11
56.015000
21
157.177000
0
LINE
8
Layer 1
10
58.217100
20
128.065000
11
58.217100
21
152.435000
0
LINE
8
Layer 1
10
53.475000
20
154.637000
11
56.015000
21
154.637000
0
LINE
8
Layer 1
10
60.525000
20
125.757000
11
58.217100
21
128.065000
0
LINE
8
Layer 1
10
58.217100
20
152.435000
11
56.015000
21
154.637000
0
LINE
8
Layer 1
10
53.475000
20
149.557000
11
56.015000
21
149.557000
0
LINE
8
Layer 1
10
57.750000
20
147.822000
11
56.015000
21
149.557000
0
LINE
8
Layer 1
10
57.750000
20
126.282000
11
57.750000
21
147.822000
0
LINE
8
Layer 1
10
58.750000
20
125.282000
11
57.750000
21
126.282000
0
LINE
8
Layer 1
10
63.375000
20
140.382000
11
63.650000
21
140.107000
0
LINE
8
Layer 1
10
56.015000
20
147.017000
11
53.475000
21
147.017000
0
LINE
8
Layer 1
10
63.375000
20
142.382000
11
63.375000
21
140.382000
0
LINE
8
Layer 1
10
53.475000
20
144.477000
11
56.015000
21
144.477000
0
LINE
8
Layer 1
10
53.475000
20
139.397000
11
56.015000
21
139.397000
0
LINE
8
Layer 1
10
56.015000
20
136.857000
11
53.475000
21
136.857000
0
LINE
8
Layer 1
10
53.475000
20
134.317000
11
56.015000
21
134.317000
0
LINE
8
Layer 1
10
56.015000
20
131.777000
11
53.475000
21
131.777000
0
LINE
8
Layer 1
10
53.475000
20
129.237000
11
56.015000
21
129.237000
0
LINE
8
Layer 1
10
104.300000
20
139.832000
11
107.275000
21
136.857000
0
LINE
8
Layer 1
10
104.300000
20
148.897000
11
104.300000
21
139.832000
0
LINE
8
Layer 1
10
107.260000
20
151.857000
11
104.300000
21
148.897000
0
LINE
8
Layer 1
10
107.275000
20
136.857000
11
108.250000
21
136.857000
0
LINE
8
Layer 1
10
108.250000
20
151.857000
11
107.260000
21
151.857000
0
LINE
8
Layer 1
10
108.250000
20
116.857000
11
108.250000
21
121.857000
0
LINE
8
Layer 1
10
90.026000
20
111.857000
11
108.250000
21
111.857000
0
LINE
8
Layer 1
10
84.450000
20
107.652000
11
85.821000
21
107.652000
0
LINE
8
Layer 1
10
85.821000
20
107.652000
11
90.026000
21
111.857000
0
LINE
8
Layer 1
10
23.095000
20
177.222000
11
118.762000
21
177.222000
0
LINE
8
Layer 1
10
118.762000
20
177.222000
11
118.762000
21
82.012000
0
LINE
8
Layer 1
10
118.762000
20
82.012000
11
23.095000
21
82.012000
0
LINE
8
Layer 1
10
23.095000
20
82.012000
11
23.095000
21
177.222000
 0 
ENDSEC
 0 
EOF