999
"DXF R12 Output" (www.mydxf.blogspot.com)
 0 
SECTION
 2 
HEADER
 9 
$ACADVER
 1 
AC1009
 9 
$EXTMIN
 10 
 0 
 20 
 0 
 9 
$EXTMAX
 10 
 8.5 
 20 
 11 
 0 
ENDSEC
 0 
SECTION
 2 
ENTITIES
0
LINE
8
Layer 1
10
57.839800
20
53.795200
11
59.089900
21
53.795200
0
LINE
8
Layer 1
10
59.089900
20
53.795200
11
59.089900
21
44.896500
0
LINE
8
Layer 1
10
59.089900
20
44.896500
11
57.839800
21
44.896500
0
LINE
8
Layer 1
10
57.839800
20
44.896500
11
57.839800
21
53.795200
0
LINE
8
Layer 1
10
49.208290
20
14.307700
11
50.458300
21
14.307600
0
LINE
8
Layer 1
10
50.458300
20
14.307600
11
50.458300
21
7.767080
0
LINE
8
Layer 1
10
50.458300
20
7.767080
11
49.208300
21
7.767080
0
LINE
8
Layer 1
10
49.208300
20
7.767080
11
49.208290
21
14.307700
0
LINE
8
Layer 1
10
22.288900
20
83.802100
11
23.164695
21
83.625285
0
LINE
8
Layer 1
10
23.164695
20
83.625285
11
23.879881
21
83.143095
0
LINE
8
Layer 1
10
23.879881
20
83.143095
11
24.362074
21
82.427910
0
LINE
8
Layer 1
10
24.362074
20
82.427910
11
24.538890
21
81.552110
0
LINE
8
Layer 1
10
24.538890
20
81.552110
11
24.362074
21
80.676315
0
LINE
8
Layer 1
10
24.362074
20
80.676315
11
23.879881
21
79.961129
0
LINE
8
Layer 1
10
23.879881
20
79.961129
11
23.164695
21
79.478936
0
LINE
8
Layer 1
10
23.164695
20
79.478936
11
22.288900
21
79.302120
0
LINE
8
Layer 1
10
22.288900
20
79.302120
11
21.413105
21
79.478936
0
LINE
8
Layer 1
10
21.413105
20
79.478936
11
20.697919
21
79.961129
0
LINE
8
Layer 1
10
20.697919
20
79.961129
11
20.215726
21
80.676315
0
LINE
8
Layer 1
10
20.215726
20
80.676315
11
20.038910
21
81.552110
0
LINE
8
Layer 1
10
20.038910
20
81.552110
11
20.215726
21
82.427910
0
LINE
8
Layer 1
10
20.215726
20
82.427910
11
20.697919
21
83.143095
0
LINE
8
Layer 1
10
20.697919
20
83.143095
11
21.413105
21
83.625285
0
LINE
8
Layer 1
10
21.413105
20
83.625285
11
22.288900
21
83.802100
0
LINE
8
Layer 1
10
22.288900
20
83.802100
11
22.288900
21
83.802100
0
LINE
8
Layer 1
10
52.458200
20
67.612400
11
51.585390
21
66.716847
0
LINE
8
Layer 1
10
51.585390
20
66.716847
11
53.120180
21
65.211517
0
LINE
8
Layer 1
10
53.120180
20
65.211517
11
53.401134
21
64.740574
0
LINE
8
Layer 1
10
53.401134
20
64.740574
11
53.546510
21
63.970247
0
LINE
8
Layer 1
10
53.546510
20
63.970247
11
53.402901
21
63.261145
0
LINE
8
Layer 1
10
53.402901
20
63.261145
11
53.018449
21
62.691646
0
LINE
8
Layer 1
10
53.018449
20
62.691646
11
52.449217
21
62.312637
0
LINE
8
Layer 1
10
52.449217
20
62.312637
11
51.751270
21
62.175007
0
LINE
8
Layer 1
10
51.751270
20
62.175007
11
51.220550
21
62.256657
0
LINE
8
Layer 1
10
51.220550
20
62.256657
11
50.096590
21
62.477832
0
LINE
8
Layer 1
10
50.096590
20
62.477832
11
49.082180
21
62.429772
0
LINE
8
Layer 1
10
49.082180
20
62.429772
11
47.560044
21
61.892102
0
LINE
8
Layer 1
10
47.560044
20
61.892102
11
46.357326
21
60.900480
0
LINE
8
Layer 1
10
46.357326
20
60.900480
11
45.567223
21
59.558585
0
LINE
8
Layer 1
10
45.567223
20
59.558585
11
45.282930
21
57.970092
0
LINE
8
Layer 1
10
45.282930
20
57.970092
11
45.359924
21
57.154563
0
LINE
8
Layer 1
10
45.359924
20
57.154563
11
45.577256
21
56.392638
0
LINE
8
Layer 1
10
45.577256
20
56.392638
11
46.354128
21
55.075062
0
LINE
8
Layer 1
10
46.354128
20
55.075062
11
47.455941
21
54.108299
0
LINE
8
Layer 1
10
47.455941
20
54.108299
11
48.725090
21
53.583282
0
LINE
8
Layer 1
10
48.725090
20
53.583282
11
50.118810
21
53.464943
0
LINE
8
Layer 1
10
50.118810
20
53.464943
11
51.124430
21
53.650978
0
LINE
8
Layer 1
10
51.124430
20
53.650978
11
51.751270
21
53.765700
0
LINE
8
Layer 1
10
51.751270
20
53.765700
11
52.451380
21
53.625788
0
LINE
8
Layer 1
10
52.451380
20
53.625788
11
53.024064
21
53.252234
0
LINE
8
Layer 1
10
53.024064
20
53.252234
11
53.408256
21
52.714378
0
LINE
8
Layer 1
10
53.408256
20
52.714378
11
53.542890
21
52.081560
0
LINE
8
Layer 1
10
53.542890
20
52.081560
11
54.784700
21
52.081600
0
LINE
8
Layer 1
10
54.784700
20
52.081600
11
54.669304
21
52.819737
0
LINE
8
Layer 1
10
54.669304
20
52.819737
11
54.291264
21
53.637293
0
LINE
8
Layer 1
10
54.291264
20
53.637293
11
53.589305
21
54.383032
0
LINE
8
Layer 1
10
53.589305
20
54.383032
11
52.502150
21
54.905720
0
LINE
8
Layer 1
10
52.502150
20
54.905720
11
51.751300
21
55.007006
0
LINE
8
Layer 1
10
51.751300
20
55.007006
11
50.887780
21
54.902103
0
LINE
8
Layer 1
10
50.887780
20
54.902103
11
49.801030
21
54.715034
0
LINE
8
Layer 1
10
49.801030
20
54.715034
11
48.533818
21
54.970910
0
LINE
8
Layer 1
10
48.533818
20
54.970910
11
47.498996
21
55.668619
0
LINE
8
Layer 1
10
47.498996
20
55.668619
11
46.801286
21
56.703438
0
LINE
8
Layer 1
10
46.801286
20
56.703438
11
46.545410
21
57.970644
0
LINE
8
Layer 1
10
46.545410
20
57.970644
11
46.801288
21
59.237838
0
LINE
8
Layer 1
10
46.801288
20
59.237838
11
47.499000
21
60.272658
0
LINE
8
Layer 1
10
47.499000
20
60.272658
11
48.533822
21
60.970374
0
LINE
8
Layer 1
10
48.533822
20
60.970374
11
49.801030
21
61.226254
0
LINE
8
Layer 1
10
49.801030
20
61.226254
11
50.887780
21
61.038669
0
LINE
8
Layer 1
10
50.887780
20
61.038669
11
51.458076
21
60.927771
0
LINE
8
Layer 1
10
51.458076
20
60.927771
11
52.675270
21
61.078979
0
LINE
8
Layer 1
10
52.675270
20
61.078979
11
53.519942
21
61.494375
0
LINE
8
Layer 1
10
53.519942
20
61.494375
11
54.188124
21
62.180497
0
LINE
8
Layer 1
10
54.188124
20
62.180497
11
54.627366
21
63.012717
0
LINE
8
Layer 1
10
54.627366
20
63.012717
11
54.785220
21
63.866409
0
LINE
8
Layer 1
10
54.785220
20
63.866409
11
54.545681
21
65.247512
0
LINE
8
Layer 1
10
54.545681
20
65.247512
11
53.895870
21
66.222339
0
LINE
8
Layer 1
10
53.895870
20
66.222339
11
52.458200
21
67.612400
0
LINE
8
Layer 1
10
53.542890
20
46.700500
11
53.407412
21
45.987569
0
LINE
8
Layer 1
10
53.407412
20
45.987569
11
53.023314
21
45.412522
0
LINE
8
Layer 1
10
53.023314
20
45.412522
11
52.451099
21
45.028519
0
LINE
8
Layer 1
10
52.451099
20
45.028519
11
51.751270
21
44.888720
0
LINE
8
Layer 1
10
51.751270
20
44.888720
11
51.124430
21
45.003442
0
LINE
8
Layer 1
10
51.124430
20
45.003442
11
50.118810
21
45.189477
0
LINE
8
Layer 1
10
50.118810
20
45.189477
11
49.071330
21
45.141937
0
LINE
8
Layer 1
10
49.071330
20
45.141937
11
47.576399
21
44.616914
0
LINE
8
Layer 1
10
47.576399
20
44.616914
11
46.374641
21
43.624585
0
LINE
8
Layer 1
10
46.374641
20
43.624585
11
45.574128
21
42.276529
0
LINE
8
Layer 1
10
45.574128
20
42.276529
11
45.358110
21
41.503973
0
LINE
8
Layer 1
10
45.358110
20
41.503973
11
45.282930
21
40.684327
0
LINE
8
Layer 1
10
45.282930
20
40.684327
11
45.357702
21
39.863904
0
LINE
8
Layer 1
10
45.357702
20
39.863904
11
45.573410
21
39.089478
0
LINE
8
Layer 1
10
45.573410
20
39.089478
11
46.377915
21
37.736334
0
LINE
8
Layer 1
10
46.377915
20
37.736334
11
47.597013
21
36.740330
0
LINE
8
Layer 1
10
47.597013
20
36.740330
11
48.330961
21
36.412328
0
LINE
8
Layer 1
10
48.330961
20
36.412328
11
49.131270
21
36.216897
0
LINE
8
Layer 1
10
49.131270
20
36.216897
11
49.130750
21
36.215897
0
LINE
8
Layer 1
10
49.130750
20
36.215897
11
50.096590
21
36.176627
0
LINE
8
Layer 1
10
50.096590
20
36.176627
11
51.220550
21
36.397802
0
LINE
8
Layer 1
10
51.220550
20
36.397802
11
51.751270
21
36.479452
0
LINE
8
Layer 1
10
51.751270
20
36.479452
11
52.451415
21
36.329601
0
LINE
8
Layer 1
10
52.451415
20
36.329601
11
53.024137
21
35.936640
0
LINE
8
Layer 1
10
53.024137
20
35.936640
11
53.408718
21
35.385525
0
LINE
8
Layer 1
10
53.408718
20
35.385525
11
53.544440
21
34.761212
0
LINE
8
Layer 1
10
53.544440
20
34.761212
11
53.412201
21
33.942916
0
LINE
8
Layer 1
10
53.412201
20
33.942916
11
53.020440
21
33.331842
0
LINE
8
Layer 1
10
53.020440
20
33.331842
11
53.018440
21
33.332842
0
LINE
8
Layer 1
10
53.018440
20
33.332842
11
51.585460
21
31.937582
0
LINE
8
Layer 1
10
51.585460
20
31.937582
11
50.586597
21
30.719002
0
LINE
8
Layer 1
10
50.586597
20
30.719002
11
49.835909
21
29.365472
0
LINE
8
Layer 1
10
49.835909
20
29.365472
11
49.355121
21
27.934385
0
LINE
8
Layer 1
10
49.355121
20
27.934385
11
49.165960
21
26.483132
0
LINE
8
Layer 1
10
49.165960
20
26.483132
11
49.162960
21
21.947492
0
LINE
8
Layer 1
10
49.162960
20
21.947492
11
50.413500
21
21.947500
0
LINE
8
Layer 1
10
50.413500
20
21.947500
11
50.416500
21
26.495030
0
LINE
8
Layer 1
10
50.416500
20
26.495030
11
50.547866
21
27.586680
0
LINE
8
Layer 1
10
50.547866
20
27.586680
11
50.953817
21
28.788204
0
LINE
8
Layer 1
10
50.953817
20
28.788204
11
51.601288
21
29.979893
0
LINE
8
Layer 1
10
51.601288
20
29.979893
11
52.457210
21
31.042040
0
LINE
8
Layer 1
10
52.457210
20
31.042040
11
53.895880
21
32.432140
0
LINE
8
Layer 1
10
53.895880
20
32.432140
11
54.539694
21
33.399165
0
LINE
8
Layer 1
10
54.539694
20
33.399165
11
54.784200
21
34.792200
0
LINE
8
Layer 1
10
54.784200
20
34.792200
11
54.633675
21
35.630937
0
LINE
8
Layer 1
10
54.633675
20
35.630937
11
54.217630
21
36.434099
0
LINE
8
Layer 1
10
54.217630
20
36.434099
11
53.590325
21
37.100766
0
LINE
8
Layer 1
10
53.590325
20
37.100766
11
52.806020
21
37.530020
0
LINE
8
Layer 1
10
52.806020
20
37.530020
11
51.750270
21
37.719673
0
LINE
8
Layer 1
10
51.750270
20
37.719673
11
50.886760
21
37.615803
0
LINE
8
Layer 1
10
50.886760
20
37.615803
11
49.800000
21
37.428218
0
LINE
8
Layer 1
10
49.800000
20
37.428218
11
48.532798
21
37.684100
0
LINE
8
Layer 1
10
48.532798
20
37.684100
11
47.497979
21
38.381818
0
LINE
8
Layer 1
10
47.497979
20
38.381818
11
46.800268
21
39.416639
0
LINE
8
Layer 1
10
46.800268
20
39.416639
11
46.544390
21
40.683828
0
LINE
8
Layer 1
10
46.544390
20
40.683828
11
46.800266
21
41.951036
0
LINE
8
Layer 1
10
46.800266
20
41.951036
11
47.497975
21
42.985858
0
LINE
8
Layer 1
10
47.497975
20
42.985858
11
48.532794
21
43.683570
0
LINE
8
Layer 1
10
48.532794
20
43.683570
11
49.800000
21
43.939448
0
LINE
8
Layer 1
10
49.800000
20
43.939448
11
50.886760
21
43.752380
0
LINE
8
Layer 1
10
50.886760
20
43.752380
11
51.750270
21
43.647477
0
LINE
8
Layer 1
10
51.750270
20
43.647477
11
52.264296
21
43.696082
0
LINE
8
Layer 1
10
52.264296
20
43.696082
11
52.968290
21
43.904825
0
LINE
8
Layer 1
10
52.968290
20
43.904825
11
53.715060
21
44.372525
0
LINE
8
Layer 1
10
53.715060
20
44.372525
11
54.287845
21
45.023567
0
LINE
8
Layer 1
10
54.287845
20
45.023567
11
54.654957
21
45.791037
0
LINE
8
Layer 1
10
54.654957
20
45.791037
11
54.784710
21
46.608015
0
LINE
8
Layer 1
10
54.784710
20
46.608015
11
54.784800
21
46.612700
0
LINE
8
Layer 1
10
54.784800
20
46.612700
11
53.543000
21
46.612700
0
LINE
8
Layer 1
10
53.543000
20
46.612700
11
53.542890
21
46.700500
0
LINE
8
Layer 1
10
48.048040
20
95.415400
11
49.298100
21
95.415400
0
LINE
8
Layer 1
10
49.298100
20
95.415400
11
49.298100
21
80.832800
0
LINE
8
Layer 1
10
49.298100
20
80.832800
11
48.048100
21
80.832800
0
LINE
8
Layer 1
10
48.048100
20
80.832800
11
48.048040
21
95.415400
0
LINE
8
Layer 1
10
52.266480
20
99.254960
11
51.756711
21
99.165811
0
LINE
8
Layer 1
10
51.756711
20
99.165811
11
51.470419
21
98.930776
0
LINE
8
Layer 1
10
51.470419
20
98.930776
11
51.160910
21
98.217559
0
LINE
8
Layer 1
10
51.160910
20
98.217559
11
50.934012
21
97.836636
0
LINE
8
Layer 1
10
50.934012
20
97.836636
11
50.523231
21
97.504341
0
LINE
8
Layer 1
10
50.523231
20
97.504341
11
49.826727
21
97.269302
0
LINE
8
Layer 1
10
49.826727
20
97.269302
11
48.742660
21
97.180150
0
LINE
8
Layer 1
10
48.742660
20
97.180150
11
0.000440
21
97.180100
0
LINE
8
Layer 1
10
0.000440
20
97.180100
11
0.000440
21
5.034830
0
LINE
8
Layer 1
10
0.000440
20
5.034830
11
4.313870
21
5.034830
0
LINE
8
Layer 1
10
4.313870
20
5.034830
11
4.313870
21
5.434800
0
LINE
8
Layer 1
10
4.313870
20
5.434800
11
4.313870
21
5.888010
0
LINE
8
Layer 1
10
4.313870
20
5.888010
11
4.313870
21
6.017200
0
LINE
8
Layer 1
10
4.313870
20
6.017200
11
4.430760
21
6.300288
0
LINE
8
Layer 1
10
4.430760
20
6.300288
11
4.713850
21
6.417176
0
LINE
8
Layer 1
10
4.713850
20
6.417176
11
8.314140
21
6.417170
0
LINE
8
Layer 1
10
8.314140
20
6.417170
11
8.597230
21
6.300282
0
LINE
8
Layer 1
10
8.597230
20
6.300282
11
8.714120
21
6.017194
0
LINE
8
Layer 1
10
8.714120
20
6.017194
11
8.714120
21
5.888010
0
LINE
8
Layer 1
10
8.714120
20
5.888010
11
8.714120
21
5.434800
0
LINE
8
Layer 1
10
8.714120
20
5.434800
11
8.714120
21
5.034830
0
LINE
8
Layer 1
10
8.714120
20
5.034830
11
16.958600
21
5.034830
0
LINE
8
Layer 1
10
16.958600
20
5.034830
11
16.958600
21
5.434800
0
LINE
8
Layer 1
10
16.958600
20
5.434800
11
16.958600
21
6.017200
0
LINE
8
Layer 1
10
16.958600
20
6.017200
11
17.075485
21
6.300288
0
LINE
8
Layer 1
10
17.075485
20
6.300288
11
17.358570
21
6.417176
0
LINE
8
Layer 1
10
17.358570
20
6.417176
11
20.973300
21
6.417170
0
LINE
8
Layer 1
10
20.973300
20
6.417170
11
21.256390
21
6.300282
0
LINE
8
Layer 1
10
21.256390
20
6.300282
11
21.373280
21
6.017194
0
LINE
8
Layer 1
10
21.373280
20
6.017194
11
21.373300
21
5.888010
0
LINE
8
Layer 1
10
21.373300
20
5.888010
11
21.373300
21
5.034830
0
LINE
8
Layer 1
10
21.373300
20
5.034830
11
29.698900
21
5.034830
0
LINE
8
Layer 1
10
29.698900
20
5.034830
11
29.698900
21
5.434800
0
LINE
8
Layer 1
10
29.698900
20
5.434800
11
29.698900
21
6.017200
0
LINE
8
Layer 1
10
29.698900
20
6.017200
11
29.815785
21
6.300288
0
LINE
8
Layer 1
10
29.815785
20
6.300288
11
30.098870
21
6.417176
0
LINE
8
Layer 1
10
30.098870
20
6.417176
11
33.714100
21
6.417170
0
LINE
8
Layer 1
10
33.714100
20
6.417170
11
33.997190
21
6.300282
0
LINE
8
Layer 1
10
33.997190
20
6.300282
11
34.114080
21
6.017194
0
LINE
8
Layer 1
10
34.114080
20
6.017194
11
34.114100
21
5.888010
0
LINE
8
Layer 1
10
34.114100
20
5.888010
11
34.114100
21
5.034830
0
LINE
8
Layer 1
10
34.114100
20
5.034830
11
38.414100
21
5.034830
0
LINE
8
Layer 1
10
38.414100
20
5.034830
11
40.882200
21
5.034830
0
LINE
8
Layer 1
10
40.882200
20
5.034830
11
40.882200
21
5.107690
0
LINE
8
Layer 1
10
40.882200
20
5.107690
11
41.058480
21
5.985114
0
LINE
8
Layer 1
10
41.058480
20
5.985114
11
41.539780
21
6.700119
0
LINE
8
Layer 1
10
41.539780
20
6.700119
11
42.254787
21
7.181407
0
LINE
8
Layer 1
10
42.254787
20
7.181407
11
43.132190
21
7.357680
0
LINE
8
Layer 1
10
43.132190
20
7.357680
11
44.009620
21
7.181407
0
LINE
8
Layer 1
10
44.009620
20
7.181407
11
44.724627
21
6.700119
0
LINE
8
Layer 1
10
44.724627
20
6.700119
11
45.205917
21
5.985114
0
LINE
8
Layer 1
10
45.205917
20
5.985114
11
45.382190
21
5.107690
0
LINE
8
Layer 1
10
45.382190
20
5.107690
11
45.382200
21
2.074800
0
LINE
8
Layer 1
10
45.382200
20
2.074800
11
48.742700
21
2.074800
0
LINE
8
Layer 1
10
48.742700
20
2.074800
11
49.826767
21
1.985648
0
LINE
8
Layer 1
10
49.826767
20
1.985648
11
50.523271
21
1.750610
0
LINE
8
Layer 1
10
50.523271
20
1.750610
11
50.934052
21
1.418315
0
LINE
8
Layer 1
10
50.934052
20
1.418315
11
51.160950
21
1.037391
0
LINE
8
Layer 1
10
51.160950
20
1.037391
11
51.470459
21
0.324175
0
LINE
8
Layer 1
10
51.470459
20
0.324175
11
51.756751
21
0.089139
0
LINE
8
Layer 1
10
51.756751
20
0.089139
11
52.266520
21
-0.000010
0
LINE
8
Layer 1
10
52.266520
20
-0.000010
11
63.566600
21
-0.000011
0
LINE
8
Layer 1
10
63.566600
20
-0.000011
11
74.866700
21
-0.000011
0
LINE
8
Layer 1
10
74.866700
20
-0.000011
11
75.376469
21
0.089138
0
LINE
8
Layer 1
10
75.376469
20
0.089138
11
75.662761
21
0.324173
0
LINE
8
Layer 1
10
75.662761
20
0.324173
11
75.972270
21
1.037390
0
LINE
8
Layer 1
10
75.972270
20
1.037390
11
76.199168
21
1.418313
0
LINE
8
Layer 1
10
76.199168
20
1.418313
11
76.609949
21
1.750608
0
LINE
8
Layer 1
10
76.609949
20
1.750608
11
77.306453
21
1.985647
0
LINE
8
Layer 1
10
77.306453
20
1.985647
11
78.390520
21
2.074799
0
LINE
8
Layer 1
10
78.390520
20
2.074799
11
82.905500
21
2.074800
0
LINE
8
Layer 1
10
82.905500
20
2.074800
11
82.905500
21
3.970290
0
LINE
8
Layer 1
10
82.905500
20
3.970290
11
83.082316
21
4.846085
0
LINE
8
Layer 1
10
83.082316
20
4.846085
11
83.564509
21
5.561271
0
LINE
8
Layer 1
10
83.564509
20
5.561271
11
84.279695
21
6.043464
0
LINE
8
Layer 1
10
84.279695
20
6.043464
11
85.155490
21
6.220280
0
LINE
8
Layer 1
10
85.155490
20
6.220280
11
95.717100
21
6.220280
0
LINE
8
Layer 1
10
95.717100
20
6.220280
11
95.717100
21
92.930200
0
LINE
8
Layer 1
10
95.717100
20
92.930200
11
85.155500
21
92.930200
0
LINE
8
Layer 1
10
85.155500
20
92.930200
11
84.279705
21
93.107019
0
LINE
8
Layer 1
10
84.279705
20
93.107019
11
83.564519
21
93.589211
0
LINE
8
Layer 1
10
83.564519
20
93.589211
11
83.082326
21
94.304395
0
LINE
8
Layer 1
10
83.082326
20
94.304395
11
82.905510
21
95.180190
0
LINE
8
Layer 1
10
82.905510
20
95.180190
11
82.905500
21
97.180100
0
LINE
8
Layer 1
10
82.905500
20
97.180100
11
78.390500
21
97.180100
0
LINE
8
Layer 1
10
78.390500
20
97.180100
11
77.306430
21
97.269252
0
LINE
8
Layer 1
10
77.306430
20
97.269252
11
76.609925
21
97.504290
0
LINE
8
Layer 1
10
76.609925
20
97.504290
11
76.199144
21
97.836585
0
LINE
8
Layer 1
10
76.199144
20
97.836585
11
75.972246
21
98.217509
0
LINE
8
Layer 1
10
75.972246
20
98.217509
11
75.662739
21
98.930725
0
LINE
8
Layer 1
10
75.662739
20
98.930725
11
75.376449
21
99.165761
0
LINE
8
Layer 1
10
75.376449
20
99.165761
11
74.866680
21
99.254910
0
LINE
8
Layer 1
10
74.866680
20
99.254910
11
63.566600
21
99.254900
0
LINE
8
Layer 1
10
63.566600
20
99.254900
11
52.266480
21
99.254960
 0 
ENDSEC
 0 
EOF