<?xml version="1.0" encoding="UTF-8" standalone="no"?>
<!-- Created with Inkscape (http://www.inkscape.org/) -->

<svg
   width="95.716637mm"
   height="95.105309mm"
   viewBox="0 0 95.716637 95.105309"
   version="1.1"
   id="svg36613"
   inkscape:version="1.2.1 (9c6d41e410, 2022-07-14)"
   sodipodi:docname="edge-cuts-2.svg"
   xmlns:inkscape="http://www.inkscape.org/namespaces/inkscape"
   xmlns:sodipodi="http://sodipodi.sourceforge.net/DTD/sodipodi-0.dtd"
   xmlns="http://www.w3.org/2000/svg"
   xmlns:svg="http://www.w3.org/2000/svg">
  <sodipodi:namedview
     id="namedview36615"
     pagecolor="#ffffff"
     bordercolor="#666666"
     borderopacity="1.0"
     inkscape:showpageshadow="2"
     inkscape:pageopacity="0.0"
     inkscape:pagecheckerboard="0"
     inkscape:deskcolor="#d1d1d1"
     inkscape:document-units="mm"
     showgrid="false"
     inkscape:zoom="2"
     inkscape:cx="50.25"
     inkscape:cy="199.5"
     inkscape:window-width="3840"
     inkscape:window-height="2050"
     inkscape:window-x="-12"
     inkscape:window-y="-12"
     inkscape:window-maximized="1"
     inkscape:current-layer="layer1" />
  <defs
     id="defs36610" />
  <g
     inkscape:label="Layer 1"
     inkscape:groupmode="layer"
     id="layer1"
     transform="translate(-222.41144,75.436108)">
    <path
       id="path74905"
       style="font-variation-settings:'wght' 600;fill:#ab5e44;fill-opacity:0.43686;fill-rule:evenodd;stroke:none;stroke-width:0.79375;stroke-linecap:round;stroke-opacity:0.556701"
       d="m 244.69991,-62.058113 c 1.24263,6e-6 2.24999,1.007358 2.24999,2.249992 0,1.242634 -1.00736,2.249986 -2.24999,2.249992 -1.24263,-6e-6 -2.24999,-1.007358 -2.24999,-2.249992 0,-1.242634 1.00736,-2.249986 2.24999,-2.249992 z m 30.16922,16.189709 1.43798,1.390064 c 0.54746,0.555476 0.8887,1.258727 0.88913,2.355908 4.3e-4,1.097181 -0.88956,2.469426 -2.11014,2.787415 -1.24539,0.272513 -1.40463,0.117266 -1.78749,0.04031 -0.32077,-0.0874 -0.71647,-0.187315 -1.08675,-0.187585 -1.79799,7e-5 -3.25555,1.457651 -3.25562,3.255615 7e-5,1.797994 1.45762,3.255545 3.25562,3.255615 0.37025,-1.1e-4 0.75962,-0.103971 1.08675,-0.187068 0.32714,-0.0831 0.60414,-0.112904 0.86352,-0.104904 0.25935,0.008 0.54805,0.0456 0.75098,0.10117 1.74791,0.484978 2.28572,1.985225 2.28317,2.846013 l 10e-4,1.536232 h -1.24334 l 1.6e-4,-1.55778 c 0.014,-0.876244 -0.80059,-1.684427 -1.79188,-1.684397 -0.18975,0.0156 -0.3653,0.0293 -0.62683,0.114722 -0.26153,0.0854 -0.7633,0.185689 -1.00563,0.186035 -0.55878,7.98e-4 -0.89297,-0.02532 -1.39365,-0.118072 -1.73372,-0.365117 -3.44156,-2.150935 -3.44225,-4.387049 4.3e-4,-2.236304 1.59822,-4.091619 3.79926,-4.4598 0.46952,-0.05711 0.68416,-0.0773 1.0144,-0.0479 0.33346,0.0231 0.76037,0.0992 1.12396,0.221175 0.17181,0.0537 0.35072,0.08115 0.53072,0.08165 0.99149,3e-5 1.78962,-0.779321 1.79524,-1.795239 0.0115,-0.571582 -0.25701,-1.06869 -0.42629,-1.241093 l -1.53472,-1.505511 z m 1.08468,19.481498 v 1.430404 c 0.012,1.01887 -0.80043,1.811803 -1.79172,1.811773 -0.18975,-0.0156 -0.3653,-0.0293 -0.62683,-0.114722 -0.26153,-0.0854 -0.76356,-0.174835 -1.00563,-0.186035 -0.24207,-0.0112 -0.50965,0.0025 -1.04717,0.04755 -2.14066,0.338903 -3.78804,2.221461 -3.78873,4.457569 4.3e-4,2.2363 1.63676,4.135868 3.84835,4.467428 l -5.2e-4,10e-4 c 0.31827,0.04 0.63559,0.06867 0.96583,0.03928 0.33346,-0.0231 0.76039,-0.0992 1.12396,-0.221176 0.17181,-0.0537 0.35072,-0.08115 0.53072,-0.08165 0.99149,-3e-5 1.80556,0.87507 1.79363,1.71853 0.003,0.606677 -0.18139,1.098702 -0.52442,1.429081 -5.4e-4,5.17e-4 -0.001,-0.0015 -0.002,-0.001 -0.66807,0.65088 -1.43298,1.395263 -1.43298,1.395263 -1.48761,1.5092977 -2.3713,3.5314877 -2.41944,5.4544257 l -0.003,4.535662 h 1.25057 l 0.003,-4.547351 c -0.0226,-1.329085 0.77547,-3.27055 2.04097,-4.547184 l 1.43843,-1.3900957 c 0.53284,-0.529167 0.88812,-1.26261 0.88855,-2.35979 4.3e-4,-1.09718 -0.8519,-2.368806 -1.97819,-2.738017 -0.40517,-0.107511 -0.74856,-0.192662 -1.05578,-0.189662 -0.30728,0.003 -0.54274,0.0164 -0.86352,0.10387 -0.32077,0.0874 -0.71647,0.187315 -1.08675,0.187585 -1.79799,-7e-5 -3.25555,-1.457655 -3.25562,-3.255615 7e-5,-1.79799 1.45762,-3.255545 3.25562,-3.255615 0.37025,1.1e-4 0.75962,0.103972 1.08675,0.187069 0.32714,0.0831 0.60414,0.112903 0.86352,0.104903 0.25933,-0.008 0.70542,-0.0358 1.21804,-0.257316 1.0976,-0.47163 1.81581,-1.610881 1.81649,-2.703456 l 9.7e-4,-1.522643 z m -4.33462,33.8230798 h 1.25006 V 17.918401 h -1.25006 z m -1.16013,-81.1075318 h 1.25005 v 14.582573 h -1.25005 z m -48.04762,-1.76475 v 92.14528 h 4.31343 v -0.399976 -0.453202 -0.129191 c 0,-0.2216 0.17838,-0.399976 0.39998,-0.399976 h 3.60029 c 0.2216,0 0.39998,0.178376 0.39998,0.399976 v 0.129191 0.453202 0.399976 h 8.24446 v -0.399976 -0.582393 c 0,-0.2216 0.17837,-0.399976 0.39997,-0.399976 h 3.61477 c 0.2216,0 0.39998,0.178376 0.39998,0.399976 v 0.129191 0.853178 h 8.32559 v -0.399976 -0.582393 c 0,-0.2216 0.17837,-0.399976 0.39997,-0.399976 h 3.61528 c 0.2216,0 0.39998,0.178376 0.39998,0.399976 v 0.129191 0.853178 h 4.3 v 2.960026 h 2.46806 v -3.03289 c 0,-1.246498 1.00351,-2.249992 2.24999,-2.249992 1.2465,0 2.25,1.003494 2.25,2.249992 v 3.03289 h 37.52329 v -1.895492 c 0,-1.242632 1.00736,-2.249986 2.24999,-2.249991 1.24263,5e-6 2.24999,1.007359 2.24999,2.249991 v 1.895492 h 8.31164 v -95.105306 h -8.31164 v 1.999878 c 0,1.242633 -1.00736,2.249986 -2.24999,2.249992 -1.24263,-6e-6 -2.24999,-1.007359 -2.24999,-2.249992 v -1.999878 z" />
  </g>
</svg>
