999
"DXF R12 Output" (www.mydxf.blogspot.com)
 0 
SECTION
 2 
HEADER
 9 
$ACADVER
 1 
AC1009
 9 
$EXTMIN
 10 
 0 
 20 
 0 
 9 
$EXTMAX
 10 
 8.5 
 20 
 11 
 0 
ENDSEC
 0 
SECTION
 2 
ENTITIES
0
LINE
8
Layer 1
10
22.288900
20
81.727300
11
23.164695
21
81.550481
0
LINE
8
Layer 1
10
23.164695
20
81.550481
11
23.879881
21
81.068289
0
LINE
8
Layer 1
10
23.879881
20
81.068289
11
24.362074
21
80.353105
0
LINE
8
Layer 1
10
24.362074
20
80.353105
11
24.538890
21
79.477310
0
LINE
8
Layer 1
10
24.538890
20
79.477310
11
24.362074
21
78.601515
0
LINE
8
Layer 1
10
24.362074
20
78.601515
11
23.879881
21
77.886329
0
LINE
8
Layer 1
10
23.879881
20
77.886329
11
23.164695
21
77.404136
0
LINE
8
Layer 1
10
23.164695
20
77.404136
11
22.288900
21
77.227320
0
LINE
8
Layer 1
10
22.288900
20
77.227320
11
21.413105
21
77.404139
0
LINE
8
Layer 1
10
21.413105
20
77.404139
11
20.697919
21
77.886331
0
LINE
8
Layer 1
10
20.697919
20
77.886331
11
20.215726
21
78.601515
0
LINE
8
Layer 1
10
20.215726
20
78.601515
11
20.038910
21
79.477310
0
LINE
8
Layer 1
10
20.038910
20
79.477310
11
20.215726
21
80.353105
0
LINE
8
Layer 1
10
20.215726
20
80.353105
11
20.697919
21
81.068291
0
LINE
8
Layer 1
10
20.697919
20
81.068291
11
21.413105
21
81.550484
0
LINE
8
Layer 1
10
21.413105
20
81.550484
11
22.288900
21
81.727300
0
LINE
8
Layer 1
10
22.288900
20
81.727300
11
22.288900
21
81.727300
0
LINE
8
Layer 1
10
52.458100
20
65.537600
11
53.896080
21
64.147540
0
LINE
8
Layer 1
10
53.896080
20
64.147540
11
54.545781
21
63.172724
0
LINE
8
Layer 1
10
54.545781
20
63.172724
11
54.785210
21
61.791630
0
LINE
8
Layer 1
10
54.785210
20
61.791630
11
54.627326
21
60.937940
0
LINE
8
Layer 1
10
54.627326
20
60.937940
11
54.188019
21
60.105725
0
LINE
8
Layer 1
10
54.188019
20
60.105725
11
53.519772
21
59.419610
0
LINE
8
Layer 1
10
53.519772
20
59.419610
11
52.675070
21
59.004220
0
LINE
8
Layer 1
10
52.675070
20
59.004220
11
51.457876
21
58.853014
0
LINE
8
Layer 1
10
51.457876
20
58.853014
11
50.887580
21
58.963910
0
LINE
8
Layer 1
10
50.887580
20
58.963910
11
49.800830
21
59.151495
0
LINE
8
Layer 1
10
49.800830
20
59.151495
11
48.533622
21
58.895615
0
LINE
8
Layer 1
10
48.533622
20
58.895615
11
47.498800
21
58.197899
0
LINE
8
Layer 1
10
47.498800
20
58.197899
11
46.801088
21
57.163079
0
LINE
8
Layer 1
10
46.801088
20
57.163079
11
46.545210
21
55.895885
0
LINE
8
Layer 1
10
46.545210
20
55.895885
11
46.801086
21
54.628679
0
LINE
8
Layer 1
10
46.801086
20
54.628679
11
47.498796
21
53.593859
0
LINE
8
Layer 1
10
47.498796
20
53.593859
11
48.533618
21
52.896147
0
LINE
8
Layer 1
10
48.533618
20
52.896147
11
49.800830
21
52.640265
0
LINE
8
Layer 1
10
49.800830
20
52.640265
11
50.887580
21
52.827333
0
LINE
8
Layer 1
10
50.887580
20
52.827333
11
51.751100
21
52.932237
0
LINE
8
Layer 1
10
51.751100
20
52.932237
11
52.502080
21
52.831067
0
LINE
8
Layer 1
10
52.502080
20
52.831067
11
53.596583
21
52.302826
0
LINE
8
Layer 1
10
53.596583
20
52.302826
11
54.300088
21
51.548991
0
LINE
8
Layer 1
10
54.300088
20
51.548991
11
54.675380
21
50.724692
0
LINE
8
Layer 1
10
54.675380
20
50.724692
11
54.785250
21
49.985057
0
LINE
8
Layer 1
10
54.785250
20
49.985057
11
54.786250
21
48.448827
0
LINE
8
Layer 1
10
54.786250
20
48.448827
11
53.542900
21
48.448800
0
LINE
8
Layer 1
10
53.542900
20
48.448800
11
53.543060
21
50.006580
0
LINE
8
Layer 1
10
53.543060
20
50.006580
11
53.408385
21
50.639437
0
LINE
8
Layer 1
10
53.408385
20
50.639437
11
53.024104
21
51.177383
0
LINE
8
Layer 1
10
53.024104
20
51.177383
11
52.451330
21
51.551027
0
LINE
8
Layer 1
10
52.451330
20
51.551027
11
51.751180
21
51.690980
0
LINE
8
Layer 1
10
51.751180
20
51.690980
11
51.124350
21
51.576258
0
LINE
8
Layer 1
10
51.124350
20
51.576258
11
50.118720
21
51.390223
0
LINE
8
Layer 1
10
50.118720
20
51.390223
11
48.725070
21
51.508295
0
LINE
8
Layer 1
10
48.725070
20
51.508295
11
47.455902
21
52.033352
0
LINE
8
Layer 1
10
47.455902
20
52.033352
11
46.354059
21
53.000198
0
LINE
8
Layer 1
10
46.354059
20
53.000198
11
45.577158
21
54.317854
0
LINE
8
Layer 1
10
45.577158
20
54.317854
11
45.359818
21
55.079806
0
LINE
8
Layer 1
10
45.359818
20
55.079806
11
45.282820
21
55.895345
0
LINE
8
Layer 1
10
45.282820
20
55.895345
11
45.567115
21
57.483852
0
LINE
8
Layer 1
10
45.567115
20
57.483852
11
46.357221
21
58.825790
0
LINE
8
Layer 1
10
46.357221
20
58.825790
11
47.559942
21
59.817455
0
LINE
8
Layer 1
10
47.559942
20
59.817455
11
49.082080
21
60.355145
0
LINE
8
Layer 1
10
49.082080
20
60.355145
11
50.096480
21
60.403045
0
LINE
8
Layer 1
10
50.096480
20
60.403045
11
51.220440
21
60.181870
0
LINE
8
Layer 1
10
51.220440
20
60.181870
11
51.751160
21
60.100220
0
LINE
8
Layer 1
10
51.751160
20
60.100220
11
52.449161
21
60.237850
0
LINE
8
Layer 1
10
52.449161
20
60.237850
11
53.018481
21
60.616859
0
LINE
8
Layer 1
10
53.018481
20
60.616859
11
53.402951
21
61.186359
0
LINE
8
Layer 1
10
53.402951
20
61.186359
11
53.546400
21
61.895460
0
LINE
8
Layer 1
10
53.546400
20
61.895460
11
53.401048
21
62.665698
0
LINE
8
Layer 1
10
53.401048
20
62.665698
11
53.120110
21
63.136550
0
LINE
8
Layer 1
10
53.120110
20
63.136550
11
51.585390
21
64.642060
0
LINE
8
Layer 1
10
51.585390
20
64.642060
11
52.458100
21
65.537600
0
LINE
8
Layer 1
10
53.542780
20
46.056100
11
53.542800
21
44.625700
0
LINE
8
Layer 1
10
53.542800
20
44.625700
11
53.407306
21
43.912771
0
LINE
8
Layer 1
10
53.407306
20
43.912771
11
53.023174
21
43.337727
0
LINE
8
Layer 1
10
53.023174
20
43.337727
11
52.450924
21
42.953728
0
LINE
8
Layer 1
10
52.450924
20
42.953728
11
51.751080
21
42.813930
0
LINE
8
Layer 1
10
51.751080
20
42.813930
11
51.124250
21
42.928652
0
LINE
8
Layer 1
10
51.124250
20
42.928652
11
50.118620
21
43.114687
0
LINE
8
Layer 1
10
50.118620
20
43.114687
11
49.071450
21
43.067137
0
LINE
8
Layer 1
10
49.071450
20
43.067137
11
47.576467
21
42.542120
0
LINE
8
Layer 1
10
47.576467
20
42.542120
11
46.374596
21
41.549805
0
LINE
8
Layer 1
10
46.374596
20
41.549805
11
45.573970
21
40.201763
0
LINE
8
Layer 1
10
45.573970
20
40.201763
11
45.357915
21
39.429211
0
LINE
8
Layer 1
10
45.357915
20
39.429211
11
45.282720
21
38.609567
0
LINE
8
Layer 1
10
45.282720
20
38.609567
11
45.357493
21
37.789144
0
LINE
8
Layer 1
10
45.357493
20
37.789144
11
45.573201
21
37.014718
0
LINE
8
Layer 1
10
45.573201
20
37.014718
11
46.377710
21
35.661575
0
LINE
8
Layer 1
10
46.377710
20
35.661575
11
47.596811
21
34.665570
0
LINE
8
Layer 1
10
47.596811
20
34.665570
11
48.330761
21
34.337568
0
LINE
8
Layer 1
10
48.330761
20
34.337568
11
49.131070
21
34.142137
0
LINE
8
Layer 1
10
49.131070
20
34.142137
11
49.130550
21
34.141137
0
LINE
8
Layer 1
10
49.130550
20
34.141137
11
50.096380
21
34.101857
0
LINE
8
Layer 1
10
50.096380
20
34.101857
11
51.220340
21
34.323033
0
LINE
8
Layer 1
10
51.220340
20
34.323033
11
51.751060
21
34.404683
0
LINE
8
Layer 1
10
51.751060
20
34.404683
11
52.451277
21
34.254787
0
LINE
8
Layer 1
10
52.451277
20
34.254787
11
53.024158
21
33.861727
0
LINE
8
Layer 1
10
53.024158
20
33.861727
11
53.408897
21
33.310512
0
LINE
8
Layer 1
10
53.408897
20
33.310512
11
53.544690
21
32.686153
0
LINE
8
Layer 1
10
53.544690
20
32.686153
11
53.412241
21
31.868002
0
LINE
8
Layer 1
10
53.412241
20
31.868002
11
53.020270
21
31.257073
0
LINE
8
Layer 1
10
53.020270
20
31.257073
11
53.018270
21
31.258073
0
LINE
8
Layer 1
10
53.018270
20
31.258073
11
51.585290
21
29.862813
0
LINE
8
Layer 1
10
51.585290
20
29.862813
11
50.586437
21
28.644236
0
LINE
8
Layer 1
10
50.586437
20
28.644236
11
49.835769
21
27.290713
0
LINE
8
Layer 1
10
49.835769
20
27.290713
11
49.355001
21
25.859633
0
LINE
8
Layer 1
10
49.355001
20
25.859633
11
49.165850
21
24.408383
0
LINE
8
Layer 1
10
49.165850
20
24.408383
11
49.162850
21
19.872723
0
LINE
8
Layer 1
10
49.162850
20
19.872723
11
50.413400
21
19.872700
0
LINE
8
Layer 1
10
50.413400
20
19.872700
11
50.416400
21
24.420050
0
LINE
8
Layer 1
10
50.416400
20
24.420050
11
50.547806
21
25.511726
0
LINE
8
Layer 1
10
50.547806
20
25.511726
11
50.953848
21
26.713309
0
LINE
8
Layer 1
10
50.953848
20
26.713309
11
51.601408
21
27.905057
0
LINE
8
Layer 1
10
51.601408
20
27.905057
11
52.457370
21
28.967230
0
LINE
8
Layer 1
10
52.457370
20
28.967230
11
53.895800
21
30.357330
0
LINE
8
Layer 1
10
53.895800
20
30.357330
11
54.539729
21
31.324220
0
LINE
8
Layer 1
10
54.539729
20
31.324220
11
54.784350
21
32.717120
0
LINE
8
Layer 1
10
54.784350
20
32.717120
11
54.633824
21
33.555888
0
LINE
8
Layer 1
10
54.633824
20
33.555888
11
54.217775
21
34.359119
0
LINE
8
Layer 1
10
54.217775
20
34.359119
11
53.590466
21
35.025855
0
LINE
8
Layer 1
10
53.590466
20
35.025855
11
52.806160
21
35.455140
0
LINE
8
Layer 1
10
52.806160
20
35.455140
11
51.750380
21
35.644802
0
LINE
8
Layer 1
10
51.750380
20
35.644802
11
50.886860
21
35.540932
0
LINE
8
Layer 1
10
50.886860
20
35.540932
11
49.800110
21
35.353347
0
LINE
8
Layer 1
10
49.800110
20
35.353347
11
48.532902
21
35.609227
0
LINE
8
Layer 1
10
48.532902
20
35.609227
11
47.498080
21
36.306943
0
LINE
8
Layer 1
10
47.498080
20
36.306943
11
46.800368
21
37.341763
0
LINE
8
Layer 1
10
46.800368
20
37.341763
11
46.544490
21
38.608957
0
LINE
8
Layer 1
10
46.544490
20
38.608957
11
46.800366
21
39.876165
0
LINE
8
Layer 1
10
46.800366
20
39.876165
11
47.498076
21
40.910987
0
LINE
8
Layer 1
10
47.498076
20
40.910987
11
48.532898
21
41.608699
0
LINE
8
Layer 1
10
48.532898
20
41.608699
11
49.800110
21
41.864577
0
LINE
8
Layer 1
10
49.800110
20
41.864577
11
50.886860
21
41.677508
0
LINE
8
Layer 1
10
50.886860
20
41.677508
11
51.750380
21
41.572605
0
LINE
8
Layer 1
10
51.750380
20
41.572605
11
52.264416
21
41.621194
0
LINE
8
Layer 1
10
52.264416
20
41.621194
11
52.968420
21
41.829921
0
LINE
8
Layer 1
10
52.968420
20
41.829921
11
53.715201
21
42.297661
0
LINE
8
Layer 1
10
53.715201
20
42.297661
11
54.288010
21
42.948795
0
LINE
8
Layer 1
10
54.288010
20
42.948795
11
54.655147
21
43.716356
0
LINE
8
Layer 1
10
54.655147
20
43.716356
11
54.784910
21
44.533381
0
LINE
8
Layer 1
10
54.784910
20
44.533381
11
54.785880
21
46.056021
0
LINE
8
Layer 1
10
54.785880
20
46.056021
11
53.542780
21
46.056100
0
LINE
8
Layer 1
10
49.208160
20
12.233000
11
50.458300
21
12.233000
0
LINE
8
Layer 1
10
50.458300
20
12.233000
11
50.458300
21
1.750800
0
LINE
8
Layer 1
10
50.458300
20
1.750800
11
49.208200
21
1.750800
0
LINE
8
Layer 1
10
49.208200
20
1.750800
11
49.208160
21
12.233000
0
LINE
8
Layer 1
10
48.048030
20
93.340500
11
49.298100
21
93.340600
0
LINE
8
Layer 1
10
49.298100
20
93.340600
11
49.298100
21
78.758000
0
LINE
8
Layer 1
10
49.298100
20
78.758000
11
48.048100
21
78.758000
0
LINE
8
Layer 1
10
48.048100
20
78.758000
11
48.048030
21
93.340500
0
LINE
8
Layer 1
10
0.000430
20
95.105250
11
0.000440
21
2.960030
0
LINE
8
Layer 1
10
0.000440
20
2.960030
11
4.313870
21
2.960030
0
LINE
8
Layer 1
10
4.313870
20
2.960030
11
4.313870
21
3.360000
0
LINE
8
Layer 1
10
4.313870
20
3.360000
11
4.313870
21
3.813210
0
LINE
8
Layer 1
10
4.313870
20
3.813210
11
4.313870
21
3.942400
0
LINE
8
Layer 1
10
4.313870
20
3.942400
11
4.430760
21
4.225488
0
LINE
8
Layer 1
10
4.430760
20
4.225488
11
4.713850
21
4.342376
0
LINE
8
Layer 1
10
4.713850
20
4.342376
11
8.314140
21
4.342370
0
LINE
8
Layer 1
10
8.314140
20
4.342370
11
8.597230
21
4.225482
0
LINE
8
Layer 1
10
8.597230
20
4.225482
11
8.714120
21
3.942394
0
LINE
8
Layer 1
10
8.714120
20
3.942394
11
8.714120
21
3.813210
0
LINE
8
Layer 1
10
8.714120
20
3.813210
11
8.714120
21
3.360000
0
LINE
8
Layer 1
10
8.714120
20
3.360000
11
8.714120
21
2.960030
0
LINE
8
Layer 1
10
8.714120
20
2.960030
11
16.958600
21
2.960030
0
LINE
8
Layer 1
10
16.958600
20
2.960030
11
16.958600
21
3.360000
0
LINE
8
Layer 1
10
16.958600
20
3.360000
11
16.958600
21
3.942400
0
LINE
8
Layer 1
10
16.958600
20
3.942400
11
17.075485
21
4.225488
0
LINE
8
Layer 1
10
17.075485
20
4.225488
11
17.358570
21
4.342376
0
LINE
8
Layer 1
10
17.358570
20
4.342376
11
20.973300
21
4.342370
0
LINE
8
Layer 1
10
20.973300
20
4.342370
11
21.256390
21
4.225482
0
LINE
8
Layer 1
10
21.256390
20
4.225482
11
21.373280
21
3.942394
0
LINE
8
Layer 1
10
21.373280
20
3.942394
11
21.373300
21
3.813210
0
LINE
8
Layer 1
10
21.373300
20
3.813210
11
21.373300
21
2.960030
0
LINE
8
Layer 1
10
21.373300
20
2.960030
11
29.698900
21
2.960030
0
LINE
8
Layer 1
10
29.698900
20
2.960030
11
29.698900
21
3.360000
0
LINE
8
Layer 1
10
29.698900
20
3.360000
11
29.698900
21
3.942400
0
LINE
8
Layer 1
10
29.698900
20
3.942400
11
29.815785
21
4.225488
0
LINE
8
Layer 1
10
29.815785
20
4.225488
11
30.098870
21
4.342376
0
LINE
8
Layer 1
10
30.098870
20
4.342376
11
33.714100
21
4.342370
0
LINE
8
Layer 1
10
33.714100
20
4.342370
11
33.997190
21
4.225482
0
LINE
8
Layer 1
10
33.997190
20
4.225482
11
34.114080
21
3.942394
0
LINE
8
Layer 1
10
34.114080
20
3.942394
11
34.114100
21
3.813210
0
LINE
8
Layer 1
10
34.114100
20
3.813210
11
34.114100
21
2.960030
0
LINE
8
Layer 1
10
34.114100
20
2.960030
11
38.414100
21
2.960030
0
LINE
8
Layer 1
10
38.414100
20
2.960030
11
38.414100
21
0.000002
0
LINE
8
Layer 1
10
38.414100
20
0.000002
11
40.882200
21
0.000002
0
LINE
8
Layer 1
10
40.882200
20
0.000002
11
40.882200
21
3.032890
0
LINE
8
Layer 1
10
40.882200
20
3.032890
11
41.058475
21
3.910318
0
LINE
8
Layer 1
10
41.058475
20
3.910318
11
41.539765
21
4.625323
0
LINE
8
Layer 1
10
41.539765
20
4.625323
11
42.254770
21
5.106608
0
LINE
8
Layer 1
10
42.254770
20
5.106608
11
43.132190
21
5.282880
0
LINE
8
Layer 1
10
43.132190
20
5.282880
11
44.009620
21
5.106608
0
LINE
8
Layer 1
10
44.009620
20
5.106608
11
44.724627
21
4.625323
0
LINE
8
Layer 1
10
44.724627
20
4.625323
11
45.205917
21
3.910318
0
LINE
8
Layer 1
10
45.205917
20
3.910318
11
45.382190
21
3.032890
0
LINE
8
Layer 1
10
45.382190
20
3.032890
11
45.382200
21
0.000002
0
LINE
8
Layer 1
10
45.382200
20
0.000002
11
82.905500
21
0.000002
0
LINE
8
Layer 1
10
82.905500
20
0.000002
11
82.905500
21
1.895490
0
LINE
8
Layer 1
10
82.905500
20
1.895490
11
83.082316
21
2.771285
0
LINE
8
Layer 1
10
83.082316
20
2.771285
11
83.564509
21
3.486471
0
LINE
8
Layer 1
10
83.564509
20
3.486471
11
84.279695
21
3.968664
0
LINE
8
Layer 1
10
84.279695
20
3.968664
11
85.155490
21
4.145480
0
LINE
8
Layer 1
10
85.155490
20
4.145480
11
86.031285
21
3.968662
0
LINE
8
Layer 1
10
86.031285
20
3.968662
11
86.746471
21
3.486469
0
LINE
8
Layer 1
10
86.746471
20
3.486469
11
87.228664
21
2.771285
0
LINE
8
Layer 1
10
87.228664
20
2.771285
11
87.405480
21
1.895490
0
LINE
8
Layer 1
10
87.405480
20
1.895490
11
87.405400
21
0.000002
0
LINE
8
Layer 1
10
87.405400
20
0.000002
11
95.717100
21
0.000002
0
LINE
8
Layer 1
10
95.717100
20
0.000002
11
95.717100
21
95.105300
0
LINE
8
Layer 1
10
95.717100
20
95.105300
11
87.405400
21
95.105300
0
LINE
8
Layer 1
10
87.405400
20
95.105300
11
87.405400
21
93.105400
0
LINE
8
Layer 1
10
87.405400
20
93.105400
11
87.228584
21
92.229605
0
LINE
8
Layer 1
10
87.228584
20
92.229605
11
86.746391
21
91.514419
0
LINE
8
Layer 1
10
86.746391
20
91.514419
11
86.031205
21
91.032226
0
LINE
8
Layer 1
10
86.031205
20
91.032226
11
85.155410
21
90.855410
0
LINE
8
Layer 1
10
85.155410
20
90.855410
11
84.279615
21
91.032229
0
LINE
8
Layer 1
10
84.279615
20
91.032229
11
83.564429
21
91.514421
0
LINE
8
Layer 1
10
83.564429
20
91.514421
11
83.082236
21
92.229605
0
LINE
8
Layer 1
10
83.082236
20
92.229605
11
82.905420
21
93.105400
0
LINE
8
Layer 1
10
82.905420
20
93.105400
11
82.905500
21
95.105300
0
LINE
8
Layer 1
10
82.905500
20
95.105300
11
0.000430
21
95.105250
 0 
ENDSEC
 0 
EOF