<?xml version="1.0" encoding="UTF-8" standalone="no"?>
<!-- Created with Inkscape (http://www.inkscape.org/) -->

<svg
   width="52.766029mm"
   height="95.279488mm"
   viewBox="0 0 52.766029 95.279488"
   version="1.1"
   id="svg35602"
   inkscape:version="1.2.1 (9c6d41e410, 2022-07-14)"
   sodipodi:docname="groundplane.svg"
   xmlns:inkscape="http://www.inkscape.org/namespaces/inkscape"
   xmlns:sodipodi="http://sodipodi.sourceforge.net/DTD/sodipodi-0.dtd"
   xmlns="http://www.w3.org/2000/svg"
   xmlns:svg="http://www.w3.org/2000/svg">
  <sodipodi:namedview
     id="namedview35604"
     pagecolor="#ffffff"
     bordercolor="#666666"
     borderopacity="1.0"
     inkscape:showpageshadow="2"
     inkscape:pageopacity="0.0"
     inkscape:pagecheckerboard="0"
     inkscape:deskcolor="#d1d1d1"
     inkscape:document-units="mm"
     showgrid="false"
     inkscape:zoom="0.93806818"
     inkscape:cx="376.83828"
     inkscape:cy="462.11993"
     inkscape:window-width="3840"
     inkscape:window-height="2050"
     inkscape:window-x="-12"
     inkscape:window-y="-12"
     inkscape:window-maximized="1"
     inkscape:current-layer="layer1" />
  <defs
     id="defs35599" />
  <g
     inkscape:label="Layer 1"
     inkscape:groupmode="layer"
     id="layer1"
     transform="translate(12.844553,-26.539743)">
    <path
       id="path27573"
       style="fill:#5700ff;fill-opacity:0.43686;stroke:none;stroke-width:0.264583px;stroke-linecap:butt;stroke-linejoin:miter;stroke-opacity:1"
       d="m -12.794423,26.539773 -0.05013,95.279457 48.39963,-0.0698 c 0,0 0.01245,-6.07713 0.02377,-10.89287 V 93.954751 c 0,-0.16478 0.0399,-0.44719 0.04496,-0.52917 0.161952,-2.62606 4.276742,-2.17609 4.276742,-2.17609 l 0.0124,-1.69706 c 0.07019,-0.96282 -0.336515,-1.80738 -1.255737,-1.78128 -1.020599,0.24508 -2.087769,0.41837 -3.13676,0.17208 -0.784258,-0.18413 -0.669826,-0.12168 -1.599385,-0.69763 -1.455248,-0.90166 -2.329894,-2.63747 -2.262394,-4.35064 0.0079,-2.62391 2.360304,-4.93725 4.984192,-4.90565 0.860844,-0.11842 1.59127,0.59055 2.424658,0.27854 1.0315,-0.44532 0.83282,-0.96047 0.847493,-2.67064 l -0.0021,-3.33209 c 0.04566,-1.1005 -0.338605,-1.80492 -1.25367,-1.77922 -1.024389,0.24052 -2.14702,0.47336 -3.158464,0.16588 -0.849931,-0.25838 -0.662679,-0.12474 -1.579748,-0.69298 -1.74873,-1.08357 -2.631628,-3.34997 -2.13372,-5.34851 0.466018,-2.22296 2.640491,-3.94076 4.849833,-3.90726 0.854102,-0.11664 1.670729,0.49487 2.500623,0.21446 0.41864,-0.16918 0.619549,-0.47433 0.714168,-0.83561 0.02793,-0.546714 0.04858,-1.261922 0.04858,-2.254126 0,-3.477386 -1.065062,-4.473112 -2.217436,-4.473112 -1.152374,0 -3.297473,0.135007 -3.297473,-2.68304 0,-2.818047 -0.02325,-22.767086 -0.02325,-22.767086 V 26.539743 Z M 9.1882152,38.71164 a 3.4561884,3.4561884 0 0 1 3.4561188,3.456119 3.4561884,3.4561884 0 0 1 -3.4561188,3.45612 3.4561884,3.4561884 0 0 1 -3.4561201,-3.45612 3.4561884,3.4561884 0 0 1 3.4561201,-3.456119 z m 19.2970128,71.68193 a 3.4561884,3.4561884 0 0 1 3.45612,3.45612 3.4561884,3.4561884 0 0 1 -3.45612,3.45612 3.4561884,3.4561884 0 0 1 -3.45612,-3.45612 3.4561884,3.4561884 0 0 1 3.45612,-3.45612 z" />
  </g>
</svg>
