999
"DXF R12 Output" (www.mydxf.blogspot.com)
 0 
SECTION
 2 
HEADER
 9 
$ACADVER
 1 
AC1009
 9 
$EXTMIN
 10 
 0 
 20 
 0 
 9 
$EXTMAX
 10 
 8.5 
 20 
 11 
 0 
ENDSEC
 0 
SECTION
 2 
ENTITIES
0
LINE
8
Layer 1
10
0.050177
20
95.279200
11
0.000047
21
-0.000300
0
LINE
8
Layer 1
10
0.000047
20
-0.000300
11
48.399647
21
0.069500
0
LINE
8
Layer 1
10
48.399647
20
0.069500
11
48.423417
21
10.962400
0
LINE
8
Layer 1
10
48.423417
20
10.962400
11
48.423400
21
27.864200
0
LINE
8
Layer 1
10
48.423400
20
27.864200
11
48.468360
21
28.393370
0
LINE
8
Layer 1
10
48.468360
20
28.393370
11
48.698624
21
29.240840
0
LINE
8
Layer 1
10
48.698624
20
29.240840
11
49.204924
21
29.841253
0
LINE
8
Layer 1
10
49.204924
20
29.841253
11
49.892718
21
30.235929
0
LINE
8
Layer 1
10
49.892718
20
30.235929
11
50.667462
21
30.466188
0
LINE
8
Layer 1
10
50.667462
20
30.466188
11
52.099634
21
30.598736
0
LINE
8
Layer 1
10
52.099634
20
30.598736
11
52.745100
21
30.569460
0
LINE
8
Layer 1
10
52.745100
20
30.569460
11
52.757500
21
32.266520
0
LINE
8
Layer 1
10
52.757500
20
32.266520
11
52.720168
21
32.954705
0
LINE
8
Layer 1
10
52.720168
20
32.954705
11
52.500661
21
33.528005
0
LINE
8
Layer 1
10
52.500661
20
33.528005
11
52.095638
21
33.915883
0
LINE
8
Layer 1
10
52.095638
20
33.915883
11
51.501760
21
34.047800
0
LINE
8
Layer 1
10
51.501760
20
34.047800
11
49.944026
21
33.777496
0
LINE
8
Layer 1
10
49.944026
20
33.777496
11
48.365000
21
33.875720
0
LINE
8
Layer 1
10
48.365000
20
33.875720
11
47.619796
21
34.077603
0
LINE
8
Layer 1
10
47.619796
20
34.077603
11
46.765620
21
34.573350
0
LINE
8
Layer 1
10
46.765620
20
34.573350
11
45.788696
21
35.392611
0
LINE
8
Layer 1
10
45.788696
20
35.392611
11
45.063394
21
36.444354
0
LINE
8
Layer 1
10
45.063394
20
36.444354
11
44.623607
21
37.648255
0
LINE
8
Layer 1
10
44.623607
20
37.648255
11
44.503230
21
38.923990
0
LINE
8
Layer 1
10
44.503230
20
38.923990
11
44.612042
21
39.889425
0
LINE
8
Layer 1
10
44.612042
20
39.889425
11
44.916358
21
40.801904
0
LINE
8
Layer 1
10
44.916358
20
40.801904
11
45.391885
21
41.637586
0
LINE
8
Layer 1
10
45.391885
20
41.637586
11
46.014329
21
42.372631
0
LINE
8
Layer 1
10
46.014329
20
42.372631
11
46.759397
21
42.983200
0
LINE
8
Layer 1
10
46.759397
20
42.983200
11
47.602798
21
43.445451
0
LINE
8
Layer 1
10
47.602798
20
43.445451
11
48.520236
21
43.735544
0
LINE
8
Layer 1
10
48.520236
20
43.735544
11
49.487420
21
43.829640
0
LINE
8
Layer 1
10
49.487420
20
43.829640
11
50.112246
21
43.792200
0
LINE
8
Layer 1
10
50.112246
20
43.792200
11
50.710045
21
43.617774
0
LINE
8
Layer 1
10
50.710045
20
43.617774
11
51.302697
21
43.479645
0
LINE
8
Layer 1
10
51.302697
20
43.479645
11
51.912080
21
43.551100
0
LINE
8
Layer 1
10
51.912080
20
43.551100
11
52.477601
21
43.915764
0
LINE
8
Layer 1
10
52.477601
20
43.915764
11
52.717137
21
44.412101
0
LINE
8
Layer 1
10
52.717137
20
44.412101
11
52.759573
21
46.221740
0
LINE
8
Layer 1
10
52.759573
20
46.221740
11
52.757473
21
49.553830
0
LINE
8
Layer 1
10
52.757473
20
49.553830
11
52.709531
21
50.299721
0
LINE
8
Layer 1
10
52.709531
20
50.299721
11
52.490910
21
50.865765
0
LINE
8
Layer 1
10
52.490910
20
50.865765
11
52.092153
21
51.220647
0
LINE
8
Layer 1
10
52.092153
20
51.220647
11
51.503803
21
51.333050
0
LINE
8
Layer 1
10
51.503803
20
51.333050
11
49.919717
21
51.044610
0
LINE
8
Layer 1
10
49.919717
20
51.044610
11
49.121499
21
51.029548
0
LINE
8
Layer 1
10
49.121499
20
51.029548
11
48.345343
21
51.167170
0
LINE
8
Layer 1
10
48.345343
20
51.167170
11
47.580646
21
51.397463
0
LINE
8
Layer 1
10
47.580646
20
51.397463
11
46.765593
21
51.860150
0
LINE
8
Layer 1
10
46.765593
20
51.860150
11
45.624435
21
52.871941
0
LINE
8
Layer 1
10
45.624435
20
52.871941
11
44.856243
21
54.191291
0
LINE
8
Layer 1
10
44.856243
20
54.191291
11
44.509296
21
55.682198
0
LINE
8
Layer 1
10
44.509296
20
55.682198
11
44.631873
21
57.208660
0
LINE
8
Layer 1
10
44.631873
20
57.208660
11
44.883445
21
58.016157
0
LINE
8
Layer 1
10
44.883445
20
58.016157
11
45.275572
21
58.761692
0
LINE
8
Layer 1
10
45.275572
20
58.761692
11
46.403042
21
60.008462
0
LINE
8
Layer 1
10
46.403042
20
60.008462
11
47.857386
21
60.832147
0
LINE
8
Layer 1
10
47.857386
20
60.832147
11
48.658104
21
61.048824
0
LINE
8
Layer 1
10
48.658104
20
61.048824
11
49.481703
21
61.115920
0
LINE
8
Layer 1
10
49.481703
20
61.115920
11
50.116046
21
61.092185
0
LINE
8
Layer 1
10
50.116046
20
61.092185
11
50.741093
21
60.947276
0
LINE
8
Layer 1
10
50.741093
20
60.947276
11
51.361599
21
60.833074
0
LINE
8
Layer 1
10
51.361599
20
60.833074
11
51.982323
21
60.901460
0
LINE
8
Layer 1
10
51.982323
20
60.901460
11
52.460915
21
61.247227
0
LINE
8
Layer 1
10
52.460915
20
61.247227
11
52.696491
21
61.737070
0
LINE
8
Layer 1
10
52.696491
20
61.737070
11
52.745071
21
63.991200
0
LINE
8
Layer 1
10
52.745071
20
63.991200
11
52.560649
21
66.157147
0
LINE
8
Layer 1
10
52.560649
20
66.157147
11
52.068494
21
67.531776
0
LINE
8
Layer 1
10
52.068494
20
67.531776
11
51.360266
21
68.254395
0
LINE
8
Layer 1
10
51.360266
20
68.254395
11
50.527631
21
68.464310
0
LINE
8
Layer 1
10
50.527631
20
68.464310
11
49.526245
21
68.487247
0
LINE
8
Layer 1
10
49.526245
20
68.487247
11
48.446757
21
68.749062
0
LINE
8
Layer 1
10
48.446757
20
68.749062
11
47.969654
21
69.060020
0
LINE
8
Layer 1
10
47.969654
20
69.060020
11
47.583339
21
69.539261
0
LINE
8
Layer 1
10
47.583339
20
69.539261
11
47.324584
21
70.222975
0
LINE
8
Layer 1
10
47.324584
20
70.222975
11
47.230161
21
71.147350
0
LINE
8
Layer 1
10
47.230161
20
71.147350
11
47.206911
21
93.914450
0
LINE
8
Layer 1
10
47.206911
20
93.914450
11
47.207000
21
95.279300
0
LINE
8
Layer 1
10
47.207000
20
95.279300
11
0.050177
21
95.279200
0
LINE
8
Layer 1
10
22.032800
20
83.107400
11
23.378066
21
82.835782
0
LINE
8
Layer 1
10
23.378066
20
82.835782
11
24.476625
21
82.095105
0
LINE
8
Layer 1
10
24.476625
20
82.095105
11
25.217302
21
80.996546
0
LINE
8
Layer 1
10
25.217302
20
80.996546
11
25.488920
21
79.651280
0
LINE
8
Layer 1
10
25.488920
20
79.651280
11
25.217302
21
78.306014
0
LINE
8
Layer 1
10
25.217302
20
78.306014
11
24.476625
21
77.207455
0
LINE
8
Layer 1
10
24.476625
20
77.207455
11
23.378066
21
76.466778
0
LINE
8
Layer 1
10
23.378066
20
76.466778
11
22.032800
21
76.195160
0
LINE
8
Layer 1
10
22.032800
20
76.195160
11
20.687534
21
76.466778
0
LINE
8
Layer 1
10
20.687534
20
76.466778
11
19.588975
21
77.207455
0
LINE
8
Layer 1
10
19.588975
20
77.207455
11
18.848298
21
78.306014
0
LINE
8
Layer 1
10
18.848298
20
78.306014
11
18.576680
21
79.651280
0
LINE
8
Layer 1
10
18.576680
20
79.651280
11
18.848298
21
80.996546
0
LINE
8
Layer 1
10
18.848298
20
80.996546
11
19.588975
21
82.095105
0
LINE
8
Layer 1
10
19.588975
20
82.095105
11
20.687534
21
82.835782
0
LINE
8
Layer 1
10
20.687534
20
82.835782
11
22.032800
21
83.107400
0
LINE
8
Layer 1
10
22.032800
20
83.107400
11
22.032800
21
83.107400
0
LINE
8
Layer 1
10
41.329800
20
11.425500
11
42.675066
21
11.153882
0
LINE
8
Layer 1
10
42.675066
20
11.153882
11
43.773625
21
10.413205
0
LINE
8
Layer 1
10
43.773625
20
10.413205
11
44.514302
21
9.314646
0
LINE
8
Layer 1
10
44.514302
20
9.314646
11
44.785920
21
7.969380
0
LINE
8
Layer 1
10
44.785920
20
7.969380
11
44.514302
21
6.624114
0
LINE
8
Layer 1
10
44.514302
20
6.624114
11
43.773625
21
5.525555
0
LINE
8
Layer 1
10
43.773625
20
5.525555
11
42.675066
21
4.784878
0
LINE
8
Layer 1
10
42.675066
20
4.784878
11
41.329800
21
4.513260
0
LINE
8
Layer 1
10
41.329800
20
4.513260
11
39.984534
21
4.784878
0
LINE
8
Layer 1
10
39.984534
20
4.784878
11
38.885975
21
5.525555
0
LINE
8
Layer 1
10
38.885975
20
5.525555
11
38.145298
21
6.624114
0
LINE
8
Layer 1
10
38.145298
20
6.624114
11
37.873680
21
7.969380
0
LINE
8
Layer 1
10
37.873680
20
7.969380
11
38.145298
21
9.314646
0
LINE
8
Layer 1
10
38.145298
20
9.314646
11
38.885975
21
10.413205
0
LINE
8
Layer 1
10
38.885975
20
10.413205
11
39.984534
21
11.153882
0
LINE
8
Layer 1
10
39.984534
20
11.153882
11
41.329800
21
11.425500
0
LINE
8
Layer 1
10
41.329800
20
11.425500
11
41.329800
21
11.425500
 0 
ENDSEC
 0 
EOF