<?xml version="1.0" encoding="UTF-8" standalone="no"?>
<!-- Created with Inkscape (http://www.inkscape.org/) -->

<svg
   width="45.735012mm"
   height="42.859871mm"
   viewBox="0 0 45.735012 42.859871"
   version="1.1"
   id="svg152"
   inkscape:version="1.2.1 (9c6d41e410, 2022-07-14)"
   sodipodi:docname="madeatlogo.svg"
   xml:space="preserve"
   xmlns:inkscape="http://www.inkscape.org/namespaces/inkscape"
   xmlns:sodipodi="http://sodipodi.sourceforge.net/DTD/sodipodi-0.dtd"
   xmlns="http://www.w3.org/2000/svg"
   xmlns:svg="http://www.w3.org/2000/svg"><sodipodi:namedview
     id="namedview154"
     pagecolor="#ffffff"
     bordercolor="#666666"
     borderopacity="1.0"
     inkscape:showpageshadow="2"
     inkscape:pageopacity="0.0"
     inkscape:pagecheckerboard="0"
     inkscape:deskcolor="#d1d1d1"
     inkscape:document-units="mm"
     showgrid="false"
     inkscape:zoom="2.4345088"
     inkscape:cx="278.70099"
     inkscape:cy="132.26488"
     inkscape:window-width="3840"
     inkscape:window-height="2050"
     inkscape:window-x="-12"
     inkscape:window-y="-12"
     inkscape:window-maximized="1"
     inkscape:current-layer="layer1" /><defs
     id="defs149">
	
	
	
	
	
	
	
	
	
</defs><g
     inkscape:label="Layer 1"
     inkscape:groupmode="layer"
     id="layer1"
     transform="translate(10.563688,-115.66649)"
     style="display:inline"><path
       id="path943"
       style="font-style:normal;font-variant:normal;font-weight:bold;font-stretch:normal;font-size:67.2194px;line-height:1.25;font-family:sans-serif;-inkscape-font-specification:'sans-serif Bold';letter-spacing:0px;word-spacing:0px;display:inline;fill:#981b1f;fill-opacity:1;stroke:none;stroke-width:0.242525"
       d="m 21.849829,51.373092 c -5.347795,-0.03366 -10.481075,1.7348 -14.6363158,4.861718 0.3953681,0.0361 0.7151448,0.325735 0.7963338,0.7059 5.42505,-4.010682 12.553729,-5.617748 19.568831,-3.759977 3.763379,0.996635 7.061686,2.876969 9.733256,5.357813 0.02465,-0.370721 0.330276,-0.661975 0.707451,-0.661975 h 0.110071 C 35.318268,55.233777 31.831278,53.23134 27.844812,52.175627 25.842943,51.645482 23.831715,51.385567 21.849829,51.373092 Z m 0.257349,2.184879 -0.06821,0.780831 1.867069,0.151929 -0.07235,0.950846 -1.555977,-0.126607 -0.06253,0.790133 1.555978,0.126607 -0.07131,0.853694 -0.01499,0.240296 -1.867069,-0.151929 -0.06253,0.79065 2.880961,0.23306 0.08268,-0.989087 0.263549,-3.427181 z m -4.376994,0.414445 -1.191142,0.294556 -0.363802,4.666898 1.004073,-0.248563 0.04909,-0.845943 1.562178,-0.387057 0.441317,0.724504 1.004073,-0.248564 z m 10.113078,0.538469 c -0.297165,-0.01231 -0.582497,0.04781 -0.853178,0.185001 -0.438688,0.209876 -0.738236,0.571033 -0.903821,1.07332 l -0.249597,0.757059 c -0.1055,0.306266 -0.132419,0.592749 -0.08475,0.874366 0.03383,0.180129 0.09271,0.358742 0.178283,0.528133 0.227129,0.435108 0.590026,0.726789 1.084689,0.890385 l 1.537373,0.504879 0.305408,-0.937928 1.069702,-3.270601 -1.537374,-0.504879 c -0.186253,-0.0585 -0.368438,-0.09235 -0.546736,-0.09973 z m -12.92841,0.278536 -2.975012,1.336869 0.336413,0.748791 1.070219,-0.48059 1.390096,3.093351 0.832508,-0.374138 -1.390097,-3.093351 1.072803,-0.482141 z m 2.469617,0.341064 0.958081,1.583883 -1.061434,0.262516 z m 10.470678,0.192236 c 0.03982,-0.0024 0.08004,-0.0012 0.120923,0.0031 0.05451,0.0058 0.110292,0.01707 0.166915,0.03411 l 0.563273,0.181901 -0.810803,2.475302 -0.06976,0.234094 -0.561206,-0.189136 c -0.211269,-0.0641 -0.356684,-0.192416 -0.441834,-0.394291 -0.01878,-0.02127 -0.02285,-0.03859 -0.02636,-0.05581 -0.07702,-0.23233 -0.07541,-0.484579 0.01654,-0.769979 l 0.251664,-0.764811 c 0.08629,-0.295047 0.23806,-0.499687 0.444417,-0.632519 0.111791,-0.07585 0.226783,-0.11467 0.346232,-0.121957 z m 4.602303,1.073837 -2.817399,2.359546 -0.76171,0.629935 0.922424,0.57826 0.671794,-0.596347 0.830957,0.510047 c 0.03147,-0.0042 0.06345,-0.0072 0.09612,-0.0072 h 0.545186 c 0.27951,0 0.518078,0.161655 0.63407,0.395325 l 0.816488,-3.286621 -0.469739,-0.287838 z m -21.20129,0.833024 c -1.061994,0.658135 -2.0815427,1.409436 -3.0494258,2.243274 0.049926,0.04482 0.093632,0.09565 0.1291911,0.152962 0.9480952,-0.815963 1.9451817,-1.551976 2.9837967,-2.196765 z m 20.143474,0.641304 h 0.545186 c 0.07014,0 0.136605,0.01327 0.200505,0.03204 l 0.03566,-0.03101 0.01292,0.01188 -0.0088,0.03152 c 0.273886,0.09837 0.469738,0.357015 0.469738,0.665592 v 0.02325 c 0,0.393394 -0.316638,0.710034 -0.710034,0.710034 h -0.545186 c -0.393396,0 -0.710034,-0.31664 -0.710034,-0.710034 v -0.02325 c 0,-0.393394 0.316638,-0.710034 0.710034,-0.710034 z m -19.864421,0.288355 c -1.080583,0.674281 -2.1144349,1.450711 -3.091284,2.316654 v 0.06925 c 0,0.08994 -0.018334,0.175191 -0.048576,0.254248 1.0057121,-0.909282 2.073203,-1.722993 3.191537,-2.424659 z m -7.0822548,0.504362 c -0.2045397,0.209539 -0.4059221,0.422428 -0.603064,0.639754 H 4.085022 c 0.189529,0 0.342098,0.152568 0.342098,0.342098 v 0.580843 C 4.9088686,59.680432 5.4148081,59.15896 5.9433065,58.663603 Z m 31.6011718,0.0956 -2.714563,2.370915 -0.599963,0.542086 0.675411,0.773596 0.721919,-0.632003 1.429887,-1.243335 0.01292,0.01137 -0.687296,1.179256 -0.09198,0.163298 -0.190169,0.348815 -0.531234,0.927592 0.459403,0.512631 1.009241,-0.425814 0.309542,-0.12144 0.175183,-0.07596 0.51108,-0.207223 0.167431,-0.07803 0.537952,-0.216008 0.0217,-0.0186 0.01292,0.01189 -0.02325,0.02635 -0.42168,0.360701 -0.137459,0.118856 -0.40411,0.357601 -0.135392,0.110587 -0.222725,0.193787 -0.774113,0.675411 0.683162,0.77618 0.692981,-0.615466 0.201021,-0.175183 0.129708,-0.120407 0.411861,-0.355533 0.128158,-0.112655 0.435115,-0.382406 0.127641,-0.112654 0.02222,-0.01964 c -0.382701,-0.01202 -0.687296,-0.323276 -0.687296,-0.709001 v -0.02325 c 0,-0.393395 0.316638,-0.710035 0.710034,-0.710035 h 0.545703 c 0.09835,0 0.191973,0.01997 0.276986,0.05581 L 38.317046,61.319778 H 38.16305 l -0.505395,0.220142 -0.167432,0.07751 -0.578776,0.246496 -0.169499,0.08527 -0.532784,0.225826 -0.168982,0.08578 -0.51573,0.222209 -0.174667,0.07596 -0.05581,0.02584 -0.0057,-0.0098 0.0217,-0.05116 0.09974,-0.16123 0.283704,-0.487309 0.09973,-0.160714 0.303341,-0.498677 0.09198,-0.162781 0.761194,-1.273824 z m 3.136243,0.180868 c -0.118843,0.225082 -0.352094,0.379821 -0.625285,0.379821 h -0.452169 c 0.180309,0.184558 0.358505,0.370984 0.532267,0.561206 0.355378,0.03959 0.629936,0.339102 0.629936,0.705384 v 0.01499 c 4.355611,5.183957 6.374635,12.208525 4.991943,19.243787 l -3.149161,-0.834058 h -0.93431 v -0.24753 l -2.609143,-0.690914 c 0.754626,-3.924584 -0.0094,-7.84469 -1.894458,-11.098031 -0.852199,-1.457049 -1.933808,-2.778647 -3.204973,-3.912422 -0.129909,0.146796 -0.317859,0.240812 -0.5302,0.240812 h -0.545186 c -0.393396,0 -0.710034,-0.31664 -0.710034,-0.710034 v -0.02326 c 0,-0.274682 0.155818,-0.509151 0.382922,-0.627352 -1.522766,-1.078371 -3.25828,-1.90895 -5.16661,-2.414323 -4.280806,-1.133661 -8.625542,-0.42577 -12.178585,1.632976 -3.246441,1.886982 -5.8393088,4.924676 -7.1241125,8.710062 L 0.00465088,68.12349 v 5.744869 l 0.17828369,-0.165881 1.12913003,-4.263822 0.953947,0.252697 -0.728121,2.747636 2.1368205,-1.991093 0.094568,-0.358117 0.225826,0.05943 0.1167887,-0.108521 0.1586467,0.181384 0.4526855,0.11989 -0.080615,0.305407 0.1188558,0.135909 c 0,0 -0.0763,0.07256 -0.2072225,0.197404 L 3.5620568,74.72619 c -0.070187,0.26503 -0.3296939,0.450891 -0.6097819,0.376721 l -0.4769735,-0.12609 0.7152018,-2.701127 c -0.8495132,0.803368 -1.8063603,1.70086 -2.21433509,2.057755 -0.0930371,0.08133 -0.20873269,0.127242 -0.32556153,0.133842 -0.002882,3.06e-4 -0.006058,3.67e-4 -0.008785,5.17e-4 -0.0124856,5.1e-4 -0.0247934,9.1e-4 -0.037207,5.17e-4 -0.007316,-2e-4 -0.0148429,-9.15e-4 -0.0222209,-0.0016 -0.009109,-6e-4 -0.0184095,-0.0014 -0.0273885,-0.0026 -0.007608,-9e-4 -0.0150377,-0.0027 -0.0227376,-0.0041 -0.009171,-0.0017 -0.0181395,-0.0035 -0.0273885,-0.0057 -0.003491,-9e-4 -0.006759,-0.0011 -0.0103353,-0.0021 l -0.47697347,-0.126607 0.06046142,-0.22841 c -0.07355364,-0.0841 -0.05599638,-0.06432 -0.07338053,-0.08423 v 0.843877 l 5.7934448,1.534273 c 0.069876,0.836211 0.2066591,1.660028 0.4030762,2.464966 h 0.6588745 v 1.915128 h -0.063562 c 0.3093421,0.811131 0.6827198,1.594916 1.1172444,2.342493 0.1597059,0.273908 0.330308,0.541277 0.5059123,0.805635 0.098926,-0.235808 0.3315371,-0.401009 0.6040975,-0.401009 h 0.047026 c 0.3628784,0 0.6552571,0.292379 0.6552571,0.655258 v 1.091923 c 0,0.103432 -0.026387,0.199475 -0.06873,0.286287 2.041131,2.36301 4.787202,4.165515 8.0269,5.023466 4.280823,1.133666 8.634757,0.420417 12.182202,-1.647961 1.494712,-0.868804 2.853129,-1.981954 4.010091,-3.298507 -0.06931,-0.103944 -0.110071,-0.228449 -0.110071,-0.363285 v -1.091923 c 0,-0.362879 0.291862,-0.655258 0.654741,-0.655258 h 0.04702 c 0.357038,0 0.644511,0.283465 0.653707,0.638204 l 1.144116,0.303341 v -0.286287 c 0,-0.189259 0.08074,-0.358126 0.208256,-0.477491 -0.137151,-0.171849 -0.07888,-0.377976 0.424264,-2.277897 0.582513,-2.199657 0.549144,-2.11692 0.885734,-2.204 0.138245,-0.03577 0.240595,-0.02572 0.5271,0.05013 h 5.16e-4 c 0.563517,0.149246 0.582232,0.175286 0.824756,1.140499 0.14417,0.57379 0.209751,0.677325 0.471806,0.746725 0.253463,0.06713 0.381523,-0.0038 0.782898,-0.433566 0.648499,-0.694342 0.700743,-0.717527 1.268656,-0.56689 0.422927,0.112184 0.557854,0.213818 0.636654,0.479041 0.0435,0.14591 0.02519,0.226501 -0.469739,2.095996 -0.569613,2.15156 -0.553552,2.111032 -0.865063,2.215368 -0.304539,0.101991 -0.657514,-0.116677 -0.727604,-0.451135 -0.02884,-0.13767 5.63e-4,-0.285679 0.228926,-1.14825 0.169382,-0.640211 0.255456,-1.028885 0.243396,-1.099675 -0.03454,-0.202821 -0.290567,-0.347572 -0.518831,-0.293522 -0.20074,0.04755 -0.265468,0.196385 -0.546737,1.257804 -0.242298,0.914321 -0.271932,1.00165 -0.375171,1.100708 -0.296811,0.284603 -0.812489,0.13982 -0.947745,-0.266133 -0.03836,-0.115013 -0.01365,-0.249048 0.227893,-1.203544 l 0.271818,-1.073837 -0.07286,-0.125057 c -0.0857,-0.147472 -0.191646,-0.206245 -0.375688,-0.207222 -0.254011,-0.0013 -0.279588,0.04905 -0.596346,1.190625 -0.207646,0.747553 -0.278028,0.969304 -0.348816,1.081588 0.122553,0.118895 0.199471,0.284712 0.199471,0.469739 v 0.645438 l 4.494816,1.190625 c -1.729067,3.337593 -4.224378,6.1333 -7.19956,8.222754 h 1.746663 c 3.912846,-3.108917 6.89426,-7.456938 8.270296,-12.652974 2.20135,-8.312488 -0.249765,-16.785125 -5.745385,-22.639445 z m -27.423649,0.07855 c -3.0252723,1.939311 -5.6808216,4.688445 -7.6558638,8.050154 l 0.1948201,0.05168 c 1.9380337,-3.284972 4.5538453,-5.977499 7.5282227,-7.88221 z m 0.241845,0.852661 c -2.7881424,1.80018 -5.2370905,4.334368 -7.1024085,7.407815 l 0.1948201,0.05168 c 1.8361063,-2.994647 4.244781,-5.47223 6.9742514,-7.239871 z M 3.0148031,60.27384 c -1.171913,1.439365 -2.18653009,3.02728 -3.01015222,4.744414 v 2.739367 C 0.8531088,65.351685 2.0730781,63.16396 3.5816935,61.24174 H 3.356901 c -0.1895291,0 -0.3420979,-0.152569 -0.3420979,-0.342098 z m 3.9873535,0.306442 C 5.7311329,61.827534 4.5696763,63.23077 3.5429362,64.769173 H 3.7790975 C 4.7567193,63.321369 5.8545846,61.994434 7.0522827,60.808691 7.0239166,60.737501 7.0060677,60.66082 7.0021566,60.580282 Z M 32.349447,61.18748 c -0.104483,0.07238 -0.22948,0.117092 -0.364836,0.12454 l 0.289388,0.179317 z M 7.9395671,61.2221 c -0.065492,0.01981 -0.1335446,0.03307 -0.2056722,0.03307 h -0.023254 c -0.033087,0 -0.065293,-0.0029 -0.097152,-0.0072 -1.2232034,1.191698 -2.3412324,2.533368 -3.3279623,4.004924 v 0.346748 c 1.0714187,-1.623046 2.3021079,-3.09013 3.6540406,-4.37751 z m 16.4997679,0.469739 c 0.02757,0.0015 0.05559,0.0056 0.0832,0.01292 0.228521,0.06052 0.355123,0.289666 0.296623,0.510563 -0.0585,0.220896 -0.289662,0.355639 -0.510563,0.297139 -0.0381,-0.01004 -0.06627,-0.02621 -0.10232,-0.04392 l -0.697115,0.785482 0.519865,1.238167 1.675867,0.443901 1.158586,-2.098063 c -0.07135,-0.100396 -0.102044,-0.230566 -0.06976,-0.352433 0.0585,-0.220898 0.289663,-0.355123 0.510564,-0.296623 h 5.16e-4 c 0.228522,0.06052 0.355123,0.289666 0.296623,0.510563 -0.05447,0.205657 -0.260551,0.338437 -0.470256,0.299207 l -1.114143,2.020031 1.699121,0.450102 -0.139527,0.525549 c 1.000971,0.313989 1.19607,1.27049 1.046965,1.95647 -0.172328,0.650725 -0.801099,1.072321 -1.367875,1.182357 v 1.602486 h -0.934827 l -0.162264,0.613399 -1.431954,-0.379305 -0.274402,1.036113 3.74034,0.99012 c -0.05874,0.239776 -0.120677,0.478922 -0.180867,0.718303 0.05626,0.01378 0.112142,0.02809 0.167432,0.04289 1.843867,0.494522 3.191535,1.555596 4.815726,2.727999 0.670817,-0.40925 1.574678,-0.373853 2.260844,0.174666 0.869665,0.686786 1.043631,1.907042 0.395842,2.721798 l -0.309542,-0.24598 c 0.04828,0.167093 0.102232,0.366768 0.170532,0.626835 l 0.291455,1.10846 -0.329696,1.196826 -0.329695,1.197343 -0.12454,0.07751 c -0.167147,0.104178 -0.353312,0.0549 -0.447002,-0.118339 -0.06686,-0.123696 -0.06354,-0.157885 0.09199,-0.822688 0.159388,-0.681238 0.16114,-0.697201 0.0925,-0.892969 -0.08448,-0.240933 -0.349244,-0.490808 -0.58601,-0.552938 -0.249458,-0.06541 -0.601194,0.01564 -0.787549,0.181384 -0.154246,0.137202 -0.162238,0.156258 -0.360702,0.826306 -0.194737,0.657774 -0.208119,0.689298 -0.327628,0.763778 -0.16717,0.104259 -0.353323,0.05496 -0.447001,-0.118339 l -0.06976,-0.129191 0.309542,-1.211812 0.114205,-0.448035 h -1.255737 c -0.179569,0.654386 -0.314563,1.121026 -0.348816,1.168921 -0.0875,0.122324 -0.265305,0.240015 -0.387057,0.256315 -0.04892,0.0066 -0.166532,-0.0073 -0.261482,-0.03101 -0.146787,-0.03656 -0.191242,-0.07293 -0.29869,-0.243913 l -0.126091,-0.201021 0.115756,-0.532784 c 0.10993,-0.504163 0.111914,-0.539103 0.03927,-0.664042 -0.108117,-0.186034 -0.359052,-0.251088 -0.546737,-0.14211 -0.127774,0.07418 -0.142201,0.103423 -0.28422,0.562756 -0.0843,0.272926 -0.181679,0.516599 -0.222209,0.557589 -0.253123,0.256356 -0.671881,0.244297 -0.860929,-0.02481 -0.168623,-0.240029 -0.169294,-0.339264 -0.0057,-0.957047 0.205125,-0.774564 0.249067,-0.815876 0.75551,-0.717786 0.325664,0.06309 0.517713,0.0072 0.644405,-0.187069 0.108262,-0.166185 0.108333,-0.398356 0,-0.572058 -0.06233,-0.09993 -0.132811,-0.141767 -0.394291,-0.232027 -0.285082,-0.09837 -0.32553,-0.123924 -0.38499,-0.246497 -0.06318,-0.130772 -0.05931,-0.162758 0.08837,-0.720369 0.137162,-0.517933 0.168397,-0.597714 0.278019,-0.710551 0.06791,-0.0699 0.182131,-0.143614 0.253731,-0.163814 0.166302,-0.04688 0.439143,0.02502 0.559656,0.147278 0.177231,0.17976 0.189161,0.336474 0.0677,0.884183 -0.10792,0.486283 -0.108808,0.503248 -0.02429,0.626319 0.11776,0.171497 0.349301,0.23283 0.536402,0.14211 0.134759,-0.06539 0.141562,-0.07844 0.294555,-0.576192 0.120024,-0.390862 0.178078,-0.527175 0.249598,-0.587045 0.161569,-0.135037 0.376601,-0.172029 0.558622,-0.118339 0.109214,0.03219 0.206665,0.09704 0.273885,0.192753 0.141804,0.20183 0.171817,0.259777 -0.05994,1.175122 h 1.027844 v 1.062468 l 0.694015,-0.711068 c 0.854687,-0.876107 0.959352,-0.94841 1.265039,-0.86713 0.118002,0.03136 0.197751,0.06459 0.268201,0.160197 0.151443,-0.422592 0.01261,-0.921663 -0.373104,-1.235067 -0.273792,-0.214871 -0.607766,-0.290438 -0.912606,-0.233578 L 30.760396,76.26873 c -0.282414,-0.216894 -0.571731,-0.425879 -0.877465,-0.610816 -0.295031,-0.247284 -0.917662,-0.590763 -2.1146,-0.990637 -0.06373,0.252749 -0.128407,0.505247 -0.193787,0.757577 L 17.036169,72.633809 c 0.06639,-0.24446 0.132665,-0.488809 0.198955,-0.733288 -2.706362,-0.539935 -3.588929,-0.140043 -3.588929,-0.140043 L 10.86652,71.024605 c -0.239213,-0.262808 -0.613695,-0.407576 -1.0087238,-0.348816 -0.438346,0.0675 -0.7791564,0.371722 -0.901237,0.75396 L 9.4950277,71.572375 8.2191366,76.39172 4.4550252,75.394881 4.707723,74.440934 7.5178874,75.185075 7.755599,74.287455 8.4341105,74.466772 8.7296997,73.351595 8.0506714,73.171761 8.2888997,72.273625 5.4787354,71.529484 5.7309163,70.575537 8.1054484,71.204439 c 0.2165098,-0.684403 0.8320521,-1.231551 1.6278076,-1.352372 0.865711,-0.129397 1.668682,0.287384 2.051038,0.967383 1.991559,-0.214863 3.687616,-0.469987 5.534546,0.01292 0.0524,0.01368 0.131799,0.03001 0.191719,0.04547 0.0591,-0.221208 0.11864,-0.442184 0.17725,-0.663525 l 3.747575,0.992704 0.274402,-1.036112 -1.431954,-0.379305 0.568958,-2.147673 c -0.813018,-0.22346 -1.290359,-1.100005 -1.060401,-1.968355 0.22996,-0.86835 0.931696,-1.42439 1.895492,-1.185458 l 0.155546,-0.586527 1.751831,0.464054 -0.483175,-1.13068 0.08268,-0.03514 0.838709,-0.951363 c -0.02757,-0.08067 -0.03769,-0.165291 -0.0155,-0.249081 0.05119,-0.19328 0.234345,-0.31997 0.427364,-0.309541 z m 6.605798,2.194181 h 1.254187 c 0.18953,0 0.342098,0.152569 0.342098,0.342098 v 0.728638 c 0,0.189527 -0.152568,0.342098 -0.342098,0.342098 h -1.254187 c -0.189527,0 -0.342098,-0.152571 -0.342098,-0.342098 v -0.728638 c 0,-0.189529 0.152571,-0.342098 0.342098,-0.342098 z m 8.890414,0.938961 -0.154513,0.141593 c 0.719798,1.330146 1.318669,2.749446 1.787488,4.235401 a 1.1340191,1.1495159 0 0 1 0.243913,0.09612 c -0.484878,-1.571081 -1.113683,-3.070221 -1.876888,-4.473112 z m -27.496513,0.06408 h 1.806608 v 1.806609 h -1.806608 z m 26.816968,0.611333 -0.166915,0.157613 c 0.626217,1.166456 1.153354,2.405437 1.578715,3.697449 a 1.1340191,1.1495159 0 0 1 0.184485,-0.0956 c -0.430256,-1.314642 -0.963378,-2.574543 -1.596285,-3.75946 z m -0.657324,0.624251 -0.166915,0.157613 c 1.643398,3.117486 2.574624,6.733759 2.639115,10.531657 h 0.208256 C 41.24147,74.85998 40.980969,72.956705 40.51794,71.143978 a 1.1340191,1.1495159 0 0 1 -0.369486,-0.831474 1.1340191,1.1495159 0 0 1 0.04806,-0.309542 C 39.776847,68.646084 39.24223,67.34693 38.598678,66.124645 Z m -15.96285,0.09147 c -0.47098,-0.02131 -0.913766,0.308294 -1.044381,0.801502 -0.15129,0.571281 0.161473,1.143526 0.702283,1.286743 0.54082,0.143223 1.098195,-0.206831 1.247469,-0.770496 0.15129,-0.571282 -0.161976,-1.143004 -0.7028,-1.286226 -0.0676,-0.0179 -0.135289,-0.02848 -0.202571,-0.03152 z M 2.4789185,66.4962 c -0.02151,0.03805 -0.044278,0.07498 -0.065629,0.113171 l 0.1948201,0.05168 c 0.016167,-0.02876 0.033351,-0.05659 0.049609,-0.08527 H 2.4789185 Z m 0.9761678,0.07958 c -0.036755,0.06264 -0.074295,0.124537 -0.1105876,0.187586 a 0.90326345,0.9156068 0 0 1 0.037724,-0.0062 0.90326345,0.9156068 0 0 1 0.1725993,0.01809 c 0.039347,-0.067 0.080024,-0.132932 0.1198893,-0.199471 z m 34.5193397,0.172083 -0.166915,0.157613 c 1.496845,2.886872 2.37135,6.233727 2.476852,9.742558 l 0.19482,0.05168 c -0.09187,-3.59176 -0.973023,-7.007657 -2.504757,-9.951847 z m -24.632088,0.129191 a 0.90326345,0.9156068 0 0 1 0.903304,0.915706 0.90326345,0.9156068 0 0 1 -0.903304,0.91519 0.90326345,0.9156068 0 0 1 -0.903304,-0.91519 0.90326345,0.9156068 0 0 1 0.903304,-0.915706 z m 12.165149,0.09973 c -0.471007,-0.02131 -0.913765,0.308295 -1.044381,0.801502 -0.15129,0.571281 0.161991,1.14301 0.7028,1.286226 0.09478,0.0251 0.189685,0.03417 0.283187,0.03049 v -0.165881 h 0.506945 c 0.215307,-0.140933 0.384557,-0.361717 0.45682,-0.634587 0.143674,-0.573299 -0.169075,-1.145539 -0.702283,-1.286743 -0.0676,-0.0179 -0.135801,-0.02796 -0.203088,-0.03101 z m 6.611483,1.012342 h 1.806608 V 69.79574 H 32.11897 Z m -3.766695,0.927592 a 0.90326345,0.9156068 0 0 1 0.903304,0.915706 0.90326345,0.9156068 0 0 1 -0.903304,0.915706 0.90326345,0.9156068 0 0 1 -0.903304,-0.915706 0.90326345,0.9156068 0 0 1 0.903304,-0.915706 z m 4.669999,1.075903 a 0.90326345,0.9156068 0 0 1 0.903304,0.915706 0.90326345,0.9156068 0 0 1 -0.903304,0.91519 0.90326345,0.9156068 0 0 1 -0.903304,-0.91519 0.90326345,0.9156068 0 0 1 0.903304,-0.915706 z m 9.225793,0.89917 a 1.1340191,1.1495159 0 0 1 -0.161747,0.211356 c 0.461025,1.984336 0.699728,4.064229 0.687813,6.194971 l 0.202572,0.05374 c 0.01774,-2.225516 -0.234535,-4.395064 -0.728638,-6.460071 z m -0.792716,0.542602 a 1.1340191,1.1495159 0 0 1 -0.173116,0.02739 1.1340191,1.1495159 0 0 1 -0.02636,-0.0041 c 0.400137,1.7223 0.623245,3.519083 0.652673,5.356262 h 0.193787 c -0.02999,-1.846508 -0.250772,-3.65031 -0.646989,-5.379517 z m -30.344401,0.576193 0.424263,3.395141 2.048454,-2.740401 0.790649,0.590662 c 0,0 -1.868956,2.499996 -2.662886,3.562056 l 0.05116,0.410311 -0.489376,0.06098 c -0.08208,0.0103 -0.159664,-7.38e-4 -0.229444,-0.02739 -0.0738,-0.01134 -0.146617,-0.04036 -0.212907,-0.08992 l -0.395324,-0.295073 0.24753,-0.331246 -0.550871,-4.413167 z m -5.4172407,0.79375 2.7460856,0.727087 -0.1684651,0.63562 -2.7460857,-0.727087 z m 9.4283647,0.258382 3.748609,0.992704 -1.27124,4.800741 h 0.08527 v 0.682645 l 0.452685,0.11989 -1.050065,3.966166 c 0.179355,0.11661 0.298173,0.318032 0.298173,0.548804 v 0.287837 c 0.326038,0.486461 0.319673,1.105011 0.186552,1.79679 -0.02067,0.108645 -0.04932,0.215446 -0.07958,0.329695 l -0.182417,-0.04857 -0.04858,0.182417 -0.358118,-0.09457 0.04444,-0.167432 -0.502812,-0.133325 -0.04393,0.167431 -0.297656,-0.07855 0.04858,-0.182934 -0.502812,-0.132809 -0.04806,0.182418 -0.304891,-0.08061 0.04858,-0.182418 -0.502812,-0.133325 -0.04858,0.182934 -0.297139,-0.07906 0.03927,-0.147277 c -0.0914,0.04829 -0.194456,0.07803 -0.305408,0.07803 h -0.04702 c -0.134592,0 -0.259454,-0.04047 -0.363286,-0.109554 l -0.153479,-0.04082 0.02119,-0.0801 c -0.09802,-0.114438 -0.159164,-0.261084 -0.159164,-0.424263 V 84.17368 c 0,-0.362879 0.291861,-0.655258 0.654741,-0.655258 h 0.04702 c 0.169771,0 0.322601,0.06583 0.438733,0.171049 0.120843,-0.05475 0.256192,-0.0936 0.409794,-0.113171 l 0.10232,-0.201021 0.0078,0.0021 0.68988,-2.606043 H 15.76958 v -1.915128 h 1.754415 l -0.88315,-0.234095 0.490409,-1.852083 0.678512,0.179834 0.295589,-1.115694 -0.678512,-0.179317 0.237712,-0.898137 -1.841231,-0.487825 -0.237712,0.898136 -0.678512,-0.179834 -0.295072,1.115694 0.677995,0.179834 -0.49041,1.851567 -0.95343,-0.252181 z m 5.072559,1.34307 0.953947,0.252698 -0.490409,1.852083 -0.678512,-0.179834 -0.295589,1.115178 0.678511,0.179834 -0.410827,1.550809 a 0.9364543,0.94925117 0 0 1 0.252181,0.645956 0.9364543,0.94925117 0 0 1 -0.936894,0.949296 0.9364543,0.94925117 0 0 1 -0.936377,-0.949296 0.9364543,0.94925117 0 0 1 0.66921,-0.906405 z m 2.794661,0.740007 0.953431,0.252698 -1.275892,4.819344 -0.953946,-0.252698 0.490409,-1.852083 0.678511,0.179834 0.29559,-1.115178 -0.678512,-0.179834 z m -7.91993,0.141593 2.746603,0.727088 -0.168465,0.63562 -2.746086,-0.727088 z m 10.257255,0.684713 c 0.119045,-0.0052 0.349741,0.05359 1.142566,0.26355 h 5.17e-4 c 1.042099,0.275973 1.116369,0.300882 1.227832,0.412378 0.243047,0.243004 0.248296,0.205217 -0.33383,2.354895 -0.50085,1.850035 -0.524013,1.923949 -0.628385,2.006079 -0.05956,0.04693 -0.160484,0.101539 -0.224792,0.121439 -0.09868,0.03061 -0.29158,-0.0099 -1.243335,-0.260966 -1.104228,-0.291307 -1.129318,-0.299509 -1.239201,-0.423746 -0.245108,-0.277082 -0.200336,-0.636137 0.104386,-0.840776 0.194078,-0.130329 0.376057,-0.135427 0.798918,-0.02377 0.294655,0.07781 0.33728,0.07858 0.453719,0.01085 0.171632,-0.09983 0.234586,-0.225278 0.208256,-0.415995 -0.03077,-0.223362 -0.180017,-0.325399 -0.664559,-0.453719 -0.437021,-0.115733 -0.530953,-0.184949 -0.563273,-0.415479 -0.02401,-0.172006 0.03892,-0.29624 0.196887,-0.38809 0.11836,-0.06874 0.155708,-0.06692 0.498161,0.02377 0.471231,0.12479 0.6031,0.131391 0.760677,0.03979 0.178254,-0.103646 0.246735,-0.361732 0.143144,-0.540019 -0.08774,-0.15092 -0.211311,-0.217285 -0.59583,-0.31936 -0.441843,-0.117261 -0.62617,-0.363146 -0.539502,-0.720886 0.04617,-0.190946 0.165964,-0.312964 0.398942,-0.406694 0.0316,-0.01271 0.05901,-0.02153 0.0987,-0.02325 z M 0.00465088,76.3788 v 0.267168 c 0.13291347,2.38432 0.70470242,4.710884 1.65571292,6.88175 0.085409,0.01168 0.1646806,0.03896 0.2361613,0.0801 -1.00974379,-2.259392 -1.60486551,-4.69121 -1.71565759,-7.182509 z m 0.84801025,0.217041 C 1.0057948,79.589244 1.8892611,82.482945 3.3687866,85.076978 V 84.693022 C 2.0154021,82.220313 1.2039601,79.474922 1.0355957,76.643901 l -0.1824178,-0.04806 z m 19.28926187,0.03462 2.746086,0.727087 -0.168466,0.63562 -2.746085,-0.727087 z m -18.4893107,0.17725 c 0.1604378,2.424072 0.8125723,4.776597 1.8763713,6.940145 0.043432,-0.05046 0.093503,-0.09446 0.1503784,-0.129708 C 2.6429272,81.505641 2.0042378,79.213255 1.8432983,76.857841 Z m 0.7772135,0.205672 c 0.1897627,2.287406 0.8252447,4.504704 1.8453654,6.540686 0.2616151,0.08581 0.4506185,0.328562 0.4506185,0.619601 v 0.22583 c 0.1701091,0.29917 0.3477015,0.594414 0.5348511,0.884183 L 5.4156901,85.16121 C 3.8504548,82.730333 2.8747144,79.949211 2.6199951,77.063513 Z m 6.0125529,1.85105 a 0.9364543,0.94925117 0 0 1 0.936377,0.949296 0.9364543,0.94925117 0 0 1 -0.936377,0.949296 0.9364543,0.94925117 0 0 1 -0.9363769,-0.949296 0.9364543,0.94925117 0 0 1 0.9363769,-0.949296 z m 14.6998783,2.119767 1.835547,0.486275 -0.550871,2.081527 c 0.265585,0.0835 0.45837,0.327806 0.45837,0.621668 v 1.091923 c 0,0.362877 -0.291862,0.65474 -0.654741,0.65474 h -0.04754 c -0.115182,0 -0.221379,-0.03193 -0.315226,-0.08372 l -0.0052,0.09043 c 0.0021,-0.0077 0.0099,-0.0052 0.01189,-0.01292 0.661755,0.517604 0.614952,1.279357 0.409794,2.146122 l 0.0078,0.0021 -0.08475,0.319877 -0.114205,-0.03049 -0.04858,0.182935 -0.342615,-0.09043 0.04186,-0.160197 -0.502295,-0.133325 -0.04237,0.160197 -0.304891,-0.08062 0.04651,-0.175183 -0.502812,-0.133325 -0.04651,0.175183 -0.297139,-0.07855 0.04651,-0.175183 -0.502811,-0.133325 -0.04651,0.175183 -0.296623,-0.07855 0.04651,-0.175183 -0.503328,-0.133326 -0.04599,0.175183 -0.319878,-0.08475 0.04806,-0.182418 -0.08372,-0.02222 0.08475,-0.319877 -0.0078,-0.0021 c 0.157819,-0.556928 0.339814,-1.041604 0.671793,-1.349271 -0.09668,-0.114087 -0.157096,-0.259742 -0.157096,-0.42168 v -1.091923 c 0,-0.362879 0.291862,-0.655257 0.65474,-0.655257 h 0.04754 c 0.287813,0 0.52867,0.185262 0.617016,0.44235 z M 0.00465088,83.04506 v 2.751253 c 1.26106432,2.63083 2.99301372,5.02682 5.11855062,7.053833 h 1.55236 C 4.3987107,90.879537 2.5396209,88.486041 1.1901082,85.826803 0.9981632,85.712841 0.86868083,85.505913 0.86868083,85.265597 V 85.16121 C 0.54589173,84.471574 0.2588332,83.764842 0.00465088,83.04506 Z M 11.523844,83.518416 h 0.04703 c 0.36288,0 0.65474,0.292379 0.65474,0.655258 v 1.091923 c 0,0.362877 -0.29186,0.65474 -0.65474,0.65474 h -0.04703 c -0.362877,0 -0.655257,-0.291863 -0.655257,-0.65474 v -1.091923 c 0,-0.362879 0.29238,-0.655258 0.655257,-0.655258 z m 15.399577,0 h 0.04754 c 0.362877,0 0.65474,0.292379 0.65474,0.655258 v 1.091923 c 0,0.362877 -0.291863,0.65474 -0.65474,0.65474 h -0.04754 c -0.362877,0 -0.65474,-0.291863 -0.65474,-0.65474 v -1.091923 c 0,-0.362879 0.291863,-0.655258 0.65474,-0.655258 z m 2.498039,0 h 0.04703 c 0.362877,0 0.65474,0.292379 0.65474,0.655258 v 1.091923 c 0,0.362877 -0.291863,0.65474 -0.65474,0.65474 h -0.04703 c -0.362879,0 -0.655257,-0.291863 -0.655257,-0.65474 v -1.091923 c 0,-0.362879 0.292378,-0.655258 0.655257,-0.655258 z M 2.2257039,84.310099 v 0.403076 c 0.3665283,0.709759 0.7720511,1.400676 1.2200806,2.067058 L 3.589445,86.670162 C 3.0822263,85.911938 2.626748,85.12329 2.2257039,84.310099 Z m 2.4747844,1.127063 c -0.020791,0.07679 -0.054032,0.147608 -0.099219,0.210323 0.025354,0.0396 0.049284,0.07994 0.074931,0.119373 L 4.8307129,85.644385 C 4.7861448,85.575941 4.7441662,85.506124 4.7004883,85.437162 Z M 7.099825,85.481604 6.3918579,86.092936 6.1980713,86.270186 6.062679,86.381291 5.6508179,86.736308 5.52111,86.857231 5.0973633,87.225684 4.959904,87.344023 4.4958496,87.742965 4.365625,87.863371 l -0.5916951,0.511596 0.8878011,1.018026 0.6175333,-0.268717 0.1746664,-0.07596 0.5730916,-0.255798 0.173116,-0.06821 0.5270997,-0.235644 0.1746663,-0.07597 0.515214,-0.222208 0.1674317,-0.07752 0.05581,-0.02635 0.013436,0.01189 -0.029456,0.04909 -0.099735,0.161231 -0.2842204,0.487308 -0.091984,0.162781 -0.050126,0.08268 c 0.2978463,0.0023 0.5446135,0.202021 0.6221843,0.474907 l 0.3405477,-0.584461 0.091984,-0.163297 0.1958537,-0.339514 0.530717,-0.927075 -0.4573365,-0.520382 -1.0242269,0.421163 -0.3095418,0.121956 -0.1674316,0.07803 -0.5188314,0.205155 -0.1674316,0.07752 -0.530717,0.218074 -0.034106,0.0072 -0.00568,-0.0093 0.015503,-0.02894 0.4216797,-0.360701 0.1374593,-0.118856 0.4046264,-0.357084 0.1374593,-0.118856 0.2201416,-0.186035 0.774113,-0.675411 z M 3.8653971,85.89915 c 0.076622,0.120584 0.1527646,0.241604 0.2320272,0.360701 l 0.1395264,-0.126607 c -0.047281,-0.07117 -0.092172,-0.143762 -0.1384929,-0.215491 -0.00929,3.87e-4 -0.018004,0.0026 -0.027389,0.0026 H 4.023527 c -0.054871,0 -0.107259,-0.0086 -0.1581299,-0.02119 z M 36.98844,86.165283 c -1.641943,2.383417 -3.873087,4.314804 -6.4363,5.652368 l 0.07338,0.182935 c 2.618553,-1.361836 4.886706,-3.337786 6.553605,-5.78466 z m 0.769462,0.203605 c -1.735999,2.615422 -4.143072,4.718324 -6.944796,6.156214 l 0.07338,0.182934 c 2.849451,-1.464174 5.300901,-3.609527 7.077087,-6.284371 z m 0.822689,0.218075 c -1.693728,2.613826 -4.0234,4.749829 -6.733439,6.263183 h 0.390157 c 2.618404,-1.533357 4.874014,-3.642285 6.533451,-6.213057 z m 0.836124,0.228926 c -1.531442,2.430752 -3.582683,4.473642 -5.971728,6.034257 h 0.273368 c 0.01817,0 0.03364,0.008 0.05116,0.01034 2.337779,-1.562785 4.341993,-3.591129 5.845121,-5.991883 z M 9.5405029,88.239575 8.8165161,88.879329 7.7406128,89.81519 C 7.7045899,90.143527 7.4313494,90.3981 7.0931071,90.3981 h -0.813387 l -0.2955892,0.494543 0.8960693,1.019576 2.7140462,-2.370398 0.6196006,-0.520898 z m 9.1203731,0.801502 h 1.091923 c 0.362879,0 0.654741,0.291861 0.654741,0.65474 v 0.04754 c 0,0.36288 -0.291862,0.654741 -0.654741,0.654741 h -1.091923 c -0.362877,0 -0.655257,-0.291861 -0.655257,-0.654741 v -0.04754 c 0,-0.362879 0.29238,-0.65474 0.655257,-0.65474 z m -7.998478,0.131258 -0.251147,1.009757 -0.8728151,3.51038 0.4702551,0.287321 0.0078,0.0021 0.397392,0.250631 h 0.12299 l 2.757454,-2.317171 0.763778,-0.637171 -0.925008,-0.571024 -0.671277,0.596346 -1.121896,-0.68833 0.237195,-0.866097 z m 3.729488,2.169376 -0.305924,0.938444 -0.633553,1.952336 h 1.077453 l 0.516248,-1.576131 0.0801,-0.239779 0.555522,0.179834 c 0.209252,0.07172 0.354361,0.200247 0.447001,0.40411 0.0036,0.01724 0.0151,0.03652 0.0186,0.05374 0.08466,0.234356 0.07541,0.484582 -0.01654,0.769979 l -0.134358,0.408244 h 0.966866 v -0.399976 -0.582393 c 0,-0.123019 0.05787,-0.229052 0.144694,-0.302307 -0.02652,-0.07091 -0.05701,-0.14125 -0.09457,-0.210323 -0.227116,-0.435107 -0.582411,-0.724771 -1.084689,-0.890385 z m -3.269567,0.06356 0.712618,0.449585 -1.081588,0.944646 -0.0057,-0.0098 z m 17.07596,0.144178 -0.843876,0.348299 0.963765,2.334741 h 0.987537 z m -1.355473,0.402042 -1.022677,0.15658 -0.125057,0.837675 -1.5906,0.243396 -0.374138,-0.761194 -1.022676,0.156063 0.84491,1.648478 h 1.060917 l -0.130225,-0.267167 1.080554,-0.165365 -0.06408,0.432532 h 0.954463 z m -8.545215,0.522966 -0.02842,0.375687 h 2.708362 c 0.0714,0 0.134848,0.0233 0.192753,0.05581 l 0.01809,-0.204122 z"
       transform="translate(-10.568339,64.293871)" /></g><style
     type="text/css"
     id="style2">
	.st0{fill:#981B1F;}
	.st1{fill-rule:evenodd;clip-rule:evenodd;fill:#981B1F;}
	.st2{fill:#FFFFFF;}
	.st3{fill:none;}
	.st4{fill:none;stroke:#8A1919;stroke-width:5;stroke-miterlimit:10;}
</style></svg>
