<?xml version="1.0" encoding="UTF-8" standalone="no"?>
<svg
   version="1.1"
   width="9.5981054cm"
   height="9.5369701cm"
   viewBox="0 0 95981054 95369706"
   id="svg3308"
   sodipodi:docname="mh-custom-v2-Edge_Cuts.svg"
   inkscape:version="1.2.1 (9c6d41e410, 2022-07-14)"
   xmlns:inkscape="http://www.inkscape.org/namespaces/inkscape"
   xmlns:sodipodi="http://sodipodi.sourceforge.net/DTD/sodipodi-0.dtd"
   xmlns="http://www.w3.org/2000/svg"
   xmlns:svg="http://www.w3.org/2000/svg"
   xmlns:rdf="http://www.w3.org/1999/02/22-rdf-syntax-ns#"
   xmlns:cc="http://creativecommons.org/ns#"
   xmlns:dc="http://purl.org/dc/elements/1.1/">
  <defs
     id="defs3312" />
  <sodipodi:namedview
     id="namedview3310"
     pagecolor="#ffffff"
     bordercolor="#666666"
     borderopacity="1.0"
     inkscape:showpageshadow="2"
     inkscape:pageopacity="0.0"
     inkscape:pagecheckerboard="0"
     inkscape:deskcolor="#d1d1d1"
     inkscape:document-units="cm"
     showgrid="false"
     inkscape:zoom="3.2534496"
     inkscape:cx="55.78694"
     inkscape:cy="217.76885"
     inkscape:window-width="3840"
     inkscape:window-height="2050"
     inkscape:window-x="-12"
     inkscape:window-y="-12"
     inkscape:window-maximized="1"
     inkscape:current-layer="svg3308" />
  <title
     id="title1836">SVG Picture created as mh-custom-v2-Edge_Cuts.svg date 2022/10/02 11:58:16 </title>
  <desc
     id="desc1838">Picture generated by PCBNEW </desc>
  <g
     transform="translate(-32834020,-22739410)"
     id="text2582"
     style="font-size:2e+06px;opacity:0;fill:none;fill-opacity:0.982495;stroke:#000000;stroke-width:264583;stroke-linecap:round;stroke-linejoin:round" />
  <g
     class="stroked-text"
     id="g2586"
     style="fill:none;fill-opacity:0.982495;stroke:#000000;stroke-width:264583;stroke-linecap:round;stroke-linejoin:round;stroke-dasharray:none;stroke-opacity:1"
     transform="translate(-32834020,-22739410)">
    <desc
       id="desc2584" />
  </g>
  <g
     transform="translate(-32834020,-22739410)"
     id="text2592"
     style="font-size:2e+06px;opacity:0;fill:none;fill-opacity:0.982495;stroke:#000000;stroke-width:264583;stroke-linecap:round;stroke-linejoin:round" />
  <g
     class="stroked-text"
     id="g2596"
     style="fill:none;fill-opacity:0.982495;stroke:#000000;stroke-width:264583;stroke-linecap:round;stroke-linejoin:round;stroke-dasharray:none;stroke-opacity:1"
     transform="translate(-32834020,-22739410)">
    <desc
       id="desc2594" />
  </g>
  <g
     transform="translate(-32834020,-22739410)"
     id="text2602"
     style="font-size:2e+06px;opacity:0;fill:none;fill-opacity:0.982495;stroke:#000000;stroke-width:264583;stroke-linecap:round;stroke-linejoin:round" />
  <g
     class="stroked-text"
     id="g2606"
     style="fill:none;fill-opacity:0.982495;stroke:#000000;stroke-width:264583;stroke-linecap:round;stroke-linejoin:round;stroke-dasharray:none;stroke-opacity:1"
     transform="translate(-32834020,-22739410)">
    <desc
       id="desc2604" />
  </g>
  <g
     transform="translate(-32834020,-22739410)"
     id="text2612"
     style="font-size:2e+06px;opacity:0;fill:none;fill-opacity:0.982495;stroke:#000000;stroke-width:264583;stroke-linecap:round;stroke-linejoin:round" />
  <g
     class="stroked-text"
     id="g2616"
     style="fill:none;fill-opacity:0.982495;stroke:#000000;stroke-width:264583;stroke-linecap:round;stroke-linejoin:round;stroke-dasharray:none;stroke-opacity:1"
     transform="translate(-32834020,-22739410)">
    <desc
       id="desc2614" />
  </g>
  <g
     transform="translate(-32834020,-22739410)"
     id="text2622"
     style="font-size:2e+06px;opacity:0;fill:none;fill-opacity:0.982495;stroke:#000000;stroke-width:264583;stroke-linecap:round;stroke-linejoin:round" />
  <g
     class="stroked-text"
     id="g2626"
     style="fill:none;fill-opacity:0.982495;stroke:#000000;stroke-width:264583;stroke-linecap:round;stroke-linejoin:round;stroke-dasharray:none;stroke-opacity:1"
     transform="translate(-32834020,-22739410)">
    <desc
       id="desc2624" />
  </g>
  <g
     id="g3086"
     style="fill:none;fill-opacity:0.982495;stroke:#d0d2cd;stroke-width:264583;stroke-linecap:round;stroke-linejoin:round;stroke-dasharray:none;stroke-opacity:1"
     transform="translate(-32834020,-22739410)" />
  <g
     id="g3088"
     style="fill:none;fill-opacity:0.982495;stroke:#d0d2cd;stroke-width:264583;stroke-linecap:round;stroke-linejoin:round;stroke-dasharray:none;stroke-opacity:1"
     transform="translate(-32834020,-22739410)" />
  <g
     id="g3090"
     style="fill:none;fill-opacity:0.982495;stroke:#d0d2cd;stroke-width:264583;stroke-linecap:round;stroke-linejoin:round;stroke-dasharray:none;stroke-opacity:1"
     transform="translate(-32834020,-22739410)" />
  <g
     id="g3092"
     style="fill:none;fill-opacity:0.982495;stroke:#d0d2cd;stroke-width:264583;stroke-linecap:round;stroke-linejoin:round;stroke-dasharray:none;stroke-opacity:1"
     transform="translate(-32834020,-22739410)" />
  <g
     id="g3094"
     style="fill:none;fill-opacity:0.982495;stroke:#d0d2cd;stroke-width:264583;stroke-linecap:round;stroke-linejoin:round;stroke-dasharray:none;stroke-opacity:1"
     transform="translate(-32834020,-22739410)" />
  <g
     id="g3096"
     style="fill:none;fill-opacity:0.982495;stroke:#d0d2cd;stroke-width:264583;stroke-linecap:round;stroke-linejoin:round;stroke-dasharray:none;stroke-opacity:1"
     transform="translate(-32834020,-22739410)" />
  <g
     id="g3098"
     style="fill:none;fill-opacity:0.982495;stroke:#d0d2cd;stroke-width:264583;stroke-linecap:round;stroke-linejoin:round;stroke-dasharray:none;stroke-opacity:1"
     transform="translate(-32834020,-22739410)" />
  <g
     id="g3100"
     style="fill:none;fill-opacity:0.982495;stroke:#d0d2cd;stroke-width:264583;stroke-linecap:round;stroke-linejoin:round;stroke-dasharray:none;stroke-opacity:1"
     transform="translate(-32834020,-22739410)" />
  <g
     id="g3102"
     style="fill:none;fill-opacity:0.982495;stroke:#d0d2cd;stroke-width:264583;stroke-linecap:round;stroke-linejoin:round;stroke-dasharray:none;stroke-opacity:1"
     transform="translate(-32834020,-22739410)" />
  <g
     id="g3104"
     style="fill:none;fill-opacity:0.982495;stroke:#d0d2cd;stroke-width:264583;stroke-linecap:round;stroke-linejoin:round;stroke-dasharray:none;stroke-opacity:1"
     transform="translate(-32834020,-22739410)" />
  <g
     id="g3106"
     style="fill:none;fill-opacity:0.982495;stroke:#d0d2cd;stroke-width:264583;stroke-linecap:round;stroke-linejoin:round;stroke-dasharray:none;stroke-opacity:1"
     transform="translate(-32834020,-22739410)" />
  <g
     id="g3108"
     style="fill:none;fill-opacity:0.982495;stroke:#d0d2cd;stroke-width:264583;stroke-linecap:round;stroke-linejoin:round;stroke-dasharray:none;stroke-opacity:1"
     transform="translate(-32834020,-22739410)" />
  <g
     id="g3110"
     style="fill:none;fill-opacity:0.982495;stroke:#d0d2cd;stroke-width:264583;stroke-linecap:round;stroke-linejoin:round;stroke-dasharray:none;stroke-opacity:1"
     transform="translate(-32834020,-22739410)" />
  <g
     id="g3112"
     style="fill:none;fill-opacity:0.982495;stroke:#d0d2cd;stroke-width:264583;stroke-linecap:round;stroke-linejoin:round;stroke-dasharray:none;stroke-opacity:1"
     transform="translate(-32834020,-22739410)" />
  <g
     id="g3114"
     style="fill:none;fill-opacity:0.982495;stroke:#d0d2cd;stroke-width:264583;stroke-linecap:round;stroke-linejoin:round;stroke-dasharray:none;stroke-opacity:1"
     transform="translate(-32834020,-22739410)" />
  <g
     id="g3116"
     style="fill:none;fill-opacity:0.982495;stroke:#d0d2cd;stroke-width:264583;stroke-linecap:round;stroke-linejoin:round;stroke-dasharray:none;stroke-opacity:1"
     transform="translate(-32834020,-22739410)" />
  <g
     id="g3118"
     style="fill:none;fill-opacity:0.982495;stroke:#d0d2cd;stroke-width:264583;stroke-linecap:round;stroke-linejoin:round;stroke-dasharray:none;stroke-opacity:1"
     transform="translate(-32834020,-22739410)" />
  <g
     id="g3120"
     style="fill:none;fill-opacity:0.982495;stroke:#d0d2cd;stroke-width:264583;stroke-linecap:round;stroke-linejoin:round;stroke-dasharray:none;stroke-opacity:1"
     transform="translate(-32834020,-22739410)" />
  <g
     id="g3122"
     style="fill:none;fill-opacity:0.982495;stroke:#d0d2cd;stroke-width:264583;stroke-linecap:round;stroke-linejoin:round;stroke-dasharray:none;stroke-opacity:1"
     transform="translate(-32834020,-22739410)" />
  <g
     id="g3124"
     style="fill:none;fill-opacity:0.982495;stroke:#d0d2cd;stroke-width:264583;stroke-linecap:round;stroke-linejoin:round;stroke-dasharray:none;stroke-opacity:1"
     transform="translate(-32834020,-22739410)" />
  <g
     id="g3126"
     style="fill:none;fill-opacity:0.982495;stroke:#d0d2cd;stroke-width:264583;stroke-linecap:round;stroke-linejoin:round;stroke-dasharray:none;stroke-opacity:1"
     transform="translate(-32834020,-22739410)" />
  <g
     id="g3128"
     style="fill:none;fill-opacity:0.982495;stroke:#d0d2cd;stroke-width:264583;stroke-linecap:round;stroke-linejoin:round;stroke-dasharray:none;stroke-opacity:1"
     transform="translate(-32834020,-22739410)" />
  <g
     id="g3130"
     style="fill:none;fill-opacity:0.982495;stroke:#d0d2cd;stroke-width:264583;stroke-linecap:round;stroke-linejoin:round;stroke-dasharray:none;stroke-opacity:1"
     transform="translate(-32834020,-22739410)" />
  <g
     id="g3132"
     style="fill:none;fill-opacity:0.982495;stroke:#d0d2cd;stroke-width:264583;stroke-linecap:round;stroke-linejoin:round;stroke-dasharray:none;stroke-opacity:1"
     transform="translate(-32834020,-22739410)" />
  <g
     id="g3134"
     style="fill:none;fill-opacity:0.982495;stroke:#d0d2cd;stroke-width:264583;stroke-linecap:round;stroke-linejoin:round;stroke-dasharray:none;stroke-opacity:1"
     transform="translate(-32834020,-22739410)" />
  <g
     id="g3136"
     style="fill:none;fill-opacity:0.982495;stroke:#d0d2cd;stroke-width:264583;stroke-linecap:round;stroke-linejoin:round;stroke-dasharray:none;stroke-opacity:1"
     transform="translate(-32834020,-22739410)" />
  <g
     id="g3138"
     style="fill:none;fill-opacity:0.982495;stroke:#d0d2cd;stroke-width:264583;stroke-linecap:round;stroke-linejoin:round;stroke-dasharray:none;stroke-opacity:1"
     transform="translate(-32834020,-22739410)" />
  <g
     id="g3140"
     style="fill:none;fill-opacity:0.982495;stroke:#d0d2cd;stroke-width:264583;stroke-linecap:round;stroke-linejoin:round;stroke-dasharray:none;stroke-opacity:1"
     transform="translate(-32834020,-22739410)" />
  <g
     id="g3142"
     style="fill:none;fill-opacity:0.982495;stroke:#d0d2cd;stroke-width:264583;stroke-linecap:round;stroke-linejoin:round;stroke-dasharray:none;stroke-opacity:1"
     transform="translate(-32834020,-22739410)" />
  <g
     id="g3144"
     style="fill:none;fill-opacity:0.982495;stroke:#d0d2cd;stroke-width:264583;stroke-linecap:round;stroke-linejoin:round;stroke-dasharray:none;stroke-opacity:1"
     transform="translate(-32834020,-22739410)" />
  <g
     id="g3146"
     style="fill:none;fill-opacity:0.982495;stroke:#d0d2cd;stroke-width:264583;stroke-linecap:round;stroke-linejoin:round;stroke-dasharray:none;stroke-opacity:1"
     transform="translate(-32834020,-22739410)" />
  <g
     id="g3148"
     style="fill:none;fill-opacity:0.982495;stroke:#d0d2cd;stroke-width:264583;stroke-linecap:round;stroke-linejoin:round;stroke-dasharray:none;stroke-opacity:1"
     transform="translate(-32834020,-22739410)" />
  <g
     id="g3150"
     style="fill:none;fill-opacity:0.982495;stroke:#d0d2cd;stroke-width:264583;stroke-linecap:round;stroke-linejoin:round;stroke-dasharray:none;stroke-opacity:1"
     transform="translate(-32834020,-22739410)" />
  <g
     id="g3152"
     style="fill:none;fill-opacity:0.982495;stroke:#d0d2cd;stroke-width:264583;stroke-linecap:round;stroke-linejoin:round;stroke-dasharray:none;stroke-opacity:1"
     transform="translate(-32834020,-22739410)" />
  <g
     id="g3154"
     style="fill:none;fill-opacity:0.982495;stroke:#d0d2cd;stroke-width:264583;stroke-linecap:round;stroke-linejoin:round;stroke-dasharray:none;stroke-opacity:1"
     transform="translate(-32834020,-22739410)" />
  <g
     id="g3156"
     style="fill:none;fill-opacity:0.982495;stroke:#d0d2cd;stroke-width:264583;stroke-linecap:round;stroke-linejoin:round;stroke-dasharray:none;stroke-opacity:1"
     transform="translate(-32834020,-22739410)" />
  <g
     id="g3158"
     style="fill:none;fill-opacity:0.982495;stroke:#d0d2cd;stroke-width:264583;stroke-linecap:round;stroke-linejoin:round;stroke-dasharray:none;stroke-opacity:1"
     transform="translate(-32834020,-22739410)" />
  <g
     id="g3160"
     style="fill:none;fill-opacity:0.982495;stroke:#d0d2cd;stroke-width:264583;stroke-linecap:round;stroke-linejoin:round;stroke-dasharray:none;stroke-opacity:1"
     transform="translate(-32834020,-22739410)" />
  <g
     id="g3162"
     style="fill:none;fill-opacity:0.982495;stroke:#d0d2cd;stroke-width:264583;stroke-linecap:round;stroke-linejoin:round;stroke-dasharray:none;stroke-opacity:1"
     transform="translate(-32834020,-22739410)" />
  <g
     id="g3164"
     style="fill:none;fill-opacity:0.982495;stroke:#d0d2cd;stroke-width:264583;stroke-linecap:round;stroke-linejoin:round;stroke-dasharray:none;stroke-opacity:1"
     transform="translate(-32834020,-22739410)" />
  <g
     id="g3166"
     style="fill:none;fill-opacity:0.982495;stroke:#d0d2cd;stroke-width:264583;stroke-linecap:round;stroke-linejoin:round;stroke-dasharray:none;stroke-opacity:1"
     transform="translate(-32834020,-22739410)" />
  <g
     id="g3168"
     style="fill:none;fill-opacity:0.982495;stroke:#d0d2cd;stroke-width:264583;stroke-linecap:round;stroke-linejoin:round;stroke-dasharray:none;stroke-opacity:1"
     transform="translate(-32834020,-22739410)" />
  <g
     id="g3170"
     style="fill:none;fill-opacity:0.982495;stroke:#d0d2cd;stroke-width:264583;stroke-linecap:round;stroke-linejoin:round;stroke-dasharray:none;stroke-opacity:1"
     transform="translate(-32834020,-22739410)" />
  <g
     id="g3172"
     style="fill:none;fill-opacity:0.982495;stroke:#d0d2cd;stroke-width:264583;stroke-linecap:round;stroke-linejoin:round;stroke-dasharray:none;stroke-opacity:1"
     transform="translate(-32834020,-22739410)" />
  <g
     id="g3174"
     style="fill:none;fill-opacity:0.982495;stroke:#d0d2cd;stroke-width:264583;stroke-linecap:round;stroke-linejoin:round;stroke-dasharray:none;stroke-opacity:1"
     transform="translate(-32834020,-22739410)" />
  <g
     id="g3176"
     style="fill:none;fill-opacity:0.982495;stroke:#d0d2cd;stroke-width:264583;stroke-linecap:round;stroke-linejoin:round;stroke-dasharray:none;stroke-opacity:1"
     transform="translate(-32834020,-22739410)" />
  <g
     id="g3178"
     style="fill:none;fill-opacity:0.982495;stroke:#d0d2cd;stroke-width:264583;stroke-linecap:round;stroke-linejoin:round;stroke-dasharray:none;stroke-opacity:1"
     transform="translate(-32834020,-22739410)" />
  <g
     id="g3180"
     style="fill:none;fill-opacity:0.982495;stroke:#d0d2cd;stroke-width:264583;stroke-linecap:round;stroke-linejoin:round;stroke-dasharray:none;stroke-opacity:1"
     transform="translate(-32834020,-22739410)" />
  <g
     id="g3182"
     style="fill:none;fill-opacity:0.982495;stroke:#d0d2cd;stroke-width:264583;stroke-linecap:round;stroke-linejoin:round;stroke-dasharray:none;stroke-opacity:1"
     transform="translate(-32834020,-22739410)" />
  <g
     id="g3184"
     style="fill:none;fill-opacity:0.982495;stroke:#d0d2cd;stroke-width:264583;stroke-linecap:round;stroke-linejoin:round;stroke-dasharray:none;stroke-opacity:1"
     transform="translate(-32834020,-22739410)" />
  <g
     id="g3186"
     style="fill:none;fill-opacity:0.982495;stroke:#d0d2cd;stroke-width:264583;stroke-linecap:round;stroke-linejoin:round;stroke-dasharray:none;stroke-opacity:1"
     transform="translate(-32834020,-22739410)" />
  <g
     id="g3188"
     style="fill:none;fill-opacity:0.982495;stroke:#d0d2cd;stroke-width:264583;stroke-linecap:round;stroke-linejoin:round;stroke-dasharray:none;stroke-opacity:1"
     transform="translate(-32834020,-22739410)" />
  <g
     id="g3190"
     style="fill:none;fill-opacity:0.982495;stroke:#d0d2cd;stroke-width:264583;stroke-linecap:round;stroke-linejoin:round;stroke-dasharray:none;stroke-opacity:1"
     transform="translate(-32834020,-22739410)" />
  <g
     id="g3192"
     style="fill:none;fill-opacity:0.982495;stroke:#d0d2cd;stroke-width:264583;stroke-linecap:round;stroke-linejoin:round;stroke-dasharray:none;stroke-opacity:1"
     transform="translate(-32834020,-22739410)" />
  <g
     id="g3194"
     style="fill:none;fill-opacity:0.982495;stroke:#d0d2cd;stroke-width:264583;stroke-linecap:round;stroke-linejoin:round;stroke-dasharray:none;stroke-opacity:1"
     transform="translate(-32834020,-22739410)" />
  <g
     id="g3196"
     style="fill:none;fill-opacity:0.982495;stroke:#d0d2cd;stroke-width:264583;stroke-linecap:round;stroke-linejoin:round;stroke-dasharray:none;stroke-opacity:1"
     transform="translate(-32834020,-22739410)" />
  <g
     id="g3198"
     style="fill:none;fill-opacity:0.982495;stroke:#d0d2cd;stroke-width:264583;stroke-linecap:round;stroke-linejoin:round;stroke-dasharray:none;stroke-opacity:1"
     transform="translate(-32834020,-22739410)" />
  <g
     id="g3200"
     style="fill:none;fill-opacity:0.982495;stroke:#d0d2cd;stroke-width:264583;stroke-linecap:round;stroke-linejoin:round;stroke-dasharray:none;stroke-opacity:1"
     transform="translate(-32834020,-22739410)" />
  <g
     id="g3202"
     style="fill:none;fill-opacity:0.982495;stroke:#d0d2cd;stroke-width:264583;stroke-linecap:round;stroke-linejoin:round;stroke-dasharray:none;stroke-opacity:1"
     transform="translate(-32834020,-22739410)" />
  <g
     id="g3204"
     style="fill:none;fill-opacity:0.982495;stroke:#d0d2cd;stroke-width:264583;stroke-linecap:round;stroke-linejoin:round;stroke-dasharray:none;stroke-opacity:1"
     transform="translate(-32834020,-22739410)" />
  <g
     id="g3206"
     style="fill:none;fill-opacity:0.982495;stroke:#d0d2cd;stroke-width:264583;stroke-linecap:round;stroke-linejoin:round;stroke-dasharray:none;stroke-opacity:1"
     transform="translate(-32834020,-22739410)" />
  <g
     id="g3208"
     style="fill:none;fill-opacity:0.982495;stroke:#d0d2cd;stroke-width:264583;stroke-linecap:round;stroke-linejoin:round;stroke-dasharray:none;stroke-opacity:1"
     transform="translate(-32834020,-22739410)" />
  <g
     id="g3210"
     style="fill:none;fill-opacity:0.982495;stroke:#d0d2cd;stroke-width:264583;stroke-linecap:round;stroke-linejoin:round;stroke-dasharray:none;stroke-opacity:1"
     transform="translate(-32834020,-22739410)" />
  <g
     id="g3212"
     style="fill:none;fill-opacity:0.982495;stroke:#d0d2cd;stroke-width:264583;stroke-linecap:round;stroke-linejoin:round;stroke-dasharray:none;stroke-opacity:1"
     transform="translate(-32834020,-22739410)" />
  <g
     id="g3214"
     style="fill:none;fill-opacity:0.982495;stroke:#d0d2cd;stroke-width:264583;stroke-linecap:round;stroke-linejoin:round;stroke-dasharray:none;stroke-opacity:1"
     transform="translate(-32834020,-22739410)" />
  <g
     id="g3216"
     style="fill:none;fill-opacity:0.982495;stroke:#d0d2cd;stroke-width:264583;stroke-linecap:round;stroke-linejoin:round;stroke-dasharray:none;stroke-opacity:1"
     transform="translate(-32834020,-22739410)" />
  <g
     id="g3218"
     style="fill:none;fill-opacity:0.982495;stroke:#d0d2cd;stroke-width:264583;stroke-linecap:round;stroke-linejoin:round;stroke-dasharray:none;stroke-opacity:1"
     transform="translate(-32834020,-22739410)" />
  <g
     id="g3220"
     style="fill:none;fill-opacity:0.982495;stroke:#d0d2cd;stroke-width:264583;stroke-linecap:round;stroke-linejoin:round;stroke-dasharray:none;stroke-opacity:1"
     transform="translate(-32834020,-22739410)" />
  <g
     id="g3222"
     style="fill:none;fill-opacity:0.982495;stroke:#d0d2cd;stroke-width:264583;stroke-linecap:round;stroke-linejoin:round;stroke-dasharray:none;stroke-opacity:1"
     transform="translate(-32834020,-22739410)" />
  <g
     id="g3224"
     style="fill:none;fill-opacity:0.982495;stroke:#d0d2cd;stroke-width:264583;stroke-linecap:round;stroke-linejoin:round;stroke-dasharray:none;stroke-opacity:1"
     transform="translate(-32834020,-22739410)" />
  <g
     id="g3226"
     style="fill:none;fill-opacity:0.982495;stroke:#d0d2cd;stroke-width:264583;stroke-linecap:round;stroke-linejoin:round;stroke-dasharray:none;stroke-opacity:1"
     transform="translate(-32834020,-22739410)" />
  <g
     id="g3228"
     style="fill:none;fill-opacity:0.982495;stroke:#d0d2cd;stroke-width:264583;stroke-linecap:round;stroke-linejoin:round;stroke-dasharray:none;stroke-opacity:1"
     transform="translate(-32834020,-22739410)" />
  <g
     id="g3230"
     style="fill:none;fill-opacity:0.982495;stroke:#d0d2cd;stroke-width:264583;stroke-linecap:round;stroke-linejoin:round;stroke-dasharray:none;stroke-opacity:1"
     transform="translate(-32834020,-22739410)" />
  <g
     id="g3232"
     style="fill:none;fill-opacity:0.982495;stroke:#d0d2cd;stroke-width:264583;stroke-linecap:round;stroke-linejoin:round;stroke-dasharray:none;stroke-opacity:1"
     transform="translate(-32834020,-22739410)" />
  <g
     id="g3234"
     style="fill:none;fill-opacity:0.982495;stroke:#d0d2cd;stroke-width:264583;stroke-linecap:round;stroke-linejoin:round;stroke-dasharray:none;stroke-opacity:1"
     transform="translate(-32834020,-22739410)" />
  <g
     id="g3236"
     style="fill:none;fill-opacity:0.982495;stroke:#d0d2cd;stroke-width:264583;stroke-linecap:round;stroke-linejoin:round;stroke-dasharray:none;stroke-opacity:1"
     transform="translate(-32834020,-22739410)" />
  <g
     id="g3238"
     style="fill:none;fill-opacity:0.982495;stroke:#d0d2cd;stroke-width:264583;stroke-linecap:round;stroke-linejoin:round;stroke-dasharray:none;stroke-opacity:1"
     transform="translate(-32834020,-22739410)" />
  <g
     id="g3240"
     style="fill:none;fill-opacity:0.982495;stroke:#d0d2cd;stroke-width:264583;stroke-linecap:round;stroke-linejoin:round;stroke-dasharray:none;stroke-opacity:1"
     transform="translate(-32834020,-22739410)" />
  <g
     id="g3242"
     style="fill:none;fill-opacity:0.982495;stroke:#d0d2cd;stroke-width:264583;stroke-linecap:round;stroke-linejoin:round;stroke-dasharray:none;stroke-opacity:1"
     transform="translate(-32834020,-22739410)" />
  <g
     id="g3244"
     style="fill:none;fill-opacity:0.982495;stroke:#d0d2cd;stroke-width:264583;stroke-linecap:round;stroke-linejoin:round;stroke-dasharray:none;stroke-opacity:1"
     transform="translate(-32834020,-22739410)" />
  <g
     id="g3246"
     style="fill:none;fill-opacity:0.982495;stroke:#d0d2cd;stroke-width:264583;stroke-linecap:round;stroke-linejoin:round;stroke-dasharray:none;stroke-opacity:1"
     transform="translate(-32834020,-22739410)" />
  <g
     id="g3248"
     style="fill:none;fill-opacity:0.982495;stroke:#d0d2cd;stroke-width:264583;stroke-linecap:round;stroke-linejoin:round;stroke-dasharray:none;stroke-opacity:1"
     transform="translate(-32834020,-22739410)" />
  <g
     id="g3250"
     style="fill:none;fill-opacity:0.982495;stroke:#d0d2cd;stroke-width:264583;stroke-linecap:round;stroke-linejoin:round;stroke-dasharray:none;stroke-opacity:1"
     transform="translate(-32834020,-22739410)" />
  <g
     id="g3252"
     style="fill:none;fill-opacity:0.982495;stroke:#d0d2cd;stroke-width:264583;stroke-linecap:round;stroke-linejoin:round;stroke-dasharray:none;stroke-opacity:1"
     transform="translate(-32834020,-22739410)" />
  <g
     id="g3254"
     style="fill:none;fill-opacity:0.982495;stroke:#d0d2cd;stroke-width:264583;stroke-linecap:round;stroke-linejoin:round;stroke-dasharray:none;stroke-opacity:1"
     transform="translate(-32834020,-22739410)" />
  <g
     id="g3256"
     style="fill:none;fill-opacity:0.982495;stroke:#d0d2cd;stroke-width:264583;stroke-linecap:round;stroke-linejoin:round;stroke-dasharray:none;stroke-opacity:1"
     transform="translate(-32834020,-22739410)" />
  <g
     id="g3258"
     style="fill:none;fill-opacity:0.982495;stroke:#d0d2cd;stroke-width:264583;stroke-linecap:round;stroke-linejoin:round;stroke-dasharray:none;stroke-opacity:1"
     transform="translate(-32834020,-22739410)" />
  <g
     id="g3260"
     style="fill:none;fill-opacity:0.982495;stroke:#d0d2cd;stroke-width:264583;stroke-linecap:round;stroke-linejoin:round;stroke-dasharray:none;stroke-opacity:1"
     transform="translate(-32834020,-22739410)" />
  <g
     id="g3262"
     style="fill:none;fill-opacity:0.982495;stroke:#d0d2cd;stroke-width:264583;stroke-linecap:round;stroke-linejoin:round;stroke-dasharray:none;stroke-opacity:1"
     transform="translate(-32834020,-22739410)" />
  <g
     id="g3264"
     style="fill:none;fill-opacity:0.982495;stroke:#d0d2cd;stroke-width:264583;stroke-linecap:round;stroke-linejoin:round;stroke-dasharray:none;stroke-opacity:1"
     transform="translate(-32834020,-22739410)" />
  <g
     id="g3266"
     style="fill:none;fill-opacity:0.982495;stroke:#d0d2cd;stroke-width:264583;stroke-linecap:round;stroke-linejoin:round;stroke-dasharray:none;stroke-opacity:1"
     transform="translate(-32834020,-22739410)" />
  <g
     id="g3268"
     style="fill:none;fill-opacity:0.982495;stroke:#d0d2cd;stroke-width:264583;stroke-linecap:round;stroke-linejoin:round;stroke-dasharray:none;stroke-opacity:1"
     transform="translate(-32834020,-22739410)" />
  <g
     id="g3270"
     style="fill:none;fill-opacity:0.982495;stroke:#d0d2cd;stroke-width:264583;stroke-linecap:round;stroke-linejoin:round;stroke-dasharray:none;stroke-opacity:1"
     transform="translate(-32834020,-22739410)" />
  <g
     id="g3272"
     style="fill:none;fill-opacity:0.982495;stroke:#d0d2cd;stroke-width:264583;stroke-linecap:round;stroke-linejoin:round;stroke-dasharray:none;stroke-opacity:1"
     transform="translate(-32834020,-22739410)" />
  <g
     id="g3274"
     style="fill:none;fill-opacity:0.982495;stroke:#d0d2cd;stroke-width:264583;stroke-linecap:round;stroke-linejoin:round;stroke-dasharray:none;stroke-opacity:1"
     transform="translate(-32834020,-22739410)" />
  <g
     id="g3276"
     style="fill:none;fill-opacity:0.982495;stroke:#d0d2cd;stroke-width:264583;stroke-linecap:round;stroke-linejoin:round;stroke-dasharray:none;stroke-opacity:1"
     transform="translate(-32834020,-22739410)" />
  <g
     id="g3278"
     style="fill:none;fill-opacity:0.982495;stroke:#d0d2cd;stroke-width:264583;stroke-linecap:round;stroke-linejoin:round;stroke-dasharray:none;stroke-opacity:1"
     transform="translate(-32834020,-22739410)" />
  <g
     id="g3280"
     style="fill:none;fill-opacity:0.982495;stroke:#d0d2cd;stroke-width:264583;stroke-linecap:round;stroke-linejoin:round;stroke-dasharray:none;stroke-opacity:1"
     transform="translate(-32834020,-22739410)" />
  <g
     id="g3282"
     style="fill:none;fill-opacity:0.982495;stroke:#d0d2cd;stroke-width:264583;stroke-linecap:round;stroke-linejoin:round;stroke-dasharray:none;stroke-opacity:1"
     transform="translate(-32834020,-22739410)" />
  <g
     id="g3284"
     style="fill:none;fill-opacity:0.982495;stroke:#d0d2cd;stroke-width:264583;stroke-linecap:round;stroke-linejoin:round;stroke-dasharray:none;stroke-opacity:1"
     transform="translate(-32834020,-22739410)" />
  <g
     id="g3286"
     style="fill:none;fill-opacity:0.982495;stroke:#d0d2cd;stroke-width:264583;stroke-linecap:round;stroke-linejoin:round;stroke-dasharray:none;stroke-opacity:1"
     transform="translate(-32834020,-22739410)" />
  <g
     id="g3288"
     style="fill:none;fill-opacity:0.982495;stroke:#d0d2cd;stroke-width:264583;stroke-linecap:round;stroke-linejoin:round;stroke-dasharray:none;stroke-opacity:1"
     transform="translate(-32834020,-22739410)" />
  <g
     id="g3290"
     style="fill:none;fill-opacity:0.982495;stroke:#d0d2cd;stroke-width:264583;stroke-linecap:round;stroke-linejoin:round;stroke-dasharray:none;stroke-opacity:1"
     transform="translate(-32834020,-22739410)" />
  <g
     id="g3292"
     style="fill:none;fill-opacity:0.982495;stroke:#d0d2cd;stroke-width:264583;stroke-linecap:round;stroke-linejoin:round;stroke-dasharray:none;stroke-opacity:1"
     transform="translate(-32834020,-22739410)" />
  <g
     id="g3294"
     style="fill:none;fill-opacity:0.982495;stroke:#d0d2cd;stroke-width:264583;stroke-linecap:round;stroke-linejoin:round;stroke-dasharray:none;stroke-opacity:1"
     transform="translate(-32834020,-22739410)" />
  <g
     id="g3296"
     style="fill:none;fill-opacity:0.982495;stroke:#d0d2cd;stroke-width:264583;stroke-linecap:round;stroke-linejoin:round;stroke-dasharray:none;stroke-opacity:1"
     transform="translate(-32834020,-22739410)" />
  <g
     id="g3298"
     style="fill:none;fill-opacity:0.982495;stroke:#d0d2cd;stroke-width:264583;stroke-linecap:round;stroke-linejoin:round;stroke-dasharray:none;stroke-opacity:1"
     transform="translate(-32834020,-22739410)" />
  <g
     id="g3300"
     style="fill:none;fill-opacity:0.982495;stroke:#d0d2cd;stroke-width:264583;stroke-linecap:round;stroke-linejoin:round;stroke-dasharray:none;stroke-opacity:1"
     transform="translate(-32834020,-22739410)" />
  <g
     id="g3302"
     style="fill:none;fill-opacity:0.982495;stroke:#d0d2cd;stroke-width:264583;stroke-linecap:round;stroke-linejoin:round;stroke-dasharray:none;stroke-opacity:1"
     transform="translate(-32834020,-22739410)" />
  <g
     id="g3304"
     style="fill:none;fill-opacity:0.982495;stroke:#d0d2cd;stroke-width:264583;stroke-linecap:round;stroke-linejoin:round;stroke-dasharray:none;stroke-opacity:1"
     transform="translate(-32834020,-22739410)" />
  <metadata
     id="metadata3314">
    <rdf:RDF>
      <cc:Work
         rdf:about="">
        <dc:title>SVG Picture created as mh-custom-v2-Edge_Cuts.svg date 2022/10/02 11:58:16 </dc:title>
      </cc:Work>
    </rdf:RDF>
  </metadata>
  <path
     id="path4636"
     style="fill:#f77b15;stroke:#000000;stroke-width:264583px;stroke-linecap:butt;stroke-linejoin:miter;stroke-opacity:1;fill-opacity:0.98249453"
     d="m 38545980,92277591 v 2959820 M 8845980.5,91277591 a 400000,400000 0 0 0 -400000,-400000 m -3600000,0 a 400002,400002 0 0 0 -400000,400000 m 4400000,0 v 1000000 m -4400000,0 H 132301.43 M 8445980.5,90877591 h -3600000 m -400000,400000 v 1000000 m 4400000,0 H 12805481 m 8700000,-1000000 a 400000,400000 0 0 0 -400000,-400000 m -3600000,0 a 400002,400002 0 0 0 -400000,400000 m 4400000,0 v 1000000 m -4400000,0 h -4300000 m 8300000,-1400000 h -3600000 m -400000,400000 v 1000000 m 4400000,0 h 4040500 m 8700000,-1000000 a 400000,400000 0 0 0 -400000,-400000 m -3600000,0 a 400002,400002 0 0 0 -400000,400000 m 4400000,0 v 1000000 m -4400000,0 h -4300000 m 8300000,-1400000 h -3600000 m -400000,400000 v 1000000 m 4400000,0 h 4300000 M 53251866,32100988 51717149,30595481 m -2422535,44769248 1250547,23 m 4220416,-13683161 -416048,-803229 m -621191,-17943671 703503,753833 m 30855340,47403417 875790,176820 m -35144351,-31572210 -1086748,187585 m 33282139,32581995 482190,-715180 m -32676861,-49340766 863518,-104904 m 3034774,6876202 -1243097,-79 m 0,0 20,1430397 m -518695,-6551670 -572773,-373643 m -2651215,16197648 -1267205,-255880 m -1988408,-2999724 255875,-1267205 m 3296008,5774296 1123958,-221175 m -762039,32572173 h -1250097 m 2012236,-58430959 530718,81650 m 1269108,28843090 -2000,-1000 m -560169,-34279459 1437977,1390057 m -353019,14140932 -134675,-632856 m 1137394,-12533262 239428,1381092 m -5619348,37383172 -3000,4535651 m -1664047,-38325100 -697711,1034818 m 4950062,-2937135 698000,-137630 m -4951071,23930860 -697711,-1034818 m 4950002,1696957 -863518,103870 m 864318,-16150016 -626828,114722 m -4323254,-5586810 -255877,1267192 m 40860112,-37209441.5 -176820,875793 M 49262834,61095343 l -520,1000 m -1632471,-6769836 1034820,-697711 m 1585719,-1505985 -1047168,47550 m -2526235,-12828722 255875,1267203 m 2999738,1988410 1086748,-187067 m -3388777,-766525 1034820,697711 m 4,-5999456 -1034820,697714 m 39247514,-33316453.5 -715190,482192 M 20170732,15760261 l 176816,-875793 m 25067043,24457711 284295,-1588504 m 7975769,9035034 160,-1557777 m -29180928,-28594878 -482192,715185 m 28577432,48919001 1438427,-1390097 M 49429863,1896998.5 V 16479570 m 1655745,52044586 647559,-1191745 m -5296493,19233850 176815,875800 m -3125778,2073160 -715185,-482190 m 0,-3181950 715185,-482190 m 875793,-176820 875793,176820 m -3125779,2073170 176816,-875800 m 3664148,-715180 482192,715180 m -482192,2466770 -715185,482200 m -875793,176810 -875793,-176820 m -1197377,-2948960 482192,-715180 m 1591371,-659009 a 393.5,393.5 0 0 1 -394,394 393.5,393.5 0 0 1 -393,-394 393.5,393.5 0 0 1 393,-393 393.5,393.5 0 0 1 394,393 z m 2072777,3125779 -482192,715180 m -715185,482200 -875793,176810 m 875793,-4323150 715185,482190 m -2466771,-482190 875793,-176820 m -1590978,3840960 -482192,-715180 m 0,0 -176816,-875790 m 4499971,0 -176815,875790 m 8234808,-24404596 244620,-1392898 m 29495289,28748404 875790,-176820 m -33570132,-25717282 -998851,1218574 m 871437,-30208717 -570295,-110896 m -2354673,23354636 -1034820,-697714 m 3388773,-5370555 863518,104903 m -164989,-23069409 872708,-895538 m -28095970,-14815475 176816,875793 m -3125779,-2073170 875793,-176816 m 30213120,28896176 1094501,528240 m -33380790,-28050223 482192,-715185 m 0,0 715184,-482192 m 62151197,-9963917.5 -482190,-715183 M 23296511,17833431 l -875794,176815 m 28127444,52807165 131406,-1091674 m 2470670,-35105063 384469,-569499 m 897135,9637349 375292,824297 m -9392642,12115101 74773,820422 m 5100797,25556097 v 10482180 m -4881132,-52566954 -217340,-761951 m -20820886,-24397455 -176816,875793 m 23685909,-14739015.5 1250067,-40 m 1288335,64696234.5 -750667,1353521 m -537668,-51467184 h -1249997 m -9633886,78757841 h 44491221 m -29009647,-30357268 643928,-966888 m 29024719,27837696 715190,-482190 m -32528553,-38845193 -626828,-114722 m -2793484,8591067 800308,195430 m 4765000,-30005343 649700,974814 m -6948956,28507097 733948,328002 m -754292,-8204536 -1201869,992313 m 7028341,-19636515 143449,-709099 m -1944988,33990335 855960,-1062171 m -28577432,-48919001 -715184,482192 m 22409230,37202298 -216055,772551 m 9428316,-9019598 -1243347,27 m -3742783,6584210 1086748,187068 m 3898342,-20114081 -157883,853688 m -5555865,17870767 -1494980,525016 m 3547776,-386531 -1005628,-186035 M 95848771,132301.5 H 87537091 M 50679567,69725737 l 406041,-1201581 m -27789097,-54837062 715184,482191 m 25202149,20713103 1014398,-47900 m -2048376,-18354918 -70,-14582531.5 m 37983095,2308329 -875790,176816 M 54349529,60878362 l -627308,-666735 m 124735,-7271791 572807,-651133 m -741608,-18946627 -145352,-770237 m -8043117,23236441 -75195,819642 m 1074499,-20216182 1202719,-991663 m 4891378,8266411 -700149,-139953 m 2436835,-8414728 -668246,686114 m -111387,8780155 -384280,-537945 m -2927618,-9225643 1123958,221174 m -1101718,8791630 -1393647,-118072 m 483089,39275221 h 1250137 m -4885089,-24781673 804507,1353140 m -1017890,-19418192 -76998,-815537 m 7685585,14065396 746780,-467739 m 1069146,9580521 -150525,-838766 m 28271624,33555820 v -1895480 m -29496549,-31414964 135793,624357 m -5984736,-27131247 1522135,-537689 M 87537091,132301.5 v 1999896 m -4499890,-1999896 -82904909.5,-10 m 83081639.5,2875699 -176810,-875793 M 53155914,61375753 l 384738,551214 m -7849,-29355128 -280937,-470851 m 1665136,13151467 1000,1536227 m -2337084,-11789000 569319,-379008 m -5562568,8583490 -1101841,-966844 m -24065111,-24227074 -875793,-176818 m 31037757,34450342 -699843,139798 m 1267188,11555834 -1432977,1395257 m -30887309,-48023422 -482192,-715183 m 28992416,76850567 -40,-10482180 m -25328229,-68835156 482192,715183 m 59917424,-10679103.5 -715190,-482191 M 51882818,60832798 l 700216,149896 m -700896,-7317804 514035,-48589 M 95848771,95237411 V 132301.5 M 87537091,95237411 h 8311680 M 46485828,42237320 45708929,40919667 m 1223925,-310825 697709,1034818 m 6789200,10645043 367137,-767560 m 129762,-817023 970,-1522637 m 31245339,42087278 715190,482190 m -64457444,-78240676 875794,176819 m 28586347,28618187 750979,101170 m 30403284,-40274253.5 80,-1999896 M 53543996,63369474 l -391970,610928 m 570195,-3768775 -784305,-429284 m 601145,-8457614 -384131,575043 m 0,0 -572249,383998 m 34954490,41058161 -80,1895480 m -32729958,-50724590 109869,739634 m -6060167,-1523235 -1269166,-525056 m -655535,12157163 697709,-1034820 m -27282295,-37690453 -176816,-875793 m 32225441,37856040 704003,-208726 m -3613412,15970256 -189150,1451247 m -632231,-28487707 1267209,255881 m 3005324,17185091 -1055778,-189662 m 35478133,-56584690.5 -482190,715185 M 45698886,37753675 l 790104,-1341935 m 7187455,26139584 -132449,818150 m -2287886,-19708217 -1005628,186035 m 294679,31517460 3000,-4547341 m 32489040,22524520 176810,-875800 m -29539456,-41854330 -135494,712928 m -3606469,-15238694 -1267205,255880 m 38694964,56124216 176820,875800 m -41027692,-33766023 1219099,996003 m 5922949,-24753990 -844700,415389 m 32480274,-31851126.5 -875790,-176819 M 22421110,13510275 a 393.5,393.5 0 0 1 -394,394 393.5,393.5 0 0 1 -393,-394 393.5,393.5 0 0 1 393,-393 393.5,393.5 0 0 1 394,393 z m 27546421,54436479 -480767,1431077 m 1865336,-8463383 530718,-81650 m 924009,-24599488 -1217192,151206 m -5083270,17303174 -800624,1348039 m 5313599,-18762109 -1086748,-187585 m -670278,25010308 965828,39280 m 4530937,-26836029 -439306,832213 M 132291.5,132291.5 l 10,92145299.5 M 54786900,51521143 l 129762,-817023 m -6251999,2924676 1267209,-255877 m -2999736,4522805 -255877,-1267192 m -1186995,819812 215708,774424 m -24160048,-40389340 -715184,-482191 m 31753294,43631457 572880,393059 m 33722247,30375198 482190,715180" />
</svg>
