<?xml version="1.0" encoding="UTF-8" standalone="no"?>
<!-- Created with Inkscape (http://www.inkscape.org/) -->

<svg
   width="21.676201mm"
   height="19.910933mm"
   viewBox="0 0 21.676201 19.910933"
   version="1.1"
   id="svg86859"
   inkscape:version="1.2.1 (9c6d41e410, 2022-07-14)"
   sodipodi:docname="notes.svg"
   xmlns:inkscape="http://www.inkscape.org/namespaces/inkscape"
   xmlns:sodipodi="http://sodipodi.sourceforge.net/DTD/sodipodi-0.dtd"
   xmlns="http://www.w3.org/2000/svg"
   xmlns:svg="http://www.w3.org/2000/svg">
  <sodipodi:namedview
     id="namedview86861"
     pagecolor="#ffffff"
     bordercolor="#666666"
     borderopacity="1.0"
     inkscape:showpageshadow="2"
     inkscape:pageopacity="0.0"
     inkscape:pagecheckerboard="0"
     inkscape:deskcolor="#d1d1d1"
     inkscape:document-units="mm"
     showgrid="false"
     inkscape:zoom="0.93806818"
     inkscape:cx="658.26772"
     inkscape:cy="215.86917"
     inkscape:window-width="3840"
     inkscape:window-height="2050"
     inkscape:window-x="-12"
     inkscape:window-y="-12"
     inkscape:window-maximized="1"
     inkscape:current-layer="layer1" />
  <defs
     id="defs86856" />
  <g
     inkscape:label="Layer 1"
     inkscape:groupmode="layer"
     id="layer1"
     transform="translate(87.55605,-91.582998)">
    <path
       id="rect86721"
       style="font-variation-settings:'wght' 600;fill:#80ab44;fill-opacity:0.43686;fill-rule:evenodd;stroke:none;stroke-width:0.3;stroke-linecap:round;stroke-dasharray:none;stroke-opacity:1"
       d="m -85.55617,91.582998 c -1.108,0 -1.99988,0.891879 -1.99988,1.999877 v 15.911175 c 0,1.108 0.89188,1.99988 1.99988,1.99988 h 17.67644 c 1.108,0 1.99988,-0.89188 1.99988,-1.99988 V 93.582875 c 0,-1.107998 -0.89188,-1.999877 -1.99988,-1.999877 z m 16.18609,0.472839 c 0.0162,0 0.0303,0.0064 0.0419,0.01912 0.0115,0.01274 0.0213,0.02888 0.0294,0.04858 0.007,0.01969 0.0129,0.04182 0.0176,0.06615 0.005,0.02317 0.009,0.04569 0.0119,0.0677 0.002,0.02201 0.004,0.04154 0.005,0.05891 0.001,0.01738 0.002,0.02974 0.002,0.03669 0.003,0.0417 0.01,0.09104 0.0191,0.147795 0.009,0.05675 0.0203,0.11495 0.0331,0.175183 0.0116,0.05907 0.0244,0.117787 0.0382,0.1757 0.0127,0.05676 0.0246,0.107789 0.0362,0.152962 0.0464,0.184167 0.0889,0.34313 0.12712,0.47749 0.0382,0.134361 0.0735,0.250879 0.10594,0.349333 0.0313,0.0973 0.0601,0.180617 0.0868,0.250114 0.0255,0.06834 0.0493,0.129138 0.0713,0.182418 0.006,0.01622 0.0122,0.03705 0.0191,0.06253 0.006,0.02549 0.0111,0.05061 0.0171,0.07493 0.006,0.02433 0.0114,0.04515 0.016,0.06253 0.005,0.01737 0.009,0.02584 0.0119,0.02584 0.006,0 0.0152,-0.0072 0.0279,-0.02222 0.0116,-0.01506 0.0247,-0.0338 0.0398,-0.05581 0.0139,-0.02201 0.028,-0.04492 0.0419,-0.06925 0.0139,-0.02548 0.0263,-0.04761 0.0367,-0.06615 0.0649,-0.120461 0.1227,-0.24375 0.17364,-0.370003 0.051,-0.127411 0.0973,-0.252001 0.13901,-0.373621 0.0405,-0.12162 0.0779,-0.238138 0.11265,-0.349332 0.0336,-0.111196 0.0655,-0.210661 0.0956,-0.29869 0.0289,-0.08803 0.0575,-0.161975 0.0853,-0.222209 0.0278,-0.06023 0.0567,-0.100196 0.0868,-0.119889 0.0255,-0.02317 0.0544,-0.04621 0.0868,-0.06821 0.0313,-0.02317 0.0675,-0.03462 0.108,-0.03462 0.0429,0 0.0781,0.0098 0.10594,0.02946 0.0278,0.01853 0.0503,0.04235 0.0677,0.07131 0.0174,0.0278 0.0315,0.0593 0.0419,0.09405 0.0105,0.03359 0.0189,0.06549 0.0258,0.0956 l 0.51418,1.664498 0.045,0.178801 c 0.0125,0.04865 0.0219,0.08354 0.0279,0.104386 0.006,0.01969 0.009,0.03414 0.009,0.04341 0,0.01622 -0.004,0.03445 -0.0119,0.05529 -0.009,0.01969 -0.0203,0.03844 -0.0331,0.05581 -0.0139,0.01737 -0.0296,0.03182 -0.047,0.04341 -0.0173,0.01274 -0.0348,0.01912 -0.0522,0.01912 -0.0278,0 -0.055,-0.01146 -0.0817,-0.03462 -0.0278,-0.02201 -0.0487,-0.05521 -0.0625,-0.09922 -0.003,-0.01274 -0.0116,-0.03865 -0.0243,-0.07803 -0.0127,-0.03938 -0.0268,-0.08274 -0.0419,-0.130225 -0.0151,-0.04865 -0.0299,-0.09669 -0.045,-0.144177 -0.0151,-0.04749 -0.0278,-0.08668 -0.0382,-0.116789 -0.0128,-0.03822 -0.0289,-0.08835 -0.0486,-0.150895 -0.0197,-0.06255 -0.0405,-0.130634 -0.0625,-0.203605 -0.0221,-0.07413 -0.0446,-0.150164 -0.0677,-0.228927 -0.0243,-0.07876 -0.0465,-0.153621 -0.0661,-0.224275 -0.0209,-0.07065 -0.0396,-0.134053 -0.0558,-0.189653 -0.0162,-0.05676 -0.028,-0.100111 -0.0362,-0.130225 -0.002,-0.0081 -0.007,-0.02725 -0.0155,-0.05736 -0.009,-0.03011 -0.0196,-0.06071 -0.03,-0.09198 -0.0105,-0.03243 -0.0206,-0.06134 -0.031,-0.08682 -0.0105,-0.02548 -0.0194,-0.03824 -0.0264,-0.03824 -0.007,0 -0.0124,0.0047 -0.0171,0.01395 -0.006,0.0081 -0.0106,0.01917 -0.0139,0.03307 -0.005,0.0139 -0.009,0.02965 -0.0124,0.04703 -0.005,0.01622 -0.009,0.03236 -0.014,0.04857 l -0.0103,0.03979 c -0.037,0.142469 -0.0783,0.292184 -0.12351,0.448552 -0.0451,0.155209 -0.0966,0.309094 -0.15451,0.461987 -0.0591,0.151735 -0.12534,0.297548 -0.19947,0.437699 -0.0741,0.138994 -0.15875,0.263585 -0.25373,0.373621 -0.0197,0.02316 -0.0435,0.038 -0.0713,0.04496 -0.0289,0.0081 -0.0565,0.0124 -0.0832,0.0124 -0.0452,0 -0.086,-0.01107 -0.12196,-0.03307 -0.0371,-0.02317 -0.0698,-0.05246 -0.0987,-0.08837 -0.029,-0.03706 -0.0545,-0.07833 -0.0765,-0.123506 -0.0231,-0.04517 -0.0436,-0.09022 -0.061,-0.135393 -0.0394,-0.09961 -0.0747,-0.193215 -0.10594,-0.280086 -0.0324,-0.08803 -0.0622,-0.170959 -0.0889,-0.248564 -0.0278,-0.07876 -0.0524,-0.153104 -0.0744,-0.223758 -0.0231,-0.07181 -0.0453,-0.141593 -0.0661,-0.208773 -0.0116,-0.03822 -0.0257,-0.08626 -0.0419,-0.144178 -0.0174,-0.05907 -0.0352,-0.123255 -0.0537,-0.192753 -0.0185,-0.07065 -0.0364,-0.144211 -0.0537,-0.220658 -0.0186,-0.07645 -0.0347,-0.150395 -0.0486,-0.222209 -0.0151,-0.07297 -0.0274,-0.141058 -0.0367,-0.203605 -0.009,-0.0637 -0.014,-0.118124 -0.014,-0.163297 0,-0.07181 0.009,-0.128316 0.0279,-0.170016 0.0174,-0.04286 0.0369,-0.07944 0.0589,-0.109554 0.0197,-0.0093 0.0418,-0.01607 0.0661,-0.02067 0.0232,-0.0047 0.0427,-0.0072 0.0589,-0.0072 z m -2.88923,0.488342 c 0.0359,0 0.0636,0.0098 0.0822,0.02946 0.0185,0.01969 0.0313,0.04052 0.0383,0.06253 0.01,0.02779 0.015,0.04902 0.017,0.06408 10e-4,0.01505 0.002,0.02742 0.002,0.03669 v 0.01757 c 0,0.02432 -7.4e-4,0.04346 -0.002,0.05736 -0.001,0.0139 -0.002,0.02835 -0.002,0.04341 0,0.01274 0.003,0.03019 0.009,0.05219 0.005,0.02085 0.0114,0.04845 0.0207,0.0832 0.009,0.03359 0.0208,0.07525 0.0346,0.125057 0.0127,0.04865 0.0268,0.106452 0.0419,0.173632 0.005,0.01853 0.011,0.03767 0.0191,0.05736 0.008,0.01853 0.0229,0.0279 0.0449,0.0279 h 0.23306 c 0.0174,0 0.0332,0.006 0.047,0.01757 0.0139,0.01043 0.0254,0.02358 0.0346,0.03979 0.008,0.01506 0.0145,0.03081 0.0191,0.04703 0.005,0.01621 0.007,0.02936 0.007,0.03979 0,0.02664 -0.008,0.05047 -0.0243,0.07131 -0.0162,0.01969 -0.0371,0.03623 -0.0625,0.05013 -0.0255,0.0139 -0.0535,0.02497 -0.0847,0.03307 -0.0313,0.0081 -0.0624,0.01282 -0.0925,0.01395 0.0243,0.09614 0.0478,0.196903 0.0698,0.302307 0.022,0.104245 0.0331,0.205011 0.0331,0.302307 h 5.2e-4 c 0,0.07181 -0.0107,0.138992 -0.0315,0.201538 -0.0209,0.06255 -0.051,0.117878 -0.0904,0.165365 -0.0405,0.04633 -0.0899,0.0833 -0.14779,0.111104 -0.0591,0.02664 -0.12625,0.03979 -0.20154,0.03979 -0.0486,0 -0.0988,-0.0051 -0.1509,-0.0155 -0.0521,-0.01042 -0.10017,-0.02956 -0.14417,-0.05736 -0.0255,-0.01621 -0.0527,-0.03405 -0.0816,-0.05374 -0.0289,-0.02085 -0.0571,-0.04259 -0.0837,-0.0646 -0.0267,-0.02316 -0.0509,-0.04699 -0.0729,-0.07131 -0.0231,-0.02433 -0.0419,-0.04893 -0.0558,-0.07441 -0.0406,-0.07297 -0.0796,-0.145228 -0.11782,-0.217041 -0.0394,-0.07297 -0.0683,-0.145745 -0.0868,-0.217558 -0.001,-0.0046 -0.002,-0.0114 -0.002,-0.02067 0,-0.01274 0.003,-0.02381 0.0103,-0.03307 0.006,-0.0093 0.0135,-0.01694 0.0227,-0.02274 0.009,-0.0058 0.0191,-0.0096 0.0295,-0.01189 0.009,-0.0023 0.0174,-0.0036 0.0243,-0.0036 0.0221,0 0.0399,0.01068 0.0537,0.03152 0.0405,0.0556 0.0852,0.113797 0.13384,0.175184 0.0475,0.06139 0.0985,0.118412 0.15297,0.170532 0.0533,0.05096 0.10939,0.09301 0.16846,0.126607 0.0591,0.03359 0.11947,0.05064 0.18087,0.05064 0.0359,0 0.0656,-0.006 0.0899,-0.01757 0.0232,-0.01275 0.0419,-0.0298 0.0558,-0.05064 0.0137,-0.02085 0.0234,-0.04506 0.0294,-0.07286 0.006,-0.02896 0.009,-0.05916 0.009,-0.09043 0,-0.02433 -0.002,-0.05792 -0.007,-0.10077 -0.006,-0.04401 -0.0139,-0.09284 -0.0243,-0.147277 -0.0116,-0.0556 -0.0257,-0.115611 -0.0419,-0.179318 -0.0162,-0.06371 -0.0354,-0.128283 -0.0574,-0.194303 -0.0105,0 -0.0236,-0.0013 -0.0398,-0.0036 -0.0173,-0.0023 -0.0395,-0.0057 -0.0661,-0.01034 -0.0267,-0.0046 -0.0585,-0.01192 -0.0956,-0.02119 -0.0382,-0.0093 -0.0837,-0.02072 -0.13694,-0.03462 -0.0359,-0.0093 -0.0734,-0.01864 -0.11162,-0.02791 -0.0382,-0.0093 -0.0743,-0.01773 -0.10904,-0.02584 -0.0359,-0.0081 -0.0687,-0.01579 -0.0977,-0.02274 -0.0301,-0.007 -0.0543,-0.01204 -0.0729,-0.0155 -0.022,-0.0046 -0.0442,-0.0114 -0.0661,-0.02067 -0.022,-0.01042 -0.0415,-0.02318 -0.0589,-0.03824 -0.0174,-0.01622 -0.0315,-0.03496 -0.0419,-0.05581 -0.0116,-0.02201 -0.0171,-0.04661 -0.0171,-0.07441 0,-0.02085 0.004,-0.0379 0.0134,-0.05064 0.009,-0.01275 0.0216,-0.02251 0.0367,-0.02945 0.0139,-0.0069 0.031,-0.01162 0.0506,-0.01395 0.0185,-0.0035 0.0368,-0.0052 0.0553,-0.0052 0.0128,0 0.0289,0.0021 0.0486,0.0067 0.0185,0.0035 0.042,0.0091 0.0698,0.01602 0.0278,0.0058 0.0614,0.01295 0.10077,0.02222 0.0382,0.0093 0.0842,0.01954 0.13746,0.02997 0.0486,0.0093 0.0971,0.01812 0.14573,0.02739 0.0487,0.0093 0.10438,0.01954 0.16692,0.02997 l -0.12713,-0.486792 c -0.006,-0.02316 -0.009,-0.04907 -0.009,-0.07803 0,-0.02664 0.003,-0.05346 0.0103,-0.0801 0.007,-0.02665 0.0177,-0.05047 0.0315,-0.07131 0.0139,-0.02085 0.0318,-0.03739 0.0538,-0.05013 0.022,-0.01274 0.0483,-0.01912 0.0796,-0.01912 z m 1.49965,0.573092 c 0.0764,0 0.13722,0.02473 0.18242,0.07338 0.0382,0.0023 0.0752,0.0095 0.1111,0.02222 0.0359,0.01158 0.0627,0.02265 0.0801,0.03307 0.10888,0.06718 0.20496,0.139436 0.28835,0.217041 0.0822,0.07761 0.15281,0.157149 0.21188,0.238229 0.0591,0.08108 0.10711,0.161407 0.14418,0.241328 0.0359,0.07876 0.0627,0.153621 0.0801,0.224276 0.0209,0.0834 0.0315,0.16164 0.0315,0.234611 0,0.07529 -0.0107,0.143769 -0.0315,0.205156 -0.022,0.06139 -0.0543,0.114116 -0.0971,0.15813 -0.044,0.04401 -0.0984,0.0776 -0.1633,0.100769 -0.066,0.02433 -0.14387,0.03617 -0.23306,0.03617 -0.0938,0 -0.17843,-0.01276 -0.25373,-0.03824 -0.0765,-0.02432 -0.14572,-0.0587 -0.20825,-0.103869 -0.0927,-0.06602 -0.1769,-0.140488 -0.25218,-0.222726 -0.0765,-0.08339 -0.14104,-0.170103 -0.19431,-0.260449 -0.0533,-0.09035 -0.0946,-0.18304 -0.1235,-0.278019 -0.0289,-0.09498 -0.0434,-0.188066 -0.0434,-0.279569 0,-0.03938 0.003,-0.07466 0.007,-0.105937 0.005,-0.03127 0.011,-0.06069 0.0191,-0.08733 0.007,-0.02779 0.0158,-0.0537 0.0274,-0.07803 0.0104,-0.02433 0.0224,-0.04893 0.0351,-0.07441 0.0405,-0.07876 0.092,-0.140862 0.15451,-0.186035 0.0614,-0.04633 0.13704,-0.06976 0.22738,-0.06976 z m -5.30304,0.02119 c 0.0382,0 0.0748,0.0038 0.10956,0.01189 0.0336,0.0081 0.0672,0.01917 0.10077,0.03307 0.0324,0.0139 0.0647,0.03095 0.0971,0.05064 0.0324,0.01969 0.066,0.0413 0.10077,0.06563 0.0475,0.02317 0.0935,0.05259 0.13746,0.08733 0.0429,0.03475 0.0815,0.07082 0.11627,0.109037 0.0336,0.03822 0.0608,0.07741 0.0816,0.116789 0.0197,0.03822 0.0294,0.07221 0.0294,0.102319 0,0.01853 -5.8e-4,0.03598 -0.003,0.05219 -0.003,0.01622 -0.008,0.03236 -0.0124,0.04858 -0.009,0.03823 -0.0233,0.07221 -0.0419,0.10232 -0.0197,0.02896 -0.0418,0.05447 -0.0662,0.07648 -0.0255,0.02201 -0.0527,0.04205 -0.0816,0.05943 -0.0289,0.01622 -0.0582,0.02976 -0.0884,0.04134 l -0.0589,0.02429 c -0.0289,0.01158 -0.0605,0.02434 -0.0941,0.03824 -0.0336,0.0139 -0.0646,0.02926 -0.0935,0.04547 -0.0289,0.01621 -0.0528,0.03366 -0.0713,0.05219 -0.0197,0.01737 -0.0295,0.0356 -0.0295,0.05529 0,0.01042 0.001,0.02279 0.005,0.03669 0.006,0.02548 0.0305,0.05009 0.0734,0.07441 0.0417,0.02317 0.0918,0.044 0.1509,0.06253 0.0591,0.01853 0.12246,0.03389 0.18965,0.04547 0.066,0.01158 0.12589,0.01705 0.18035,0.01705 0.0185,0 0.0339,-7.68e-4 0.0455,-0.0031 0.0116,-0.0023 0.0217,-0.0049 0.031,-0.0072 0.009,-0.0035 0.0182,-0.0065 0.0264,-0.0088 0.007,-0.0022 0.0145,-0.003 0.0232,-0.0031 h 5.2e-4 5.2e-4 c 0.0101,2.97e-4 0.0213,0.005 0.0336,0.01395 0.0116,0.0081 0.0227,0.01827 0.0331,0.03101 0.0105,0.01158 0.0189,0.02473 0.0258,0.03979 0.007,0.0139 0.0103,0.02666 0.0103,0.03824 0,0.02317 -0.009,0.0466 -0.0279,0.06976 -0.0197,0.02317 -0.043,0.04399 -0.0708,0.06253 -0.0289,0.01738 -0.0605,0.03183 -0.094,0.04341 -0.0336,0.01043 -0.0642,0.0155 -0.092,0.0155 -0.0556,0 -0.11642,-0.0081 -0.18242,-0.02429 -0.0672,-0.01621 -0.13399,-0.03744 -0.19999,-0.06408 -0.0672,-0.0278 -0.13135,-0.0597 -0.19275,-0.0956 -0.0614,-0.03706 -0.11448,-0.07664 -0.15968,-0.118339 -0.007,-0.0058 -0.016,-0.01725 -0.0264,-0.03462 -0.0104,-0.01853 -0.0202,-0.03897 -0.0294,-0.06098 -0.0104,-0.02317 -0.0198,-0.04608 -0.0279,-0.06925 -0.009,-0.02317 -0.0158,-0.0436 -0.0191,-0.06098 -0.005,-0.01969 -0.008,-0.03713 -0.0103,-0.05219 -0.002,-0.01505 -0.003,-0.0299 -0.003,-0.04496 0,-0.03127 0.005,-0.05848 0.014,-0.08165 0.009,-0.02317 0.0229,-0.044 0.0403,-0.06253 0.0174,-0.01853 0.0386,-0.03558 0.0641,-0.05064 0.0243,-0.01622 0.0525,-0.03236 0.0837,-0.04858 0.0231,-0.01158 0.0507,-0.02434 0.0832,-0.03824 0.0313,-0.0139 0.0636,-0.02744 0.0971,-0.04134 0.0336,-0.0139 0.0672,-0.02796 0.10077,-0.04186 0.0325,-0.0139 0.0614,-0.02796 0.0868,-0.04186 0.0197,-0.0093 0.0364,-0.02033 0.0491,-0.03307 0.0127,-0.01274 0.0191,-0.02888 0.0191,-0.04858 0,-0.01853 -0.009,-0.03897 -0.0264,-0.06098 -0.0174,-0.02317 -0.0399,-0.04608 -0.0677,-0.06925 -0.029,-0.02317 -0.0609,-0.04569 -0.0956,-0.0677 -0.0359,-0.02201 -0.0725,-0.04115 -0.10956,-0.05736 -0.0371,-0.01737 -0.0727,-0.03052 -0.10749,-0.03979 -0.0359,-0.01043 -0.0674,-0.01602 -0.0941,-0.01602 -0.022,0 -0.0402,0.0056 -0.0553,0.01602 -0.0151,0.01043 -0.0295,0.02188 -0.0434,0.03462 -0.0139,0.01158 -0.0296,0.02265 -0.047,0.03307 -0.0173,0.01043 -0.0395,0.0155 -0.0661,0.0155 -0.0162,0 -0.0303,-0.0077 -0.0419,-0.02274 -0.0115,-0.01506 -0.0213,-0.0329 -0.0294,-0.05374 -0.008,-0.02085 -0.0137,-0.04168 -0.0171,-0.06253 -0.003,-0.02085 -0.005,-0.0379 -0.005,-0.05064 0,-0.04169 0.0115,-0.07438 0.0346,-0.0987 0.022,-0.02548 0.0496,-0.04462 0.0832,-0.05736 0.0336,-0.01275 0.0711,-0.02082 0.11162,-0.02429 0.0405,-0.0035 0.0779,-0.0052 0.11265,-0.0052 z m 1.65778,0.144177 c 0.0788,0 0.15363,0.01315 0.22428,0.03979 0.0695,0.02664 0.13497,0.06153 0.19637,0.104387 0.0603,0.0417 0.11598,0.08844 0.16692,0.14056 0.0498,0.05096 0.0944,0.101995 0.13384,0.152962 0.0393,0.05097 0.072,0.09861 0.0987,0.142627 0.0267,0.04286 0.0467,0.07684 0.0594,0.102319 0.044,0.01159 0.0793,0.03502 0.10593,0.06976 0.0267,0.03475 0.0398,0.0768 0.0398,0.126608 0,0.02548 -0.006,0.04501 -0.0191,0.05891 -0.0139,0.01273 -0.0278,0.0204 -0.0429,0.02274 0.0151,0.06718 0.0222,0.127978 0.0222,0.182418 0,0.06718 -0.009,0.124596 -0.0279,0.172083 -0.0197,0.04749 -0.0443,0.08746 -0.0744,0.119889 -0.0312,0.03243 -0.0665,0.05834 -0.10593,0.07803 -0.0394,0.01969 -0.0794,0.03505 -0.11989,0.04548 -0.0405,0.01043 -0.0792,0.0172 -0.11627,0.02067 -0.0382,0.0035 -0.0714,0.0052 -0.0992,0.0052 -0.14363,0 -0.27838,-0.02044 -0.40463,-0.06098 -0.12741,-0.04054 -0.25161,-0.108109 -0.37207,-0.203089 -0.0266,-0.02201 -0.0487,-0.04792 -0.0661,-0.07803 -0.0171,-0.03011 -0.0286,-0.06032 -0.0346,-0.09043 -0.001,-0.0058 -0.002,-0.01308 -0.002,-0.02119 -10e-4,-0.0093 -0.002,-0.01812 -0.002,-0.02739 0,-0.01621 0.004,-0.03157 0.0119,-0.04547 0.008,-0.01506 0.0269,-0.02222 0.0558,-0.02222 0.029,0 0.0626,0.0098 0.10077,0.02946 0.037,0.01853 0.0761,0.04145 0.11782,0.06925 0.0324,0.02201 0.0686,0.04453 0.10801,0.0677 0.0393,0.02201 0.0814,0.04283 0.1266,0.06253 0.044,0.01853 0.0913,0.03429 0.14108,0.04703 0.0498,0.01159 0.1016,0.01757 0.15606,0.01757 0.0938,0 0.16739,-0.01874 0.22066,-0.05581 0.0533,-0.03706 0.0801,-0.08888 0.0801,-0.156063 0,-0.03011 -0.003,-0.06123 -0.0103,-0.0925 -0.008,-0.03243 -0.0175,-0.05873 -0.0279,-0.07958 -0.0475,-0.0046 -0.1036,-0.01101 -0.16847,-0.01912 -0.0649,-0.0093 -0.13203,-0.02203 -0.20153,-0.03824 -0.0707,-0.01622 -0.14083,-0.03666 -0.21033,-0.06098 -0.0707,-0.02433 -0.13575,-0.05453 -0.19482,-0.09043 -0.0602,-0.03707 -0.11206,-0.07951 -0.15606,-0.128158 -0.044,-0.04864 -0.0742,-0.105666 -0.0904,-0.170532 -0.0104,-0.03591 -0.0155,-0.07379 -0.0155,-0.113172 0,-0.04633 0.008,-0.08878 0.0243,-0.128157 0.0162,-0.04054 0.0404,-0.07543 0.0729,-0.104387 0.0324,-0.02896 0.0737,-0.05148 0.12351,-0.0677 0.0498,-0.01621 0.108,-0.02429 0.17518,-0.02429 z m 3.6065,0.144178 c -0.008,0.02085 -0.0175,0.04207 -0.0279,0.06408 -0.0105,0.02085 -0.0206,0.04129 -0.031,0.06098 -0.0174,0.03243 -0.0315,0.06173 -0.0419,0.08837 -0.0116,0.02549 -0.0176,0.0536 -0.0176,0.08372 0,0.03011 0.004,0.0628 0.0124,0.0987 0.007,0.03591 0.016,0.07418 0.0264,0.114722 0.0162,0.06486 0.0442,0.136335 0.0847,0.21394 0.0394,0.07645 0.0887,0.148311 0.14779,0.215491 0.0591,0.06718 0.12665,0.123292 0.20309,0.168465 0.0753,0.04401 0.15692,0.06615 0.24495,0.06615 0.0475,0 0.0884,-0.0064 0.12196,-0.01912 0.0325,-0.0139 0.0596,-0.03264 0.0816,-0.05581 0.022,-0.02432 0.0382,-0.05283 0.0486,-0.08527 0.009,-0.03359 0.014,-0.06926 0.014,-0.107487 0,-0.02201 -10e-4,-0.04453 -0.003,-0.0677 -0.003,-0.02433 -0.009,-0.04984 -0.0155,-0.07648 h -5.2e-4 c -0.008,-0.03475 -0.0222,-0.07302 -0.0419,-0.114722 -0.0208,-0.0417 -0.0446,-0.08427 -0.0713,-0.127124 -0.0278,-0.04401 -0.0584,-0.08646 -0.092,-0.128157 -0.0348,-0.0417 -0.0704,-0.08088 -0.10749,-0.116789 -0.0382,-0.03591 -0.0774,-0.0669 -0.11679,-0.09354 -0.0394,-0.02664 -0.0781,-0.04617 -0.11627,-0.05891 -0.0579,-0.0058 -0.10463,-0.01308 -0.14056,-0.02119 -0.0359,-0.0081 -0.0644,-0.01657 -0.0853,-0.02584 -0.0209,-0.01042 -0.0366,-0.02149 -0.047,-0.03307 -0.0104,-0.01275 -0.0202,-0.02719 -0.0295,-0.04341 z m -3.55379,0.128674 c -0.0324,0 -0.06,0.0081 -0.0832,0.02429 -0.0231,0.01506 -0.0346,0.03797 -0.0346,0.06925 v 0.0155 c 0,0.0046 5.9e-4,0.01022 0.003,0.01602 h 5.1e-4 c 0.009,0.03359 0.0301,0.06549 0.0625,0.0956 0.0313,0.02895 0.0729,0.05526 0.12506,0.07958 0.051,0.02317 0.11137,0.04322 0.18087,0.05943 0.0695,0.01506 0.14605,0.02561 0.22944,0.03256 -0.0185,-0.03706 -0.0449,-0.07782 -0.0786,-0.12299 -0.0336,-0.04633 -0.0713,-0.08929 -0.1142,-0.128674 -0.044,-0.04054 -0.0904,-0.07413 -0.13901,-0.100769 -0.0498,-0.02664 -0.10048,-0.03979 -0.15142,-0.03979 z" />
  </g>
</svg>
