<?xml version="1.0" encoding="UTF-8" standalone="no"?>
<!-- Created with Inkscape (http://www.inkscape.org/) -->

<svg
   width="41.757214mm"
   height="41.757343mm"
   viewBox="0 0 41.757213 41.757344"
   version="1.1"
   id="svg5"
   xml:space="preserve"
   sodipodi:docname="v2-madeatlogo.svg"
   inkscape:version="1.2.1 (9c6d41e410, 2022-07-14)"
   xmlns:inkscape="http://www.inkscape.org/namespaces/inkscape"
   xmlns:sodipodi="http://sodipodi.sourceforge.net/DTD/sodipodi-0.dtd"
   xmlns="http://www.w3.org/2000/svg"
   xmlns:svg="http://www.w3.org/2000/svg"><sodipodi:namedview
     id="namedview7"
     pagecolor="#ffffff"
     bordercolor="#666666"
     borderopacity="1.0"
     inkscape:showpageshadow="2"
     inkscape:pageopacity="0.0"
     inkscape:pagecheckerboard="0"
     inkscape:deskcolor="#d1d1d1"
     inkscape:document-units="mm"
     showgrid="false"
     inkscape:zoom="4.0924048"
     inkscape:cx="124.49893"
     inkscape:cy="-21.625427"
     inkscape:window-width="3840"
     inkscape:window-height="2050"
     inkscape:window-x="-12"
     inkscape:window-y="-12"
     inkscape:window-maximized="1"
     inkscape:current-layer="layer4" /><defs
     id="defs2">
	
	
	
	
	
	
	
	
	
</defs><g
     inkscape:groupmode="layer"
     id="layer4"
     inkscape:label="logo"
     transform="translate(-2.8416755,-48.795243)"><g
       id="_x31_3"
       transform="matrix(0.26458333,0,0,0.26458333,-226.7691,-105.83333)">
</g><g
       id="_x31_2_1_"
       transform="matrix(0.26458333,0,0,0.26458333,-226.7691,-105.83333)">
</g><g
       id="_x31_1_1_"
       transform="matrix(0.26458333,0,0,0.26458333,-226.7691,-105.83333)">
</g><g
       id="_x31_0_1_"
       transform="matrix(0.26458333,0,0,0.26458333,-226.7691,-105.83333)">
</g><g
       id="_x39__1_"
       transform="matrix(0.26458333,0,0,0.26458333,-226.7691,-105.83333)">
</g><g
       inkscape:export-ydpi="300"
       inkscape:export-xdpi="300"
       aria-label="A"
       transform="matrix(0.21988691,0.12059056,-0.13441008,0.24465191,-273.90171,-174.92546)"
       id="text1171"
       style="font-style:normal;font-weight:normal;font-size:73.2998px;line-height:1.25;font-family:sans-serif;letter-spacing:0px;word-spacing:0px;fill:#981b1f;fill-opacity:1;stroke:none;stroke-width:0.947842" /><g
       id="text1175"
       style="font-style:normal;font-weight:normal;font-size:40px;line-height:1.25;font-family:sans-serif;letter-spacing:0px;word-spacing:0px;fill:#000000;fill-opacity:1;stroke:none"
       transform="matrix(0.26458333,0,0,0.26458333,-273.90171,-174.92546)" /><g
       inkscape:export-ydpi="300"
       inkscape:export-xdpi="300"
       aria-label="T"
       transform="matrix(0.18839501,0.15272671,-0.18177274,0.22422455,-273.90171,-174.92546)"
       id="text1179"
       style="font-style:normal;font-weight:normal;font-size:36.6651px;line-height:1.25;font-family:sans-serif;letter-spacing:0px;word-spacing:0px;fill:#981b1f;fill-opacity:1;stroke:none;stroke-width:0.916628" /><path
       id="path943"
       style="font-style:normal;font-variant:normal;font-weight:bold;font-stretch:normal;font-size:67.2194px;line-height:1.25;font-family:sans-serif;-inkscape-font-specification:'sans-serif Bold';letter-spacing:0px;word-spacing:0px;fill:#981b1f;fill-opacity:1;stroke:#080d00;stroke-width:0;stroke-dasharray:none;stroke-opacity:1"
       d="m 23.499858,48.796505 c -0.178966,0.002 -0.358586,0.0064 -0.538469,0.01292 -11.498836,0.418151 -20.5239018,10.12465 -20.1057494,21.623485 0.048884,1.344277 0.2260383,2.653573 0.5162476,3.918624 h 2.3760824 v 0.322978 l 0.5622395,-0.02015 a 1.1956959,1.1956959 0 0 1 0.7797974,-0.30024 1.1956959,1.1956959 0 0 1 0.7229533,0.245463 l 2.9533082,-0.107487 c 0.771365,1.939118 1.962013,3.660531 3.455603,5.049304 0.637408,0.591066 1.33033,1.123655 2.069124,1.589567 a 1.1956959,1.1956959 0 0 1 0.84646,-0.351916 1.1956959,1.1956959 0 0 1 1.195793,1.195792 1.1956959,1.1956959 0 0 1 -0.02015,0.211874 c 1.81323,0.766004 3.816623,1.160765 5.908683,1.084688 1.144358,-0.04161 2.251968,-0.222004 3.308326,-0.522449 a 1.1956959,1.1956959 0 0 1 -0.29559,-0.774113 1.1956959,1.1956959 0 0 1 1.195276,-1.195792 1.1956959,1.1956959 0 0 1 1.195276,1.187524 c 1.633977,-0.766714 3.092033,-1.839851 4.298963,-3.14141 1.388775,-1.49359 2.455867,-3.297366 3.088183,-5.287533 l 6.35155,-0.230993 c -1.349831,7.30341 -6.701784,13.280278 -13.757816,15.457971 a 1.1956959,1.1956959 0 0 1 0.01964,0.210323 1.1956959,1.1956959 0 0 1 -0.327629,0.821138 C 38.401625,87.276047 44.942947,78.76186 44.584875,68.915173 44.173258,57.596009 34.774713,48.673251 23.499858,48.796505 Z m -0.01137,0.903304 c 10.352199,-0.123609 19.065828,7.730532 20.10265,17.944124 l -2.673222,0.09715 c 0.04561,0.165688 0.06019,0.34141 0.03307,0.518831 -0.06487,0.746749 -0.809078,1.19998 -1.486731,1.131714 0.0029,0.0048 0.0048,0.0081 0.0078,0.01292 0.264686,0.44017 0.344614,0.509862 0.57981,0.501262 0.227487,-0.0083 0.316228,-0.09926 0.541052,-0.557589 0.363262,-0.740543 0.400768,-0.773353 0.910539,-0.791683 0.379625,-0.01365 0.517168,0.0368 0.649573,0.237195 0.07282,0.110213 0.07838,0.181471 0.139526,1.859318 0.07037,1.930997 0.07323,1.893439 -0.159163,2.058789 -0.227183,0.161639 -0.57556,0.06889 -0.718303,-0.191203 -0.05876,-0.107065 -0.07153,-0.237163 -0.09973,-1.011308 -0.02096,-0.574549 -0.04757,-0.918877 -0.07545,-0.974617 -0.07992,-0.159732 -0.328935,-0.215721 -0.504879,-0.113172 -0.154748,0.09021 -0.170925,0.230194 -0.136425,1.182874 0.02973,0.820649 0.02667,0.900874 -0.03411,1.009241 -0.174634,0.311329 -0.639314,0.321109 -0.854211,0.01809 -0.06087,-0.08584 -0.07377,-0.203505 -0.114722,-1.057299 l -0.04599,-0.960665 -0.09147,-0.08527 c -0.108442,-0.10082 -0.21172,-0.122668 -0.364836,-0.077 -0.211386,0.06305 -0.21979,0.111238 -0.19482,1.139465 0.01979,0.814998 0.01512,0.946381 -0.03772,1.052132 -0.124076,0.248314 -0.449884,0.34914 -0.690914,0.213941 -0.235894,-0.132321 -0.230323,-0.09444 -0.301273,-2.045354 -0.07179,-1.974186 -0.07879,-1.896785 0.1788,-2.054138 0.09779,-0.05974 0.186072,-0.07934 0.401009,-0.0894 -0.132733,-0.259853 -0.155476,-0.554179 -0.09508,-0.833541 l -0.768429,0.0279 c -0.364575,-3.450426 -1.989404,-6.513954 -4.376994,-8.740035 -0.21707,-0.200742 -0.443028,-0.391967 -0.67231,-0.578776 -0.128737,0.254198 -0.391646,0.427881 -0.697115,0.427881 h -0.716752 c -0.433071,0 -0.781865,-0.348278 -0.781865,-0.781347 0,-0.376544 0.264066,-0.689591 0.617534,-0.764812 -1.380653,-0.839592 -2.91462,-1.446715 -4.546493,-1.767334 0.129542,0.139397 0.20929,0.325566 0.20929,0.531751 0,0.433069 -0.348794,0.781864 -0.781865,0.781864 h -0.716752 c -0.433071,0 -0.781348,-0.348795 -0.781348,-0.781864 0,-0.349324 0.22707,-0.643345 0.542086,-0.744141 -0.550135,-0.04565 -1.108487,-0.05983 -1.673799,-0.03927 -0.930306,0.03383 -1.836269,0.158604 -2.709913,0.364836 0.07661,0.120935 0.12144,0.264238 0.12144,0.418579 0,0.433069 -0.348794,0.781864 -0.781864,0.781864 H 19.12183 c -0.340765,0 -0.628373,-0.216347 -0.735872,-0.519348 -1.868307,0.7725 -3.529169,1.936618 -4.880839,3.386357 -0.667258,0.717618 -1.257488,1.507976 -1.762167,2.354895 h 0.987537 v 2.132686 h -0.556038 c 0.120531,0.0663 0.228473,0.156162 0.315743,0.26355 0.730086,0.776646 -0.283865,2.102611 -1.224732,1.660364 -0.853046,-0.291918 -0.789999,-1.527149 -0.123506,-1.923914 H 10.70839 c -0.546609,1.422461 -0.8698886,2.95337 -0.9208737,4.547009 L 3.7610107,69.092424 C 3.8839504,64.76809 5.3972982,60.763255 7.8791056,57.528788 v -0.07751 -0.03307 -0.09974 h 0.1627808 c 3.5054946,-4.445731 8.8637666,-7.385353 14.9525756,-7.606771 0.165122,-0.006 0.329706,-0.0099 0.494027,-0.01188 z m 0.541052,0.994254 c -0.45195,-0.0041 -0.83725,0.133053 -1.141532,0.424781 -0.311365,0.28514 -0.468868,0.660795 -0.479558,1.119828 l -0.01602,0.691947 c -0.01033,0.281039 0.03963,0.525369 0.150378,0.747242 0.07359,0.141071 0.167775,0.274697 0.281637,0.393774 0.298565,0.30403 0.673838,0.45465 1.126029,0.465605 l 0.476457,0.01034 c -0.05507,-0.107172 -0.08682,-0.228374 -0.08682,-0.357601 0,-0.118747 0.02692,-0.230641 0.0739,-0.331246 l -0.448035,-0.01344 c -0.191669,1.24e-4 -0.34443,-0.06983 -0.466121,-0.216007 -0.02098,-0.01293 -0.02826,-0.02637 -0.03566,-0.03979 -0.122659,-0.173526 -0.185068,-0.383092 -0.180868,-0.643372 l 0.0155,-0.699182 c -0.0029,-0.266868 0.07144,-0.474711 0.20929,-0.63717 0.131008,-0.162215 0.300055,-0.22986 0.505395,-0.230477 l 0.513664,0.0088 -0.04806,2.260327 5.17e-4,0.09509 c 0.140957,-0.202706 0.375147,-0.33538 0.641821,-0.33538 h 0.256315 l 0.05633,-2.683041 z m -3.040124,0.172083 -2.444813,0.540535 0.141077,0.66611 1.58905,-0.345199 0.179834,0.807703 -1.324467,0.287837 0.128675,0.584978 h 0.421163 l 0.922424,-0.200505 0.15658,0.727087 0.04857,0.203606 -0.181901,0.03927 c 6.5e-5,0.0042 5.17e-4,0.0082 5.17e-4,0.0124 0,0.43307 -0.348277,0.781864 -0.781347,0.781864 h -0.519349 l 0.04031,0.183968 2.45153,-0.534334 -0.180868,-0.842326 z m 6.869864,0.28422 -1.568379,2.401921 c 0.199249,0.1414 0.329179,0.373701 0.329179,0.637687 0,0.215482 -0.08626,0.410256 -0.226343,0.551387 l 0.15968,0.04341 0.40721,-0.665076 1.105876,0.288355 0.0217,0.779797 0.905371,0.240812 -0.04651,-0.895036 -0.161747,-3.136242 -0.463021,-0.11989 z m 3.584278,1.053683 -0.942578,1.511019 c 0.14262,-0.186391 0.366765,-0.306958 0.620634,-0.306958 h 0.716752 c 0.159165,0 0.306707,0.0476 0.429948,0.128674 l 0.176216,-0.711585 z m -3.441651,0.241845 0.01395,0.0062 0.03824,1.244368 L 27.342,53.503711 Z m -12.987837,0.410828 -0.914673,0.545703 0.876432,3.968233 0.771012,-0.460437 -0.173116,-0.714685 1.199927,-0.715718 0.549837,0.489892 0.771013,-0.45992 z m 18.907889,0.872815 -0.444934,0.379305 -0.119372,0.10697 -0.418063,0.350366 -0.119372,0.113689 -0.38499,0.32246 -0.119372,0.113689 -0.357084,0.302307 c 0.241544,0.0372 0.446227,0.183535 0.561206,0.38809 l 0.371553,-0.300757 0.119373,-0.10697 0.392224,-0.315227 0.01292,-0.02119 0.01395,0.0062 -0.01292,0.02791 -0.258899,0.406693 -0.08423,0.132809 -0.245463,0.399458 -0.08423,0.126091 -0.135909,0.217041 -0.02015,0.03204 c -0.04042,0.138486 -0.118418,0.260215 -0.221692,0.355017 l -0.230477,0.369487 0.763261,0.472322 0.420129,-0.686263 0.12299,-0.19637 0.077,-0.132808 0.252698,-0.399459 0.07751,-0.126091 0.265101,-0.426847 0.07751,-0.126091 0.284737,-0.462504 0.07751,-0.125573 0.362252,-0.574642 z m -3.499011,0.110071 -0.63562,1.019576 -0.361218,0.601513 0.756543,0.472323 0.439766,-0.70745 0.196887,-0.314193 C 30.537185,54.793629 30.33975,54.51576 30.33975,54.189974 c 0,-0.126259 0.03048,-0.245007 0.0832,-0.350366 z m -15.403711,0.06666 1.195793,1.07332 -0.814937,0.486275 z m -2.137337,0.340031 -2.13372,1.862419 0.468705,0.536918 0.767912,-0.669727 1.935799,2.21847 0.59738,-0.521416 -1.936316,-2.217952 0.768945,-0.671277 z m 19.028813,0.72192 c -0.02386,0.0022 -0.0479,0.0036 -0.07235,0.0036 h -0.59738 l -0.0047,0.01912 -0.03514,0.158646 -0.05323,0.258899 h 0.657324 l 0.01292,-0.04858 z m 4.288627,1.293461 -0.0925,0.157096 c 2.529592,2.500171 4.491249,5.763522 5.600692,9.486243 l 0.182418,-0.0062 C 40.771161,62.11183 38.779388,58.800394 36.199341,56.261681 Z m -0.393775,0.733289 -0.0987,0.173116 c 2.341182,2.329366 4.167604,5.347468 5.231206,8.773108 l 0.175183,-0.0062 c -1.080238,-3.49768 -2.937047,-6.571347 -5.307687,-8.940022 z m -25.346255,0.20309 c -0.152602,0.173718 -0.302301,0.350626 -0.449585,0.5302 v 0.28112 c 0.180673,-0.224594 0.36399,-0.446536 0.552938,-0.661975 z m 14.582572,0.06511 c 0.12615,-0.0046 0.235979,0.05362 0.303858,0.145211 h 0.492476 c 0.433071,0 0.781865,0.348794 0.781865,0.781865 0,0.433069 -0.348794,0.781347 -0.781865,0.781347 h -0.716752 c -0.07748,0 -0.151648,-0.01175 -0.222209,-0.03256 l -0.09922,0.469222 h 1.494482 l 0.12454,0.02481 0.10542,0.0708 0.0708,0.10542 0.02481,0.124541 v 0.677994 c 0.636434,0.183784 0.930854,0.791813 0.97255,1.303797 0.02809,0.772514 -0.708151,1.41547 -1.260905,1.46296 l 0.05013,1.375109 h 0.248564 v 1.53014 l 1.878955,-0.06821 c 0.01118,0.214018 0.02074,0.428292 0.03101,0.642338 0.05022,-0.0028 0.100141,-0.0051 0.149861,-0.0067 1.656451,-0.05501 3.043907,0.485495 4.68912,1.049031 0.453814,-0.509378 1.213346,-0.708094 1.921846,-0.425813 0.89582,0.35077 1.348723,1.320209 1.016476,2.160591 l -0.319361,-0.12609 c 0.08232,0.126592 0.177754,0.279243 0.300241,0.478007 l 0.521932,0.846976 0.02842,1.077454 0.02894,1.077454 -0.08371,0.09612 c -0.112509,0.128767 -0.279933,0.134694 -0.401526,0.01447 -0.08683,-0.08585 -0.09196,-0.114941 -0.130742,-0.706417 -0.03973,-0.606105 -0.04235,-0.620063 -0.148828,-0.765328 -0.13103,-0.178778 -0.414472,-0.319292 -0.626835,-0.311092 -0.223724,0.0087 -0.495321,0.164591 -0.608232,0.349333 -0.09352,0.152925 -0.09545,0.171049 -0.09095,0.77773 0.0044,0.595544 0.0013,0.624713 -0.07906,0.716752 -0.112515,0.128834 -0.279927,0.135271 -0.401526,0.01499 l -0.09043,-0.08992 -0.04857,-1.084689 -0.04858,-1.084688 0.445967,-0.861963 c 0.488598,-0.943585 0.557553,-1.029513 0.831991,-1.039213 0.10594,-0.0037 0.180293,0.0035 0.263033,0.06511 0.01904,-0.389263 -0.222111,-0.768842 -0.621668,-0.931726 -0.281686,-0.109325 -0.578164,-0.08803 -0.817004,0.03617 l -2.75177,0.100252 c -0.289378,-0.108816 -0.58248,-0.208874 -0.88315,-0.285254 -0.307517,-0.13087 -0.911403,-0.259081 -2.006596,-0.288871 0.0099,0.226069 0.02006,0.451895 0.02946,0.677995 l -2.263427,0.08217 c -0.284264,0.3458 -0.750149,0.542356 -1.201477,0.330213 -0.169004,-0.05783 -0.300418,-0.153803 -0.399976,-0.271818 l -5.59294,0.203605 c -0.0065,-0.219825 -0.01345,-0.439579 -0.02015,-0.659392 -2.384316,0.23516 -3.016353,0.790133 -3.016353,0.790133 l -2.494939,0.09095 c -0.26508,-0.157875 -0.61226,-0.183217 -0.925524,-0.03462 -0.347044,0.166797 -0.553306,0.505389 -0.558106,0.853695 l 0.483175,-0.01757 0.157613,4.325317 -3.3786053,0.12299 -0.031006,-0.856278 2.5223273,-0.09198 -0.02946,-0.805636 0.608748,-0.02222 -0.03617,-1.001489 -0.608749,0.02222 -0.02945,-0.805636 -2.522327,0.09147 -0.031006,-0.855762 2.13062,-0.07751 c 0.0069,-0.623163 0.380344,-1.233424 1.010791,-1.53479 0.686375,-0.32616 1.458323,-0.182975 1.947684,0.285254 1.250401,-0.532647 2.345299,-1.038557 3.554305,-1.266072 v -1.38958 -0.03256 -0.100252 h 2.13062 v 0.567407 c 0.153784,-0.326836 0.452173,-0.57369 0.865063,-0.56689 0.02085,-0.0018 0.04174,-0.0028 0.06253,-0.0031 0.31181,-0.005 0.613734,0.148308 0.810286,0.390157 0.08865,0.0943 0.151231,0.197004 0.19172,0.303341 l 0.500228,-0.01809 -0.03359,-0.930176 -1.285193,0.04703 -0.07028,-1.928048 c -0.731743,0.01976 -1.349364,-0.587491 -1.377694,-1.366841 -0.01567,-0.430831 0.113021,-0.818318 0.376205,-1.086756 H 18.66557 L 18.54103,60.9467 18.43561,60.87642 18.36481,60.770483 18.34,60.645943 v -0.912089 l 0.02481,-0.124541 0.0708,-0.10542 0.10542,-0.0708 0.12454,-0.02481 h 1.628841 l 0.124541,0.02481 0.105936,0.0708 0.07028,0.10542 0.02481,0.124541 v 0.912089 l -5.17e-4,0.0021 c 0.103333,-0.02799 0.214187,-0.04697 0.33383,-0.05323 l -0.01912,-0.526066 1.572514,-0.05736 -0.687297,-0.817004 0.05994,-0.05013 0.456303,-1.002523 c -0.04324,-0.06004 -0.07275,-0.127362 -0.07545,-0.202572 -0.0072,-0.198257 0.150559,-0.367971 0.348816,-0.375171 0.205094,-0.0075 0.368488,0.15056 0.375688,0.348816 0.0072,0.198255 -0.151079,0.368488 -0.349333,0.375688 -0.0342,0.0013 -0.06169,-0.0047 -0.09612,-0.01033 l -0.380856,0.828373 0.744658,0.897103 1.437121,-0.05168 v -0.218074 l 0.02481,-0.124541 0.07028,-0.10542 0.07803,-0.05219 0.135393,-0.639237 c -0.187489,-0.142543 -0.308509,-0.367444 -0.308509,-0.622184 0,-0.280887 0.147213,-0.525762 0.368453,-0.663526 0.04255,-0.14622 0.174022,-0.257765 0.333313,-0.26355 z M 19.12183,57.40838 h 0.716236 c 0.43307,0 0.781864,0.348794 0.781864,0.781865 0,0.433069 -0.348794,0.781347 -0.781864,0.781347 H 19.12183 c -0.43307,0 -0.781864,-0.348278 -0.781864,-0.781347 0,-0.433071 0.348794,-0.781865 0.781864,-0.781865 z m 16.29513,0.270785 -0.0987,0.173116 c 2.160648,2.182501 3.852664,4.963367 4.864302,8.1163 l 0.188619,-0.0067 C 39.335906,62.737105 37.614067,59.90072 35.41696,57.679167 Z m -24.491012,0.220658 c -0.318346,0.364663 -0.622771,0.744555 -0.916223,1.135848 v 0.304891 C 10.332307,58.89972 10.669159,58.47316 11.0231,58.065706 Z m 24.13031,0.454753 -0.0987,0.173116 c 1.972531,2.019764 3.544102,4.578899 4.518071,7.466727 l 0.174666,-0.0062 C 38.666688,63.028067 37.072248,60.413133 35.05626,58.354577 Z M 11.335225,58.55508 c -0.467121,0.548426 -0.905683,1.128625 -1.315682,1.735812 0.0095,0.164687 -0.027455,0.329147 -0.097151,0.481624 0.467927,-0.722881 0.976148,-1.409561 1.523938,-2.052071 z m 0.415996,0.646989 c -1.8611442,2.199548 -3.2546619,4.922772 -4.0276614,7.946802 v 5.17e-4 l 0.1751831,-0.0067 c 0.7686409,-2.95119 2.1429633,-5.617535 3.9635823,-7.775236 z m 18.914607,0.206189 h 1.628325 l 0.12454,0.02481 0.105937,0.0708 0.0708,0.10542 0.0248,0.124541 v 0.912089 l -0.0248,0.12454 -0.0708,0.105937 -0.105937,0.07028 -0.12454,0.02481 h -1.628325 l -0.12454,-0.02481 -0.105936,-0.07028 -0.0708,-0.105937 -0.02481,-0.12454 v -0.912089 l 0.02481,-0.124541 0.0708,-0.10542 0.105936,-0.0708 z m -20.960994,0.04289 c -0.027401,0.03856 -0.053974,0.078 -0.081132,0.116788 0.047249,0.03933 0.090852,0.0826 0.1302246,0.129708 0.057669,-0.08256 0.1153811,-0.165008 0.1741496,-0.246496 z M 7.9530029,60.732727 C 6.8370252,62.698455 5.9934373,64.884554 5.483903,67.22277 l 0.1746663,-0.0067 c 0.4971554,-2.255573 1.3088493,-4.369608 2.3771159,-6.277136 -0.034485,-0.06563 -0.063197,-0.134055 -0.082682,-0.206189 z m 1.7833537,0.328662 C 9.6266841,61.188873 9.4924022,61.294163 9.3425822,61.36473 8.3095533,63.123727 7.5134747,65.080828 7.009908,67.175228 l 0.1746664,-0.0067 C 7.721201,64.954403 8.595388,62.892462 9.7363566,61.061389 Z m -1.2335164,0.297656 c -0.9929216,1.781481 -1.7524587,3.748044 -2.227771,5.842538 l 0.1679484,-0.0057 c 0.4848298,-2.068464 1.2434898,-4.012405 2.229838,-5.772774 -0.042761,-0.01293 -0.085688,-0.02805 -0.1281575,-0.04806 -0.014374,-0.0049 -0.028002,-0.01056 -0.041858,-0.01602 z m 16.4325888,0.309542 c -0.485385,0.01765 -0.860199,0.449085 -0.841809,0.954981 0.01864,0.512729 0.423086,0.908561 0.908471,0.890901 0.485385,-0.01765 0.8602,-0.449087 0.84181,-0.95498 -0.02548,-0.512482 -0.429923,-0.908302 -0.908472,-0.890902 z m -2.577621,0.09353 c -0.485383,0.01765 -0.859682,0.449086 -0.841292,0.95498 0.01864,0.512732 0.423085,0.908552 0.908472,0.890902 0.485383,-0.01765 0.859682,-0.448568 0.841292,-0.954464 -0.01864,-0.51273 -0.423084,-0.909068 -0.908472,-0.891418 z m 10.164755,7.153568 c 0.09885,-8.4e-4 0.195932,0.02844 0.275952,0.09095 0.221169,0.172739 0.220214,0.164004 0.286804,1.995227 0.03987,1.096568 0.0486,1.706712 0.02584,1.774052 -0.04179,0.123704 -0.159345,0.266275 -0.256315,0.310575 -0.03896,0.01787 -0.140499,0.03601 -0.225309,0.04031 -0.131167,0.0067 -0.177047,-0.01225 -0.309542,-0.127124 L 32.16393,72.864799 32.12621,72.392993 c -0.03604,-0.446532 -0.04351,-0.475776 -0.135392,-0.561206 -0.1368,-0.127207 -0.361587,-0.118289 -0.489892,0.01964 -0.08736,0.09389 -0.09215,0.1221 -0.09405,0.539502 -0.0011,0.247997 -0.02014,0.475068 -0.04341,0.519348 -0.145493,0.276908 -0.496403,0.372652 -0.721403,0.196888 -0.20068,-0.156766 -0.226326,-0.239286 -0.246496,-0.79375 -0.02528,-0.69519 5.24e-4,-0.740583 0.445967,-0.787033 0.286438,-0.02986 0.431706,-0.124938 0.487826,-0.318326 0.048,-0.165386 -0.0103,-0.358003 -0.144177,-0.474907 -0.07701,-0.06725 -0.146038,-0.08412 -0.386023,-0.09302 -0.261657,-0.0097 -0.301569,-0.02069 -0.381889,-0.107487 -0.08574,-0.09265 -0.09084,-0.120174 -0.109037,-0.620634 -0.01691,-0.464854 -0.01138,-0.539012 0.05116,-0.660425 0.03875,-0.07522 0.115089,-0.165128 0.169499,-0.199988 0.126281,-0.08097 0.371252,-0.09075 0.502295,-0.01964 0.192609,0.104546 0.242169,0.232165 0.279569,0.717786 0.0332,0.431173 0.03671,0.445186 0.137976,0.526066 0.141129,0.112694 0.349138,0.105045 0.481625,-0.01757 0.09552,-0.08836 0.09792,-0.100336 0.09922,-0.552421 10e-4,-0.354974 0.01454,-0.483091 0.05891,-0.550871 0.100092,-0.152973 0.269335,-0.237862 0.434082,-0.239262 z m -6.936011,0.168982 0.157613,4.324801 -0.856278,0.03152 -0.06046,-1.662431 0.609265,-0.02222 -0.03669,-1.000973 -0.608748,0.02222 -0.06046,-1.661914 z m 3.178101,0.03566 c 0.148949,0.0043 0.195892,0.02099 0.256315,0.05323 0.26325,0.140449 0.25816,0.107595 0.31781,2.040185 0.05133,1.663181 0.05044,1.730632 -0.0155,1.825212 -0.03764,0.05403 -0.107733,0.124843 -0.156063,0.157613 -0.07424,0.05036 -0.244668,0.0658 -1.098641,0.09767 -0.990764,0.03698 -1.013147,0.03617 -1.135848,-0.03927 -0.27363,-0.168232 -0.327504,-0.477552 -0.126091,-0.724503 0.128278,-0.157225 0.277882,-0.207622 0.657325,-0.221692 0.264334,-0.0098 0.300162,-0.01975 0.379821,-0.10542 0.11743,-0.126289 0.138213,-0.246661 0.06821,-0.398426 -0.08198,-0.177771 -0.231748,-0.224572 -0.666626,-0.208772 -0.392235,0.01426 -0.488051,-0.01977 -0.573091,-0.203089 -0.06349,-0.136807 -0.04242,-0.25587 0.06563,-0.37207 0.08094,-0.08703 0.112256,-0.09477 0.419612,-0.105937 0.422935,-0.01538 0.534068,-0.04276 0.641822,-0.158646 0.1219,-0.131118 0.113547,-0.363328 -0.01757,-0.485242 -0.110993,-0.103199 -0.2305,-0.126555 -0.575676,-0.114205 -0.396615,0.01422 -0.611415,-0.143989 -0.629935,-0.463021 -0.0099,-0.170266 0.05856,-0.302037 0.228409,-0.438733 0.09216,-0.07415 0.142573,-0.07917 1.091923,-0.113688 h 5.17e-4 c 0.467906,-0.01702 0.718698,-0.02548 0.867648,-0.02119 z m -5.685958,0.05529 0.06046,1.661914 -0.609265,0.02222 0.03669,1.000973 0.608749,-0.0217 0.06046,1.661914 -0.856278,0.03101 -0.157097,-4.325318 z m -2.04432,0.07441 0.157096,4.325317 -0.855761,0.03101 -0.06046,-1.661914 0.608749,-0.02222 -0.03617,-1.001489 -0.609265,0.02222 -0.02894,-0.805636 -1.652612,0.05994 0.02946,0.806152 -0.608748,0.0217 0.03617,1.001489 0.609265,-0.02222 0.06046,1.661915 -0.856278,0.03101 -0.157097,-4.3248 z m -4.742863,0.180867 0.806152,0.290938 c 0,0 -0.920893,2.548544 -1.312064,3.631303 l 0.145727,0.327629 -0.390674,0.174666 c -0.06561,0.02931 -0.13323,0.03964 -0.19792,0.03514 -0.0642,0.0091 -0.131881,0.0037 -0.199471,-0.02067 l -0.40256,-0.145728 0.121957,-0.337447 c -0.468796,-1.05145 -1.572514,-3.5264 -1.572514,-3.5264 l 0.782381,-0.348816 1.209745,2.713013 z m -8.5302286,0.21239 0.1777669,0.110588 0.4061768,-0.01447 0.00982,0.273886 0.1333252,0.08268 c 0,0 -0.04521,0.07975 -0.1224732,0.216524 l 0.1224732,3.361552 c 0.00865,0.237867 -0.1604811,0.458055 -0.4118612,0.467155 l -0.4278809,0.0155 -0.08785,-2.424142 c -0.502685,0.88188 -1.0711503,1.869093 -1.3198161,2.268596 -0.056733,0.09105 -0.1412811,0.158826 -0.236678,0.193786 -0.00207,10e-4 -0.00448,0.0013 -0.00672,0.0021 -0.010256,0.0036 -0.020576,0.007 -0.031006,0.0098 -0.00615,0.0017 -0.012323,0.0033 -0.018604,0.0047 -0.0077,0.0018 -0.015484,0.0034 -0.023254,0.0047 -0.00656,0.0011 -0.013454,0.0018 -0.020154,0.0026 -0.00806,8e-4 -0.016218,0.0016 -0.024288,0.0021 -0.00305,1.46e-4 -0.00605,4e-4 -0.0093,5.16e-4 l -0.4278809,0.01602 -0.00723,-0.205155 C 5.2755009,73.93233 5.2751302,73.931921 5.2751302,73.931921 l 0.1477946,-0.254764 -0.1395264,-3.826123 0.8562785,-0.03152 0.089917,2.466516 1.2712402,-2.193665 -0.011369,-0.321944 0.2020549,-0.0072 z m 27.7027016,0.126091 c -0.184588,0.0067 -0.335879,0.169401 -0.329179,0.353983 0.007,0.191422 0.162562,0.336696 0.353984,0.329696 0.191419,-0.007 0.336396,-0.16992 0.329696,-0.3545 -0.007,-0.19142 -0.169918,-0.335879 -0.354501,-0.329179 z m -10.258805,1.208712 0.02067,0.570507 -2.464449,0.0894 -0.02067,-0.569991 z m -4.552177,0.165364 0.02067,0.570508 -2.464966,0.08992 -0.02067,-0.570508 z m -8.41499,0.306441 0.02067,0.569991 -2.4644488,0.08992 -0.021187,-0.570507 z m 15.742191,2.41639 0.01757,0.485242 h 0.740524 v 2.398303 h -0.653191 l 0.03152,0.869715 0.0067,-5.17e-4 0.05633,0.230993 c -2e-4,-0.0068 0.0065,-0.0072 0.0062,-0.01395 0.680381,0.26277 0.834024,0.907199 0.882634,1.678967 h 0.0067 l 0.01034,0.286804 -0.102319,0.0036 0.0062,0.164331 -0.307992,0.01137 -0.0052,-0.143661 -0.451135,0.01654 0.0052,0.143143 -0.273368,0.01034 -0.0057,-0.157614 -0.451135,0.01654 0.0057,0.157096 -0.266651,0.0098 -0.0057,-0.157097 -0.451135,0.01654 0.0057,0.157096 -0.26665,0.0098 -0.0057,-0.157613 -0.451652,0.01654 0.0057,0.157613 -0.286805,0.01033 -0.0062,-0.164331 -0.07493,0.0026 -0.01033,-0.286804 h -0.0067 c -0.01516,-0.79352 0.0631,-1.453167 0.75706,-1.759066 v -0.0072 c 0,0 -8.2e-5,0.007 0.0067,0.0067 l 0.02325,-0.124024 -0.03669,-1.00459 h -0.09353 v -2.265495 -0.03256 -0.100252 h 0.0062 l -0.0155,-0.425297 z m -6.13916,0.223243 0.140043,3.84886 0.02429,0.101803 -5.17e-4,-0.0067 c 0.72118,0.254439 0.949482,0.889485 1.033012,1.680517 0.0103,0.09546 0.01387,0.190979 0.01757,0.293523 l -0.163814,0.0062 0.0057,0.163814 -0.32091,0.01189 -0.0057,-0.150379 -0.451135,0.01602 0.0052,0.150378 -0.266651,0.0098 -0.0057,-0.163815 -0.451135,0.01654 0.0057,0.163814 -0.273368,0.0098 -0.0057,-0.163815 -0.451135,0.01654 0.0057,0.163814 -0.26665,0.0098 -0.0057,-0.164331 -0.451652,0.01654 0.0062,0.163814 -0.294039,0.01085 -0.0062,-0.177766 -0.116272,0.0041 -0.0098,-0.273369 h 0.0067 c -0.01467,-0.779849 0.06437,-1.426276 0.744658,-1.731677 l 0.03411,-0.192753 0.0067,-5.17e-4 -0.137459,-3.773413 z m -7.153568,0.261999 h 2.396753 v 2.398303 h -2.396753 v -2.265495 -0.03256 z m 3.737756,0.0026 a 1.1956959,1.1956959 0 0 1 1.195276,1.195792 1.1956959,1.1956959 0 0 1 -1.195276,1.195793 1.1956959,1.1956959 0 0 1 -1.195793,-1.195793 1.1956959,1.1956959 0 0 1 1.195793,-1.195792 z m 11.654586,0 a 1.1956959,1.1956959 0 0 1 1.195792,1.195792 1.1956959,1.1956959 0 0 1 -1.195792,1.195793 1.1956959,1.1956959 0 0 1 -1.195276,-1.195793 1.1956959,1.1956959 0 0 1 1.195276,-1.195792 z m 11.421008,0.29869 -0.177767,0.0062 c -0.105372,0.385265 -0.22411,0.765991 -0.356051,1.141015 V 76.2863 c 0.204365,-0.533693 0.383664,-1.078372 0.533818,-1.633492 z m -33.2046916,1.20096 -0.051676,0.0021 a 1.1956959,1.1956959 0 0 1 -0.053743,0.160714 c 0.9536976,2.326201 2.4621256,4.37909 4.3754436,5.997566 l 0.09715,-0.141076 C 10.749147,80.249307 9.2366384,78.186321 8.2961344,75.853768 Z m -2.3259562,0.09095 -0.032039,0.001 c 1.0694056,3.053583 2.9940439,5.729754 5.4983718,7.770068 l 0.09147,-0.12764 C 9.20141,81.683646 7.3810982,79.229309 6.2926392,76.432544 a 1.1956959,1.1956959 0 0 1 -0.322461,-0.487826 z m 1.8732707,0.533301 a 1.1956959,1.1956959 0 0 1 -0.1348755,0.09354 c 1.0056694,2.320932 2.5578276,4.364623 4.4942996,5.991882 l 0.09715,-0.141077 C 10.375594,80.806774 8.8324888,78.77778 7.8434489,76.478019 Z m -0.8056356,0.260966 c 1.0550359,2.481691 2.7166402,4.659321 4.8084917,6.379973 l 0.08372,-0.14056 C 9.8891802,81.296891 8.2646027,79.161881 7.2119629,76.739502 a 1.1956959,1.1956959 0 0 1 -0.1219564,0.0062 1.1956959,1.1956959 0 0 1 -0.052193,-0.0067 z m -2.9615763,0.01085 c 0.5165371,1.43127 1.1846324,2.788581 1.984375,4.052983 a 1.1956959,1.1956959 0 0 1 0.9601481,1.172021 1.1956959,1.1956959 0 0 1 -0.01757,0.19482 c 2.28532,3.048147 5.3798829,5.445668 8.9488079,6.882268 a 1.1956959,1.1956959 0 0 1 -0.01033,-0.077 1.1956959,1.1956959 0 0 1 0.30179,-0.781865 C 11.123301,86.113786 7.0304,81.962702 5.049821,76.749837 Z m 34.228402,0.05581 c -0.776335,1.575248 -1.823203,3.012495 -3.080949,4.247286 l 0.107487,0.133325 c 1.242292,-1.216247 2.278534,-2.626914 3.056144,-4.174422 h -0.08268 z m 0.628902,0.206189 c -0.822137,1.695769 -1.947899,3.238941 -3.314527,4.562512 l 0.107487,0.133842 c 1.401334,-1.358541 2.553748,-2.94725 3.393592,-4.696354 z m 0.764294,0 c -0.883446,1.905321 -2.127892,3.632708 -3.655591,5.090128 l 0.107487,0.133326 c 1.556853,-1.496386 2.827058,-3.266464 3.724838,-5.223454 z m 0.787549,0 c -0.939272,2.130191 -2.307229,4.055492 -4.004407,5.668904 l 0.100253,0.120923 c 1.740679,-1.64237 3.137342,-3.610513 4.088639,-5.789827 z m -7.28431,4.41265 -0.612882,0.502295 1.866552,2.277381 -0.789615,0.646989 0.452168,0.551387 2.190048,-1.795239 -0.451652,-0.551388 -0.788066,0.645956 z m -19.057751,0.289905 -0.433566,0.68678 -0.116271,0.195854 -0.08423,0.12609 -0.252698,0.399459 -0.07751,0.132808 -0.258383,0.413412 -0.08423,0.132808 -0.284737,0.448552 -0.07752,0.132808 -0.362252,0.574642 0.994255,0.621151 0.444934,-0.379305 0.12609,-0.106971 0.411345,-0.357084 0.126607,-0.100769 0.378271,-0.328662 0.126091,-0.10697 0.37207,-0.31471 0.119373,-0.10697 0.03979,-0.03566 0.01395,0.0062 -0.01189,0.04806 -0.04237,0.159163 -0.112655,0.476457 -0.03514,0.158647 -0.12609,0.490926 -0.04237,0.158646 -0.310058,1.25057 1.000972,0.620634 1.65623,-2.654618 0.382405,-0.589112 -0.756543,-0.47904 -0.439766,0.714168 -0.873332,1.39423 -0.01395,-0.0067 0.272851,-1.152901 0.03514,-0.158647 0.077,-0.331246 0.206706,-0.904337 -0.51108,-0.316777 -0.744657,0.608749 -0.226343,0.179317 -0.119373,0.10697 -0.378788,0.301274 -0.119373,0.10697 -0.385506,0.315226 -0.02687,0.01499 -0.0072,-0.0067 0.0057,-0.02739 0.259416,-0.406694 0.08372,-0.133325 0.24598,-0.398942 0.08423,-0.132808 0.135909,-0.210323 0.472323,-0.756543 z m 18.033524,0.38654 -0.809769,0.38809 0.107487,0.727604 -1.259872,0.604097 -0.503328,-0.537951 -0.80977,0.38809 2.827218,2.921785 0.960665,-0.460437 z m -14.141772,1.778703 0.04651,0.90227 0.161747,3.135726 0.463021,0.120406 0.0067,-5.17e-4 0.463537,0.127124 1.737362,-2.671154 0.473356,-0.722437 -0.912089,-0.240812 -0.40721,0.665076 -1.105876,-0.288355 -0.0217,-0.779281 z m 13.545943,0.07958 0.237712,1.5875 -1.093474,-1.177189 z m -3.911389,0.19327 -2.458248,0.541052 0.187585,0.841809 0.640271,2.913518 1.584917,-0.34985 a 1.1956959,1.1956959 0 0 1 0.805635,-0.319877 1.1956959,1.1956959 0 0 1 0.03256,0.0015 l -0.119372,-0.537951 -1.58905,0.345198 -0.179834,-0.808219 1.32395,-0.294556 -0.147278,-0.665592 -1.324467,0.287838 -0.15658,-0.726571 -0.04186,-0.217558 1.582333,-0.345198 z m -5.989299,0.587044 -0.01654,0.856796 -0.05581,2.986381 1.397848,0.03152 c 0.451949,0.0041 0.836884,-0.140155 1.14825,-0.425297 0.304528,-0.284891 0.46215,-0.660278 0.47284,-1.119311 l 0.0155,-0.698666 c 0.01056,-0.2742 -0.03963,-0.519168 -0.150379,-0.74104 -0.06675,-0.141328 -0.160428,-0.274424 -0.28112,-0.393257 -0.298566,-0.304031 -0.666997,-0.454915 -1.126029,-0.465605 z m 0.8816,0.707451 0.506946,0.0088 c 0.191917,0.0067 0.344831,0.0768 0.473356,0.222725 0.0074,0.01341 0.02154,0.02636 0.02894,0.03979 0.129528,0.17327 0.185068,0.38361 0.180868,0.643888 l -0.01602,0.691948 c -0.0045,0.253445 -0.08537,0.468373 -0.20929,0.63717 -0.131261,0.155374 -0.306378,0.23733 -0.504878,0.237712 l -0.514181,-0.0155 0.04858,-2.247408 z m -3.58066,0.171049 0.705384,0.193786 -0.659908,1.0573 -0.0072,-0.0062 z m -0.656807,3.288171 a 1.1956959,1.1956959 0 0 1 0.0088,0.06873 1.1956959,1.1956959 0 0 1 -0.29869,0.788582 c 2.044024,0.58002 4.21017,0.856399 6.444568,0.775147 1.221093,-0.0444 2.413763,-0.194045 3.570325,-0.438216 a 1.1956959,1.1956959 0 0 1 -0.756543,-0.772563 c -0.927584,0.168028 -1.877867,0.273271 -2.846855,0.308508 -2.122037,0.07717 -4.179343,-0.182936 -6.12159,-0.730188 z" /><g
       id="_x37__1_"
       transform="matrix(0.26458333,0,0,0.26458333,-226.7691,-105.83333)">
</g><g
       id="_x36__1_"
       transform="matrix(0.26458333,0,0,0.26458333,-226.7691,-105.83333)">
</g><g
       id="_x35__1_"
       transform="matrix(0.26458333,0,0,0.26458333,-226.7691,-105.83333)">
</g><g
       id="_x34__1_"
       transform="matrix(0.26458333,0,0,0.26458333,-226.7691,-105.83333)">
</g><g
       id="_x33__1_"
       transform="matrix(0.26458333,0,0,0.26458333,-226.7691,-105.83333)">
</g><g
       id="_x32__1_"
       transform="matrix(0.26458333,0,0,0.26458333,-226.7691,-105.83333)">
</g><g
       id="_x31_"
       transform="matrix(0.26458333,0,0,0.26458333,-226.7691,-105.83333)">
</g><path
       style="font-variation-settings:'wght' 600;display:inline;fill:#f91111;fill-opacity:0.467577;fill-rule:evenodd;stroke-width:0.79375;stroke-linecap:round;stroke-opacity:0.556701"
       d="M 95.716997,0.05000008 V 95.259997"
       id="path26030" /><path
       style="font-variation-settings:'wght' 600;display:inline;fill:#f91111;fill-opacity:0.467577;fill-rule:evenodd;stroke-width:0.79375;stroke-linecap:round;stroke-opacity:0.556701"
       d="M 95.716997,95.259997 H 0.05000115"
       id="path26028" /><path
       style="font-variation-settings:'wght' 600;display:inline;fill:#f91111;fill-opacity:0.467577;fill-rule:evenodd;stroke-width:0.79375;stroke-linecap:round;stroke-opacity:0.556701"
       d="M 0.05000115,95.259997 V 0.05000008"
       id="path26026" /></g><style
     type="text/css"
     id="style2">
	.st0{fill:#981B1F;}
	.st1{fill-rule:evenodd;clip-rule:evenodd;fill:#981B1F;}
	.st2{fill:#FFFFFF;}
	.st3{fill:none;}
	.st4{fill:none;stroke:#8A1919;stroke-width:5;stroke-miterlimit:10;}
</style></svg>
