<?xml version="1.0" encoding="UTF-8" standalone="no"?>
<!-- Created with Inkscape (http://www.inkscape.org/) -->

<svg
   width="41.756393mm"
   height="41.756382mm"
   viewBox="0 0 41.756394 41.756382"
   version="1.1"
   id="svg137075"
   xml:space="preserve"
   sodipodi:docname="v3-madeatlogo.svg"
   inkscape:version="1.2.1 (9c6d41e410, 2022-07-14)"
   xmlns:inkscape="http://www.inkscape.org/namespaces/inkscape"
   xmlns:sodipodi="http://sodipodi.sourceforge.net/DTD/sodipodi-0.dtd"
   xmlns="http://www.w3.org/2000/svg"
   xmlns:svg="http://www.w3.org/2000/svg"><sodipodi:namedview
     id="namedview137077"
     pagecolor="#ffffff"
     bordercolor="#666666"
     borderopacity="1.0"
     inkscape:showpageshadow="2"
     inkscape:pageopacity="0.0"
     inkscape:pagecheckerboard="0"
     inkscape:deskcolor="#d1d1d1"
     inkscape:document-units="mm"
     showgrid="false"
     inkscape:zoom="8.1858385"
     inkscape:cx="115.26003"
     inkscape:cy="103.04381"
     inkscape:window-width="3840"
     inkscape:window-height="2050"
     inkscape:window-x="-12"
     inkscape:window-y="-12"
     inkscape:window-maximized="1"
     inkscape:current-layer="svg137075" /><defs
     id="defs137072">
	
	
	
	
	
	
	
	
	
</defs><path
     id="path943"
     style="font-style:normal;font-variant:normal;font-weight:bold;font-stretch:normal;font-size:67.2194px;line-height:1.25;font-family:sans-serif;-inkscape-font-specification:'sans-serif Bold';letter-spacing:0px;word-spacing:0px;display:inline;fill:#981b1f;fill-opacity:1;stroke:none;stroke-width:3.54529"
     d="M -397.09613 169.60984 C -399.32316 171.10978 -401.58533 172.58769 -403.87002 174.0479 C -549.91663 267.3906 -759.36417 243.47545 -870.45906 120.76608 C -884.81433 104.91004 -896.81675 88.167593 -906.56186 70.837904 L -903.73144 73.741289 L -876.55239 55.036534 L -878.66214 52.872387 L -865.66252 44.570436 A 17.56818 14.760905 4.8883285e-05 0 0 -858.8028 42.821184 A 17.56818 14.760905 4.8883285e-05 0 0 -853.99139 37.1022 L -813.93241 11.502578 C -824.02318 -15.14396 -826.74128 -43.094008 -822.3607 -70.172398 C -820.01922 -84.500408 -815.70709 -98.621859 -809.49598 -112.21522 C -807.9328 -113.87342 -806.94154 -115.60004 -806.93882 -117.59116 C -798.73013 -134.0253 -787.66508 -149.59904 -773.84734 -163.7352 L -764.13934 -153.77691 C -760.49759 -150.04127 -753.82251 -149.60804 -749.17438 -152.80691 L -748.92573 -152.97803 C -744.27763 -156.17688 -743.46844 -161.76081 -747.11019 -165.49645 L -758.87573 -177.56531 C -754.67548 -181.0727 -750.28815 -184.4669 -745.69697 -187.72698 L -733.29433 -175.00459 C -729.65258 -171.26895 -722.97752 -170.83572 -718.32938 -174.03459 L -718.08073 -174.20571 C -713.4326 -177.40457 -712.62344 -182.98849 -716.26519 -186.72413 L -728.19261 -198.95906 C -722.12906 -202.46974 -715.91443 -205.69205 -709.58435 -208.6326 L -699.48469 -198.27255 C -695.84294 -194.53691 -689.16785 -194.10369 -684.51973 -197.30255 L -684.27108 -197.47367 C -679.62297 -200.67252 -678.81379 -206.25645 -682.45554 -209.99209 L -689.2548 -216.96664 C -683.44066 -219.04754 -677.55718 -220.90789 -671.61109 -222.54825 L -668.63968 -219.50023 C -664.99793 -215.76459 -658.32284 -215.33137 -653.67472 -218.53023 L -653.42608 -218.70135 C -650.1368 -220.96505 -649.55209 -224.28979 -650.32429 -227.44164 C -624.48147 -232.23831 -597.96908 -233.09022 -572.12092 -230.10823 C -539.8926 -226.42763 -508.50283 -216.79964 -480.58386 -201.54758 L -399.91353 -253.10906 C -474.77388 -306.23667 -574.23872 -326.68809 -668.10397 -311.00512 C -668.22932 -312.89966 -668.61413 -314.85044 -670.18686 -316.46371 L -670.38531 -316.66727 C -674.19245 -320.57257 -680.83848 -321.25249 -685.28452 -318.19271 L -701.80362 -306.82418 C -703.1885 -305.8711 -703.47859 -304.42238 -704.08874 -303.10338 C -737.19838 -294.07418 -769.08271 -280.31884 -798.31624 -261.63484 C -871.74971 -214.70134 -914.0633 -145.96659 -922.26546 -74.249452 C -925.48869 -74.964818 -928.92534 -74.830654 -931.79448 -72.856098 L -932.03676 -72.689365 C -936.68489 -69.490495 -937.49392 -63.906448 -933.8523 -60.170946 L -923.73174 -49.78947 C -923.90906 -20.334555 -918.34369 9.2582717 -906.82857 37.715837 L -918.82739 45.973484 C -966.56971 -65.895331 -925.3475 -195.64561 -807.03248 -271.26423 C -660.81221 -364.71792 -451.67682 -340.8333 -340.44982 -217.97802 C -231.09079 -97.185999 -256.79331 75.113868 -397.09613 169.60984 z M -406.37111 160.34708 C -277.4442 73.692221 -249.38097 -81.715603 -339.85191 -196.36179 L -374.30427 -174.3432 A 20.668445 17.365769 4.8883285e-05 0 0 -376.93428 -178.49439 A 20.668445 17.365769 4.8883285e-05 0 0 -406.0214 -180.9249 A 20.668445 17.365769 4.8883285e-05 0 0 -408.1282 -177.62219 C -408.2396 -178.28114 -408.33003 -178.86337 -408.46058 -179.61322 C -409.6462 -186.42285 -409.3535 -187.8275 -406.36632 -189.7367 C -403.47702 -191.58335 -401.46293 -191.39037 -394.05638 -188.55063 C -382.08927 -183.96232 -381.29997 -183.94029 -374.82749 -188.0805 C -370.00743 -191.16371 -368.82264 -192.85866 -369.2156 -196.05996 C -369.43169 -197.82066 -370.08125 -198.60779 -386.28992 -216.51401 C -404.94422 -237.12184 -404.53353 -236.75591 -409.07145 -236.49531 C -413.50758 -236.24054 -416.85874 -232.32121 -415.9897 -228.41343 C -415.63196 -226.80483 -414.47912 -225.34506 -407.0004 -217.08335 C -401.44985 -210.9517 -398.2955 -207.15877 -398.07586 -206.34421 C -397.44659 -204.01005 -399.96075 -201.31171 -403.16751 -200.8799 C -405.98818 -200.50011 -407.59829 -201.81796 -416.8042 -211.98326 C -424.73434 -220.73973 -425.57862 -221.5489 -427.42387 -222.1555 C -432.72518 -223.89823 -438.55336 -220.0503 -438.14024 -215.08477 C -438.02322 -213.67811 -436.99152 -212.35036 -428.86469 -203.15508 L -419.72411 -192.80628 L -419.99731 -191.1414 C -420.31536 -189.17539 -421.3638 -188.07724 -423.71398 -187.24991 C -426.95849 -186.10778 -427.54625 -186.5306 -437.6336 -197.39774 C -445.62908 -206.01134 -447.01687 -207.33252 -448.73772 -207.9795 C -452.77835 -209.49867 -457.81802 -207.77928 -459.42383 -204.33086 C -460.99548 -200.95588 -461.30723 -201.39846 -442.45871 -180.5794 C -423.38525 -159.51191 -424.2496 -160.2556 -419.4819 -160.81304 C -417.52238 -161.04206 -416.26377 -161.59507 -412.99286 -163.68561 C -412.5357 -163.97779 -412.18082 -164.22068 -411.78612 -164.48029 A 20.668445 17.365769 4.8883285e-05 0 0 -408.91414 -156.4857 A 20.668445 17.365769 4.8883285e-05 0 0 -405.00013 -154.72188 L -416.13803 -147.60272 C -385.75098 -108.75061 -374.82643 -63.204074 -381.76792 -19.855001 C -382.51535 -15.326759 -383.45522 -10.82088 -384.59061 -6.3480834 C -388.32033 -7.9689028 -392.61606 -8.3524854 -396.00833 -6.0179084 L -405.1254 0.25649908 C -409.71849 3.4174865 -410.31135 9.153702 -406.44842 13.11622 C -402.64869 17.013914 -396.02923 17.608048 -391.44137 14.621144 C -400.57858 37.384757 -414.95394 58.829687 -434.36677 77.548786 C -431.95738 74.331355 -431.45626 70.284209 -434.55908 67.10139 C -438.42201 63.138872 -445.22582 62.493083 -449.81891 65.654071 L -458.94235 71.932866 C -463.53543 75.093845 -464.12193 80.825681 -460.259 84.788199 C -456.39608 88.750717 -449.58703 89.401854 -444.99395 86.240875 L -440.19952 82.941326 C -448.48747 90.327754 -457.59141 97.250636 -467.5217 103.59738 C -479.91167 111.51617 -492.98553 118.1669 -506.51331 123.59324 C -506.62461 121.66238 -506.99382 119.67999 -508.58582 118.04695 C -512.44875 114.08443 -519.25256 113.43864 -523.84565 116.59963 L -532.96909 122.87842 C -536.66785 125.42392 -536.99253 129.49901 -535.26392 133.11307 C -566.81364 141.47326 -599.89793 143.71062 -632.0077 140.08083 C -647.78676 138.27879 -663.34327 135.03535 -678.39195 130.40871 L -666.02972 121.90096 L -686.98105 100.40949 L -695.04615 105.95992 A 16.534756 13.892615 4.8883285e-05 0 0 -696.71517 90.424413 A 16.534756 13.892615 4.8883285e-05 0 0 -719.98545 88.475039 A 16.534756 13.892615 4.8883285e-05 0 0 -722.30033 108.03224 A 16.534756 13.892615 4.8883285e-05 0 0 -704.48837 112.4581 L -711.73101 117.44253 C -732.91237 107.33578 -752.40941 94.160552 -769.19003 78.040767 L -845.73524 126.96024 C -800.25092 170.9685 -740.69922 199.69325 -676.99503 212.01771 L -675.9036 213.13728 L -674.87713 212.43086 C -586.43029 229.01299 -490.20337 214.02588 -412.58626 164.41851 C -410.48905 163.07812 -408.41757 161.72255 -406.37111 160.34708 z M -409.74971 145.45106 C -415.28229 149.33261 -421.4238 151.17856 -428.12596 150.7402 C -434.84891 150.43029 -440.58746 147.87951 -445.36008 143.21354 L -452.5502 136.17681 C -455.51871 133.35216 -457.37536 130.39837 -458.25254 127.15845 C -458.77112 125.07146 -458.96389 122.89076 -458.76352 120.68966 C -458.15496 115.00296 -455.04807 110.25153 -449.58154 106.29703 L -441.84118 100.71946 C -441.57649 102.3884 -441.42332 104.10949 -440.044 105.52437 C -436.18108 109.48688 -429.37725 110.13266 -424.78417 106.97169 L -421.64101 104.80855 L -392.74469 133.19318 L -409.74971 145.45106 z M -448.98572 169.49079 L -484.60571 184.65113 L -489.5977 176.55812 L -466.50326 166.63455 L -472.45841 156.73398 L -491.70252 165.00127 L -496.67952 156.78158 L -477.43541 148.51429 L -482.8512 139.64781 L -484.3158 137.12917 L -488.33888 138.85959 C -488.36077 138.83672 -488.34864 138.80587 -488.37082 138.78311 C -492.23375 134.8206 -499.04278 134.16945 -503.63587 137.33044 L -510.45136 142.02089 L -512.38086 138.82867 L -476.73951 123.53726 L -470.45883 133.80454 L -448.98572 169.49079 z M -367.13358 108.1921 L -412.77893 96.087062 C -411.83173 93.290316 -411.93369 90.310093 -414.34408 87.837557 C -416.48333 85.643156 -419.48308 84.728768 -422.55226 84.652104 L -419.97966 81.619581 L -408.22841 85.051887 L -397.51026 72.672152 L -405.12911 64.408847 L -396.39786 54.219976 L -387.92049 63.888456 L -358.20997 97.763441 L -362.70572 102.94295 L -367.13358 108.1921 z M -416.87832 138.48836 L -410.62978 134.03592 L -434.07606 111.01237 L -436.20962 108.80195 L -442.39142 113.33377 C -444.7566 114.96059 -445.93622 116.9822 -445.95932 119.53061 C -446.08772 119.84301 -446.04223 120.04442 -445.99713 120.24584 C -445.75595 123.08606 -444.4053 125.79483 -441.72176 128.4561 L -434.46375 135.56248 C -431.801 138.3522 -428.77888 139.87344 -425.43634 140.386 C -422.18063 140.95405 -419.41714 140.22616 -416.87832 138.48836 z M -333.58266 66.824836 L -380.84378 53.379277 L -391.38528 50.215352 L -386.82973 38.890292 L -374.25497 42.489818 L -366.54845 44.668949 C -368.55229 47.818684 -368.95673 51.574486 -366.02364 54.583198 C -362.16071 58.545716 -355.35052 59.187117 -350.75743 56.02613 L -341.64037 49.751722 C -339.83044 48.506123 -339.15371 46.700702 -338.61491 44.921716 L -327.50385 51.882607 L -333.58266 66.824836 z M -378.46589 93.551603 L -378.35641 93.368853 L -390.46597 80.14938 L -397.29842 88.19907 L -378.46589 93.551603 z M -542.8077 199.61716 L -559.60822 201.73635 L -588.90902 153.16873 L -574.74894 151.38984 L -569.65612 160.26378 L -547.62457 157.48936 L -545.79796 147.74699 L -531.6315 145.96371 L -542.8077 199.61716 z M -318.43171 29.957456 L -327.7553 29.813118 L -330.30904 29.717819 L -339.01388 29.639944 L -341.62914 29.470619 L -349.63872 29.406556 L -352.25398 29.23723 L -360.02469 29.134082 L -361.97128 29.104278 L -361.85015 29.020911 C -358.67853 26.838187 -358.18101 23.526914 -358.97564 20.32067 L -356.73679 20.355213 L -349.10071 20.30934 L -346.54696 20.404639 L -338.52238 20.342024 L -338.14888 20.45196 L -338.04463 20.263854 L -338.47442 20.085248 L -345.7848 18.072072 L -348.16611 17.41057 L -355.22602 15.359277 L -357.55105 14.766444 L -361.42113 13.670553 L -374.88843 9.8439123 L -370.24477 -1.5328309 L -358.13162 2.0084428 L -354.62981 2.9997543 L -352.33138 3.7182969 L -345.18859 5.712549 L -342.95167 6.3570655 L -335.36227 8.5362492 L -333.13173 9.1851534 L -324.95017 11.55651 L -322.72485 12.200057 L -312.44215 15.076654 L -318.43171 29.957456 z M -553.35017 188.69363 L -549.45513 167.41345 L -564.42462 169.30185 L -553.35017 188.69363 z M -583.15686 203.32611 L -628.29298 202.15747 L -627.94139 192.60676 L -611.69937 193.02905 L -610.25321 153.59942 L -597.61911 153.9269 L -599.07164 193.36092 L -582.80005 193.78076 L -583.15686 203.32611 z M -354.30981 35.127424 C -354.70734 35.333469 -355.21746 35.188178 -355.58877 35.443713 L -362.99718 40.542217 L -364.30878 39.699476 L -366.34552 38.353302 L -370.6279 35.446683 L -370.91621 35.260217 L -362.86386 29.718555 L -360.86489 30.938562 L -354.6538 34.916624 L -354.30981 35.127424 z M -315.94116 -15.624022 L -318.66992 -16.467091 C -312.74806 -63.862658 -321.54706 -114.34536 -345.50031 -162.34642 L -343.18822 -163.82125 C -318.70055 -115.07489 -309.78666 -63.847565 -315.94116 -15.624022 z M -328.21075 -19.872149 L -331.17791 -20.828626 C -325.85298 -64.853781 -333.84542 -111.64563 -355.36023 -156.17837 L -353.13625 -157.60152 C -331.09798 -112.18061 -322.91984 -64.554847 -328.21075 -19.872149 z M -642.87163 193.32245 C -646.63827 192.80078 -650.4022 192.22196 -654.16195 191.58685 L -657.01326 188.66204 C -652.38349 189.48275 -647.74566 190.25099 -643.10572 190.8968 L -642.87163 193.32245 z M -463.68124 68.776522 C -461.53445 67.404448 -460.89663 65.111561 -461.8044 63.161677 L -456.08551 59.225912 C -451.49242 56.064925 -450.90594 50.333098 -454.76886 46.370579 C -458.63179 42.408062 -465.4356 41.762273 -470.02869 44.92326 L -479.15214 51.202055 C -480.10063 51.854812 -480.13112 52.897823 -480.73408 53.731825 L -488.38223 48.585629 L -469.82932 35.817429 L -468.55507 34.501899 L -467.98671 32.866601 L -468.20062 31.161017 L -469.1688 29.643349 L -475.9785 22.658083 C -470.07499 15.364071 -472.59116 6.6051408 -477.23517 0.96711959 C -484.69876 -7.2767318 -500.27408 -7.6801764 -507.57144 -3.476894 L -521.25944 -18.599618 L -518.38406 -20.578469 L -533.43434 -36.016763 L -509.40405 -51.373026 C -511.42994 -53.685719 -513.47011 -55.984144 -515.50745 -58.289432 C -514.86011 -58.687505 -514.21956 -59.096968 -513.58949 -59.501971 C -492.60372 -73.002471 -480.95956 -90.392461 -466.36583 -110.20728 C -455.61906 -108.78372 -444.24161 -113.17304 -438.35725 -122.11648 C -430.85505 -133.3608 -435.06923 -147.24883 -447.66313 -153.13508 L -450.32902 -149.11643 C -450.59357 -151.1275 -450.9629 -153.5162 -451.46169 -156.61633 L -453.58672 -169.83305 L -464.12428 -181.2433 L -474.66821 -192.64916 L -476.66715 -192.92936 C -479.3565 -193.30795 -481.47667 -191.9532 -481.76082 -189.6745 C -481.96371 -188.04733 -481.73672 -187.70025 -476.23513 -181.24167 C -470.59748 -174.62339 -470.49802 -174.45969 -470.34249 -172.04995 C -470.15106 -169.08429 -472.21867 -165.22082 -474.92072 -163.50191 C -477.76779 -161.69148 -482.69461 -161.00353 -485.95495 -161.95879 C -488.65377 -162.74953 -488.85919 -162.91407 -494.93756 -169.23879 C -500.90434 -175.44738 -501.24052 -175.72205 -503.16254 -175.99296 C -505.85263 -176.37215 -507.97778 -175.02282 -508.26143 -172.74346 L -508.46849 -171.04353 L -498.10647 -159.38716 L -487.73285 -147.72983 L -473.51901 -142.59102 C -457.95338 -136.96337 -456.22908 -136.65646 -452.74619 -138.88708 C -451.40173 -139.74814 -450.56825 -140.45511 -450.17062 -141.79634 C -446.00035 -137.9243 -445.13214 -131.94053 -448.41327 -126.85866 C -450.78214 -123.33297 -454.65725 -121.03851 -458.8586 -120.29669 L -493.81116 -97.960705 C -496.28004 -94.375023 -498.87678 -90.849814 -501.81278 -87.504208 C -504.28238 -83.535881 -510.43845 -77.078681 -523.6447 -67.466972 C -525.80791 -69.893895 -527.96345 -72.321954 -530.13277 -74.74519 L -558.78839 -56.42952 A 16.534756 13.892615 4.8883285e-05 0 0 -572.33978 -54.004392 A 16.534756 13.892615 4.8883285e-05 0 0 -578.11162 -44.079959 L -650.26623 2.0327075 C -648.12442 4.366184 -645.98485 6.7000925 -643.84502 9.0347151 C -675.62905 26.851195 -689.03984 26.470262 -689.03984 26.470262 L -720.72338 46.717595 C -722.39669 50.60518 -726.42742 53.823452 -731.79329 54.944611 C -737.75981 56.164128 -743.7252 54.402692 -747.30592 50.833893 L -741.16721 46.913527 L -782.95769 0.75642573 L -825.862 28.179957 L -817.58503 37.315046 L -785.55837 16.840522 L -777.76882 25.442839 L -770.03907 20.499117 L -760.35843 31.183344 L -768.09978 36.126097 L -760.31023 44.728414 L -792.34211 65.197581 L -784.07152 74.337058 L -757.01216 57.039388 C -750.62641 63.437978 -739.85285 66.589351 -729.03056 64.356999 C -717.26783 61.906497 -709.19583 53.861024 -707.89412 44.8521 C -686.83436 39.688215 -668.01314 35.599905 -650.62724 27.495326 L -635.78585 42.719348 L -610.20706 25.115905 L -616.80788 18.344912 A 16.534756 13.892615 4.8883285e-05 0 0 -598.323 16.937237 A 16.534756 13.892615 4.8883285e-05 0 0 -594.08474 2.7514927 L -586.41874 -2.1483525 L -577.43848 7.7737286 L -593.75929 18.209177 L -575.13494 38.777988 C -584.3596 44.788914 -585.8376 56.328485 -578.30799 64.645291 C -574.27138 69.103907 -568.96651 71.97375 -563.21439 72.642582 L -579.85463 84.094473 L -581.12888 85.410003 L -581.70246 87.039944 L -581.48855 88.745528 L -580.51515 90.268553 L -571.17792 99.846509 L -569.59768 100.94296 L -567.64961 101.45509 L -565.62949 101.30898 L -563.84347 100.51842 L -543.85606 86.762986 L -542.58181 85.447455 L -542.01345 83.812157 L -542.22736 82.106573 L -543.19554 80.588905 L -552.32389 71.225221 C -550.80665 70.643735 -549.28842 69.908602 -547.78913 68.98155 L -542.70364 74.602473 L -522.73356 61.8346 L -522.94523 76.140306 L -521.70434 76.145585 L -505.93733 82.65905 C -505.86385 83.64861 -505.54763 84.597021 -504.82108 85.399519 C -502.90564 87.515195 -499.24433 87.936218 -496.72627 86.326859 C -494.12141 84.662007 -493.70598 81.631486 -495.62142 79.515807 C -497.53684 77.400128 -501.20456 76.983497 -503.7226 78.592855 C -504.15676 78.870331 -504.43592 79.165673 -504.80401 79.516102 L -517.88031 74.167275 L -517.75879 58.5452 L -499.27138 46.726093 L -497.15118 48.900953 L -495.57094 49.997403 L -493.62287 50.509533 L -492.56585 50.435484 L -482.77943 57.010143 C -483.14563 59.442707 -482.50076 61.973028 -480.46878 64.057388 C -478.31727 66.264374 -475.29897 67.16282 -472.21191 67.227229 C -472.07791 67.439391 -471.95808 67.659538 -471.78241 67.85357 C -469.86698 69.969249 -466.19927 70.385877 -463.68124 68.776522 z M -539.23569 116.45026 L -530.11225 110.17147 C -525.51916 107.01048 -524.93267 101.27865 -528.7956 97.316135 C -532.65853 93.353618 -539.46234 92.707829 -544.05543 95.868816 L -553.17887 102.14761 C -557.77197 105.3086 -558.35845 111.04043 -554.49552 115.00294 C -550.6326 118.96546 -543.82878 119.61125 -539.23569 116.45026 z M -339.91932 -23.665002 L -342.89286 -24.617092 C -338.30971 -65.586836 -345.55906 -108.78166 -364.95809 -150.04747 L -362.56312 -151.57934 C -342.72951 -109.36856 -335.28131 -65.349095 -339.91932 -23.665002 z M -644.20619 182.08583 C -651.95193 180.99239 -659.6834 179.61601 -667.3897 178.01808 L -670.47078 174.85757 C -661.90524 176.72374 -653.30053 178.30674 -644.68389 179.54141 L -644.20619 182.08583 z M -351.20122 -27.599337 L -354.17475 -28.551427 C -350.26645 -66.236832 -356.7524 -106.10901 -373.93576 -144.30758 L -371.71177 -145.73073 C -353.91608 -106.70081 -347.14915 -66.055887 -351.20122 -27.599337 z M -645.78482 171.82274 C -657.55402 170.03732 -669.29464 167.63409 -680.94144 164.66333 A 16.534756 13.892615 4.8883285e-05 0 0 -681.00388 164.0529 A 16.534756 13.892615 4.8883285e-05 0 0 -685.67033 160.82881 C -672.57748 164.35022 -659.35613 167.15284 -646.09038 169.15985 L -645.78482 171.82274 z M -647.19586 161.57857 C -692.38719 154.59492 -737.10976 138.21237 -777.21609 113.44184 L -774.99211 112.01869 C -735.6759 136.07148 -691.76465 152.02682 -647.4962 158.92104 L -647.19586 161.57857 z M -415.78999 -1.3726948 L -395.80258 -15.128127 L -394.5347 -16.439269 L -393.95997 -18.078955 L -394.17388 -19.784539 L -395.14206 -21.302207 L -404.47929 -30.880163 L -406.06475 -31.981969 L -408.01282 -32.4941 L -410.03409 -32.338248 L -411.81374 -31.552071 L -431.80115 -17.796639 L -433.0754 -16.481109 L -433.65536 -14.84678 L -433.44145 -13.141196 L -432.46167 -11.622559 L -423.12444 -2.0446028 L -421.55058 -0.94376572 L -419.60251 -0.43163527 L -417.57601 -0.58213056 L -415.78999 -1.3726948 z M -674.75083 176.43366 C -676.44055 176.04735 -678.12702 175.62884 -679.81317 175.21846 A 16.534756 13.892615 4.8883285e-05 0 0 -680.0868 172.63205 C -677.39177 173.29522 -674.69396 173.93273 -671.99021 174.53379 L -674.75083 176.43366 z M -707.69972 178.5763 C -741.98517 167.6593 -775.12082 151.96363 -805.58414 131.70281 L -803.36131 130.28941 C -773.87109 149.80729 -741.83743 165.02855 -708.71282 175.75588 A 16.534756 13.892615 4.8883285e-05 0 0 -707.69972 178.5763 z M -692.17457 159.0306 A 16.534756 13.892615 4.8883285e-05 0 0 -698.75786 159.63189 C -729.28591 150.17908 -758.89349 136.6615 -786.28186 119.23341 L -784.06425 117.81465 C -755.45551 135.95035 -724.28972 149.74906 -692.17457 159.0306 z M -707.58931 167.30296 C -738.37058 157.24355 -768.13765 143.15336 -795.61425 125.19952 L -793.47953 123.8378 C -766.17416 141.42054 -736.68899 155.27789 -706.23615 165.17231 A 16.534756 13.892615 4.8883285e-05 0 0 -707.58931 167.30296 z M -509.53269 24.026843 C -515.69755 27.966993 -524.67734 26.688768 -529.56499 21.290139 C -534.51869 15.818556 -533.52984 8.2762397 -527.36497 4.3360894 C -521.20011 0.395941 -512.2267 1.6785527 -507.33905 7.0771804 C -502.47218 12.604258 -503.45466 20.142189 -509.53269 24.026843 z M -542.2688 44.953811 C -548.43366 48.89396 -557.41229 47.605992 -562.29994 42.207363 C -567.25364 36.73578 -566.2648 29.193462 -560.09993 25.253313 C -553.93507 21.313164 -544.95643 22.601131 -540.06878 27.999761 C -535.11509 33.471346 -536.10393 41.013662 -542.2688 44.953811 z M -489.22137 -115.51218 C -487.99366 -116.34305 -487.09086 -117.47051 -486.73591 -118.798 C -485.75495 -122.46654 -485.68602 -122.37054 -503.37823 -141.91236 C -513.97261 -153.61434 -520.02561 -160.01702 -520.98714 -160.52163 C -522.75316 -161.44859 -525.65045 -161.92501 -527.29432 -161.56038 C -527.95497 -161.41386 -529.38533 -160.74495 -530.47502 -160.06956 C -532.16061 -159.02495 -532.53777 -158.42967 -533.01049 -156.11382 L -533.56655 -153.395 L -529.27573 -148.18491 C -525.20576 -143.25156 -524.98742 -142.88702 -525.25688 -141.22126 C -525.65812 -138.74111 -528.52887 -136.92151 -531.50574 -137.2609 C -533.5321 -137.49201 -533.87467 -137.74564 -538.11803 -142.05483 C -540.63917 -144.61506 -543.16837 -146.7989 -543.90301 -147.06011 C -548.49654 -148.69345 -553.79491 -146.70844 -554.79295 -142.97582 C -555.6831 -139.64668 -555.16339 -138.57621 -549.80648 -132.65923 C -543.09004 -125.24063 -542.31432 -124.98487 -536.351 -128.28741 C -532.51636 -130.41107 -529.76172 -130.66667 -527.11446 -129.13935 C -524.85055 -127.8332 -523.61964 -125.33561 -524.08885 -122.98693 C -524.35875 -121.63594 -525.0466 -120.88105 -527.91663 -118.75046 C -531.0458 -116.42749 -531.42351 -115.97023 -531.53675 -114.38838 C -531.65765 -112.69983 -531.43893 -112.37408 -526.6038 -107.03344 C -522.1127 -102.07281 -521.29117 -101.35309 -519.29231 -100.62623 C -518.05392 -100.17588 -516.20985 -99.88711 -515.18652 -99.987922 C -512.81095 -100.222 -509.69349 -102.20445 -508.79625 -104.05456 C -507.4773 -106.77423 -508.14707 -108.51361 -512.59543 -113.86354 C -516.54498 -118.61355 -516.64598 -118.79542 -516.21454 -120.49364 C -515.61331 -122.86028 -512.96861 -124.54604 -510.09495 -124.40084 C -508.02413 -124.29621 -507.87494 -124.19053 -503.28835 -119.51686 C -499.68691 -115.84714 -498.22718 -114.63242 -496.99471 -114.30671 C -494.21368 -113.57176 -491.26757 -114.12745 -489.22137 -115.51218 z M -576.46942 -58.349778 L -618.2599 -104.50688 L -629.12595 -97.556903 L -613.07104 -79.820466 L -605.34128 -84.764188 L -595.66064 -74.079961 L -603.40199 -69.137208 L -587.34707 -51.400771 L -576.46942 -58.349778 z M -537.64204 -85.71542 C -535.84839 -87.025137 -535.43695 -87.596175 -535.01764 -88.443468 C -533.19074 -92.1351 -532.9176 -91.75285 -551.72015 -112.28616 C -567.90156 -129.95705 -568.59306 -130.65037 -570.36248 -131.07035 C -571.37291 -131.31049 -572.95957 -131.4456 -573.88704 -131.3747 C -575.31175 -131.26582 -577.56879 -129.97737 -588.42327 -123.05353 C -601.01645 -115.02068 -601.28403 -114.82089 -602.03466 -112.9969 C -603.7087 -108.92925 -601.24844 -105.27396 -596.26767 -104.42582 C -593.09566 -103.88567 -590.7397 -104.63158 -585.91764 -107.7089 C -582.55847 -109.85282 -582.01489 -110.05218 -580.16628 -109.84107 C -577.44153 -109.5299 -575.96948 -108.45734 -575.29841 -106.29016 C -574.5124 -103.75174 -575.88978 -101.99603 -581.41314 -98.465879 C -586.39492 -95.281878 -587.22417 -94.115791 -586.41974 -91.493731 C -585.8195 -89.536937 -584.36271 -88.485797 -581.8553 -88.199431 C -579.9771 -87.984981 -579.50517 -88.173485 -575.60142 -90.668485 C -570.22974 -94.101683 -568.58668 -94.754658 -566.08614 -94.469081 C -563.25691 -94.145974 -561.01473 -91.666998 -561.39929 -89.289865 C -561.72484 -87.277584 -562.95397 -86.021257 -567.33598 -83.217148 C -572.37128 -79.995431 -573.42572 -76.532152 -570.42874 -73.068853 C -568.82926 -71.220507 -566.65272 -70.443818 -563.17597 -70.470038 C -561.2896 -70.484269 -560.61319 -70.856334 -548.55551 -78.562747 C -542.61265 -82.361005 -539.4357 -84.405702 -537.64204 -85.71542 z M -608.33032 -37.989334 L -624.38524 -55.725771 L -632.11499 -50.782049 L -641.79563 -61.466276 L -634.05428 -66.409029 L -650.11442 -84.150823 L -660.98685 -77.196459 L -619.19637 -31.039358 L -608.33032 -37.989334 z M -634.28724 -21.396656 L -676.07772 -67.553757 L -686.95537 -60.60475 L -670.88886 -42.867344 L -663.1591 -47.811066 L -653.48484 -37.122451 L -661.21981 -32.184086 L -653.43027 -23.581769 L -674.41351 -10.170332 L -682.20306 -18.772649 L -689.93281 -13.828927 L -699.61345 -24.513153 L -691.87848 -29.451519 L -707.93862 -47.193313 L -718.80467 -40.243337 L -677.01419 5.9137645 L -634.28724 -21.396656 z M -694.60909 17.02018 L -687.61488 7.1585252 C -687.61488 7.1585252 -724.73556 -11.432133 -740.50614 -19.329202 L -742.0243 -23.9681 L -748.61048 -22.451854 C -749.71562 -22.197677 -750.6486 -21.736484 -751.40105 -21.140016 C -752.28605 -20.689936 -753.06112 -20.053967 -753.64791 -19.226736 L -757.15343 -14.299072 L -752.23235 -11.840967 C -747.38412 3.0368827 -735.96758 38.063141 -735.96758 38.063141 L -722.79522 35.03065 L -735.30436 -3.3607245 L -694.60909 17.02018 z M -801.97082 87.273043 L -800.89517 84.61732 L -795.73775 81.31858 L -798.38436 78.396111 L -797.58023 76.40164 C -797.58023 76.40164 -798.93845 75.963424 -801.27411 75.202383 L -833.75241 39.329687 C -836.05054 36.791302 -840.36181 35.943548 -843.55458 37.984136 L -848.99021 41.456445 L -825.56529 67.332065 C -840.68077 62.463535 -857.67382 57.053421 -864.78017 55.026286 C -866.40041 54.564673 -868.12335 54.584423 -869.65327 55.032409 C -869.68897 55.042179 -869.72104 55.057042 -869.75704 55.068022 C -869.91977 55.117905 -870.08202 55.169495 -870.2388 55.229505 C -870.33166 55.264555 -870.42332 55.300171 -870.51532 55.339251 C -870.62781 55.387193 -870.73999 55.435386 -870.84922 55.488486 C -870.94082 55.533102 -871.03358 55.584262 -871.12398 55.632822 C -871.23248 55.691798 -871.33909 55.753687 -871.44452 55.817617 C -871.48509 55.842437 -871.524 55.865378 -871.5645 55.891238 L -877.00014 59.363548 L -875.0162 61.551625 L -875.99112 63.950061 L -871.59318 65.336081 L -834.62532 106.17469 L -823.75289 99.220326 L -847.57647 72.902999 L -809.71695 84.834741 L -806.60902 88.2632 L -804.04306 86.622605 L -801.97082 87.273043 z M -461.56909 -149.3471 C -463.91348 -147.84874 -467.43579 -148.25274 -469.2191 -150.22251 C -471.06849 -152.26524 -470.60959 -155.0865 -468.17836 -156.64036 C -465.74714 -158.19422 -462.31689 -157.74009 -460.53356 -155.77031 C -458.68419 -153.7276 -459.22472 -150.84548 -461.56909 -149.3471 z M -600.32136 -74.730192 L -605.83161 -80.819606 L -637.13491 -60.816045 L -631.62466 -54.726632 L -600.32136 -74.730192 z M -658.13918 -37.77707 L -663.64943 -43.866483 L -694.95911 -23.858535 L -689.44248 -17.773509 L -658.13918 -37.77707 z M -765.01915 30.533113 L -770.52939 24.4437 L -801.8327 44.44726 L -796.32245 50.536673 L -765.01915 30.533113 z M -595.29443 -128.23321 L -601.03852 -134.57343 L -592.91604 -140.16335 L -615.17814 -162.99939 L -622.31877 -158.08517 L -631.55377 -168.27947 L -631.47089 -168.33651 L -633.10504 -171.20391 C -633.03898 -171.13111 -632.95885 -171.19018 -632.89275 -171.11728 C -627.15757 -179.61988 -631.77862 -187.60633 -638.98169 -196.01668 L -638.89359 -196.06836 L -641.6696 -199.13449 L -642.96852 -198.30323 L -644.55381 -200.0496 L -648.46217 -197.55677 L -647.07416 -196.0237 L -652.80192 -192.3593 L -654.18993 -193.89237 L -657.6682 -191.66867 L -656.14442 -189.99632 L -661.87855 -186.32754 L -663.40118 -188.00962 L -666.78497 -185.84199 L -665.26757 -184.16526 L -670.99533 -180.50086 L -672.51796 -182.18295 L -675.90175 -180.01532 L -674.38434 -178.33859 L -680.1121 -174.67419 L -681.63473 -176.35628 L -685.27761 -174.02824 L -683.69347 -172.27213 L -684.64404 -171.6627 L -681.87325 -168.60192 L -681.96251 -168.54049 C -674.12714 -160.18877 -666.48473 -154.01784 -654.8333 -156.7427 L -654.76541 -156.67306 C -654.76541 -156.67306 -654.83094 -156.74863 -654.74404 -156.80413 L -653.21019 -155.71156 L -616.22667 -114.85688 L -595.29443 -128.23321 z M -673.27128 -78.400077 L -710.4521 -119.46806 L -711.18121 -120.72957 L -711.1197 -120.65554 C -704.7975 -129.41817 -708.40194 -137.94117 -715.36901 -146.84783 C -716.20688 -147.92468 -717.1277 -148.94536 -718.11844 -150.03967 L -720.20216 -148.71305 L -721.78745 -150.45942 L -725.86794 -147.84813 L -724.41205 -146.24542 L -730.14503 -142.58638 L -731.60093 -144.18908 L -734.98472 -142.02145 L -733.39942 -140.27508 L -739.13356 -136.6063 L -740.7177 -138.36241 L -744.1896 -136.1431 L -742.60546 -134.38698 L -748.33844 -130.72794 L -749.91736 -132.4787 L -753.30637 -130.31643 L -751.72223 -128.56031 L -757.45521 -124.90127 L -759.03413 -126.65203 L -762.7715 -124.26792 L -761.05795 -122.36814 L -762.52786 -121.42815 L -759.89285 -118.50665 L -759.79836 -118.56272 C -752.09508 -110.35692 -744.5883 -104.33064 -733.11054 -106.94451 L -730.74188 -105.23601 L -730.65378 -105.28769 L -694.19193 -65.022772 L -673.27128 -78.400077 z M -763.8897 -22.498469 L -736.70427 -41.207612 L -758.96636 -64.043644 L -786.15179 -45.334502 L -763.8897 -22.498469 z M -718.96106 -53.418574 A 17.56818 14.760905 4.8883285e-05 0 0 -716.502 -74.19384 A 17.56818 14.760905 4.8883285e-05 0 0 -741.22315 -76.254606 A 17.56818 14.760905 4.8883285e-05 0 0 -743.68743 -55.484697 A 17.56818 14.760905 4.8883285e-05 0 0 -718.96106 -53.418574 z M -575.16646 -152.3787 A 17.56818 14.760905 4.8883285e-05 0 0 -572.7074 -173.15397 A 17.56818 14.760905 4.8883285e-05 0 0 -597.42855 -175.21474 A 17.56818 14.760905 4.8883285e-05 0 0 -599.89283 -154.44483 A 17.56818 14.760905 4.8883285e-05 0 0 -575.16646 -152.3787 z M -436.49076 -251.23516 L -438.74662 -249.79007 C -444.14781 -253.01053 -449.68117 -256.04361 -455.3242 -258.90529 L -460.24348 -263.9514 C -452.09435 -260.07067 -444.16333 -255.8372 -436.49076 -251.23516 z M -858.15237 18.376678 L -860.32535 19.764724 C -872.78858 -13.078116 -875.17621 -47.959943 -867.77839 -81.727007 L -865.15298 -81.099233 C -872.34524 -48.013522 -870.13469 -13.783564 -858.15237 18.376678 z M -886.00181 36.06593 L -888.17479 37.453976 C -899.8656 10.526688 -905.23571 -17.866999 -904.59366 -46.276251 C -903.22146 -47.431296 -902.42972 -48.821583 -901.92892 -50.285163 C -903.15595 -21.007884 -897.94756 8.3096394 -886.00181 36.06593 z M -869.61058 17.069885 A 17.56818 14.760905 4.8883285e-05 0 0 -872.06818 17.696082 C -881.45914 -9.0833836 -884.3544 -37.094337 -881.11743 -64.768845 C -880.14548 -64.805606 -879.26628 -65.263604 -878.31663 -65.52382 C -881.76499 -37.779169 -879.01553 -9.6822186 -869.61058 17.069885 z M -882.05023 21.531482 C -892.59357 -7.8744449 -895.48268 -38.760547 -891.15298 -69.238694 L -889.47666 -67.519161 C -889.31106 -67.34929 -889.00819 -67.395008 -888.83052 -67.23883 C -892.67956 -38.088483 -889.80732 -8.5210956 -880.03234 19.72208 A 17.56818 14.760905 4.8883285e-05 0 0 -881.06489 19.985151 A 17.56818 14.760905 4.8883285e-05 0 0 -882.05023 21.531482 z M -495.86841 -245.68175 C -521.87853 -255.82353 -549.95684 -262.07114 -578.61709 -264.23303 L -578.63829 -266.52772 C -550.85715 -264.46469 -523.65431 -258.59247 -498.29092 -249.06278 L -498.81371 -248.70299 L -495.86841 -245.68175 z M -491.55832 -253.69619 C -518.96714 -264.38908 -548.61229 -270.88154 -579.01416 -272.99998 L -579.03536 -275.29468 C -547.8528 -273.10866 -517.42306 -266.37606 -489.25674 -255.28015 L -491.55832 -253.69619 z M -482.12885 -260.18559 C -508.4451 -270.91749 -536.80095 -277.88407 -565.92442 -280.92537 C -564.27791 -281.23568 -562.55369 -281.24016 -561.13971 -282.21327 L -560.89743 -282.38 C -560.80992 -282.44023 -560.83219 -282.54668 -560.7474 -282.60857 C -532.69225 -279.175 -505.39922 -272.16493 -479.95478 -261.6818 L -482.12885 -260.18559 z M -472.41886 -266.86806 C -499.02288 -278.24181 -527.7176 -285.86602 -557.2966 -289.64675 C -557.31868 -290.44668 -557.78267 -291.1567 -558.06928 -291.92551 C -527.39142 -288.17784 -497.63916 -280.3048 -470.1364 -268.43885 L -472.41886 -266.86806 z M -607.32058 -250.90576 L -619.95273 -250.9034 L -619.95286 -275.29402 L -607.32044 -262.33592 L -607.32058 -250.90576 z M -901.74716 -53.453498 C -901.95143 -55.043911 -902.01524 -56.689882 -903.2989 -58.006633 L -903.95167 -58.676233 C -903.3652 -65.616652 -902.40387 -72.547614 -901.1012 -79.443395 L -898.94967 -77.236394 C -900.35213 -69.336332 -901.28788 -61.399781 -901.74716 -53.453498 z M -572.31192 -281.53291 C -574.58068 -281.72449 -576.84296 -281.91333 -579.11918 -282.05744 L -579.1456 -284.35749 C -578.4579 -284.31178 -577.77351 -284.24027 -577.08643 -284.19035 L -576.10466 -283.18327 C -575.132 -282.18553 -573.62079 -282.05309 -572.31192 -281.53291 z M -626.78755 -249.21604 L -640.70107 -246.35372 L -646.73298 -254.81409 L -668.37726 -250.36388 L -668.66709 -246.62889 C -672.30256 -248.19044 -676.61091 -248.47466 -680.10612 -246.06923 L -680.35477 -245.89811 C -681.64073 -245.01311 -681.88743 -243.706 -682.57286 -242.54566 L -677.72014 -291.95468 L -661.22023 -295.34385 L -626.78755 -249.21604 z M -840.85675 -103.05618 L -841.28497 -103.49544 L -840.74097 -103.34173 L -840.85675 -103.05618 z M -875.46708 -82.325187 L -877.31051 -84.216137 L -875.18617 -83.708959 C -875.28908 -83.24887 -875.3676 -82.785675 -875.46708 -82.325187 z M -836.28589 -114.01585 L -851.53086 -114.00548 L -853.17584 -115.69287 C -856.81746 -119.42837 -863.49268 -119.86173 -868.1408 -116.66287 L -868.38307 -116.49614 C -869.32933 -115.84492 -869.39313 -114.8428 -870.01608 -114.02968 L -877.00276 -114.02795 L -877.48051 -113.94978 L -877.50188 -113.81872 L -877.15498 -113.58307 L -871.37046 -111.9877 C -872.4416 -109.23337 -872.48484 -106.32289 -870.19861 -103.97772 L -863.54557 -97.153157 L -870.4674 -99.084661 L -872.76583 -99.803204 L -880.1325 -101.88505 L -882.51904 -102.55191 L -890.56481 -104.78399 L -892.86325 -105.50253 L -903.14072 -108.37377 L -897.15639 -123.25993 L -887.82758 -123.11023 L -885.19095 -123.07198 L -876.50748 -122.86303 L -873.93237 -122.8988 L -865.94416 -122.70367 L -863.30753 -122.66541 L -855.53682 -122.56227 L -852.98307 -122.46697 L -852.13183 -122.4352 L -852.02235 -122.61795 L -852.65987 -123.02057 L -854.78587 -124.30532 L -860.99059 -128.28777 L -863.0337 -129.62955 L -869.5504 -133.64791 L -871.67003 -134.93705 L -888.14054 -145.25375 L -882.0681 -160.19159 L -834.80583 -146.75578 L -824.13464 -143.89592 L -826.21812 -138.61325 C -829.79316 -139.99461 -833.92026 -140.21361 -837.29579 -137.89055 L -837.53806 -137.72382 C -838.38568 -137.14048 -838.41734 -136.23041 -839.00599 -135.51419 L -841.26495 -136.17039 L -866.13022 -143.19808 L -866.23969 -143.01533 L -851.21636 -133.3854 L -849.17324 -132.04362 L -844.87588 -129.26368 L -839.55346 -125.79287 C -839.40621 -125.61576 -839.5192 -125.37526 -839.35361 -125.2054 L -833.98 -119.69325 L -836.28589 -114.01585 z M -591.07363 -290.35336 L -607.31886 -290.35276 L -607.31755 -289.22587 C -610.89786 -290.62158 -615.03719 -290.84998 -618.42248 -288.52021 L -618.66475 -288.35347 C -619.4103 -287.84039 -619.4093 -287.02774 -619.95483 -286.40945 L -619.95623 -290.35576 L -636.23625 -290.35807 L -636.23605 -299.90862 L -591.07343 -299.90391 L -591.07363 -290.35336 z M -819.19024 -147.52245 L -827.73549 -157.26057 L -850.36655 -183.06493 C -848.51169 -183.24981 -846.58748 -183.28482 -845.05011 -184.34285 L -828.53101 -195.71137 C -828.33906 -195.84347 -828.38968 -196.08475 -828.21242 -196.226 L -799.99236 -188.69656 L -786.85698 -185.23225 L -795.6711 -174.98634 L -807.41598 -178.42303 L -818.14051 -166.03891 L -810.52688 -157.78096 L -819.19024 -147.52245 z M -652.91865 -263.41032 L -666.04635 -281.88133 L -667.62936 -260.39321 L -652.91865 -263.41032 z M -703.11913 -232.18283 L -738.9101 -216.91376 L -745.10268 -227.23272 L -766.66504 -262.85754 L -730.96218 -278.07493 L -726.04669 -269.92926 L -749.14113 -260.00569 L -743.19758 -250.1061 L -723.88036 -258.29839 L -718.97647 -250.1537 L -738.21536 -241.88105 L -732.79841 -233.02431 L -731.12268 -230.4093 L -708.11113 -240.27584 L -703.11913 -232.18283 z M -782.9171 -187.39769 L -791.78062 -196.12912 L -822.66605 -226.60877 L -805.74506 -238.79986 C -800.21249 -242.6814 -794.00771 -244.46569 -787.28477 -244.15578 C -780.64866 -243.79037 -774.91253 -241.23367 -770.13992 -236.5677 L -762.88191 -229.46133 C -759.97945 -226.70964 -758.11943 -223.74717 -757.24224 -220.50725 C -756.63666 -218.47575 -756.44406 -216.29506 -756.73126 -214.03846 C -757.33982 -208.35176 -760.3651 -203.66118 -765.91845 -199.65119 L -782.9171 -187.39769 z M -779.20112 -202.21753 L -773.03546 -206.61293 C -770.73635 -208.3127 -769.55603 -210.33693 -769.44619 -212.94084 C -769.49119 -213.14224 -769.44597 -213.39763 -769.49127 -213.59903 C -769.64562 -216.49475 -771.08949 -219.14363 -773.77301 -221.8049 L -780.96314 -228.84164 C -783.58062 -231.42996 -786.76083 -232.97402 -789.99577 -233.67052 C -793.18544 -234.16561 -796.16968 -233.52482 -798.62167 -231.84251 L -804.80348 -227.31069 L -781.48545 -204.44055 L -779.20112 -202.21753 z M -825.09553 -173.57756 L -818.35235 -181.56583 L -837.1785 -186.92275 L -837.20509 -186.79704 L -825.09553 -173.57756 z "
     transform="matrix(0.04850885,-0.03973309,-0.04728967,-0.0577344,47.949392,-5.9845001)" /><g
     inkscape:label="Layer 1"
     inkscape:groupmode="layer"
     id="layer1"
     transform="translate(7.705731,-115.08876)" /><g
     inkscape:groupmode="layer"
     id="layer5"
     inkscape:label="mh"
     style="display:inline" /><style
     type="text/css"
     id="style2">
	.st0{fill:#981B1F;}
	.st1{fill-rule:evenodd;clip-rule:evenodd;fill:#981B1F;}
	.st2{fill:#FFFFFF;}
	.st3{fill:none;}
	.st4{fill:none;stroke:#8A1919;stroke-width:5;stroke-miterlimit:10;}
</style></svg>
