<?xml version="1.0" encoding="UTF-8" standalone="no"?>
<!-- Created with Inkscape (http://www.inkscape.org/) -->

<svg
   width="210mm"
   height="297mm"
   viewBox="0 0 210 297"
   version="1.1"
   id="svg44022"
   inkscape:version="1.2.1 (9c6d41e410, 2022-07-14)"
   sodipodi:docname="warning-zone.svg"
   xmlns:inkscape="http://www.inkscape.org/namespaces/inkscape"
   xmlns:sodipodi="http://sodipodi.sourceforge.net/DTD/sodipodi-0.dtd"
   xmlns="http://www.w3.org/2000/svg"
   xmlns:svg="http://www.w3.org/2000/svg">
  <sodipodi:namedview
     id="namedview44024"
     pagecolor="#ffffff"
     bordercolor="#666666"
     borderopacity="1.0"
     inkscape:showpageshadow="2"
     inkscape:pageopacity="0.0"
     inkscape:pagecheckerboard="0"
     inkscape:deskcolor="#d1d1d1"
     inkscape:document-units="mm"
     showgrid="false"
     inkscape:zoom="4"
     inkscape:cx="371.25"
     inkscape:cy="466.75"
     inkscape:window-width="3840"
     inkscape:window-height="2050"
     inkscape:window-x="-12"
     inkscape:window-y="-12"
     inkscape:window-maximized="1"
     inkscape:current-layer="layer1" />
  <defs
     id="defs44019" />
  <g
     inkscape:label="Layer 1"
     inkscape:groupmode="layer"
     id="layer1">
    <path
       id="path45326"
       style="font-variation-settings:'wght' 600;fill:#ab5e44;fill-opacity:0.43686;fill-rule:evenodd;stroke:none;stroke-width:0.79375;stroke-linecap:round;stroke-opacity:0.556701"
       d="M 118.20881 67.806197 L 118.20881 91.403206 C 118.20881 91.985617 118.35573 92.534401 118.48321 93.089408 C 118.48921 93.117618 118.50801 93.172607 118.50801 93.172607 C 119.29547 95.572053 121.36882 97.373901 121.36882 97.373901 L 122.80181 98.769165 L 122.80697 98.763997 C 122.84687 98.804937 122.88268 98.849227 122.92015 98.892155 C 122.95095 98.925445 122.98053 98.958865 123.00903 98.992407 C 123.36752 99.414045 123.54274 99.854343 123.62243 100.29052 C 123.67053 100.5113 123.69758 100.73767 123.69788 100.96748 C 123.69733 100.98348 123.69681 100.99944 123.69581 101.01554 L 123.69788 101.01554 C 123.69788 101.18229 123.68439 101.34682 123.65809 101.5075 C 123.62959 101.85806 123.48619 102.19125 123.32632 102.46713 C 123.19698 102.70435 123.03706 102.92338 122.84987 103.11825 C 122.84487 103.12325 122.82093 103.15029 122.82093 103.15029 L 122.81421 103.15649 C 122.76391 103.20709 122.71106 103.25559 122.65711 103.30274 C 122.52398 103.41894 122.38051 103.52364 122.22716 103.6159 C 122.18546 103.6419 122.13817 103.66575 122.09281 103.69135 C 122.07021 103.70345 122.04811 103.71644 122.02511 103.72804 C 121.65807 103.92331 121.192 104.08638 120.6624 104.05153 L 120.66189 104.05153 C 120.41955 104.04953 120.22069 104.0386 119.99061 103.9921 C 119.43904 103.9263 119.3467 103.85237 118.71265 103.76007 L 118.71162 103.76007 C 117.92819 103.76011 117.20993 104.03748 116.64818 104.49853 C 116.64318 104.50253 116.63809 104.50652 116.63319 104.51042 C 116.57059 104.56242 116.51137 104.61826 116.45284 104.67475 C 116.42224 104.70475 116.39191 104.73482 116.36241 104.76622 C 116.33151 104.79841 116.30199 104.83193 116.27249 104.86543 C 116.21819 104.92803 116.16491 104.99146 116.11488 105.0587 C 116.10988 105.0647 116.10491 105.07101 116.10041 105.07731 C 115.71883 105.59788 115.472 106.25454 115.45652 107.01569 C 115.45637 107.02269 115.45714 107.02958 115.45704 107.03688 C 115.46304 107.89675 115.80307 108.67594 116.35259 109.25483 C 116.73131 109.63259 117.15129 109.87563 117.44451 110.01551 L 117.44503 110.01551 C 117.44703 110.01629 117.44871 110.01657 117.45071 110.01757 C 117.83859 110.18073 118.26443 110.27129 118.71162 110.27131 C 119.08187 110.2712 119.47124 110.16733 119.79837 110.08424 C 119.79911 110.08405 119.79944 110.08391 119.80044 110.08372 C 119.80544 110.08172 121.20064 109.58186 122.50157 110.60203 C 122.52867 110.62333 122.55153 110.64555 122.57753 110.66715 C 122.61273 110.69585 122.64663 110.72531 122.68037 110.75551 C 122.76047 110.82781 122.83556 110.90078 122.90361 110.97514 C 122.92931 111.00334 122.95342 111.03234 122.97802 111.06144 C 123.05282 111.14944 123.11992 111.23795 123.18008 111.32654 C 123.19028 111.34174 123.20118 111.3561 123.21108 111.3715 C 123.75766 112.20797 123.69788 113.01532 123.69788 113.01532 L 123.69788 114.46278 L 123.69736 116.8554 C 123.69736 116.8554 123.70336 117.70725 123.69736 118.2858 C 123.72106 120.42473 121.8951 121.13349 121.3466 121.25875 C 120.26628 121.50545 119.80593 121.15159 118.86148 121.06186 L 118.80929 121.05669 C 118.77569 121.05369 118.74652 121.04887 118.71162 121.04687 C 117.45885 120.90634 115.3647 122.28198 115.456 124.30249 C 115.5473 126.323 116.8976 127.00637 117.53081 127.33745 C 117.96431 127.56409 118.54831 127.56201 118.88525 127.54002 L 118.94364 127.53795 C 119.06964 127.52795 119.1581 127.5178 119.1581 127.5178 C 119.1581 127.5178 120.03028 127.31685 120.66189 127.26665 C 121.29349 127.21635 122.84916 127.61481 123.47618 129.16369 C 123.97206 130.38863 123.47419 131.55969 123.31444 131.86379 C 123.04456 132.37871 122.66826 132.74791 121.36882 133.94428 C 119.77037 135.41593 119.31407 137.7967 119.32657 138.51351 C 119.33897 139.23032 119.3245 143.03881 119.3245 143.03881 L 119.36946 147.0303 C 119.5129 152.34409 119.29763 162.9115 119.29763 162.9115 L 151.81657 162.9115 L 151.81657 161.01601 C 151.81657 159.77337 152.82394 158.76603 154.06656 158.76602 C 155.30919 158.76603 156.31656 159.77337 156.31656 161.01601 L 156.31656 162.9115 L 164.62819 162.9115 L 164.62819 67.806197 L 156.31656 67.806197 L 156.31656 69.806075 C 156.31656 71.048707 155.30919 72.056061 154.06656 72.056067 C 152.82394 72.056061 151.81657 71.048707 151.81657 69.806075 L 151.81657 67.806197 L 118.20881 67.806197 z M 150.31072 69.236601 C 150.27274 69.629322 150.30567 70.021491 150.39392 70.401388 L 119.68572 85.15966 C 119.67894 84.528743 119.6721 83.897731 119.66866 83.266752 L 148.8581 69.238668 C 149.34231 69.238013 149.82651 69.237243 150.31072 69.236601 z M 145.47432 69.243319 L 119.66298 81.648246 C 119.66177 81.014535 119.66233 80.380812 119.66298 79.74707 L 141.50712 69.248486 L 141.50764 69.248486 C 142.82987 69.246609 144.15209 69.245167 145.47432 69.243319 z M 138.12335 69.253137 L 119.66608 78.123914 C 119.66769 77.489691 119.66826 76.855409 119.67021 76.221187 L 134.1577 69.258305 C 134.41315 69.258143 134.66862 69.257949 134.92406 69.257788 C 135.9905 69.256314 137.05692 69.254643 138.12335 69.253137 z M 130.77961 69.260372 L 119.67383 74.598031 C 119.67545 73.963538 119.67648 73.329247 119.67693 72.694788 L 126.8181 69.262956 C 128.13856 69.262093 129.45915 69.261232 130.77961 69.260372 z M 123.43898 69.265023 L 119.67487 71.074215 C 119.67374 70.472009 119.67322 69.869754 119.6697 69.267607 C 120.92609 69.266841 122.18259 69.265827 123.43898 69.265023 z M 157.83584 69.267607 L 160.08325 69.267607 L 157.74386 70.392086 C 157.83066 70.023021 157.86834 69.644482 157.83584 69.267607 z M 163.16782 69.406616 L 163.16782 71.307792 L 119.85522 92.123576 C 119.82947 91.500452 119.80968 90.877169 119.7901 90.253923 C 119.77336 89.720644 119.75842 89.187377 119.74566 88.65402 C 119.73066 88.026652 119.71505 87.399426 119.70484 86.771965 L 150.98148 71.740841 C 151.32718 72.254971 151.78588 72.691348 152.32042 72.998128 L 119.74566 88.65402 C 119.75842 89.187377 119.77336 89.720644 119.7901 90.253923 L 154.79159 73.43221 C 155.32143 73.319285 155.8173 73.071787 156.24938 72.731478 C 156.24957 72.731328 156.2497 72.731111 156.24989 72.730961 L 163.16782 69.406616 z M 157.64981 70.724882 C 157.64811 70.730067 157.64637 70.735206 157.64464 70.740385 C 157.64637 70.73522 157.6481 70.730053 157.64981 70.724882 z M 150.49107 70.746069 C 150.49379 70.754245 150.49709 70.762199 150.49986 70.770357 C 150.49709 70.762203 150.49379 70.754241 150.49107 70.746069 z M 157.04209 71.901554 C 157.01481 71.939017 156.98787 71.97663 156.95941 72.013175 C 156.98791 71.976712 157.01476 71.938931 157.04209 71.901554 z M 156.81162 72.191459 C 156.77434 72.234353 156.7358 72.275725 156.6969 72.317033 C 156.73579 72.27583 156.77432 72.23424 156.81162 72.191459 z M 156.54342 72.473612 C 156.49967 72.515446 156.45399 72.55475 156.40854 72.594535 C 156.45402 72.554756 156.49961 72.515441 156.54342 72.473612 z M 163.16782 72.928882 L 163.16782 74.830575 L 121.21999 94.990584 C 120.86007 94.537467 120.54092 94.058077 120.28723 93.537443 C 120.24363 93.44796 120.2011 93.357742 120.16166 93.265625 C 120.2015 93.357577 120.2436 93.447904 120.28723 93.537443 L 163.16782 72.928882 z M 152.57105 73.129386 C 152.58218 73.134697 152.59345 73.139691 152.60464 73.144889 C 152.59346 73.139647 152.58217 73.134738 152.57105 73.129386 z M 152.83408 73.243075 C 152.87352 73.258177 152.91345 73.271744 152.95345 73.285449 C 152.91354 73.271577 152.87342 73.25835 152.83408 73.243075 z M 153.11882 73.340226 C 153.22338 73.370318 153.32935 73.397061 153.43715 73.417224 C 153.32924 73.397042 153.22326 73.37069 153.11882 73.340226 z M 153.75547 73.474068 C 153.77236 73.476279 153.78926 73.478866 153.80612 73.480786 C 153.78922 73.478881 153.77239 73.476267 153.75547 73.474068 z M 154.46757 73.48337 C 154.46275 73.483883 154.45793 73.48443 154.4531 73.48492 C 154.45793 73.484436 154.46276 73.483877 154.46757 73.48337 z M 163.16782 76.452181 L 163.16782 78.353357 L 123.4767 97.428678 C 123.06681 96.991454 122.64235 96.56314 122.22768 96.127983 L 163.16782 76.452181 z M 163.16782 79.974447 L 163.16782 81.875623 L 125.0735 100.18355 C 125.01047 99.722209 124.87816 99.273056 124.66629 98.857015 C 124.60007 98.762374 124.52953 98.670304 124.45959 98.577962 L 163.16782 79.974447 z M 163.16782 83.497229 L 163.16782 85.398405 L 123.57644 104.42618 C 124.30511 103.75387 124.80171 102.8228 125.00839 101.83616 L 163.16782 83.497229 z M 119.68727 85.30332 C 119.69229 85.784595 119.6966 86.26595 119.70432 86.74716 C 119.69653 86.265955 119.69266 85.784571 119.68727 85.30332 z M 163.16782 87.020011 L 163.16782 88.921187 L 122.00237 108.70499 C 121.01045 108.42933 119.88114 108.5917 118.8651 108.72101 C 118.58317 108.78986 118.32185 108.76812 118.08737 108.68536 C 118.04387 108.67 118.00279 108.6502 117.96128 108.63058 C 118.00274 108.65015 118.0439 108.67001 118.08737 108.68536 L 163.16782 87.020011 z M 163.16782 90.542277 L 163.16782 92.443453 L 124.5955 110.98134 C 124.32523 110.4616 123.96734 109.99044 123.50926 109.6021 L 163.16782 90.542277 z M 119.98958 92.813456 C 120.00682 92.864387 120.02371 92.915815 120.04229 92.965902 C 120.02395 92.91559 120.00659 92.8646 119.98958 92.813456 z M 163.16782 94.065059 L 163.16782 95.966235 L 125.2368 114.19613 C 125.26982 113.58633 125.22372 112.96382 125.09159 112.3642 L 163.16782 94.065059 z M 121.22309 94.994202 C 121.53227 95.383083 121.87081 95.753179 122.21786 96.117647 C 121.87082 95.753157 121.53227 95.383094 121.22309 94.994202 z M 163.16782 97.587842 L 163.16782 99.489018 L 125.1505 117.75974 C 125.18436 117.12331 125.17385 116.48577 125.16187 115.85339 L 163.16782 97.587842 z M 125.09831 100.45692 C 125.10385 100.53008 125.10862 100.60307 125.11071 100.67654 C 125.1086 100.60319 125.10384 100.52994 125.09831 100.45692 z M 125.11174 100.91787 C 125.11019 100.98874 125.10657 101.0594 125.10192 101.13026 C 125.10654 101.05938 125.11021 100.98876 125.11174 100.91787 z M 163.16782 101.11062 L 163.16782 103.01128 L 117.14634 125.12931 C 117.184 125.21555 117.22957 125.29712 117.28121 125.37426 C 117.22899 125.29718 117.1841 125.21576 117.14634 125.12931 C 116.86817 124.49246 116.97404 123.64089 117.41506 123.09895 L 118.4615 122.59613 C 120.32456 122.97716 122.51863 122.84283 123.91853 121.36469 C 124.40463 120.80486 124.70481 120.1744 124.89005 119.5064 L 163.16782 101.11062 z M 125.08022 101.38503 C 125.07278 101.44846 125.06217 101.51149 125.05232 101.57468 C 125.06215 101.51152 125.0728 101.44844 125.08022 101.38503 z M 123.39815 104.58173 C 123.3749 104.60088 123.3505 104.61839 123.32684 104.63702 C 123.35043 104.61845 123.37497 104.60082 123.39815 104.58173 z M 163.16782 104.63289 L 163.16782 106.53407 L 122.40545 126.1246 C 121.26784 125.6027 119.95756 126.03799 118.71162 125.99851 C 118.63702 125.99615 118.56297 125.99014 118.48889 125.98404 C 118.56293 125.99004 118.63711 125.99615 118.71162 125.99851 L 163.16782 104.63289 z M 119.04803 105.35223 C 119.85296 105.3628 120.69209 105.54798 121.46649 105.44008 L 117.06727 107.55416 C 117.10634 107.67241 117.15692 107.7863 117.21558 107.89471 C 117.1567 107.78603 117.10638 107.67253 117.06727 107.55416 C 116.86076 106.92907 116.93966 106.20488 117.44554 105.75117 C 117.93994 105.42392 118.48558 105.34484 119.04803 105.35223 z M 121.84373 105.36308 C 121.77635 105.38267 121.70788 105.39802 121.63909 105.41114 C 121.70779 105.39722 121.77627 105.38269 121.84373 105.36308 z M 117.23574 107.93346 C 117.26251 107.98049 117.29176 108.02556 117.32204 108.06989 C 117.29167 108.02547 117.26258 107.98057 117.23574 107.93346 z M 117.36235 108.1257 C 117.39329 108.16766 117.4249 108.20935 117.45898 108.24817 C 117.42476 108.2092 117.39342 108.16782 117.36235 108.1257 z M 163.16782 108.15567 L 163.16782 110.05685 L 124.7128 128.53841 C 124.48371 128.00236 124.1663 127.50622 123.76195 127.09405 L 163.16782 108.15567 z M 117.4626 108.25231 C 117.53619 108.33561 117.61788 108.40916 117.70496 108.47503 C 117.61788 108.40908 117.53626 108.33568 117.4626 108.25231 z M 117.76646 108.52051 C 117.80419 108.54617 117.84337 108.56986 117.88324 108.59182 C 117.8432 108.56975 117.80436 108.54633 117.76646 108.52051 z M 122.30416 108.80576 C 122.33169 108.81639 122.35856 108.82895 122.38581 108.84038 C 122.35855 108.82894 122.3317 108.81639 122.30416 108.80576 z M 122.5982 108.9396 C 122.62941 108.95572 122.66045 108.97237 122.69122 108.98973 C 122.66048 108.97237 122.62939 108.95572 122.5982 108.9396 z M 122.89586 109.11789 C 122.92046 109.1347 122.9455 109.15027 122.96976 109.16801 C 122.94549 109.15025 122.92047 109.13472 122.89586 109.11789 z M 163.16782 111.67845 L 163.16782 113.57963 L 124.8637 131.98833 C 125.09633 131.35377 125.16119 130.66211 125.08849 129.97915 L 163.16782 111.67845 z M 163.16782 115.20072 L 163.16782 117.10241 L 121.03137 137.35286 C 120.99571 137.48835 120.96756 137.62685 120.94662 137.76833 C 120.96658 137.62648 120.99572 137.48829 121.03137 137.35286 C 121.31177 136.28757 122.04771 135.41204 122.82299 134.59075 C 123.01897 134.38315 123.21624 134.17766 123.41004 133.97477 C 123.21634 134.1783 123.01914 134.38297 122.82299 134.59075 L 163.16782 115.20072 z M 163.16782 118.7235 L 163.16782 120.62468 L 120.81071 140.98158 C 120.82199 140.33794 120.84267 139.69434 120.87221 139.05094 L 163.16782 118.7235 z M 163.16782 122.24628 L 163.16782 124.14746 L 120.80606 144.50642 C 120.79845 143.87433 120.79503 143.24239 120.79521 142.61042 L 163.16782 122.24628 z M 118.08892 122.63541 C 118.04327 122.64936 117.99906 122.66563 117.95611 122.68398 C 117.92485 122.69734 117.89497 122.71289 117.86516 122.72843 C 117.89499 122.71292 117.92484 122.69731 117.95611 122.68398 C 117.99904 122.66569 118.0433 122.64932 118.08892 122.63541 z M 117.82898 122.74651 C 117.74938 122.79112 117.67501 122.84323 117.60626 122.90206 C 117.54065 122.9582 117.48092 123.02114 117.42539 123.08809 C 117.48093 123.02113 117.54057 122.95815 117.60626 122.90206 C 117.67507 122.84329 117.74929 122.79104 117.82898 122.74651 z M 117.3117 125.41818 C 117.39859 125.53808 117.5029 125.64466 117.62745 125.73083 C 117.50211 125.64524 117.3993 125.53753 117.3117 125.41818 z M 117.63055 125.73289 C 117.66641 125.75755 117.70464 125.77984 117.74372 125.80111 C 117.70444 125.77997 117.66665 125.75739 117.63055 125.73289 z M 163.16782 125.76855 L 163.16782 127.66973 L 120.85361 148.00595 C 120.84545 147.37656 120.83679 146.74708 120.82673 146.1177 L 163.16782 125.76855 z M 117.78041 125.82126 C 117.81276 125.83752 117.84721 125.85135 117.88169 125.86519 C 117.84706 125.8514 117.81295 125.83744 117.78041 125.82126 z M 117.92975 125.88482 C 117.98023 125.90283 118.03247 125.91869 118.08737 125.93133 C 118.03256 125.91871 117.98029 125.90273 117.92975 125.88482 z M 122.64368 126.24862 C 122.72732 126.29771 122.80988 126.35246 122.89121 126.41502 C 122.80993 126.3525 122.7272 126.29855 122.64368 126.24862 z M 123.11703 126.5561 C 123.13816 126.5703 123.15821 126.58594 123.17904 126.60054 C 123.15818 126.58596 123.1382 126.57029 123.11703 126.5561 z M 123.34338 126.71991 C 123.3541 126.72827 123.36426 126.73729 123.3749 126.74575 C 123.36425 126.73731 123.35411 126.72825 123.34338 126.71991 z M 123.55422 126.89613 C 123.56287 126.90385 123.57147 126.91159 123.58005 126.91938 C 123.57147 126.91162 123.56286 126.90383 123.55422 126.89613 z M 163.16782 129.29133 L 163.16782 131.19251 L 120.85722 151.52667 C 120.86653 150.89131 120.87053 150.25578 120.86807 149.62032 L 163.16782 129.29133 z M 124.70092 132.3666 C 124.69567 132.37727 124.69076 132.38801 124.68541 132.39864 C 124.69075 132.38803 124.69568 132.37725 124.70092 132.3666 z M 124.48956 132.74073 C 124.47846 132.75803 124.46737 132.77528 124.45597 132.79241 C 124.46737 132.77531 124.47847 132.75799 124.48956 132.74073 z M 163.16782 132.81412 L 163.16782 134.71529 L 120.83138 155.06185 C 120.83643 154.42692 120.83845 153.79202 120.83914 153.15706 L 163.16782 132.81412 z M 124.22291 133.10557 C 124.18987 133.14531 124.15555 133.18428 124.12059 133.22288 C 124.15556 133.18429 124.18986 133.14529 124.22291 133.10557 z M 124.07201 133.27714 C 124.01542 133.33716 123.95676 133.39589 123.89528 133.45284 C 123.95683 133.39581 124.01533 133.33724 124.07201 133.27714 z M 163.16782 136.3369 L 163.16782 138.23756 L 120.78901 158.60479 C 120.79827 157.96708 120.80721 157.32945 120.81485 156.69173 L 163.16782 136.3369 z M 120.94249 137.79469 C 120.93609 137.84035 120.9316 137.8868 120.92699 137.93318 C 120.93132 137.88666 120.9364 137.8405 120.94249 137.79469 z M 163.16782 139.85916 L 163.16782 141.76034 L 122.18479 161.45629 L 120.74819 161.45681 C 120.75385 161.05046 120.75973 160.64412 120.76576 160.23776 L 163.16782 139.85916 z M 120.81071 140.98726 C 120.8014 141.52031 120.79553 142.05346 120.79521 142.58665 C 120.79547 142.05346 120.80141 141.52032 120.81071 140.98726 z M 163.16782 143.38195 L 163.16782 145.28312 L 129.51871 161.45526 L 129.51819 161.45526 L 125.56029 161.45578 L 163.16782 143.38195 z M 120.80813 144.663 C 120.81363 145.1293 120.81894 145.59555 120.82622 146.06189 C 120.81878 145.59555 120.81404 145.12931 120.80813 144.663 z M 163.16782 146.90473 L 163.16782 148.8059 L 136.85056 161.45371 L 132.89318 161.45423 L 163.16782 146.90473 z M 163.16782 150.42699 L 163.16782 152.32817 L 144.18293 161.45216 L 140.22555 161.45319 L 163.16782 150.42699 z M 163.16782 153.94978 L 163.16782 155.85095 L 156.97646 158.82648 C 156.57753 158.32191 156.06062 157.91193 155.47578 157.64671 L 163.16782 153.94978 z M 153.93479 157.31495 C 153.93942 157.31482 153.94411 157.31557 153.94874 157.31546 C 153.93162 157.31585 153.91467 157.31737 153.89758 157.31805 C 153.91007 157.31755 153.92228 157.31529 153.93479 157.31495 z M 154.23813 157.32321 C 154.25845 157.3247 154.27876 157.32699 154.29911 157.3289 C 154.27873 157.32698 154.25848 157.32471 154.23813 157.32321 z M 153.69708 157.33458 C 153.60903 157.34385 153.52182 157.35729 153.43508 157.37386 C 153.52181 157.35721 153.60902 157.34391 153.69708 157.33458 z M 154.59987 157.37076 C 154.70028 157.38823 154.79885 157.41204 154.89649 157.43845 C 154.79861 157.4126 154.70022 157.38822 154.59987 157.37076 z M 153.31674 157.39608 C 153.19821 157.42332 153.08099 157.4563 152.96586 157.49633 C 153.08094 157.45615 153.19822 157.42344 153.31674 157.39608 z M 155.00708 157.46946 C 155.05243 157.48333 155.09723 157.49881 155.14195 157.51442 C 155.09705 157.49908 155.05261 157.48305 155.00708 157.46946 z M 163.16782 157.47204 L 163.16782 159.37322 L 158.85387 161.44648 L 157.83016 161.44544 C 157.8603 160.99219 157.79759 160.54353 157.66324 160.11788 L 163.16782 157.47204 z M 152.85269 157.54181 C 152.77621 157.57143 152.70036 157.60249 152.62583 157.63741 C 152.70031 157.60237 152.77625 157.57153 152.85269 157.54181 z M 152.46201 157.72112 C 152.40724 157.75018 152.35321 157.7808 152.29975 157.81259 C 152.35321 157.78068 152.40723 157.75029 152.46201 157.72112 z M 152.12973 157.91801 C 152.0863 157.94693 152.04446 157.97828 152.00209 158.00896 C 152.04443 157.97819 152.08634 157.94702 152.12973 157.91801 z M 151.3613 158.58257 C 151.35243 158.59231 151.34322 158.60168 151.33443 158.61151 C 151.34321 158.60166 151.35244 158.59233 151.3613 158.58257 z M 151.13548 158.85232 C 151.12939 158.86021 151.12342 158.86816 151.11739 158.87609 C 151.12342 158.86814 151.1294 158.86023 151.13548 158.85232 z M 157.37592 159.43678 C 157.38112 159.44651 157.38579 159.45646 157.39091 159.46624 C 157.38578 159.45648 157.38114 159.44649 157.37592 159.43678 z M 150.49107 160.04191 C 150.33606 160.49511 150.2605 160.97249 150.29677 161.45113 L 147.55844 161.45164 L 150.49107 160.04191 z M 163.16782 160.99482 L 163.16782 161.45113 L 162.22059 161.45009 L 163.16782 160.99482 z " />
  </g>
</svg>
