<?xml version="1.0" encoding="UTF-8" standalone="no"?>
<!-- Created with Inkscape (http://www.inkscape.org/) -->

<svg
   width="49.172714mm"
   height="99.254921mm"
   viewBox="0 0 49.172714 99.254921"
   version="1.1"
   id="svg100468"
   xml:space="preserve"
   inkscape:version="1.2.1 (9c6d41e410, 2022-07-14)"
   sodipodi:docname="warning-zone.svg"
   xmlns:inkscape="http://www.inkscape.org/namespaces/inkscape"
   xmlns:sodipodi="http://sodipodi.sourceforge.net/DTD/sodipodi-0.dtd"
   xmlns="http://www.w3.org/2000/svg"
   xmlns:svg="http://www.w3.org/2000/svg"><sodipodi:namedview
     id="namedview100470"
     pagecolor="#ffffff"
     bordercolor="#666666"
     borderopacity="1.0"
     inkscape:showpageshadow="2"
     inkscape:pageopacity="0.0"
     inkscape:pagecheckerboard="0"
     inkscape:deskcolor="#d1d1d1"
     inkscape:document-units="mm"
     showgrid="false"
     showguides="false"
     inkscape:zoom="3.4437688"
     inkscape:cx="65.480586"
     inkscape:cy="259.16374"
     inkscape:window-width="3840"
     inkscape:window-height="2050"
     inkscape:window-x="-12"
     inkscape:window-y="-12"
     inkscape:window-maximized="1"
     inkscape:current-layer="layer1" /><defs
     id="defs100465" /><g
     inkscape:label="Layer 1"
     inkscape:groupmode="layer"
     id="layer1"
     transform="translate(126.67074,33.550541)"
     style="display:inline"><path
       id="path125280"
       style="font-variation-settings:'wght' 600;fill:#ab5e44;fill-opacity:0.43686;fill-rule:evenodd;stroke:none;stroke-width:0.79375;stroke-linecap:round;stroke-opacity:0.556701"
       d="M -120.94861 -33.550541 C -122.59548 -33.550551 -121.16574 -31.710337 -123.92052 -31.497436 L -123.91742 -30.216378 L -123.91639 -29.710982 L -123.91639 -26.870329 L -123.91639 -24.106673 L -123.91639 -20.760107 L -123.91639 -17.996452 L -123.91639 -15.12841 C -123.91639 -15.12841 -123.92539 -14.930216 -123.93189 -14.641101 C -123.93217 -14.629521 -123.93215 -14.610199 -123.93241 -14.598209 C -123.93541 -14.457055 -123.93654 -14.287961 -123.93654 -14.094881 C -123.93611 -13.922754 -123.93431 -13.761935 -123.92931 -13.551762 C -123.92331 -13.322107 -123.9129 -13.073084 -123.8983 -12.80297 C -123.8836 -12.530328 -123.8632 -12.240776 -123.8368 -11.932222 C -123.7589 -11.021439 -123.62475 -9.9722607 -123.39652 -8.8404214 C -123.37032 -8.7103331 -123.34151 -8.5791618 -123.31281 -8.4471637 C -123.25531 -8.182057 -123.19441 -7.9144241 -123.12625 -7.6430784 C -123.07615 -7.4448268 -123.02391 -7.2455699 -122.96761 -7.0446653 C -122.91051 -6.8409399 -122.85058 -6.6360062 -122.78674 -6.4302326 C -122.78658 -6.4297156 -122.78638 -6.4292023 -122.78622 -6.4286823 C -122.50548 -5.523883 -122.1564 -4.6031192 -121.72634 -3.6944822 C -121.59211 -3.4108664 -121.44923 -3.1288084 -121.29846 -2.848539 C -121.25626 -2.7698401 -121.21286 -2.6917562 -121.16927 -2.6134113 C -121.13177 -2.5461823 -121.09506 -2.478815 -121.05661 -2.4118732 C -120.95971 -2.2430408 -120.86053 -2.0747316 -120.75689 -1.908028 L -120.4861 -1.6465452 L -119.31977 -0.51793195 C -119.00895 -0.20256364 -118.76769 0.16377574 -118.61438 0.61946632 C -118.58598 0.70372764 -118.56072 0.79139579 -118.53842 0.8819826 C -118.53642 0.88947659 -118.53577 0.89717964 -118.53377 0.90472023 C -118.51377 0.98855365 -118.49659 1.0753142 -118.48209 1.1651694 C -118.47709 1.1987174 -118.47307 1.2340884 -118.46917 1.2685223 C -118.46017 1.3363812 -118.4511 1.4042304 -118.4454 1.4757448 C -118.4364 1.592012 -118.43052 1.7116597 -118.43042 1.8379966 C -118.4304 1.9113285 -118.43542 1.9858552 -118.44282 2.0612388 C -118.44482 2.0828048 -118.4486 2.1046581 -118.4516 2.1263511 C -118.4586 2.179458 -118.46581 2.2328752 -118.47641 2.286548 C -118.48241 2.316981 -118.4904 2.3474693 -118.4976 2.3780153 C -118.5085 2.4245433 -118.51975 2.4708953 -118.53325 2.5175417 C -118.54125 2.5457597 -118.55051 2.5740821 -118.55961 2.602291 C -118.57621 2.653799 -118.59385 2.7055061 -118.61335 2.7568036 C -118.62335 2.7828545 -118.63366 2.808884 -118.64436 2.834835 C -118.66376 2.8818119 -118.68467 2.9283721 -118.70637 2.9748781 C -118.72157 3.0074291 -118.73709 3.0397858 -118.75339 3.0720298 C -118.77769 3.1198678 -118.80359 3.1671498 -118.83039 3.21414 C -118.84309 3.236396 -118.85543 3.2587706 -118.86863 3.2808026 C -118.90233 3.3369315 -118.93804 3.392262 -118.97509 3.4466839 C -118.98699 3.4641749 -118.99803 3.4821049 -119.01023 3.4993939 C -119.05413 3.5614318 -119.10063 3.6216813 -119.14872 3.6807782 C -119.15372 3.6873582 -119.15882 3.694388 -119.16422 3.700932 C -119.5261 4.1383338 -120.00061 4.4849391 -120.53985 4.6254234 C -120.66806 4.6534773 -120.77791 4.674613 -120.88453 4.694153 C -120.88653 4.6944742 -120.88873 4.694871 -120.89073 4.6951865 C -120.98783 4.7129015 -121.07329 4.7260102 -121.1548 4.7375612 C -121.1738 4.7402512 -121.19489 4.7439662 -121.21319 4.7463462 C -121.29329 4.7568322 -121.3652 4.7639828 -121.43178 4.7690838 C -121.44318 4.7699457 -121.45541 4.7709577 -121.46641 4.7716677 C -121.52991 4.7758677 -121.58655 4.7778788 -121.63952 4.7778688 C -121.65212 4.7778423 -121.66473 4.7775895 -121.67673 4.7773521 C -121.72833 4.7764518 -121.77728 4.7742674 -121.82091 4.7701174 C -121.82391 4.7697851 -121.82773 4.7689171 -121.83073 4.7685671 C -122.02928 4.7484581 -122.15766 4.699941 -122.32785 4.665731 C -122.64862 4.5783311 -123.04433 4.4784155 -123.41461 4.4781455 C -125.21255 4.4782155 -126.67015 5.9358098 -126.67022 7.7337608 C -126.67022 7.8321757 -126.66424 7.9290237 -126.65524 8.0252158 C -126.56244 9.0682684 -125.9779 9.9677575 -125.13492 10.494316 C -125.13192 10.496216 -125.12861 10.497583 -125.12561 10.499483 C -124.95214 10.607054 -124.76842 10.698997 -124.57526 10.772852 C -124.54706 10.783712 -124.51859 10.793768 -124.48999 10.803858 C -124.43799 10.822098 -124.3861 10.840421 -124.3329 10.856051 C -124.2559 10.878881 -124.17753 10.898845 -124.09829 10.915995 C -124.06589 10.922895 -124.0329 10.928122 -124.0001 10.934082 C -123.9324 10.946562 -123.86408 10.956908 -123.79495 10.965088 C -123.76795 10.968188 -123.74101 10.971373 -123.71381 10.973873 C -123.61511 10.982973 -123.51569 10.989376 -123.41461 10.989376 C -123.04436 10.989266 -122.65498 10.885407 -122.32785 10.802307 C -122.00071 10.719207 -121.72372 10.689404 -121.46434 10.697404 C -121.35546 10.700804 -121.24223 10.711833 -121.13154 10.724793 C -121.03126 10.737693 -120.93394 10.754379 -120.84422 10.773369 C -120.84122 10.773983 -120.83844 10.774349 -120.83544 10.774919 C -120.79624 10.783319 -120.74874 10.78917 -120.714 10.79869 C -119.45162 11.14895 -118.82256 12.028201 -118.57046 12.814071 C -118.55566 12.860361 -118.5441 12.905481 -118.5317 12.951013 C -118.5036 13.055532 -118.47951 13.15874 -118.46401 13.256938 C -118.46101 13.274048 -118.4598 13.290194 -118.4578 13.307064 C -118.4425 13.417885 -118.43215 13.525328 -118.43145 13.622807 L -118.43145 15.497628 L -118.43145 18.844194 L -118.43145 19.091724 L -118.43145 19.096375 C -118.43213 20.188943 -119.15028 21.32794 -120.24788 21.799569 C -120.7605 22.021087 -121.20656 22.048922 -121.46589 22.056917 C -121.72527 22.064917 -122.0023 22.035117 -122.3294 21.952014 C -122.65653 21.868914 -123.04591 21.765056 -123.41616 21.764946 C -123.44376 21.764947 -123.47041 21.76848 -123.49781 21.76908 C -124.63885 21.79749 -125.63176 22.412157 -126.19067 23.324024 C -126.29882 23.500468 -126.39016 23.68766 -126.46352 23.884196 C -126.47052 23.903466 -126.47832 23.922634 -126.48522 23.942074 C -126.50532 23.999254 -126.52465 24.056596 -126.54155 24.11519 C -126.56075 24.1807 -126.57761 24.246987 -126.59271 24.314144 C -126.59471 24.323044 -126.59794 24.331579 -126.59994 24.340499 C -126.60694 24.371349 -126.61088 24.402873 -126.61648 24.434033 C -126.62918 24.502593 -126.6398 24.571752 -126.648 24.641773 C -126.651 24.669293 -126.65479 24.696725 -126.65679 24.724455 C -126.66579 24.822025 -126.67177 24.920592 -126.67177 25.020561 C -126.67176 25.130228 -126.66574 25.238317 -126.65524 25.345089 C -126.64824 25.414989 -126.63605 25.483268 -126.62475 25.551795 C -126.61975 25.584215 -126.61576 25.617373 -126.60976 25.649463 C -126.59016 25.749423 -126.5654 25.847048 -126.5369 25.943502 C -126.509 26.037792 -126.47668 26.129978 -126.44078 26.220488 C -126.43978 26.223688 -126.43865 26.227106 -126.43665 26.230306 C -126.03466 27.232865 -125.15048 27.990184 -124.06935 28.210547 C -123.85821 28.253587 -123.63948 28.276166 -123.41564 28.276176 C -123.32304 28.276109 -123.2287 28.269873 -123.13452 28.259123 C -123.04032 28.248353 -122.94657 28.233158 -122.85392 28.215198 C -122.66861 28.179258 -122.48928 28.132288 -122.32889 28.088591 C -122.00815 28.001121 -121.77265 27.987721 -121.46537 27.984721 C -121.15815 27.981721 -120.81479 28.066861 -120.40962 28.174374 C -120.30734 28.207904 -120.20816 28.251094 -120.11093 28.298914 C -120.09423 28.307114 -120.07741 28.315138 -120.06081 28.323718 C -119.96331 28.374408 -119.86803 28.430265 -119.77659 28.493217 C -119.77607 28.493571 -119.77552 28.49393 -119.77452 28.494251 C -118.97791 29.043426 -118.43058 30.033255 -118.43093 30.912191 C -118.43095 30.966581 -118.43617 31.016143 -118.43817 31.068771 C -118.45907 31.699331 -118.60059 32.206007 -118.82729 32.620097 C -118.87139 32.700567 -118.91859 32.777376 -118.96888 32.851091 C -118.98948 32.881101 -119.0125 32.90844 -119.034 32.93739 C -119.0679 32.98321 -119.1006 33.03006 -119.13683 33.073299 C -119.19503 33.142719 -119.25613 33.209052 -119.31977 33.272254 L -120.0391 33.967302 L -120.75844 34.66235 C -120.83524 34.73978 -120.91013 34.820016 -120.98323 34.902128 C -121.02503 34.948898 -121.06514 34.997668 -121.10571 35.045789 C -121.1289 35.073429 -121.15257 35.100411 -121.17547 35.128471 C -121.30518 35.287372 -121.42757 35.452829 -121.54392 35.623015 C -121.54492 35.624614 -121.54706 35.626065 -121.54806 35.627665 C -122.34505 36.795381 -122.81709 38.184135 -122.79966 39.209359 L -122.80018 39.697184 L -122.80224 42.461874 L -122.80328 43.756885 L -122.79604 45.805339 L -122.78726 48.563827 L -122.77795 51.396729 L -122.75728 51.396729 L -122.75728 51.893339 L -122.75728 54.656995 L -122.75728 57.937415 L -122.75728 58.003561 L -122.75728 60.767216 L -122.75728 63.92568 C -122.69748 63.95531 -122.6455 63.987468 -122.59502 64.020248 L -122.5945 64.020248 C -122.5397 64.055858 -122.49084 64.093698 -122.44567 64.132385 C -122.44367 64.134385 -122.44092 64.13607 -122.43792 64.13807 C -122.43721 64.138688 -122.43686 64.139437 -122.43586 64.140137 C -122.38986 64.180267 -122.34867 64.222027 -122.31132 64.264677 L -122.3108 64.265194 C -122.2741 64.307214 -122.24128 64.350104 -122.21158 64.393868 C -122.21058 64.395468 -122.20845 64.396919 -122.20745 64.398519 C -122.2069 64.399343 -122.20638 64.400303 -122.20538 64.401103 C -122.02072 64.676646 -121.95374 64.974465 -121.83486 65.218624 C -121.82066 65.248034 -121.80817 65.279938 -121.79197 65.307508 C -121.77617 65.334277 -121.75911 65.360272 -121.74081 65.385022 C -121.73381 65.394922 -121.72629 65.404908 -121.71859 65.414478 C -121.70019 65.437148 -121.67943 65.458037 -121.65813 65.478556 C -121.64593 65.490336 -121.63464 65.502696 -121.62144 65.513696 C -121.59824 65.532926 -121.57134 65.549716 -121.54444 65.566406 C -121.53074 65.574906 -121.51841 65.584425 -121.50361 65.592245 C -121.47491 65.607395 -121.44153 65.619736 -121.40853 65.632035 C -121.38963 65.639135 -121.3726 65.64768 -121.3522 65.65374 C -121.3206 65.66314 -121.2834 65.6691 -121.24782 65.67596 C -121.22102 65.68116 -121.19692 65.687793 -121.16772 65.691463 C -121.10112 65.699863 -121.02851 65.704383 -120.94809 65.704383 L -120.72433 65.704383 L -114.92779 65.704383 L -110.141 65.704383 L -109.64852 65.704383 L -104.34445 65.704383 L -99.557666 65.704383 L -98.347921 65.704383 C -97.182729 65.70439 -97.553947 64.783834 -96.898397 64.169076 C -96.898055 64.168755 -96.897674 64.168329 -96.897364 64.168042 C -96.863774 64.136602 -96.827254 64.105788 -96.788326 64.076058 C -96.741486 64.040778 -96.691936 64.006508 -96.635881 63.974256 C -96.609741 63.958966 -96.580058 63.944851 -96.551648 63.930331 C -96.480918 63.894691 -96.405783 63.860975 -96.320138 63.830595 C -96.310838 63.827295 -96.303253 63.8235 -96.293783 63.82026 L -96.293266 63.819743 C -95.947559 63.702144 -95.477077 63.629574 -94.824105 63.629574 L -90.309652 63.629574 L -90.309652 61.734082 C -90.309652 60.491464 -89.302283 59.484095 -88.05966 59.48409 L -82.986585 59.48409 L -78.199797 59.48409 L -77.497514 59.48409 L -77.497514 59.07843 L -77.497514 56.314775 L -77.497514 52.968209 L -77.497514 50.204553 L -77.497514 46.857988 L -77.497514 44.094332 L -77.497514 40.747766 L -77.497514 37.984111 L -77.497514 34.637028 L -77.497514 31.873373 L -77.497514 28.526807 L -77.497514 25.763151 L -77.497514 22.416585 L -77.497514 19.65293 L -77.497514 16.306364 L -77.497514 13.542709 L -77.497514 10.196143 L -77.497514 7.4324872 L -77.497514 4.0859214 L -77.497514 1.3222658 L -77.497514 -2.0243 L -77.497514 -4.7879556 L -77.497514 -8.1345213 L -77.497514 -10.898177 L -77.497514 -14.244743 L -77.497514 -17.008398 L -77.497514 -20.354964 L -77.497514 -23.11862 L -77.497514 -26.465702 L -77.497514 -27.225862 L -80.968103 -27.225862 L -86.764132 -27.225862 L -88.05966 -27.225862 C -88.14888 -27.225863 -88.23674 -27.232259 -88.32321 -27.242399 C -88.34378 -27.244799 -88.363788 -27.248701 -88.384188 -27.251701 C -88.449238 -27.261201 -88.513315 -27.272964 -88.576424 -27.287874 C -88.601374 -27.293774 -88.626218 -27.300294 -88.650838 -27.306994 C -88.709168 -27.322934 -88.766588 -27.341341 -88.822921 -27.361771 C -88.845701 -27.369971 -88.868704 -27.377636 -88.891134 -27.386576 C -88.958604 -27.413556 -89.024478 -27.443333 -89.088538 -27.476493 C -89.097338 -27.481093 -89.10665 -27.484792 -89.11541 -27.489412 C -89.1921 -27.530412 -89.26603 -27.576012 -89.337101 -27.625321 C -89.407501 -27.674171 -89.474896 -27.727091 -89.539156 -27.783451 C -89.544256 -27.787851 -89.549153 -27.792447 -89.554143 -27.796887 C -89.615452 -27.851627 -89.673783 -27.909452 -89.728809 -27.97052 C -89.730809 -27.97282 -89.73301 -27.974938 -89.73501 -27.977238 C -89.7928 -28.041898 -89.847132 -28.109827 -89.897274 -28.180843 C -90.156004 -28.547275 -90.309652 -28.993184 -90.309652 -29.475854 L -90.309652 -31.28918 L -90.309652 -31.475732 L -94.773462 -31.475732 L -94.824105 -31.475732 C -97.439054 -31.475732 -97.137612 -32.634902 -97.548487 -33.220329 C -97.578877 -33.263629 -97.615277 -33.301829 -97.65494 -33.338151 C -97.66064 -33.343351 -97.664036 -33.350174 -97.669926 -33.355204 L -97.670443 -33.355721 C -97.701553 -33.382231 -97.741403 -33.402721 -97.77948 -33.424451 C -97.79934 -33.43582 -97.814821 -33.450167 -97.836841 -33.460107 C -97.888441 -33.483317 -97.950563 -33.499768 -98.015642 -33.514367 C -98.030472 -33.517667 -98.040866 -33.52397 -98.056466 -33.52677 L -98.056983 -33.52677 C -98.141673 -33.54218 -98.237903 -33.550541 -98.347921 -33.550541 L -101.7627 -33.550541 L -107.55925 -33.550541 L -109.64852 -33.550541 L -112.34603 -33.550541 L -118.14258 -33.550541 L -120.94861 -33.550541 z M -99.245024 -31.193579 C -99.046471 -31.168659 -98.999433 -30.83089 -98.888456 -30.689217 C -98.807024 -30.602981 -98.722549 -30.522655 -98.636275 -30.445304 A 1.8010006 1.8010006 0 0 1 -98.331901 -30.49388 A 1.8010006 1.8010006 0 0 1 -96.530978 -28.69244 A 1.8010006 1.8010006 0 0 1 -97.193986 -27.314746 L -94.159546 -29.066577 C -93.661324 -29.057677 -93.165896 -29.067577 -92.689352 -29.085697 C -92.590652 -28.351849 -92.323767 -27.637701 -91.92299 -27.011405 L -121.084 -10.17574 C -121.20902 -11.2336 -121.30397 -12.29377 -121.37132 -13.355908 L -97.762427 -26.986601 A 1.8010006 1.8010006 0 0 1 -98.331901 -26.891516 A 1.8010006 1.8010006 0 0 1 -100.08787 -28.407702 L -121.49431 -16.048767 C -121.52651 -17.154469 -121.53747 -18.261694 -121.53927 -19.369494 L -101.08264 -31.180143 C -100.50165 -31.181643 -99.920571 -31.18216 -99.339592 -31.18376 C -99.304392 -31.19444 -99.273394 -31.197159 -99.245024 -31.193579 z M -105.887 -31.169808 L -121.5279 -22.139351 C -121.5177 -23.260559 -121.50738 -24.381734 -121.49948 -25.502453 L -111.70525 -31.156889 C -109.76579 -31.160689 -107.82642 -31.165588 -105.887 -31.169808 z M -116.51012 -31.146553 L -119.33269 -29.516679 A 1.8010006 1.8010006 0 0 1 -119.13063 -28.69244 A 1.8010006 1.8010006 0 0 1 -120.93207 -26.891516 A 1.8010006 1.8010006 0 0 1 -122.733 -28.69244 A 1.8010006 1.8010006 0 0 1 -120.93207 -30.49388 A 1.8010006 1.8010006 0 0 1 -120.6339 -30.465975 C -120.4544 -30.678376 -120.28988 -30.904709 -120.14452 -31.138802 C -118.93308 -31.141502 -117.72158 -31.144053 -116.51012 -31.146553 z M -90.074007 -25.315385 C -89.997707 -25.276925 -89.920793 -25.239285 -89.84198 -25.205314 C -88.26988 -24.944706 -86.68365 -24.865062 -85.093433 -24.844612 L -89.585665 -22.250972 C -89.452437 -22.301189 -89.309244 -22.331588 -89.157784 -22.331588 L -86.80599 -22.331588 C -86.345795 -22.331588 -85.952538 -22.075009 -85.750757 -21.700618 L -80.303028 -24.846163 C -80.164932 -24.844863 -80.026575 -24.845773 -79.888583 -24.843579 C -79.888805 -23.808329 -79.888877 -22.773075 -79.889099 -21.737825 L -87.522225 -17.330859 L -85.606063 -17.330859 L -85.606063 -15.673596 L -79.889616 -18.97417 C -79.889855 -17.858477 -79.890444 -16.742779 -79.89065 -15.627087 L -86.057198 -12.066581 C -85.78338 -11.849017 -85.60503 -11.51881 -85.60503 -11.142606 C -85.60503 -10.483901 -86.140632 -9.9535317 -86.80599 -9.9535317 L -89.157784 -9.9535317 C -89.307166 -9.9535317 -89.448269 -9.9842017 -89.579981 -10.033113 L -98.886906 -4.659798 A 2.1 2.1 0 0 1 -98.57168 -3.5575397 A 2.1 2.1 0 0 1 -100.67181 -1.4579263 A 2.1 2.1 0 0 1 -102.49857 -2.5741372 L -107.98868 0.5951784 A 1.8 1.8 0 0 1 -107.64193 1.6524782 A 1.8 1.8 0 0 1 -109.44182 3.4523683 A 1.8 1.8 0 0 1 -111.06963 2.3738812 L -121.43488 8.3585288 C -121.6314 8.364824 -121.82821 8.3784733 -122.02451 8.3941856 A 1.8 1.8 0 0 1 -123.64198 9.4525189 A 1.8 1.8 0 0 1 -125.44187 7.652112 A 1.8 1.8 0 0 1 -123.64198 5.8522219 A 1.8 1.8 0 0 1 -121.92684 7.1131268 C -121.09343 7.1259181 -120.26457 7.0426257 -119.48203 6.7317547 C -117.4317 6.0549855 -116.20721 4.0117381 -116.08896 1.9253298 L -86.851465 -14.954777 L -90.357711 -14.954777 L -90.357711 -15.69375 L -116.52666 -0.58562808 C -116.65121 -0.86546939 -116.80209 -1.134435 -116.98089 -1.3881631 C -117.4512 -1.8619672 -117.89411 -2.3702647 -118.30278 -2.9069334 L -88.777446 -19.953438 L -89.157784 -19.953438 C -89.823144 -19.953438 -90.358745 -20.483808 -90.358745 -21.142513 C -90.358745 -21.516862 -90.182203 -21.845752 -89.91071 -22.063387 L -119.59624 -4.9243813 C -120.05608 -5.791288 -120.4238 -6.7043219 -120.67731 -7.646179 L -102.6288 -18.066732 A 2.1010005 2.1010005 0 0 1 -102.77297 -18.797436 A 2.1010005 2.1010005 0 0 1 -100.67181 -20.8986 A 2.1010005 2.1010005 0 0 1 -99.064156 -20.124487 L -90.074007 -25.315385 z M -79.891166 -12.862915 C -79.891405 -11.747396 -79.891444 -10.631868 -79.891683 -9.5163491 L -85.606063 -6.2173257 L -85.606063 -4.9548704 L -87.792493 -4.9548704 L -113.82656 10.075737 L -113.8338 10.075737 L -117.53538 10.075737 C -117.7815 9.8050115 -118.05702 9.5607561 -118.35807 9.3450319 L -90.357711 -6.8203896 L -90.357711 -7.330436 L -89.474044 -7.330436 L -79.891166 -12.862915 z M -79.892717 -6.7521767 C -79.892956 -5.6364862 -79.892994 -4.5207847 -79.893233 -3.4050942 L -107.9432 12.789266 A 1.8 1.8 0 0 1 -107.69205 13.702389 A 1.8 1.8 0 0 1 -109.49194 15.502279 A 1.8 1.8 0 0 1 -111.0412 14.578304 L -111.95433 15.105404 L -111.95433 11.758838 L -101.26506 5.5876385 A 1.8 1.8 0 0 1 -101.54773 4.6491945 A 1.8 1.8 0 0 1 -99.747836 2.8493044 A 1.8 1.8 0 0 1 -98.165503 3.7975669 L -90.286914 -0.75099266 C -90.330326 -0.87418151 -90.358745 -1.004493 -90.358745 -1.1427 C -90.358745 -1.8014054 -89.823144 -2.3317747 -89.157784 -2.3317747 L -87.549097 -2.3317747 L -79.892717 -6.7521767 z M -79.89375 -0.64092186 C -79.893988 0.47459613 -79.894029 1.5901261 -79.894267 2.7056439 L -88.489091 7.6681317 L -86.80599 7.6681317 C -86.170326 7.6681317 -85.65872 8.1538311 -85.613815 8.7714235 L -79.895301 5.4698163 C -79.89554 6.585506 -79.895578 7.701209 -79.895817 8.8168988 L -86.568795 12.669377 L -85.606063 12.669377 L -85.606063 14.877511 L -79.896334 11.581071 C -79.896573 12.696589 -79.897163 13.812119 -79.897368 14.927637 L -85.747657 18.305209 C -85.659666 18.470712 -85.60503 18.65639 -85.60503 18.857113 C -85.60503 19.515818 -86.140632 20.046188 -86.80599 20.046188 L -88.762976 20.046188 L -98.704488 25.786406 A 1.8 1.8 0 0 1 -97.947945 27.249365 A 1.8 1.8 0 0 1 -98.301929 28.317517 L -90.357711 23.730717 L -90.357711 22.669283 L -88.519064 22.669283 L -79.897884 17.691809 C -79.898123 18.807499 -79.898162 19.923202 -79.898401 21.038892 L -85.606063 24.334298 L -85.606063 25.045366 L -86.837512 25.045366 L -110.04178 38.442481 A 1.8 1.8 0 0 1 -111.78173 39.862549 A 1.8 1.8 0 0 1 -112.34397 39.771598 L -120.40756 44.427128 C -120.41996 43.307626 -120.41897 42.188349 -120.38947 41.06971 L -118.21182 39.812423 L -119.08154 39.812423 L -119.26447 39.793819 L -119.46188 39.72819 L -119.63964 39.618636 L -119.78692 39.471358 L -119.89699 39.294108 L -119.96262 39.096704 L -119.98174 38.912219 L -119.98174 38.070927 L -120.15021 38.168079 C -120.10422 38.020456 -120.0455 37.879507 -119.98174 37.741231 L -119.98174 37.112329 L -119.96314 36.929911 L -119.89751 36.731991 L -119.78796 36.554741 L -119.64068 36.406946 L -119.46343 36.297392 L -119.26602 36.231246 L -119.08206 36.212126 L -118.88517 36.212126 C -118.24884 35.528561 -117.53001 34.890738 -117.01603 34.150753 C -116.64643 33.665692 -116.39222 33.126626 -116.23882 32.562736 L -85.897001 15.045459 L -90.357711 15.045459 L -90.357711 14.85684 L -116.24502 29.802698 C -116.48647 28.856626 -116.96356 27.967489 -117.62685 27.254533 L -87.821948 10.046281 L -89.157784 10.046281 C -89.823144 10.046281 -90.358745 9.5159117 -90.358745 8.8572064 C -90.358745 8.8173608 -90.350689 8.7797513 -90.346859 8.7409344 L -107.66208 18.738257 A 1.8 1.8 0 0 1 -107.64193 18.992505 A 1.8 1.8 0 0 1 -109.44182 20.792395 A 1.8 1.8 0 0 1 -110.54563 20.402755 L -111.95433 21.216142 L -111.95433 17.869576 L -89.742761 5.0455527 L -90.357711 5.0455527 L -90.357711 2.6694704 L -85.62725 2.6694704 L -79.89375 -0.64092186 z M -115.37531 11.909216 L -114.12525 11.909216 L -114.12525 13.011992 L -114.12525 16.358557 L -114.12525 19.12273 L -114.12525 20.807898 L -115.37531 20.807898 L -115.37531 19.844133 L -115.37531 17.07996 L -115.37531 13.733911 L -115.37531 11.909216 z M -117.47699 22.641378 L -114.42343 22.641378 L -119.89751 25.801909 C -120.56649 25.619179 -121.27724 25.60534 -121.98472 25.655664 A 1.8 1.8 0 0 1 -123.64198 26.792546 A 1.8 1.8 0 0 1 -125.44187 24.992139 A 1.8 1.8 0 0 1 -123.64198 23.192249 A 1.8 1.8 0 0 1 -121.93615 24.421114 C -120.27227 24.443117 -118.58316 23.915512 -117.47699 22.641378 z M -79.898918 23.802547 C -79.899157 24.918237 -79.899746 26.03394 -79.899951 27.14963 L -89.460091 32.66919 L -85.606063 32.66919 L -85.606063 33.208175 L -79.900468 29.913802 C -79.900707 31.029493 -79.900746 32.145194 -79.900985 33.260885 L -87.535144 37.668368 L -86.80599 37.668368 C -86.140632 37.668368 -85.60503 38.198737 -85.60503 38.857442 C -85.60503 39.052459 -85.656538 39.233317 -85.739905 39.395394 L -79.901502 36.02454 C -79.901742 37.140403 -79.902329 38.256276 -79.902535 39.37214 L -85.613298 42.669096 L -85.606063 42.669096 L -85.606063 45.045178 L -89.728809 45.045178 L -99.536996 50.707882 A 1.8 1.8 0 0 1 -99.432093 51.312496 A 1.8 1.8 0 0 1 -101.23198 53.112386 A 1.8 1.8 0 0 1 -102.58849 52.470048 L -120.36983 62.735571 C -120.36989 62.674249 -120.36978 62.612926 -120.36983 62.551603 A 1.8 1.8 0 0 1 -120.93207 62.642554 A 1.8 1.8 0 0 1 -122.73196 60.842147 A 1.8 1.8 0 0 1 -120.93207 59.042257 A 1.8 1.8 0 0 1 -120.11403 59.240694 L -107.2063 51.788953 A 1.8 1.8 0 0 1 -107.28174 51.312496 A 1.8 1.8 0 0 1 -105.48185 49.512089 A 1.8 1.8 0 0 1 -104.19821 50.052108 L -86.868002 40.046517 L -89.157784 40.046517 C -89.681041 40.046517 -90.119474 39.71634 -90.284847 39.255868 L -110.09242 50.691862 A 1.8010005 1.8010005 0 0 1 -109.9808 51.312496 A 1.8010005 1.8010005 0 0 1 -111.78173 53.11342 A 1.8010005 1.8010005 0 0 1 -113.15167 52.458163 L -120.37655 56.629484 C -120.37755 55.514653 -120.37968 54.399813 -120.38068 53.284986 L -119.6784 52.879842 L -119.78692 52.771322 L -119.89699 52.594072 L -119.96262 52.396668 L -119.98174 52.212183 L -119.98174 50.412293 L -119.96882 50.283618 L -120.37448 50.517713 C -120.35268 49.402141 -120.35782 48.286154 -120.37242 47.170113 L -106.72054 39.287907 A 1.8 1.8 0 0 1 -107.28174 38.012533 A 1.8 1.8 0 0 1 -105.48185 36.212126 A 1.8 1.8 0 0 1 -103.73984 37.567082 L -102.58332 36.899422 A 1.8 1.8 0 0 1 -101.47279 36.258118 L -90.041451 29.658521 C -90.236923 29.44719 -90.358745 29.16799 -90.358745 28.857536 C -90.358745 28.198831 -89.823144 27.668461 -89.157784 27.668461 L -86.80599 27.668461 C -86.744235 27.668461 -86.684835 27.677216 -86.625639 27.686031 L -79.898918 23.802547 z M -101.52189 27.412663 L -107.69567 30.977303 A 1.8 1.8 0 0 1 -107.69205 31.042416 A 1.8 1.8 0 0 1 -109.49194 32.842306 A 1.8 1.8 0 0 1 -110.43349 32.558085 L -116.90648 36.295325 L -116.90131 36.296875 L -116.72406 36.405912 L -116.57678 36.55319 L -116.46671 36.73044 L -116.40108 36.928361 L -116.38196 37.112329 L -116.38196 38.756157 L -113.08811 36.854464 A 1.8 1.8 0 0 1 -112.1693 36.323747 L -99.502372 29.010498 A 1.8 1.8 0 0 1 -99.747836 29.049256 A 1.8 1.8 0 0 1 -101.52189 27.412663 z M -90.357711 33.187504 L -99.449146 38.436279 A 1.8 1.8 0 0 1 -101.18186 39.812423 A 1.8 1.8 0 0 1 -101.6919 39.731291 L -118.63247 49.512089 L -117.28165 49.512089 L -117.09923 49.531209 L -116.90131 49.596839 L -116.72406 49.705876 L -116.57678 49.853154 L -116.46671 50.030404 L -116.40108 50.228325 L -116.38196 50.412293 L -116.38196 50.976083 L -88.788298 35.045272 L -90.357711 35.045272 L -90.357711 33.187504 z M -79.903052 42.136312 C -79.903292 43.252003 -79.903329 44.367703 -79.903569 45.483395 L -85.612781 48.779317 C -85.611044 48.805601 -85.60503 48.830616 -85.60503 48.857349 C -85.60503 49.516054 -86.140632 50.046424 -86.80599 50.046424 L -87.806962 50.046424 L -110.7761 63.307113 C -112.71223 63.309413 -114.64839 63.312048 -116.58453 63.314348 L -79.903052 42.136312 z M -79.904086 48.24705 C -79.904326 49.362742 -79.904912 50.47844 -79.905119 51.594133 L -85.606063 54.885405 L -85.606063 55.045085 L -85.882532 55.045085 L -96.592989 61.228687 A 1.8 1.8 0 0 1 -98.331901 62.642554 A 1.8 1.8 0 0 1 -98.888456 62.554187 L -100.17055 63.294194 C -102.10688 63.296494 -104.04319 63.299128 -105.9795 63.301428 L -99.652234 59.648421 A 1.8 1.8 0 0 1 -98.705005 59.101685 L -90.357711 54.282341 L -90.357711 52.669519 L -87.564083 52.669519 L -79.904086 48.24705 z M -79.905636 54.358305 C -79.905834 55.273321 -79.905955 56.188341 -79.906153 57.103357 C -81.492773 57.101057 -83.079431 57.100058 -84.666069 57.106458 L -79.905636 54.358305 z " /></g><g
     inkscape:groupmode="layer"
     id="layer4"
     inkscape:label="mask"
     style="display:inline"><g
       style="fill:#fa801d;fill-opacity:1;stroke:#000000;stroke-width:0.833333;stroke-linecap:round;stroke-linejoin:round;stroke-opacity:1"
       id="g128724"
       transform="matrix(1.2e-6,0,0,1.2e-6,-96.531096,-43.859146)" /><g
       style="fill:#fa801d;fill-opacity:1;stroke:#000000;stroke-width:0.833333;stroke-linecap:round;stroke-linejoin:round;stroke-opacity:1"
       id="g128730"
       transform="matrix(1.2e-6,0,0,1.2e-6,-101.0511,-43.859146)" /><g
       style="fill:#fa801d;fill-opacity:1;stroke:#000000;stroke-width:0.833333;stroke-linecap:round;stroke-linejoin:round;stroke-opacity:1"
       id="g128740"
       transform="matrix(1.2e-6,0,0,1.2e-6,-100.7679,-32.620542)" /><g
       style="fill:#fa801d;fill-opacity:1;stroke:#000000;stroke-width:0.833333;stroke-linecap:round;stroke-linejoin:round;stroke-opacity:1"
       id="g128746"
       transform="matrix(1.2e-6,0,0,1.2e-6,-100.7679,-37.140544)" /><g
       style="fill:#000000;fill-opacity:1;stroke:#000000;stroke-width:0.833333;stroke-linecap:round;stroke-linejoin:round;stroke-opacity:1"
       id="g128948"
       transform="matrix(1.2e-6,0,0,1.2000001e-6,-103.1211,-42.462149)" /><g
       style="fill:#fa801d;fill-opacity:1;stroke:#000000;stroke-width:0.833333;stroke-linecap:round;stroke-linejoin:round;stroke-opacity:1"
       id="g128970"
       transform="matrix(1.2e-6,0,0,1.2e-6,-95.989096,-33.221143)" /><g
       style="fill:#fa801d;fill-opacity:1;stroke:#000000;stroke-width:0.833333;stroke-linecap:round;stroke-linejoin:round;stroke-opacity:1"
       id="g128982"
       transform="matrix(1.2e-6,0,0,1.2e-6,-98.819097,-34.431143)" /><g
       style="fill:#fa801d;fill-opacity:1;stroke:#000000;stroke-width:0.833333;stroke-linecap:round;stroke-linejoin:round;stroke-opacity:1"
       id="g128988"
       transform="matrix(1.2e-6,0,0,1.2e-6,-98.829097,-32.021142)" /><g
       style="fill:#fa801d;fill-opacity:1;stroke:#000000;stroke-width:0.833333;stroke-linecap:round;stroke-linejoin:round;stroke-opacity:1"
       id="g129040"
       transform="matrix(1.2e-6,0,0,1.2e-6,-98.361097,-39.303144)" /><g
       style="fill:#fa801d;fill-opacity:1;stroke:#000000;stroke-width:0.833333;stroke-linecap:round;stroke-linejoin:round;stroke-opacity:1"
       id="g129046"
       transform="matrix(1.2e-6,0,0,1.2e-6,-99.621097,-41.953145)" /><g
       style="fill:#fa801d;fill-opacity:1;stroke:#000000;stroke-width:0.833333;stroke-linecap:round;stroke-linejoin:round;stroke-opacity:1"
       id="g129052"
       transform="matrix(1.2e-6,0,0,1.2e-6,-99.621097,-39.293144)" /><g
       style="fill:#fa801d;fill-opacity:1;stroke:#000000;stroke-width:0.833333;stroke-linecap:round;stroke-linejoin:round;stroke-opacity:1"
       id="g129058"
       transform="matrix(1.2e-6,0,0,1.2e-6,-100.4711,-41.953145)" /><g
       style="fill:#fa801d;fill-opacity:1;stroke:#000000;stroke-width:0.833333;stroke-linecap:round;stroke-linejoin:round;stroke-opacity:1"
       id="g129064"
       transform="matrix(1.2e-6,0,0,1.2e-6,-100.4811,-39.293144)" /><g
       style="fill:#000000;fill-opacity:1;stroke:#000000;stroke-width:0.833333;stroke-linecap:round;stroke-linejoin:round;stroke-opacity:1"
       id="g129106"
       transform="matrix(1.2e-6,0,0,1.2000001e-6,-103.1211,-34.462145)" /><g
       style="fill:#000000;fill-opacity:1;stroke:#000000;stroke-width:0.833333;stroke-linecap:round;stroke-linejoin:round;stroke-opacity:1"
       id="g129128"
       transform="matrix(1.2e-6,0,0,1.2000001e-6,-103.1211,-38.462147)" /><g
       style="fill:#fa801d;fill-opacity:1;stroke:#000000;stroke-width:0.833333;stroke-linecap:round;stroke-linejoin:round;stroke-opacity:1"
       id="g129270"
       transform="matrix(1.2e-6,0,0,1.2e-6,-100.5831,-30.979141)" /><g
       style="fill:#fa801d;fill-opacity:1;stroke:#000000;stroke-width:0.833333;stroke-linecap:round;stroke-linejoin:round;stroke-opacity:1"
       id="g129298"
       transform="matrix(1.2e-6,0,0,1.2e-6,-98.829097,-35.489143)" /><g
       style="fill:#fa801d;fill-opacity:1;stroke:#000000;stroke-width:0.833333;stroke-linecap:round;stroke-linejoin:round;stroke-opacity:1"
       id="g129304"
       transform="matrix(1.2e-6,0,0,1.2e-6,-98.819097,-37.899144)" /><g
       style="fill:#fa801d;fill-opacity:1;stroke:#000000;stroke-width:0.833333;stroke-linecap:round;stroke-linejoin:round;stroke-opacity:1"
       id="g129316"
       transform="matrix(1.2e-6,0,0,1.2e-6,-95.989096,-36.689144)" /></g></svg>
