999
"DXF R12 Output" (www.mydxf.blogspot.com)
 0 
SECTION
 2 
HEADER
 9 
$ACADVER
 1 
AC1009
 9 
$EXTMIN
 10 
 0 
 20 
 0 
 9 
$EXTMAX
 10 
 8.5 
 20 
 11 
 0 
ENDSEC
 0 
SECTION
 2 
ENTITIES
0
LINE
8
Layer 1
10
118.209000
20
229.194000
11
118.209000
21
205.597000
0
LINE
8
Layer 1
10
118.209000
20
205.597000
11
118.483000
21
203.911000
0
LINE
8
Layer 1
10
118.483000
20
203.911000
11
118.508000
21
203.827000
0
LINE
8
Layer 1
10
118.508000
20
203.827000
11
119.287047
21
202.158516
0
LINE
8
Layer 1
10
119.287047
20
202.158516
11
120.233625
21
200.826875
0
LINE
8
Layer 1
10
120.233625
20
200.826875
11
121.369000
21
199.626000
0
LINE
8
Layer 1
10
121.369000
20
199.626000
11
122.802000
21
198.231000
0
LINE
8
Layer 1
10
122.802000
20
198.231000
11
122.807000
21
198.236000
0
LINE
8
Layer 1
10
122.807000
20
198.236000
11
122.920000
21
198.108000
0
LINE
8
Layer 1
10
122.920000
20
198.108000
11
123.009000
21
198.008000
0
LINE
8
Layer 1
10
123.009000
20
198.008000
11
123.420500
21
197.364125
0
LINE
8
Layer 1
10
123.420500
20
197.364125
11
123.622000
21
196.709000
0
LINE
8
Layer 1
10
123.622000
20
196.709000
11
123.698000
21
196.033000
0
LINE
8
Layer 1
10
123.698000
20
196.033000
11
123.696000
21
195.984000
0
LINE
8
Layer 1
10
123.696000
20
195.984000
11
123.698000
21
195.984000
0
LINE
8
Layer 1
10
123.698000
20
195.984000
11
123.658000
21
195.493000
0
LINE
8
Layer 1
10
123.658000
20
195.493000
11
123.326000
21
194.533000
0
LINE
8
Layer 1
10
123.326000
20
194.533000
11
122.850000
21
193.882000
0
LINE
8
Layer 1
10
122.850000
20
193.882000
11
122.821000
21
193.850000
0
LINE
8
Layer 1
10
122.821000
20
193.850000
11
122.814000
21
193.844000
0
LINE
8
Layer 1
10
122.814000
20
193.844000
11
122.657000
21
193.697000
0
LINE
8
Layer 1
10
122.657000
20
193.697000
11
122.227000
21
193.384000
0
LINE
8
Layer 1
10
122.227000
20
193.384000
11
122.093000
21
193.309000
0
LINE
8
Layer 1
10
122.093000
20
193.309000
11
122.025000
21
193.272000
0
LINE
8
Layer 1
10
122.025000
20
193.272000
11
121.404625
21
193.024125
0
LINE
8
Layer 1
10
121.404625
20
193.024125
11
120.662000
21
192.948000
0
LINE
8
Layer 1
10
120.662000
20
192.948000
11
120.662000
21
192.948000
0
LINE
8
Layer 1
10
120.662000
20
192.948000
11
119.991000
21
193.008000
0
LINE
8
Layer 1
10
119.991000
20
193.008000
11
118.713000
21
193.240000
0
LINE
8
Layer 1
10
118.713000
20
193.240000
11
118.712000
21
193.240000
0
LINE
8
Layer 1
10
118.712000
20
193.240000
11
117.596750
21
193.043750
0
LINE
8
Layer 1
10
117.596750
20
193.043750
11
116.648000
21
192.501000
0
LINE
8
Layer 1
10
116.648000
20
192.501000
11
116.633000
21
192.490000
0
LINE
8
Layer 1
10
116.633000
20
192.490000
11
116.453000
21
192.325000
0
LINE
8
Layer 1
10
116.453000
20
192.325000
11
116.362000
21
192.234000
0
LINE
8
Layer 1
10
116.362000
20
192.234000
11
116.272000
21
192.135000
0
LINE
8
Layer 1
10
116.272000
20
192.135000
11
116.115000
21
191.941000
0
LINE
8
Layer 1
10
116.115000
20
191.941000
11
116.100000
21
191.923000
0
LINE
8
Layer 1
10
116.100000
20
191.923000
11
115.641250
21
191.043500
0
LINE
8
Layer 1
10
115.641250
20
191.043500
11
115.457000
21
189.984000
0
LINE
8
Layer 1
10
115.457000
20
189.984000
11
115.457000
21
189.963000
0
LINE
8
Layer 1
10
115.457000
20
189.963000
11
115.701000
21
188.748625
0
LINE
8
Layer 1
10
115.701000
20
188.748625
11
116.353000
21
187.745000
0
LINE
8
Layer 1
10
116.353000
20
187.745000
11
117.445000
21
186.984000
0
LINE
8
Layer 1
10
117.445000
20
186.984000
11
117.445000
21
186.984000
0
LINE
8
Layer 1
10
117.445000
20
186.984000
11
117.451000
21
186.982000
0
LINE
8
Layer 1
10
117.451000
20
186.982000
11
118.712000
21
186.729000
0
LINE
8
Layer 1
10
118.712000
20
186.729000
11
119.798000
21
186.916000
0
LINE
8
Layer 1
10
119.798000
20
186.916000
11
119.800000
21
186.916000
0
LINE
8
Layer 1
10
119.800000
20
186.916000
11
120.665000
21
187.040250
0
LINE
8
Layer 1
10
120.665000
20
187.040250
11
121.531656
21
186.909531
0
LINE
8
Layer 1
10
121.531656
20
186.909531
11
122.502000
21
186.398000
0
LINE
8
Layer 1
10
122.502000
20
186.398000
11
122.578000
21
186.333000
0
LINE
8
Layer 1
10
122.578000
20
186.333000
11
122.680000
21
186.244000
0
LINE
8
Layer 1
10
122.680000
20
186.244000
11
122.904000
21
186.025000
0
LINE
8
Layer 1
10
122.904000
20
186.025000
11
122.978000
21
185.939000
0
LINE
8
Layer 1
10
122.978000
20
185.939000
11
123.180000
21
185.673000
0
LINE
8
Layer 1
10
123.180000
20
185.673000
11
123.211000
21
185.629000
0
LINE
8
Layer 1
10
123.211000
20
185.629000
11
123.517859
21
185.019016
0
LINE
8
Layer 1
10
123.517859
20
185.019016
11
123.659625
21
184.493125
0
LINE
8
Layer 1
10
123.659625
20
184.493125
11
123.698000
21
183.985000
0
LINE
8
Layer 1
10
123.698000
20
183.985000
11
123.698000
21
182.537000
0
LINE
8
Layer 1
10
123.698000
20
182.537000
11
123.697000
21
180.145000
0
LINE
8
Layer 1
10
123.697000
20
180.145000
11
123.697000
21
178.714000
0
LINE
8
Layer 1
10
123.697000
20
178.714000
11
123.625391
21
177.977295
0
LINE
8
Layer 1
10
123.625391
20
177.977295
11
123.417000
21
177.364797
0
LINE
8
Layer 1
10
123.417000
20
177.364797
11
122.736500
21
176.472625
0
LINE
8
Layer 1
10
122.736500
20
176.472625
11
121.948750
21
175.957891
0
LINE
8
Layer 1
10
121.948750
20
175.957891
11
121.347000
21
175.741000
0
LINE
8
Layer 1
10
121.347000
20
175.741000
11
120.635406
21
175.655344
0
LINE
8
Layer 1
10
120.635406
20
175.655344
11
120.053000
21
175.713500
0
LINE
8
Layer 1
10
120.053000
20
175.713500
11
118.861000
21
175.938000
0
LINE
8
Layer 1
10
118.861000
20
175.938000
11
118.809000
21
175.943000
0
LINE
8
Layer 1
10
118.809000
20
175.943000
11
118.712000
21
175.953000
0
LINE
8
Layer 1
10
118.712000
20
175.953000
11
117.661844
21
175.787953
0
LINE
8
Layer 1
10
117.661844
20
175.787953
11
116.580000
21
175.135875
0
LINE
8
Layer 1
10
116.580000
20
175.135875
11
115.750156
21
174.078609
0
LINE
8
Layer 1
10
115.750156
20
174.078609
11
115.518387
21
173.423607
0
LINE
8
Layer 1
10
115.518387
20
173.423607
11
115.456000
21
172.698000
0
LINE
8
Layer 1
10
115.456000
20
172.698000
11
115.729594
21
171.417719
0
LINE
8
Layer 1
10
115.729594
20
171.417719
11
116.290250
21
170.546750
0
LINE
8
Layer 1
10
116.290250
20
170.546750
11
116.952531
21
169.992656
0
LINE
8
Layer 1
10
116.952531
20
169.992656
11
117.531000
21
169.663000
0
LINE
8
Layer 1
10
117.531000
20
169.663000
11
118.244000
21
169.468125
0
LINE
8
Layer 1
10
118.244000
20
169.468125
11
118.885000
21
169.460000
0
LINE
8
Layer 1
10
118.885000
20
169.460000
11
118.944000
21
169.462000
0
LINE
8
Layer 1
10
118.944000
20
169.462000
11
119.158000
21
169.482000
0
LINE
8
Layer 1
10
119.158000
20
169.482000
11
120.662000
21
169.733000
0
LINE
8
Layer 1
10
120.662000
20
169.733000
11
121.279719
21
169.675937
0
LINE
8
Layer 1
10
121.279719
20
169.675937
11
122.070500
21
169.384500
0
LINE
8
Layer 1
10
122.070500
20
169.384500
11
122.860531
21
168.793062
0
LINE
8
Layer 1
10
122.860531
20
168.793062
11
123.476000
21
167.836000
0
LINE
8
Layer 1
10
123.476000
20
167.836000
11
123.682437
21
166.940078
0
LINE
8
Layer 1
10
123.682437
20
166.940078
11
123.641000
21
166.140625
0
LINE
8
Layer 1
10
123.641000
20
166.140625
11
123.314000
21
165.136000
0
LINE
8
Layer 1
10
123.314000
20
165.136000
11
122.727750
21
164.351375
0
LINE
8
Layer 1
10
122.727750
20
164.351375
11
121.369000
21
163.056000
0
LINE
8
Layer 1
10
121.369000
20
163.056000
11
120.373531
21
161.821766
0
LINE
8
Layer 1
10
120.373531
20
161.821766
11
119.743500
21
160.487875
0
LINE
8
Layer 1
10
119.743500
20
160.487875
11
119.415719
21
159.295547
0
LINE
8
Layer 1
10
119.415719
20
159.295547
11
119.327000
21
158.486000
0
LINE
8
Layer 1
10
119.327000
20
158.486000
11
119.325000
21
153.961000
0
LINE
8
Layer 1
10
119.325000
20
153.961000
11
119.369000
21
149.970000
0
LINE
8
Layer 1
10
119.369000
20
149.970000
11
119.387500
21
140.036750
0
LINE
8
Layer 1
10
119.387500
20
140.036750
11
119.298000
21
134.089000
0
LINE
8
Layer 1
10
119.298000
20
134.089000
11
151.817000
21
134.089000
0
LINE
8
Layer 1
10
151.817000
20
134.089000
11
151.817000
21
135.984000
0
LINE
8
Layer 1
10
151.817000
20
135.984000
11
151.993766
21
136.859953
0
LINE
8
Layer 1
10
151.993766
20
136.859953
11
152.475875
21
137.575125
0
LINE
8
Layer 1
10
152.475875
20
137.575125
11
153.191047
21
138.057234
0
LINE
8
Layer 1
10
153.191047
20
138.057234
11
154.067000
21
138.234000
0
LINE
8
Layer 1
10
154.067000
20
138.234000
11
154.942531
21
138.057234
0
LINE
8
Layer 1
10
154.942531
20
138.057234
11
155.657750
21
137.575125
0
LINE
8
Layer 1
10
155.657750
20
137.575125
11
156.140094
21
136.859953
0
LINE
8
Layer 1
10
156.140094
20
136.859953
11
156.317000
21
135.984000
0
LINE
8
Layer 1
10
156.317000
20
135.984000
11
156.317000
21
134.089000
0
LINE
8
Layer 1
10
156.317000
20
134.089000
11
164.628000
21
134.089000
0
LINE
8
Layer 1
10
164.628000
20
134.089000
11
164.628000
21
229.194000
0
LINE
8
Layer 1
10
164.628000
20
229.194000
11
156.317000
21
229.194000
0
LINE
8
Layer 1
10
156.317000
20
229.194000
11
156.317000
21
227.194000
0
LINE
8
Layer 1
10
156.317000
20
227.194000
11
156.140094
21
226.318047
0
LINE
8
Layer 1
10
156.140094
20
226.318047
11
155.657750
21
225.602875
0
LINE
8
Layer 1
10
155.657750
20
225.602875
11
154.942531
21
225.120766
0
LINE
8
Layer 1
10
154.942531
20
225.120766
11
154.067000
21
224.944000
0
LINE
8
Layer 1
10
154.067000
20
224.944000
11
153.191047
21
225.120766
0
LINE
8
Layer 1
10
153.191047
20
225.120766
11
152.475875
21
225.602875
0
LINE
8
Layer 1
10
152.475875
20
225.602875
11
151.993766
21
226.318047
0
LINE
8
Layer 1
10
151.993766
20
226.318047
11
151.817000
21
227.194000
0
LINE
8
Layer 1
10
151.817000
20
227.194000
11
151.817000
21
229.194000
0
LINE
8
Layer 1
10
151.817000
20
229.194000
11
118.209000
21
229.194000
0
LINE
8
Layer 1
10
118.209000
20
229.194000
11
118.209000
21
229.194000
0
LINE
8
Layer 1
10
150.311000
20
227.763000
11
150.394000
21
226.599000
0
LINE
8
Layer 1
10
150.394000
20
226.599000
11
119.686000
21
211.840000
0
LINE
8
Layer 1
10
119.686000
20
211.840000
11
119.669000
21
213.733000
0
LINE
8
Layer 1
10
119.669000
20
213.733000
11
141.742000
21
224.341000
0
LINE
8
Layer 1
10
141.742000
20
224.341000
11
141.441375
21
225.081125
0
LINE
8
Layer 1
10
141.441375
20
225.081125
11
141.581000
21
225.885000
0
LINE
8
Layer 1
10
141.581000
20
225.885000
11
139.602000
21
224.935000
0
LINE
8
Layer 1
10
139.602000
20
224.935000
11
139.309438
21
224.408203
0
LINE
8
Layer 1
10
139.309438
20
224.408203
11
138.824500
21
224.032625
0
LINE
8
Layer 1
10
138.824500
20
224.032625
11
138.236812
21
223.871734
0
LINE
8
Layer 1
10
138.236812
20
223.871734
11
137.636000
21
223.989000
0
LINE
8
Layer 1
10
137.636000
20
223.989000
11
119.663000
21
215.352000
0
LINE
8
Layer 1
10
119.663000
20
215.352000
11
119.663000
21
217.253000
0
LINE
8
Layer 1
10
119.663000
20
217.253000
11
136.863000
21
225.520000
0
LINE
8
Layer 1
10
136.863000
20
225.520000
11
137.235750
21
226.278500
0
LINE
8
Layer 1
10
137.235750
20
226.278500
11
137.568375
21
226.539531
0
LINE
8
Layer 1
10
137.568375
20
226.539531
11
137.988000
21
226.674000
0
LINE
8
Layer 1
10
137.988000
20
226.674000
11
138.465000
21
226.667250
0
LINE
8
Layer 1
10
138.465000
20
226.667250
11
138.909000
21
226.503000
0
LINE
8
Layer 1
10
138.909000
20
226.503000
11
141.507000
21
227.752000
0
LINE
8
Layer 1
10
141.507000
20
227.752000
11
141.508000
21
227.752000
0
LINE
8
Layer 1
10
141.508000
20
227.752000
11
145.474000
21
227.757000
0
LINE
8
Layer 1
10
145.474000
20
227.757000
11
143.159000
21
226.644000
0
LINE
8
Layer 1
10
143.159000
20
226.644000
11
143.794750
21
226.296250
0
LINE
8
Layer 1
10
143.794750
20
226.296250
11
144.174000
21
225.677000
0
LINE
8
Layer 1
10
144.174000
20
225.677000
11
144.215000
21
225.530000
0
LINE
8
Layer 1
10
144.215000
20
225.530000
11
148.858000
21
227.761000
0
LINE
8
Layer 1
10
148.858000
20
227.761000
11
150.311000
21
227.763000
0
LINE
8
Layer 1
10
150.311000
20
227.763000
11
150.311000
21
227.763000
0
LINE
8
Layer 1
10
138.123000
20
227.747000
11
119.666000
21
218.876000
0
LINE
8
Layer 1
10
119.666000
20
218.876000
11
119.670000
21
220.779000
0
LINE
8
Layer 1
10
119.670000
20
220.779000
11
126.343000
21
223.986000
0
LINE
8
Layer 1
10
126.343000
20
223.986000
11
126.203000
21
224.059000
0
LINE
8
Layer 1
10
126.203000
20
224.059000
11
125.697375
21
224.553625
0
LINE
8
Layer 1
10
125.697375
20
224.553625
11
125.539000
21
225.220000
0
LINE
8
Layer 1
10
125.539000
20
225.220000
11
119.674000
21
222.402000
0
LINE
8
Layer 1
10
119.674000
20
222.402000
11
119.677000
21
224.305000
0
LINE
8
Layer 1
10
119.677000
20
224.305000
11
120.965000
21
224.924000
0
LINE
8
Layer 1
10
120.965000
20
224.924000
11
120.960750
21
225.497531
0
LINE
8
Layer 1
10
120.960750
20
225.497531
11
121.159000
21
226.039000
0
LINE
8
Layer 1
10
121.159000
20
226.039000
11
121.541000
21
226.460469
0
LINE
8
Layer 1
10
121.541000
20
226.460469
11
122.088000
21
226.674000
0
LINE
8
Layer 1
10
122.088000
20
226.674000
11
122.849375
21
226.584625
0
LINE
8
Layer 1
10
122.849375
20
226.584625
11
123.454000
21
226.121000
0
LINE
8
Layer 1
10
123.454000
20
226.121000
11
126.818000
21
227.737000
0
LINE
8
Layer 1
10
126.818000
20
227.737000
11
130.780000
21
227.740000
0
LINE
8
Layer 1
10
130.780000
20
227.740000
11
127.853000
21
226.333000
0
LINE
8
Layer 1
10
127.853000
20
226.333000
11
128.274000
21
225.677000
0
LINE
8
Layer 1
10
128.274000
20
225.677000
11
128.300000
21
224.926000
0
LINE
8
Layer 1
10
128.300000
20
224.926000
11
134.158000
21
227.742000
0
LINE
8
Layer 1
10
134.158000
20
227.742000
11
134.924000
21
227.742000
0
LINE
8
Layer 1
10
134.924000
20
227.742000
11
138.123000
21
227.747000
0
LINE
8
Layer 1
10
138.123000
20
227.747000
11
138.123000
21
227.747000
0
LINE
8
Layer 1
10
123.439000
20
227.735000
11
119.675000
21
225.926000
0
LINE
8
Layer 1
10
119.675000
20
225.926000
11
119.670000
21
227.732000
0
LINE
8
Layer 1
10
119.670000
20
227.732000
11
123.439000
21
227.735000
0
LINE
8
Layer 1
10
123.439000
20
227.735000
11
123.439000
21
227.735000
0
LINE
8
Layer 1
10
157.836000
20
227.732000
11
160.083000
21
227.732000
0
LINE
8
Layer 1
10
160.083000
20
227.732000
11
157.744000
21
226.608000
0
LINE
8
Layer 1
10
157.744000
20
226.608000
11
157.836000
21
227.732000
0
LINE
8
Layer 1
10
157.836000
20
227.732000
11
157.836000
21
227.732000
0
LINE
8
Layer 1
10
163.168000
20
227.593000
11
163.168000
21
225.692000
0
LINE
8
Layer 1
10
163.168000
20
225.692000
11
143.694000
21
216.333000
0
LINE
8
Layer 1
10
143.694000
20
216.333000
11
143.573000
21
215.811000
0
LINE
8
Layer 1
10
143.573000
20
215.811000
11
143.088406
21
215.042203
0
LINE
8
Layer 1
10
143.088406
20
215.042203
11
142.309250
21
214.610625
0
LINE
8
Layer 1
10
142.309250
20
214.610625
11
141.410469
21
214.533984
0
LINE
8
Layer 1
10
141.410469
20
214.533984
11
140.567000
21
214.830000
0
LINE
8
Layer 1
10
140.567000
20
214.830000
11
119.855000
21
204.876000
0
LINE
8
Layer 1
10
119.855000
20
204.876000
11
119.790000
21
206.746000
0
LINE
8
Layer 1
10
119.790000
20
206.746000
11
139.683000
21
216.307000
0
LINE
8
Layer 1
10
139.683000
20
216.307000
11
139.773234
21
217.059672
0
LINE
8
Layer 1
10
139.773234
20
217.059672
11
140.120625
21
217.739875
0
LINE
8
Layer 1
10
140.120625
20
217.739875
11
140.680453
21
218.253391
0
LINE
8
Layer 1
10
140.680453
20
218.253391
11
141.408000
21
218.506000
0
LINE
8
Layer 1
10
141.408000
20
218.506000
11
142.318125
21
218.419250
0
LINE
8
Layer 1
10
142.318125
20
218.419250
11
143.070000
21
217.935000
0
LINE
8
Layer 1
10
143.070000
20
217.935000
11
154.792000
21
223.568000
0
LINE
8
Layer 1
10
154.792000
20
223.568000
11
155.556875
21
223.833000
0
LINE
8
Layer 1
10
155.556875
20
223.833000
11
156.249000
21
224.269000
0
LINE
8
Layer 1
10
156.249000
20
224.269000
11
156.250000
21
224.269000
0
LINE
8
Layer 1
10
156.250000
20
224.269000
11
163.168000
21
227.593000
0
LINE
8
Layer 1
10
163.168000
20
227.593000
11
163.168000
21
227.593000
0
LINE
8
Layer 1
10
150.981000
20
225.259000
11
151.580000
21
224.552875
0
LINE
8
Layer 1
10
151.580000
20
224.552875
11
152.320000
21
224.002000
0
LINE
8
Layer 1
10
152.320000
20
224.002000
11
119.746000
21
208.346000
0
LINE
8
Layer 1
10
119.746000
20
208.346000
11
119.705000
21
210.228000
0
LINE
8
Layer 1
10
119.705000
20
210.228000
11
150.981000
21
225.259000
0
LINE
8
Layer 1
10
150.981000
20
225.259000
11
150.981000
21
225.259000
0
LINE
8
Layer 1
10
163.168000
20
224.071000
11
163.168000
21
222.169000
0
LINE
8
Layer 1
10
163.168000
20
222.169000
11
156.591000
21
219.009000
0
LINE
8
Layer 1
10
156.591000
20
219.009000
11
156.398250
21
218.151000
0
LINE
8
Layer 1
10
156.398250
20
218.151000
11
156.108375
21
217.823250
0
LINE
8
Layer 1
10
156.108375
20
217.823250
11
155.697000
21
217.635000
0
LINE
8
Layer 1
10
155.697000
20
217.635000
11
153.643000
21
217.591000
0
LINE
8
Layer 1
10
153.643000
20
217.591000
11
121.220000
21
202.009000
0
LINE
8
Layer 1
10
121.220000
20
202.009000
11
120.287000
21
203.463000
0
LINE
8
Layer 1
10
120.287000
20
203.463000
11
152.139000
21
218.771000
0
LINE
8
Layer 1
10
152.139000
20
218.771000
11
152.349000
21
219.545000
0
LINE
8
Layer 1
10
152.349000
20
219.545000
11
152.813359
21
219.975406
0
LINE
8
Layer 1
10
152.813359
20
219.975406
11
153.414875
21
220.102250
0
LINE
8
Layer 1
10
153.414875
20
220.102250
11
154.699000
21
220.127000
0
LINE
8
Layer 1
10
154.699000
20
220.127000
11
154.699000
21
220.127000
0
LINE
8
Layer 1
10
154.699000
20
220.127000
11
154.966000
21
220.129000
0
LINE
8
Layer 1
10
154.966000
20
220.129000
11
163.168000
21
224.071000
0
LINE
8
Layer 1
10
163.168000
20
224.071000
11
163.168000
21
224.071000
0
LINE
8
Layer 1
10
163.168000
20
220.548000
11
163.168000
21
218.647000
0
LINE
8
Layer 1
10
163.168000
20
218.647000
11
155.662000
21
215.040000
0
LINE
8
Layer 1
10
155.662000
20
215.040000
11
155.778000
21
215.010000
0
LINE
8
Layer 1
10
155.778000
20
215.010000
11
156.144844
21
214.848406
0
LINE
8
Layer 1
10
156.144844
20
214.848406
11
156.400500
21
214.581250
0
LINE
8
Layer 1
10
156.400500
20
214.581250
11
156.594000
21
213.866000
0
LINE
8
Layer 1
10
156.594000
20
213.866000
11
163.168000
21
217.026000
0
LINE
8
Layer 1
10
163.168000
20
217.026000
11
163.168000
21
215.124000
0
LINE
8
Layer 1
10
163.168000
20
215.124000
11
125.073000
21
196.816000
0
LINE
8
Layer 1
10
125.073000
20
196.816000
11
124.666000
21
198.143000
0
LINE
8
Layer 1
10
124.666000
20
198.143000
11
124.460000
21
198.422000
0
LINE
8
Layer 1
10
124.460000
20
198.422000
11
153.920000
21
212.581000
0
LINE
8
Layer 1
10
153.920000
20
212.581000
11
153.243000
21
212.628000
0
LINE
8
Layer 1
10
153.243000
20
212.628000
11
152.609625
21
212.858375
0
LINE
8
Layer 1
10
152.609625
20
212.858375
11
152.226000
21
213.388000
0
LINE
8
Layer 1
10
152.226000
20
213.388000
11
123.477000
21
199.571000
0
LINE
8
Layer 1
10
123.477000
20
199.571000
11
122.228000
21
200.872000
0
LINE
8
Layer 1
10
122.228000
20
200.872000
11
163.168000
21
220.548000
0
LINE
8
Layer 1
10
163.168000
20
220.548000
11
163.168000
21
220.548000
0
LINE
8
Layer 1
10
163.168000
20
213.503000
11
163.168000
21
211.602000
0
LINE
8
Layer 1
10
163.168000
20
211.602000
11
156.514000
21
208.404000
0
LINE
8
Layer 1
10
156.514000
20
208.404000
11
156.212000
21
207.913750
0
LINE
8
Layer 1
10
156.212000
20
207.913750
11
155.697000
21
207.635000
0
LINE
8
Layer 1
10
155.697000
20
207.635000
11
154.840000
21
207.599000
0
LINE
8
Layer 1
10
154.840000
20
207.599000
11
143.481000
21
202.140000
0
LINE
8
Layer 1
10
143.481000
20
202.140000
11
143.699125
21
201.372500
0
LINE
8
Layer 1
10
143.699125
20
201.372500
11
143.576000
21
200.569000
0
LINE
8
Layer 1
10
143.576000
20
200.569000
11
143.574000
21
200.563000
0
LINE
8
Layer 1
10
143.574000
20
200.563000
11
152.127000
21
204.674000
0
LINE
8
Layer 1
10
152.127000
20
204.674000
11
152.127000
21
204.975000
0
LINE
8
Layer 1
10
152.127000
20
204.975000
11
152.127000
21
205.007000
0
LINE
8
Layer 1
10
152.127000
20
205.007000
11
152.127000
21
205.107000
0
LINE
8
Layer 1
10
152.127000
20
205.107000
11
153.029000
21
205.107000
0
LINE
8
Layer 1
10
153.029000
20
205.107000
11
163.168000
21
209.980000
0
LINE
8
Layer 1
10
163.168000
20
209.980000
11
163.168000
21
208.079000
0
LINE
8
Layer 1
10
163.168000
20
208.079000
11
156.619000
21
204.932000
0
LINE
8
Layer 1
10
156.619000
20
204.932000
11
156.619000
21
203.311000
0
LINE
8
Layer 1
10
156.619000
20
203.311000
11
163.168000
21
206.458000
0
LINE
8
Layer 1
10
163.168000
20
206.458000
11
163.168000
21
204.557000
0
LINE
8
Layer 1
10
163.168000
20
204.557000
11
153.897000
21
200.101000
0
LINE
8
Layer 1
10
153.897000
20
200.101000
11
154.699000
21
200.127000
0
LINE
8
Layer 1
10
154.699000
20
200.127000
11
155.778000
21
200.010000
0
LINE
8
Layer 1
10
155.778000
20
200.010000
11
156.343000
21
199.655000
0
LINE
8
Layer 1
10
156.343000
20
199.655000
11
163.168000
21
202.935000
0
LINE
8
Layer 1
10
163.168000
20
202.935000
11
163.168000
21
201.034000
0
LINE
8
Layer 1
10
163.168000
20
201.034000
11
142.420000
21
191.062000
0
LINE
8
Layer 1
10
142.420000
20
191.062000
11
142.820625
21
190.720875
0
LINE
8
Layer 1
10
142.820625
20
190.720875
11
143.063000
21
190.247000
0
LINE
8
Layer 1
10
143.063000
20
190.247000
11
143.139000
21
189.786000
0
LINE
8
Layer 1
10
143.139000
20
189.786000
11
152.166000
21
194.125000
0
LINE
8
Layer 1
10
152.166000
20
194.125000
11
152.349000
21
194.545000
0
LINE
8
Layer 1
10
152.349000
20
194.545000
11
152.704391
21
194.918109
0
LINE
8
Layer 1
10
152.704391
20
194.918109
11
153.156625
21
195.077375
0
LINE
8
Layer 1
10
153.156625
20
195.077375
11
154.187000
21
195.096000
0
LINE
8
Layer 1
10
154.187000
20
195.096000
11
163.168000
21
199.412000
0
LINE
8
Layer 1
10
163.168000
20
199.412000
11
163.168000
21
197.511000
0
LINE
8
Layer 1
10
163.168000
20
197.511000
11
156.525000
21
194.318000
0
LINE
8
Layer 1
10
156.525000
20
194.318000
11
156.591656
21
193.803594
0
LINE
8
Layer 1
10
156.591656
20
193.803594
11
156.470250
21
193.292750
0
LINE
8
Layer 1
10
156.470250
20
193.292750
11
156.169219
21
192.873781
0
LINE
8
Layer 1
10
156.169219
20
192.873781
11
155.697000
21
192.635000
0
LINE
8
Layer 1
10
155.697000
20
192.635000
11
154.469625
21
192.583500
0
LINE
8
Layer 1
10
154.469625
20
192.583500
11
153.243000
21
192.628000
0
LINE
8
Layer 1
10
153.243000
20
192.628000
11
153.056000
21
192.651000
0
LINE
8
Layer 1
10
153.056000
20
192.651000
11
134.621000
21
183.792000
0
LINE
8
Layer 1
10
134.621000
20
183.792000
11
134.582000
21
183.586000
0
LINE
8
Layer 1
10
134.582000
20
183.586000
11
134.209969
21
182.841203
0
LINE
8
Layer 1
10
134.209969
20
182.841203
11
133.534750
21
182.390875
0
LINE
8
Layer 1
10
133.534750
20
182.390875
11
132.722656
21
182.267359
0
LINE
8
Layer 1
10
132.722656
20
182.267359
11
131.940000
21
182.503000
0
LINE
8
Layer 1
10
131.940000
20
182.503000
11
125.150000
21
179.240000
0
LINE
8
Layer 1
10
125.150000
20
179.240000
11
125.162000
21
181.147000
0
LINE
8
Layer 1
10
125.162000
20
181.147000
11
131.121000
21
184.011000
0
LINE
8
Layer 1
10
131.121000
20
184.011000
11
131.245625
21
184.616203
0
LINE
8
Layer 1
10
131.245625
20
184.616203
11
131.553250
21
185.152875
0
LINE
8
Layer 1
10
131.553250
20
185.152875
11
132.018750
21
185.554359
0
LINE
8
Layer 1
10
132.018750
20
185.554359
11
132.617000
21
185.754000
0
LINE
8
Layer 1
10
132.617000
20
185.754000
11
133.339125
21
185.711500
0
LINE
8
Layer 1
10
133.339125
20
185.711500
11
133.960000
21
185.375000
0
LINE
8
Layer 1
10
133.960000
20
185.375000
11
140.880000
21
188.701000
0
LINE
8
Layer 1
10
140.880000
20
188.701000
11
140.407750
21
189.306125
0
LINE
8
Layer 1
10
140.407750
20
189.306125
11
140.351000
21
190.068000
0
LINE
8
Layer 1
10
140.351000
20
190.068000
11
125.237000
21
182.804000
0
LINE
8
Layer 1
10
125.237000
20
182.804000
11
125.092000
21
184.636000
0
LINE
8
Layer 1
10
125.092000
20
184.636000
11
152.608000
21
197.860000
0
LINE
8
Layer 1
10
152.608000
20
197.860000
11
152.185750
21
198.508750
0
LINE
8
Layer 1
10
152.185750
20
198.508750
11
152.218000
21
199.294000
0
LINE
8
Layer 1
10
152.218000
20
199.294000
11
143.050000
21
194.888000
0
LINE
8
Layer 1
10
143.050000
20
194.888000
11
143.063000
21
194.847000
0
LINE
8
Layer 1
10
143.063000
20
194.847000
11
143.141482
21
194.418670
0
LINE
8
Layer 1
10
143.141482
20
194.418670
11
143.066672
21
194.014797
0
LINE
8
Layer 1
10
143.066672
20
194.014797
11
142.571125
21
193.360625
0
LINE
8
Layer 1
10
142.571125
20
193.360625
11
141.804266
21
193.044891
0
LINE
8
Layer 1
10
141.804266
20
193.044891
11
141.390314
21
193.064064
0
LINE
8
Layer 1
10
141.390314
20
193.064064
11
140.994000
21
193.228000
0
LINE
8
Layer 1
10
140.994000
20
193.228000
11
140.515000
21
193.670000
0
LINE
8
Layer 1
10
140.515000
20
193.670000
11
124.596000
21
186.019000
0
LINE
8
Layer 1
10
124.596000
20
186.019000
11
124.122625
21
186.757625
0
LINE
8
Layer 1
10
124.122625
20
186.757625
11
123.509000
21
187.398000
0
LINE
8
Layer 1
10
123.509000
20
187.398000
11
155.133000
21
202.596000
0
LINE
8
Layer 1
10
155.133000
20
202.596000
11
152.127000
21
202.596000
0
LINE
8
Layer 1
10
152.127000
20
202.596000
11
152.127000
21
202.773000
0
LINE
8
Layer 1
10
152.127000
20
202.773000
11
122.002000
21
188.295000
0
LINE
8
Layer 1
10
122.002000
20
188.295000
11
120.442500
21
188.438875
0
LINE
8
Layer 1
10
120.442500
20
188.438875
11
118.865000
21
188.279000
0
LINE
8
Layer 1
10
118.865000
20
188.279000
11
118.087000
21
188.315000
0
LINE
8
Layer 1
10
118.087000
20
188.315000
11
118.223000
21
188.380000
0
LINE
8
Layer 1
10
118.223000
20
188.380000
11
117.734500
21
188.591750
0
LINE
8
Layer 1
10
117.734500
20
188.591750
11
117.339000
21
188.964000
0
LINE
8
Layer 1
10
117.339000
20
188.964000
11
117.067375
21
189.420875
0
LINE
8
Layer 1
10
117.067375
20
189.420875
11
116.969000
21
189.925000
0
LINE
8
Layer 1
10
116.969000
20
189.925000
11
116.968000
21
189.939000
0
LINE
8
Layer 1
10
116.968000
20
189.939000
11
116.965000
21
190.048000
0
LINE
8
Layer 1
10
116.965000
20
190.048000
11
117.070875
21
190.699500
0
LINE
8
Layer 1
10
117.070875
20
190.699500
11
117.446000
21
191.249000
0
LINE
8
Layer 1
10
117.446000
20
191.249000
11
117.447000
21
191.249000
0
LINE
8
Layer 1
10
117.447000
20
191.249000
11
117.900375
21
191.617875
0
LINE
8
Layer 1
10
117.900375
20
191.617875
11
118.467000
21
191.803000
0
LINE
8
Layer 1
10
118.467000
20
191.803000
11
119.020250
21
191.802750
0
LINE
8
Layer 1
10
119.020250
20
191.802750
11
119.524000
21
191.621000
0
LINE
8
Layer 1
10
119.524000
20
191.621000
11
120.507750
21
191.539500
0
LINE
8
Layer 1
10
120.507750
20
191.539500
11
121.466000
21
191.560000
0
LINE
8
Layer 1
10
121.466000
20
191.560000
11
120.214000
21
190.958000
0
LINE
8
Layer 1
10
120.214000
20
190.958000
11
120.468875
21
190.257500
0
LINE
8
Layer 1
10
120.468875
20
190.257500
11
120.390000
21
189.503000
0
LINE
8
Layer 1
10
120.390000
20
189.503000
11
120.355000
21
189.404000
0
LINE
8
Layer 1
10
120.355000
20
189.404000
11
131.648000
21
194.832000
0
LINE
8
Layer 1
10
131.648000
20
194.832000
11
131.242000
21
195.482750
0
LINE
8
Layer 1
10
131.242000
20
195.482750
11
131.187000
21
196.231000
0
LINE
8
Layer 1
10
131.187000
20
196.231000
11
123.576000
21
192.574000
0
LINE
8
Layer 1
10
123.576000
20
192.574000
11
124.488125
21
193.750875
0
LINE
8
Layer 1
10
124.488125
20
193.750875
11
125.008000
21
195.164000
0
LINE
8
Layer 1
10
125.008000
20
195.164000
11
140.049000
21
202.392000
0
LINE
8
Layer 1
10
140.049000
20
202.392000
11
140.627625
21
202.977500
0
LINE
8
Layer 1
10
140.627625
20
202.977500
11
141.408000
21
203.266000
0
LINE
8
Layer 1
10
141.408000
20
203.266000
11
141.899000
21
203.281000
0
LINE
8
Layer 1
10
141.899000
20
203.281000
11
152.279000
21
208.269000
0
LINE
8
Layer 1
10
152.279000
20
208.269000
11
152.137750
21
208.910000
0
LINE
8
Layer 1
10
152.137750
20
208.910000
11
152.349000
21
209.545000
0
LINE
8
Layer 1
10
152.349000
20
209.545000
11
152.813359
21
209.975406
0
LINE
8
Layer 1
10
152.813359
20
209.975406
11
153.414875
21
210.102250
0
LINE
8
Layer 1
10
153.414875
20
210.102250
11
154.699000
21
210.127000
0
LINE
8
Layer 1
10
154.699000
20
210.127000
11
155.778000
21
210.010000
0
LINE
8
Layer 1
10
155.778000
20
210.010000
11
155.850000
21
209.986000
0
LINE
8
Layer 1
10
155.850000
20
209.986000
11
163.168000
21
213.503000
0
LINE
8
Layer 1
10
163.168000
20
213.503000
11
163.168000
21
213.503000
0
LINE
8
Layer 1
10
139.864000
20
200.402000
11
133.880000
21
197.525000
0
LINE
8
Layer 1
10
133.880000
20
197.525000
11
134.395750
21
196.982750
0
LINE
8
Layer 1
10
134.395750
20
196.982750
11
134.661000
21
196.280000
0
LINE
8
Layer 1
10
134.661000
20
196.280000
11
141.073000
21
199.362000
0
LINE
8
Layer 1
10
141.073000
20
199.362000
11
140.505000
21
199.628875
0
LINE
8
Layer 1
10
140.505000
20
199.628875
11
140.057000
21
200.090000
0
LINE
8
Layer 1
10
140.057000
20
200.090000
11
139.864000
21
200.402000
0
LINE
8
Layer 1
10
139.864000
20
200.402000
11
139.864000
21
200.402000
0
LINE
8
Layer 1
10
163.168000
20
195.889000
11
163.168000
21
193.989000
0
LINE
8
Layer 1
10
163.168000
20
193.989000
11
155.122000
21
190.122000
0
LINE
8
Layer 1
10
155.122000
20
190.122000
11
155.778000
21
190.010000
0
LINE
8
Layer 1
10
155.778000
20
190.010000
11
156.304000
21
189.707250
0
LINE
8
Layer 1
10
156.304000
20
189.707250
11
156.563000
21
189.193000
0
LINE
8
Layer 1
10
156.563000
20
189.193000
11
163.168000
21
192.367000
0
LINE
8
Layer 1
10
163.168000
20
192.367000
11
163.168000
21
190.466000
0
LINE
8
Layer 1
10
163.168000
20
190.466000
11
122.405000
21
170.875000
0
LINE
8
Layer 1
10
122.405000
20
170.875000
11
121.602469
21
171.100625
0
LINE
8
Layer 1
10
121.602469
20
171.100625
11
120.763000
21
171.129750
0
LINE
8
Layer 1
10
120.763000
20
171.129750
11
119.040000
21
171.005000
0
LINE
8
Layer 1
10
119.040000
20
171.005000
11
118.100125
21
171.073500
0
LINE
8
Layer 1
10
118.100125
20
171.073500
11
117.680297
21
171.287937
0
LINE
8
Layer 1
10
117.680297
20
171.287937
11
117.338000
21
171.628000
0
LINE
8
Layer 1
10
117.338000
20
171.628000
11
117.164000
21
171.879000
0
LINE
8
Layer 1
10
117.164000
20
171.879000
11
117.146000
21
171.871000
0
LINE
8
Layer 1
10
117.146000
20
171.871000
11
117.101000
21
172.002000
0
LINE
8
Layer 1
10
117.101000
20
172.002000
11
116.971875
21
172.811000
0
LINE
8
Layer 1
10
116.971875
20
172.811000
11
117.223000
21
173.599000
0
LINE
8
Layer 1
10
117.223000
20
173.599000
11
117.415000
21
173.901000
0
LINE
8
Layer 1
10
117.415000
20
173.901000
11
117.456000
21
173.921000
0
LINE
8
Layer 1
10
117.456000
20
173.921000
11
117.907375
21
174.282000
0
LINE
8
Layer 1
10
117.907375
20
174.282000
11
118.469000
21
174.463000
0
LINE
8
Layer 1
10
118.469000
20
174.463000
11
119.055875
21
174.455500
0
LINE
8
Layer 1
10
119.055875
20
174.455500
11
119.585000
21
174.247000
0
LINE
8
Layer 1
10
119.585000
20
174.247000
11
120.765344
21
174.246469
0
LINE
8
Layer 1
10
120.765344
20
174.246469
11
121.917750
21
174.450500
0
LINE
8
Layer 1
10
121.917750
20
174.450500
11
122.987281
21
174.899781
0
LINE
8
Layer 1
10
122.987281
20
174.899781
11
123.919000
21
175.635000
0
LINE
8
Layer 1
10
123.919000
20
175.635000
11
124.517375
21
176.524000
0
LINE
8
Layer 1
10
124.517375
20
176.524000
11
124.890000
21
177.494000
0
LINE
8
Layer 1
10
124.890000
20
177.494000
11
163.168000
21
195.889000
0
LINE
8
Layer 1
10
163.168000
20
195.889000
11
163.168000
21
195.889000
0
LINE
8
Layer 1
10
163.168000
20
188.844000
11
163.168000
21
186.943000
0
LINE
8
Layer 1
10
163.168000
20
186.943000
11
156.619000
21
183.796000
0
LINE
8
Layer 1
10
156.619000
20
183.796000
11
156.619000
21
182.596000
0
LINE
8
Layer 1
10
156.619000
20
182.596000
11
154.122000
21
182.596000
0
LINE
8
Layer 1
10
154.122000
20
182.596000
11
124.713000
21
168.462000
0
LINE
8
Layer 1
10
124.713000
20
168.462000
11
124.303125
21
169.230500
0
LINE
8
Layer 1
10
124.303125
20
169.230500
11
123.762000
21
169.906000
0
LINE
8
Layer 1
10
123.762000
20
169.906000
11
140.440000
21
177.921000
0
LINE
8
Layer 1
10
140.440000
20
177.921000
11
140.327844
21
178.549984
0
LINE
8
Layer 1
10
140.327844
20
178.549984
11
140.481750
21
179.180375
0
LINE
8
Layer 1
10
140.481750
20
179.180375
11
140.874531
21
179.686828
0
LINE
8
Layer 1
10
140.874531
20
179.686828
11
141.479000
21
179.944000
0
LINE
8
Layer 1
10
141.479000
20
179.944000
11
141.938391
21
179.941937
0
LINE
8
Layer 1
10
141.938391
20
179.941937
11
142.368625
21
179.794000
0
LINE
8
Layer 1
10
142.368625
20
179.794000
11
142.731547
21
179.521562
0
LINE
8
Layer 1
10
142.731547
20
179.521562
11
142.989000
21
179.146000
0
LINE
8
Layer 1
10
142.989000
20
179.146000
11
152.127000
21
183.538000
0
LINE
8
Layer 1
10
152.127000
20
183.538000
11
152.127000
21
184.973000
0
LINE
8
Layer 1
10
152.127000
20
184.973000
11
152.127000
21
185.005000
0
LINE
8
Layer 1
10
152.127000
20
185.005000
11
152.127000
21
185.106000
0
LINE
8
Layer 1
10
152.127000
20
185.106000
11
155.388000
21
185.106000
0
LINE
8
Layer 1
10
155.388000
20
185.106000
11
163.168000
21
188.844000
0
LINE
8
Layer 1
10
163.168000
20
188.844000
11
163.168000
21
188.844000
0
LINE
8
Layer 1
10
152.149000
20
188.693000
11
134.093000
21
180.015000
0
LINE
8
Layer 1
10
134.093000
20
180.015000
11
134.527250
21
179.409250
0
LINE
8
Layer 1
10
134.527250
20
179.409250
11
134.681000
21
178.676000
0
LINE
8
Layer 1
10
134.681000
20
178.676000
11
153.296000
21
187.623000
0
LINE
8
Layer 1
10
153.296000
20
187.623000
11
153.243000
21
187.628000
0
LINE
8
Layer 1
10
153.243000
20
187.628000
11
152.825125
21
187.725359
0
LINE
8
Layer 1
10
152.825125
20
187.725359
11
152.494250
21
187.962125
0
LINE
8
Layer 1
10
152.494250
20
187.962125
11
152.149000
21
188.693000
0
LINE
8
Layer 1
10
152.149000
20
188.693000
11
152.149000
21
188.693000
0
LINE
8
Layer 1
10
163.168000
20
185.322000
11
163.168000
21
183.420000
0
LINE
8
Layer 1
10
163.168000
20
183.420000
11
155.952000
21
179.952000
0
LINE
8
Layer 1
10
155.952000
20
179.952000
11
156.281484
21
179.728563
0
LINE
8
Layer 1
10
156.281484
20
179.728563
11
156.492375
21
179.408000
0
LINE
8
Layer 1
10
156.492375
20
179.408000
11
156.573000
21
178.630000
0
LINE
8
Layer 1
10
156.573000
20
178.630000
11
163.168000
21
181.799000
0
LINE
8
Layer 1
10
163.168000
20
181.799000
11
163.168000
21
179.898000
0
LINE
8
Layer 1
10
163.168000
20
179.898000
11
153.044000
21
175.032000
0
LINE
8
Layer 1
10
153.044000
20
175.032000
11
153.909250
21
175.102750
0
LINE
8
Layer 1
10
153.909250
20
175.102750
11
154.779000
21
175.127000
0
LINE
8
Layer 1
10
154.779000
20
175.127000
11
154.779000
21
175.127000
0
LINE
8
Layer 1
10
154.779000
20
175.127000
11
155.858000
21
175.010000
0
LINE
8
Layer 1
10
155.858000
20
175.010000
11
156.138000
21
174.898000
0
LINE
8
Layer 1
10
156.138000
20
174.898000
11
163.168000
21
178.276000
0
LINE
8
Layer 1
10
163.168000
20
178.276000
11
163.168000
21
176.375000
0
LINE
8
Layer 1
10
163.168000
20
176.375000
11
156.480000
21
173.161000
0
LINE
8
Layer 1
10
156.480000
20
173.161000
11
156.191000
21
172.827875
0
LINE
8
Layer 1
10
156.191000
20
172.827875
11
155.779000
21
172.635000
0
LINE
8
Layer 1
10
155.779000
20
172.635000
11
155.351000
21
172.618000
0
LINE
8
Layer 1
10
155.351000
20
172.618000
11
131.488000
21
161.150000
0
LINE
8
Layer 1
10
131.488000
20
161.150000
11
132.023625
21
160.622125
0
LINE
8
Layer 1
10
132.023625
20
160.622125
11
132.311000
21
159.924000
0
LINE
8
Layer 1
10
132.311000
20
159.924000
11
152.359000
21
169.559000
0
LINE
8
Layer 1
10
152.359000
20
169.559000
11
152.853375
21
169.990750
0
LINE
8
Layer 1
10
152.853375
20
169.990750
11
153.491000
21
170.103000
0
LINE
8
Layer 1
10
153.491000
20
170.103000
11
163.168000
21
174.754000
0
LINE
8
Layer 1
10
163.168000
20
174.754000
11
163.168000
21
172.853000
0
LINE
8
Layer 1
10
163.168000
20
172.853000
11
156.389000
21
169.595000
0
LINE
8
Layer 1
10
156.389000
20
169.595000
11
156.566625
21
169.162641
0
LINE
8
Layer 1
10
156.566625
20
169.162641
11
156.579250
21
168.683125
0
LINE
8
Layer 1
10
156.579250
20
168.683125
11
156.434000
21
168.224047
0
LINE
8
Layer 1
10
156.434000
20
168.224047
11
156.138000
21
167.853000
0
LINE
8
Layer 1
10
156.138000
20
167.853000
11
163.168000
21
171.231000
0
LINE
8
Layer 1
10
163.168000
20
171.231000
11
163.168000
21
169.330000
0
LINE
8
Layer 1
10
163.168000
20
169.330000
11
154.378000
21
165.106000
0
LINE
8
Layer 1
10
154.378000
20
165.106000
11
156.619000
21
165.106000
0
LINE
8
Layer 1
10
156.619000
20
165.106000
11
156.619000
21
164.562000
0
LINE
8
Layer 1
10
156.619000
20
164.562000
11
163.168000
21
167.709000
0
LINE
8
Layer 1
10
163.168000
20
167.709000
11
163.168000
21
165.807000
0
LINE
8
Layer 1
10
163.168000
20
165.807000
11
156.619000
21
162.660000
0
LINE
8
Layer 1
10
156.619000
20
162.660000
11
156.619000
21
162.596000
0
LINE
8
Layer 1
10
156.619000
20
162.596000
11
156.485000
21
162.596000
0
LINE
8
Layer 1
10
156.485000
20
162.596000
11
120.857000
21
145.473000
0
LINE
8
Layer 1
10
120.857000
20
145.473000
11
120.868000
21
147.380000
0
LINE
8
Layer 1
10
120.868000
20
147.380000
11
152.529000
21
162.596000
0
LINE
8
Layer 1
10
152.529000
20
162.596000
11
152.127000
21
162.596000
0
LINE
8
Layer 1
10
152.127000
20
162.596000
11
152.127000
21
164.024000
0
LINE
8
Layer 1
10
152.127000
20
164.024000
11
142.938000
21
159.608000
0
LINE
8
Layer 1
10
142.938000
20
159.608000
11
142.881000
21
159.239000
0
LINE
8
Layer 1
10
142.881000
20
159.239000
11
142.480047
21
158.485922
0
LINE
8
Layer 1
10
142.480047
20
158.485922
11
141.767375
21
158.053375
0
LINE
8
Layer 1
10
141.767375
20
158.053375
11
140.927016
21
157.970141
0
LINE
8
Layer 1
10
140.927016
20
157.970141
11
140.143000
21
158.265000
0
LINE
8
Layer 1
10
140.143000
20
158.265000
11
120.854000
21
148.994000
0
LINE
8
Layer 1
10
120.854000
20
148.994000
11
120.827000
21
150.882000
0
LINE
8
Layer 1
10
120.827000
20
150.882000
11
135.993000
21
158.171000
0
LINE
8
Layer 1
10
135.993000
20
158.171000
11
135.582000
21
158.500000
0
LINE
8
Layer 1
10
135.582000
20
158.500000
11
135.286750
21
158.915500
0
LINE
8
Layer 1
10
135.286750
20
158.915500
11
135.146000
21
159.385000
0
LINE
8
Layer 1
10
135.146000
20
159.385000
11
120.806000
21
152.494000
0
LINE
8
Layer 1
10
120.806000
20
152.494000
11
120.795000
21
154.390000
0
LINE
8
Layer 1
10
120.795000
20
154.390000
11
129.269000
21
158.462000
0
LINE
8
Layer 1
10
129.269000
20
158.462000
11
128.885625
21
159.128750
0
LINE
8
Layer 1
10
128.885625
20
159.128750
11
128.854000
21
159.884000
0
LINE
8
Layer 1
10
128.854000
20
159.884000
11
125.765000
21
158.399000
0
LINE
8
Layer 1
10
125.765000
20
158.399000
11
125.334250
21
158.048125
0
LINE
8
Layer 1
10
125.334250
20
158.048125
11
124.755000
21
157.914000
0
LINE
8
Layer 1
10
124.755000
20
157.914000
11
120.811000
21
156.018000
0
LINE
8
Layer 1
10
120.811000
20
156.018000
11
120.872000
21
157.949000
0
LINE
8
Layer 1
10
120.872000
20
157.949000
11
122.455000
21
158.710000
0
LINE
8
Layer 1
10
122.455000
20
158.710000
11
122.449000
21
158.738000
0
LINE
8
Layer 1
10
122.449000
20
158.738000
11
122.400000
21
160.305000
0
LINE
8
Layer 1
10
122.400000
20
160.305000
11
121.031000
21
159.647000
0
LINE
8
Layer 1
10
121.031000
20
159.647000
11
121.320563
21
160.412406
0
LINE
8
Layer 1
10
121.320563
20
160.412406
11
121.741750
21
161.119500
0
LINE
8
Layer 1
10
121.741750
20
161.119500
11
122.823000
21
162.409000
0
LINE
8
Layer 1
10
122.823000
20
162.409000
11
131.128000
21
166.401000
0
LINE
8
Layer 1
10
131.128000
20
166.401000
11
131.182969
21
167.081687
0
LINE
8
Layer 1
10
131.182969
20
167.081687
11
131.472500
21
167.705750
0
LINE
8
Layer 1
10
131.472500
20
167.705750
11
131.963031
21
168.180187
0
LINE
8
Layer 1
10
131.963031
20
168.180187
11
132.621000
21
168.412000
0
LINE
8
Layer 1
10
132.621000
20
168.412000
11
133.469125
21
168.328625
0
LINE
8
Layer 1
10
133.469125
20
168.328625
11
134.150000
21
167.853000
0
LINE
8
Layer 1
10
134.150000
20
167.853000
11
154.395000
21
177.583000
0
LINE
8
Layer 1
10
154.395000
20
177.583000
11
153.243000
21
177.628000
0
LINE
8
Layer 1
10
153.243000
20
177.628000
11
152.691750
21
177.799000
0
LINE
8
Layer 1
10
152.691750
20
177.799000
11
152.313000
21
178.204000
0
LINE
8
Layer 1
10
152.313000
20
178.204000
11
143.129000
21
173.790000
0
LINE
8
Layer 1
10
143.129000
20
173.790000
11
142.867547
21
173.161391
0
LINE
8
Layer 1
10
142.867547
20
173.161391
11
142.336375
21
172.712125
0
LINE
8
Layer 1
10
142.336375
20
172.712125
11
141.667766
21
172.536047
0
LINE
8
Layer 1
10
141.667766
20
172.536047
11
140.994000
21
172.727000
0
LINE
8
Layer 1
10
140.994000
20
172.727000
11
140.961000
21
172.748000
0
LINE
8
Layer 1
10
140.961000
20
172.748000
11
124.864000
21
165.012000
0
LINE
8
Layer 1
10
124.864000
20
165.012000
11
125.090375
21
165.998125
0
LINE
8
Layer 1
10
125.090375
20
165.998125
11
125.088000
21
167.021000
0
LINE
8
Layer 1
10
125.088000
20
167.021000
11
140.403000
21
174.381000
0
LINE
8
Layer 1
10
140.403000
20
174.381000
11
140.794750
21
175.017375
0
LINE
8
Layer 1
10
140.794750
20
175.017375
11
141.479000
21
175.344000
0
LINE
8
Layer 1
10
141.479000
20
175.344000
11
142.230000
21
175.259000
0
LINE
8
Layer 1
10
142.230000
20
175.259000
11
163.168000
21
185.322000
0
LINE
8
Layer 1
10
163.168000
20
185.322000
11
163.168000
21
185.322000
0
LINE
8
Layer 1
10
131.167000
20
178.609000
11
120.329000
21
173.400000
0
LINE
8
Layer 1
10
120.329000
20
173.400000
11
120.480625
21
172.794375
0
LINE
8
Layer 1
10
120.480625
20
172.794375
11
120.390000
21
172.161000
0
LINE
8
Layer 1
10
120.390000
20
172.161000
11
120.185000
21
171.709000
0
LINE
8
Layer 1
10
120.185000
20
171.709000
11
131.847000
21
177.315000
0
LINE
8
Layer 1
10
131.847000
20
177.315000
11
131.537000
21
177.627000
0
LINE
8
Layer 1
10
131.537000
20
177.627000
11
131.262375
21
178.094000
0
LINE
8
Layer 1
10
131.262375
20
178.094000
11
131.167000
21
178.609000
0
LINE
8
Layer 1
10
131.167000
20
178.609000
11
131.167000
21
178.609000
0
LINE
8
Layer 1
10
152.748000
20
174.890000
11
134.551000
21
166.145000
0
LINE
8
Layer 1
10
134.551000
20
166.145000
11
134.208453
21
165.501781
0
LINE
8
Layer 1
10
134.208453
20
165.501781
11
133.634625
21
165.088250
0
LINE
8
Layer 1
10
133.634625
20
165.088250
11
132.938734
21
164.924094
0
LINE
8
Layer 1
10
132.938734
20
164.924094
11
132.230000
21
165.029000
0
LINE
8
Layer 1
10
132.230000
20
165.029000
11
124.839000
21
161.477000
0
LINE
8
Layer 1
10
124.839000
20
161.477000
11
125.479000
21
161.274250
0
LINE
8
Layer 1
10
125.479000
20
161.274250
11
125.891000
21
160.770000
0
LINE
8
Layer 1
10
125.891000
20
160.770000
11
125.917000
21
160.374000
0
LINE
8
Layer 1
10
125.917000
20
160.374000
11
152.445000
21
173.123000
0
LINE
8
Layer 1
10
152.445000
20
173.123000
11
152.217750
21
173.831125
0
LINE
8
Layer 1
10
152.217750
20
173.831125
11
152.439000
21
174.555000
0
LINE
8
Layer 1
10
152.439000
20
174.555000
11
152.748000
21
174.890000
0
LINE
8
Layer 1
10
152.748000
20
174.890000
11
152.748000
21
174.890000
0
LINE
8
Layer 1
10
152.678000
20
167.811000
11
138.192000
21
160.849000
0
LINE
8
Layer 1
10
138.192000
20
160.849000
11
138.562125
21
160.192625
0
LINE
8
Layer 1
10
138.562125
20
160.192625
11
138.624000
21
159.435000
0
LINE
8
Layer 1
10
138.624000
20
159.435000
11
139.437000
21
159.826000
0
LINE
8
Layer 1
10
139.437000
20
159.826000
11
139.590234
21
160.393656
0
LINE
8
Layer 1
10
139.590234
20
160.393656
11
139.906125
21
160.890250
0
LINE
8
Layer 1
10
139.906125
20
160.890250
11
140.360203
21
161.258969
0
LINE
8
Layer 1
10
140.360203
20
161.258969
11
140.928000
21
161.443000
0
LINE
8
Layer 1
10
140.928000
20
161.443000
11
141.592375
21
161.417375
0
LINE
8
Layer 1
10
141.592375
20
161.417375
11
142.175000
21
161.142000
0
LINE
8
Layer 1
10
142.175000
20
161.142000
11
155.684000
21
167.635000
0
LINE
8
Layer 1
10
155.684000
20
167.635000
11
154.463125
21
167.583125
0
LINE
8
Layer 1
10
154.463125
20
167.583125
11
153.243000
21
167.628000
0
LINE
8
Layer 1
10
153.243000
20
167.628000
11
152.678000
21
167.811000
0
LINE
8
Layer 1
10
152.678000
20
167.811000
11
152.678000
21
167.811000
0
LINE
8
Layer 1
10
163.168000
20
164.186000
11
163.168000
21
162.285000
0
LINE
8
Layer 1
10
163.168000
20
162.285000
11
156.575000
21
159.116000
0
LINE
8
Layer 1
10
156.575000
20
159.116000
11
156.573937
21
158.644406
0
LINE
8
Layer 1
10
156.573937
20
158.644406
11
156.423250
21
158.197750
0
LINE
8
Layer 1
10
156.423250
20
158.197750
11
156.128938
21
157.839969
0
LINE
8
Layer 1
10
156.128938
20
157.839969
11
155.697000
21
157.635000
0
LINE
8
Layer 1
10
155.697000
20
157.635000
11
153.437000
21
157.608000
0
LINE
8
Layer 1
10
153.437000
20
157.608000
11
132.053000
21
147.331000
0
LINE
8
Layer 1
10
132.053000
20
147.331000
11
132.322000
21
146.626375
0
LINE
8
Layer 1
10
132.322000
20
146.626375
11
132.264000
21
145.861000
0
LINE
8
Layer 1
10
132.264000
20
145.861000
11
132.242000
21
145.800000
0
LINE
8
Layer 1
10
132.242000
20
145.800000
11
135.412000
21
147.324000
0
LINE
8
Layer 1
10
135.412000
20
147.324000
11
135.922000
21
147.870625
0
LINE
8
Layer 1
10
135.922000
20
147.870625
11
136.627000
21
148.142000
0
LINE
8
Layer 1
10
136.627000
20
148.142000
11
137.130000
21
148.149000
0
LINE
8
Layer 1
10
137.130000
20
148.149000
11
163.168000
21
160.663000
0
LINE
8
Layer 1
10
163.168000
20
160.663000
11
163.168000
21
158.762000
0
LINE
8
Layer 1
10
163.168000
20
158.762000
11
155.504000
21
155.079000
0
LINE
8
Layer 1
10
155.504000
20
155.079000
11
155.778000
21
155.010000
0
LINE
8
Layer 1
10
155.778000
20
155.010000
11
156.369875
21
154.626625
0
LINE
8
Layer 1
10
156.369875
20
154.626625
11
156.592000
21
153.980000
0
LINE
8
Layer 1
10
156.592000
20
153.980000
11
163.168000
21
157.141000
0
LINE
8
Layer 1
10
163.168000
20
157.141000
11
163.168000
21
155.240000
0
LINE
8
Layer 1
10
163.168000
20
155.240000
11
142.547000
21
145.330000
0
LINE
8
Layer 1
10
142.547000
20
145.330000
11
141.930250
21
144.837625
0
LINE
8
Layer 1
10
141.930250
20
144.837625
11
141.150000
21
144.658000
0
LINE
8
Layer 1
10
141.150000
20
144.658000
11
128.168000
21
138.419000
0
LINE
8
Layer 1
10
128.168000
20
138.419000
11
128.274000
21
138.157000
0
LINE
8
Layer 1
10
128.274000
20
138.157000
11
128.352109
21
137.728346
0
LINE
8
Layer 1
10
128.352109
20
137.728346
11
128.276937
21
137.324266
0
LINE
8
Layer 1
10
128.276937
20
137.324266
11
127.780750
21
136.670125
0
LINE
8
Layer 1
10
127.780750
20
136.670125
11
127.013437
21
136.355172
0
LINE
8
Layer 1
10
127.013437
20
136.355172
11
126.599359
21
136.375076
0
LINE
8
Layer 1
10
126.599359
20
136.375076
11
126.203000
21
136.540000
0
LINE
8
Layer 1
10
126.203000
20
136.540000
11
125.841875
21
136.822250
0
LINE
8
Layer 1
10
125.841875
20
136.822250
11
125.624000
21
137.196000
0
LINE
8
Layer 1
10
125.624000
20
137.196000
11
122.185000
21
135.544000
0
LINE
8
Layer 1
10
122.185000
20
135.544000
11
120.748000
21
135.543000
0
LINE
8
Layer 1
10
120.748000
20
135.543000
11
120.766000
21
136.762000
0
LINE
8
Layer 1
10
120.766000
20
136.762000
11
121.150000
21
136.947000
0
LINE
8
Layer 1
10
121.150000
20
136.947000
11
120.938125
21
137.772750
0
LINE
8
Layer 1
10
120.938125
20
137.772750
11
121.210000
21
138.597000
0
LINE
8
Layer 1
10
121.210000
20
138.597000
11
120.789000
21
138.395000
0
LINE
8
Layer 1
10
120.789000
20
138.395000
11
120.815000
21
140.308000
0
LINE
8
Layer 1
10
120.815000
20
140.308000
11
130.027000
21
144.735000
0
LINE
8
Layer 1
10
130.027000
20
144.735000
11
129.350000
21
145.129000
0
LINE
8
Layer 1
10
129.350000
20
145.129000
11
128.904000
21
145.817000
0
LINE
8
Layer 1
10
128.904000
20
145.817000
11
120.831000
21
141.938000
0
LINE
8
Layer 1
10
120.831000
20
141.938000
11
120.839000
21
143.843000
0
LINE
8
Layer 1
10
120.839000
20
143.843000
11
152.139000
21
158.885000
0
LINE
8
Layer 1
10
152.139000
20
158.885000
11
152.349000
21
159.545000
0
LINE
8
Layer 1
10
152.349000
20
159.545000
11
152.813359
21
159.975406
0
LINE
8
Layer 1
10
152.813359
20
159.975406
11
153.414875
21
160.102250
0
LINE
8
Layer 1
10
153.414875
20
160.102250
11
154.699000
21
160.127000
0
LINE
8
Layer 1
10
154.699000
20
160.127000
11
154.699000
21
160.127000
0
LINE
8
Layer 1
10
154.699000
20
160.127000
11
154.723000
21
160.127000
0
LINE
8
Layer 1
10
154.723000
20
160.127000
11
163.168000
21
164.186000
0
LINE
8
Layer 1
10
163.168000
20
164.186000
11
163.168000
21
164.186000
0
LINE
8
Layer 1
10
163.168000
20
153.618000
11
163.168000
21
151.717000
0
LINE
8
Layer 1
10
163.168000
20
151.717000
11
156.551000
21
148.537000
0
LINE
8
Layer 1
10
156.551000
20
148.537000
11
156.257500
21
147.963375
0
LINE
8
Layer 1
10
156.257500
20
147.963375
11
155.697000
21
147.635000
0
LINE
8
Layer 1
10
155.697000
20
147.635000
11
154.578000
21
147.588000
0
LINE
8
Layer 1
10
154.578000
20
147.588000
11
129.519000
21
135.545000
0
LINE
8
Layer 1
10
129.519000
20
135.545000
11
129.518000
21
135.545000
0
LINE
8
Layer 1
10
129.518000
20
135.545000
11
125.560000
21
135.544000
0
LINE
8
Layer 1
10
125.560000
20
135.544000
11
152.235000
21
148.364000
0
LINE
8
Layer 1
10
152.235000
20
148.364000
11
152.140500
21
148.962750
0
LINE
8
Layer 1
10
152.140500
20
148.962750
11
152.349000
21
149.545000
0
LINE
8
Layer 1
10
152.349000
20
149.545000
11
152.813359
21
149.975828
0
LINE
8
Layer 1
10
152.813359
20
149.975828
11
153.414875
21
150.102625
0
LINE
8
Layer 1
10
153.414875
20
150.102625
11
154.699000
21
150.127000
0
LINE
8
Layer 1
10
154.699000
20
150.127000
11
154.699000
21
150.127000
0
LINE
8
Layer 1
10
154.699000
20
150.127000
11
155.701000
21
150.030000
0
LINE
8
Layer 1
10
155.701000
20
150.030000
11
163.168000
21
153.618000
0
LINE
8
Layer 1
10
163.168000
20
153.618000
11
163.168000
21
153.618000
0
LINE
8
Layer 1
10
152.191000
20
153.487000
11
141.121000
21
148.167000
0
LINE
8
Layer 1
10
141.121000
20
148.167000
11
141.999500
21
147.923750
0
LINE
8
Layer 1
10
141.999500
20
147.923750
11
142.638000
21
147.274000
0
LINE
8
Layer 1
10
142.638000
20
147.274000
11
153.696000
21
152.589000
0
LINE
8
Layer 1
10
153.696000
20
152.589000
11
153.243000
21
152.628000
0
LINE
8
Layer 1
10
153.243000
20
152.628000
11
152.568875
21
152.891000
0
LINE
8
Layer 1
10
152.568875
20
152.891000
11
152.191000
21
153.487000
0
LINE
8
Layer 1
10
152.191000
20
153.487000
11
152.191000
21
153.487000
0
LINE
8
Layer 1
10
163.168000
20
150.095000
11
163.168000
21
148.194000
0
LINE
8
Layer 1
10
163.168000
20
148.194000
11
156.619000
21
145.047000
0
LINE
8
Layer 1
10
156.619000
20
145.047000
11
156.619000
21
143.426000
0
LINE
8
Layer 1
10
156.619000
20
143.426000
11
163.168000
21
146.573000
0
LINE
8
Layer 1
10
163.168000
20
146.573000
11
163.168000
21
144.672000
0
LINE
8
Layer 1
10
163.168000
20
144.672000
11
144.183000
21
135.548000
0
LINE
8
Layer 1
10
144.183000
20
135.548000
11
140.226000
21
135.547000
0
LINE
8
Layer 1
10
140.226000
20
135.547000
11
142.192000
21
136.492000
0
LINE
8
Layer 1
10
142.192000
20
136.492000
11
142.103000
21
136.538000
0
LINE
8
Layer 1
10
142.103000
20
136.538000
11
141.584500
21
137.055250
0
LINE
8
Layer 1
10
141.584500
20
137.055250
11
141.438000
21
137.751000
0
LINE
8
Layer 1
10
141.438000
20
137.751000
11
136.851000
21
135.546000
0
LINE
8
Layer 1
10
136.851000
20
135.546000
11
132.893000
21
135.546000
0
LINE
8
Layer 1
10
132.893000
20
135.546000
11
136.858000
21
137.451000
0
LINE
8
Layer 1
10
136.858000
20
137.451000
11
136.869469
21
138.013109
0
LINE
8
Layer 1
10
136.869469
20
138.013109
11
137.073500
21
138.539125
0
LINE
8
Layer 1
10
137.073500
20
138.539125
11
137.452281
21
138.946828
0
LINE
8
Layer 1
10
137.452281
20
138.946828
11
137.988000
21
139.154000
0
LINE
8
Layer 1
10
137.988000
20
139.154000
11
138.728500
21
139.072125
0
LINE
8
Layer 1
10
138.728500
20
139.072125
11
139.325000
21
138.637000
0
LINE
8
Layer 1
10
139.325000
20
138.637000
11
152.127000
21
144.789000
0
LINE
8
Layer 1
10
152.127000
20
144.789000
11
152.127000
21
144.973000
0
LINE
8
Layer 1
10
152.127000
20
144.973000
11
152.127000
21
145.006000
0
LINE
8
Layer 1
10
152.127000
20
145.006000
11
152.127000
21
145.105000
0
LINE
8
Layer 1
10
152.127000
20
145.105000
11
152.785000
21
145.105000
0
LINE
8
Layer 1
10
152.785000
20
145.105000
11
163.168000
21
150.095000
0
LINE
8
Layer 1
10
163.168000
20
150.095000
11
163.168000
21
150.095000
0
LINE
8
Layer 1
10
139.817000
20
147.540000
11
138.550000
21
146.931000
0
LINE
8
Layer 1
10
138.550000
20
146.931000
11
138.644125
21
146.394125
0
LINE
8
Layer 1
10
138.644125
20
146.394125
11
138.550000
21
145.843000
0
LINE
8
Layer 1
10
138.550000
20
145.843000
11
138.357875
21
145.409750
0
LINE
8
Layer 1
10
138.357875
20
145.409750
11
138.054000
21
145.071000
0
LINE
8
Layer 1
10
138.054000
20
145.071000
11
139.480000
21
145.757000
0
LINE
8
Layer 1
10
139.480000
20
145.757000
11
139.411125
21
146.687500
0
LINE
8
Layer 1
10
139.411125
20
146.687500
11
139.817000
21
147.540000
0
LINE
8
Layer 1
10
139.817000
20
147.540000
11
139.817000
21
147.540000
0
LINE
8
Layer 1
10
135.411000
20
145.423000
11
122.394000
21
139.166000
0
LINE
8
Layer 1
10
122.394000
20
139.166000
11
123.192250
21
138.864750
0
LINE
8
Layer 1
10
123.192250
20
138.864750
11
123.674000
21
138.160000
0
LINE
8
Layer 1
10
123.674000
20
138.160000
11
137.299000
21
144.708000
0
LINE
8
Layer 1
10
137.299000
20
144.708000
11
136.309375
21
144.738625
0
LINE
8
Layer 1
10
136.309375
20
144.738625
11
135.862797
21
144.951703
0
LINE
8
Layer 1
10
135.862797
20
144.951703
11
135.499000
21
145.304000
0
LINE
8
Layer 1
10
135.499000
20
145.304000
11
135.411000
21
145.423000
0
LINE
8
Layer 1
10
135.411000
20
145.423000
11
135.411000
21
145.423000
0
LINE
8
Layer 1
10
163.168000
20
143.050000
11
163.168000
21
141.149000
0
LINE
8
Layer 1
10
163.168000
20
141.149000
11
156.976000
21
138.174000
0
LINE
8
Layer 1
10
156.976000
20
138.174000
11
156.296125
21
138.853125
0
LINE
8
Layer 1
10
156.296125
20
138.853125
11
155.476000
21
139.353000
0
LINE
8
Layer 1
10
155.476000
20
139.353000
11
163.168000
21
143.050000
0
LINE
8
Layer 1
10
163.168000
20
143.050000
11
163.168000
21
143.050000
0
LINE
8
Layer 1
10
152.127000
20
142.888000
11
143.713000
21
138.844000
0
LINE
8
Layer 1
10
143.713000
20
138.844000
11
144.174000
21
138.157000
0
LINE
8
Layer 1
10
144.174000
20
138.157000
11
144.216000
21
137.465000
0
LINE
8
Layer 1
10
144.216000
20
137.465000
11
154.892000
21
142.595000
0
LINE
8
Layer 1
10
154.892000
20
142.595000
11
152.127000
21
142.595000
0
LINE
8
Layer 1
10
152.127000
20
142.595000
11
152.127000
21
142.888000
0
LINE
8
Layer 1
10
152.127000
20
142.888000
11
152.127000
21
142.888000
0
LINE
8
Layer 1
10
153.935000
20
139.685000
11
153.949000
21
139.685000
0
LINE
8
Layer 1
10
153.949000
20
139.685000
11
153.898000
21
139.682000
0
LINE
8
Layer 1
10
153.898000
20
139.682000
11
153.935000
21
139.685000
0
LINE
8
Layer 1
10
153.935000
20
139.685000
11
153.935000
21
139.685000
0
LINE
8
Layer 1
10
163.168000
20
139.528000
11
163.168000
21
137.627000
0
LINE
8
Layer 1
10
163.168000
20
137.627000
11
158.854000
21
135.554000
0
LINE
8
Layer 1
10
158.854000
20
135.554000
11
157.830000
21
135.555000
0
LINE
8
Layer 1
10
157.830000
20
135.555000
11
157.663000
21
136.882000
0
LINE
8
Layer 1
10
157.663000
20
136.882000
11
163.168000
21
139.528000
0
LINE
8
Layer 1
10
163.168000
20
139.528000
11
163.168000
21
139.528000
0
LINE
8
Layer 1
10
150.491000
20
136.958000
11
150.322375
21
136.263250
0
LINE
8
Layer 1
10
150.322375
20
136.263250
11
150.297000
21
135.549000
0
LINE
8
Layer 1
10
150.297000
20
135.549000
11
147.558000
21
135.548000
0
LINE
8
Layer 1
10
147.558000
20
135.548000
11
150.491000
21
136.958000
0
LINE
8
Layer 1
10
150.491000
20
136.958000
11
150.491000
21
136.958000
0
LINE
8
Layer 1
10
163.168000
20
136.005000
11
163.168000
21
135.549000
0
LINE
8
Layer 1
10
163.168000
20
135.549000
11
162.221000
21
135.550000
0
LINE
8
Layer 1
10
162.221000
20
135.550000
11
163.168000
21
136.005000
0
LINE
8
Layer 1
10
163.168000
20
136.005000
11
163.168000
21
136.005000
 0 
ENDSEC
 0 
EOF