<?xml version="1.0" encoding="UTF-8" standalone="no"?>
<!-- Created with Inkscape (http://www.inkscape.org/) -->

<svg
   width="49.172714mm"
   height="99.254921mm"
   viewBox="0 0 49.172714 99.254921"
   version="1.1"
   id="svg100468"
   xml:space="preserve"
   inkscape:version="1.2.1 (9c6d41e410, 2022-07-14)"
   sodipodi:docname="warning-zone3-raw.svg"
   xmlns:inkscape="http://www.inkscape.org/namespaces/inkscape"
   xmlns:sodipodi="http://sodipodi.sourceforge.net/DTD/sodipodi-0.dtd"
   xmlns="http://www.w3.org/2000/svg"
   xmlns:svg="http://www.w3.org/2000/svg"><sodipodi:namedview
     id="namedview100470"
     pagecolor="#ffffff"
     bordercolor="#666666"
     borderopacity="1.0"
     inkscape:showpageshadow="2"
     inkscape:pageopacity="0.0"
     inkscape:pagecheckerboard="0"
     inkscape:deskcolor="#d1d1d1"
     inkscape:document-units="mm"
     showgrid="false"
     showguides="false"
     inkscape:zoom="3.4437688"
     inkscape:cx="65.480586"
     inkscape:cy="259.16374"
     inkscape:window-width="3840"
     inkscape:window-height="2050"
     inkscape:window-x="-12"
     inkscape:window-y="-12"
     inkscape:window-maximized="1"
     inkscape:current-layer="layer4" /><defs
     id="defs100465" /><g
     inkscape:label="Layer 1"
     inkscape:groupmode="layer"
     id="layer1"
     transform="translate(126.67074,33.550541)"
     style="display:inline"><path
       id="path125280"
       style="font-variation-settings:'wght' 600;fill:#ab5e44;fill-opacity:0.43686;fill-rule:evenodd;stroke:none;stroke-width:0.79375;stroke-linecap:round;stroke-opacity:0.556701"
       d="m -120.9486,-33.550541 c -1.64687,-10e-6 -0.21714,1.840204 -2.97192,2.053105 l 0.003,1.281058 10e-4,0.505396 v 2.840653 2.763656 3.346566 2.763655 2.868042 c 0,0 -0.009,0.198194 -0.0155,0.487309 -2.8e-4,0.01158 -2.6e-4,0.0309 -5.2e-4,0.04289 -0.003,0.141155 -0.004,0.310248 -0.004,0.503328 4.3e-4,0.172127 0.002,0.332945 0.007,0.543119 0.006,0.229655 0.0164,0.478678 0.031,0.748792 0.0147,0.272642 0.0351,0.562194 0.0615,0.870748 0.0779,0.910784 0.21205,1.9599601 0.44028,3.0918006 0.0262,0.1300884 0.055,0.2612595 0.0837,0.3932577 0.0575,0.265107 0.11839,0.5327394 0.18655,0.8040853 0.0501,0.1982518 0.10235,0.3975083 0.15865,0.5984131 0.0571,0.2037257 0.11703,0.4086589 0.18087,0.6144327 1.6e-4,5.17e-4 3.5e-4,0.00103 5.1e-4,0.00155 0.28074,0.9048002 0.62983,1.8255622 1.05989,2.7342001 0.13423,0.2836161 0.27711,0.5656736 0.42788,0.8459432 0.0422,0.078699 0.0856,0.1567827 0.12919,0.2351277 0.0375,0.067229 0.0742,0.1345962 0.11265,0.2015381 0.0969,0.1688326 0.19609,0.3371414 0.29973,0.5038452 l 0.27078,0.2614828 1.16685,1.12861325 c 0.31082,0.31536863 0.55156,0.68170723 0.70487,1.13739827 0.0284,0.0842614 0.0537,0.17192938 0.076,0.26251628 0.002,0.007494 0.003,0.015197 0.005,0.0227376 0.02,0.0838335 0.0372,0.1705939 0.0517,0.2604492 0.005,0.033548 0.009,0.068919 0.0129,0.1033529 0.009,0.067859 0.0181,0.135708 0.0238,0.2072225 0.009,0.1162673 0.0149,0.2359148 0.015,0.3622518 2e-5,0.073332 -0.005,0.1478585 -0.0124,0.2232422 -0.002,0.021566 -0.006,0.043419 -0.009,0.065112 -0.007,0.053107 -0.0142,0.106524 -0.0248,0.1601969 -0.006,0.030433 -0.014,0.060921 -0.0212,0.091467 -0.0109,0.046528 -0.0222,0.09288 -0.0357,0.1395264 -0.008,0.028218 -0.0173,0.05654 -0.0264,0.084749 -0.0166,0.051508 -0.0342,0.1032151 -0.0537,0.1545126 -0.01,0.026051 -0.0203,0.05208 -0.031,0.078031 -0.0194,0.046977 -0.0403,0.093537 -0.062,0.1400431 -0.0152,0.032551 -0.0307,0.064908 -0.047,0.097152 -0.0243,0.047838 -0.0502,0.09512 -0.077,0.1421102 -0.0127,0.022256 -0.025,0.044631 -0.0382,0.066663 -0.0337,0.056129 -0.0694,0.1114593 -0.10645,0.1658813 -0.0119,0.017491 -0.0229,0.035421 -0.0351,0.05271 -0.0439,0.062038 -0.0904,0.1222874 -0.13849,0.1813843 -0.005,0.00658 -0.0101,0.01361 -0.0155,0.020154 -0.36188,0.4374023 -0.83638,0.784007 -1.37562,0.9244914 -0.12821,0.028054 -0.23807,0.04919 -0.34469,0.06873 -0.002,3.212e-4 -0.004,7.145e-4 -0.006,0.00103 -0.0971,0.017715 -0.18256,0.030824 -0.26407,0.042375 -0.019,0.00269 -0.0401,0.0064 -0.0584,0.00878 -0.0801,0.010486 -0.15201,0.017637 -0.21859,0.022738 -0.0114,8.619e-4 -0.0236,0.00187 -0.0346,0.00258 -0.0635,0.0042 -0.12066,0.00621 -0.17363,0.0062 -0.0126,-2.65e-5 -0.0252,-2.793e-4 -0.0372,-5.167e-4 -0.0516,-9.003e-4 -0.10004,-0.00308 -0.14367,-0.00723 -0.003,-3.323e-4 -0.007,-0.0012 -0.01,-0.00155 -0.19855,-0.020109 -0.32694,-0.068626 -0.49713,-0.1028361 -0.32077,-0.0874 -0.71648,-0.1873155 -1.08676,-0.1875855 -1.79794,7e-5 -3.25554,1.4576625 -3.25561,3.2556153 0,0.098415 0.006,0.1952628 0.015,0.291455 0.0928,1.0430536 0.67734,1.9425415 1.52032,2.4691003 0.003,0.0019 0.006,0.0033 0.009,0.0052 0.17347,0.107571 0.35719,0.199514 0.55035,0.273369 0.0282,0.01086 0.0567,0.02092 0.0853,0.03101 0.052,0.01824 0.10389,0.03656 0.15709,0.05219 0.077,0.02283 0.15537,0.04279 0.23461,0.05994 0.0324,0.0069 0.0654,0.01213 0.0982,0.01809 0.0677,0.01248 0.13602,0.02283 0.20515,0.03101 0.027,0.0031 0.0539,0.0063 0.0811,0.0088 0.0987,0.0091 0.19812,0.0155 0.2992,0.0155 0.37025,-1.1e-4 0.75963,-0.103969 1.08676,-0.187069 0.32714,-0.0831 0.60413,-0.112903 0.86351,-0.104903 0.10888,0.0034 0.22211,0.01443 0.3328,0.02739 0.10028,0.0129 0.1976,0.02959 0.28732,0.04858 0.003,6.14e-4 0.006,9.3e-4 0.009,0.0015 0.0392,0.0084 0.0867,0.01425 0.12144,0.02377 1.26238,0.35026 1.89144,1.22951 2.14354,2.015381 0.0148,0.04629 0.0264,0.09141 0.0388,0.136942 0.0281,0.104519 0.0522,0.207727 0.0677,0.305925 0.003,0.01711 0.004,0.03326 0.006,0.05013 0.0153,0.110821 0.0257,0.218264 0.0264,0.315743 v 1.874821 3.346566 0.24753 0.0047 c -6.8e-4,1.092569 -0.71883,2.231565 -1.81643,2.703194 -0.51262,0.221518 -0.95868,0.249352 -1.21801,0.257348 -0.25938,0.008 -0.53641,-0.0218 -0.86351,-0.104903 -0.32713,-0.0831 -0.71651,-0.186958 -1.08676,-0.187068 -0.0276,1e-6 -0.0542,0.0035 -0.0816,0.0041 -1.14104,0.02841 -2.13395,0.643076 -2.69286,1.554944 -0.10815,0.176445 -0.19949,0.363636 -0.27285,0.560172 -0.007,0.01927 -0.0148,0.03844 -0.0217,0.05788 -0.0201,0.05718 -0.0394,0.114522 -0.0563,0.173116 -0.0192,0.06551 -0.0361,0.131797 -0.0512,0.198954 -0.002,0.0089 -0.005,0.01744 -0.007,0.02636 -0.007,0.03085 -0.0109,0.06237 -0.0165,0.09353 -0.0127,0.06856 -0.0233,0.137719 -0.0315,0.20774 -0.003,0.02752 -0.007,0.05495 -0.009,0.08268 -0.009,0.09757 -0.015,0.196137 -0.015,0.296106 1e-5,0.109667 0.006,0.217756 0.0165,0.324528 0.007,0.0699 0.0192,0.138179 0.0305,0.206706 0.005,0.03242 0.009,0.06558 0.015,0.09767 0.0196,0.09996 0.0444,0.197585 0.0729,0.294039 0.0279,0.09429 0.0602,0.186476 0.0961,0.276986 0.001,0.0032 0.002,0.0066 0.004,0.0098 0.40199,1.00256 1.28616,1.759878 2.36729,1.980241 0.21114,0.04304 0.42987,0.06562 0.65371,0.06563 0.0926,-6.7e-5 0.18694,-0.0063 0.28112,-0.01705 0.0942,-0.01077 0.18795,-0.02596 0.2806,-0.04392 0.18531,-0.03594 0.36465,-0.08291 0.52504,-0.126607 0.32074,-0.08747 0.55623,-0.10087 0.86351,-0.10387 0.30722,-0.003 0.65058,0.08214 1.05575,0.189653 0.10228,0.03353 0.20146,0.07672 0.29869,0.12454 0.0167,0.0082 0.0335,0.01622 0.0501,0.0248 0.0975,0.05069 0.19278,0.106547 0.28422,0.169499 5.2e-4,3.54e-4 0.001,6.79e-4 0.002,0.001 0.79661,0.549176 1.34394,1.539003 1.34359,2.41794 -2e-5,0.05439 -0.005,0.103952 -0.007,0.15658 -0.0209,0.630561 -0.16242,1.137236 -0.38912,1.551326 -0.0441,0.08047 -0.0913,0.157279 -0.14159,0.230994 -0.0206,0.03001 -0.0436,0.05735 -0.0651,0.0863 -0.0339,0.04582 -0.0666,0.09267 -0.10283,0.135909 -0.0582,0.06942 -0.1193,0.135753 -0.18294,0.198955 l -0.71933,0.695048 -0.71934,0.695048 c -0.0768,0.07743 -0.15169,0.157666 -0.22479,0.239778 -0.0418,0.04677 -0.0819,0.09554 -0.12247,0.143661 -0.0232,0.02764 -0.0469,0.05462 -0.0698,0.08268 -0.12971,0.158901 -0.2521,0.324358 -0.36845,0.494544 -0.001,0.0016 -0.003,0.003 -0.004,0.0046 -0.797,1.167717 -1.26903,2.556469 -1.2516,3.581694 l -5.2e-4,0.487825 -0.002,2.76469 -10e-4,1.295011 0.007,2.048454 0.009,2.758488 0.009,2.832902 h 0.0207 v 0.49661 2.763656 3.28042 0.06615 2.763655 3.158464 c 0.0598,0.02963 0.11178,0.06179 0.16226,0.09457 h 5.2e-4 c 0.0548,0.03561 0.10366,0.07345 0.14883,0.112137 0.002,0.002 0.005,0.0037 0.008,0.0057 7.1e-4,6.18e-4 0.001,0.0014 0.002,0.0021 0.046,0.04013 0.0872,0.08189 0.12455,0.12454 l 5.1e-4,5.17e-4 c 0.0367,0.04202 0.0695,0.08491 0.0992,0.128674 0.001,0.0016 0.003,0.0031 0.004,0.0047 5.5e-4,8.24e-4 0.001,0.0018 0.002,0.0026 0.18466,0.275543 0.25164,0.573362 0.37052,0.817521 0.0142,0.02941 0.0267,0.06131 0.0429,0.08888 0.0158,0.02677 0.0329,0.05276 0.0512,0.07751 0.007,0.0099 0.0145,0.01989 0.0222,0.02946 0.0184,0.02267 0.0392,0.04356 0.0605,0.06408 0.0122,0.01178 0.0235,0.02414 0.0367,0.03514 0.0232,0.01923 0.0501,0.03602 0.077,0.05271 0.0137,0.0085 0.026,0.01802 0.0408,0.02584 0.0287,0.01515 0.0621,0.02749 0.0951,0.03979 0.0189,0.0071 0.0359,0.01564 0.0563,0.0217 0.0316,0.0094 0.0688,0.01536 0.10438,0.02222 0.0268,0.0052 0.0509,0.01183 0.0801,0.0155 0.0666,0.0084 0.13921,0.01292 0.21963,0.01292 h 0.22375 5.79655 4.78679 0.49247 5.30407 4.786792 1.209745 c 1.165193,7e-6 0.793973,-0.920548 1.449524,-1.535307 3.42e-4,-3.21e-4 6.9e-4,-7.13e-4 0.001,-0.001 0.03359,-0.03144 0.07011,-0.06225 0.109038,-0.09198 0.04684,-0.03528 0.09639,-0.06955 0.152445,-0.101802 0.02614,-0.01529 0.05582,-0.0294 0.08423,-0.04392 0.07073,-0.03564 0.145865,-0.06936 0.23151,-0.09974 0.0093,-0.0033 0.01688,-0.0071 0.02635,-0.01034 l 5.17e-4,-5.17e-4 c 0.345707,-0.117599 0.816188,-0.190169 1.469161,-0.190169 h 4.514453 v -1.895492 c 0,-1.242619 1.007368,-2.249987 2.249992,-2.249992 h 5.073075 4.786788 0.702283 V 59.07843 56.314775 52.968209 50.204553 46.857988 44.094332 40.747766 37.984111 34.637028 31.873373 28.526807 25.763151 22.416585 19.65293 16.306364 13.542709 10.196143 7.4324872 4.0859214 1.3222658 -2.0243 v -2.7636556 -3.3465657 -2.7636557 -3.346566 -2.763655 -3.346566 -2.763656 -3.347082 -0.76016 h -3.470589 -5.796029 -1.295528 c -0.08922,-1e-6 -0.17708,-0.0064 -0.26355,-0.01654 -0.02057,-0.0024 -0.04058,-0.0063 -0.06098,-0.0093 -0.06505,-0.0095 -0.129128,-0.02126 -0.192237,-0.03617 -0.02495,-0.0059 -0.04979,-0.01242 -0.07441,-0.01912 -0.05833,-0.01594 -0.115749,-0.03435 -0.172082,-0.05478 -0.02278,-0.0082 -0.04578,-0.01587 -0.06821,-0.02481 -0.06747,-0.02698 -0.133344,-0.05676 -0.197404,-0.08992 -0.0088,-0.0046 -0.01811,-0.0083 -0.02687,-0.01292 -0.07669,-0.041 -0.15062,-0.0866 -0.221692,-0.135909 -0.0704,-0.04885 -0.137795,-0.10177 -0.202055,-0.15813 -0.0051,-0.0044 -0.01,-0.009 -0.01499,-0.01344 -0.06131,-0.05474 -0.11964,-0.112565 -0.174666,-0.173633 -0.002,-0.0023 -0.0042,-0.0044 -0.0062,-0.0067 -0.05779,-0.06466 -0.112122,-0.132589 -0.162264,-0.203605 -0.25873,-0.366432 -0.412378,-0.81234 -0.412378,-1.295011 v -1.813326 -0.186552 h -4.46381 -0.05064 c -2.614952,0 -2.313507,-1.15917 -2.724382,-1.744597 -0.03039,-0.0433 -0.06679,-0.0815 -0.106453,-0.117822 -0.0057,-0.0052 -0.0091,-0.01202 -0.01499,-0.01705 l -5.17e-4,-5.17e-4 c -0.03111,-0.02651 -0.07096,-0.047 -0.109037,-0.06873 -0.01986,-0.01137 -0.03534,-0.02572 -0.05736,-0.03566 -0.0516,-0.02321 -0.113722,-0.03966 -0.178801,-0.05426 -0.01483,-0.0033 -0.02522,-0.0096 -0.04082,-0.0124 h -5.17e-4 c -0.08469,-0.01541 -0.18092,-0.02377 -0.290938,-0.02377 h -3.414774 -5.79655 -2.08928 -2.69751 -5.79654 z m 21.703581,2.356962 c 0.198553,0.02492 0.24559,0.362689 0.356567,0.504362 0.357625,0.378723 0.764013,0.668923 1.20096,0.895553 l -23.806818,13.744897 c -0.0322,-1.105703 -0.0432,-2.212925 -0.045,-3.320727 l 20.45664,-11.810649 c 0.58099,-0.0015 1.162063,-0.002 1.743043,-0.0036 0.0352,-0.01068 0.0662,-0.01338 0.09457,-0.0098 z m -6.641971,0.02377 -15.64091,9.030457 c 0.0102,-1.121209 0.0205,-2.242381 0.0284,-3.363102 l 9.79423,-5.654436 c 1.93946,-0.0038 3.87882,-0.0087 5.81825,-0.01292 z m -10.62313,0.02325 -4.98987,2.880961 c -0.003,-0.483747 -0.003,-0.967836 -0.0119,-1.451074 0.58861,-0.32139 1.01907,-0.861218 1.36736,-1.422136 1.21144,-0.0027 2.42294,-0.0053 3.6344,-0.0078 z m 23.820773,2.060856 c 0.0987,0.733849 0.365584,1.447996 0.766361,2.074292 L -121.084,-10.17574 c -0.12502,-1.057861 -0.21997,-2.118029 -0.28732,-3.180168 l 27.211778,-15.710669 c 0.498223,0.0089 0.99365,-0.001 1.470195,-0.01912 z m 2.615344,3.770312 c 0.0763,0.03846 0.153214,0.0761 0.232027,0.110071 1.572102,0.260608 3.158329,0.340252 4.748548,0.360702 l -34.502802,19.9202307 c -0.45984,-0.8669075 -0.82756,-1.7799396 -1.08107,-2.7217977 z m 9.77098,0.469222 c 0.138096,0.0013 0.276452,4.06e-4 0.414445,0.0026 -2.22e-4,1.035251 -2.95e-4,2.070503 -5.17e-4,3.105754 l -36.637555,21.15219692 c -0.12455,-0.27984159 -0.27544,-0.54880672 -0.45424,-0.80253502 -0.47031,-0.4738046 -0.91321,-0.982101 -1.32188,-1.5187703 z m 0.413411,5.871993 c -2.39e-4,1.115694 -7.94e-4,2.23139 -0.001,3.347083 L -121.43488,8.3585288 c -0.63259,0.020264 -1.27064,0.1049316 -1.87172,0.153479 -0.91409,0.3138629 -1.27656,-1.1803237 -0.51573,-1.5430582 1.43943,0.1626238 2.96135,0.3106072 4.3403,-0.2371949 2.05033,-0.6767699 3.27483,-2.7200145 3.39308,-4.8064249 z m -0.0015,6.111255 c -2.39e-4,1.11552 -2.78e-4,2.231046 -5.17e-4,3.3465659 L -113.82656,10.075737 h -0.007 -3.70159 c -0.24612,-0.2707254 -0.52163,-0.5149807 -0.82268,-0.7307051 z m -0.0016,6.1107383 c -2.39e-4,1.1156917 -2.78e-4,2.2313909 -5.17e-4,3.3470825 L -111.95432,15.105404 v -3.346566 z m -10e-4,6.11125484 c -2.38e-4,1.1155191 -2.78e-4,2.23104686 -5.16e-4,3.34656576 L -111.95432,21.216142 v -3.346566 z m -0.0016,6.11073816 c -2.39e-4,1.1156909 -2.78e-4,2.2313916 -5.17e-4,3.3470825 L -116.24502,29.802698 c -0.24145,-0.946073 -0.71853,-1.835208 -1.38182,-2.548165 z m -10e-4,6.1112547 c -2.39e-4,1.115519 -7.95e-4,2.231047 -0.001,3.346566 L -120.1502,38.168079 c 0.50704,-1.627671 2.17969,-2.643154 3.13417,-4.017326 0.3696,-0.485061 0.62382,-1.024127 0.77722,-1.588017 z m -35.478968,0.328145 h 1.25005 v 1.102776 3.346565 2.764173 1.685168 h -1.25005 V 19.844133 17.07996 13.733911 Z m 35.477417,5.782593 c -2.39e-4,1.115691 -2.78e-4,2.231392 -5.17e-4,3.347083 l -40.50915,23.388236 c -0.0124,-1.119503 -0.0114,-2.238778 0.0181,-3.357418 z m -37.579097,4.949569 h 3.05356 l -5.47409,3.160531 c -1.11415,-0.304328 -2.34429,-0.14383 -3.48195,0.0098 -0.57757,0.153744 -0.87562,-0.371566 -0.84543,-0.857829 l 1.10691,-0.639237 c 2.00388,0.340248 4.27012,-0.09425 5.641,-1.673283 z m 37.578064,1.161169 c -2.39e-4,1.115691 -7.95e-4,2.231392 -0.001,3.347083 l -40.474534,23.368083 c 0.0218,-1.115573 0.0166,-2.231558 0.002,-3.3476 z m -0.0016,6.111255 c -2.39e-4,1.115692 -2.77e-4,2.231391 -5.16e-4,3.347083 l -40.475568,23.368599 c -10e-4,-1.114832 -0.003,-2.229669 -0.004,-3.344498 z m -10e-4,6.110738 c -2.4e-4,1.115864 -7.94e-4,2.231735 -0.001,3.3476 L -120.3698,62.735565 c -0.001,-1.114827 -0.002,-2.229667 -0.004,-3.344498 z m -0.0015,6.111772 c -2.4e-4,1.115692 -2.77e-4,2.23139 -5.17e-4,3.347083 L -110.7761,63.307113 c -1.93613,0.0023 -3.87228,0.0049 -5.80843,0.0072 z m -0.001,6.110738 c -2.4e-4,1.115693 -7.93e-4,2.231389 -10e-4,3.347083 l -20.265424,11.700061 c -1.93633,0.0023 -3.87264,0.0049 -5.80895,0.0072 z m -0.0015,6.111255 c -1.98e-4,0.915017 -3.19e-4,1.830035 -5.17e-4,2.745052 -1.586622,-0.0023 -3.173277,-0.0033 -4.759916,0.0031 z" /></g><g
     inkscape:groupmode="layer"
     id="layer4"
     inkscape:label="mask"
     style="display:inline"><g
       style="fill:#fa801d;fill-opacity:1;stroke:#000000;stroke-width:0.833333;stroke-linecap:round;stroke-linejoin:round;stroke-opacity:1"
       id="g128724"
       transform="matrix(1.2e-6,0,0,1.2e-6,-96.531096,-43.859146)" /><g
       style="fill:#fa801d;fill-opacity:1;stroke:#000000;stroke-width:0.833333;stroke-linecap:round;stroke-linejoin:round;stroke-opacity:1"
       id="g128730"
       transform="matrix(1.2e-6,0,0,1.2e-6,-101.0511,-43.859146)" /><g
       style="fill:#fa801d;fill-opacity:1;stroke:#000000;stroke-width:0.833333;stroke-linecap:round;stroke-linejoin:round;stroke-opacity:1"
       id="g128740"
       transform="matrix(1.2e-6,0,0,1.2e-6,-100.7679,-32.620542)" /><g
       style="fill:#fa801d;fill-opacity:1;stroke:#000000;stroke-width:0.833333;stroke-linecap:round;stroke-linejoin:round;stroke-opacity:1"
       id="g128746"
       transform="matrix(1.2e-6,0,0,1.2e-6,-100.7679,-37.140544)" /><g
       style="fill:#000000;fill-opacity:1;stroke:#000000;stroke-width:0.833333;stroke-linecap:round;stroke-linejoin:round;stroke-opacity:1"
       id="g128948"
       transform="matrix(1.2e-6,0,0,1.2000001e-6,-103.1211,-42.462149)" /><g
       style="fill:#fa801d;fill-opacity:1;stroke:#000000;stroke-width:0.833333;stroke-linecap:round;stroke-linejoin:round;stroke-opacity:1"
       id="g128970"
       transform="matrix(1.2e-6,0,0,1.2e-6,-95.989096,-33.221143)" /><g
       style="fill:#fa801d;fill-opacity:1;stroke:#000000;stroke-width:0.833333;stroke-linecap:round;stroke-linejoin:round;stroke-opacity:1"
       id="g128982"
       transform="matrix(1.2e-6,0,0,1.2e-6,-98.819097,-34.431143)" /><g
       style="fill:#fa801d;fill-opacity:1;stroke:#000000;stroke-width:0.833333;stroke-linecap:round;stroke-linejoin:round;stroke-opacity:1"
       id="g128988"
       transform="matrix(1.2e-6,0,0,1.2e-6,-98.829097,-32.021142)" /><g
       style="fill:#fa801d;fill-opacity:1;stroke:#000000;stroke-width:0.833333;stroke-linecap:round;stroke-linejoin:round;stroke-opacity:1"
       id="g129040"
       transform="matrix(1.2e-6,0,0,1.2e-6,-98.361097,-39.303144)" /><g
       style="fill:#fa801d;fill-opacity:1;stroke:#000000;stroke-width:0.833333;stroke-linecap:round;stroke-linejoin:round;stroke-opacity:1"
       id="g129046"
       transform="matrix(1.2e-6,0,0,1.2e-6,-99.621097,-41.953145)" /><g
       style="fill:#fa801d;fill-opacity:1;stroke:#000000;stroke-width:0.833333;stroke-linecap:round;stroke-linejoin:round;stroke-opacity:1"
       id="g129052"
       transform="matrix(1.2e-6,0,0,1.2e-6,-99.621097,-39.293144)" /><g
       style="fill:#fa801d;fill-opacity:1;stroke:#000000;stroke-width:0.833333;stroke-linecap:round;stroke-linejoin:round;stroke-opacity:1"
       id="g129058"
       transform="matrix(1.2e-6,0,0,1.2e-6,-100.4711,-41.953145)" /><g
       style="fill:#fa801d;fill-opacity:1;stroke:#000000;stroke-width:0.833333;stroke-linecap:round;stroke-linejoin:round;stroke-opacity:1"
       id="g129064"
       transform="matrix(1.2e-6,0,0,1.2e-6,-100.4811,-39.293144)" /><g
       style="fill:#000000;fill-opacity:1;stroke:#000000;stroke-width:0.833333;stroke-linecap:round;stroke-linejoin:round;stroke-opacity:1"
       id="g129106"
       transform="matrix(1.2e-6,0,0,1.2000001e-6,-103.1211,-34.462145)" /><g
       style="fill:#000000;fill-opacity:1;stroke:#000000;stroke-width:0.833333;stroke-linecap:round;stroke-linejoin:round;stroke-opacity:1"
       id="g129128"
       transform="matrix(1.2e-6,0,0,1.2000001e-6,-103.1211,-38.462147)" /><g
       style="fill:#fa801d;fill-opacity:1;stroke:#000000;stroke-width:0.833333;stroke-linecap:round;stroke-linejoin:round;stroke-opacity:1"
       id="g129270"
       transform="matrix(1.2e-6,0,0,1.2e-6,-100.5831,-30.979141)" /><g
       style="fill:#fa801d;fill-opacity:1;stroke:#000000;stroke-width:0.833333;stroke-linecap:round;stroke-linejoin:round;stroke-opacity:1"
       id="g129298"
       transform="matrix(1.2e-6,0,0,1.2e-6,-98.829097,-35.489143)" /><g
       style="fill:#fa801d;fill-opacity:1;stroke:#000000;stroke-width:0.833333;stroke-linecap:round;stroke-linejoin:round;stroke-opacity:1"
       id="g129304"
       transform="matrix(1.2e-6,0,0,1.2e-6,-98.819097,-37.899144)" /><g
       style="fill:#fa801d;fill-opacity:1;stroke:#000000;stroke-width:0.833333;stroke-linecap:round;stroke-linejoin:round;stroke-opacity:1"
       id="g129316"
       transform="matrix(1.2e-6,0,0,1.2e-6,-95.989096,-36.689144)" /><path
       id="circle136699"
       style="fill:#14ab3c;fill-opacity:0.629693;fill-rule:evenodd;stroke:#1b1b1a;stroke-width:0.01;stroke-linecap:round"
       d="m 16.689907,84.862862 a 1.8010005,1.8010005 0 0 1 -1.801001,1.801 1.8010005,1.8010005 0 0 1 -1.801,-1.801 1.8010005,1.8010005 0 0 1 1.801,-1.801001 1.8010005,1.8010005 0 0 1 1.801001,1.801001 z m -7.3010167,-1.800046 0.182508,0.01872 0.197856,0.06564 0.177444,0.10932 0.1475157,0.147276 0.10968,0.177252 0.066,0.197724 0.01908,0.184056 v 1.8 l -0.01872,0.182508 -0.06564,0.197844 -0.10932,0.177444 -0.1472757,0.147528 -0.177252,0.10968 -0.197724,0.066 -0.184056,0.01908 H 7.5889861 l -0.182508,-0.01872 -0.197844,-0.06564 -0.177444,-0.10932 -0.1475281,-0.147264 -0.10968,-0.177252 -0.066,-0.197736 -0.01908,-0.184044 v -1.8 l 0.01872,-0.182508 0.06564,-0.197856 0.10932,-0.177444 0.1472641,-0.147516 0.177264,-0.10968 0.197724,-0.066 0.184056,-0.01908 z M 37.512904,81.218864 h 2.35198 c 0.665359,0 1.20101,0.530294 1.20101,1.189 0,0.658706 -0.535651,1.189 -1.20101,1.189 h -2.35198 c -0.66536,0 -1.201011,-0.530294 -1.201011,-1.189 0,-0.658706 0.535651,-1.189 1.201011,-1.189 z m 0,-10 h 2.35198 c 0.665359,0 1.20101,0.530294 1.20101,1.189 0,0.658706 -0.535651,1.189 -1.20101,1.189 h -2.35198 c -0.66536,0 -1.201011,-0.530294 -1.201011,-1.189 0,-0.658706 0.535651,-1.189 1.201011,-1.189 z m 0,-10.000007 h 2.35198 c 0.665359,0 1.20101,0.530294 1.20101,1.189 0,0.658706 -0.535651,1.189 -1.20101,1.189 h -2.35198 c -0.66536,0 -1.201011,-0.530294 -1.201011,-1.189 0,-0.658706 0.535651,-1.189 1.201011,-1.189 z m 0,-10 h 2.35198 c 0.665359,0 1.20101,0.530294 1.20101,1.189 0,0.658706 -0.535651,1.189 -1.20101,1.189 h -2.35198 c -0.66536,0 -1.201011,-0.530294 -1.201011,-1.189 0,-0.658706 0.535651,-1.189 1.201011,-1.189 z m 0,-9.999996 h 2.35198 c 0.665359,0 1.20101,0.530294 1.20101,1.189 0,0.658706 -0.535651,1.189 -1.20101,1.189 h -2.35198 c -0.66536,0 -1.201011,-0.530294 -1.201011,-1.189 0,-0.658706 0.535651,-1.189 1.201011,-1.189 z m 0,-10 h 2.35198 c 0.665359,0 1.20101,0.530294 1.20101,1.189 0,0.658706 -0.535651,1.189 -1.20101,1.189 h -2.35198 c -0.66536,0 -1.201011,-0.530294 -1.201011,-1.189 0,-0.658706 0.535651,-1.189 1.201011,-1.189 z m 0,-10 h 2.35198 c 0.665359,0 1.20101,0.530294 1.20101,1.189 0,0.658706 -0.535651,1.189 -1.20101,1.189 h -2.35198 c -0.66536,0 -1.201011,-0.530294 -1.201011,-1.189 0,-0.658706 0.535651,-1.189 1.201011,-1.189 z m -8e-6,-10.000002 h 2.35198 c 0.66536,0 1.20101,0.530294 1.20101,1.189 0,0.658706 -0.53565,1.189 -1.20101,1.189 h -2.35198 c -0.66536,0 -1.20101,-0.530294 -1.20101,-1.189 0,-0.658706 0.53565,-1.189 1.20101,-1.189 z M 4.828904,58.542856 a 1.8,1.8 0 0 1 -1.8,1.8 1.8,1.8 0 0 1 -1.8,-1.8 1.8,1.8 0 0 1 1.8,-1.8 1.8,1.8 0 0 1 1.8,1.8 z m 14.149999,6.05 a 1.8,1.8 0 0 1 -1.8,1.8 1.8,1.8 0 0 1 -1.8,-1.8 1.8,1.8 0 0 1 1.8,-1.8 1.8,1.8 0 0 1 1.8,1.8 z m 0.05,-12.049999 a 1.8,1.8 0 0 1 -1.8,1.8 1.8,1.8 0 0 1 -1.8,-1.8 1.8,1.8 0 0 1 1.8,-1.8 1.8,1.8 0 0 1 1.8,1.8 z M 28.0989,29.992859 a 2.1,2.1 0 0 1 -2.1,2.1 2.1,2.1 0 0 1 -2.1,-2.1 2.1,2.1 0 0 1 2.1,-2.1 2.1,2.1 0 0 1 2.1,2.1 z m 12.966,38.603003 h -4.752 v -2.376 h 4.752 z m 0,-20 h -4.752 v -2.376 h 4.752 z M 28.099906,14.752859 a 2.1010005,2.1010005 0 0 1 -2.101001,2.101001 2.1010005,2.1010005 0 0 1 -2.101,-2.101001 2.1010005,2.1010005 0 0 1 2.101,-2.101 2.1010005,2.1010005 0 0 1 2.101001,2.101 z m 2.04,-9.8949989 a 1.8010006,1.8010006 0 0 1 -1.801001,1.8010006 1.8010006,1.8010006 0 0 1 -1.801,-1.8010006 1.8010006,1.8010006 0 0 1 1.801,-1.8010006 1.8010006,1.8010006 0 0 1 1.801001,1.8010006 z m -22.6,0 A 1.8010006,1.8010006 0 0 1 5.7389054,6.6588607 1.8010006,1.8010006 0 0 1 3.9379048,4.8578601 1.8010006,1.8010006 0 0 1 5.7389054,3.0568595 1.8010006,1.8010006 0 0 1 7.539906,4.8578601 Z M 41.064893,78.595857 h -4.752 v -2.376 h 4.752 z m 0,-19.999996 h -4.752 v -2.376 h 4.752 z m 0,-20 h -4.752 v -2.376 h 4.752 z m 0,-20.000003 h -4.752 v -2.375999 h 4.752 z m 1.3e-5,10.000001 h -4.752 v -2.376 h 4.752 z M 27.2889,71.562856 a 1.8,1.8 0 0 1 -1.8,1.8 1.8,1.8 0 0 1 -1.8,-1.8 1.8,1.8 0 0 1 1.8,-1.8 1.8,1.8 0 0 1 1.8,1.8 z m -0.05,13.299999 a 1.8,1.8 0 0 1 -1.8,1.8 1.8,1.8 0 0 1 -1.8,-1.8 1.8,1.8 0 0 1 1.8,-1.8 1.8,1.8 0 0 1 1.8,1.8 z M 22.988903,71.562856 a 1.8,1.8 0 0 1 -1.8,1.8 1.8,1.8 0 0 1 -1.8,-1.8 1.8,1.8 0 0 1 1.8,-1.8 1.8,1.8 0 0 1 1.8,1.8 z m 0,13.299999 a 1.8,1.8 0 0 1 -1.8,1.8 1.8,1.8 0 0 1 -1.8,-1.8 1.8,1.8 0 0 1 1.8,-1.8 1.8,1.8 0 0 1 1.8,1.8 z m -6.3,-13.249999 a 1.8,1.8 0 0 1 -1.8,1.8 1.8,1.8 0 0 1 -1.8,-1.8 1.8,1.8 0 0 1 1.8,-1.8 1.8,1.8 0 0 1 1.8,1.8 z m -7.3000127,-1.850001 0.182508,0.01872 0.197856,0.06564 0.177444,0.10932 0.1475157,0.147276 0.10968,0.177252 0.066,0.197724 0.01908,0.184056 v 1.8 l -0.01872,0.182508 -0.06564,0.197844 -0.10932,0.177444 -0.1472757,0.147528 -0.177252,0.10968 -0.197724,0.066 -0.184056,0.01908 H 7.5889861 l -0.182508,-0.01872 -0.197844,-0.06564 -0.177444,-0.10932 -0.1475281,-0.147264 -0.10968,-0.177252 -0.066,-0.197736 -0.01908,-0.184044 v -1.8 l 0.01872,-0.182508 0.06564,-0.197856 0.10932,-0.177444 0.1472641,-0.147516 0.177264,-0.10968 0.197724,-0.066 0.184056,-0.01908 z M 19.028903,35.202858 a 1.8,1.8 0 0 1 -1.8,1.8 1.8,1.8 0 0 1 -1.8,-1.8 1.8,1.8 0 0 1 1.8,-1.8 1.8,1.8 0 0 1 1.8,1.8 z m -0.05,12.049999 a 1.8,1.8 0 0 1 -1.8,1.8 1.8,1.8 0 0 1 -1.8,-1.8 1.8,1.8 0 0 1 1.8,-1.8 1.8,1.8 0 0 1 1.8,1.8 z m -14.149999,-6.05 a 1.8,1.8 0 0 1 -1.8,1.8 1.8,1.8 0 0 1 -1.8,-1.8 1.8,1.8 0 0 1 1.8,-1.8 1.8,1.8 0 0 1 1.8,1.8 z M 41.0649,88.595862 h -4.752 v -2.376 h 4.752 z M 28.7229,60.799856 a 1.8,1.8 0 0 1 -1.8,1.8 1.8,1.8 0 0 1 -1.8,-1.8 1.8,1.8 0 0 1 1.8,-1.8 1.8,1.8 0 0 1 1.8,1.8 z m 0,-22.599998 a 1.8,1.8 0 0 1 -1.8,1.8 1.8,1.8 0 0 1 -1.8,-1.8 1.8,1.8 0 0 1 1.8,-1.8 1.8,1.8 0 0 1 1.8,1.8 z m 1.416,56.192996 a 1.8,1.8 0 0 1 -1.8,1.8 1.8,1.8 0 0 1 -1.8,-1.8 1.8,1.8 0 0 1 1.8,-1.8 1.8,1.8 0 0 1 1.8,1.8 z m -22.599996,0 a 1.8,1.8 0 0 1 -1.8,1.8 1.8,1.8 0 0 1 -1.8,-1.8 1.8,1.8 0 0 1 1.8,-1.8 1.8,1.8 0 0 1 1.8,1.8 z" /></g></svg>
