M48
; DRILL file {KiCad (6.0.5)} date Wed Jul 27 12:55:49 2022
; FORMAT={-:-/ absolute / inch / decimal}
; #@! TF.CreationDate,2022-07-27T12:55:49-04:00
; #@! TF.GenerationSoftware,Kicad,Pcbnew,(6.0.5)
; #@! TF.FileFunction,Plated,1,2,PTH
FMAT,2
INCH
; #@! TA.AperFunction,Plated,PTH,ViaDrill
T1C0.0157
; #@! TA.AperFunction,Plated,PTH,ComponentDrill
T2C0.0276
; #@! TA.AperFunction,Plated,PTH,ComponentDrill
T3C0.0315
; #@! TA.AperFunction,Plated,PTH,ComponentDrill
T4C0.0394
; #@! TA.AperFunction,Plated,PTH,ComponentDrill
T5C0.0409
; #@! TA.AperFunction,Plated,PTH,ComponentDrill
T6C0.0512
; #@! TA.AperFunction,Plated,PTH,ComponentDrill
T7C0.0520
%
G90
G05
T1
X3.6295Y-3.579
X3.7314Y-4.187
X3.7874Y-3.612
X3.8374Y-5.152
X3.8574Y-3.077
X3.8874Y-3.047
X3.9074Y-5.297
X3.9274Y-3.107
X3.9584Y-3.627
X3.9724Y-3.527
X3.9774Y-3.462
X3.9874Y-3.227
X3.9924Y-5.617
X4.0324Y-3.592
X4.0574Y-3.147
X4.1074Y-4.497
X4.1774Y-3.347
X4.2074Y-3.977
X4.2124Y-2.462
X4.2574Y-3.347
X4.2774Y-3.387
X4.2939Y-4.542
X4.3074Y-3.4817
X4.3074Y-3.547
X4.3074Y-5.047
X4.3197Y-4.497
X4.3274Y-3.847
X4.3474Y-4.997
X4.3574Y-4.947
X4.3944Y-3.567
X4.3974Y-4.497
X4.4074Y-3.347
X4.4174Y-4.367
X4.4874Y-2.257
X4.5574Y-3.647
X4.5974Y-3.387
X4.6274Y-4.747
X4.9424Y-2.997
X4.9574Y-2.697
X4.9574Y-3.197
X5.0574Y-3.897
X5.0634Y-3.3687
X5.1574Y-3.597
X5.1574Y-4.097
X5.3274Y-3.077
X5.3374Y-4.592
T2
X5.0824Y-2.807
X5.0824Y-3.107
X6.3824Y-2.507
X6.3824Y-3.107
T3
X4.057Y-2.5066
X4.057Y-2.6066
X4.057Y-2.7066
X4.057Y-2.8066
X4.357Y-2.5066
X4.357Y-2.6066
X4.357Y-2.7066
X4.357Y-2.8066
T4
X3.5774Y-2.2299
X3.5774Y-2.3299
X3.5774Y-2.4299
X3.5774Y-2.5299
X3.5774Y-2.6299
X3.5774Y-2.7299
X3.5774Y-2.8299
X3.5774Y-2.9299
X3.5774Y-3.0299
X3.5774Y-3.1299
X3.5774Y-3.2299
X3.5774Y-3.3299
X3.5774Y-3.4299
X3.5774Y-3.5299
X3.5774Y-3.6299
X3.5774Y-3.7299
X3.5774Y-3.8299
X3.5774Y-3.9299
X3.5774Y-4.0299
X3.5874Y-4.637
X3.588Y-4.246
X3.5882Y-5.046
X3.5882Y-5.447
X3.5882Y-5.6281
X3.6874Y-4.637
X3.688Y-4.246
X3.6882Y-5.046
X3.6882Y-5.447
X3.6882Y-5.6281
X3.7874Y-4.637
X3.788Y-4.246
X4.2178Y-5.447
X4.517Y-5.447
X4.6584Y-4.271
X4.7584Y-4.271
X4.8354Y-2.2299
X4.8354Y-2.3299
X4.8354Y-2.4299
X4.8354Y-2.5299
X4.8354Y-2.6299
X4.8354Y-2.7299
X4.8354Y-2.8299
X4.8354Y-2.9299
X4.8354Y-3.0299
X4.8354Y-3.1299
X4.8354Y-3.2299
X4.8354Y-3.3299
X4.8354Y-3.4299
X4.8354Y-3.5299
X4.8354Y-3.6299
X4.8354Y-3.7299
X4.8354Y-3.8299
X4.8354Y-3.9299
X4.8354Y-4.0299
X4.8578Y-4.646
X4.8578Y-5.046
X4.8578Y-5.446
X4.8584Y-4.271
X4.9578Y-4.646
X4.9578Y-5.046
X4.9578Y-5.446
X4.9584Y-4.271
X5.0578Y-4.646
X5.0578Y-5.046
X5.0578Y-5.446
X5.0584Y-4.271
X5.1578Y-4.646
X5.1578Y-5.046
X5.1578Y-5.446
X5.1584Y-4.271
X5.5496Y-3.3676
X5.5496Y-3.84
X5.5496Y-4.0531
X5.5496Y-4.5256
T5
X3.7054Y-2.23
X3.7054Y-2.33
X3.7054Y-2.43
X3.7054Y-2.53
X3.7054Y-2.63
X3.7054Y-2.73
X3.7054Y-2.83
X3.7054Y-2.93
X3.7054Y-3.03
X3.7054Y-3.13
X3.7054Y-3.23
X3.7054Y-3.33
X3.7054Y-3.43
X3.7054Y-3.53
X3.7054Y-3.63
X3.7054Y-3.73
X3.7054Y-3.83
X3.7054Y-3.93
X3.7054Y-4.03
X4.7054Y-2.23
X4.7054Y-2.33
X4.7054Y-2.43
X4.7054Y-2.53
X4.7054Y-2.63
X4.7054Y-2.73
X4.7054Y-2.83
X4.7054Y-2.93
X4.7054Y-3.03
X4.7054Y-3.13
X4.7054Y-3.23
X4.7054Y-3.33
X4.7054Y-3.43
X4.7054Y-3.53
X4.7054Y-3.63
X4.7054Y-3.73
X4.7054Y-3.83
X4.7054Y-3.93
X4.7054Y-4.03
T6
X5.4728Y-3.6018
X5.4728Y-4.2874
X5.6307Y-4.8562
X5.6326Y-5.3799
X5.6539Y-5.707
X5.6689Y-2.252
X5.835Y-5.707
X5.85Y-2.252
X5.8826Y-4.8582
X5.8826Y-5.3799
X6.0299Y-3.84
X6.0299Y-4.5256
X6.0318Y-3.3656
X6.0318Y-4.0512
X6.1307Y-4.8562
X6.1307Y-5.3799
X6.2799Y-5.707
X6.2949Y-2.252
X6.298Y-5.3799
X6.2999Y-4.8562
X6.3874Y-3.3234
X6.3874Y-3.5045
X6.3874Y-3.9494
X6.3874Y-4.1305
X6.461Y-5.707
X6.476Y-2.252
T7
X6.8134Y-2.4879
X6.8134Y-2.6848
X6.8134Y-2.8816
X6.8134Y-3.0785
X6.8134Y-3.2753
X6.8134Y-3.4722
X6.8134Y-3.669
X6.8134Y-3.8659
X6.8134Y-4.0627
X6.8134Y-4.2596
X6.8134Y-4.4564
X6.8134Y-4.6533
X6.8134Y-4.8501
X6.8134Y-5.047
X6.8134Y-5.2438
X6.8134Y-5.4407
T0
M30
